<?xml version="1.0" encoding="utf-8"?>
<!-- Generator: Adobe Illustrator 24.0.2, SVG Export Plug-In . SVG Version: 6.00 Build 0)  -->
<svg version="1.1" id="Capa_1" xmlns="http://www.w3.org/2000/svg" xmlns:xlink="http://www.w3.org/1999/xlink" x="0px" y="0px"
	 viewBox="0 0 133.8 188.8" style="enable-background:new 0 0 133.8 188.8;" xml:space="preserve">
<style type="text/css">
	.st0{fill:#362E17;}
	.st1{fill:#964515;}
	.st2{fill:#F2B006;}
	.st3{opacity:0.8;fill:#F2B006;}
	.st4{fill:#FFFFFF;}
</style>
<g>
	<path class="st0" d="M45.9,58.7c9.9,8.8,24.8,6.8,25.5,11.6c0.1,0.6-0.5,0.7-5.3,7.2c-0.7,0.9-7.6,9.8-7.1,10.2
		c2.7,2.2,5.3,4.5,8,6.7c10.5,8.8,21,17.6,31.6,26.4c3.9,3.3,7.8,6.6,11.7,9.8c0.8,0.6,1.5,1.2,2.3,1.9c2.9,2.4,2.1,6.9,2,10.2
		c-0.1,2,0.4,4.3-1.2,5.8c-0.3,0.3-0.5,0.5-0.8,0.8c-1.7,1.6-3.4,3.2-5.1,4.9c-5.1,4.8-10.1,9.5-15.2,14.3
		c-2.5,2.3-7.4,8.9-11.1,4.8c-1.4-1.6-2.8-3.1-4.3-4.7c-3.1-3.4-16-17.6-23.4-25.8c-6.3-7.1-16.4-19.5-31.1-41.5
		c8-21.3,17.7-44.2,23-42.9C45.5,58.5,45.6,58.4,45.9,58.7z"/>
	<path class="st1" d="M66.9,18.6c0.2,15.1-4.2,22.8-8.3,27.1c-3.2,3.3-7.7,6.1-7.1,8.7c0.6,2.4,5.4,3.3,9.2,3.6c0,0,11.2,3.8,12.1,8
		c0.1,0.6,0.1,1.2,0.1,1.2c-0.1,0.7-0.3,1.3-0.7,1.9L54.5,93.5l58.7,49.2c0.8,0.7,1.4,1.8,1.4,2.9c0,1.1-0.4,2.2-1.2,3l-26.6,25
		c-0.8,0.7-1.8,1.1-2.9,1.1c-1.1,0-2-0.5-2.8-1.3c-22.4-23.6-44.9-47.2-67.3-70.7C31.5,74.6,49.2,46.6,66.9,18.6z"/>
	<path class="st2" d="M84,170.7l26.6-25L49.1,94.1l19.8-27.2c-16,11.6-32.1,23.2-48.1,34.8C41.9,124.7,62.9,147.7,84,170.7z"/>
	<path class="st3" d="M68.6,110.4l42,35.2l-26.6,25c-11.3-12.3-22.5-24.6-33.8-36.9c1.4-3.5,3.7-8.5,7.8-13.5
		C61.7,115.7,65.6,112.5,68.6,110.4z"/>
	<path class="st4" d="M110.6,145.7l-26.6,25c-13.8-14.9-20.6-22.5-20.4-22.7c0.2-0.2,6.2,5.6,17.9,17.5l24.3-21.1L48.1,94l17.2-27.3
		l-11.1-9.2l14.7,9.3c0,0-20,27.5-19.8,27.2L110.6,145.7z"/>
	<path class="st0" d="M80.3,114.9c-1.4-1.5-3.6-3.7-6.4-6.3c-5.7-5.2-10.1-7.2-8.7-8.9c2-2.4,4.1-4.8,6.1-7.3c8-9.5,16-19.1,24-28.6
		c3-3.6,5.9-7.1,8.9-10.6c0.6-0.7,1.1-1.4,1.7-2c2.2-2.6,0.5-6.8-0.2-9.9c-0.5-1.9-0.5-4.1-2.3-5.3c-0.3-0.2-0.6-0.4-0.9-0.6
		c-1.9-1.3-3.8-2.7-5.8-4c-5.7-4-11.4-7.9-17.1-11.9c-2.8-1.9-8.7-7.6-11.3-3.4c-1,1.6-2,3.3-3,4.9c-5.5,9-11,18-16.5,27.1
		C38.4,65.2,28.1,82.2,17.6,99.3c-0.1,0.2-0.3,0.4-0.4,0.7C16.9,101,68.9,124.8,80.3,114.9z"/>
	<path class="st1" d="M59.9,94.8l44.6-53.1c0.6-0.8,0.9-1.8,0.7-2.9c-0.2-1.1-0.8-2-1.8-2.7L73.6,15.3c-0.9-0.6-1.9-0.9-2.9-0.7
		c-1,0.2-1.8,0.7-2.3,1.5L17.5,99.5c-0.8,1.4-0.6,3.3,0.6,4.6l34.5,37.7c0,0,0,0,0,0c0,0,9.2-8.9,27.7-26.8
		C73.5,108.2,66.7,101.5,59.9,94.8z"/>
	<polygon class="st2" points="71.6,18.3 101.5,39 54.8,94.8 78.7,118.4 55.3,139.3 20.8,101.7 	"/>
	<path class="st3" d="M69.5,77.1L101.5,39L71.6,18.3L45,61.9C53.7,66,61.9,71.4,69.5,77.1z"/>
	<path class="st4" d="M101.5,39L71.6,18.3l-9.3,15.3l8.1-10.1l26.9,17.3L53.8,95c17.5,18.1,35.1,36.1,52.6,54.2
		c1.4-1.2,2.8-2.3,4.2-3.5c-37.3-33.9-55.9-50.9-55.9-50.9c0,0,0,0,0,0L101.5,39z"/>
	<path class="st3" d="M45.8,125.4c1.1-0.9-6.4-10.3-10.7-15.2l-7.8-8.9L37,86c3.9-6.2,3.1-7.8,2.5-8.3c-0.6-0.5-1.2-1.5-5.9,5.9
		l-11.2,17.7l10,11.3C35.4,116.1,44.7,126.3,45.8,125.4z M44.1,69.7c0.7,0.3,1.6,2.5-0.2,5.2c-1.8,2.7-3.1,1.2-2.9-0.3
		C41.6,70.2,43.4,69.5,44.1,69.7z"/>
</g>
</svg>
