<?xml version="1.0" encoding="utf-8"?>
<!-- Generator: Adobe Illustrator 24.0.2, SVG Export Plug-In . SVG Version: 6.00 Build 0)  -->
<svg version="1.1" id="Capa_1" xmlns="http://www.w3.org/2000/svg" xmlns:xlink="http://www.w3.org/1999/xlink" x="0px" y="0px"
	 viewBox="0 0 183.1 127.2" style="enable-background:new 0 0 183.1 127.2;" xml:space="preserve">
<style type="text/css">
	.st0{fill:#362E17;}
	.st1{fill:#964515;}
	.st2{fill:#F2B006;}
	.st3{opacity:0.8;fill:#F2B006;}
	.st4{fill:#FFFFFF;}
</style>
<g>
	<path class="st0" d="M131.3,51.7c-9.8,9-9.2,24-14,24.2c-0.6,0-0.7-0.6-6.7-6c-0.9-0.8-8.9-8.6-9.5-8c-2.5,2.4-5,4.9-7.5,7.3
		c-9.8,9.6-19.6,19.2-29.4,28.8c-3.7,3.6-7.3,7.1-11,10.7c-0.7,0.7-1.4,1.4-2.1,2.1c-2.7,2.6-7.1,1.4-10.3,1c-2-0.2-4.3,0-5.6-1.8
		c-0.2-0.3-0.5-0.6-0.7-0.9c-1.4-1.9-2.9-3.7-4.3-5.6c-4.2-5.5-8.5-11-12.7-16.6c-2.1-2.7-8.1-8.2-3.7-11.5c1.7-1.3,3.4-2.5,5.1-3.8
		c3.7-2.8,19.1-14.2,28-20.7c7.7-5.6,21-14.4,44.4-26.8c20.4,10,42.2,22,40.4,27.1C131.5,51.3,131.5,51.5,131.3,51.7z"/>
	<path class="st1" d="M169,76.5c-15-1.3-22.3-6.4-26.1-11c-2.9-3.5-5.3-8.3-8-7.9c-2.5,0.4-3.8,5-4.5,8.8c0,0-4.9,10.8-9.2,11.2
		c-0.6,0.1-1.2-0.1-1.2-0.1c-0.7-0.1-1.3-0.4-1.8-0.9L95.8,56.8L41,110.3c-0.8,0.8-1.9,1.2-3,1.1c-1.1-0.1-2.2-0.6-2.8-1.5L12.9,81
		c-0.6-0.9-0.9-1.9-0.8-3c0.1-1,0.7-2,1.6-2.6c25.7-20,51.4-40,77.1-60C116.8,35.8,142.9,56.2,169,76.5z"/>
	<path class="st2" d="M16,78.5l22.3,28.9l57.4-56.1l25.2,22.4c-10-17.1-19.9-34.2-29.9-51.3C65.9,41.1,41,59.8,16,78.5z"/>
	<path class="st3" d="M77.5,69.1l-39.2,38.3L16,78.5c13.3-10,26.7-20,40-30c3.4,1.7,8,4.6,12.7,9.1C72.9,61.8,75.7,66,77.5,69.1z"/>
	<path class="st4" d="M38.3,107.5L16,78.5c16.2-12.3,24.4-18.3,24.6-18c0.2,0.2-6.2,5.6-19.2,16.1L40,102.9l55.9-52.5l25.4,19.8
		l10.3-10.1l-10.7,13.7c0,0-25.4-22.6-25.2-22.4L38.3,107.5z"/>
	<path class="st0" d="M71.9,80.4c1.7-1.3,4.1-3.2,6.9-5.7c5.7-5.2,8.1-9.4,9.7-7.7c2.2,2.3,4.4,4.5,6.6,6.8
		c8.7,8.9,17.4,17.8,26.1,26.7c3.2,3.3,6.5,6.6,9.7,9.9c0.6,0.6,1.2,1.3,1.9,1.9c2.4,2.4,6.7,1.2,9.9,0.7c1.9-0.3,4.1-0.1,5.5-1.8
		c0.3-0.3,0.5-0.6,0.7-0.9c1.5-1.8,3.1-3.6,4.6-5.3c4.5-5.3,9-10.6,13.5-15.8c2.2-2.6,8.4-7.9,4.5-10.9c-1.5-1.2-3.1-2.3-4.6-3.5
		c-8.4-6.4-16.9-12.7-25.3-19.1c-16-12-31.9-24.1-47.8-36.1c-0.2-0.2-0.4-0.3-0.6-0.4C92,18.6,63.1,68,71.9,80.4z"/>
	<path class="st1" d="M93.9,62l48.5,49.6c0.7,0.7,1.7,1.1,2.8,1c1.1-0.1,2.1-0.6,2.8-1.5l23.6-27.7c0.7-0.8,1-1.8,1-2.8
		c-0.1-1-0.5-1.9-1.3-2.5l-78-58.8c-1.3-1-3.2-0.9-4.6,0.2L47.9,50.1c0,0,0,0,0,0c0,0,8,10.1,23.9,30.3C79.2,74.3,86.6,68.1,93.9,62
		z"/>
	<polygon class="st2" points="168.9,81.3 145.3,108.9 94.5,56.9 68.6,78.4 50.1,53 90.9,22.4 	"/>
	<path class="st3" d="M110.5,73.4l34.7,35.5l23.6-27.7l-40.8-30.8C123.1,58.7,117,66.4,110.5,73.4z"/>
	<path class="st4" d="M145.3,108.9l23.6-27.7l-14.3-10.8l9.3,9.1L144,104.6L94.3,55.9c-19.7,15.7-39.4,31.3-59.1,47
		c1,1.5,2,3,3.1,4.6c37.4-33.7,56.2-50.6,56.2-50.5c0,0,0,0,0,0L145.3,108.9z"/>
	<path class="st3" d="M64.9,45c0.8,1.2,10.9-5.3,16.2-9.1l9.6-6.9l14.2,11.1c5.8,4.5,7.4,3.8,8,3.3c0.6-0.5,1.6-1-5.3-6.4L91.1,24
		l-12.3,8.8C75.1,35.5,64.1,43.8,64.9,45z M120.4,48.8c-0.3,0.7-2.7,1.4-5.2-0.7c-2.5-2-0.9-3.2,0.6-2.8
		C120.1,46.2,120.7,48.1,120.4,48.8z"/>
</g>
</svg>
