<?xml version="1.0" encoding="utf-8"?>
<!-- Generator: Adobe Illustrator 24.0.2, SVG Export Plug-In . SVG Version: 6.00 Build 0)  -->
<svg version="1.1" id="Capa_1" xmlns="http://www.w3.org/2000/svg" xmlns:xlink="http://www.w3.org/1999/xlink" x="0px" y="0px"
	 viewBox="0 0 133.8 188.8" style="enable-background:new 0 0 133.8 188.8;" xml:space="preserve">
<style type="text/css">
	.st0{fill:#362E17;}
	.st1{fill:#964515;}
	.st2{fill:#F2B006;}
	.st3{opacity:0.8;fill:#F2B006;}
	.st4{fill:#FFFFFF;}
</style>
<g>
	<path class="st0" d="M83.9,58.4C73.9,67.2,59,65.2,58.4,70c-0.1,0.6,0.5,0.7,5.3,7.2c0.7,0.9,7.6,9.8,7.1,10.2
		c-2.7,2.2-5.3,4.5-8,6.7c-10.5,8.8-21,17.6-31.6,26.4c-3.9,3.3-7.8,6.6-11.7,9.8c-0.8,0.6-1.5,1.2-2.3,1.9c-2.9,2.4-2.1,6.9-2,10.2
		c0.1,2-0.4,4.3,1.2,5.8c0.3,0.3,0.5,0.5,0.8,0.8c1.7,1.6,3.4,3.2,5.1,4.9c5.1,4.8,10.1,9.5,15.2,14.3c2.5,2.3,7.4,8.9,11.1,4.8
		c1.4-1.6,2.8-3.1,4.3-4.7c3.1-3.4,16-17.6,23.4-25.8c6.3-7.1,16.4-19.5,31.1-41.5c-8-21.3-17.7-44.2-23-42.9
		C84.2,58.2,84.1,58.2,83.9,58.4z"/>
	<path class="st1" d="M62.8,18.4c-0.2,15.1,4.2,22.8,8.3,27.1c3.2,3.3,7.7,6.1,7.1,8.7c-0.6,2.4-5.4,3.3-9.2,3.6
		c0,0-11.2,3.8-12.1,8c-0.1,0.6-0.1,1.2-0.1,1.2c0.1,0.7,0.3,1.3,0.7,1.9l17.6,24.3l-58.7,49.2c-0.8,0.7-1.4,1.8-1.4,2.9
		c0,1.1,0.4,2.2,1.2,3l26.6,25c0.8,0.7,1.8,1.1,2.9,1.1c1.1,0,2-0.5,2.8-1.3c22.4-23.6,44.9-47.2,67.3-70.7
		C98.2,74.3,80.5,46.4,62.8,18.4z"/>
	<path class="st2" d="M45.7,170.4l-26.6-25l61.5-51.5L60.8,66.6c16,11.6,32.1,23.2,48.1,34.8C87.9,124.4,66.8,147.4,45.7,170.4z"/>
	<path class="st3" d="M61.2,110.2l-42,35.2l26.6,25c11.3-12.3,22.5-24.6,33.8-36.9c-1.4-3.5-3.7-8.5-7.8-13.5
		C68,115.4,64.1,112.2,61.2,110.2z"/>
	<path class="st4" d="M19.1,145.4l26.6,25c13.8-14.9,20.6-22.5,20.4-22.7c-0.2-0.2-6.2,5.6-17.9,17.5l-24.3-21.1l57.8-50.4
		L64.4,66.5l11.1-9.2l-14.7,9.3c0,0,20,27.5,19.8,27.2L19.1,145.4z"/>
	<path class="st0" d="M49.4,114.7c1.4-1.5,3.6-3.7,6.4-6.3c5.7-5.2,10.1-7.2,8.7-8.9c-2-2.4-4.1-4.8-6.1-7.3c-8-9.5-16-19.1-24-28.6
		c-3-3.6-5.9-7.1-8.9-10.6c-0.6-0.7-1.1-1.4-1.7-2c-2.2-2.6-0.5-6.8,0.2-9.9c0.5-1.9,0.5-4.1,2.3-5.3c0.3-0.2,0.6-0.4,0.9-0.6
		c1.9-1.3,3.8-2.7,5.8-4c5.7-4,11.4-7.9,17.1-11.9c2.8-1.9,8.7-7.6,11.3-3.4c1,1.6,2,3.3,3,4.9c5.5,9,11,18,16.5,27.1
		C91.3,64.9,101.7,82,112.1,99c0.1,0.2,0.3,0.4,0.4,0.7C112.9,100.7,60.8,124.6,49.4,114.7z"/>
	<path class="st1" d="M69.9,94.5L25.3,41.4c-0.6-0.8-0.9-1.8-0.7-2.9c0.2-1.1,0.8-2,1.8-2.7L56.2,15c0.9-0.6,1.9-0.9,2.9-0.7
		c1,0.2,1.8,0.7,2.3,1.5l50.8,83.4c0.8,1.4,0.6,3.3-0.6,4.6l-34.5,37.7c0,0,0,0,0,0c0,0-9.2-8.9-27.7-26.8
		C56.2,107.9,63,101.2,69.9,94.5z"/>
	<polygon class="st2" points="58.1,18 28.3,38.8 75,94.5 51,118.1 74.5,139.1 109,101.4 	"/>
	<path class="st3" d="M60.2,76.9L28.3,38.8L58.1,18l26.6,43.6C76.1,65.8,67.8,71.2,60.2,76.9z"/>
	<path class="st4" d="M28.3,38.8L58.1,18l9.3,15.3l-8.1-10.1L32.4,40.5l43.5,54.2c-17.5,18.1-35.1,36.1-52.6,54.2
		c-1.4-1.2-2.8-2.3-4.2-3.5C56.4,111.5,75,94.5,75,94.5c0,0,0,0,0,0L28.3,38.8z"/>
	<path class="st3" d="M84,125.1c-1.1-0.9,6.4-10.3,10.7-15.2l7.8-8.9l-9.7-15.3c-3.9-6.2-3.1-7.8-2.5-8.3c0.6-0.5,1.2-1.5,5.9,5.9
		l11.2,17.7l-10,11.3C94.3,115.9,85,126,84,125.1z M85.6,69.5c-0.7,0.3-1.6,2.5,0.2,5.2c1.8,2.7,3.1,1.2,2.9-0.3
		C88.1,70,86.4,69.2,85.6,69.5z"/>
</g>
</svg>
