<?xml version="1.0" encoding="utf-8"?>
<!-- Generator: Adobe Illustrator 24.0.2, SVG Export Plug-In . SVG Version: 6.00 Build 0)  -->
<svg version="1.1" id="Capa_1" xmlns="http://www.w3.org/2000/svg" xmlns:xlink="http://www.w3.org/1999/xlink" x="0px" y="0px"
	 viewBox="0 0 256 39" style="enable-background:new 0 0 256 39;" xml:space="preserve">
<style type="text/css">
	.st0{fill:#362E17;}
	.st1{fill:#964515;}
	.st2{fill:#F2B006;}
	.st3{opacity:0.8;fill:#F2B006;enable-background:new    ;}
	.st4{fill:#FFFFFF;}
	.st5{fill:#F7EC6A;}
	.st6{opacity:0.59;fill:#F2B006;enable-background:new    ;}
	.st7{opacity:0.8;}
	.st8{opacity:0.7;}
	.st9{fill:#FABA4B;}
</style>
<g>
	<path class="st0" d="M15.5,14.9c0.3,0.4,0.8,0.8,1.2,1.1c0.2,0.3,0.5,0.4,0.9,0.4c0.5,0,0.9,0.1,1.3,0.1c1.6,0.2,3.1,0.3,4.7,0.5
		c1,0.1,2.9,0.7,3.2-0.7c0.2-0.7,0.1-1.3,0.6-1.9c0.3-0.3,0.7-0.5,1.1-0.6c0.3-0.1,0.6,0,0.8,0c0.3,0,0.2,0.4,0.2,0.7
		c-0.1,3-3,5.5-5.4,6.9c-1,0.6-2.1,1.1-3.3,1.5c-0.6,0.2-1.3,0.4-1.9,0.6s-1.4,0.2-1.8,0.8c-0.3,0.4-0.2,0.9-0.2,1.4
		c0.1,0.6,0.1,1.3,0.2,1.9c0.2,1.5,0.3,2.9,0.5,4.4c0.1,0.5,0.1,1.1,0.6,1.4c0.3,0.4,0.8,0.8,1.2,1.1c0.5,0.5,1,0.6,1.6,0.6
		c5-0.4,10.1-0.2,15.2,0c1.1,0.1,1.4-0.7,1.5-1.6c0.1-1.1,0.2-2.2,0.3-3.4c0.1-0.9,0.2-1.9,0.3-2.8c0.1-0.7-0.3-1.1-0.8-1.5
		c-0.3-0.3-0.7-0.6-1-0.9c-0.4-0.4-0.7-0.5-1.3-0.5c1.8-1.8,3.3-4,4-6.5s0.5-5.4-0.6-7.8c-0.9-2-2.6-3.5-4.3-4.9
		c-1.9-1.6-4.4-2.4-6.8-2.6c-3.1-0.3-6.3,0.7-8.7,2.6c-1.3,1.1-2.4,2.5-3.1,4.1c-0.4,0.9-0.7,1.8-0.8,2.8
		C14.8,13,14.5,14.2,15.5,14.9C15.5,15,15.4,14.9,15.5,14.9z"/>
	<path class="st1" d="M23.6,15.1c0.2,0,0.5-0.1,0.7-0.2c0.2-0.2,0.3-0.4,0.3-0.7s0.2-2.6,2.4-2.6c0.3,0,0.7,0,1.1,0.1
		c1.3,0.3,1.5,1.5,1.5,2.2c0,2.8-3.1,7.7-11.9,9.7c-0.4,0.1-0.7,0.5-0.7,1l0.8,7.4c0.1,0.5,0.4,0.8,0.9,0.8h0.1
		c1.6-0.2,3.8-0.2,6.5-0.2c4.6,0,9.2,0.2,9.2,0.2c0.5,0,0.9-0.3,0.9-0.8l0.6-6.8c0-0.2-0.1-0.5-0.2-0.7c-0.2-0.2-0.4-0.3-0.7-0.3
		c-1.2,0-2.7-0.1-4.3-0.1c3-2.4,6.5-6.2,6.4-11.2C37.1,4.6,29.9,2.5,26.1,2.5c-0.1,0-0.2,0-0.3,0C20.9,2.7,15,5.6,14.5,13.3
		c0,0.5,0.3,0.9,0.8,1L23.6,15.1z"/>
	<path class="st2" d="M36.5,12.9c-0.1-8.1-7.4-9.6-10.4-9.5S16.2,5,15.7,13.3l8,0.9c0,0,0.1-4.3,4.6-3.3s2.8,10.6-10.4,13.7l0.8,7.4
		c5.6-0.5,15.9,0,15.9,0l0.6-6.8c-1.8-0.1-4.4-0.2-7-0.2C31.1,23.2,36.5,18.9,36.5,12.9z"/>
	<path class="st3" d="M28.3,10.9c2.2,0.5,2.9,2.9,1.6,5.7c1.8,0.3,3.7,0.7,5.5,0.9c0.7-1.4,1.1-2.9,1.1-4.6
		c-0.1-8.1-7.4-9.6-10.4-9.5S16.2,5,15.7,13.3l8,0.9C23.7,14.2,23.8,9.9,28.3,10.9z"/>
	<g>
		<path class="st4" d="M26.1,4.5c3-0.1,10,1.4,10.4,9.1c0-0.2,0-0.4,0-0.7c-0.1-8.1-7.4-9.6-10.4-9.5S16.2,5,15.7,13.3h0.1
			C16.8,6,23.2,4.6,26.1,4.5z"/>
	</g>
	<g>
		<path class="st4" d="M34.7,30.5l0.5-5.3c-1.5,0-4.9-0.2-7-0.2c-0.6,0.3-1,0.5-1.2,0.4c2.3,0.1,5.9,0.1,7.9,0.1
			C35.1,25.5,34.6,30.5,34.7,30.5z"/>
	</g>
	<g>
		<path class="st4" d="M30.5,14.5c-0.4,3.4-4.1,8.1-12.6,10.1l0.7,6.5c0.2,0-0.3-5.6-0.1-5.6c0.2-0.1,0.5-0.1,0.7-0.2
			C27.7,22.9,30.9,17.7,30.5,14.5z"/>
	</g>
	<path class="st5" d="M19.7,31.1c0,0.4,3,0.2,4.6,0.1c0.8-0.1,2.5-0.1,4.2-0.1c0.8,0,1.7,0.1,2.5,0.1s1.5,0.1,2,0.1c0.4,0,0.7,0,1,0
		c0.1,0,0.2,0,0.3,0l0,0v-0.1c0-0.1,0-0.1,0-0.1c0-0.2,0-0.3,0-0.5c0-0.1,0-0.1,0-0.2v-0.1c0-0.1,0-0.1,0-0.2s0-0.2-0.1-0.3
		c-0.1-0.3-0.2-0.4-0.3-0.4s-0.2-0.1-0.3,0.2c0,0.1-0.1,0.3-0.1,0.7v0.1l0,0l0,0l0,0l0,0c-0.1,0-0.2,0-0.4,0c-0.6,0-1.3-0.1-2.1-0.1
		s-1.6-0.1-2.4-0.1s-1.6,0-2.3,0s-1.4,0-2,0.1C23.1,30.3,19.7,30.8,19.7,31.1z M33.9,26.9c0.2-0.1,0.6,0.3,0.6,1.2s-0.5,0.7-0.6,0.4
		C33.4,27.4,33.7,27,33.9,26.9z"/>
</g>
<g>
	<path class="st0" d="M68.1,32.8c0.5,0.9,2.1,0.7,3,0.7c1.6,0.1,3.3,0.2,4.9,0.3c0.6,0,1.2,0.1,1.8,0.1c0.5,0,1,0.1,1.4-0.3
		s0.4-0.9,0.4-1.4c0-0.7,0.1-1.3,0.1-2c0.1-1.8,0.2-3.7,0.2-5.5c0.1,0,0.4,0,0.5,0.1c0,0.2,0,0.4,0.1,0.6c0.1,0.7,0.2,1.5,0.3,2.2
		c0.1,0.8,0.2,1.6,0.3,2.4c0,0.4,0,0.8,0.1,1.2c0.1,0.2,0.2,0.4,0.4,0.7c0.3,0.4,0.6,0.8,0.8,1c0.6,0.7,0.9,0.9,1.6,0.9
		c1.4-0.1,2.8-0.2,4.2-0.3c1.1-0.1,2.2-0.1,3.3-0.2c0.8,0,1.4-0.9,1.2-1.7c0-0.2-0.1-0.3-0.1-0.5c-0.5-2.1-1.1-4.2-1.6-6.3
		c-1.6-6.1-3.1-12.2-4.7-18.2c-0.2-0.8-0.4-1.5-0.6-2.3c0-0.1-0.1-0.3-0.1-0.4c-0.2-0.6-0.7-0.9-1.2-1.2c-0.4-0.3-1.1-0.9-1.6-0.9
		c-0.3,0-0.7,0-1,0c-1.5,0-3-0.1-4.5-0.1s-3-0.1-4.6-0.1c-0.7,0-1.9-0.2-2,0.8C70.5,4,70.3,5.6,70,7.3c-0.9,6.3-1.7,12.7-2.6,19
		c-0.2,1.3-0.3,2.5-0.5,3.8c0,0.2-0.1,0.4-0.1,0.6c-0.1,0.5,0.3,0.9,0.6,1.2C67.6,32.1,67.9,32.5,68.1,32.8z"/>
	<path class="st1" d="M67.7,31.6l9.2,0.5l0,0c0.2,0,0.5-0.1,0.6-0.2c0.2-0.2,0.3-0.4,0.3-0.6l0.3-8.4l2.1,0.2l0.9,8
		c0.1,0.5,0.5,0.9,1,0.8l7.8-0.5c0.3,0,0.5-0.2,0.7-0.4s0.2-0.5,0.1-0.8L83.5,2.4C83.4,2,83,1.7,82.6,1.7L71.4,1.5
		c-0.5,0-0.9,0.3-0.9,0.8l-3.8,28.3c0,0.3,0,0.5,0.2,0.7C67.2,31.5,67.4,31.6,67.7,31.6z M79.4,14.8h-0.8l0.1-3.6H79L79.4,14.8z"/>
	<path class="st2" d="M82.1,30.9l7.8-0.5L82.7,2.6L71.5,2.4l-3.8,28.3l9.2,0.5l0.4-9.4l3.8,0.3L82.1,30.9z M77.6,15.7l0.2-5.5h2
		l0.6,5.5H77.6z"/>
	<path class="st3" d="M71.1,19.4c1,0.3,3.5,1,5.2,1.3c1,0.2,1.9,0.3,2.9,0.4c0.4,0,0.8,0.1,1.1,0.1c0.1,0,0.2,0,0.2,0
		c0.1,0,0.2,0,0.3,0c2.2,0.1,4.4,0,6.5-0.3L82.5,2.4L71.3,2.2l-2.2,16.4C69.9,19,70.5,19.2,71.1,19.4z M77.8,10.2h2l0.6,5.5
		l-2.8-0.1L77.8,10.2z"/>
	<polygon class="st4" points="79.8,10.4 80.4,15.7 77.6,15.7 77.8,10.4 77.4,16.2 80.7,16.3 	"/>
	<path class="st4" d="M72.1,3.7l10.2,0.2c0,0,3.3,10.7,3.5,10.6L82.7,2.6L71.5,2.4l-1.7,12.3C70.1,14.8,72.1,3.7,72.1,3.7z"/>
	<path class="st3" d="M70.3,29.8c0,0.4,2.3,0.7,3.5,0.7c0.3,0,0.8,0,1.3,0c0.1,0,0.3,0,0.4,0s0.2,0,0.2,0h0.1c0,0,0.1,0,0.2,0l0,0
		l0,0c0.1,0,0.1,0,0.2-0.1c0,0,0,0,0.2-0.3c0-0.2,0-1-0.5-0.1l0,0H76c0,0,0.1-0.1,0.2-0.1s0.2-0.1,0.2,0V30l0,0v-0.2v-0.2
		c0-0.2,0-0.3,0-0.5c0.1-1.3,0.2-2.6,0.2-3.4c0.1-1.5-0.3-1.7-0.5-1.7s-0.4-0.1-0.5,1.7c-0.1,0.9-0.1,2.2-0.2,3.4c0,0.3,0,0.6,0,0.9
		l0,0v0.1c0,0.1,0,0.1,0.1,0.2c0,0.1,0,0.1,0,0.1c0.2-0.1-0.4,0.3,0.4-0.3l0,0l0,0V30v-0.3c0-0.1,0-0.1,0-0.1l0,0l0,0l0,0h-0.2
		c-0.1,0-0.3,0-0.4,0c-0.6,0-1.1,0-1.5,0C72.9,29.5,70.3,29.5,70.3,29.8z M76.3,22c0.2,0,0.6,0.3,0.6,0.9c-0.1,0.7-0.5,0.5-0.6,0.3
		C75.9,22.4,76.2,22.1,76.3,22z"/>
	<path class="st3" d="M82.6,30.2c0,0.4,2.4,0.3,3.7,0.2c0.3,0,0.8-0.1,1.4-0.1c0.4,0,0.7-0.1,1.1-0.1c0.2,0,0.3,0,0.5,0h0.3
		c0-0.1,0-0.2,0-0.2c-0.1-0.3-0.2-0.6-0.2-0.9c-0.3-1.3-0.7-2.7-0.9-3.5c-0.4-1.6-0.8-1.6-1-1.6s-0.4,0,0.1,1.8
		c0.3,0.9,0.6,2.2,0.9,3.4v0.1l0,0c-0.2,0-0.4,0-0.6,0c-0.6,0-1.1,0.1-1.5,0.1C85.3,29.5,82.6,29.8,82.6,30.2z M86.9,22
		c0.2-0.1,0.7,0.1,0.8,0.8c0.2,0.7-0.3,0.7-0.5,0.5C86.5,22.5,86.7,22.1,86.9,22z"/>
</g>
<g>
	<path class="st0" d="M116.8,9.1c-0.5-0.3-1-0.7-1.5-1c-1.6-1-3.4-1.5-5.2-2.1c-0.5-0.2-2.3-1.1-2.6-0.2c-0.4,0.6-0.5,1.6-0.7,2.2
		c-0.7,2.1-1.3,4.2-2,6.4c-0.9-2.5-1.9-5-2.8-7.4c-0.4-1-0.6-2.5-1.6-3c-0.5-0.3-1-0.7-1.5-1c-0.3-0.2-0.8-0.6-1.2-0.6
		c-1,0-2.3,0.4-3.3,0.6c-1.4,0.2-2.9,0.5-4.3,0.7c-0.8,0.1-0.8,0.7-0.5,1.4c0.3,0.8,0.7,1.6,1,2.3c1.2,2.8,2.5,5.7,3.7,8.5
		c2.1,4.8,4.2,9.6,6.3,14.4c0.2,0.5,1.2,0.9,1.7,1.3c0.2,0.2,0.5,0.3,0.8,0.5c0.9,0.6,2,0.4,3.1,0.5c1.2,0,2.6,0.3,3.8,0.1
		c0.7,0,0.8-1,0.9-1.5c0.8-2.7,1.6-5.3,2.4-8c0.9-3,1.8-6.1,2.7-9.1c0.3-1,0.6-2.1,0.9-3.1C117,10.3,117.5,9.4,116.8,9.1
		C116.8,9.1,117.1,9.2,116.8,9.1z"/>
	<polygon class="st2" points="108.1,6 113.9,7.9 107.3,30.2 101.2,30 90,4.3 97.8,3 104,19.2 	"/>
	<path class="st6" d="M112.3,13.3l1.6-5.4l-5.8-2l-2.8,9.1C107.7,14.8,110,14.1,112.3,13.3z"/>
	<path class="st6" d="M102.4,15.2L97.8,3l-7.9,1.3l4.3,9.8C97,14.7,99.7,15.2,102.4,15.2z"/>
	<path class="st1" d="M114.1,7.3l-5.8-2c-0.2-0.1-0.3,0-0.5,0c-0.2,0.1-0.3,0.2-0.3,0.4l-3.6,11.5L98.4,2.7
		c-0.1-0.3-0.4-0.5-0.7-0.4l-7.9,1.3c-0.2,0-0.4,0.2-0.5,0.3c-0.1,0.2-0.1,0.4,0,0.6l11.3,25.7c0.1,0.2,0.3,0.4,0.6,0.4l6.1,0.2l0,0
		c0.3,0,0.5-0.2,0.6-0.5L114.5,8C114.6,7.8,114.4,7.4,114.1,7.3z M106.8,29.5l-5.2-0.1L90.9,4.8l6.6-1.1l5.9,15.7
		c0.1,0.3,0.3,0.4,0.6,0.4c0.3,0,0.5-0.2,0.6-0.4l3.9-12.7l4.6,1.6L106.8,29.5z"/>
	<path class="st4" d="M108.5,6.8l-3.9,12.7c-0.1,0.3-0.3,0.4-0.6,0.4c-0.3,0-0.5-0.2-0.6-0.4L97.5,3.8l-6.6,1.1l0.3,0.7l6.1-1
		l5.9,15.7c0.1,0.3,0.3,0.4,0.6,0.4c0.3,0,0.5-0.2,0.6-0.5l3.9-12.7l4.6,1.6l0.2-0.8L108.5,6.8z"/>
	<path class="st3" d="M109.2,19.1c0-0.2-0.4-1.2-1,0.6c-0.5,1.4-2.2,6.9-2.4,8.3c0,0.1-1.1,0.1-1.2,0.1c-0.7,0-1.3,0.1-2,0
		c-0.6-0.1-0.7,0.8-0.2,1s3.1,0.3,3.7,0c0.5-0.2,0.5-0.6,0.6-1c0.1-0.3,0.2-0.7,0.3-1c0.2-0.8,0.4-1.5,0.6-2.3
		c0-0.2,0.1-0.4,0.1-0.5C108.3,22.9,109,20.3,109.2,19.1z"/>
	<path class="st3" d="M109.9,16.2L109.9,16.2c-0.2-0.1-0.4,0-0.5,0.2c0,0.1-0.1,0.1-0.1,0.2c-0.2,0.4-0.5,1,0,1.3
		c0.1,0.1,0.2,0.1,0.3,0c0.4-0.3,0.4-0.8,0.6-1.2C110.2,16.5,110.1,16.3,109.9,16.2z"/>
</g>
<g>
	<path class="st0" d="M120.4,33.7c0.5,0.9,2.1,0.7,3,0.7c1.6,0.1,3.3,0.2,4.9,0.3c0.6,0,1.2,0.1,1.8,0.1c0.5,0,1,0.1,1.4-0.3
		s0.4-0.9,0.4-1.4c0-0.7,0.1-1.3,0.1-2c0.1-1.8,0.2-3.7,0.2-5.5c0.1,0,0.4,0,0.5,0.1c0,0.2,0,0.4,0.1,0.6c0.1,0.7,0.2,1.5,0.3,2.2
		c0.1,0.8,0.2,1.6,0.3,2.4c0,0.4,0,0.8,0.1,1.2c0.1,0.2,0.2,0.4,0.4,0.7c0.3,0.4,0.6,0.8,0.8,1c0.6,0.7,0.9,0.9,1.6,0.9
		c1.4-0.1,2.8-0.2,4.2-0.3c1.1-0.1,2.2-0.1,3.3-0.2c0.8,0,1.4-0.9,1.2-1.7c0-0.2-0.1-0.3-0.1-0.5c-0.5-2.1-1.1-4.2-1.6-6.3
		c-1.6-6.1-3.1-12.2-4.7-18.2c-0.2-0.8-0.4-1.5-0.6-2.3c0-0.1-0.1-0.3-0.1-0.4c-0.2-0.6-0.7-0.9-1.2-1.2c-0.4-0.3-1.1-0.9-1.6-0.9
		c-0.3,0-0.7,0-1,0c-1.5,0-3-0.1-4.5-0.1s-3-0.1-4.6-0.1c-0.7,0-1.9-0.2-2,0.8c-0.2,1.6-0.4,3.2-0.7,4.9c-0.9,6.3-1.7,12.7-2.6,19
		c-0.2,1.3-0.3,2.5-0.5,3.8c0,0.2-0.1,0.4-0.1,0.6c-0.1,0.5,0.3,0.9,0.6,1.2C119.9,33,120.1,33.4,120.4,33.7z"/>
	<path class="st1" d="M120,32.5l9.2,0.5l0,0c0.2,0,0.5-0.1,0.6-0.2c0.2-0.2,0.3-0.4,0.3-0.6l0.3-8.4l2.1,0.2l0.9,8
		c0.1,0.5,0.5,0.9,1,0.8l7.8-0.5c0.3,0,0.5-0.2,0.7-0.4s0.2-0.5,0.1-0.8l-7.2-27.8c-0.1-0.4-0.5-0.7-0.9-0.7l-11.2-0.2
		c-0.5,0-0.9,0.3-0.9,0.8L119,31.5c0,0.3,0,0.5,0.2,0.7C119.5,32.3,119.7,32.5,120,32.5z M131.6,15.7h-0.8l0.1-3.6h0.3L131.6,15.7z"
		/>
	<path class="st2" d="M134.4,31.8l7.8-0.5L135,3.5l-11.2-0.2L120,31.6l9.2,0.5l0.4-9.4l3.8,0.3L134.4,31.8z M129.8,16.6l0.2-5.5h2
		l0.6,5.5H129.8z"/>
	<path class="st3" d="M123.4,20.3c1,0.3,3.5,1,5.2,1.3c1,0.2,1.9,0.3,2.9,0.4c0.4,0,0.8,0.1,1.1,0.1c0.1,0,0.2,0,0.2,0
		c0.1,0,0.2,0,0.3,0c2.2,0.1,4.4,0,6.5-0.3l-4.8-18.5l-11.2-0.2l-2.2,16.4C122.2,19.9,122.8,20.1,123.4,20.3z M130.1,11.1h2l0.6,5.5
		l-2.8-0.1L130.1,11.1z"/>
	<polygon class="st4" points="132.1,11.3 132.7,16.6 129.8,16.6 130.1,11.3 129.6,17.1 132.9,17.2 	"/>
	<path class="st4" d="M124.3,4.6l10.2,0.2c0,0,3.3,10.7,3.5,10.6l-3.1-11.9l-11.2-0.2L122,15.6C122.4,15.7,124.3,4.6,124.3,4.6z"/>
	<path class="st3" d="M122.6,30.7c0,0.4,2.3,0.7,3.5,0.7c0.3,0,0.8,0,1.3,0c0.1,0,0.3,0,0.4,0s0.2,0,0.2,0h0.1c0,0,0.1,0,0.2,0l0,0
		l0,0c0.1,0,0.1,0,0.2-0.1c0,0,0,0,0.2-0.3c0-0.2,0-1-0.5-0.1l0,0h0.1c0,0,0.1-0.1,0.2-0.1s0.2-0.1,0.2,0v0.1l0,0v-0.1v-0.2
		c0-0.2,0-0.3,0-0.5c0.1-1.3,0.2-2.6,0.2-3.4c0.1-1.5-0.3-1.7-0.5-1.7s-0.4-0.1-0.5,1.7c-0.1,0.9-0.1,2.2-0.2,3.4c0,0.3,0,0.6,0,0.9
		l0,0v0.1c0,0.1,0,0.1,0.1,0.2c0,0.1,0,0.1,0,0.1c0.2-0.1-0.4,0.3,0.4-0.3l0,0l0,0V31v-0.3c0-0.1,0-0.1,0-0.1l0,0l0,0l0,0H128
		c-0.1,0-0.3,0-0.4,0c-0.6,0-1.1,0-1.5,0C125.2,30.4,122.6,30.4,122.6,30.7z M128.6,22.9c0.2,0,0.6,0.3,0.6,0.9
		c-0.1,0.7-0.5,0.5-0.6,0.3C128.2,23.3,128.4,23,128.6,22.9z"/>
	<path class="st3" d="M134.9,31.1c0,0.4,2.4,0.3,3.7,0.2c0.3,0,0.8-0.1,1.4-0.1c0.4,0,0.7-0.1,1.1-0.1c0.2,0,0.3,0,0.5,0h0.3
		c0-0.1,0-0.2,0-0.2c-0.1-0.3-0.2-0.6-0.2-0.9c-0.3-1.3-0.7-2.7-0.9-3.5c-0.4-1.6-0.8-1.6-1-1.6s-0.4,0,0.1,1.8
		c0.3,0.9,0.6,2.2,0.9,3.4v0.1l0,0c-0.2,0-0.4,0-0.6,0c-0.6,0-1.1,0.1-1.5,0.1C137.6,30.4,134.9,30.7,134.9,31.1z M139.1,22.9
		c0.2-0.1,0.7,0.1,0.8,0.8c0.2,0.7-0.3,0.7-0.5,0.5C138.8,23.4,139,23,139.1,22.9z"/>
</g>
<g>
	<path class="st0" d="M153.5,31.4c0,0.5,0.6,1.1,0.9,1.5c0.4,0.6,0.8,1.1,1.5,1.1c0.3,0,0.7-0.1,1-0.2c1.5-0.3,3-0.7,4.4-1
		c0.9-0.2,2.8-0.3,2.9-1.6c0-0.6-0.2-1.2-0.3-1.8c-0.8-5-1.6-10.1-2.4-15.1l0,0c2.4,0.1,4.8,0.3,7.1,0.4c0.5,0,1-0.1,1.3-0.5
		s0.2-0.9,0.2-1.4c-0.1-1.4-0.2-2.9-0.3-4.3c0-0.6-0.1-1.3-0.1-1.9c0-0.5-0.1-1.1-0.6-1.4c-0.5-0.4-1.1-0.7-1.6-1.1
		c-0.2-0.1-0.4-0.2-0.6-0.2s-0.4,0-0.6,0c-2.4,0.1-4.8,0.3-7.2,0.4c-3.2,0.2-6.3,0.3-9.5,0.5c-1.1,0.1-2.2,0.1-3.3,0.2
		c-0.5,0-1.2-0.1-1.6,0.2c-0.5,0.3-0.4,0.9-0.3,1.4c0.1,0.7,0.2,1.3,0.3,2c0.2,1.4,0.4,2.8,0.6,4.2c0.1,0.7,0.6,1.2,1,1.8
		c0.4,0.5,0.7,1.1,1.4,1.1c0.2,0,0.3-0.1,0.5-0.1c1.4-0.2,2.7-0.5,4.1-0.7c0.1,0,0.1,0,0.2,0c0.3,4.9,0.5,9.9,0.8,14.8
		C153.4,30.1,153.5,30.7,153.5,31.4z"/>
	<path class="st1" d="M153.5,31.4c0,0.3,0.1,0.5,0.4,0.7c0.2,0.1,0.3,0.2,0.5,0.2c0.1,0,0.1,0,0.2,0l7.2-1.7c0.5-0.1,0.7-0.5,0.7-1
		l-2.7-17.1l7.8,0.4l0,0l0,0c0.5,0,0.9-0.4,0.9-0.9c0-0.1,0-0.1,0-0.2L168,4.6c0-0.5-0.4-0.9-0.9-0.8L145.2,5
		c-0.2,0-0.5,0.1-0.6,0.3c-0.2,0.2-0.2,0.4-0.2,0.7l1.1,7c0,0.2,0.2,0.4,0.4,0.6c0.2,0.1,0.4,0.2,0.7,0.2l6-1L153.5,31.4z"/>
	<polygon class="st2" points="145.3,5.8 146.4,12.8 153.3,11.6 154.4,31.3 161.6,29.7 158.8,11.5 167.6,11.9 167.2,4.6 	"/>
	<path class="st3" d="M153.3,11.6l0.3,6c2,0.1,4,0,6-0.3l-0.9-5.8l8.9,0.5l-0.5-7.3l-21.9,1.2l1.1,7L153.3,11.6z"/>
	<polygon class="st4" points="167.2,4.6 145.3,5.8 145.8,9.1 145.9,7 166.7,5.9 167.5,10.6 	"/>
	<path class="st5" d="M160.5,29.4c0-0.3-2.8-0.1-4.3,0.1l-0.6,0.1l-0.5-6.5c-0.1-1.9-0.5-2.1-0.7-2.1s-0.4-0.1-0.3,2.1l0.5,7.5
		l1.6-0.2C157.4,30.2,160.6,29.7,160.5,29.4z M154.2,18.6c0.2-0.1,0.6,0.3,0.7,1.1c0,0.8-0.4,0.7-0.6,0.4
		C153.8,19.1,154,18.7,154.2,18.6z"/>
</g>
<g>
	<path class="st0" d="M173.2,34.6c0.5,0.9,2.1,0.7,3,0.7c1.6,0.1,3.3,0.2,4.9,0.3c0.6,0,1.2,0.1,1.8,0.1c0.5,0,1,0.1,1.4-0.3
		s0.4-0.9,0.4-1.4c0-0.7,0.1-1.3,0.1-2c0.1-1.8,0.2-3.7,0.2-5.5c0.1,0,0.4,0,0.5,0.1c0,0.2,0,0.4,0.1,0.6c0.1,0.7,0.2,1.5,0.3,2.2
		c0.1,0.8,0.2,1.6,0.3,2.4c0,0.4,0,0.8,0.1,1.2c0.1,0.2,0.2,0.4,0.4,0.7c0.3,0.4,0.6,0.8,0.8,1c0.6,0.7,0.9,0.9,1.6,0.9
		c1.4-0.1,2.8-0.2,4.2-0.3c1.1-0.1,2.2-0.1,3.3-0.2c0.8,0,1.4-0.9,1.2-1.7c0-0.2-0.1-0.3-0.1-0.5c-0.5-2.1-1.1-4.2-1.6-6.3
		c-1.6-6.1-3.1-12.2-4.7-18.2c-0.2-0.8-0.4-1.5-0.6-2.3c0-0.1-0.1-0.3-0.1-0.4c-0.2-0.6-0.7-0.9-1.2-1.2c-0.4-0.3-1.1-0.9-1.6-0.9
		c-0.3,0-0.7,0-1,0c-1.5,0-3-0.1-4.5-0.1s-3-0.1-4.6-0.1c-0.7,0-1.9-0.2-2,0.8c-0.2,1.6-0.4,3.2-0.7,4.9c-0.9,6.3-1.7,12.7-2.6,19
		c-0.2,1.3-0.3,2.5-0.5,3.8c0,0.2-0.1,0.4-0.1,0.6c-0.1,0.5,0.3,0.9,0.6,1.2C172.7,33.9,172.9,34.3,173.2,34.6z"/>
	<path class="st1" d="M172.7,33.4l9.2,0.5l0,0c0.2,0,0.5-0.1,0.6-0.2c0.2-0.2,0.3-0.4,0.3-0.6l0.3-8.4l2.1,0.2l0.9,8
		c0.1,0.5,0.5,0.9,1,0.8l7.8-0.5c0.3,0,0.5-0.2,0.7-0.4s0.2-0.5,0.1-0.8l-7.2-27.8c-0.1-0.4-0.5-0.7-0.9-0.7l-11.2-0.2
		c-0.5,0-0.9,0.3-0.9,0.8l-3.8,28.3c0,0.3,0,0.5,0.2,0.7C172.2,33.2,172.5,33.4,172.7,33.4z M184.4,16.6h-0.8l0.1-3.6h0.3
		L184.4,16.6z"/>
	<path class="st2" d="M187.2,32.7l7.8-0.5l-7.2-27.8l-11.2-0.2l-3.8,28.3L182,33l0.4-9.4l3.8,0.3L187.2,32.7z M182.6,17.5l0.2-5.5h2
		l0.6,5.5H182.6z"/>
	<path class="st3" d="M176.2,21.2c1,0.3,3.5,1,5.2,1.3c1,0.2,1.9,0.3,2.9,0.4c0.4,0,0.8,0.1,1.1,0.1c0.1,0,0.2,0,0.2,0
		c0.1,0,0.2,0,0.3,0c2.2,0.1,4.4,0,6.5-0.3l-4.8-18.5L176.4,4l-2.2,16.4C175,20.8,175.6,21,176.2,21.2z M182.8,12h2l0.6,5.5
		l-2.8-0.1L182.8,12z"/>
	<polygon class="st4" points="184.8,12.2 185.4,17.5 182.6,17.5 182.8,12.2 182.4,18 185.7,18.1 	"/>
	<path class="st4" d="M177.1,5.5l10.2,0.2c0,0,3.3,10.7,3.5,10.6l-3.1-11.9l-11.2-0.2l-1.7,12.3C175.2,16.6,177.1,5.5,177.1,5.5z"/>
	<path class="st3" d="M175.4,31.6c0,0.4,2.3,0.7,3.5,0.7c0.3,0,0.8,0,1.3,0c0.1,0,0.3,0,0.4,0s0.2,0,0.2,0h0.1c0,0,0.1,0,0.2,0l0,0
		l0,0c0.1,0,0.1,0,0.2-0.1c0,0,0,0,0.2-0.3c0-0.2,0-1-0.5-0.1l0,0h0.1c0,0,0.1-0.1,0.2-0.1s0.2-0.1,0.2,0v0.1l0,0v-0.1v-0.2
		c0-0.2,0-0.3,0-0.5c0.1-1.3,0.2-2.6,0.2-3.4c0.1-1.5-0.3-1.7-0.5-1.7s-0.4-0.1-0.5,1.7c-0.1,0.9-0.1,2.2-0.2,3.4c0,0.3,0,0.6,0,0.9
		l0,0V32c0,0.1,0,0.1,0.1,0.2c0,0.1,0,0.1,0,0.1c0.2-0.1-0.4,0.3,0.4-0.3l0,0l0,0v-0.1v-0.3c0-0.1,0-0.1,0-0.1l0,0l0,0l0,0h-0.2
		c-0.1,0-0.3,0-0.4,0c-0.6,0-1.1,0-1.5,0C178,31.3,175.4,31.2,175.4,31.6z M181.4,23.8c0.2,0,0.6,0.3,0.6,0.9
		c-0.1,0.7-0.5,0.5-0.6,0.3C180.9,24.2,181.2,23.8,181.4,23.8z"/>
	<path class="st3" d="M187.7,32c0,0.4,2.4,0.3,3.7,0.2c0.3,0,0.8-0.1,1.4-0.1c0.4,0,0.7-0.1,1.1-0.1c0.2,0,0.3,0,0.5,0h0.3
		c0-0.1,0-0.2,0-0.2c-0.1-0.3-0.2-0.6-0.2-0.9c-0.3-1.3-0.7-2.7-0.9-3.5c-0.4-1.6-0.8-1.6-1-1.6s-0.4,0,0.1,1.8
		c0.3,0.9,0.6,2.2,0.9,3.4v0.1l0,0c-0.2,0-0.4,0-0.6,0c-0.6,0-1.1,0.1-1.5,0.1C190.4,31.3,187.7,31.6,187.7,32z M191.9,23.8
		c0.2-0.1,0.7,0.1,0.8,0.8c0.2,0.7-0.3,0.7-0.5,0.5C191.6,24.3,191.7,23.9,191.9,23.8z"/>
</g>
<g>
	<path class="st0" d="M201,6.5c0.2,4.5,0.4,8.9,0.5,13.4c0.1,2.9,0.2,5.9,0.4,8.8c0,0.9,0.1,1.7,0.1,2.6c0,0.2,0,0.4,0,0.6V32
		c0,0.3,0.2,0.5,0.3,0.7c0.2,0.3,0.4,0.7,0.7,0.9c0.3,0.7,0.9,1,1.6,0.9c0.6,0,1.2,0,1.8-0.1c1.4-0.1,2.9-0.1,4.3-0.1
		c0.6,0,1.3-0.2,1.5-0.9c0.2-0.5,0-1-0.1-1.5c-0.2-1.4-0.4-2.8-0.6-4.1c0-0.1,0-0.1,0-0.2c1.9,1.4,3.8,2.9,5.7,4.3
		c0.5,0.4,1.1,0.6,1.6,0.2c0.3-0.2,0.5-0.6,0.8-0.9c0.9-1.2,1.9-2.3,2.8-3.5c0.4-0.5,1-1,1.2-1.6c0.1-0.3,0.1-0.7-0.1-1
		c-0.1-0.2-0.3-0.7-0.6-0.9c-0.4-0.2-0.8-0.4-1.2-0.6c-1.4-0.7-2.8-1.3-4.2-2c2.1-1.2,3.7-3.2,4.2-5.6s0-4.9-1.6-6.8
		c-0.9-1-1.9-1.7-3-2.5c-1.2-0.8-2.3-1.4-3.6-1.9c-2.7-0.9-5.6-0.9-8.4-0.4c-0.9,0.2-1.8,0.3-2.7,0.6C201.8,5.5,201,5.8,201,6.5z
		 M210.1,15.1c0.2,0,0.4,0.1,0.6,0.2c-0.1,0.2-0.4,0.2-0.6,0.2C210.1,15.4,210.1,15.3,210.1,15.1z"/>
	<path class="st1" d="M201,6.5l1.1,25.5c0,0.5,0.4,0.9,0.9,0.9l0,0l6.7-0.2c0.2,0,0.5-0.1,0.6-0.3c0.2-0.2,0.2-0.5,0.2-0.7l-1-6.1
		l6.6,5c0.4,0.3,0.9,0.2,1.2-0.1l4.4-5.3c0.2-0.2,0.2-0.5,0.2-0.8c-0.1-0.3-0.2-0.5-0.5-0.6l-6.5-3.1c0.6-0.3,1.2-0.6,1.8-1
		c3.1-2.1,4.3-6.3,2.8-9.7c-1.4-3.3-5.6-5.2-9-5.6c-1-0.1-2.2-0.1-3.5,0c-0.8,0.1-1.6,0.2-2.4,0.3c-1.7,0.3-2.6,0.7-3.2,0.9
		C201.2,5.8,201,6.2,201,6.5z M210.9,15c-0.1,0.2-0.1,0.5-0.9,0.5c-0.4,0-1-0.1-1.5-0.2l-0.1-2c0.9,0.1,2,0.5,2.4,1
		C210.9,14.6,210.9,14.8,210.9,15z"/>
	<path class="st2" d="M221.1,24.5l-8.5-4c1.3-0.3,2.5-0.8,3.7-1.6c2.8-1.9,3.8-5.7,2.5-8.6c-1.3-3-5.2-4.7-8.3-5
		c-1-0.1-2.2-0.1-3.3,0c-0.8,0.1-1.6,0.2-2.3,0.3c-1.5,0.3-2.4,0.6-3,0.8l0.1,1.3l1,24.2l6.7-0.2l-1.3-8.2l8.4,6.4L221.1,24.5z
		 M207.7,12.4c1.5-0.1,4.5,0.9,4,2.8c-0.5,1.7-2.5,1.2-4.2,0.8l-0.1-3.6C207.5,12.4,207.6,12.4,207.7,12.4z"/>
	<g class="st7">
		<path class="st2" d="M202.3,17.6c2.6,1,5.4,1.9,8.1,1.9c1.9,0,3.8-0.2,5.7-0.5c0,0,0.1,0,0.1-0.1c2.8-1.9,3.8-5.7,2.5-8.6
			c-1.3-3-5.2-4.7-8.3-5c-1-0.1-2.2-0.1-3.3,0c-0.8,0.1-1.6,0.2-2.3,0.3c-1.5,0.3-2.4,0.6-3,0.8l0.1,1.3L202.3,17.6z M207.7,12.4
			c1.5-0.1,4.5,0.9,4,2.8c-0.5,1.7-2.5,1.2-4.2,0.8l-0.1-3.6C207.5,12.4,207.6,12.4,207.7,12.4z"/>
	</g>
	<path class="st4" d="M211.3,13.6c0.4,0.4,0.6,1,0.5,1.6c-0.5,1.7-2.5,1.2-4.2,0.8l-0.1-3.4c0,0,0,0-0.1,0v3.9l0.6,0.1
		c0.7,0.2,1.6,0.3,2.3,0.3c1.6,0,1.8-0.5,2-1.2s0.1-1-0.4-1.6C211.7,14,211.5,13.8,211.3,13.6z"/>
	<path class="st4" d="M202.4,7.5c0.5-0.2,1.3-0.4,2.6-0.7c0.7-0.1,1.5-0.2,2.2-0.3c0.6-0.1,1.2-0.1,1.7-0.1s1,0,1.5,0.1
		c3,0.4,6.6,1.9,7.9,4.7c1.1,2.5,0.4,5.5-1.6,7.4c2.5-2,3.3-5.5,2.1-8.3c-1.3-3-5.2-4.7-8.3-5c-1-0.1-2.2-0.1-3.3,0
		c-0.8,0.1-1.6,0.2-2.3,0.3c-1.5,0.3-2.4,0.6-3,0.8l0.1,1.3l0.1,2.8L202.4,7.5z"/>
	<polygon class="st4" points="212.6,20.5 221.1,24.5 218.7,27.4 220.1,24.7 211.5,20.5 	"/>
	<path class="st3" d="M203.8,31.2c0,0.3,2.1,0.3,3.2,0.2l2.1-0.2l-0.6-4.7c-0.2-1.4-0.6-1.5-0.7-1.4c-0.2,0-0.4,0-0.2,1.6l0.5,3.8
		l-1.2,0.1C206.1,30.5,203.7,30.8,203.8,31.2z M207.4,23.3c0.2-0.1,0.6,0.1,0.7,0.7s-0.4,0.6-0.5,0.3
		C207,23.7,207.2,23.3,207.4,23.3z"/>
</g>
<g>
	<path class="st0" d="M225.4,31.9c1.5,2.2,3.6,4,6.2,4.7c2.4,0.6,5,0.2,7.1-1.1c2-1.3,3.4-3.3,3.5-5.7s-0.8-4.5-2.2-6.3
		c-1.4-1.7-3.3-2.9-4.9-4.5c-0.6-0.6-1.6-1.6-1.2-2.5c0.3-0.5,0.8-0.9,1.4-0.9c0.2,0,0.3-0.1,0.3,0.2c0,0.2,0,0.3,0,0.5
		c0,0.4,0,0.8-0.1,1.1c-0.1,0.5,0.2,0.9,0.6,1.3c0.3,0.4,0.5,0.9,0.8,1.2c0.5,0.5,1.2,0.2,1.7,0.1c0.7-0.2,1.4-0.5,2.1-0.8
		c1.3-0.6,2.6-1.3,3.9-1.9c1.2-0.6,0.9-2,0.6-3.1c-0.5-2.3-1.8-4.4-3.8-5.7c-1-0.8-2.1-1.5-3.3-2s-2.6-0.6-3.9-0.4
		c-2.6,0.3-4.7,1.9-6.2,4c-1.4,2.1-2.2,4.6-1.5,7.1c0.5,1.7,1.6,3.3,2.7,4.6c0.6,0.8,1.4,1.4,2.1,2c0.4,0.3,0.8,0.6,1.2,0.9
		c0.2,0.1,0.4,0.2,0.4,0.5c0,0.2,0,0.4-0.1,0.6c0.1-0.8-0.5-1.4-1.2-1.7c-0.4-0.4-1-0.8-1.6-0.8c-2,0.2-3.9-0.2-5.9-0.1
		c-0.4,0-0.8,0-1.1,0.2c-0.3,0.3-0.4,0.8-0.5,1.1c-0.2,0.8-0.1,1.7,0,2.6C223.3,28.8,224.3,30.4,225.4,31.9
		C225.4,32,225.3,31.8,225.4,31.9z"/>
	<path class="st1" d="M227.3,33.5c1.5,1.1,3.3,1.6,5.2,1.6l0,0c2.8,0,5.3-1.2,6.9-3.4c1.7-2.3,1.4-5.6,0.3-7.6
		c-1.3-2.2-2.7-3.5-4.5-4.9c-1-0.8-2.9-2.3-3-3.6c0-0.4,0.1-0.8,0.5-1.2s0.9-0.6,1.5-0.6c0.4,0,0.8,0.1,1,0.3
		c0.7,0.6,0.6,2.2,0.5,3.3c0,0.3,0.1,0.5,0.3,0.7s0.5,0.2,0.8,0.2c1.7-0.4,3.2-1.2,4.6-1.9c0.7-0.3,1.4-0.7,2.1-1
		c0.3-0.1,0.5-0.5,0.5-0.9c0-0.2,0-0.3,0-0.5c-0.4-4.6-4-8.1-8.4-8.1c-2,0-4,0.8-5.6,2.2c-1.4,1.3-2.8,3.6-3.2,5.5
		c-0.5,2.4,0.3,4.9,2.1,6.9c0.6,0.7,1.3,1.2,2,1.7c1,0.7,2,1.5,2.4,2.5c0.2,0.4,0,0.7-0.1,0.9c-0.2,0.3-0.5,0.5-0.8,0.5
		c-0.2,0-0.5-0.1-0.7-0.3c-0.3-0.3-0.3-0.8-0.2-1.7c0-0.3,0-0.5-0.2-0.7s-0.5-0.3-0.7-0.2c-0.4,0.1-0.8,0.1-1.3,0.1
		c-0.7,0-1.4,0-2.2-0.1c-0.7-0.1-1.5-0.1-2.3-0.1c-0.4,0-0.7,0-1,0s-0.6,0.3-0.7,0.6C221.9,27.3,224.4,31.4,227.3,33.5z"/>
	<path class="st2" d="M234.7,19.9c-1.6-1.3-4.8-3.8-2.7-6c1-1.1,2.7-1.2,3.7-0.4s0.9,2.6,0.8,4.1c2.4-0.6,4.4-1.9,6.6-2.9
		c0-0.2,0-0.4,0-0.5c-0.5-6.5-7.7-9.7-12.6-5.4c-1.3,1.1-2.6,3.3-2.9,5c-0.5,2.3,0.4,4.5,1.9,6.2c1.4,1.6,3.7,2.4,4.6,4.5
		c0.7,1.8-1.6,3.4-3,1.9c-0.6-0.7-0.5-1.5-0.4-2.4c-2.1,0.3-4.6-0.3-6.7-0.1c-1,3.2,1.4,7,3.9,8.9c3.4,2.4,8.3,1.9,10.9-1.6
		c1.4-1.9,1.3-4.8,0.3-6.7C237.8,22.5,236.5,21.3,234.7,19.9z"/>
	<path class="st3" d="M232.7,18.2c-1.2-1.3-2.1-2.8-0.7-4.3c1-1.1,2.7-1.2,3.7-0.4s0.9,2.6,0.8,4.1c2.4-0.6,4.4-1.9,6.6-2.9
		c0-0.2,0-0.4,0-0.5c-0.5-6.5-7.7-9.7-12.6-5.4c-1.3,1.1-2.6,3.3-2.9,5c-0.3,1.6,0,3.2,0.8,4.6C229.7,18.3,231.2,18.2,232.7,18.2z"
		/>
	<g>
		<path class="st4" d="M230.4,9.8c4.9-4.3,11.8-1.2,12.6,4.9h0.1c0-0.2,0-0.4,0-0.5c-0.5-6.5-7.7-9.7-12.6-5.4
			c-1.3,1.1-2.6,3.3-2.9,5c-0.1,0.6-0.2,1.2-0.1,1.8c0-0.3,0-0.5,0.1-0.8C227.8,13.1,229.1,10.9,230.4,9.8z"/>
	</g>
	<path class="st4" d="M234.7,20.6c1.8,1.4,3.1,2.6,4.3,4.7c0.4,0.8,0.7,1.8,0.8,2.8c0.1-1.3-0.2-2.6-0.8-3.5
		c-1.2-2.1-2.5-3.2-4.3-4.7c-1.2-0.9-3.1-2.4-3.3-4.1C231,17.7,233.4,19.5,234.7,20.6z"/>
	<path class="st4" d="M231,27.1c1.3,1.4,3.4,0.1,3.1-1.6c-0.3,1.3-2,2.1-3.1,0.9c-0.3-0.3-0.4-0.7-0.5-1.1
		C230.5,26,230.5,26.6,231,27.1z"/>
	<path class="st4" d="M230.5,24.7c0-0.2,0.1-0.5,0.1-0.7c-2.1,0.3-4.6-0.3-6.7-0.1c-0.2,0.6-0.3,1.3-0.2,1.9c0-0.4,0.1-0.8,0.2-1.3
		C226,24.5,228.4,25,230.5,24.7z"/>
	<path class="st3" d="M224.4,27.7c-0.1,0,0,0.2,0.1,0.5c0.1,0.2,0.1,0.3,0.2,0.5c0.1,0.2,0.2,0.4,0.3,0.6c0.3,0.4,0.5,0.9,0.9,1.3
		c0.2,0.2,0.3,0.4,0.5,0.6s0.4,0.3,0.5,0.5c0.1,0.1,0.2,0.2,0.3,0.3s0.2,0.2,0.4,0.3c0.3,0.2,0.5,0.4,0.9,0.6
		c0.7,0.4,1.6,0.8,2.5,0.9c0.9,0.2,1.9,0.1,2.7,0c0.8-0.2,1.5-0.4,2-0.6c0.3-0.1,0.5-0.2,0.6-0.3l0.1-0.1c0.1,0,0.1-0.1,0.1-0.1
		c0.1-0.1,0.2-0.1,0.2-0.2c0.3-0.2,0.4-0.4,0.5-0.5c0.2-0.3,0.1-0.4,0.1-0.5c-0.1-0.1-0.1-0.2-0.3,0c-0.1,0.1-0.3,0.2-0.5,0.3
		c-0.1,0-0.1,0.1-0.2,0.1c-0.1,0-0.2,0.1-0.3,0.1c-0.1,0.1-0.2,0.1-0.4,0.2c-0.1,0.1-0.2,0.1-0.4,0.2c-0.5,0.3-1.2,0.5-1.9,0.6
		c-0.2,0-0.4,0.1-0.6,0.1c-0.2,0-0.4,0-0.6,0c-0.4,0-0.8,0-1.1-0.1h-0.3c-0.1,0-0.2-0.1-0.3-0.1c-0.2-0.1-0.4-0.1-0.5-0.2
		c-0.3-0.2-0.7-0.3-1-0.5c-0.2-0.1-0.3-0.2-0.4-0.3c-0.1-0.1-0.3-0.2-0.4-0.3c-0.1-0.1-0.3-0.2-0.4-0.3c-0.1-0.1-0.2-0.2-0.3-0.3
		s-0.2-0.2-0.4-0.4c-0.2-0.1-0.3-0.3-0.5-0.5s-0.3-0.4-0.5-0.6s-0.3-0.4-0.5-0.6c-0.3-0.4-0.6-0.8-0.8-1
		C224.6,27.8,224.5,27.6,224.4,27.7z M238.7,29.3c0.1,0,0.2,0.1,0.2,0.4c0,0.1,0,0.3,0,0.4s0,0.2-0.1,0.3c0,0.1-0.1,0.2-0.2,0.3
		c-0.1,0.2-0.2,0.3-0.3,0.4s-0.2,0.1-0.3,0s-0.1-0.2-0.1-0.4c0.1-0.3,0.1-0.5,0.2-0.7c0-0.2,0.1-0.3,0.2-0.4
		C238.4,29.4,238.6,29.3,238.7,29.3z"/>
</g>
<g>
	<path class="st0" d="M974.4,30.8c0.8,0.7,1.6,1.5,2.6,2.1c1,0.7,2.2,1.1,3.4,1.4c2.6,0.5,5.5,0.3,7.8-0.8c4.2-1.9,6.7-6.7,5.5-11.2
		c-0.7-2.6-2.5-4.6-4.6-6.2c-2.4-2.2-5.5-3.4-8.7-2.3c0.3-1.1,0.7-2.3,1.6-3c0.4-0.3,1-0.5,1.5-0.5c0.2,0,0.5-0.1,0.5,0.2
		c0.1,0.3,0.1,0.6,0.1,0.8c0,0.6,0.4,0.9,0.8,1.2c0.4,0.4,0.8,0.8,1.2,1.1c0.3,0.2,0.8,0.3,1.2,0.4c1.3,0.4,2.7,0.8,4,1.2
		c0.5,0.1,1,0.3,1.5,0s0.6-1,0.7-1.6c0.1-0.7,0.1-1.4,0-2c-0.2-1.3-0.6-2.5-1.3-3.6c-0.7-1-1.6-1.8-2.5-2.6c-1.9-1.7-4-2.7-6.5-3.2
		c-2-0.4-4-0.2-5.8,0.6c-2.3,1-4,2.9-5.2,5.1c-0.8,1.7-1.4,3.5-1.7,5.4c-0.5,2.5-0.6,5.1-0.5,7.6C970.2,24.6,971.5,28.3,974.4,30.8
		C974.4,30.8,974.1,30.6,974.4,30.8z M984.7,24.1c0,0.5-0.3,1-0.7,1.3c-0.2,0.1-0.4,0.3-0.7,0.3c-0.1,0-0.3,0-0.4,0
		c-0.3,0-0.3-0.1-0.3-0.3c0-0.5,0.3-1,0.7-1.3c0.2-0.1,0.4-0.2,0.7-0.3c0.1,0,0.2,0,0.4,0C984.7,23.7,984.7,23.8,984.7,24.1z"/>
	<path class="st1" d="M983.3,34.6c1.1,0,2.3-0.2,3.5-0.4c3.5-0.9,6.2-3.6,7-7c0.8-3.5-0.4-6.9-3.4-9.4c-1.8-1.5-3.7-2.3-5.6-2.3
		c-2,0-3.7,0.9-4.7,1.7c0-2.6,0.5-4.6,1.6-5.7c0.6-0.6,1.3-0.9,2.2-0.9h0.1c2.3,0.1,2.4,2.4,2.4,2.7c0,0.4,0.3,0.7,0.6,0.8l5.4,1.5
		c0.2,0.1,0.5,0,0.7-0.1s0.3-0.3,0.4-0.6c0.4-2.3,0.1-4.4-1.1-6.2c-1.4-2.2-4-3.6-7.3-4.3c-0.7-0.1-1.3-0.2-1.9-0.2l0,0
		c-2.4,0-10.4,1.1-10.8,15.8c-0.2,5.1,1,9,3.5,11.6C977.6,33.5,980.2,34.6,983.3,34.6z M982.7,25.8c0-1.1,0.9-2,2.1-2s2.1,0.9,2.1,2
		s-1,2-2.1,2C983.6,27.7,982.7,26.8,982.7,25.8z"/>
	<path class="st2" d="M986.5,33.3c6.5-1.7,9.2-9.9,3.3-14.9s-10.6,0.5-10.6,0.5c-0.5-6,1.4-9.5,4.6-9.4S987,13,987,13l5.4,1.5
		c0.9-4.7-2.1-8.3-7.8-9.4C979.1,4,973.4,8,973,19.9C972.6,31.9,980,35,986.5,33.3z M984.8,22.9c1.6,0,3,1.3,3,2.8
		c0,1.6-1.3,2.8-3,2.8c-1.6,0-3-1.3-3-2.8S983.1,22.9,984.8,22.9z"/>
	<path class="st3" d="M986.6,23.5c0.7,0.5,1.2,1.3,1.2,2.2c0,1.6-1.3,2.8-3,2.8c-1.6,0-3-1.3-3-2.8c0-1.3,0.9-2.4,2.1-2.7
		c-1-0.3-2.1-0.5-3.1-0.8c-2.6-0.8-5.2-1.6-7.9-2.2c-0.3,11.9,7.1,15,13.6,13.3c4.6-1.2,7.2-5.6,6.4-9.8
		C990.8,23.8,988.7,23.8,986.6,23.5z"/>
	<path class="st4" d="M984.8,22.9c1.5,0,2.6,1,2.9,2.3c0-0.2,0.1-0.3,0.1-0.5c0-1.6-1.3-2.8-3-2.8c-1.6,0-3,1.3-3,2.8
		c0,0.2,0,0.3,0,0.5C982.1,23.9,983.3,22.9,984.8,22.9z"/>
	<path class="st4" d="M986.5,33.3c4.2-1.1,6.8-4.8,6.5-8.7c-0.2,3.5-2.7,6.7-6.5,7.7c-6.2,1.6-13.4-1.2-13.6-12
		C972.7,31.9,980.1,35,986.5,33.3z"/>
	<path class="st4" d="M987.7,12.5c0,0-0.5-3.6-3.8-3.7c-3-0.1-4.8,2.5-4.7,7.7c0.1-4.6,2-7.1,4.7-7.1c3.2,0.1,3.2,3.5,3.2,3.5
		l5.4,1.5c0.1-0.7,0.2-1.4,0.1-2.1c0,0.4-0.1,1.1-0.1,1.5L987.7,12.5z"/>
	<path class="st3" d="M986.5,6.3c0-0.1-0.2-0.2-0.5-0.3c-0.2-0.1-0.4-0.2-0.6-0.2c-0.2-0.1-0.5-0.1-0.7-0.2
		c-0.3-0.1-0.6-0.1-0.8-0.1s-0.3,0-0.5,0c-0.1,0-0.3,0-0.4,0c-0.2,0-0.3,0-0.5,0c-0.1,0-0.3,0-0.4,0c-0.3,0.1-0.5,0.1-0.8,0.2
		c-0.2,0-0.5,0.1-0.8,0.2s-0.7,0.2-1.1,0.4c-0.7,0.4-1.6,1-2.2,1.7c-0.4,0.4-0.7,0.8-0.9,1.2c-0.3,0.4-0.5,0.8-0.7,1.2
		c-0.1,0.2-0.2,0.4-0.3,0.6c-0.1,0.2-0.2,0.4-0.2,0.6c-0.1,0.4-0.3,0.7-0.3,1c-0.2,0.6-0.3,1-0.3,1.3c-0.1,0.3-0.1,0.6-0.1,0.8
		c0,0.4,0.1,0.5,0.2,0.5c0.2,0.1,0.3,0.2,1.1-2.3c0.1-0.2,0.1-0.3,0.1-0.5c0.1-0.2,0.1-0.3,0.2-0.5c0-0.2,0.1-0.3,0.2-0.5
		c0.1-0.2,0.2-0.4,0.3-0.5s0.1-0.2,0.2-0.3c0-0.1,0.1-0.2,0.2-0.3c0.1-0.2,0.2-0.3,0.3-0.5c0.3-0.3,0.5-0.7,0.8-1
		c1.1-1.3,2.7-2,3.8-2.2c0.1-0.1,0.3-0.1,0.5-0.1s0.4-0.1,0.7-0.1s0.5,0,0.8,0s0.6,0,0.8,0C985.6,6.3,986.5,6.5,986.5,6.3z
		 M974.1,17.8c-0.1,0-0.2,0-0.4-0.3c-0.1-0.2-0.2-0.6-0.1-1.2c0.1-0.5,0.3-0.7,0.4-0.7c0.1,0,0.2,0.2,0.2,0.4c0.1,0.6,0.1,1,0,1.2
		C974.3,17.6,974.2,17.7,974.1,17.8z"/>
</g>
<g>
	<path class="st0" d="M1006.3,4.7c-0.3,0.5,0,1.2,0.1,1.7c0.2,1,0.5,2,0.7,2.9c0.7,3,1.4,6.1,2.1,9.1c0.7,3,1.4,6,2.1,9
		c0.2,0.9,0.4,1.8,0.6,2.7c0.1,0.2,0.1,0.4,0.1,0.6c0.1,0.6,0.6,1.1,0.9,1.5c0.3,0.5,0.6,1,1.3,1.1c0.2,0,0.3,0,0.5,0
		c0.7,0,1.4-0.1,2.1-0.1s1.5-0.1,2.2-0.1s1.4-0.2,1.6-0.9c0.8-2.3,1.3-4.6,2-6.9v-0.1c0.5,1.2,0.9,2.4,1.4,3.5
		c0.1,0.2,0.1,0.3,0.2,0.5s0.4,0.4,0.6,0.6c0.1,0.3,0.3,0.6,0.5,0.8c0.4,0.7,0.8,0.9,1.5,0.9c1.5-0.1,2.9-0.1,4.4-0.2
		c0.5,0,1,0,1.5-0.2c0.4-0.2,0.5-0.6,0.6-1c1.2-5.4,2.2-10.8,3.3-16.1c0.2-1.1,0.4-2.2,0.7-3.2c0.2-0.8,0.5-1.8-0.5-2.3
		c-0.2-0.2-0.6-0.4-0.8-0.6c-0.2-0.2-0.5-0.4-0.8-0.6c-0.1-0.1-0.3-0.1-0.4-0.1c-0.6-0.2-1.2-0.3-1.7-0.5c-1.4-0.4-2.8-0.8-4.2-1.3
		c-0.7-0.2-1.4-0.1-1.5,0.7c-0.1,0.7-0.2,1.3-0.3,2c-0.2,1.5-0.5,3-0.7,4.6c-0.4-1-0.9-1.9-1.3-2.9c-0.1-0.3-0.3-0.5-0.5-0.7
		c-0.5-0.3-1-0.7-1.5-1c-0.5-0.6-1.3-0.2-1.6,0.4c-1,1.9-1.9,3.8-2.9,5.7c-0.6-2.5-1.2-5-1.8-7.5c-0.1-0.4-0.2-0.9-0.3-1.3
		c-0.2-0.8-1-1.2-1.7-1.7c-0.4-0.3-0.7-0.6-1.2-0.5c-0.2,0-0.3,0.1-0.5,0.1c-0.7,0.1-1.4,0.2-2,0.3c-1,0.2-1.9,0.3-2.8,0.5
		C1007.5,4.2,1006.6,4.2,1006.3,4.7C1006.2,4.9,1006.5,4.5,1006.3,4.7z"/>
	<path class="st1" d="M1006.3,4.7c-0.1,0.2-0.2,0.5-0.1,0.7l6,25.5c0.1,0.4,0.5,0.7,0.9,0.7l0,0l5-0.2c0.4,0,0.7-0.3,0.8-0.7
		l2.5-8.8l2.8,7.2c0.1,0.4,0.5,0.6,0.9,0.6l5.5-0.2c0.4,0,0.8-0.3,0.8-0.7l4.2-20.4c0.1-0.5-0.2-0.9-0.6-1.1l-6.6-2
		c-0.3-0.1-0.5,0-0.8,0.1c-0.2,0.1-0.4,0.4-0.4,0.6l-1.4,8.6l-2.9-6.3c-0.1-0.3-0.5-0.5-0.8-0.5c-0.4,0-0.7,0.2-0.8,0.5l-4,7.9
		l-3-12.3c-0.1-0.5-0.6-0.8-1-0.7l-6.5,1.1C1006.7,4.4,1006.5,4.5,1006.3,4.7z"/>
	<polygon class="st2" points="1007.1,5.2 1013.5,4.1 1017.1,18.9 1022.2,8.8 1026.3,17.8 1028.2,6.2 1034.8,8.2 1030.6,28.5 
		1025.1,28.8 1021.3,19 1018.1,30.5 1013.1,30.7 	"/>
	<g class="st8">
		<path class="st2" d="M1017.1,21.8c0.6,0.1,1.2,0.1,1.8,0.2c0.2,0,0.6,0,0.7,0c0.3,0,0.6,0,0.9,0l0.9-3l1.1,2.9
			c1.3-0.1,2.6-0.3,3.9-0.5c2-0.3,4-0.8,5.9-1.3l2.4-12l-6.6-2l-1.8,11.6l-4.1-9l-5.1,10.1l-3.6-14.7l-6.5,1.1l3.5,15
			C1012.6,21,1014.5,21.4,1017.1,21.8z"/>
	</g>
	<g>
		<polygon class="st4" points="1007.7,6.4 1013.1,5.5 1016.9,20.5 1022.2,10.8 1026.6,20.4 1028.6,7.6 1034.1,9.3 1033.2,15.9 
			1034.8,8.2 1028.2,6.2 1026.3,17.8 1022.2,8.8 1017.1,18.9 1013.5,4.1 1007.1,5.2 1008.4,11 		"/>
	</g>
	<path class="st9" d="M1013.8,29.9c0,0.4,1.8,0.3,2.7,0.2l1.2-0.1l1.4-4.3c0.4-1.1,0-1.4-0.1-1.4c-0.2-0.1-0.4-0.2-0.8,1.1l-1.2,3.7
		l-0.6,0.1C1015.7,29.2,1013.7,29.5,1013.8,29.9z M1019.3,22.8c0.2,0,0.5,0.4,0.4,0.9c-0.2,0.5-0.6,0.3-0.7,0
		C1018.8,23,1019.1,22.8,1019.3,22.8z"/>
	<path class="st9" d="M1025.9,28c0,0.4,1.8,0.4,2.7,0.3l1.6-0.1l0.7-4.1c0.2-1.2-0.1-1.3-0.3-1.4c-0.2,0-0.4-0.2-0.6,1.2l-0.5,3.3
		l-0.9,0.1C1027.9,27.3,1025.9,27.6,1025.9,28z M1030.8,21.1c0.2,0,0.6,0.3,0.5,0.8s-0.5,0.4-0.6,0.1
		C1030.4,21.3,1030.7,21.1,1030.8,21.1z"/>
</g>
<g>
	<path class="st0" d="M1052,7.3c-4.4,0-8.7,2.1-11.1,5.7c-1.2,1.8-1.9,3.8-2,5.9c-0.2,2.7,0.7,5.2,2.2,7.3c0.7,1,1.3,1.9,2.1,2.7
		c0.8,0.8,1.7,1.5,2.7,2c2.1,1.2,4.6,1.8,7,1.9c4.4,0.1,8.9-1.6,11.8-5c2.9-3.5,3.5-8.5,1.5-12.6c-0.5-1.1-1.2-2.1-2.1-3
		c-1-1-2.2-1.8-3.3-2.5c-2.2-1.5-4.8-2.3-7.4-2.5C1052.9,7.3,1052.5,7.3,1052,7.3z M1050.6,24.5c-0.6,0-1.2-0.1-1.8-0.3
		s-0.9-0.8-1.1-1.4c-0.5-1-0.5-2.1-0.2-3.2c0.7-2,2.7-3.2,4.8-3.1c0.6,0,1.1,0.2,1.6,0.4c0.5,0.2,1.2,0.6,1.4,1
		c0.4,1.1,0.4,2.2,0,3.3C1054.6,23.2,1052.6,24.5,1050.6,24.5z"/>
	<path class="st1" d="M1038.9,19.6c0,6.6,5.7,11.6,13.2,11.6s13.5-5.2,13.6-11.8c0.1-3.2-1-6.1-3.1-8.2c-2.5-2.5-6.3-3.9-10.5-3.9
		C1044.8,7.3,1038.9,12.9,1038.9,19.6z M1050.6,14.8c2.8,0,5.1,2.2,5.1,4.8c0,2.7-2.3,4.8-5.1,4.8c-2.8,0-5.1-2.2-5.1-4.8
		S1047.8,14.8,1050.6,14.8z"/>
	<path class="st2" d="M1052,8.2c-6.8,0-12.3,5.1-12.3,11.4s5.5,10.8,12.3,10.8s12.7-4.6,12.8-10.9C1064.9,12.1,1058.8,8.2,1052,8.2z
		 M1050.6,25.3c-3.3,0-5.9-2.5-5.9-5.7c0-3.1,2.7-5.7,5.9-5.7c3.3,0,5.9,2.6,5.9,5.7C1056.5,22.8,1053.9,25.3,1050.6,25.3z"/>
	<g class="st8">
		<path class="st2" d="M1040.5,22c1.8,0.5,3.7,1,5.6,1.3c-0.9-1-1.4-2.3-1.4-3.7c0-3.1,2.7-5.7,5.9-5.7c3.3,0,5.9,2.6,5.9,5.7
			c0,1-0.3,2-0.8,2.8c3.1-1,6-2.3,9-3.5c-0.2-7-6.1-10.8-12.8-10.8c-6.8,0-12.3,5.1-12.3,11.4c0,0.8,0.1,1.5,0.2,2.2
			C1040.1,21.9,1040.3,22,1040.5,22z"/>
	</g>
	<g>
		<path class="st4" d="M1052,9.2c6.3,0,12,3.4,12.7,9.8c0,0,0,0,0.1,0c-0.2-7-6.1-10.8-12.8-10.8c-6.8,0-12.3,5.1-12.3,11.4
			c0,0.2,0,0.3,0,0.5C1040,14.1,1045.4,9.2,1052,9.2z"/>
	</g>
	<path class="st4" d="M1045.1,21.9c0,0,1.6,3.4,5.4,3.5c3.9,0,5.3-3.3,5.8-4.6c0,0-0.4,5.3-6.1,5
		C1045.9,25.5,1045.1,21.9,1045.1,21.9z"/>
	<path class="st9" d="M1048,28.7c-0.1,0.1,0.6,0.6,1.6,0.8c1,0.3,2.3,0.4,3.1,0.3c0.9,0,2.7-0.3,4.4-1c0.9-0.3,1.7-0.8,2.4-1.3
		c0.7-0.5,1.3-1,1.7-1.3c0.8-0.7,1.1-1.3,1.2-1.6s0-0.5,0-0.5c-0.1-0.1-0.1-0.1-0.3,0c-0.1,0.1-0.3,0.2-0.5,0.5
		c-0.1,0.1-0.3,0.3-0.4,0.4c-0.2,0.2-0.4,0.3-0.6,0.6c-0.2,0.2-0.5,0.4-0.7,0.6c-0.3,0.2-0.6,0.4-0.9,0.7c-0.6,0.4-1.4,0.8-2.1,1.1
		c-1.5,0.6-3.1,0.9-4.2,0.9c-0.3,0-0.7,0-1.2,0c-0.2,0-0.5,0-0.8,0s-0.5-0.1-0.8-0.1C1049,28.8,1048.1,28.6,1048,28.7z M1063.6,21.8
		c0.1,0,0.2,0.1,0.3,0.3c0,0.1,0,0.1,0,0.2s0,0.2,0,0.3c0,0.2-0.1,0.4-0.2,0.6c-0.5,0.9-0.8,0.5-0.7,0.1c0.1-0.3,0.1-0.5,0.2-0.7
		c0-0.2,0.1-0.3,0.1-0.4C1063.4,21.9,1063.5,21.8,1063.6,21.8z"/>
</g>
<g>
	<path class="st0" d="M1072.4,7.5c0.2,4.5,0.4,8.9,0.5,13.4c0.1,2.9,0.2,5.9,0.4,8.8c0,0.9,0.1,1.7,0.1,2.6c0,0.2,0,0.4,0,0.6V33
		c0,0.3,0.2,0.5,0.3,0.7c0.2,0.3,0.4,0.7,0.7,0.9c0.3,0.7,0.9,1,1.6,0.9c0.6,0,1.2,0,1.8-0.1c1.4-0.1,2.9-0.1,4.3-0.1
		c0.6,0,1.3-0.2,1.5-0.9c0.2-0.5,0-1-0.1-1.5c-0.2-1.4-0.4-2.8-0.6-4.1c0-0.1,0-0.1,0-0.2c1.9,1.4,3.8,2.9,5.7,4.3
		c0.5,0.4,1.1,0.6,1.6,0.2c0.3-0.2,0.5-0.6,0.8-0.9c0.9-1.2,1.9-2.3,2.8-3.5c0.4-0.5,1-1,1.2-1.6c0.1-0.3,0.1-0.7-0.1-1
		c-0.1-0.2-0.3-0.7-0.6-0.9c-0.4-0.2-0.8-0.4-1.2-0.6c-1.4-0.7-2.8-1.3-4.2-2c2.1-1.2,3.7-3.2,4.2-5.6s0-4.9-1.6-6.8
		c-0.9-1-1.9-1.7-3-2.5c-1.2-0.8-2.3-1.4-3.6-1.9c-2.7-0.9-5.6-0.9-8.4-0.4c-0.9,0.2-1.8,0.3-2.7,0.6
		C1073.3,6.5,1072.4,6.7,1072.4,7.5z M1081.6,16.1c0.2,0,0.4,0.1,0.6,0.2c-0.1,0.2-0.4,0.2-0.6,0.2
		C1081.6,16.3,1081.6,16.2,1081.6,16.1z"/>
	<path class="st1" d="M1072.4,7.5l1.1,25.5c0,0.5,0.4,0.9,0.9,0.9l0,0l6.7-0.2c0.2,0,0.5-0.1,0.6-0.3c0.2-0.2,0.2-0.5,0.2-0.7
		l-1-6.1l6.6,5c0.4,0.3,0.9,0.2,1.2-0.1l4.4-5.3c0.2-0.2,0.2-0.5,0.2-0.8c-0.1-0.3-0.2-0.5-0.5-0.6l-6.5-3.1c0.6-0.3,1.2-0.6,1.8-1
		c3.1-2.1,4.3-6.3,2.8-9.7c-1.4-3.3-5.6-5.2-9-5.6c-1-0.1-2.2-0.1-3.5,0c-0.8,0.1-1.6,0.2-2.4,0.3c-1.7,0.3-2.6,0.7-3.2,0.9
		C1072.6,6.8,1072.4,7.1,1072.4,7.5z M1082.3,16c-0.1,0.2-0.1,0.5-0.9,0.5c-0.4,0-1-0.1-1.5-0.2l-0.1-2c0.9,0.1,2,0.5,2.4,1
		C1082.3,15.5,1082.4,15.7,1082.3,16z"/>
	<path class="st2" d="M1092.5,25.5l-8.5-4c1.3-0.3,2.5-0.8,3.7-1.6c2.8-1.9,3.8-5.7,2.5-8.6c-1.3-3-5.2-4.7-8.3-5
		c-1-0.1-2.2-0.1-3.3,0c-0.8,0.1-1.6,0.2-2.3,0.3c-1.5,0.3-2.4,0.6-3,0.8l0.1,1.3l1,24.2l6.7-0.2l-1.3-8.2l8.4,6.4L1092.5,25.5z
		 M1079.2,13.4c1.5-0.1,4.5,0.9,4,2.8c-0.5,1.7-2.5,1.2-4.2,0.8l-0.1-3.6C1079,13.4,1079.1,13.4,1079.2,13.4z"/>
	<g class="st7">
		<path class="st2" d="M1073.8,18.6c2.6,1,5.4,1.9,8.1,1.9c1.9,0,3.8-0.2,5.7-0.5c0,0,0.1,0,0.1-0.1c2.8-1.9,3.8-5.7,2.5-8.6
			c-1.3-3-5.2-4.7-8.3-5c-1-0.1-2.2-0.1-3.3,0c-0.8,0.1-1.6,0.2-2.3,0.3c-1.5,0.3-2.4,0.6-3,0.8l0.1,1.3L1073.8,18.6z M1079.2,13.4
			c1.5-0.1,4.5,0.9,4,2.8c-0.5,1.7-2.5,1.2-4.2,0.8l-0.1-3.6C1079,13.4,1079.1,13.4,1079.2,13.4z"/>
	</g>
	<path class="st4" d="M1082.7,14.6c0.4,0.4,0.6,1,0.5,1.6c-0.5,1.7-2.5,1.2-4.2,0.8l-0.1-3.4c0,0,0,0-0.1,0v3.9l0.6,0.1
		c0.7,0.2,1.6,0.3,2.3,0.3c1.6,0,1.8-0.5,2-1.2c0.2-0.7,0.1-1-0.4-1.6C1083.1,14.9,1082.9,14.7,1082.7,14.6z"/>
	<path class="st4" d="M1073.9,8.5c0.5-0.2,1.3-0.4,2.6-0.7c0.7-0.1,1.5-0.2,2.2-0.3c0.6-0.1,1.2-0.1,1.7-0.1s1,0,1.5,0.1
		c3,0.4,6.6,1.9,7.9,4.7c1.1,2.5,0.4,5.5-1.6,7.4c2.5-2,3.3-5.5,2.1-8.3c-1.3-3-5.2-4.7-8.3-5c-1-0.1-2.2-0.1-3.3,0
		c-0.8,0.1-1.6,0.2-2.3,0.3c-1.5,0.3-2.4,0.6-3,0.8l0.1,1.3l0.1,2.8L1073.9,8.5z"/>
	<polygon class="st4" points="1084,21.5 1092.5,25.5 1090.2,28.3 1091.5,25.6 1082.9,21.5 	"/>
	<path class="st3" d="M1075.2,32.1c0,0.3,2.1,0.3,3.2,0.2l2.1-0.2l-0.6-4.7c-0.2-1.4-0.6-1.5-0.7-1.4c-0.2,0-0.4,0-0.2,1.6l0.5,3.8
		l-1.2,0.1C1077.5,31.5,1075.2,31.8,1075.2,32.1z M1078.8,24.2c0.2-0.1,0.6,0.1,0.7,0.7s-0.4,0.6-0.5,0.3
		C1078.5,24.6,1078.7,24.3,1078.8,24.2z"/>
</g>
<g>
	<path class="st0" d="M1120,34.1c1.5,0,1.3-1.9,1.4-2.9c0.1-1.6,0.1-3.2,0.2-4.8c0-0.5,0-1,0.1-1.4c0-1-0.7-1.2-1.3-1.7
		c-0.5-0.4-1.1-0.8-1.7-0.8c-0.7,0-1.4,0-2.1,0c-0.3,0-2.9,0.2-2.9,0c-0.1-0.8-0.1-1.6-0.2-2.4c-0.3-3.2-0.5-6.4-0.8-9.5
		c-0.1-1.2-0.2-2.4-0.3-3.5c0-0.2,0-0.5-0.1-0.7c-0.1-0.9-1-1.3-1.7-1.7c-0.4-0.3-0.8-0.6-1.3-0.5c-0.1,0-0.2,0-0.3,0.1
		c-0.5,0.1-1.1,0.2-1.6,0.3c-1.6,0.3-3.2,0.7-4.8,1c-0.8,0.2-2.7,0.2-2.4,1.5c0.1,0.5,0.2,1,0.3,1.4c0.6,2.6,1.2,5.3,1.8,7.9
		c1.1,5,2.3,10,3.4,14.9c0,0.1,0,0.1,0.1,0.2c0.1,0.3,0.3,0.5,0.5,0.7c0.2,0.3,0.4,0.7,0.7,1c0.3,0.5,0.8,0.7,1.4,0.7
		c1.2,0.1,2.4,0.1,3.5,0.1c2.7,0.1,5.3,0.2,8,0.3C1119.9,34.1,1120,34.1,1120,34.1z"/>
	<path class="st1" d="M1118.5,32.3c0.5,0,0.9-0.4,0.9-0.9l0.4-8.1c0-0.3-0.1-0.5-0.3-0.7c-0.2-0.2-0.4-0.3-0.7-0.3l-7,0.1l-1.5-17.8
		c0-0.3-0.2-0.5-0.4-0.7c-0.2-0.2-0.5-0.2-0.7-0.2l-8.3,1.7c-0.2,0.1-0.5,0.2-0.6,0.4c-0.1,0.2-0.2,0.5-0.1,0.7l5.5,24.4
		c0.1,0.4,0.4,0.7,0.9,0.7L1118.5,32.3L1118.5,32.3z"/>
	<polygon class="st2" points="1101.2,6.5 1109.5,4.8 1111.1,23.4 1118.9,23.3 1118.5,31.4 1106.7,30.9 	"/>
	<path class="st3" d="M1110.6,17.5l-1.1-12.7l-8.3,1.7l2.9,12.7C1106.1,18.4,1108.4,17.9,1110.6,17.5z"/>
	<path class="st4" d="M1109.5,4.8l-8.3,1.7l1,4.5l-0.3-3.3l7.3-1.8l1.9,17.8l7.5,0.4l0.3,3.3l0.2-4c0,0-7.9,0.1-7.8,0.1L1109.5,4.8z
		"/>
	<path class="st3" d="M1114.7,30.6c0-0.4-2.8-0.7-4.3-0.8l-2.8-0.2l-0.9-4.5c-0.4-1.8-0.8-2-1-1.9c-0.2,0-0.4-0.1,0,2.1l1.1,5.2
		l3.5,0.2C1111.5,30.8,1114.7,30.9,1114.7,30.6z M1105.2,20.8c0.2-0.1,0.7,0.2,0.8,1c0.2,0.8-0.3,0.8-0.5,0.5
		C1104.9,21.4,1105,20.9,1105.2,20.8z"/>
</g>
<g>
	<path class="st0" d="M1148,8.9c-1.5-1-2.9-2.1-4.5-2.8c-1.7-0.7-3.5-1.2-5.3-1.4c-4.1-0.5-8.3,0.1-12.1,1.7
		c-1.2,0.5-0.9,1.4-0.8,2.4c0.1,1.2,0.1,2.5,0.4,3.7c0.3,1.4,0.9,6.1,2.3,20.1c1,0.7,2.7,1.5,4.8,2c1.3,0.3,2.5,0.3,4.2,0.2
		c4.1-0.3,7.6-0.6,10.8-2.9c0.8-0.6,3.8-2.8,5.2-6.8C1155.9,16.3,1148,9,1148,8.9L1148,8.9z M1138.7,21.1c-0.1,0.1-0.1,0.3-0.2,0.4
		c-0.1-0.8-0.3-1.6-0.4-2.4c0.4,0.1,1,0.2,1,0.6C1139.1,20.2,1139,20.6,1138.7,21.1C1138.7,21.2,1139,20.6,1138.7,21.1z"/>
	<path class="st1" d="M1135.3,4.5c-1,0-2.1,0.1-3.1,0.2c-2.2,0.3-4.4,0.9-6.4,1.7c-0.5,0.2-0.8,0.7-0.7,1.3
		c0.9,8.3,1.9,16.5,2.8,24.8c0.9,0,7.9,0.2,12.7-0.6c2-0.3,3.3-0.8,4.6-1.4c1.2-0.6,2.2-1.2,2.6-1.6c3.8-2.8,5.5-8.3,4.1-13.3
		C1149.8,8.7,1143.6,4.5,1135.3,4.5z M1136.6,22.6l-1.1-6c1.7,0.2,2.7,0.9,3.3,2c0.3,0.7,0.3,1.7-0.1,2.5s-1,1.3-1.7,1.5
		C1136.9,22.6,1136.8,22.6,1136.6,22.6z"/>
	<path class="st2" d="M1150.6,16c-2.3-8.2-10.5-11.1-18.2-10.1c-2.1,0.3-4.2,0.8-6.1,1.7l1,8.9c0.6,4.9,1.2,9.8,1.8,14.7
		c4,0.1,7.2,0,9.6-0.2c2.1-0.2,3.9-0.5,6-1.5c0.8-0.4,1.6-0.8,2.3-1.4C1150.6,25.3,1151.8,20.3,1150.6,16z M1137.3,23.7
		c-0.5,0.1-1.1,0.1-1.8-0.1l-1.5-8.3c2.4-0.1,4.8,0.5,5.9,2.8C1140.9,20.2,1139.7,23.1,1137.3,23.7z"/>
	<path class="st3" d="M1127.6,19.4c2.4-0.3,4.7-0.5,7.1-0.5l-0.7-3.6c2.4-0.1,4.8,0.5,5.9,2.8c0.1,0.3,0.2,0.6,0.3,1
		c3.7,0.2,7.2,0.8,10.8,1.5c0.1-1.5,0-3.1-0.4-4.6c-2.3-8.2-10.5-11.1-18.2-10.1c-2.1,0.3-4.2,0.8-6.1,1.7l1,8.9L1127.6,19.4z"/>
	<path class="st4" d="M1132.3,5.9c-2.1,0.3-4.2,0.8-6.1,1.7l1,8.9l-0.2-7.4c1.7-0.7,3.5-1.2,5.4-1.4c0.9-0.1,1.9-0.2,2.9-0.2
		c7.4,0,13.2,3.3,15,9.4c0.3,1,0.5,1.6,0.7,3.8c0.1-1.5,0-3.1-0.4-4.6C1148.2,7.8,1140.1,4.9,1132.3,5.9z"/>
	<path class="st4" d="M1134.2,16.2l1.4,7.4c0,0,1.8,0.7,3.4-0.8s1.2-4,1.2-4s1.5,4.4-2.5,5.4c-0.9,0.2-2.4,0-2.4,0L1134.2,16.2z"/>
	<path class="st3" d="M1138.1,29.7c0,0.2,0.6,0.4,1.4,0.4s1.7-0.2,2.3-0.4s1.9-0.6,3.1-1.3c1.2-0.7,2.3-1.6,2.9-2.3
		c0.3-0.3,0.4-0.6,0.5-0.9c0.1-0.2,0.1-0.4,0.1-0.6c0-0.3-0.2-0.4-0.3-0.5c-0.1-0.1-0.2-0.1-0.4,0c-0.2,0.1-0.4,0.4-0.9,1.1
		s-1.5,1.4-2.5,2s-2.1,1-2.9,1.2c-0.4,0.1-1.2,0.4-1.9,0.6C1138.7,29.3,1138.1,29.5,1138.1,29.7z M1148.4,22.3c0.1,0,0.3,0,0.5,0.2
		s0.3,0.5,0.2,0.8c-0.2,0.8-0.8,0.4-0.9,0.1c-0.2-0.4-0.2-0.7-0.2-0.9C1148.2,22.5,1148.3,22.4,1148.4,22.3z"/>
</g>
<g>
	<path class="st0" d="M1157.8,31.3c1.5,2.2,3.6,4,6.2,4.7c2.4,0.6,5,0.2,7.1-1.1c2-1.3,3.4-3.3,3.5-5.7s-0.8-4.5-2.2-6.3
		c-1.4-1.7-3.3-2.9-4.9-4.5c-0.6-0.6-1.6-1.6-1.2-2.5c0.3-0.5,0.8-0.9,1.4-0.9c0.2,0,0.3-0.1,0.3,0.2c0,0.2,0,0.3,0,0.5
		c0,0.4,0,0.8-0.1,1.1c-0.1,0.5,0.2,0.9,0.6,1.3c0.3,0.4,0.5,0.9,0.8,1.2c0.5,0.5,1.2,0.2,1.7,0.1c0.7-0.2,1.4-0.5,2.1-0.8
		c1.3-0.6,2.6-1.3,3.9-1.9c1.2-0.6,0.9-2,0.6-3.1c-0.5-2.3-1.8-4.4-3.8-5.7c-1-0.8-2.1-1.5-3.3-2c-1.2-0.5-2.6-0.6-3.9-0.4
		c-2.6,0.3-4.7,1.9-6.2,4c-1.4,2.1-2.2,4.6-1.5,7.1c0.5,1.7,1.6,3.3,2.7,4.6c0.6,0.8,1.4,1.4,2.1,2c0.4,0.3,0.8,0.6,1.2,0.9
		c0.2,0.1,0.4,0.2,0.4,0.5c0,0.2,0,0.4-0.1,0.6c0.1-0.8-0.5-1.4-1.2-1.7c-0.4-0.4-1-0.8-1.6-0.8c-2,0.2-3.9-0.2-5.9-0.1
		c-0.4,0-0.8,0-1.1,0.2c-0.3,0.3-0.4,0.8-0.5,1.1c-0.2,0.8-0.1,1.7,0,2.6C1155.7,28.3,1156.7,29.8,1157.8,31.3
		C1157.9,31.4,1157.7,31.2,1157.8,31.3z"/>
	<path class="st1" d="M1159.7,32.9c1.5,1.1,3.3,1.6,5.2,1.6l0,0c2.8,0,5.3-1.2,6.9-3.4c1.7-2.3,1.4-5.6,0.3-7.6
		c-1.3-2.2-2.7-3.5-4.5-4.9c-1-0.8-2.9-2.3-3-3.6c0-0.4,0.1-0.8,0.5-1.2s0.9-0.6,1.5-0.6c0.4,0,0.8,0.1,1,0.3
		c0.7,0.6,0.6,2.2,0.5,3.3c0,0.3,0.1,0.5,0.3,0.7s0.5,0.2,0.8,0.2c1.7-0.4,3.2-1.2,4.6-1.9c0.7-0.3,1.4-0.7,2.1-1
		c0.3-0.1,0.5-0.5,0.5-0.9c0-0.2,0-0.3,0-0.5c-0.4-4.6-4-8.1-8.4-8.1c-2,0-4,0.8-5.6,2.2c-1.4,1.3-2.8,3.6-3.2,5.5
		c-0.5,2.4,0.3,4.9,2.1,6.9c0.6,0.7,1.3,1.2,2,1.7c1,0.7,2,1.5,2.4,2.5c0.2,0.4,0,0.7-0.1,0.9c-0.2,0.3-0.5,0.5-0.8,0.5
		c-0.2,0-0.5-0.1-0.7-0.3c-0.3-0.3-0.3-0.8-0.2-1.7c0-0.3,0-0.5-0.2-0.7s-0.5-0.3-0.7-0.2c-0.4,0.1-0.8,0.1-1.3,0.1
		c-0.7,0-1.4,0-2.2-0.1c-0.7-0.1-1.5-0.1-2.3-0.1c-0.4,0-0.7,0-1,0s-0.6,0.3-0.7,0.6C1154.3,26.7,1156.8,30.9,1159.7,32.9z"/>
	<path class="st2" d="M1167.1,19.3c-1.6-1.3-4.8-3.8-2.7-6c1-1.1,2.7-1.2,3.7-0.4s0.9,2.6,0.8,4.1c2.4-0.6,4.4-1.9,6.6-2.9
		c0-0.2,0-0.4,0-0.5c-0.5-6.5-7.7-9.7-12.6-5.4c-1.3,1.1-2.6,3.3-2.9,5c-0.5,2.3,0.4,4.5,1.9,6.2c1.4,1.6,3.7,2.4,4.6,4.5
		c0.7,1.8-1.6,3.4-3,1.9c-0.6-0.7-0.5-1.5-0.4-2.4c-2.1,0.3-4.6-0.3-6.7-0.1c-1,3.2,1.4,7,3.9,8.9c3.4,2.4,8.3,1.9,10.9-1.6
		c1.4-1.9,1.3-4.8,0.3-6.7C1170.2,21.9,1168.9,20.7,1167.1,19.3z"/>
	<path class="st3" d="M1165.1,17.6c-1.2-1.3-2.1-2.8-0.7-4.3c1-1.1,2.7-1.2,3.7-0.4s0.9,2.6,0.8,4.1c2.4-0.6,4.4-1.9,6.6-2.9
		c0-0.2,0-0.4,0-0.5c-0.5-6.5-7.7-9.7-12.6-5.4c-1.3,1.1-2.6,3.3-2.9,5c-0.3,1.6,0,3.2,0.8,4.6C1162.2,17.7,1163.6,17.6,1165.1,17.6
		z"/>
	<g>
		<path class="st4" d="M1162.8,9.2c4.9-4.3,11.8-1.2,12.6,4.9h0.1c0-0.2,0-0.4,0-0.5c-0.5-6.5-7.7-9.7-12.6-5.4
			c-1.3,1.1-2.6,3.3-2.9,5c-0.1,0.6-0.2,1.2-0.1,1.8c0-0.3,0-0.5,0.1-0.8C1160.2,12.5,1161.6,10.3,1162.8,9.2z"/>
	</g>
	<path class="st4" d="M1167.1,20c1.8,1.4,3.1,2.6,4.3,4.7c0.4,0.8,0.7,1.8,0.8,2.8c0.1-1.3-0.2-2.6-0.8-3.5
		c-1.2-2.1-2.5-3.2-4.3-4.7c-1.2-0.9-3.1-2.4-3.3-4.1C1163.5,17.1,1165.8,19,1167.1,20z"/>
	<path class="st4" d="M1163.4,26.5c1.3,1.4,3.4,0.1,3.1-1.6c-0.3,1.3-2,2.1-3.1,0.9c-0.3-0.3-0.4-0.7-0.5-1.1
		C1162.9,25.4,1162.9,26,1163.4,26.5z"/>
	<path class="st4" d="M1162.9,24.1c0-0.2,0.1-0.5,0.1-0.7c-2.1,0.3-4.6-0.3-6.7-0.1c-0.2,0.6-0.3,1.3-0.2,1.9c0-0.4,0.1-0.8,0.2-1.3
		C1158.4,23.9,1160.8,24.4,1162.9,24.1z"/>
	<path class="st3" d="M1156.8,27.1c-0.1,0,0,0.2,0.1,0.5c0.1,0.2,0.1,0.3,0.2,0.5s0.2,0.4,0.3,0.6c0.3,0.4,0.5,0.9,0.9,1.3
		c0.2,0.2,0.3,0.4,0.5,0.6s0.4,0.3,0.5,0.5c0.1,0.1,0.2,0.2,0.3,0.3c0.1,0.1,0.2,0.2,0.4,0.3c0.3,0.2,0.5,0.4,0.9,0.6
		c0.7,0.4,1.6,0.8,2.5,0.9c0.9,0.2,1.9,0.1,2.7,0c0.8-0.2,1.5-0.4,2-0.6c0.3-0.1,0.5-0.2,0.6-0.3l0.1-0.1c0.1,0,0.1-0.1,0.1-0.1
		c0.1-0.1,0.2-0.1,0.2-0.2c0.3-0.2,0.4-0.4,0.5-0.5c0.2-0.3,0.1-0.4,0.1-0.5c-0.1-0.1-0.1-0.2-0.3,0c-0.1,0.1-0.3,0.2-0.5,0.3
		c-0.1,0-0.1,0.1-0.2,0.1s-0.2,0.1-0.3,0.1c-0.1,0.1-0.2,0.1-0.4,0.2c-0.1,0.1-0.2,0.1-0.4,0.2c-0.5,0.3-1.2,0.5-1.9,0.6
		c-0.2,0-0.4,0.1-0.6,0.1s-0.4,0-0.6,0c-0.4,0-0.8,0-1.1-0.1h-0.3c-0.1,0-0.2-0.1-0.3-0.1c-0.2-0.1-0.4-0.1-0.5-0.2
		c-0.3-0.2-0.7-0.3-1-0.5c-0.2-0.1-0.3-0.2-0.4-0.3s-0.3-0.2-0.4-0.3c-0.1-0.1-0.3-0.2-0.4-0.3c-0.1-0.1-0.2-0.2-0.3-0.3
		s-0.2-0.2-0.4-0.4c-0.2-0.1-0.3-0.3-0.5-0.5s-0.3-0.4-0.5-0.6s-0.3-0.4-0.5-0.6c-0.3-0.4-0.6-0.8-0.8-1
		C1157,27.2,1156.9,27,1156.8,27.1z M1171.1,28.7c0.1,0,0.2,0.1,0.2,0.4c0,0.1,0,0.3,0,0.4s0,0.2-0.1,0.3c0,0.1-0.1,0.2-0.2,0.3
		c-0.1,0.2-0.2,0.3-0.3,0.4c-0.1,0.1-0.2,0.1-0.3,0s-0.1-0.2-0.1-0.4c0.1-0.3,0.1-0.5,0.2-0.7c0-0.2,0.1-0.3,0.2-0.4
		C1170.9,28.8,1171,28.7,1171.1,28.7z"/>
</g>
</svg>
