<?xml version="1.0" encoding="utf-8"?>
<!-- Generator: Adobe Illustrator 24.0.2, SVG Export Plug-In . SVG Version: 6.00 Build 0)  -->
<svg version="1.1" id="Capa_1" xmlns="http://www.w3.org/2000/svg" xmlns:xlink="http://www.w3.org/1999/xlink" x="0px" y="0px"
	 viewBox="0 0 270.2 67.2" style="enable-background:new 0 0 270.2 67.2;" xml:space="preserve">
<style type="text/css">
	.st0{fill:#352E16;}
	.st1{fill:#954415;}
	.st2{fill:#F1AF02;}
	.st3{opacity:0.7;}
	.st4{fill:#FFFFFF;}
	.st5{fill:#F9B84A;}
	.st6{opacity:0.8;fill:#F1AF02;}
	.st7{fill:#F6EB69;}
	.st8{opacity:0.8;}
	.st9{fill:#F4F4F4;}
</style>
<g>
	<path class="st0" d="M-1039.3,22c-0.3,0.4,0,1,0.1,1.5c0.2,0.8,0.4,1.7,0.6,2.5c0.6,2.6,1.2,5.3,1.9,7.9c0.6,2.6,1.2,5.2,1.8,7.8
		c0.2,0.8,0.4,1.6,0.6,2.4c0,0.2,0.1,0.4,0.1,0.5c0.1,0.5,0.5,0.9,0.8,1.3c0.3,0.4,0.6,0.9,1.1,1c0.1,0,0.3,0,0.4,0
		c0.6,0,1.2-0.1,1.8-0.1c0.6,0,1.3-0.1,1.9-0.1c0.6,0,1.2-0.2,1.4-0.8c0.7-2,1.2-4,1.7-6c0,0,0-0.1,0-0.1c0.4,1,0.8,2,1.2,3.1
		c0,0.1,0.1,0.3,0.2,0.4c0.1,0.2,0.3,0.4,0.5,0.5c0.1,0.2,0.2,0.5,0.4,0.7c0.3,0.6,0.7,0.8,1.3,0.7c1.3-0.1,2.5-0.1,3.8-0.2
		c0.4,0,0.9,0,1.3-0.2c0.3-0.2,0.5-0.5,0.5-0.9c0.9-4.6,1.9-9.3,2.8-13.9c0.2-0.9,0.4-1.9,0.6-2.8c0.1-0.7,0.4-1.5-0.4-2
		c-0.2-0.2-0.5-0.4-0.7-0.5c-0.2-0.2-0.5-0.4-0.7-0.5c-0.1-0.1-0.2-0.1-0.4-0.1c-0.5-0.1-1-0.3-1.5-0.4c-1.2-0.4-2.4-0.7-3.7-1.1
		c-0.6-0.2-1.2-0.1-1.3,0.6c-0.1,0.6-0.2,1.2-0.3,1.8c-0.2,1.3-0.4,2.6-0.6,4c-0.4-0.8-0.8-1.7-1.2-2.5c-0.1-0.2-0.2-0.4-0.5-0.6
		c-0.4-0.3-0.8-0.6-1.3-0.9c-0.5-0.5-1.1-0.2-1.4,0.3c-0.8,1.7-1.7,3.3-2.5,5c-0.5-2.2-1-4.3-1.5-6.5c-0.1-0.4-0.2-0.8-0.3-1.2
		c-0.2-0.7-0.9-1-1.5-1.4c-0.3-0.2-0.6-0.5-1.1-0.5c-0.1,0-0.3,0-0.4,0.1c-0.6,0.1-1.2,0.2-1.8,0.3c-0.8,0.1-1.6,0.3-2.5,0.4
		C-1038.3,21.6-1039,21.6-1039.3,22C-1039.4,22.2-1039.2,21.8-1039.3,22z"/>
	<path class="st1" d="M-1039.3,22c-0.1,0.2-0.2,0.4-0.1,0.6l5.2,22c0.1,0.4,0.4,0.6,0.8,0.6c0,0,0,0,0,0l4.3-0.2
		c0.3,0,0.6-0.2,0.7-0.6l2.2-7.7l2.4,6.2c0.1,0.3,0.4,0.5,0.8,0.5l4.8-0.2c0.4,0,0.7-0.3,0.7-0.6l3.6-17.6c0.1-0.4-0.2-0.8-0.6-0.9
		l-5.7-1.7c-0.2-0.1-0.5,0-0.6,0.1c-0.2,0.1-0.3,0.3-0.4,0.5l-1.2,7.4l-2.5-5.4c-0.1-0.3-0.4-0.5-0.7-0.5c-0.3,0-0.6,0.2-0.7,0.4
		l-3.5,6.8l-2.6-10.7c-0.1-0.4-0.5-0.7-0.9-0.6l-5.6,0.9C-1039,21.7-1039.2,21.8-1039.3,22z"/>
	<polygon class="st2" points="-1038.7,22.5 -1033.1,21.5 -1030,34.3 -1025.6,25.5 -1022,33.3 -1020.4,23.3 -1014.7,25 -1018.3,42.6 
		-1023,42.8 -1026.3,34.4 -1029.2,44.3 -1033.5,44.5 	"/>
	<g class="st3">
		<path class="st2" d="M-1030,36.8c0.5,0.1,1,0.1,1.5,0.2c0.1,0,0.5,0,0.6,0c0.3,0,0.5,0,0.8,0l0.7-2.6l1,2.5
			c1.1-0.1,2.3-0.2,3.4-0.4c1.7-0.3,3.4-0.7,5.1-1.1l2.1-10.4l-5.7-1.7l-1.6,10l-3.6-7.8l-4.4,8.8l-3.1-12.8l-5.6,0.9l3,12.9
			C-1033.9,36.1-1032.2,36.5-1030,36.8z"/>
	</g>
	<g>
		<polygon class="st4" points="-1038.1,23.5 -1033.4,22.7 -1030.2,35.6 -1025.6,27.2 -1021.8,35.6 -1020,24.5 -1015.3,26 
			-1016.1,31.7 -1014.7,25 -1020.4,23.3 -1022,33.3 -1025.6,25.5 -1030,34.3 -1033.1,21.5 -1038.7,22.5 -1037.5,27.4 		"/>
	</g>
	<path class="st5" d="M-1032.9,43.8c0,0.3,1.6,0.3,2.4,0.2l1-0.1l1.2-3.8c0.3-1,0-1.2-0.1-1.2c-0.1-0.1-0.3-0.2-0.7,1l-1,3.2l-0.5,0
		C-1031.2,43.2-1032.9,43.5-1032.9,43.8z M-1028.1,37.7c0.1,0,0.5,0.3,0.3,0.7c-0.2,0.4-0.5,0.2-0.6,0
		C-1028.5,37.8-1028.2,37.6-1028.1,37.7z"/>
	<path class="st5" d="M-1022.3,42.1c0,0.3,1.5,0.3,2.4,0.3l1.4-0.1l0.6-3.6c0.2-1-0.1-1.2-0.3-1.2c-0.2,0-0.3-0.1-0.5,1.1l-0.5,2.9
		l-0.8,0.1C-1020.6,41.6-1022.4,41.8-1022.3,42.1z M-1018.1,36.2c0.2,0,0.5,0.3,0.4,0.7c-0.1,0.4-0.5,0.3-0.6,0.1
		C-1018.5,36.4-1018.3,36.2-1018.1,36.2z"/>
</g>
<g>
	<path class="st0" d="M-1008.7,47.7c0.5,0.8,1.9,0.6,2.6,0.6c1.4,0.1,2.8,0.2,4.3,0.2c0.5,0,1,0.1,1.6,0.1c0.4,0,0.9,0.1,1.2-0.3
		c0.4-0.3,0.4-0.8,0.4-1.2c0-0.6,0-1.1,0.1-1.7c0.1-1.6,0.1-3.2,0.2-4.8c0.1,0,0.4,0,0.4,0.1c0,0.2,0,0.3,0.1,0.5
		c0.1,0.6,0.1,1.3,0.2,1.9c0.1,0.7,0.2,1.4,0.2,2.1c0,0.3,0,0.7,0.1,1c0.1,0.2,0.2,0.4,0.3,0.6c0.3,0.4,0.5,0.7,0.7,0.9
		c0.5,0.6,0.8,0.8,1.4,0.8c1.2-0.1,2.4-0.2,3.7-0.2c1-0.1,1.9-0.1,2.9-0.2c0.7,0,1.2-0.7,1-1.4c0-0.1-0.1-0.3-0.1-0.4
		c-0.5-1.8-0.9-3.6-1.4-5.5c-1.4-5.3-2.7-10.5-4.1-15.8c-0.2-0.7-0.3-1.3-0.5-2c0-0.1-0.1-0.2-0.1-0.4c-0.1-0.5-0.6-0.8-1-1
		c-0.4-0.3-0.9-0.8-1.4-0.8c-0.3,0-0.6,0-0.9,0c-1.3,0-2.6-0.1-3.9-0.1c-1.3,0-2.6-0.1-3.9-0.1c-0.6,0-1.6-0.2-1.8,0.7
		c-0.2,1.4-0.4,2.8-0.6,4.2c-0.7,5.5-1.5,11-2.2,16.4c-0.1,1.1-0.3,2.2-0.4,3.3c0,0.2,0,0.3-0.1,0.5c-0.1,0.4,0.3,0.8,0.5,1.1
		C-1009.1,47.1-1008.9,47.4-1008.7,47.7z"/>
	<path class="st1" d="M-1009,46.6l7.9,0.4c0,0,0,0,0,0c0.2,0,0.4-0.1,0.5-0.2c0.2-0.1,0.3-0.3,0.3-0.6l0.3-7.3l1.8,0.1l0.8,7
		c0,0.4,0.4,0.7,0.8,0.7l6.8-0.4c0.2,0,0.5-0.1,0.6-0.3c0.1-0.2,0.2-0.4,0.1-0.7l-6.2-24c-0.1-0.4-0.4-0.6-0.8-0.6l-9.7-0.2
		c-0.4,0-0.8,0.3-0.8,0.7l-3.3,24.5c0,0.2,0,0.4,0.2,0.6C-1009.4,46.5-1009.2,46.6-1009,46.6z M-998.9,32.1l-0.7,0l0.1-3.2h0.2
		L-998.9,32.1z"/>
	<path class="st2" d="M-996.5,46l6.8-0.4l-6.2-24l-9.7-0.2l-3.3,24.5l7.9,0.4l0.3-8.1l3.3,0.3L-996.5,46z M-1000.5,32.9l0.2-4.8h1.7
		l0.5,4.8L-1000.5,32.9z"/>
	<path class="st6" d="M-1006,36.1c0.8,0.3,3,0.9,4.5,1.1c0.8,0.2,1.7,0.3,2.5,0.4c0.3,0,0.7,0.1,1,0.1c0.1,0,0.2,0,0.2,0
		c0.1,0,0.2,0,0.3,0c1.9,0.1,3.8,0,5.7-0.2l-4.1-16l-9.7-0.2l-1.9,14.2C-1007.1,35.7-1006.6,35.9-1006,36.1z M-1000.3,28.1h1.7
		l0.5,4.8l-2.5,0L-1000.3,28.1z"/>
	<polygon class="st4" points="-998.5,28.3 -998,32.9 -1000.5,32.9 -1000.3,28.3 -1000.7,33.3 -997.8,33.4 	"/>
	<path class="st4" d="M-1005.2,22.5l8.9,0.2c0,0,2.8,9.2,3.1,9.2l-2.7-10.3l-9.7-0.2l-1.4,10.7
		C-1006.9,32.1-1005.2,22.5-1005.2,22.5z"/>
	<path class="st6" d="M-1006.7,45.1c0,0.3,2,0.6,3,0.6c0.3,0,0.7,0,1.2,0c0.1,0,0.3,0,0.4,0c0.1,0,0.1,0,0.2,0h0.1c0,0,0.1,0,0.1,0
		l0,0l0,0c0.1,0,0.1,0,0.2-0.1c0,0,0,0,0.1-0.2c0-0.1,0-0.9-0.4-0.1l0,0l0,0c0,0,0,0,0.1-0.1c0.1,0,0.2-0.1,0.2,0c0,0,0,0.1,0,0.1v0
		v-0.1l0-0.2c0-0.1,0-0.3,0-0.4c0.1-1.1,0.1-2.3,0.2-2.9c0.1-1.3-0.2-1.5-0.4-1.5c-0.2,0-0.4-0.1-0.5,1.5c0,0.8-0.1,1.9-0.2,2.9
		c0,0.3,0,0.5,0,0.8v0c0,0,0,0,0,0.1c0,0.1,0,0.1,0,0.1c0,0.1,0,0,0,0.1c0.2-0.1-0.3,0.2,0.3-0.2l0,0c0,0,0,0,0,0c0,0,0-0.1,0-0.1
		l0-0.2c0-0.1,0-0.1,0-0.1h0h0l0,0h-0.2c-0.1,0-0.2,0-0.4,0c-0.5,0-0.9,0-1.3,0C-1004.5,44.8-1006.7,44.8-1006.7,45.1z
		 M-1001.5,38.3c0.1,0,0.6,0.2,0.5,0.8c0,0.6-0.4,0.5-0.6,0.2C-1001.9,38.7-1001.7,38.4-1001.5,38.3z"/>
	<path class="st6" d="M-996.1,45.4c0,0.3,2.1,0.3,3.2,0.2c0.3,0,0.7-0.1,1.2-0.1c0.3,0,0.6,0,1-0.1c0.1,0,0.3,0,0.4,0l0.2,0
		c0,0,0-0.1,0-0.2c-0.1-0.3-0.1-0.5-0.2-0.8c-0.3-1.2-0.6-2.3-0.8-3c-0.4-1.4-0.7-1.4-0.9-1.4c-0.2,0-0.4,0,0,1.6
		c0.2,0.8,0.5,1.9,0.7,3l0,0.1c0,0,0,0,0,0c-0.2,0-0.4,0-0.5,0c-0.5,0-1,0.1-1.3,0.1C-993.8,44.8-996.1,45.1-996.1,45.4z
		 M-992.4,38.3c0.1-0.1,0.6,0.1,0.7,0.7c0.1,0.6-0.3,0.6-0.5,0.4C-992.7,38.8-992.6,38.4-992.4,38.3z"/>
</g>
<g>
	<path class="st0" d="M-966.4,50.6c1.5,0,1.3-1.9,1.4-2.9c0.1-1.6,0.1-3.2,0.2-4.8c0-0.5,0-1,0.1-1.4c0-1-0.7-1.2-1.3-1.7
		c-0.5-0.4-1.1-0.8-1.7-0.8c-0.7,0-1.4,0-2.1,0c-0.3,0-2.9,0.2-2.9,0c-0.1-0.8-0.1-1.6-0.2-2.4c-0.3-3.2-0.5-6.4-0.8-9.5
		c-0.1-1.2-0.2-2.4-0.3-3.5c0-0.2,0-0.5-0.1-0.7c-0.1-0.9-1-1.3-1.7-1.7c-0.4-0.3-0.8-0.6-1.3-0.5c-0.1,0-0.2,0-0.3,0.1
		c-0.5,0.1-1.1,0.2-1.6,0.3c-1.6,0.3-3.2,0.7-4.8,1c-0.8,0.2-2.7,0.2-2.4,1.5c0.1,0.5,0.2,1,0.3,1.4c0.6,2.6,1.2,5.3,1.8,7.9
		c1.1,5,2.3,10,3.4,14.9c0,0.1,0,0.1,0.1,0.2c0.1,0.3,0.3,0.5,0.5,0.7c0.2,0.3,0.4,0.7,0.7,1c0.3,0.5,0.8,0.7,1.4,0.7
		c1.2,0.1,2.4,0.1,3.5,0.1c2.7,0.1,5.3,0.2,8,0.3C-966.5,50.6-966.4,50.6-966.4,50.6z"/>
	<path class="st1" d="M-967.8,48.8c0.5,0,0.9-0.4,0.9-0.9l0.4-8.1c0-0.3-0.1-0.5-0.3-0.7c-0.2-0.2-0.4-0.3-0.7-0.3l-7,0.1l-1.5-17.8
		c0-0.3-0.2-0.5-0.4-0.7c-0.2-0.2-0.5-0.2-0.7-0.2l-8.3,1.7c-0.2,0.1-0.5,0.2-0.6,0.4c-0.1,0.2-0.2,0.5-0.1,0.7l5.5,24.4
		c0.1,0.4,0.4,0.7,0.9,0.7L-967.8,48.8C-967.9,48.8-967.9,48.8-967.8,48.8z"/>
	<polygon class="st2" points="-985.2,23 -976.9,21.3 -975.3,39.9 -967.5,39.8 -967.8,47.9 -979.7,47.4 	"/>
	<path class="st6" d="M-975.8,34l-1.1-12.7l-8.3,1.7l2.9,12.7C-980.3,34.9-978,34.4-975.8,34z"/>
	<path class="st4" d="M-976.9,21.3l-8.3,1.7l1,4.5l-0.3-3.3l7.3-1.8l1.9,17.8l7.5,0.4l0.3,3.3l0.2-4c0,0-7.9,0.1-7.8,0.1
		L-976.9,21.3z"/>
	<path class="st6" d="M-971.7,47.1c0-0.4-2.8-0.7-4.3-0.8l-2.8-0.2l-0.9-4.5c-0.4-1.8-0.8-2-1-1.9c-0.2,0-0.4-0.1,0,2.1l1.1,5.2
		l3.5,0.2C-974.9,47.3-971.7,47.5-971.7,47.1z M-981.2,37.4c0.2-0.1,0.7,0.2,0.8,1c0.2,0.8-0.3,0.8-0.5,0.5
		C-981.5,37.9-981.4,37.4-981.2,37.4z"/>
</g>
<g>
	<path class="st0" d="M-953.4,21.6c-0.1-0.6-0.5-0.9-1-1.1c-0.2-0.1-0.4-0.3-0.7-0.4c-0.2-0.2-0.4-0.4-0.6-0.5
		c-0.3-0.2-0.9-0.1-1.2-0.1c-1.5,0-3,0.1-4.5,0.1c-0.8,0-2.2-0.2-2.2,1c0,0.5,0,1.1,0.1,1.6c0.2,5.8,0.5,11.6,0.7,17.4
		c0.1,2.3,0.2,4.5,0.3,6.8c0,0.7,0,1.2,0.6,1.7c0.1,0.2,0.3,0.5,0.4,0.6c0.1,0.2,0.2,0.5,0.4,0.7c0.3,0.3,0.7,0.4,1,0.4
		c0.4,0,0.7,0,1.1-0.1c2.5-0.2,5-0.3,7.6-0.5c0.7,0,1.2-0.4,1.3-1.1c0-0.4-0.1-0.9-0.1-1.4c-0.1-1.2-0.3-2.3-0.4-3.5
		c0.8,0.9,1.6,1.8,2.4,2.7c0.5,0.6,1.4,0.8,2,0.1c0.3-0.3,0.5-0.6,0.8-0.9c1-1.1,2-2.3,3-3.4c0.2-0.3,0.5-0.5,0.7-0.8
		c0.6-0.6,0.3-1.4-0.3-1.9c-2-1.5-3.9-3-5.9-4.5c-0.1-0.1,3.2-4.8,3.5-5.2c0.8-1.2,1.7-2.5,2.5-3.7c0.4-0.6,1.2-1.5,1.2-2.2
		c0-0.7-0.6-1-1.1-1.3c-0.4-0.3-1-0.8-1.5-0.9c-0.4-0.1-0.7-0.1-1.1-0.2c-1.5-0.2-3-0.4-4.5-0.6c-0.4-0.1-0.9-0.1-1.3-0.2
		c-0.7-0.1-0.9,0.5-1.2,1c-0.5,1.2-1.1,2.3-1.6,3.5C-953.1,23.6-953.3,22.6-953.4,21.6z"/>
	<path class="st1" d="M-955.2,20.3c-0.1-0.4-0.4-0.8-0.9-0.8l-6.6,0.1c-0.2,0-0.5,0.1-0.6,0.3c-0.2,0.2-0.3,0.4-0.2,0.6l1.1,26.6
		c0,0.2,0.1,0.5,0.3,0.6c0.2,0.1,0.4,0.2,0.6,0.2c0,0,0,0,0.1,0l8.9-0.6c0.2,0,0.5-0.1,0.6-0.3c0.2-0.2,0.2-0.4,0.2-0.7l-0.7-5.7
		l3.3,3.7c0.2,0.2,0.4,0.3,0.7,0.3c0.3,0,0.5-0.1,0.7-0.3l4.5-5.1c0.2-0.2,0.2-0.4,0.2-0.7c0-0.2-0.1-0.5-0.3-0.6l-6.3-4.8l7.2-10.6
		c0.2-0.3,0.2-0.6,0.1-0.9c-0.1-0.3-0.4-0.5-0.7-0.5l-7-0.9c-0.4-0.1-0.8,0.2-0.9,0.5l-3.1,6.6L-955.2,20.3z"/>
	<polygon class="st2" points="-943.4,22 -950.4,21.1 -954.8,30.5 -956,20.4 -962.7,20.5 -961.6,47.1 -952.7,46.5 -953.8,38 
		-948.6,43.8 -944.1,38.7 -951.1,33.4 	"/>
	<path class="st6" d="M-954.3,30.5c1.4,0.3,2.8,0.8,4.3,1.2l6.6-9.7l-7-0.9l-4.3,9.3C-954.6,30.4-954.4,30.5-954.3,30.5z"/>
	<path class="st6" d="M-954.8,30.4l-1.3-10l-6.6,0.1l0.4,9C-959.8,29.5-957.2,29.8-954.8,30.4z"/>
	<path class="st4" d="M-949.9,21.9l5.7,1c0,0-5.8,8.9-5.8,8.9l6.6-9.7l-7-0.9l-3.8,8.2L-949.9,21.9z"/>
	<polygon class="st4" points="-956,20.4 -962.7,20.5 -962.4,26.7 -962.5,21.4 -956.6,21.1 -955.3,26.4 	"/>
	<path class="st6" d="M-945.1,39.1c0.2-0.3-0.7-1.2-1.3-1.6c-0.5-0.4-2.3-1.8-2.9-2.3c-0.7-0.5-1-0.3-1.1-0.2
		c-0.1,0.1-0.3,0.3,0.5,0.9c0.8,0.6,2.2,1.7,2.9,2.3C-946.5,38.6-945.3,39.4-945.1,39.1z M-951.3,34.4c0.1-0.1,0.5-0.4,0.8-0.2
		c0.3,0.2,0,0.6-0.2,0.6C-951.4,34.9-951.4,34.6-951.3,34.4z"/>
	<path class="st6" d="M-956.3,45.9c0-0.2-0.7-0.3-1.6-0.4c-0.4-0.1-0.9-0.1-1.4-0.1c-0.2,0-0.5,0-0.7,0c-0.1,0-0.2,0-0.3,0h0h0l0,0
		l0,0l-0.2-7.4c-0.1-1.9-0.4-2.1-0.6-2.1c-0.2,0-0.4-0.1-0.3,2.1l0.2,8.3l0.4,0c0.2,0,0.4,0,0.7,0c0.2,0,0.4,0,0.6,0
		c0.4,0,0.9,0,1.4,0C-957.1,46.2-956.3,46.1-956.3,45.9z M-961.2,33.5c0.2-0.1,0.6,0.3,0.6,1.1c0,0.8-0.4,0.7-0.6,0.4
		C-961.6,34-961.4,33.5-961.2,33.5z"/>
</g>
<g>
	<path class="st0" d="M-933.6,22.6c-0.3,0.3-0.2,0.8-0.2,1.1c0,0.6,0,1.2,0,1.8c0,1.1,0,2.2,0.1,3.3c0,0.3,0.1,0.5,0.3,0.7
		c0.3,0.4,0.6,1.1,1,1.4c0.5,0.4,1.3,0.2,1.8,0.2c0.3,0,0.3,0,0.3,0.3c0,0.4,0,0.9,0.1,1.4c0.1,2.3,0.2,4.6,0.3,6.9
		c0,0.2-0.6,0.1-0.8,0.1c-0.5,0-1.1,0.1-1.6,0.1c-0.7,0-0.7,0.6-0.7,1.2c0.1,0.5,0.1,1.1,0.2,1.6c0.1,1.1,0.3,2.3,0.4,3.4
		c0,0.3,0.2,0.4,0.3,0.7c0.2,0.2,0.3,0.5,0.5,0.7c0.2,0.2,0.3,0.5,0.5,0.7c0.4,0.3,0.8,0.2,1.2,0.2c2.4-0.3,4.8-0.6,7.2-1
		c0.6-0.1,1.3-0.1,1.9-0.3c0.9-0.4,0.6-1.9,0.6-2.7c0-1,0-2-0.1-2.9c0-0.8-0.8-1-1.3-1.5c-0.2-0.2-0.7-0.6-1-0.5c-0.2,0-0.4,0-0.6,0
		c0.1-2.1,0.1-4.2,0.2-6.4c0-0.5,0-1,0.1-1.5c0-0.1-0.1-0.5,0.1-0.5c0.6,0,1.1,0,1.7,0c0.7,0,1.1-0.6,1.1-1.3c0-1.1,0-2.2-0.1-3.3
		c0-0.6,0-1.2,0-1.8c0-0.4,0-0.8-0.2-1.1c-0.1-0.2-1.6-1.3-2-1.4c-0.2,0-0.4,0-0.6,0c-1.1,0-2.2,0-3.2,0c-1.6,0-3.1,0-4.7,0
		c-0.5,0-1.1,0-1.6,0C-933,22.4-933.4,22.3-933.6,22.6C-933.8,22.7-933.5,22.5-933.6,22.6z"/>
	<path class="st1" d="M-933.6,22.6c-0.1,0.1-0.2,0.3-0.2,0.5l0.1,5.7c0,0.4,0.3,0.8,0.8,0.8h2.6l0.4,10.2l-2.4,0.1
		c-0.2,0-0.4,0.1-0.5,0.3c-0.1,0.2-0.2,0.4-0.2,0.6l0.6,5.4c0,0.2,0.1,0.4,0.3,0.5c0.1,0.1,0.3,0.2,0.5,0.2c0,0,0.1,0,0.1,0l9.1-1.2
		c0.4,0,0.7-0.4,0.7-0.8l-0.1-4.7c0-0.2-0.1-0.4-0.2-0.5c-0.2-0.1-0.4-0.2-0.6-0.2l-2.2,0.1l0.3-9.9h2.1h0c0.4,0,0.8-0.3,0.8-0.8
		c0,0,0-0.1,0-0.1l-0.1-5.7c0-0.4-0.3-0.8-0.8-0.8l-10.5,0.1C-933.3,22.4-933.5,22.5-933.6,22.6z"/>
	<polygon class="st2" points="-925.7,40.4 -925.3,28.9 -922.4,28.9 -922.6,23 -933.1,23.1 -933,28.9 -929.6,28.9 -929.1,40.5 
		-932.3,40.7 -931.6,46.1 -922.6,44.9 -922.7,40.2 	"/>
	<g class="st3">
		<path class="st2" d="M-929.6,28.9l0.2,4.6c1.3,0.1,2.6,0.2,4,0.3l0.2-4.9h2.8l-0.1-5.8l-10.5,0.1l0.1,5.7H-929.6z"/>
	</g>
	<g>
		<polygon class="st4" points="-932.6,23.9 -922.7,23.8 -922.5,25.9 -922.6,23 -933.1,23.1 -933,27.1 		"/>
	</g>
	<polygon class="st4" points="-929.2,39.7 -929,40.9 -931.9,41.2 -931.8,44.8 -932.3,40.7 -929.2,40.5 	"/>
	<polygon class="st4" points="-925.7,39.7 -925.7,40.6 -922.8,40.6 -922.6,44.6 -922.7,40.2 -925.6,40.3 	"/>
	<path class="st5" d="M-931.3,45.4c0,0.3,1.8,0.2,2.7,0c0.9-0.1,3.9-0.6,5-0.8c0.2,0,0.5-0.1,0.7-0.1c0-0.2,0-0.4,0-0.6
		c0-0.1,0-0.1,0-0.2c0,0,0-0.1,0-0.1c0-0.1-0.1-0.2-0.1-0.3c-0.1-0.1-0.2-0.2-0.3-0.2c-0.1,0-0.1,0-0.2,0.1c0,0.1-0.1,0.1-0.1,0.3
		c0,0.1,0,0.2,0,0.3c0,0,0,0,0,0c0,0,0,0,0,0c-1.4,0.2-3.8,0.6-5,0.8C-929.4,44.7-931.3,45.1-931.3,45.4z M-923.3,41.7
		c0.1,0,0.5,0.2,0.5,0.7c0,0.5-0.4,0.4-0.5,0.2C-923.7,42-923.5,41.7-923.3,41.7z"/>
</g>
<g>
	<path class="st0" d="M-905.1,23.1c-0.2-0.2-0.5-0.4-0.7-0.5c-0.2-0.2-0.5-0.4-0.7-0.5c-0.2-0.1-0.3-0.1-0.5-0.1
		c-0.6-0.1-1.1-0.1-1.7-0.2c-1.1-0.1-2.1-0.3-3.2-0.4c-0.9-0.1-0.9,0.8-1,1.4c-0.1,0.8-0.2,1.7-0.2,2.5c-0.5,5.4-1,10.8-1.5,16.2
		c-0.1,0.8-0.2,1.7-0.2,2.5c0,0.2,0,0.4-0.1,0.6c0,0.5,0.2,0.7,0.5,1.1c0.4,0.6,0.8,1.4,1.6,1.5c0.3,0,0.7,0,1,0.1
		c1.4,0.1,2.7,0.1,4.1,0.2c0.9,0.1,1.8,0.1,2.7,0.1c0.5,0,1-0.2,1.2-0.6c0.2-0.3,0.1-0.7,0-1.1c-0.2-1.9-0.4-3.8-0.6-5.7
		c1.1,1.7,2.2,3.3,3.2,5c0.3,0.4,0.6,1.1,1,1.3c0.4,0.2,1,0.2,1.4,0.2c1.1,0,2.2,0.1,3.3,0c1,0,1.1-0.9,1.2-1.6
		c0.1-0.8,0.2-1.7,0.3-2.5c0.3-2.7,0.6-5.5,0.9-8.2c0.3-2.5,0.5-5.1,0.8-7.6c0.1-0.6,0.1-1.2,0.2-1.8c0.1-0.5-0.1-1-0.6-1.2
		c-0.2-0.2-0.5-0.4-0.7-0.5c-0.2-0.2-0.5-0.4-0.7-0.5c-0.1-0.1-0.3-0.1-0.5-0.1c-2,0-3.9-0.1-5.9-0.2c-0.8,0-1.5,0-2.3-0.1
		c-0.6,0-1,0.5-0.9,1.1c0.2,1.1,0.4,2.1,0.5,3.2c-0.3-0.6-0.5-1.2-0.8-1.8C-904.2,24.3-904.5,23.4-905.1,23.1
		C-905.1,23-904.8,23.2-905.1,23.1z"/>
	<path class="st1" d="M-906.7,22l-5.1-0.6c-0.2,0-0.4,0-0.6,0.2c-0.2,0.1-0.3,0.3-0.3,0.6l-2.1,22.5c0,0.2,0,0.4,0.2,0.6
		c0.1,0.2,0.3,0.3,0.6,0.3l7.9,0.4c0,0,0,0,0,0h0c0.4,0,0.8-0.4,0.8-0.8c0-0.1,0-0.1,0-0.2l-0.8-7.6l4.7,7.3
		c0.1,0.2,0.4,0.4,0.7,0.4h4.2c0.4,0,0.8-0.3,0.8-0.7l2.2-20.8c0-0.2,0-0.4-0.2-0.6c-0.1-0.2-0.4-0.3-0.6-0.3l-8.4-0.2
		c-0.2,0-0.5,0.1-0.6,0.3c-0.2,0.2-0.2,0.4-0.2,0.7c0.4,1.5,0.6,4.1,0.8,6.2l-3.3-7.1C-906.2,22.2-906.5,22.1-906.7,22z"/>
	<path class="st2" d="M-906.2,45.2l-7.9-0.4l2.1-22.5l5.1,0.6l5.1,11.1c0,0-0.4-7.5-1.2-10.8l8.4,0.2l-2.2,20.8h-4.2l-6.5-10.1
		L-906.2,45.2z"/>
	<g class="st3">
		<path class="st2" d="M-911.2,31.5c2.7-0.4,5.4-0.6,8.1-0.5l-3.8-8.1l-5.1-0.6l-0.9,9.6C-912.3,31.7-911.7,31.5-911.2,31.5z"/>
	</g>
	<g class="st3">
		<path class="st2" d="M-900.3,31.2c1.7,0.2,3.3,0.5,4.9,0.9l0.9-8.7l-8.4-0.2c0.4,2,0.8,5.4,1,7.9
			C-901.4,31.1-900.8,31.1-900.3,31.2z"/>
	</g>
	<g>
		<path class="st4" d="M-906.8,22.8l-5.1-0.6l-0.9,9.6c0.2,0,1.3-8.8,1.3-8.8l4.4,1l5.6,10.2L-906.8,22.8z"/>
	</g>
	<g>
		<path class="st4" d="M-902.4,23.9l7.4,0.6l0,4.3l0.6-5.4l-8.4-0.2c0.2,0.7,0.3,1.5,0.4,2.5L-902.4,23.9z"/>
	</g>
	<path class="st5" d="M-913.4,44c0,0.3,2.6,0.6,4,0.8l2.8,0.2l-0.7-5.8c-0.2-1.8-0.6-1.9-0.7-1.9c-0.2,0-0.4-0.1-0.1,2l0.6,4.8
		l-1.8-0.1C-910.4,43.8-913.4,43.6-913.4,44z M-908.4,35c0.1-0.1,0.6,0.2,0.7,1c0.1,0.8-0.3,0.7-0.5,0.4
		C-908.7,35.5-908.5,35.1-908.4,35z"/>
	<path class="st5" d="M-900.2,43.6c0,0.1,0.4,0.3,1,0.3c0.3,0,0.6,0.1,0.9,0.1c0.2,0,0.3,0,0.5,0c0.3,0,0.6,0,0.8,0
		c0-0.2,0.1-0.4,0.1-0.6c0.1-1.1,0.5-4.5,0.7-5.9c0.2-1.3-0.1-1.5-0.3-1.6c-0.2,0-0.3-0.2-0.5,1.5c-0.2,1.6-0.5,4.3-0.7,5.7
		c0,0,0,0,0,0c0,0,0,0,0,0c-0.1,0-0.3,0-0.4,0c-0.3,0-0.6,0-0.9,0.1C-899.7,43.3-900.2,43.4-900.2,43.6z M-896.4,34.3
		c0.2,0,0.5,0.3,0.4,0.9c-0.1,0.6-0.5,0.4-0.6,0.2C-896.8,34.6-896.6,34.3-896.4,34.3z"/>
</g>
<g>
	<path class="st0" d="M-886.6,33.2c0.1,2.3,0.7,4.6,1.8,6.6c0.5,1,1.2,1.9,1.9,2.8c0.7,1,1.5,1.9,2.5,2.6c1.9,1.3,4.4,1.7,6.6,0.9
		c1-0.4,2-1,2.8-1.7c0.4-0.3,0.7-0.7,1-1.1c0.2-0.2,0.3-0.4,0.4-0.6c0.1-0.2,0.2-0.5,0.4-0.4c0.4,0.2,0.7,0.3,1.1,0.2
		c0.4-0.1,0.6-0.4,0.7-0.8c0.1-0.5,0.2-0.9,0.2-1.4c0.1-0.6,0.2-1.2,0.3-1.9c0.1-0.5,0.2-1-0.1-1.4c-0.3-0.3-0.7-0.5-1.1-0.7
		c-0.2-0.2-0.4-0.4-0.7-0.5c-0.3-0.1-0.7-0.2-1-0.3c-1.2-0.4-2.4-0.7-3.7-1.1c-0.7-0.2-2.1-0.9-2.3,0.2c-0.1,0.5-0.2,1-0.3,1.6
		c-0.1,0.4-0.2,0.9-0.3,1.3c0,0.4,0.3,0.6,0.6,0.8c0.1,0.1,0.2,0.3,0.2,0.4c0,0.1-0.4,0.4-0.5,0.5c-0.4,0.3-0.9,0.3-1.3,0.2
		c-0.5-0.1-0.7-0.8-0.8-1.2c-0.4-1.3-0.2-3,0.2-4.3c0.3-0.8,0.7-1.5,1.3-2c0.3-0.3,0.8-0.5,1.2-0.5c0.3,0,0.5,0.1,0.7,0.2
		c0.2,0.2,0.3,0.3,0.5,0.5c0.2,0.4,0.5,0.9,0.9,1c0.2,0.1,1.3,0.1,1.8,0.1c1,0,1.8,0,2.8,0.1c0.4,0,0.7,0.1,1.1-0.2
		c0.4-0.3,0.5-1,0.6-1.5c0.3-1.1,0.5-2.2,0.7-3.3c0.1-0.4,0.1-0.7-0.1-1c-0.2-0.4-0.9-0.8-1.3-1c-0.3-0.2-0.2-0.2-0.7-0.3
		c-0.2,0-0.2,0-0.3-0.2c0-0.1-0.1-0.2-0.1-0.4c-0.1-0.3-0.3-0.5-0.4-0.8c-0.6-0.9-1.4-1.6-2.2-2.2c-0.9-0.7-1.8-1.3-2.9-1.7
		c-2.1-0.7-4.3-0.4-6.3,0.6c-2.8,1.4-4.6,4-5.4,6.9C-886.5,29.9-886.7,31.6-886.6,33.2C-886.5,36.1-886.7,30.9-886.6,33.2z"/>
	<path class="st1" d="M-886.6,33.2c0.1,3.8,2.1,8,4.7,10.2c1.3,1,2.8,1.6,4.4,1.6c1.1,0,2.1-0.2,3.1-0.7c1.6-0.8,2.9-2.1,3.7-3.7
		l0.7,0.3c0.2,0.1,0.4,0.1,0.6,0c0.2-0.1,0.3-0.3,0.4-0.5l0.7-3.8c0.1-0.4-0.2-0.7-0.5-0.8l-6.1-1.8c-0.2-0.1-0.4,0-0.6,0.1
		c-0.2,0.1-0.3,0.3-0.3,0.5l-0.6,2.8c-0.1,0.3,0.1,0.7,0.4,0.8l0.6,0.3c-0.4,0.7-1,1.2-1.8,1c-1.6-0.4-2.7-1.7-2.7-3.6
		c0-1,0-4.4,2.4-5.7c0.3-0.1,0.6-0.2,0.9-0.2c0.7,0,1.4,0.5,1.8,1.4c0.1,0.3,0.4,0.5,0.8,0.4c0.3,0,0.7-0.1,1.2-0.1
		c1.3,0,2.8,0.1,3.3,0.2c0.1,0,0.2,0,0.2,0c0.3,0,0.6-0.2,0.7-0.5c0.2-0.6,0.3-1.2,0.5-1.9c0.2-0.7,0.3-1.5,0.4-2.2l0.1-0.5
		c0.1-0.4-0.1-0.7-0.5-0.8c-0.1-0.1-0.4-0.1-1.7-0.3c0-0.1,0-0.1,0-0.1c0,0,0,0,0,0c-0.6-3.3-4.1-5.1-7-5.1c-0.7,0-1.4,0.1-2,0.3
		C-886.3,23-886.7,30.9-886.6,33.2z"/>
	<path class="st2" d="M-877.8,29.6c1.6-0.8,3.1,0.1,3.7,1.5c1.5-0.2,4.7,0.1,4.8,0.1c0.2-0.6,0.3-1.2,0.5-1.9
		c0.2-0.9,0.4-1.7,0.5-2.6c-0.2-0.1-2-0.3-2-0.3c0,0-0.2-0.7-0.2-0.7c-0.7-3.4-4.9-5.3-8.1-4.3c-5.7,1.8-7.3,7.4-7.2,11.8
		c0.1,3.4,1.8,7.5,4.5,9.7c1.8,1.5,4.4,2,6.7,0.8c1.8-0.9,3-2.3,3.7-4l1.4,0.6l0.7-3.8l-1.5-0.4l-4.6-1.3l-0.6,2.8l0.2,0.1l1,0.5
		c-0.5,1.3-1.5,2.4-2.9,2.1c-2.1-0.5-3.2-2.2-3.3-4.3C-880.7,33.6-880.1,30.8-877.8,29.6z"/>
	<path class="st6" d="M-885.9,33.3c1.8,0.1,3.6,0.3,5.4,0.5c0.3-1.7,1.1-3.4,2.6-4.2c1.6-0.8,3.1,0.1,3.7,1.5
		c1.5-0.2,4.7,0.1,4.8,0.1c0.2-0.6,0.3-1.2,0.5-1.9c0.2-0.9,0.4-1.7,0.5-2.6c-0.2-0.1-2-0.3-2-0.3c0,0-0.2-0.7-0.2-0.7
		c-0.7-3.4-4.9-5.3-8.1-4.3c-5.7,1.8-7.3,7.4-7.2,11.8C-885.9,33.3-885.9,33.3-885.9,33.3z"/>
	<path class="st4" d="M-878.6,22.1c0.5-0.2,1.1-0.2,1.7-0.2c2.4,0,5.3,1.7,5.9,4.4l0,0c0.1,0.8,0.3,0.9,0.4,1c0.1,0,0.1,0,0.4,0.1
		c0.2,0,0.8,0.1,1.2,0.2l0,0.1c-0.1,0.7-0.5,3.5-0.5,3.5c0.2-0.6,0.3-1.2,0.5-1.9c0.2-0.9,0.4-1.7,0.5-2.6c-0.2-0.1-2-0.3-2-0.3
		c0,0-0.2-0.7-0.2-0.7c-0.7-3.4-4.9-5.3-8.1-4.3c-4.8,1.5-6.7,5.7-7.1,9.7C-885.9,31.8-884.8,24-878.6,22.1z"/>
	<polygon class="st4" points="-875.6,37.2 -875.1,34.8 -869,36.5 -874.7,35.3 	"/>
	<path class="st4" d="M-880.4,33.3c0,0-1.2,4.8,2,6.6c2.9,1.6,4-1.7,4-1.7s-0.5,3.6-3.9,2.2C-881.6,39-880.7,34.5-880.4,33.3z"/>
	<path class="st6" d="M-874.8,43.2c-0.1-0.1-0.6,0.1-1.4,0.2c-0.7,0.1-1.6,0-2.2-0.1c-0.1,0-0.3-0.1-0.5-0.2c-0.1,0-0.2-0.1-0.3-0.1
		c-0.1-0.1-0.2-0.1-0.4-0.2c-0.5-0.3-1-0.6-1.5-1.1c-0.5-0.4-0.9-1-1.3-1.5c-0.1-0.1-0.2-0.2-0.3-0.4c-0.1-0.1-0.1-0.2-0.2-0.4
		c-0.1-0.2-0.2-0.4-0.3-0.6c-0.7-1.4-1-1.5-1.2-1.4c-0.1,0-0.4,0,0.5,1.8c0.2,0.4,0.5,1,0.9,1.5c0.4,0.5,0.8,1,1.3,1.5
		c1,0.9,2.2,1.5,3.2,1.7c0.5,0.1,1.5,0.2,2.4,0C-875.3,43.8-874.7,43.3-874.8,43.2z M-885.2,35.6c0.1-0.1,0.6,0.1,0.8,0.8
		c0.2,0.7-0.1,0.7-0.4,0.5c-0.3-0.4-0.4-0.7-0.5-0.9C-885.3,35.7-885.3,35.6-885.2,35.6z"/>
</g>
<g>
	<path class="st0" d="M-811.6,26.4c-1.3-0.9-2.5-1.8-3.9-2.4c-1.5-0.6-3-1-4.6-1.2c-3.5-0.4-7.2,0.1-10.5,1.5
		c-1,0.4-0.8,1.2-0.7,2.1c0.1,1.1,0.1,2.1,0.4,3.2c0.3,1.2,0.8,5.3,1.9,17.4c0.9,0.6,2.3,1.3,4.2,1.7c1.1,0.2,2.2,0.3,3.6,0.1
		c3.6-0.3,6.5-0.5,9.4-2.5c0.7-0.5,3.3-2.4,4.5-5.9C-804.8,32.8-811.5,26.4-811.6,26.4C-811.6,26.4-811.6,26.4-811.6,26.4z
		 M-819.6,36.9c-0.1,0.1-0.1,0.2-0.2,0.3c-0.1-0.7-0.2-1.4-0.4-2.1c0.3,0.1,0.8,0.1,0.8,0.5C-819.3,36.1-819.4,36.5-819.6,36.9
		C-819.6,37-819.4,36.4-819.6,36.9z"/>
	<path class="st1" d="M-822.6,22.6c-0.9,0-1.8,0.1-2.7,0.2c-1.9,0.3-3.8,0.8-5.5,1.5c-0.4,0.2-0.7,0.6-0.6,1.1
		c0.8,7.2,1.6,14.3,2.4,21.5c0.8,0,6.8,0.2,11-0.5c1.7-0.3,2.9-0.7,3.9-1.2c1.1-0.5,1.9-1.1,2.2-1.3c3.3-2.5,4.8-7.2,3.5-11.5
		C-810.1,26.2-815.4,22.6-822.6,22.6z M-821.4,38.2l-1-5.2c1.4,0.2,2.4,0.8,2.8,1.8c0.3,0.6,0.3,1.4-0.1,2.1
		c-0.3,0.7-0.8,1.1-1.5,1.3C-821.1,38.2-821.3,38.2-821.4,38.2z"/>
	<path class="st2" d="M-809.3,32.5c-2-7.1-9.1-9.6-15.8-8.7c-1.8,0.2-3.6,0.7-5.2,1.4l0.9,7.7c0.5,4.2,1,8.5,1.6,12.7
		c3.5,0.1,6.3,0,8.3-0.2c1.8-0.2,3.4-0.4,5.2-1.3c0.7-0.3,1.4-0.7,2-1.2C-809.3,40.6-808.3,36.2-809.3,32.5z M-820.8,39.2
		c-0.5,0.1-1,0-1.5-0.1l-1.3-7.2c2-0.1,4.1,0.4,5.1,2.4C-817.7,36.2-818.7,38.7-820.8,39.2z"/>
	<path class="st6" d="M-829.2,35.5c2-0.3,4.1-0.4,6.2-0.5l-0.6-3.1c2-0.1,4.1,0.4,5.1,2.4c0.1,0.3,0.2,0.5,0.3,0.8
		c3.2,0.2,6.3,0.7,9.3,1.3c0.1-1.3,0-2.7-0.3-3.9c-2-7.1-9.1-9.6-15.8-8.7c-1.8,0.2-3.6,0.7-5.2,1.4l0.9,7.7L-829.2,35.5z"/>
	<path class="st4" d="M-825.1,23.8c-1.8,0.2-3.6,0.7-5.2,1.4l0.9,7.7l-0.2-6.4c1.5-0.6,3-1,4.6-1.2c0.8-0.1,1.7-0.2,2.5-0.2
		c6.4,0,11.4,2.8,12.9,8.1c0.3,0.9,0.4,1.4,0.6,3.3c0.1-1.3,0-2.7-0.3-3.9C-811.4,25.4-818.4,22.9-825.1,23.8z"/>
	<path class="st4" d="M-823.5,32.7l1.2,6.4c0,0,1.5,0.6,2.9-0.7c1.4-1.3,1-3.4,1-3.4s1.3,3.8-2.2,4.7c-0.8,0.2-2.1,0-2.1,0
		L-823.5,32.7z"/>
	<path class="st6" d="M-820.1,44.4c0,0.2,0.5,0.4,1.2,0.3c0.7,0,1.5-0.2,2-0.3c0.5-0.2,1.6-0.6,2.7-1.1c1.1-0.6,2-1.4,2.5-2
		c0.2-0.3,0.4-0.5,0.5-0.7c0.1-0.2,0.1-0.4,0.1-0.5c0-0.3-0.2-0.3-0.2-0.4c-0.1-0.1-0.2-0.1-0.4,0c-0.1,0.1-0.3,0.4-0.8,1
		c-0.5,0.6-1.3,1.2-2.1,1.7c-0.9,0.5-1.8,0.9-2.5,1.1c-0.4,0.1-1.1,0.3-1.7,0.5C-819.6,44-820.1,44.2-820.1,44.4z M-811.2,38
		c0.1,0,0.3,0,0.4,0.2c0.1,0.1,0.3,0.4,0.2,0.7c-0.2,0.7-0.7,0.4-0.8,0.1c-0.1-0.4-0.2-0.6-0.1-0.8C-811.4,38.1-811.3,38-811.2,38z"
		/>
</g>
<g>
	<path class="st0" d="M-799.5,46.4c0.1,0.2,0.3,0.5,0.5,0.7c0.1,0.2,0.3,0.5,0.5,0.7c0.2,0.3,0.5,0.4,0.9,0.4c0.2,0,0.5,0,0.7,0
		c1.2,0,2.3,0,3.5,0c2.4,0,4.8,0,7.3,0c0.4,0,0.8,0,1.1-0.4c0.4-0.4,0.3-0.9,0.3-1.4c0-1.3,0.1-2.5,0.1-3.8c0-0.2,0-0.4-0.1-0.5
		c-0.2-0.5-0.7-0.7-1.1-1c-0.5-0.4-1-0.7-1.6-0.7c-0.7,0-1.3,0-2,0c-0.2,0-0.5,0-0.7,0c-0.2,0-0.1-0.3-0.1-0.5c0-0.1,0-0.3,0-0.4
		c1.1,0,2.2,0.1,3.3,0.1c0.4,0,0.9,0.1,1.2,0c0.6-0.2,0.7-0.8,0.8-1.4c0.1-1.3,0.2-2.5,0.4-3.8c0-0.2,0-0.3,0-0.5
		c-0.1-0.6-0.5-0.7-0.9-1c-0.3-0.3-0.7-0.5-1-0.7c-0.2-0.2-0.5-0.2-0.7-0.2c-0.6,0-1.3,0-1.9-0.1c-0.2,0-1.1,0.1-1.1-0.1
		c0-0.1,0-0.6,0-0.6c0.1,0,0.3,0,0.4,0c0.6,0,1.2,0,1.8,0c1,0,2.1,0.1,3.2,0c1.4-0.2,1-2,1-2.9c0-1.3,0-2.6-0.1-3.8
		c0-0.6-0.2-1-0.7-1.4c-0.3-0.2-0.7-0.5-1-0.7c-0.3-0.2-0.5-0.3-0.8-0.3c-1.9,0.2-3.8,0.3-5.7,0.5c-2.6,0.2-5.3,0.4-7.9,0.7
		c-0.5,0-1.5,0-1.8,0.5c-0.2,0.4-0.1,1,0,1.4c0.5,5.1,1,10.2,1.5,15.3c0.1,1.3,0.3,2.6,0.4,3.9C-799.8,44.9-799.9,45.9-799.5,46.4
		C-799.4,46.4-799.6,46.2-799.5,46.4z"/>
	<path class="st1" d="M-798.9,46.6h11.7c0.4,0,0.8-0.3,0.8-0.8l0.1-4.6c0-0.2-0.1-0.4-0.2-0.6c-0.1-0.2-0.3-0.2-0.6-0.2l-4.7-0.1
		l-0.1-2.4l4.5,0.2c0.4,0,0.8-0.3,0.8-0.7l0.4-4.4c0-0.2,0-0.4-0.2-0.6c-0.1-0.2-0.4-0.3-0.6-0.3l-4.9-0.2v-2.3h5.6
		c0.2,0,0.4-0.1,0.6-0.2c0.1-0.2,0.2-0.4,0.2-0.6l-0.1-6c0-0.2-0.1-0.4-0.3-0.6c-0.2-0.2-0.4-0.2-0.6-0.2l-14.8,1.3
		c-0.2,0-0.4,0.1-0.5,0.3c-0.1,0.2-0.2,0.4-0.2,0.6l2.1,21.7C-799.7,46.3-799.3,46.6-798.9,46.6z"/>
	<polygon class="st2" points="-786.2,22.8 -786.1,28.8 -792.5,28.8 -792.5,32.6 -786.8,32.9 -787.3,37.2 -792.6,37 -792.5,41.1 
		-787,41.2 -787.1,45.8 -798.9,45.8 -801,24.1 	"/>
	<path class="st6" d="M-799,37.1c1.8,0.2,3.5,0.3,5.4,0c1.3-0.2,2.7-0.5,4.4-1.1c0.7-0.2,1.5-0.5,2.1-0.7l0.2-2.4l-5.7-0.2v-3.8h6.4
		l-0.1-6l-14.8,1.3l1.3,12.9C-799.5,37-799.3,37-799,37.1z"/>
	<path class="st4" d="M-792.7,33l5.6,0.3c0,0,0,0.7,0.1,2l0.2-2.4l-5.7-0.2V29L-792.7,33z"/>
	<polygon class="st4" points="-800.4,24.9 -786.7,23.6 -786.1,28.8 -786.2,22.8 -801,24.1 -800.2,32.2 	"/>
	<polygon class="st4" points="-792.6,37 -792.5,41.1 -787,41.2 -787.1,43 -787.4,41.6 -792.9,41.4 	"/>
	<path class="st6" d="M-788.2,45.5c0-0.3-2.7-0.6-4.1-0.7l-5.3-0.3l-0.1-1.8c-0.1-1.8-0.5-2-0.6-2c-0.2,0-0.4-0.1-0.2,2l0.2,2.5
		l6,0.4C-791.3,45.7-788.2,45.8-788.2,45.5z M-798.5,38.4c0.1-0.1,0.6,0.2,0.6,1c0,0.8-0.4,0.7-0.5,0.4
		C-798.9,38.9-798.7,38.5-798.5,38.4z"/>
</g>
<g>
	<path class="st0" d="M-777.2,47.4c0.5,0.8,1.9,0.6,2.6,0.6c1.4,0.1,2.8,0.2,4.3,0.2c0.5,0,1,0.1,1.6,0.1c0.4,0,0.9,0.1,1.2-0.3
		c0.4-0.3,0.4-0.8,0.4-1.2c0-0.6,0-1.1,0.1-1.7c0.1-1.6,0.1-3.2,0.2-4.8c0.1,0,0.4,0,0.4,0.1c0,0.2,0,0.3,0.1,0.5
		c0.1,0.6,0.1,1.3,0.2,1.9c0.1,0.7,0.2,1.4,0.2,2.1c0,0.3,0,0.7,0.1,1c0.1,0.2,0.2,0.4,0.3,0.6c0.3,0.4,0.5,0.7,0.7,0.9
		c0.5,0.6,0.8,0.8,1.4,0.8c1.2-0.1,2.4-0.2,3.7-0.2c1-0.1,1.9-0.1,2.9-0.2c0.7,0,1.2-0.7,1-1.4c0-0.1-0.1-0.3-0.1-0.4
		c-0.5-1.8-0.9-3.6-1.4-5.5c-1.4-5.3-2.7-10.5-4.1-15.8c-0.2-0.7-0.3-1.3-0.5-2c0-0.1-0.1-0.2-0.1-0.4c-0.1-0.5-0.6-0.8-1-1
		c-0.4-0.3-0.9-0.8-1.4-0.8c-0.3,0-0.6,0-0.9,0c-1.3,0-2.6-0.1-3.9-0.1c-1.3,0-2.6-0.1-3.9-0.1c-0.6,0-1.6-0.2-1.8,0.7
		c-0.2,1.4-0.4,2.8-0.6,4.2c-0.7,5.5-1.5,11-2.2,16.4c-0.1,1.1-0.3,2.2-0.4,3.3c0,0.2,0,0.3-0.1,0.5c-0.1,0.4,0.3,0.8,0.5,1.1
		C-777.6,46.8-777.4,47.1-777.2,47.4z"/>
	<path class="st1" d="M-777.6,46.3l7.9,0.4c0,0,0,0,0,0c0.2,0,0.4-0.1,0.5-0.2c0.2-0.1,0.3-0.3,0.3-0.6l0.3-7.3l1.8,0.1l0.8,7
		c0,0.4,0.4,0.7,0.8,0.7l6.8-0.4c0.2,0,0.5-0.1,0.6-0.3c0.1-0.2,0.2-0.4,0.1-0.7l-6.2-24c-0.1-0.4-0.4-0.6-0.8-0.6l-9.7-0.2
		c-0.4,0-0.8,0.3-0.8,0.7l-3.3,24.5c0,0.2,0,0.4,0.2,0.6C-778,46.2-777.8,46.3-777.6,46.3z M-767.5,31.8l-0.7,0l0.1-3.2h0.2
		L-767.5,31.8z"/>
	<path class="st2" d="M-765.1,45.7l6.8-0.4l-6.2-24l-9.7-0.2l-3.3,24.5l7.9,0.4l0.3-8.1l3.3,0.3L-765.1,45.7z M-769.1,32.6l0.2-4.8
		h1.7l0.5,4.8L-769.1,32.6z"/>
	<path class="st6" d="M-774.6,35.8c0.8,0.3,3,0.9,4.5,1.1c0.8,0.2,1.7,0.3,2.5,0.4c0.3,0,0.7,0.1,1,0.1c0.1,0,0.2,0,0.2,0
		c0.1,0,0.2,0,0.3,0c1.9,0.1,3.8,0,5.7-0.2l-4.1-16l-9.7-0.2l-1.9,14.2C-775.6,35.4-775.1,35.6-774.6,35.8z M-768.9,27.8h1.7
		l0.5,4.8l-2.5,0L-768.9,27.8z"/>
	<polygon class="st4" points="-767.1,28 -766.6,32.6 -769.1,32.6 -768.9,28 -769.2,33 -766.4,33.1 	"/>
	<path class="st4" d="M-773.8,22.2l8.9,0.2c0,0,2.8,9.2,3.1,9.2l-2.7-10.3l-9.7-0.2l-1.4,10.7C-775.5,31.8-773.8,22.2-773.8,22.2z"
		/>
	<path class="st6" d="M-775.3,44.8c0,0.3,2,0.6,3,0.6c0.3,0,0.7,0,1.2,0c0.1,0,0.3,0,0.4,0c0.1,0,0.1,0,0.2,0h0.1c0,0,0.1,0,0.1,0
		l0,0l0,0c0.1,0,0.1,0,0.2-0.1c0,0,0,0,0.1-0.2c0-0.1,0-0.9-0.4-0.1l0,0l0,0c0,0,0,0,0.1-0.1c0.1,0,0.2-0.1,0.2,0c0,0,0,0.1,0,0.1v0
		v-0.1l0-0.2c0-0.1,0-0.3,0-0.4c0.1-1.1,0.1-2.3,0.2-2.9c0.1-1.3-0.2-1.5-0.4-1.5c-0.2,0-0.4-0.1-0.5,1.5c0,0.8-0.1,1.9-0.2,2.9
		c0,0.3,0,0.5,0,0.8v0c0,0,0,0,0,0.1c0,0.1,0,0.1,0,0.1c0,0.1,0,0,0,0.1c0.2-0.1-0.3,0.2,0.3-0.2l0,0c0,0,0,0,0,0c0,0,0-0.1,0-0.1
		l0-0.2c0-0.1,0-0.1,0-0.1h0h0l0,0h-0.2c-0.1,0-0.2,0-0.4,0c-0.5,0-0.9,0-1.3,0C-773.1,44.5-775.3,44.5-775.3,44.8z M-770.1,38.1
		c0.1,0,0.6,0.2,0.5,0.8c0,0.6-0.4,0.5-0.6,0.2C-770.5,38.4-770.3,38.1-770.1,38.1z"/>
	<path class="st6" d="M-764.7,45.1c0,0.3,2.1,0.3,3.2,0.2c0.3,0,0.7-0.1,1.2-0.1c0.3,0,0.6,0,1-0.1c0.1,0,0.3,0,0.4,0l0.2,0
		c0,0,0-0.1,0-0.2c-0.1-0.3-0.1-0.5-0.2-0.8c-0.3-1.2-0.6-2.3-0.8-3c-0.4-1.4-0.7-1.4-0.9-1.4c-0.2,0-0.4,0,0,1.6
		c0.2,0.8,0.5,1.9,0.7,3l0,0.1c0,0,0,0,0,0c-0.2,0-0.4,0-0.5,0c-0.5,0-1,0.1-1.3,0.1C-762.3,44.5-764.7,44.8-764.7,45.1z M-761,38
		c0.1-0.1,0.6,0.1,0.7,0.7c0.1,0.6-0.3,0.6-0.5,0.4C-761.3,38.5-761.1,38.1-761,38z"/>
</g>
<g>
	<path class="st0" d="M-730.5,24.7c-1.3-0.9-2.5-1.8-3.9-2.4c-1.5-0.6-3-1-4.6-1.2c-3.5-0.4-7.2,0.1-10.5,1.5
		c-1,0.4-0.8,1.2-0.7,2.1c0.1,1.1,0.1,2.1,0.4,3.2c0.3,1.2,0.8,5.3,1.9,17.4c0.9,0.6,2.3,1.3,4.2,1.7c1.1,0.2,2.2,0.3,3.6,0.1
		c3.6-0.3,6.5-0.5,9.4-2.5c0.7-0.5,3.3-2.4,4.5-5.9C-723.7,31.1-730.5,24.7-730.5,24.7C-730.5,24.7-730.5,24.7-730.5,24.7z
		 M-738.5,35.2c-0.1,0.1-0.1,0.2-0.2,0.3c-0.1-0.7-0.2-1.4-0.4-2.1c0.3,0.1,0.8,0.1,0.8,0.5C-738.2,34.4-738.3,34.8-738.5,35.2
		C-738.6,35.3-738.3,34.8-738.5,35.2z"/>
	<path class="st1" d="M-741.5,20.9c-0.9,0-1.8,0.1-2.7,0.2c-1.9,0.3-3.8,0.8-5.5,1.5c-0.4,0.2-0.7,0.6-0.6,1.1
		c0.8,7.2,1.6,14.3,2.4,21.5c0.8,0,6.8,0.2,11-0.5c1.7-0.3,2.9-0.7,3.9-1.2c1.1-0.5,1.9-1.1,2.2-1.3c3.3-2.5,4.8-7.2,3.5-11.5
		C-729,24.5-734.3,20.9-741.5,20.9z M-740.3,36.5l-1-5.2c1.4,0.2,2.4,0.8,2.8,1.8c0.3,0.6,0.3,1.4-0.1,2.1c-0.3,0.7-0.8,1.1-1.5,1.3
		C-740.1,36.5-740.2,36.5-740.3,36.5z"/>
	<path class="st2" d="M-728.3,30.8c-2-7.1-9.1-9.6-15.8-8.7c-1.8,0.2-3.6,0.7-5.2,1.4l0.9,7.7c0.5,4.2,1,8.5,1.6,12.7
		c3.5,0.1,6.3,0,8.3-0.2c1.8-0.2,3.4-0.4,5.2-1.3c0.7-0.3,1.3-0.7,2-1.2C-728.2,38.9-727.2,34.5-728.3,30.8z M-739.7,37.5
		c-0.5,0.1-1,0-1.5-0.1l-1.3-7.2c2-0.1,4.1,0.4,5.1,2.4C-736.6,34.5-737.7,37-739.7,37.5z"/>
	<path class="st6" d="M-748.1,33.8c2-0.3,4.1-0.4,6.2-0.5l-0.6-3.1c2-0.1,4.1,0.4,5.1,2.4c0.1,0.3,0.2,0.5,0.3,0.8
		c3.2,0.2,6.3,0.7,9.3,1.3c0.1-1.3,0-2.7-0.3-3.9c-2-7.1-9.1-9.6-15.8-8.7c-1.8,0.2-3.6,0.7-5.2,1.4l0.9,7.7L-748.1,33.8z"/>
	<path class="st4" d="M-744,22.1c-1.8,0.2-3.6,0.7-5.2,1.4l0.9,7.7l-0.2-6.4c1.5-0.6,3-1,4.6-1.2c0.8-0.1,1.7-0.2,2.5-0.2
		c6.4,0,11.4,2.8,12.9,8.1c0.3,0.9,0.4,1.4,0.6,3.3c0.1-1.3,0-2.7-0.3-3.9C-730.3,23.7-737.4,21.2-744,22.1z"/>
	<path class="st4" d="M-742.4,31l1.2,6.4c0,0,1.5,0.6,2.9-0.7c1.4-1.3,1-3.4,1-3.4s1.3,3.8-2.2,4.7c-0.8,0.2-2.1,0-2.1,0L-742.4,31z
		"/>
	<path class="st6" d="M-739,42.7c0,0.2,0.5,0.4,1.2,0.3c0.7,0,1.5-0.2,2-0.3c0.5-0.2,1.6-0.6,2.7-1.1c1.1-0.6,2-1.4,2.5-2
		c0.2-0.3,0.4-0.5,0.5-0.7c0.1-0.2,0.1-0.4,0.1-0.5c0-0.3-0.2-0.3-0.2-0.4c-0.1-0.1-0.2-0.1-0.4,0c-0.1,0.1-0.3,0.4-0.8,1
		c-0.5,0.6-1.3,1.2-2.1,1.7c-0.9,0.5-1.8,0.9-2.5,1.1c-0.4,0.1-1.1,0.3-1.7,0.5C-738.5,42.4-739,42.5-739,42.7z M-730.1,36.3
		c0.1,0,0.3,0,0.4,0.2c0.1,0.1,0.3,0.4,0.2,0.7c-0.2,0.7-0.7,0.4-0.8,0.1c-0.1-0.4-0.2-0.6-0.1-0.8
		C-730.4,36.4-730.2,36.3-730.1,36.3z"/>
</g>
<g>
	<path class="st0" d="M-328,37.6c1.2-0.5,1.8-0.2,2-0.1c0.9,0.5,0.9,1.9,0.9,3.3c0,1.3,0,2.2-0.4,3c0,0-0.1,0.1-0.1,0.1
		c-1,1.3-4.6,1.5-10.4,1.1c-2.8-0.2-1.3-0.2-3.7-0.3c-1.4-0.1-2-0.1-2.9-0.4c-0.8-0.3-1.6-0.5-2.2-1.2c-1.4-1.5-1-3.8-0.9-4.3
		c0.2-0.9,0.5-1.9,2.4-4.3c1-1.2,2.3-2.9,4.2-4.7c0.4-0.4,1.1-1.1,1.9-1.9c1-1,1.3-1.3,1.3-1.5c-0.2-0.5-2.4-0.1-3.2,0.1
		c-6.2,1.2-6.7,1-7.1,0.9c-2-1-2.3-5.8-0.8-7c1-0.7,3.1-0.3,4.6-0.6c0.1,0,0.6-0.2,1.3-0.3c0.2,0,0.4-0.1,0.6-0.1
		c1.6-0.2,2.4-0.4,3.3-0.2c2.1,0.4,3.9,1.8,5,3.6c1.1,1.8,1.7,4,0.9,6.1c-0.5,1.4-1.2,2.3-2.5,3.8c-2,2.3-3.6,3.2-3.4,4.2
		c0.1,0.3,0.4,0.6,1.2,1C-333,39-329.6,38.1-328,37.6z"/>
	<path class="st1" d="M-335.5,44.4c-2.1,0-4.2,0.1-6.3-0.4c-0.4-0.1-1.4-0.3-2.4-1.2c-0.4-0.3-0.8-0.7-1.1-1.4
		c-0.2-0.7-0.1-1.3,0-1.8c0.5-1.8,1.5-3.3,2.6-4.8c0.7-0.9,1.6-2,2.7-3.2c1-0.9,1.8-1.6,2.3-2.2c0.5-0.5,0.7-0.8,0.8-0.9
		c0.7-0.8,1.8-2.3,1.4-2.8c-0.2-0.3-1.3-0.1-3.5,0.3c-2.4,0.5-3.7,0.7-3.8,0.8c-0.7,0.2-1.3,0.5-2,0.3c-0.6-0.2-1-0.6-1.3-0.9
		c-0.1-0.1-0.5-0.5-0.9-1.2c-0.6-1.1-1.1-3.4-0.1-4.6c0.4-0.5,0.9-0.6,3.4-0.9c3.1-0.4,4.7-0.6,5.8-0.6c2.4-0.1,3.6-0.1,5.2,0.3
		c1.8,0.4,3.9,1,4.7,2.7c0.5,1.2,0.1,2.3-0.2,3.5c0,0-0.7,2.1-4.8,6.3c-0.1,0.1-0.1,0.1-0.1,0.1c-0.2,0.1-0.3,0.2-1.6,1.2
		c-1.7,1.4-2.6,2-2.9,2.6c-0.2,0.4-0.8,1.4-0.4,2.2c0.5,1.2,2.7,1.3,3.5,1.4c4.8,0.2,7-2.7,8.5-1.7c1.3,0.9,1.4,4.2-0.1,5.9
		c-0.2,0.2-0.4,0.3-0.5,0.4C-328.8,45.2-331.3,44.5-335.5,44.4z"/>
	<path class="st2" d="M-337.9,30.8c0.2-0.1,0.3-0.2,0.4-0.3c0.3-0.3,1.8-1.9,2.6-3c0.4-0.6,1.1-1.4,0.8-2c-0.3-0.7-2-0.5-4.3-0.2
		c-0.6,0.1-1.3,0.2-2.9,0.4c-1,0.2-1.5,0.2-1.6,0.3c-0.5,0.2-0.8,0.3-1.2,0.2c-0.3-0.1-0.6-0.3-0.8-0.5c-0.1-0.1-0.6-0.6-1-1.6
		c-0.3-0.8-0.5-1.2-0.3-1.7c0.2-0.5,0.8-0.6,1.5-0.9c2-0.7,1.7-1,3.1-1.4c1.3-0.4,2.3-0.5,3.8-0.5c2.8-0.1,4.6-0.2,6.4,0.8
		c0.8,0.4,2.2,1.1,2.6,2.6c0.3,1-0.1,1.9-0.4,2.9c-0.6,1.5-1.5,2.5-1.9,2.9c-0.4,0.4-0.5,0.4-1.3,1c-1.2,0.9-2,1.8-3.8,3.6
		c-0.7,0.7-1.1,1.1-1.3,1.4c-1,1.2-2,2.4-1.7,3.4c0.4,1.3,3.2,1.9,6.9,1.6c0.5,0,1.4,0,2.3-0.2c1.6-0.4,2.3-1,3-0.6
		c0.5,0.3,0.6,0.9,0.8,1.8c0.1,0.4,0.3,1.4,0.1,2c-0.5,1.3-2.9,0.7-9,1.2c0,0-1.3,0.1-3.9,0.1c-1.4,0-2.1-0.1-2.9-0.4
		c-0.6-0.2-1.5-0.6-2.1-1.5c-0.8-1.2-0.5-2.7-0.4-3c0.2-0.9,0.7-1.5,1.1-2.1c0.6-0.7,1.2-1.3,1.7-2.4
		C-341.6,34.4-342.1,33.9-337.9,30.8z"/>
	<path class="st6" d="M-337.1,29.7c0.6-0.4,1.5-1,2.2-2.2c0.5-0.8,1-1.5,0.8-2c-0.2-0.5-1.1-0.6-4.3-0.2c-1.4,0.2-3.3,0.5-5.6,1
		c-0.2-0.1-1.5-0.7-1.8-2.1c-0.4-1.8,1.2-3.2,1.3-3.2c0.2-0.2,0.8-0.5,4-1c0.7-0.1,1.6-0.2,2.8-0.3c3-0.1,7.5-0.3,8.8,2
		c0.4,0.7,0.3,1.3,0.3,2.1c-0.2,3.3-2.9,5.4-3.7,6c-0.6-0.1-1.2-0.2-1.9-0.2C-335.4,29.5-336.3,29.6-337.1,29.7z"/>
	<g>
		<path class="st4" d="M-328.7,23c-0.3-0.4-0.8-0.9-1.5-1.4c-2.4-1.7-5-1.5-9-1.1c-4.6,0.5-5.6,1.5-6,2.1c-0.4,0.6-0.6,1.2-0.7,1.6
			c-0.7-1.5-0.5-2.3-0.3-2.6c0.2-0.3,0.7-1.2,6.5-1.8c2.1-0.2,3.1-0.3,4.6-0.2c2.2,0.2,5.2,0.4,6.1,2.2
			C-328.8,22.2-328.7,22.7-328.7,23z"/>
	</g>
	<path class="st4" d="M-335.8,29c-0.8,1-1.2,1.3-2.7,2.7c-1.5,1.4-2.5,2.7-3.2,3.4c-1.5,1.8-2.3,3.1-2.4,3c-0.1-0.1,0.5-1.1,1-1.9
		c0.8-1.2,1.5-2.1,2.2-2.8c1.5-1.7,2.2-2.2,3.8-3.8c0.7-0.6,1.6-1.6,2.7-2.9C-334.7,27.3-335.2,28.1-335.8,29z"/>
	<path class="st4" d="M-338.8,38.8c-0.2-0.3-0.3-0.7-0.3-0.7c-0.3-1.2,0.8-2.4,1-2.6c-0.6,0.7-0.8,1.7-0.5,2.4
		c0.2,0.4,0.5,0.7,0.7,0.8c0.4,0.2,0.9,0.3,1.5,0.5c1.3,0.3,2.4,0.4,3.3,0.4C-333.5,39.8-337.7,40.3-338.8,38.8z"/>
	<path class="st6" d="M-334.5,43.2c-0.3,0-1.2,0.1-3.1,0.1c-1.7,0-2,0.1-2.6,0c-1.2-0.1-1.9-0.2-2.6-0.7c-0.7-0.5-1-1.3-1.2-1.7
		c0.8,0.7,1.5,1.1,2.1,1.3c0.1,0,0.3,0.1,1.2,0.2c0.6,0.1,1.3,0.2,2.4,0.3c0.7,0.1,1.9,0.2,3.6,0.1c0.9,0,2-0.1,3.4-0.2
		C-332.1,42.7-333.2,43-334.5,43.2z M-344.1,39.4C-344.1,39.4-344.1,39.4-344.1,39.4c-0.1,0.4,0,0.9,0.1,0.9c0.1,0,0.3-0.2,0.3-0.2
		c0.1-0.2,0.1-0.4,0.1-0.7c0-0.7,0.1-1,0-1C-343.6,38.3-344,38.8-344.1,39.4z"/>
</g>
<g>
	<path class="st0" d="M-311.9,19.7c-3.8,0-7.5,1.8-9.6,5c-1,1.5-1.6,3.3-1.7,5.1c-0.1,2.3,0.6,4.5,1.9,6.4c0.6,0.8,1.1,1.7,1.8,2.4
		c0.7,0.7,1.5,1.3,2.3,1.7c1.8,1,3.9,1.6,6.1,1.6c3.8,0.1,7.7-1.3,10.2-4.3c2.5-3,3-7.3,1.3-10.9c-0.5-1-1.1-1.8-1.8-2.6
		c-0.8-0.9-1.9-1.5-2.9-2.2c-1.9-1.3-4.2-2-6.4-2.2C-311.1,19.7-311.5,19.7-311.9,19.7z M-313.2,34.5c-0.5,0-1.1-0.1-1.6-0.3
		c-0.5-0.2-0.8-0.7-1-1.2c-0.4-0.9-0.4-1.8-0.1-2.7c0.6-1.7,2.4-2.8,4.2-2.7c0.5,0,1,0.1,1.4,0.3c0.4,0.2,1.1,0.5,1.2,0.9
		c0.4,0.9,0.4,1.9,0,2.9C-309.7,33.4-311.4,34.5-313.2,34.5z"/>
	<path class="st1" d="M-323.3,30.3c0,5.7,4.9,10,11.4,10c6.5,0,11.7-4.5,11.8-10.2c0-2.8-0.9-5.2-2.7-7.1c-2.1-2.2-5.4-3.4-9.1-3.4
		C-318.2,19.7-323.3,24.5-323.3,30.3z M-313.2,26.2c2.4,0,4.4,1.9,4.4,4.2c0,2.3-2,4.2-4.4,4.2c-2.4,0-4.4-1.9-4.4-4.2
		C-317.5,28-315.6,26.2-313.2,26.2z"/>
	<path class="st2" d="M-311.9,20.4c-5.9,0-10.6,4.4-10.6,9.9c0,5.5,4.8,9.3,10.6,9.3c5.9,0,11-4,11-9.4
		C-300.8,23.8-306,20.4-311.9,20.4z M-313.2,35.3c-2.8,0-5.1-2.2-5.1-4.9c0-2.7,2.3-4.9,5.1-4.9c2.8,0,5.1,2.2,5.1,4.9
		C-308,33.1-310.3,35.3-313.2,35.3z"/>
	<g class="st3">
		<path class="st2" d="M-321.9,32.4c1.6,0.4,3.2,0.9,4.8,1.1c-0.8-0.9-1.2-2-1.2-3.2c0-2.7,2.3-4.9,5.1-4.9c2.8,0,5.1,2.2,5.1,4.9
			c0,0.9-0.2,1.7-0.7,2.4c2.6-0.9,5.2-2,7.8-3c-0.1-6.1-5.3-9.3-11-9.3c-5.9,0-10.6,4.4-10.6,9.9c0,0.7,0.1,1.3,0.2,1.9
			C-322.2,32.3-322.1,32.4-321.9,32.4z"/>
	</g>
	<g>
		<path class="st4" d="M-311.9,21.3c5.5,0,10.4,2.9,11,8.5c0,0,0,0,0.1,0c-0.1-6.1-5.3-9.3-11-9.3c-5.9,0-10.6,4.4-10.6,9.9
			c0,0.1,0,0.3,0,0.4C-322.3,25.5-317.6,21.3-311.9,21.3z"/>
	</g>
	<path class="st4" d="M-317.9,32.3c0,0,1.4,3,4.7,3c3.3,0,4.6-2.9,5-4c0,0-0.3,4.6-5.3,4.3C-317.2,35.4-317.9,32.3-317.9,32.3z"/>
	<path class="st5" d="M-315.4,38.2c-0.1,0.1,0.6,0.5,1.4,0.7c0.9,0.2,2,0.3,2.7,0.3c0.8,0,2.3-0.2,3.8-0.9c0.8-0.3,1.5-0.7,2.1-1.1
		c0.6-0.4,1.1-0.8,1.5-1.2c0.7-0.6,0.9-1.1,1.1-1.4c0.1-0.3,0-0.4,0-0.4c-0.1-0.1-0.1-0.1-0.3,0c-0.1,0.1-0.2,0.2-0.4,0.4
		c-0.1,0.1-0.2,0.2-0.4,0.4c-0.1,0.1-0.3,0.3-0.5,0.5c-0.2,0.2-0.4,0.4-0.6,0.6c-0.2,0.2-0.5,0.4-0.8,0.6c-0.6,0.4-1.2,0.7-1.8,1
		c-1.3,0.6-2.7,0.8-3.6,0.8c-0.3,0-0.6,0-1.1,0c-0.2,0-0.4,0-0.7,0c-0.2,0-0.5,0-0.7-0.1C-314.6,38.3-315.3,38.1-315.4,38.2z
		 M-301.9,32.2c0.1,0,0.2,0.1,0.2,0.3c0,0.1,0,0.1,0,0.2c0,0.1,0,0.1,0,0.2c0,0.2-0.1,0.3-0.2,0.5c-0.4,0.7-0.7,0.4-0.6,0.1
		c0.1-0.2,0.1-0.5,0.1-0.6c0-0.2,0.1-0.3,0.1-0.4C-302.1,32.3-302,32.2-301.9,32.2z"/>
</g>
<g>
	<path class="st0" d="M-295.5,42.5c0.1,0.2,0.3,0.5,0.5,0.7c0.1,0.2,0.3,0.5,0.5,0.6c0.2,0.1,0.4,0.2,0.6,0.2c0.5,0.1,1,0.2,1.5,0.3
		c1.3,0.2,2.6,0.5,3.8,0.7c0.6,0.1,1.3,0,1.6-0.7c0.1-0.3,0.1-0.7,0.1-1c0.2-1.4,0.3-2.7,0.5-4.1c0.1-0.8,0.2-1.5,0.3-2.3
		c0.2,0.5,0.4,0.9,0.6,1.4c0.3,0.7,0.8,1.4,1.3,2c0.6,0.7,1.6,0.4,2-0.4c0.2-0.5,0.4-1,0.6-1.5c0.1,0.4,0.1,0.9,0.2,1.3
		c0.1,0.7,0.1,1.4,0.2,2c0,0.1,0,0.2,0,0.4c0,0.3,0.2,0.5,0.4,0.8c0.1,0.1,0.9,1.3,1.1,1.4c0.2,0.1,0.5,0.2,0.7,0.1
		c2.4-0.2,4.8-0.4,7.1-0.6c0.9-0.1,2.1-0.1,1.9-1.4c-0.1-0.5-0.1-1-0.2-1.5c-0.3-2.5-0.6-4.9-0.9-7.4c-0.3-2.8-0.7-5.7-1-8.5
		c-0.1-1-0.2-1.9-0.3-2.9c0-0.4,0-0.9-0.2-1.3c-0.2-0.5-0.7-0.8-1.2-1.1c-0.3-0.2-0.7-0.6-1.2-0.7c-0.3,0-0.7,0-1-0.1
		c-1.4-0.1-2.8-0.2-4.2-0.3c-0.7,0-2.3-0.5-2.6,0.4c-0.4,1.1-0.8,2.2-1.2,3.3c-0.1,0.2-0.2,0.5-0.3,0.7c-0.1-0.5-0.3-1-0.5-1.5
		c-0.1-0.5-0.2-1.2-0.6-1.6c-0.2-0.2-0.4-0.4-0.6-0.5c-0.2-0.2-0.5-0.4-0.7-0.5c-0.2-0.2-0.6-0.4-0.9-0.4c-0.5,0-1.1,0-1.6,0
		c-0.7,0-1.4,0-2.1,0c-0.5,0-1.1,0-1.3,0.6c-0.1,0.4-0.1,0.8-0.2,1.2c-0.9,5.2-1.7,10.4-2.5,15.5c-0.2,1.3-0.4,2.6-0.6,3.8
		C-295.8,41-296.1,41.8-295.5,42.5C-295.4,42.6-295.5,42.4-295.5,42.5z"/>
	<path class="st1" d="M-295.2,42.4l5.7,1.1c0,0,0.1,0,0.1,0c0.2,0,0.3-0.1,0.5-0.2c0.2-0.1,0.3-0.3,0.3-0.6l1.1-9l2.2,5
		c0.1,0.3,0.4,0.5,0.7,0.5h0c0.3,0,0.6-0.2,0.7-0.5l1.8-4.3l0.9,7.8c0,0.4,0.4,0.7,0.9,0.7l8.1-0.6c0.2,0,0.4-0.1,0.6-0.3
		c0.1-0.2,0.2-0.4,0.2-0.6l-2.5-21.4c0-0.4-0.4-0.7-0.8-0.7l-7-0.4c-0.4,0-0.7,0.2-0.8,0.5l-2.1,5.9l-1.8-5.8
		c-0.1-0.3-0.4-0.6-0.8-0.6h-4.3c-0.4,0-0.7,0.3-0.8,0.7l-3.6,21.7C-296,41.9-295.7,42.4-295.2,42.4z"/>
	<polygon class="st2" points="-289.3,42.7 -295.1,41.6 -291.5,19.9 -287.2,19.9 -284.7,28 -281.8,19.8 -274.7,20.2 -272.3,41.6 
		-280.4,42.3 -281.6,31.4 -284.6,38.5 -287.9,30.7 	"/>
	<path class="st6" d="M-292.1,29.5c3.4,0.8,6.8,1.8,10.2,2.1c0.1,0,0.2,0,0.2,0l0.1-0.2l0,0.2c2.7,0.2,5.4-0.1,8-0.7l-1.2-10.6
		l-7-0.4l-2.9,8.2l-2.5-8.1h-4.3l-1.5,9.4C-292.7,29.3-292.4,29.4-292.1,29.5z"/>
	<path class="st4" d="M-274.7,20.2l-7-0.4l-2.9,8.2l-2.5-8.1h-4.3l-1,6.2l1.4-5.4h3.6l2.8,8.3l3.3-8.4l6.3,0.7c0,0,1.5,9.6,1.7,9.5
		L-274.7,20.2z"/>
	<path class="st7" d="M-293.3,41.3c0,0.2,0.4,0.4,1,0.5c0.3,0.1,0.6,0.2,1,0.2c0.2,0,0.3,0.1,0.5,0.1c0.2,0,0.2,0,0.6,0.1l0.7,0.1
		l0.5-5.8c0.1-1.3-0.2-1.5-0.4-1.5c-0.2,0-0.4-0.1-0.5,1.4l-0.4,4.9c-0.2,0-0.4-0.1-0.7-0.1c-0.3,0-0.7-0.1-1-0.1
		C-292.7,41.2-293.3,41.2-293.3,41.3z M-289.4,33.5c0.2,0,0.5,0.3,0.5,0.8c-0.1,0.6-0.5,0.4-0.6,0.2
		C-289.8,33.8-289.5,33.5-289.4,33.5z"/>
	<path class="st7" d="M-278.9,41.4c0,0.3,2.2,0.2,3.4,0l2.6-0.4l-0.4-4.6c-0.1-1.5-0.4-1.6-0.6-1.6c-0.2,0-0.4-0.1-0.2,1.7l0.3,3.8
		l-1.8,0.2C-276.4,40.7-278.9,41.1-278.9,41.4z M-274.1,33c0.1,0,0.6,0.2,0.6,0.8c0,0.6-0.4,0.6-0.5,0.3
		C-274.4,33.4-274.2,33.1-274.1,33z"/>
</g>
<g>
	<path class="st0" d="M-266.3,43.4c0.1,0.2,0.3,0.5,0.5,0.7c0.1,0.2,0.3,0.5,0.5,0.6c0.5,0.4,1.3,0.4,1.9,0.5
		c1.3,0.2,2.5,0.3,3.8,0.4c2.2,0.1,4.5,0.1,6.6-0.6c2.5-0.7,4.6-2.4,5.1-5.1c0.3-1.5,0.1-3-0.4-4.5c-0.4-1-0.9-1.8-1.6-2.6
		c-0.8-0.9-1.8-1.5-2.7-2.1c1.1-1.8,1.4-4,0.4-5.9c-1-1.8-2.7-2.9-4.3-4c-1.8-1.3-4.2-1.5-6.4-1.2c-0.6,0.1-1.2,0.2-1.8,0.4
		c-0.5,0.1-1.4,0.3-1.7,0.8c-0.1,0.2-0.1,0.4-0.1,0.5c0,1.7,0,3.3,0,5c0,5-0.1,10-0.1,14.9C-266.7,42-266.9,42.8-266.3,43.4
		C-266.3,43.5-266.4,43.3-266.3,43.4z M-259.9,27.9c0-0.2,0-0.3,0-0.5c0.2,0,0.2,0,0.2,0.2C-259.8,27.7-259.9,27.8-259.9,27.9z
		 M-257.9,37.3c-0.1,0.5-0.7,0.8-1.1,1c0-0.5-0.1-1-0.1-1.6c0.3,0,0.6,0,0.8,0.1C-258,36.9-257.8,37-257.9,37.3
		C-258.1,37.7-257.9,37.2-257.9,37.3z"/>
	<path class="st1" d="M-266.1,43.3c1.8,0.4,3.6,0.6,5.2,0.7c0.6,0,1.1,0.1,1.7,0.1c8,0,9.8-3.7,9.9-6.7c0.1-3.1-1.9-6.5-5.2-7.5
		c0.7-0.9,1.4-2.3,1.3-3.9c-0.1-1.9-1.3-3.7-3.6-5.2c-1.6-1.1-3.7-1.5-6.1-1.1c-1,0.1-2.1,0.4-3.2,0.8c-0.3,0.1-0.5,0.4-0.5,0.7
		l-0.2,21.5C-266.7,43-266.4,43.3-266.1,43.3z M-261.5,25.8c1.8,0.1,1.8,1,1.8,1.4c0,0.7-0.5,1.3-1.5,1.5L-261.5,25.8z M-257.9,37.3
		c-0.2,0.6-1.1,1.1-2.5,1.3c-0.1-1.1-0.2-2.2-0.3-3.4c0.9,0,1.6,0.2,2,0.5C-258.2,36.1-257.8,36.8-257.9,37.3z"/>
	<path class="st2" d="M-255.9,30.3c0,0,5.3-4.6-1.2-9c-1.6-1.1-3.5-1.3-5.6-1c-1,0.2-2,0.4-3,0.8c0,5.1-0.1,15.6-0.2,21.5
		c1.4,0.3,3.2,0.5,5.1,0.7c5,0.3,10.6-0.6,10.8-5.9C-250,34.1-252.4,30.6-255.9,30.3z M-259,27.2c0,1.7-1.7,2.3-3,2.5
		c-0.1-1.6-0.3-3.2-0.4-4.6C-260.9,25-259,25.3-259,27.2z M-261.1,39.5c-0.1-1.6-0.3-3.3-0.4-5c1.1-0.1,2.4,0,3.3,0.6
		C-256.7,36.2-256,39.1-261.1,39.5z"/>
	<g class="st8">
		<path class="st2" d="M-259.3,31.5c2.4-0.1,4.8,0,7.1,0.7c0,0,0,0,0.1,0c-1-1-2.3-1.7-3.8-1.8c0,0,5.3-4.6-1.2-9
			c-1.6-1.1-3.5-1.3-5.6-1c-1,0.2-2,0.4-3,0.8c0,2.7-0.1,6.9-0.1,11.2C-263.7,31.9-261.5,31.6-259.3,31.5z M-259,27.2
			c0,1.7-1.7,2.3-3,2.5c-0.1-1.6-0.3-3.2-0.4-4.6C-260.9,25-259,25.3-259,27.2z"/>
	</g>
	<g>
		<path class="st9" d="M-257.4,22.3c1.9,1.3,2.9,2.8,3,4.3c0.1,2.3-1.8,4-1.9,4l0,0c0.5,0,1.1,0.1,1.6,0.2c0.6,0.1,1.1,0.3,1.7,0.5
			c-0.8-0.6-1.8-1-2.9-1.1c0,0,5.3-4.6-1.2-9c-1.6-1.1-3.5-1.3-5.6-1c-1,0.2-2,0.4-3,0.8c0,1.8,0,4.3-0.1,7c0,1.3,0.5-6.1,0.5-6.1
			c0.9-0.3,1.8-0.5,2.7-0.7c0.5-0.1,1.1-0.1,1.6-0.1C-259.7,21.3-258.4,21.6-257.4,22.3z"/>
	</g>
	<g>
		<path class="st9" d="M-259.5,25.8c0.3,0.3,0.5,0.8,0.5,1.4c0,1.7-1.7,2.3-3,2.5c-0.1-1.6-0.3-3.1-0.4-4.4h0l0.2,4.8l0.5-0.1
			c2.2-0.3,2.9-1.1,2.9-2.6C-258.8,26.8-258.9,26.4-259.5,25.8z"/>
	</g>
	<path class="st6" d="M-264,42c0,0.1,0.2,0.2,0.5,0.3c0.2,0.1,0.4,0.1,0.6,0.2c0.2,0.1,0.5,0.1,0.7,0.2c0.5,0.1,1.1,0.2,1.7,0.2
		c0.3,0,0.6,0,0.8,0c0.3,0,0.5,0,0.7,0c0.9,0,2.8-0.2,4.6-0.8c0.5-0.2,0.9-0.4,1.4-0.7c0.4-0.3,0.8-0.6,1.1-1c0.6-0.7,0.9-1.5,1-2.1
		c0.1-0.6,0.2-1,0.1-1.4c0-0.3-0.1-0.6-0.1-0.8c-0.1-0.3-0.2-0.4-0.3-0.4c-0.1,0-0.2,0-0.2,0.2c0,0.2,0,0.4-0.1,0.7
		c0,0.3-0.1,0.8-0.2,1.4c-0.1,0.6-0.4,1.3-0.9,1.9c-0.2,0.3-0.6,0.5-0.9,0.8c-0.3,0.2-0.7,0.4-1.1,0.5c-1.6,0.6-3.3,0.8-4.5,0.8
		c-0.3,0-0.8,0-1.3,0c-0.3,0-0.5,0-0.8,0c-0.3,0-0.6,0-0.8,0c-0.5,0-1-0.1-1.4-0.1C-263.8,41.9-264,42-264,42z M-252,33.2
		c0.1-0.1,0.6,0.1,1,1.1c0.1,0.5,0.1,0.7,0,0.8c-0.1,0.1-0.3,0-0.4-0.2c-0.3-0.5-0.5-0.9-0.6-1.1C-252.1,33.4-252.1,33.3-252,33.2z"
		/>
</g>
<g>
	<path class="st0" d="M-243.3,18.9c-0.3,0.3-0.2,0.8-0.2,1.1c0,0.6,0,1.2,0,1.8c0,1.1,0,2.2,0.1,3.3c0,0.3,0.1,0.5,0.3,0.7
		c0.3,0.4,0.6,1.1,1,1.4c0.5,0.4,1.3,0.2,1.8,0.2c0.3,0,0.3,0,0.3,0.3c0,0.4,0,0.9,0.1,1.4c0.1,2.3,0.2,4.6,0.3,6.9
		c0,0.2-0.6,0.1-0.8,0.1c-0.5,0-1.1,0.1-1.6,0.1c-0.7,0-0.7,0.6-0.7,1.2c0.1,0.5,0.1,1.1,0.2,1.6c0.1,1.1,0.3,2.3,0.4,3.4
		c0,0.3,0.2,0.4,0.3,0.7c0.2,0.2,0.3,0.5,0.5,0.7c0.2,0.2,0.3,0.5,0.5,0.7c0.4,0.3,0.8,0.2,1.2,0.2c2.4-0.3,4.8-0.6,7.2-1
		c0.6-0.1,1.3-0.1,1.9-0.3c0.9-0.4,0.6-1.9,0.6-2.7c0-1,0-2-0.1-2.9c0-0.8-0.8-1-1.3-1.5c-0.2-0.2-0.7-0.6-1-0.5c-0.2,0-0.4,0-0.6,0
		c0.1-2.1,0.1-4.2,0.2-6.4c0-0.5,0-1,0.1-1.5c0-0.1-0.1-0.5,0.1-0.5c0.6,0,1.1,0,1.7,0c0.7,0,1.1-0.6,1.1-1.3c0-1.1,0-2.2-0.1-3.3
		c0-0.6,0-1.2,0-1.8c0-0.4,0-0.8-0.2-1.1c-0.1-0.2-1.6-1.3-2-1.4c-0.2,0-0.4,0-0.6,0c-1.1,0-2.2,0-3.2,0c-1.6,0-3.1,0-4.7,0
		c-0.5,0-1.1,0-1.6,0C-242.7,18.6-243.1,18.6-243.3,18.9C-243.5,19-243.2,18.7-243.3,18.9z"/>
	<path class="st1" d="M-243.3,18.9c-0.1,0.1-0.2,0.3-0.2,0.5l0.1,5.7c0,0.4,0.3,0.8,0.8,0.8h2.6l0.4,10.2l-2.4,0.1
		c-0.2,0-0.4,0.1-0.5,0.3c-0.1,0.2-0.2,0.4-0.2,0.6l0.6,5.4c0,0.2,0.1,0.4,0.3,0.5c0.1,0.1,0.3,0.2,0.5,0.2c0,0,0.1,0,0.1,0l9.1-1.2
		c0.4,0,0.7-0.4,0.7-0.8l-0.1-4.7c0-0.2-0.1-0.4-0.2-0.5c-0.2-0.1-0.4-0.2-0.6-0.2l-2.2,0.1l0.3-9.9h2.1h0c0.4,0,0.8-0.3,0.8-0.8
		c0,0,0-0.1,0-0.1l-0.1-5.7c0-0.4-0.3-0.8-0.8-0.8l-10.5,0.1C-243,18.6-243.2,18.7-243.3,18.9z"/>
	<polygon class="st2" points="-235.4,36.6 -235,25.1 -232.2,25.1 -232.3,19.3 -242.8,19.4 -242.7,25.1 -239.4,25.1 -238.9,36.8 
		-242,37 -241.4,42.4 -232.3,41.2 -232.4,36.5 	"/>
	<g class="st3">
		<path class="st2" d="M-239.4,25.1l0.2,4.6c1.3,0.1,2.6,0.2,4,0.3l0.2-4.9h2.8l-0.1-5.8l-10.5,0.1l0.1,5.7H-239.4z"/>
	</g>
	<g>
		<polygon class="st4" points="-242.3,20.2 -232.4,20.1 -232.2,22.2 -232.3,19.3 -242.8,19.4 -242.7,23.3 		"/>
	</g>
	<polygon class="st4" points="-238.9,36 -238.7,37.2 -241.6,37.5 -241.5,41 -242,37 -238.9,36.8 	"/>
	<polygon class="st4" points="-235.4,36 -235.5,36.9 -232.5,36.8 -232.3,40.9 -232.4,36.5 -235.4,36.6 	"/>
	<path class="st5" d="M-241,41.6c0,0.3,1.8,0.2,2.7,0c0.9-0.1,3.9-0.6,5-0.8c0.2,0,0.5-0.1,0.7-0.1c0-0.2,0-0.4,0-0.6
		c0-0.1,0-0.1,0-0.2c0,0,0-0.1,0-0.1c0-0.1-0.1-0.2-0.1-0.3c-0.1-0.1-0.2-0.2-0.3-0.2c-0.1,0-0.1,0-0.2,0.1c0,0.1-0.1,0.1-0.1,0.3
		c0,0.1,0,0.2,0,0.3c0,0,0,0,0,0c0,0,0,0,0,0c-1.4,0.2-3.8,0.6-5,0.8C-239.1,41-241.1,41.3-241,41.6z M-233.1,37.9
		c0.1,0,0.5,0.2,0.5,0.7c0,0.5-0.4,0.4-0.5,0.2C-233.4,38.2-233.2,38-233.1,37.9z"/>
</g>
<g>
	<path class="st0" d="M-221.5,41.7c0.1,0.2,0.3,0.5,0.5,0.7c0.1,0.2,0.3,0.5,0.5,0.7c0.2,0.3,0.5,0.4,0.9,0.4c0.2,0,0.5,0,0.7,0
		c1.2,0,2.3,0,3.5,0c2.4,0,4.8,0,7.3,0c0.4,0,0.8,0,1.1-0.4c0.4-0.4,0.3-0.9,0.3-1.4c0-1.3,0.1-2.5,0.1-3.8c0-0.2,0-0.4-0.1-0.5
		c-0.2-0.5-0.7-0.7-1.1-1c-0.5-0.4-1-0.7-1.6-0.7c-0.7,0-1.3,0-2,0c-0.2,0-0.5,0-0.7,0c-0.2,0-0.1-0.3-0.1-0.5c0-0.1,0-0.3,0-0.4
		c1.1,0,2.2,0.1,3.3,0.1c0.4,0,0.9,0.1,1.2,0c0.6-0.2,0.7-0.8,0.8-1.4c0.1-1.3,0.2-2.5,0.4-3.8c0-0.2,0-0.3,0-0.5
		c-0.1-0.6-0.5-0.7-0.9-1c-0.3-0.3-0.7-0.5-1-0.7c-0.2-0.2-0.5-0.2-0.7-0.2c-0.6,0-1.3,0-1.9-0.1c-0.2,0-1.1,0.1-1.1-0.1
		c0-0.1,0-0.6,0-0.6c0.1,0,0.3,0,0.4,0c0.6,0,1.2,0,1.8,0c1,0,2.1,0.1,3.2,0c1.4-0.2,1-2,1-2.9c0-1.3,0-2.6-0.1-3.8
		c0-0.6-0.2-1-0.7-1.4c-0.3-0.2-0.7-0.5-1-0.7c-0.3-0.2-0.5-0.3-0.8-0.3c-1.9,0.2-3.8,0.3-5.7,0.5c-2.6,0.2-5.3,0.4-7.9,0.7
		c-0.5,0-1.5,0-1.8,0.5c-0.2,0.4-0.1,1,0,1.4c0.5,5.1,1,10.2,1.5,15.3c0.1,1.3,0.3,2.6,0.4,3.9C-221.9,40.3-221.9,41.3-221.5,41.7
		C-221.5,41.8-221.7,41.6-221.5,41.7z"/>
	<path class="st1" d="M-221,41.9h11.7c0.4,0,0.8-0.3,0.8-0.8l0.1-4.6c0-0.2-0.1-0.4-0.2-0.6c-0.1-0.2-0.3-0.2-0.6-0.2l-4.7-0.1
		l-0.1-2.4l4.5,0.2c0.4,0,0.8-0.3,0.8-0.7l0.4-4.4c0-0.2,0-0.4-0.2-0.6c-0.1-0.2-0.4-0.3-0.6-0.3l-4.9-0.2v-2.3h5.6
		c0.2,0,0.4-0.1,0.6-0.2c0.1-0.2,0.2-0.4,0.2-0.6l-0.1-6c0-0.2-0.1-0.4-0.3-0.6c-0.2-0.2-0.4-0.2-0.6-0.2l-14.8,1.3
		c-0.2,0-0.4,0.1-0.5,0.3c-0.1,0.2-0.2,0.4-0.2,0.6l2.1,21.7C-221.7,41.6-221.4,41.9-221,41.9z"/>
	<polygon class="st2" points="-208.3,18.2 -208.2,24.1 -214.6,24.1 -214.6,28 -208.9,28.2 -209.3,32.6 -214.7,32.4 -214.6,36.4 
		-209.1,36.5 -209.2,41.1 -221,41.1 -223.1,19.4 	"/>
	<path class="st6" d="M-221.1,32.4c1.8,0.2,3.5,0.3,5.4,0c1.3-0.2,2.7-0.5,4.4-1.1c0.7-0.2,1.5-0.5,2.1-0.7l0.2-2.4l-5.7-0.2v-3.8
		h6.4l-0.1-6l-14.8,1.3l1.3,12.9C-221.6,32.4-221.4,32.4-221.1,32.4z"/>
	<path class="st4" d="M-214.8,28.3l5.6,0.3c0,0,0,0.7,0.1,2l0.2-2.4l-5.7-0.2v-3.7L-214.8,28.3z"/>
	<polygon class="st4" points="-222.4,20.3 -208.8,18.9 -208.2,24.1 -208.3,18.2 -223.1,19.4 -222.3,27.6 	"/>
	<polygon class="st4" points="-214.7,32.4 -214.6,36.4 -209.1,36.5 -209.2,38.4 -209.5,37 -214.9,36.7 	"/>
	<path class="st6" d="M-210.3,40.8c0-0.3-2.7-0.6-4.1-0.7l-5.3-0.3l-0.1-1.8c-0.1-1.8-0.5-2-0.6-2c-0.2,0-0.4-0.1-0.2,2l0.2,2.5
		l6,0.4C-213.4,41-210.3,41.2-210.3,40.8z M-220.6,33.7c0.1-0.1,0.6,0.2,0.6,1c0,0.8-0.4,0.7-0.5,0.4
		C-221,34.2-220.8,33.8-220.6,33.7z"/>
</g>
<g>
	<path class="st0" d="M-428.4,24.7c-1.3-0.9-2.5-1.8-3.9-2.4c-1.5-0.6-3-1-4.6-1.2c-3.5-0.4-7.2,0.1-10.5,1.5
		c-1,0.4-0.8,1.2-0.7,2.1c0.1,1.1,0.1,2.1,0.4,3.2c0.3,1.2,0.8,5.3,1.9,17.4c0.9,0.6,2.3,1.3,4.2,1.7c1.1,0.2,2.2,0.3,3.6,0.1
		c3.6-0.3,6.5-0.5,9.4-2.5c0.7-0.5,3.3-2.4,4.5-5.9C-421.6,31-428.3,24.7-428.4,24.7C-428.4,24.7-428.4,24.7-428.4,24.7z
		 M-436.4,35.2c-0.1,0.1-0.1,0.2-0.2,0.3c-0.1-0.7-0.2-1.4-0.4-2.1c0.3,0.1,0.8,0.1,0.8,0.5C-436.1,34.4-436.2,34.8-436.4,35.2
		C-436.4,35.3-436.2,34.7-436.4,35.2z"/>
	<path class="st1" d="M-439.4,20.8c-0.9,0-1.8,0.1-2.7,0.2c-1.9,0.3-3.8,0.8-5.5,1.5c-0.4,0.2-0.7,0.6-0.6,1.1
		c0.8,7.2,1.6,14.3,2.4,21.5c0.8,0,6.8,0.2,11-0.5c1.7-0.3,2.9-0.7,3.9-1.2c1.1-0.5,1.9-1.1,2.2-1.3c3.3-2.5,4.8-7.2,3.5-11.5
		C-426.9,24.5-432.2,20.8-439.4,20.8z M-438.2,36.5l-1-5.2c1.4,0.2,2.4,0.8,2.8,1.8c0.3,0.6,0.3,1.4-0.1,2.1
		c-0.3,0.7-0.8,1.1-1.5,1.3C-437.9,36.5-438.1,36.5-438.2,36.5z"/>
	<path class="st2" d="M-426.1,30.8c-2-7.1-9.1-9.6-15.8-8.7c-1.8,0.2-3.6,0.7-5.2,1.4l0.9,7.7c0.5,4.2,1,8.5,1.6,12.7
		c3.5,0.1,6.3,0,8.3-0.2c1.8-0.2,3.4-0.4,5.2-1.3c0.7-0.3,1.4-0.7,2-1.2C-426.1,38.9-425.1,34.5-426.1,30.8z M-437.6,37.5
		c-0.5,0.1-1,0-1.5-0.1l-1.3-7.2c2-0.1,4.1,0.4,5.1,2.4C-434.5,34.5-435.5,37-437.6,37.5z"/>
	<path class="st6" d="M-446,33.8c2-0.3,4.1-0.4,6.2-0.5l-0.6-3.1c2-0.1,4.1,0.4,5.1,2.4c0.1,0.3,0.2,0.5,0.3,0.8
		c3.2,0.2,6.3,0.7,9.3,1.3c0.1-1.3,0-2.7-0.3-3.9c-2-7.1-9.1-9.6-15.8-8.7c-1.8,0.2-3.6,0.7-5.2,1.4l0.9,7.7L-446,33.8z"/>
	<path class="st4" d="M-441.9,22.1c-1.8,0.2-3.6,0.7-5.2,1.4l0.9,7.7l-0.2-6.4c1.5-0.6,3-1,4.6-1.2c0.8-0.1,1.7-0.2,2.5-0.2
		c6.4,0,11.4,2.8,12.9,8.1c0.3,0.9,0.4,1.4,0.6,3.3c0.1-1.3,0-2.7-0.3-3.9C-428.2,23.7-435.2,21.2-441.9,22.1z"/>
	<path class="st4" d="M-440.3,30.9l1.2,6.4c0,0,1.5,0.6,2.9-0.7c1.4-1.3,1-3.4,1-3.4s1.3,3.8-2.2,4.7c-0.8,0.2-2.1,0-2.1,0
		L-440.3,30.9z"/>
	<path class="st6" d="M-436.9,42.7c0,0.2,0.5,0.4,1.2,0.3c0.7,0,1.5-0.2,2-0.3c0.5-0.2,1.6-0.6,2.7-1.1c1.1-0.6,2-1.4,2.5-2
		c0.2-0.3,0.4-0.5,0.5-0.7c0.1-0.2,0.1-0.4,0.1-0.5c0-0.3-0.2-0.3-0.2-0.4c-0.1-0.1-0.2-0.1-0.4,0c-0.1,0.1-0.3,0.4-0.8,1
		c-0.5,0.6-1.3,1.2-2.1,1.7c-0.9,0.5-1.8,0.9-2.5,1.1c-0.4,0.1-1.1,0.3-1.7,0.5C-436.4,42.3-436.9,42.4-436.9,42.7z M-428,36.3
		c0.1,0,0.3,0,0.4,0.2c0.1,0.1,0.3,0.4,0.2,0.7c-0.2,0.7-0.7,0.4-0.8,0.1c-0.1-0.4-0.2-0.6-0.1-0.8C-428.2,36.4-428.1,36.3-428,36.3
		z"/>
</g>
<g>
	<path class="st0" d="M-410.9,21.7c-3.8,0-7.5,1.8-9.6,5c-1,1.5-1.6,3.3-1.7,5.1c-0.1,2.3,0.6,4.5,1.9,6.4c0.6,0.8,1.1,1.7,1.8,2.4
		c0.7,0.7,1.5,1.3,2.3,1.7c1.8,1,3.9,1.6,6.1,1.6c3.8,0.1,7.7-1.3,10.2-4.3c2.5-3,3-7.3,1.3-10.9c-0.5-1-1.1-1.8-1.8-2.6
		c-0.8-0.9-1.9-1.5-2.9-2.2c-1.9-1.3-4.2-2-6.4-2.2C-410.1,21.7-410.5,21.7-410.9,21.7z M-412.1,36.5c-0.5,0-1.1-0.1-1.6-0.3
		c-0.5-0.2-0.8-0.7-1-1.2c-0.4-0.9-0.4-1.8-0.1-2.7c0.6-1.7,2.4-2.8,4.2-2.7c0.5,0,1,0.1,1.4,0.3c0.4,0.2,1.1,0.5,1.2,0.9
		c0.4,0.9,0.4,1.9,0,2.9C-408.6,35.5-410.3,36.5-412.1,36.5z"/>
	<path class="st1" d="M-422.3,32.4c0,5.7,4.9,10,11.4,10c6.5,0,11.7-4.5,11.8-10.2c0-2.8-0.9-5.2-2.7-7.1c-2.1-2.2-5.4-3.4-9.1-3.4
		C-417.1,21.7-422.3,26.5-422.3,32.4z M-412.1,28.2c2.4,0,4.4,1.9,4.4,4.2c0,2.3-2,4.2-4.4,4.2c-2.4,0-4.4-1.9-4.4-4.2
		C-416.5,30.1-414.5,28.2-412.1,28.2z"/>
	<path class="st2" d="M-410.9,22.5c-5.9,0-10.6,4.4-10.6,9.9c0,5.5,4.8,9.3,10.6,9.3c5.9,0,11-4,11-9.4
		C-399.7,25.8-405,22.5-410.9,22.5z M-412.1,37.3c-2.8,0-5.1-2.2-5.1-4.9c0-2.7,2.3-4.9,5.1-4.9c2.8,0,5.1,2.2,5.1,4.9
		C-407,35.1-409.3,37.3-412.1,37.3z"/>
	<g class="st3">
		<path class="st2" d="M-420.9,34.4c1.6,0.4,3.2,0.9,4.8,1.1c-0.8-0.9-1.2-2-1.2-3.2c0-2.7,2.3-4.9,5.1-4.9c2.8,0,5.1,2.2,5.1,4.9
			c0,0.9-0.2,1.7-0.7,2.4c2.6-0.9,5.2-2,7.8-3c-0.1-6.1-5.3-9.3-11-9.3c-5.9,0-10.6,4.4-10.6,9.9c0,0.7,0.1,1.3,0.2,1.9
			C-421.1,34.3-421,34.4-420.9,34.4z"/>
	</g>
	<g>
		<path class="st4" d="M-410.9,23.3c5.5,0,10.4,2.9,11,8.5c0,0,0,0,0.1,0c-0.1-6.1-5.3-9.3-11-9.3c-5.9,0-10.6,4.4-10.6,9.9
			c0,0.1,0,0.3,0,0.4C-421.3,27.5-416.6,23.3-410.9,23.3z"/>
	</g>
	<path class="st4" d="M-416.8,34.3c0,0,1.4,3,4.7,3c3.3,0,4.6-2.9,5-4c0,0-0.3,4.6-5.3,4.3C-416.1,37.4-416.8,34.3-416.8,34.3z"/>
	<path class="st5" d="M-414.3,40.2c-0.1,0.1,0.6,0.5,1.4,0.7c0.9,0.2,2,0.3,2.7,0.3c0.8,0,2.3-0.2,3.8-0.9c0.8-0.3,1.5-0.7,2.1-1.1
		c0.6-0.4,1.1-0.8,1.5-1.2c0.7-0.6,0.9-1.1,1.1-1.4c0.1-0.3,0-0.4,0-0.4c-0.1-0.1-0.1-0.1-0.3,0c-0.1,0.1-0.2,0.2-0.4,0.4
		c-0.1,0.1-0.2,0.2-0.4,0.4c-0.1,0.1-0.3,0.3-0.5,0.5c-0.2,0.2-0.4,0.4-0.6,0.6c-0.2,0.2-0.5,0.4-0.8,0.6c-0.6,0.4-1.2,0.7-1.8,1
		c-1.3,0.6-2.7,0.8-3.6,0.8c-0.3,0-0.6,0-1.1,0c-0.2,0-0.4,0-0.7,0c-0.2,0-0.5,0-0.7-0.1C-413.5,40.3-414.3,40.1-414.3,40.2z
		 M-400.8,34.2c0.1,0,0.2,0.1,0.2,0.3c0,0.1,0,0.1,0,0.2c0,0.1,0,0.1,0,0.2c0,0.2-0.1,0.3-0.2,0.5c-0.4,0.7-0.7,0.4-0.6,0.1
		c0.1-0.2,0.1-0.5,0.1-0.6c0-0.2,0.1-0.3,0.1-0.4C-401,34.3-400.9,34.2-400.8,34.2z"/>
</g>
<g>
	<path class="st0" d="M-395.6,32.7c0.1,2.3,0.7,4.6,1.8,6.6c0.5,1,1.2,1.9,1.9,2.8c0.7,1,1.5,1.9,2.5,2.6c1.9,1.3,4.4,1.7,6.6,0.9
		c1-0.4,2-1,2.8-1.7c0.4-0.3,0.7-0.7,1-1.1c0.2-0.2,0.3-0.4,0.4-0.6c0.1-0.2,0.2-0.5,0.4-0.4c0.4,0.2,0.7,0.3,1.1,0.2
		c0.4-0.1,0.6-0.4,0.7-0.8c0.1-0.5,0.2-0.9,0.2-1.4c0.1-0.6,0.2-1.2,0.3-1.9c0.1-0.5,0.2-1-0.1-1.4c-0.3-0.3-0.7-0.5-1.1-0.7
		c-0.2-0.2-0.4-0.4-0.7-0.5c-0.3-0.1-0.7-0.2-1-0.3c-1.2-0.4-2.4-0.7-3.7-1.1c-0.7-0.2-2.1-0.9-2.3,0.2c-0.1,0.5-0.2,1-0.3,1.6
		c-0.1,0.4-0.2,0.9-0.3,1.3c0,0.4,0.3,0.6,0.6,0.8c0.1,0.1,0.2,0.3,0.2,0.4c0,0.1-0.4,0.4-0.5,0.5c-0.4,0.3-0.9,0.3-1.3,0.2
		c-0.5-0.1-0.7-0.8-0.8-1.2c-0.4-1.3-0.2-3,0.2-4.3c0.3-0.8,0.7-1.5,1.3-2c0.3-0.3,0.8-0.5,1.2-0.5c0.3,0,0.5,0.1,0.7,0.2
		c0.2,0.2,0.3,0.3,0.5,0.5c0.2,0.4,0.5,0.9,0.9,1c0.2,0.1,1.3,0.1,1.8,0.1c1,0,1.8,0,2.8,0.1c0.4,0,0.7,0.1,1.1-0.2
		c0.4-0.3,0.5-1,0.6-1.5c0.3-1.1,0.5-2.2,0.7-3.3c0.1-0.4,0.1-0.7-0.1-1c-0.2-0.4-0.9-0.8-1.3-1c-0.3-0.2-0.2-0.2-0.7-0.3
		c-0.2,0-0.2,0-0.3-0.2c0-0.1-0.1-0.2-0.1-0.4c-0.1-0.3-0.3-0.5-0.4-0.8c-0.6-0.9-1.4-1.6-2.2-2.2c-0.9-0.7-1.8-1.3-2.9-1.7
		c-2.1-0.7-4.3-0.4-6.3,0.6c-2.8,1.4-4.6,4-5.4,6.9C-395.5,29.4-395.7,31-395.6,32.7C-395.5,35.6-395.7,30.3-395.6,32.7z"/>
	<path class="st1" d="M-395.6,32.7c0.1,3.8,2.1,8,4.7,10.2c1.3,1,2.8,1.6,4.4,1.6c1.1,0,2.1-0.2,3.1-0.7c1.6-0.8,2.9-2.1,3.7-3.7
		l0.7,0.3c0.2,0.1,0.4,0.1,0.6,0c0.2-0.1,0.3-0.3,0.4-0.5l0.7-3.8c0.1-0.4-0.2-0.7-0.5-0.8l-6.1-1.8c-0.2-0.1-0.4,0-0.6,0.1
		c-0.2,0.1-0.3,0.3-0.3,0.5l-0.6,2.8c-0.1,0.3,0.1,0.7,0.4,0.8l0.6,0.3c-0.4,0.7-1,1.2-1.8,1c-1.6-0.4-2.7-1.7-2.7-3.6
		c0-1,0-4.4,2.4-5.7c0.3-0.1,0.6-0.2,0.9-0.2c0.7,0,1.4,0.5,1.8,1.4c0.1,0.3,0.4,0.5,0.8,0.4c0.3,0,0.7-0.1,1.2-0.1
		c1.3,0,2.8,0.1,3.3,0.2c0.1,0,0.2,0,0.2,0c0.3,0,0.6-0.2,0.7-0.5c0.2-0.6,0.3-1.2,0.5-1.9c0.2-0.7,0.3-1.5,0.4-2.2l0.1-0.5
		c0.1-0.4-0.1-0.7-0.5-0.8c-0.1-0.1-0.4-0.1-1.7-0.3c0-0.1,0-0.1,0-0.1c0,0,0,0,0,0c-0.6-3.3-4.1-5.1-7-5.1c-0.7,0-1.4,0.1-2,0.3
		C-395.4,22.4-395.7,30.3-395.6,32.7z"/>
	<path class="st2" d="M-386.9,29c1.6-0.8,3.1,0.1,3.7,1.5c1.5-0.2,4.7,0.1,4.8,0.1c0.2-0.6,0.3-1.2,0.5-1.9c0.2-0.9,0.4-1.7,0.5-2.6
		c-0.2-0.1-2-0.3-2-0.3c0,0-0.2-0.7-0.2-0.7c-0.7-3.4-4.9-5.3-8.1-4.3c-5.7,1.8-7.3,7.4-7.2,11.8c0.1,3.4,1.8,7.5,4.5,9.7
		c1.8,1.5,4.4,2,6.7,0.8c1.8-0.9,3-2.3,3.7-4l1.4,0.6l0.7-3.8l-1.5-0.4l-4.6-1.3l-0.6,2.8l0.2,0.1l1,0.5c-0.5,1.3-1.5,2.4-2.9,2.1
		c-2.1-0.5-3.2-2.2-3.3-4.3C-389.7,33.1-389.1,30.2-386.9,29z"/>
	<path class="st6" d="M-394.9,32.8c1.8,0.1,3.6,0.3,5.4,0.5c0.3-1.7,1.1-3.4,2.6-4.2c1.6-0.8,3.1,0.1,3.7,1.5
		c1.5-0.2,4.7,0.1,4.8,0.1c0.2-0.6,0.3-1.2,0.5-1.9c0.2-0.9,0.4-1.7,0.5-2.6c-0.2-0.1-2-0.3-2-0.3c0,0-0.2-0.7-0.2-0.7
		c-0.7-3.4-4.9-5.3-8.1-4.3c-5.7,1.8-7.3,7.4-7.2,11.8C-394.9,32.7-394.9,32.7-394.9,32.8z"/>
	<path class="st4" d="M-387.6,21.6c0.5-0.2,1.1-0.2,1.7-0.2c2.4,0,5.3,1.7,5.9,4.4l0,0c0.1,0.8,0.3,0.9,0.4,1c0.1,0,0.1,0,0.4,0.1
		c0.2,0,0.8,0.1,1.2,0.2l0,0.1c-0.1,0.7-0.5,3.5-0.5,3.5c0.2-0.6,0.3-1.2,0.5-1.9c0.2-0.9,0.4-1.7,0.5-2.6c-0.2-0.1-2-0.3-2-0.3
		c0,0-0.2-0.7-0.2-0.7c-0.7-3.4-4.9-5.3-8.1-4.3c-4.8,1.5-6.7,5.7-7.1,9.7C-394.9,31.3-393.8,23.5-387.6,21.6z"/>
	<polygon class="st4" points="-384.6,36.7 -384.1,34.2 -378,36 -383.7,34.7 	"/>
	<path class="st4" d="M-389.4,32.7c0,0-1.2,4.8,2,6.6c2.9,1.6,4-1.7,4-1.7s-0.5,3.6-3.9,2.2C-390.6,38.4-389.8,34-389.4,32.7z"/>
	<path class="st6" d="M-383.8,42.6c-0.1-0.1-0.6,0.1-1.4,0.2c-0.7,0.1-1.6,0-2.2-0.1c-0.1,0-0.3-0.1-0.5-0.2c-0.1,0-0.2-0.1-0.3-0.1
		c-0.1-0.1-0.2-0.1-0.4-0.2c-0.5-0.3-1-0.6-1.5-1.1c-0.5-0.4-0.9-1-1.3-1.5c-0.1-0.1-0.2-0.2-0.3-0.4c-0.1-0.1-0.1-0.2-0.2-0.4
		c-0.1-0.2-0.2-0.4-0.3-0.6c-0.7-1.4-1-1.5-1.2-1.4c-0.1,0-0.4,0,0.5,1.8c0.2,0.4,0.5,1,0.9,1.5c0.4,0.5,0.8,1,1.3,1.5
		c1,0.9,2.2,1.5,3.2,1.7c0.5,0.1,1.5,0.2,2.4,0C-384.3,43.2-383.8,42.8-383.8,42.6z M-394.2,35c0.1-0.1,0.6,0.1,0.8,0.8
		c0.2,0.7-0.1,0.7-0.4,0.5c-0.3-0.4-0.4-0.7-0.5-0.9C-394.3,35.2-394.3,35-394.2,35z"/>
</g>
<g>
	<path class="st0" d="M18.7,42.7c0.1,0.2,0.3,0.5,0.5,0.7c0.1,0.2,0.3,0.5,0.5,0.6c0.5,0.4,1.3,0.4,1.9,0.5c1.3,0.2,2.5,0.3,3.8,0.4
		c2.2,0.1,4.5,0.1,6.6-0.6c2.5-0.7,4.6-2.4,5.1-5.1c0.3-1.5,0.1-3-0.4-4.5c-0.4-1-0.9-1.8-1.6-2.6c-0.8-0.9-1.8-1.5-2.7-2.1
		c1.1-1.8,1.4-4,0.4-5.9c-1-1.8-2.7-2.9-4.3-4c-1.8-1.3-4.2-1.5-6.4-1.2c-0.6,0.1-1.2,0.2-1.8,0.4c-0.5,0.1-1.4,0.3-1.7,0.8
		c-0.1,0.2-0.1,0.4-0.1,0.5c0,1.7,0,3.3,0,5c0,5-0.1,10-0.1,14.9C18.3,41.2,18.2,42.1,18.7,42.7C18.7,42.7,18.6,42.6,18.7,42.7z
		 M25.1,27.2c0-0.2,0-0.3,0-0.5c0.2,0,0.2,0,0.2,0.2C25.2,26.9,25.1,27,25.1,27.2z M27.1,36.6c-0.1,0.5-0.7,0.8-1.1,1
		c0-0.5-0.1-1-0.1-1.6c0.3,0,0.6,0,0.8,0.1C27,36.2,27.2,36.3,27.1,36.6C27,37,27.1,36.5,27.1,36.6z"/>
	<path class="st1" d="M18.9,42.6c1.8,0.4,3.6,0.6,5.2,0.7c0.6,0,1.1,0.1,1.7,0.1c8,0,9.8-3.7,9.9-6.7c0.1-3.1-1.9-6.5-5.2-7.5
		c0.7-0.9,1.4-2.3,1.3-3.9c-0.1-1.9-1.3-3.7-3.6-5.2c-1.6-1.1-3.7-1.5-6.1-1.1c-1,0.1-2.1,0.4-3.2,0.8c-0.3,0.1-0.5,0.4-0.5,0.7
		l-0.2,21.5C18.3,42.2,18.6,42.6,18.9,42.6z M23.5,25.1c1.8,0.1,1.8,1,1.8,1.4c0,0.7-0.5,1.3-1.5,1.5L23.5,25.1z M27.1,36.6
		c-0.2,0.6-1.1,1.1-2.5,1.3c-0.1-1.1-0.2-2.2-0.3-3.4c0.9,0,1.6,0.2,2,0.5C26.8,35.4,27.2,36,27.1,36.6z"/>
	<path class="st2" d="M29.1,29.6c0,0,5.3-4.6-1.2-9c-1.6-1.1-3.5-1.3-5.6-1c-1,0.2-2,0.4-3,0.8c0,5.1-0.1,15.6-0.2,21.5
		c1.4,0.3,3.2,0.5,5.1,0.7c5,0.3,10.6-0.6,10.8-5.9C35.1,33.4,32.6,29.9,29.1,29.6z M26,26.5c0,1.7-1.7,2.3-3,2.5
		c-0.1-1.6-0.3-3.2-0.4-4.6C24.1,24.3,26,24.5,26,26.5z M23.9,38.8c-0.1-1.6-0.3-3.3-0.4-5c1.1-0.1,2.4,0,3.3,0.6
		C28.3,35.5,29,38.3,23.9,38.8z"/>
	<g class="st8">
		<path class="st2" d="M25.7,30.7c2.4-0.1,4.8,0,7.1,0.7c0,0,0,0,0.1,0c-1-1-2.3-1.7-3.8-1.8c0,0,5.3-4.6-1.2-9
			c-1.6-1.1-3.5-1.3-5.6-1c-1,0.2-2,0.4-3,0.8c0,2.7-0.1,6.9-0.1,11.2C21.3,31.2,23.5,30.9,25.7,30.7z M26,26.5c0,1.7-1.7,2.3-3,2.5
			c-0.1-1.6-0.3-3.2-0.4-4.6C24.1,24.3,26,24.5,26,26.5z"/>
	</g>
	<g>
		<path class="st9" d="M27.6,21.6c1.9,1.3,2.9,2.8,3,4.3c0.1,2.3-1.8,4-1.9,4l0,0c0.5,0,1.1,0.1,1.6,0.2c0.6,0.1,1.1,0.3,1.7,0.5
			c-0.8-0.6-1.8-1-2.9-1.1c0,0,5.3-4.6-1.2-9c-1.6-1.1-3.5-1.3-5.6-1c-1,0.2-2,0.4-3,0.8c0,1.8,0,4.3-0.1,7c0,1.3,0.5-6.1,0.5-6.1
			c0.9-0.3,1.8-0.5,2.7-0.7c0.5-0.1,1.1-0.1,1.6-0.1C25.3,20.5,26.6,20.9,27.6,21.6z"/>
	</g>
	<g>
		<path class="st9" d="M25.6,25.1c0.3,0.3,0.5,0.8,0.5,1.4c0,1.7-1.7,2.3-3,2.5c-0.1-1.6-0.3-3.1-0.4-4.4h0l0.2,4.8l0.5-0.1
			c2.2-0.3,2.9-1.1,2.9-2.6C26.2,26,26.1,25.6,25.6,25.1z"/>
	</g>
	<path class="st6" d="M21,41.3c0,0.1,0.2,0.2,0.5,0.3c0.2,0.1,0.4,0.1,0.6,0.2c0.2,0.1,0.5,0.1,0.7,0.2c0.5,0.1,1.1,0.2,1.7,0.2
		c0.3,0,0.6,0,0.8,0c0.3,0,0.5,0,0.7,0c0.9,0,2.8-0.2,4.6-0.8c0.5-0.2,0.9-0.4,1.4-0.7c0.4-0.3,0.8-0.6,1.1-1c0.6-0.7,0.9-1.5,1-2.1
		c0.1-0.6,0.2-1,0.1-1.4c0-0.3-0.1-0.6-0.1-0.8c-0.1-0.3-0.2-0.4-0.3-0.4c-0.1,0-0.2,0-0.2,0.2c0,0.2,0,0.4-0.1,0.7
		c0,0.3-0.1,0.8-0.2,1.4c-0.1,0.6-0.4,1.3-0.9,1.9c-0.2,0.3-0.6,0.5-0.9,0.8c-0.3,0.2-0.7,0.4-1.1,0.5c-1.6,0.6-3.3,0.8-4.5,0.8
		c-0.3,0-0.8,0-1.3,0c-0.3,0-0.5,0-0.8,0c-0.3,0-0.6,0-0.8,0c-0.5,0-1-0.1-1.4-0.1C21.3,41.2,21,41.2,21,41.3z M33,32.5
		c0.1-0.1,0.6,0.1,1,1.1c0.1,0.5,0.1,0.7,0,0.8c-0.1,0.1-0.3,0-0.4-0.2C33.2,33.6,33,33.2,33,33C32.9,32.7,32.9,32.5,33,32.5z"/>
</g>
<g>
	<path class="st0" d="M40.1,19.4c-0.3,0.3-0.2,0.8-0.2,1.1c0,0.6,0,1.2,0,1.8c0,1.1,0,2.2,0.1,3.3c0,0.3,0.1,0.5,0.3,0.7
		c0.3,0.4,0.6,1.1,1,1.4c0.5,0.4,1.3,0.2,1.8,0.2c0.3,0,0.3,0,0.3,0.3c0,0.4,0,0.9,0.1,1.4c0.1,2.3,0.2,4.6,0.3,6.9
		c0,0.2-0.6,0.1-0.8,0.1c-0.5,0-1.1,0.1-1.6,0.1c-0.7,0-0.7,0.6-0.7,1.2c0.1,0.5,0.1,1.1,0.2,1.6c0.1,1.1,0.3,2.3,0.4,3.4
		c0,0.3,0.2,0.4,0.3,0.7c0.2,0.2,0.3,0.5,0.5,0.7c0.2,0.2,0.3,0.5,0.5,0.7c0.4,0.3,0.8,0.2,1.2,0.2c2.4-0.3,4.8-0.6,7.2-1
		c0.6-0.1,1.3-0.1,1.9-0.3c0.9-0.4,0.6-1.9,0.6-2.7c0-1,0-2-0.1-2.9c0-0.8-0.8-1-1.3-1.5c-0.2-0.2-0.7-0.6-1-0.5c-0.2,0-0.4,0-0.6,0
		c0.1-2.1,0.1-4.2,0.2-6.4c0-0.5,0-1,0.1-1.5c0-0.1-0.1-0.5,0.1-0.5c0.6,0,1.1,0,1.7,0c0.7,0,1.1-0.6,1.1-1.3c0-1.1,0-2.2-0.1-3.3
		c0-0.6,0-1.2,0-1.8c0-0.4,0-0.8-0.2-1.1c-0.1-0.2-1.6-1.3-2-1.4c-0.2,0-0.4,0-0.6,0c-1.1,0-2.2,0-3.2,0c-1.6,0-3.1,0-4.7,0
		c-0.5,0-1.1,0-1.6,0C40.8,19.2,40.4,19.1,40.1,19.4C39.9,19.6,40.2,19.3,40.1,19.4z"/>
	<path class="st1" d="M40.1,19.4c-0.1,0.1-0.2,0.3-0.2,0.5l0.1,5.7c0,0.4,0.3,0.8,0.8,0.8h2.6l0.4,10.2l-2.4,0.1
		c-0.2,0-0.4,0.1-0.5,0.3c-0.1,0.2-0.2,0.4-0.2,0.6l0.6,5.4c0,0.2,0.1,0.4,0.3,0.5c0.1,0.1,0.3,0.2,0.5,0.2c0,0,0.1,0,0.1,0l9.1-1.2
		c0.4,0,0.7-0.4,0.7-0.8L51.8,37c0-0.2-0.1-0.4-0.2-0.5c-0.2-0.1-0.4-0.2-0.6-0.2l-2.2,0.1l0.3-9.9h2.1h0c0.4,0,0.8-0.3,0.8-0.8
		c0,0,0-0.1,0-0.1l-0.1-5.7c0-0.4-0.3-0.8-0.8-0.8l-10.5,0.1C40.4,19.2,40.2,19.3,40.1,19.4z"/>
	<polygon class="st2" points="48,37.2 48.4,25.7 51.3,25.7 51.2,19.8 40.6,20 40.7,25.7 44.1,25.7 44.6,37.4 41.4,37.5 42.1,42.9 
		51.2,41.7 51.1,37 	"/>
	<g class="st3">
		<path class="st2" d="M44.1,25.7l0.2,4.6c1.3,0.1,2.6,0.2,4,0.3l0.2-4.9h2.8l-0.1-5.8L40.6,20l0.1,5.7H44.1z"/>
	</g>
	<g>
		<polygon class="st4" points="41.1,20.7 51,20.6 51.2,22.8 51.2,19.8 40.6,20 40.7,23.9 		"/>
	</g>
	<polygon class="st4" points="44.5,36.5 44.7,37.7 41.8,38.1 41.9,41.6 41.4,37.5 44.6,37.3 	"/>
	<polygon class="st4" points="48,36.5 48,37.5 50.9,37.4 51.1,41.4 51.1,37 48.1,37.1 	"/>
	<path class="st5" d="M42.4,42.2c0,0.3,1.8,0.2,2.7,0c0.9-0.1,3.9-0.6,5-0.8c0.2,0,0.5-0.1,0.7-0.1c0-0.2,0-0.4,0-0.6
		c0-0.1,0-0.1,0-0.2c0,0,0-0.1,0-0.1c0-0.1-0.1-0.2-0.1-0.3C50.6,40,50.5,40,50.4,40c-0.1,0-0.1,0-0.2,0.1c0,0.1-0.1,0.1-0.1,0.3
		c0,0.1,0,0.2,0,0.3c0,0,0,0,0,0c0,0,0,0,0,0c-1.4,0.2-3.8,0.6-5,0.8C44.3,41.5,42.4,41.9,42.4,42.2z M50.4,38.5
		c0.1,0,0.5,0.2,0.5,0.7c0,0.5-0.4,0.4-0.5,0.2C50,38.8,50.2,38.5,50.4,38.5z"/>
</g>
<g>
	<path class="st0" d="M57.5,30.8c0.1,2.3,0.7,4.6,1.8,6.6c0.5,1,1.2,1.9,1.9,2.8c0.7,1,1.5,1.9,2.5,2.6c1.9,1.3,4.4,1.7,6.6,0.9
		c1-0.4,2-1,2.8-1.7c0.4-0.3,0.7-0.7,1-1.1c0.2-0.2,0.3-0.4,0.4-0.6c0.1-0.2,0.2-0.5,0.4-0.4c0.4,0.2,0.7,0.3,1.1,0.2
		c0.4-0.1,0.6-0.4,0.7-0.8c0.1-0.5,0.2-0.9,0.2-1.4c0.1-0.6,0.2-1.2,0.3-1.9c0.1-0.5,0.2-1-0.1-1.4c-0.3-0.3-0.7-0.5-1.1-0.7
		c-0.2-0.2-0.4-0.4-0.7-0.5c-0.3-0.1-0.7-0.2-1-0.3c-1.2-0.4-2.4-0.7-3.7-1.1c-0.7-0.2-2.1-0.9-2.3,0.2c-0.1,0.5-0.2,1-0.3,1.6
		c-0.1,0.4-0.2,0.9-0.3,1.3c0,0.4,0.3,0.6,0.6,0.8c0.1,0.1,0.2,0.3,0.2,0.4c0,0.1-0.4,0.4-0.5,0.5c-0.4,0.3-0.9,0.3-1.3,0.2
		c-0.5-0.1-0.7-0.8-0.8-1.2c-0.4-1.3-0.2-3,0.2-4.3c0.3-0.8,0.7-1.5,1.3-2c0.3-0.3,0.8-0.5,1.2-0.5c0.3,0,0.5,0.1,0.7,0.2
		c0.2,0.2,0.3,0.3,0.5,0.5c0.2,0.4,0.5,0.9,0.9,1c0.2,0.1,1.3,0.1,1.8,0.1c1,0,1.8,0,2.8,0.1c0.4,0,0.7,0.1,1.1-0.2
		c0.4-0.3,0.5-1,0.6-1.5c0.3-1.1,0.5-2.2,0.7-3.3c0.1-0.4,0.1-0.7-0.1-1c-0.2-0.4-0.9-0.8-1.3-1c-0.3-0.2-0.2-0.2-0.7-0.3
		c-0.2,0-0.2,0-0.3-0.2c0-0.1-0.1-0.2-0.1-0.4c-0.1-0.3-0.3-0.5-0.4-0.8c-0.6-0.9-1.4-1.6-2.2-2.2c-0.9-0.7-1.8-1.3-2.9-1.7
		c-2.1-0.7-4.3-0.4-6.3,0.6c-2.8,1.4-4.6,4-5.4,6.9C57.6,27.5,57.4,29.1,57.5,30.8C57.6,33.7,57.4,28.4,57.5,30.8z"/>
	<path class="st1" d="M57.5,30.8c0.1,3.8,2.1,8,4.7,10.2c1.3,1,2.8,1.6,4.4,1.6c1.1,0,2.1-0.2,3.1-0.7c1.6-0.8,2.9-2.1,3.7-3.7
		l0.7,0.3c0.2,0.1,0.4,0.1,0.6,0c0.2-0.1,0.3-0.3,0.4-0.5l0.7-3.8c0.1-0.4-0.2-0.7-0.5-0.8l-6.1-1.8c-0.2-0.1-0.4,0-0.6,0.1
		c-0.2,0.1-0.3,0.3-0.3,0.5L67.7,35c-0.1,0.3,0.1,0.7,0.4,0.8l0.6,0.3c-0.4,0.7-1,1.2-1.8,1c-1.6-0.4-2.7-1.7-2.7-3.6
		c0-1,0-4.4,2.4-5.7c0.3-0.1,0.6-0.2,0.9-0.2c0.7,0,1.4,0.5,1.8,1.4c0.1,0.3,0.4,0.5,0.8,0.4c0.3,0,0.7-0.1,1.2-0.1
		c1.3,0,2.8,0.1,3.3,0.2c0.1,0,0.2,0,0.2,0c0.3,0,0.6-0.2,0.7-0.5c0.2-0.6,0.3-1.2,0.5-1.9c0.2-0.7,0.3-1.5,0.4-2.2l0.1-0.5
		c0.1-0.4-0.1-0.7-0.5-0.8c-0.1-0.1-0.4-0.1-1.7-0.3c0-0.1,0-0.1,0-0.1c0,0,0,0,0,0c-0.6-3.3-4.1-5.1-7-5.1c-0.7,0-1.4,0.1-2,0.3
		C57.7,20.5,57.4,28.4,57.5,30.8z"/>
	<path class="st2" d="M66.2,27.1c1.6-0.8,3.1,0.1,3.7,1.5c1.5-0.2,4.7,0.1,4.8,0.1c0.2-0.6,0.3-1.2,0.5-1.9c0.2-0.9,0.4-1.7,0.5-2.6
		c-0.2-0.1-2-0.3-2-0.3c0,0-0.2-0.7-0.2-0.7c-0.7-3.4-4.9-5.3-8.1-4.3c-5.7,1.8-7.3,7.4-7.2,11.8c0.1,3.4,1.8,7.5,4.5,9.7
		c1.8,1.5,4.4,2,6.7,0.8c1.8-0.9,3-2.3,3.7-4l1.4,0.6l0.7-3.8l-1.5-0.4L69,32.3l-0.6,2.8l0.2,0.1l1,0.5c-0.5,1.3-1.5,2.4-2.9,2.1
		c-2.1-0.5-3.2-2.2-3.3-4.3C63.4,31.2,64,28.3,66.2,27.1z"/>
	<path class="st6" d="M58.2,30.9c1.8,0.1,3.6,0.3,5.4,0.5c0.3-1.7,1.1-3.4,2.6-4.2c1.6-0.8,3.1,0.1,3.7,1.5c1.5-0.2,4.7,0.1,4.8,0.1
		c0.2-0.6,0.3-1.2,0.5-1.9c0.2-0.9,0.4-1.7,0.5-2.6c-0.2-0.1-2-0.3-2-0.3c0,0-0.2-0.7-0.2-0.7c-0.7-3.4-4.9-5.3-8.1-4.3
		c-5.7,1.8-7.3,7.4-7.2,11.8C58.2,30.8,58.2,30.8,58.2,30.9z"/>
	<path class="st4" d="M65.5,19.7c0.5-0.2,1.1-0.2,1.7-0.2c2.4,0,5.3,1.7,5.9,4.4l0,0c0.1,0.8,0.3,0.9,0.4,1c0.1,0,0.1,0,0.4,0.1
		c0.2,0,0.8,0.1,1.2,0.2l0,0.1c-0.1,0.7-0.5,3.5-0.5,3.5c0.2-0.6,0.3-1.2,0.5-1.9c0.2-0.9,0.4-1.7,0.5-2.6c-0.2-0.1-2-0.3-2-0.3
		c0,0-0.2-0.7-0.2-0.7c-0.7-3.4-4.9-5.3-8.1-4.3c-4.8,1.5-6.7,5.7-7.1,9.7C58.2,29.4,59.3,21.6,65.5,19.7z"/>
	<polygon class="st4" points="68.5,34.8 69,32.3 75.1,34.1 69.4,32.8 	"/>
	<path class="st4" d="M63.7,30.8c0,0-1.2,4.8,2,6.6c2.9,1.6,4-1.7,4-1.7s-0.5,3.6-3.9,2.2C62.5,36.5,63.3,32.1,63.7,30.8z"/>
	<path class="st6" d="M69.3,40.8c-0.1-0.1-0.6,0.1-1.4,0.2c-0.7,0.1-1.6,0-2.2-0.1c-0.1,0-0.3-0.1-0.5-0.2c-0.1,0-0.2-0.1-0.3-0.1
		c-0.1-0.1-0.2-0.1-0.4-0.2c-0.5-0.3-1-0.6-1.5-1.1c-0.5-0.4-0.9-1-1.3-1.5c-0.1-0.1-0.2-0.2-0.3-0.4c-0.1-0.1-0.1-0.2-0.2-0.4
		c-0.1-0.2-0.2-0.4-0.3-0.6c-0.7-1.4-1-1.5-1.2-1.4c-0.1,0-0.4,0,0.5,1.8c0.2,0.4,0.5,1,0.9,1.5c0.4,0.5,0.8,1,1.3,1.5
		c1,0.9,2.2,1.5,3.2,1.7c0.5,0.1,1.5,0.2,2.4,0C68.8,41.3,69.4,40.9,69.3,40.8z M58.9,33.1c0.1-0.1,0.6,0.1,0.8,0.8
		c0.2,0.7-0.1,0.7-0.4,0.5c-0.3-0.4-0.4-0.7-0.5-0.9C58.8,33.3,58.8,33.2,58.9,33.1z"/>
</g>
<g>
	<path class="st0" d="M133.1,36.6c1.2-0.5,1.8-0.2,2-0.1c0.9,0.5,0.9,1.9,0.9,3.3c0,1.3,0,2.2-0.4,3c0,0-0.1,0.1-0.1,0.1
		c-1,1.3-4.6,1.5-10.4,1.1c-2.8-0.2-1.3-0.2-3.7-0.3c-1.4-0.1-2-0.1-2.9-0.4c-0.8-0.3-1.6-0.5-2.2-1.2c-1.4-1.5-1-3.8-0.9-4.3
		c0.2-0.9,0.5-1.9,2.4-4.3c1-1.2,2.3-2.9,4.2-4.7c0.4-0.4,1.1-1.1,1.9-1.9c1-1,1.3-1.3,1.3-1.5c-0.2-0.5-2.4-0.1-3.2,0.1
		c-6.2,1.2-6.7,1-7.1,0.9c-2-1-2.3-5.8-0.8-7c1-0.7,3.1-0.3,4.6-0.6c0.1,0,0.6-0.2,1.3-0.3c0.2,0,0.4-0.1,0.6-0.1
		c1.6-0.2,2.4-0.4,3.3-0.2c2.1,0.4,3.9,1.8,5,3.6c1.1,1.8,1.7,4,0.9,6.1c-0.5,1.4-1.2,2.3-2.5,3.8c-2,2.3-3.6,3.2-3.4,4.2
		c0.1,0.3,0.4,0.6,1.2,1C128.1,38,131.5,37.2,133.1,36.6z"/>
	<path class="st1" d="M125.6,43.4c-2.1,0-4.2,0.1-6.3-0.4c-0.4-0.1-1.4-0.3-2.4-1.2c-0.4-0.3-0.8-0.7-1.1-1.4
		c-0.2-0.7-0.1-1.3,0-1.8c0.5-1.8,1.5-3.3,2.6-4.8c0.7-0.9,1.6-2,2.7-3.2c1-0.9,1.8-1.6,2.3-2.2c0.5-0.5,0.7-0.8,0.8-0.9
		c0.7-0.8,1.8-2.3,1.4-2.8c-0.2-0.3-1.3-0.1-3.5,0.3c-2.4,0.5-3.7,0.7-3.8,0.8c-0.7,0.2-1.3,0.5-2,0.3c-0.6-0.2-1-0.6-1.3-0.9
		c-0.1-0.1-0.5-0.5-0.9-1.2c-0.6-1.1-1.1-3.4-0.1-4.6c0.4-0.5,0.9-0.6,3.4-0.9c3.1-0.4,4.7-0.6,5.8-0.6c2.4-0.1,3.6-0.1,5.2,0.3
		c1.8,0.4,3.9,1,4.7,2.7c0.5,1.2,0.1,2.3-0.2,3.5c0,0-0.7,2.1-4.8,6.3c-0.1,0.1-0.1,0.1-0.1,0.1c-0.2,0.1-0.3,0.2-1.6,1.2
		c-1.7,1.4-2.6,2-2.9,2.6c-0.2,0.4-0.8,1.4-0.4,2.2c0.5,1.2,2.7,1.3,3.5,1.4c4.8,0.2,7-2.7,8.5-1.7c1.3,0.9,1.4,4.2-0.1,5.9
		c-0.2,0.2-0.4,0.3-0.5,0.4C132.3,44.2,129.7,43.5,125.6,43.4z"/>
	<path class="st2" d="M123.2,29.9c0.2-0.1,0.3-0.2,0.4-0.3c0.3-0.3,1.8-1.9,2.6-3c0.4-0.6,1.1-1.4,0.8-2c-0.3-0.7-2-0.5-4.3-0.2
		c-0.6,0.1-1.3,0.2-2.9,0.4c-1,0.2-1.5,0.2-1.6,0.3c-0.5,0.2-0.8,0.3-1.2,0.2c-0.3-0.1-0.6-0.3-0.8-0.5c-0.1-0.1-0.6-0.6-1-1.6
		c-0.3-0.8-0.5-1.2-0.3-1.7c0.2-0.5,0.8-0.6,1.5-0.9c2-0.7,1.7-1,3.1-1.4c1.3-0.4,2.3-0.5,3.8-0.5c2.8-0.1,4.6-0.2,6.4,0.8
		c0.8,0.4,2.2,1.1,2.6,2.6c0.3,1-0.1,1.9-0.4,2.9c-0.6,1.5-1.5,2.5-1.9,2.9c-0.4,0.4-0.5,0.4-1.3,1c-1.2,0.9-2,1.8-3.8,3.6
		c-0.7,0.7-1.1,1.1-1.3,1.4c-1,1.2-2,2.4-1.7,3.4c0.4,1.3,3.2,1.9,6.9,1.6c0.5,0,1.4,0,2.3-0.2c1.6-0.4,2.3-1,3-0.6
		c0.5,0.3,0.6,0.9,0.8,1.8c0.1,0.4,0.3,1.4,0.1,2c-0.5,1.3-2.9,0.7-9,1.2c0,0-1.3,0.1-3.9,0.1c-1.4,0-2.1-0.1-2.9-0.4
		c-0.6-0.2-1.5-0.6-2.1-1.5c-0.8-1.2-0.5-2.7-0.4-3c0.2-0.9,0.7-1.5,1.1-2.1c0.6-0.7,1.2-1.3,1.7-2.4
		C119.4,33.5,118.9,32.9,123.2,29.9z"/>
	<path class="st6" d="M123.9,28.7c0.6-0.4,1.5-1,2.2-2.2c0.5-0.8,1-1.5,0.8-2c-0.2-0.5-1.1-0.6-4.3-0.2c-1.4,0.2-3.3,0.5-5.6,1
		c-0.2-0.1-1.5-0.7-1.8-2.1c-0.4-1.8,1.2-3.2,1.3-3.2c0.2-0.2,0.8-0.5,4-1c0.7-0.1,1.6-0.2,2.8-0.3c3-0.1,7.5-0.3,8.8,2
		c0.4,0.7,0.3,1.3,0.3,2.1c-0.2,3.3-2.9,5.4-3.7,6c-0.6-0.1-1.2-0.2-1.9-0.2C125.7,28.6,124.7,28.6,123.9,28.7z"/>
	<g>
		<path class="st4" d="M132.3,22.1c-0.3-0.4-0.8-0.9-1.5-1.4c-2.4-1.7-5-1.5-9-1.1c-4.6,0.5-5.6,1.5-6,2.1c-0.4,0.6-0.6,1.2-0.7,1.6
			c-0.7-1.5-0.5-2.3-0.3-2.6c0.2-0.3,0.7-1.2,6.5-1.8c2.1-0.2,3.1-0.3,4.6-0.2c2.2,0.2,5.2,0.4,6.1,2.2
			C132.3,21.3,132.3,21.8,132.3,22.1z"/>
	</g>
	<path class="st4" d="M125.2,28c-0.8,1-1.2,1.3-2.7,2.7c-1.5,1.4-2.5,2.7-3.2,3.4c-1.5,1.8-2.3,3.1-2.4,3c-0.1-0.1,0.5-1.1,1-1.9
		c0.8-1.2,1.5-2.1,2.2-2.8c1.5-1.7,2.2-2.2,3.8-3.8c0.7-0.6,1.6-1.6,2.7-2.9C126.3,26.4,125.9,27.1,125.2,28z"/>
	<path class="st4" d="M122.3,37.8c-0.2-0.3-0.3-0.7-0.3-0.7c-0.3-1.2,0.8-2.4,1-2.6c-0.6,0.7-0.8,1.7-0.5,2.4
		c0.2,0.4,0.5,0.7,0.7,0.8c0.4,0.2,0.9,0.3,1.5,0.5c1.3,0.3,2.4,0.4,3.3,0.4C127.6,38.8,123.4,39.4,122.3,37.8z"/>
	<path class="st6" d="M126.5,42.2c-0.3,0-1.2,0.1-3.1,0.1c-1.7,0-2,0.1-2.6,0c-1.2-0.1-1.9-0.2-2.6-0.7c-0.7-0.5-1-1.3-1.2-1.7
		c0.8,0.7,1.5,1.1,2.1,1.3c0.1,0,0.3,0.1,1.2,0.2c0.6,0.1,1.3,0.2,2.4,0.3c0.7,0.1,1.9,0.2,3.6,0.1c0.9,0,2-0.1,3.4-0.2
		C129,41.8,127.9,42,126.5,42.2z M117,38.4C117,38.4,117,38.4,117,38.4c-0.1,0.4,0,0.9,0.1,0.9c0.1,0,0.3-0.2,0.3-0.2
		c0.2-0.2,0.1-0.4,0.1-0.7c0-0.7,0.1-1,0-1C117.4,37.3,117.1,37.9,117,38.4z"/>
</g>
<g>
	<path class="st0" d="M149.1,18.7c-3.8,0-7.5,1.8-9.6,5c-1,1.5-1.6,3.3-1.7,5.1c-0.1,2.3,0.6,4.5,1.9,6.4c0.6,0.8,1.1,1.7,1.8,2.4
		c0.7,0.7,1.5,1.3,2.3,1.7c1.8,1,3.9,1.6,6.1,1.6c3.8,0.1,7.7-1.3,10.2-4.3c2.5-3,3-7.3,1.3-10.9c-0.5-1-1.1-1.8-1.8-2.6
		c-0.8-0.9-1.9-1.5-2.9-2.2c-1.9-1.3-4.2-2-6.4-2.2C149.9,18.7,149.5,18.7,149.1,18.7z M147.9,33.5c-0.5,0-1.1-0.1-1.6-0.3
		c-0.5-0.2-0.8-0.7-1-1.2c-0.4-0.9-0.4-1.8-0.1-2.7c0.6-1.7,2.4-2.8,4.2-2.7c0.5,0,1,0.1,1.4,0.3c0.4,0.2,1.1,0.5,1.2,0.9
		c0.4,0.9,0.4,1.9,0,2.9C151.4,32.5,149.7,33.5,147.9,33.5z"/>
	<path class="st1" d="M137.7,29.4c0,5.7,4.9,10,11.4,10c6.5,0,11.7-4.5,11.8-10.2c0-2.8-0.9-5.2-2.7-7.1c-2.1-2.2-5.4-3.4-9.1-3.4
		C142.9,18.7,137.7,23.5,137.7,29.4z M147.9,25.2c2.4,0,4.4,1.9,4.4,4.2c0,2.3-2,4.2-4.4,4.2c-2.4,0-4.4-1.9-4.4-4.2
		C143.5,27.1,145.5,25.2,147.9,25.2z"/>
	<path class="st2" d="M149.1,19.5c-5.9,0-10.6,4.4-10.6,9.9c0,5.5,4.8,9.3,10.6,9.3c5.9,0,11-4,11-9.4
		C160.3,22.9,155,19.5,149.1,19.5z M147.9,34.3c-2.8,0-5.1-2.2-5.1-4.9c0-2.7,2.3-4.9,5.1-4.9c2.8,0,5.1,2.2,5.1,4.9
		C153,32.1,150.7,34.3,147.9,34.3z"/>
	<g class="st3">
		<path class="st2" d="M139.1,31.4c1.6,0.4,3.2,0.9,4.8,1.1c-0.8-0.9-1.2-2-1.2-3.2c0-2.7,2.3-4.9,5.1-4.9c2.8,0,5.1,2.2,5.1,4.9
			c0,0.9-0.2,1.7-0.7,2.4c2.6-0.9,5.2-2,7.8-3c-0.1-6.1-5.3-9.3-11-9.3c-5.9,0-10.6,4.4-10.6,9.9c0,0.7,0.1,1.3,0.2,1.9
			C138.8,31.4,139,31.4,139.1,31.4z"/>
	</g>
	<g>
		<path class="st4" d="M149.1,20.3c5.5,0,10.4,2.9,11,8.5c0,0,0,0,0.1,0c-0.1-6.1-5.3-9.3-11-9.3c-5.9,0-10.6,4.4-10.6,9.9
			c0,0.1,0,0.3,0,0.4C138.7,24.5,143.4,20.3,149.1,20.3z"/>
	</g>
	<path class="st4" d="M143.2,31.3c0,0,1.4,3,4.7,3c3.3,0,4.6-2.9,5-4c0,0-0.3,4.6-5.3,4.3C143.9,34.4,143.2,31.3,143.2,31.3z"/>
	<path class="st5" d="M145.7,37.3c-0.1,0.1,0.6,0.5,1.4,0.7c0.9,0.2,2,0.3,2.7,0.3c0.8,0,2.3-0.2,3.8-0.9c0.8-0.3,1.5-0.7,2.1-1.1
		c0.6-0.4,1.1-0.8,1.5-1.2c0.7-0.6,0.9-1.1,1.1-1.4c0.1-0.3,0-0.4,0-0.4c-0.1-0.1-0.1-0.1-0.3,0c-0.1,0.1-0.2,0.2-0.4,0.4
		c-0.1,0.1-0.2,0.2-0.4,0.4c-0.1,0.1-0.3,0.3-0.5,0.5c-0.2,0.2-0.4,0.4-0.6,0.6c-0.2,0.2-0.5,0.4-0.8,0.6c-0.6,0.4-1.2,0.7-1.8,1
		c-1.3,0.6-2.7,0.8-3.6,0.8c-0.3,0-0.6,0-1.1,0c-0.2,0-0.4,0-0.7,0c-0.2,0-0.5,0-0.7-0.1C146.5,37.3,145.7,37.1,145.7,37.3z
		 M159.2,31.3c0.1,0,0.2,0.1,0.2,0.3c0,0.1,0,0.1,0,0.2c0,0.1,0,0.1,0,0.2c0,0.2-0.1,0.3-0.2,0.5c-0.4,0.7-0.7,0.4-0.6,0.1
		c0.1-0.2,0.1-0.5,0.1-0.6c0-0.2,0.1-0.3,0.1-0.4C159,31.4,159.1,31.3,159.2,31.3z"/>
</g>
<g>
	<path class="st0" d="M165.6,41.5c0.1,0.2,0.3,0.5,0.5,0.7c0.1,0.2,0.3,0.5,0.5,0.6c0.2,0.1,0.4,0.2,0.6,0.2c0.5,0.1,1,0.2,1.5,0.3
		c1.3,0.2,2.6,0.5,3.8,0.7c0.6,0.1,1.3,0,1.6-0.7c0.1-0.3,0.1-0.7,0.1-1c0.2-1.4,0.3-2.7,0.5-4.1c0.1-0.8,0.2-1.5,0.3-2.3
		c0.2,0.5,0.4,0.9,0.6,1.4c0.3,0.7,0.8,1.4,1.3,2c0.6,0.7,1.6,0.4,2-0.4c0.2-0.5,0.4-1,0.6-1.5c0.1,0.4,0.1,0.9,0.2,1.3
		c0.1,0.7,0.1,1.4,0.2,2c0,0.1,0,0.2,0,0.4c0,0.3,0.2,0.5,0.4,0.8c0.1,0.1,0.9,1.3,1.1,1.4c0.2,0.1,0.5,0.2,0.7,0.1
		c2.4-0.2,4.8-0.4,7.1-0.6c0.9-0.1,2.1-0.1,1.9-1.4c-0.1-0.5-0.1-1-0.2-1.5c-0.3-2.5-0.6-4.9-0.9-7.4c-0.3-2.8-0.7-5.7-1-8.5
		c-0.1-1-0.2-1.9-0.3-2.9c0-0.4,0-0.9-0.2-1.3c-0.2-0.5-0.7-0.8-1.2-1.1c-0.3-0.2-0.7-0.6-1.2-0.7c-0.3,0-0.7,0-1-0.1
		c-1.4-0.1-2.8-0.2-4.2-0.3c-0.7,0-2.3-0.5-2.6,0.4c-0.4,1.1-0.8,2.2-1.2,3.3c-0.1,0.2-0.2,0.5-0.3,0.7c-0.1-0.5-0.3-1-0.5-1.5
		c-0.1-0.5-0.2-1.2-0.6-1.6c-0.2-0.2-0.4-0.4-0.6-0.5c-0.2-0.2-0.5-0.4-0.7-0.5c-0.2-0.2-0.6-0.4-0.9-0.4c-0.5,0-1.1,0-1.6,0
		c-0.7,0-1.4,0-2.1,0c-0.5,0-1.1,0-1.3,0.6c-0.1,0.4-0.1,0.8-0.2,1.2c-0.9,5.2-1.7,10.4-2.5,15.5c-0.2,1.3-0.4,2.6-0.6,3.8
		C165.3,40,164.9,40.9,165.6,41.5C165.6,41.6,165.5,41.4,165.6,41.5z"/>
	<path class="st1" d="M165.8,41.5l5.7,1.1c0,0,0.1,0,0.1,0c0.2,0,0.3-0.1,0.5-0.2c0.2-0.1,0.3-0.3,0.3-0.6l1.1-9l2.2,5
		c0.1,0.3,0.4,0.5,0.7,0.5h0c0.3,0,0.6-0.2,0.7-0.5l1.8-4.3l0.9,7.8c0,0.4,0.4,0.7,0.9,0.7l8.1-0.6c0.2,0,0.4-0.1,0.6-0.3
		c0.1-0.2,0.2-0.4,0.2-0.6l-2.5-21.4c0-0.4-0.4-0.7-0.8-0.7l-7-0.4c-0.4,0-0.7,0.2-0.8,0.5l-2.1,5.9l-1.8-5.8
		c-0.1-0.3-0.4-0.6-0.8-0.6h-4.3c-0.4,0-0.7,0.3-0.8,0.7l-3.6,21.7C165.1,41,165.4,41.4,165.8,41.5z"/>
	<polygon class="st2" points="171.7,41.8 166,40.7 169.5,18.9 173.9,18.9 176.4,27 179.3,18.8 186.3,19.3 188.8,40.7 180.7,41.3 
		179.5,30.4 176.5,37.5 173.1,29.8 	"/>
	<path class="st6" d="M168.9,28.5c3.4,0.8,6.8,1.8,10.2,2.1c0.1,0,0.2,0,0.2,0l0.1-0.2l0,0.2c2.7,0.2,5.4-0.1,8-0.7l-1.2-10.6
		l-7-0.4l-2.9,8.2l-2.5-8.1h-4.3l-1.5,9.4C168.3,28.4,168.6,28.4,168.9,28.5z"/>
	<path class="st4" d="M186.3,19.3l-7-0.4l-2.9,8.2l-2.5-8.1h-4.3l-1,6.2l1.4-5.4h3.6l2.8,8.3l3.3-8.4l6.3,0.7c0,0,1.5,9.6,1.7,9.5
		L186.3,19.3z"/>
	<path class="st7" d="M167.7,40.3c0,0.2,0.4,0.4,1,0.5c0.3,0.1,0.6,0.2,1,0.2c0.2,0,0.3,0.1,0.5,0.1c0.2,0,0.2,0,0.6,0.1l0.7,0.1
		l0.5-5.8c0.1-1.3-0.2-1.5-0.4-1.5c-0.2,0-0.4-0.1-0.5,1.4l-0.4,4.9c-0.2,0-0.4-0.1-0.7-0.1c-0.3,0-0.7-0.1-1-0.1
		C168.3,40.2,167.8,40.2,167.7,40.3z M171.7,32.5c0.2,0,0.5,0.3,0.5,0.8c-0.1,0.6-0.5,0.4-0.6,0.2C171.3,32.8,171.5,32.5,171.7,32.5
		z"/>
	<path class="st7" d="M182.2,40.4c0,0.3,2.2,0.2,3.4,0l2.6-0.4l-0.4-4.6c-0.1-1.5-0.4-1.6-0.6-1.6c-0.2,0-0.4-0.1-0.2,1.7l0.3,3.8
		l-1.8,0.2C184.6,39.7,182.1,40.1,182.2,40.4z M187,32c0.1,0,0.6,0.2,0.6,0.8c0,0.6-0.4,0.6-0.5,0.3C186.6,32.4,186.9,32.1,187,32z"
		/>
</g>
<g>
	<path class="st0" d="M194.8,42.4c0.1,0.2,0.3,0.5,0.5,0.7c0.1,0.2,0.3,0.5,0.5,0.6c0.5,0.4,1.3,0.4,1.9,0.5
		c1.3,0.2,2.5,0.3,3.8,0.4c2.2,0.1,4.5,0.1,6.6-0.6c2.5-0.7,4.6-2.4,5.1-5.1c0.3-1.5,0.1-3-0.4-4.5c-0.4-1-0.9-1.8-1.6-2.6
		c-0.8-0.9-1.8-1.5-2.7-2.1c1.1-1.8,1.4-4,0.4-5.9c-1-1.8-2.7-2.9-4.3-4c-1.8-1.3-4.2-1.5-6.4-1.2c-0.6,0.1-1.2,0.2-1.8,0.4
		c-0.5,0.1-1.4,0.3-1.7,0.8c-0.1,0.2-0.1,0.4-0.1,0.5c0,1.7,0,3.3,0,5c0,5-0.1,10-0.1,14.9C194.4,41,194.2,41.8,194.8,42.4
		C194.8,42.5,194.7,42.3,194.8,42.4z M201.1,26.9c0-0.2,0-0.3,0-0.5c0.2,0,0.2,0,0.2,0.2C201.2,26.7,201.2,26.8,201.1,26.9z
		 M203.1,36.4c-0.1,0.5-0.7,0.8-1.1,1c0-0.5-0.1-1-0.1-1.6c0.3,0,0.6,0,0.8,0.1C203,36,203.2,36,203.1,36.4
		C203,36.8,203.1,36.3,203.1,36.4z"/>
	<path class="st1" d="M195,42.4c1.8,0.4,3.6,0.6,5.2,0.7c0.6,0,1.1,0.1,1.7,0.1c8,0,9.8-3.7,9.9-6.7c0.1-3.1-1.9-6.5-5.2-7.5
		c0.7-0.9,1.4-2.3,1.3-3.9c-0.1-1.9-1.3-3.7-3.6-5.2c-1.6-1.1-3.7-1.5-6.1-1.1c-1,0.1-2.1,0.4-3.2,0.8c-0.3,0.1-0.5,0.4-0.5,0.7
		l-0.2,21.5C194.4,42,194.6,42.3,195,42.4z M199.5,24.8c1.8,0.1,1.8,1,1.8,1.4c0,0.7-0.5,1.3-1.5,1.5L199.5,24.8z M203.1,36.4
		c-0.2,0.6-1.1,1.1-2.5,1.3c-0.1-1.1-0.2-2.2-0.3-3.4c0.9,0,1.6,0.2,2,0.5C202.8,35.1,203.3,35.8,203.1,36.4z"/>
	<path class="st2" d="M205.1,29.4c0,0,5.3-4.6-1.2-9c-1.6-1.1-3.5-1.3-5.6-1c-1,0.2-2,0.4-3,0.8c0,5.1-0.1,15.6-0.2,21.5
		c1.4,0.3,3.2,0.5,5.1,0.7c5,0.3,10.6-0.6,10.8-5.9C211.1,33.1,208.7,29.7,205.1,29.4z M202.1,26.2c0,1.7-1.7,2.3-3,2.5
		c-0.1-1.6-0.3-3.2-0.4-4.6C200.2,24,202.1,24.3,202.1,26.2z M199.9,38.5c-0.1-1.6-0.3-3.3-0.4-5c1.1-0.1,2.4,0,3.3,0.6
		C204.3,35.3,205,38.1,199.9,38.5z"/>
	<g class="st8">
		<path class="st2" d="M201.7,30.5c2.4-0.1,4.8,0,7.1,0.7c0,0,0,0,0.1,0c-1-1-2.3-1.7-3.8-1.8c0,0,5.3-4.6-1.2-9
			c-1.6-1.1-3.5-1.3-5.6-1c-1,0.2-2,0.4-3,0.8c0,2.7-0.1,6.9-0.1,11.2C197.3,30.9,199.5,30.6,201.7,30.5z M202.1,26.2
			c0,1.7-1.7,2.3-3,2.5c-0.1-1.6-0.3-3.2-0.4-4.6C200.2,24,202.1,24.3,202.1,26.2z"/>
	</g>
	<g>
		<path class="st9" d="M203.7,21.3c1.9,1.3,2.9,2.8,3,4.3c0.1,2.3-1.8,4-1.9,4l0,0c0.5,0,1.1,0.1,1.6,0.2c0.6,0.1,1.1,0.3,1.7,0.5
			c-0.8-0.6-1.8-1-2.9-1.1c0,0,5.3-4.6-1.2-9c-1.6-1.1-3.5-1.3-5.6-1c-1,0.2-2,0.4-3,0.8c0,1.8,0,4.3-0.1,7c0,1.3,0.5-6.1,0.5-6.1
			c0.9-0.3,1.8-0.5,2.7-0.7c0.5-0.1,1.1-0.1,1.6-0.1C201.4,20.3,202.6,20.6,203.7,21.3z"/>
	</g>
	<g>
		<path class="st9" d="M201.6,24.9c0.3,0.3,0.5,0.8,0.5,1.4c0,1.7-1.7,2.3-3,2.5c-0.1-1.6-0.3-3.1-0.4-4.4h0l0.2,4.8l0.5-0.1
			c2.2-0.3,2.9-1.1,2.9-2.6C202.2,25.8,202.1,25.4,201.6,24.9z"/>
	</g>
	<path class="st6" d="M197,41.1c0,0.1,0.2,0.2,0.5,0.3c0.2,0.1,0.4,0.1,0.6,0.2c0.2,0.1,0.5,0.1,0.7,0.2c0.5,0.1,1.1,0.2,1.7,0.2
		c0.3,0,0.6,0,0.8,0c0.3,0,0.5,0,0.7,0c0.9,0,2.8-0.2,4.6-0.8c0.5-0.2,0.9-0.4,1.4-0.7c0.4-0.3,0.8-0.6,1.1-1c0.6-0.7,0.9-1.5,1-2.1
		c0.1-0.6,0.2-1,0.1-1.4c0-0.3-0.1-0.6-0.1-0.8c-0.1-0.3-0.2-0.4-0.3-0.4c-0.1,0-0.2,0-0.2,0.2c0,0.2,0,0.4-0.1,0.7
		c0,0.3-0.1,0.8-0.2,1.4c-0.1,0.6-0.4,1.3-0.9,1.9c-0.2,0.3-0.6,0.5-0.9,0.8c-0.3,0.2-0.7,0.4-1.1,0.5c-1.6,0.6-3.3,0.8-4.5,0.8
		c-0.3,0-0.8,0-1.3,0c-0.3,0-0.5,0-0.8,0c-0.3,0-0.6,0-0.8,0c-0.5,0-1-0.1-1.4-0.1C197.3,41,197.1,41,197,41.1z M209,32.2
		c0.1-0.1,0.6,0.1,1,1.1c0.1,0.5,0.1,0.7,0,0.8c-0.1,0.1-0.3,0-0.4-0.2c-0.3-0.5-0.5-0.9-0.6-1.1C208.9,32.5,209,32.3,209,32.2z"/>
</g>
<g>
	<path class="st0" d="M217.7,17.9c-0.3,0.3-0.2,0.8-0.2,1.1c0,0.6,0,1.2,0,1.8c0,1.1,0,2.2,0.1,3.3c0,0.3,0.1,0.5,0.3,0.7
		c0.3,0.4,0.6,1.1,1,1.4c0.5,0.4,1.3,0.2,1.8,0.2c0.3,0,0.3,0,0.3,0.3c0,0.4,0,0.9,0.1,1.4c0.1,2.3,0.2,4.6,0.3,6.9
		c0,0.2-0.6,0.1-0.8,0.1c-0.5,0-1.1,0.1-1.6,0.1c-0.7,0-0.7,0.6-0.7,1.2c0.1,0.5,0.1,1.1,0.2,1.6c0.1,1.1,0.3,2.3,0.4,3.4
		c0,0.3,0.2,0.4,0.3,0.7c0.2,0.2,0.3,0.5,0.5,0.7c0.2,0.2,0.3,0.5,0.5,0.7c0.4,0.3,0.8,0.2,1.2,0.2c2.4-0.3,4.8-0.6,7.2-1
		c0.6-0.1,1.3-0.1,1.9-0.3c0.9-0.4,0.6-1.9,0.6-2.7c0-1,0-2-0.1-2.9c0-0.8-0.8-1-1.3-1.5c-0.2-0.2-0.7-0.6-1-0.5c-0.2,0-0.4,0-0.6,0
		c0.1-2.1,0.1-4.2,0.2-6.4c0-0.5,0-1,0.1-1.5c0-0.1-0.1-0.5,0.1-0.5c0.6,0,1.1,0,1.7,0c0.7,0,1.1-0.6,1.1-1.3c0-1.1,0-2.2-0.1-3.3
		c0-0.6,0-1.2,0-1.8c0-0.4,0-0.8-0.2-1.1c-0.1-0.2-1.6-1.3-2-1.4c-0.2,0-0.4,0-0.6,0c-1.1,0-2.2,0-3.2,0c-1.6,0-3.1,0-4.7,0
		c-0.5,0-1.1,0-1.6,0C218.4,17.7,218,17.6,217.7,17.9C217.6,18,217.9,17.7,217.7,17.9z"/>
	<path class="st1" d="M217.7,17.9c-0.1,0.1-0.2,0.3-0.2,0.5l0.1,5.7c0,0.4,0.3,0.8,0.8,0.8h2.6l0.4,10.2l-2.4,0.1
		c-0.2,0-0.4,0.1-0.5,0.3c-0.1,0.2-0.2,0.4-0.2,0.6l0.6,5.4c0,0.2,0.1,0.4,0.3,0.5c0.1,0.1,0.3,0.2,0.5,0.2c0,0,0.1,0,0.1,0l9.1-1.2
		c0.4,0,0.7-0.4,0.7-0.8l-0.1-4.7c0-0.2-0.1-0.4-0.2-0.5c-0.2-0.1-0.4-0.2-0.6-0.2l-2.2,0.1l0.3-9.9h2.1h0c0.4,0,0.8-0.3,0.8-0.8
		c0,0,0-0.1,0-0.1l-0.1-5.7c0-0.4-0.3-0.8-0.8-0.8l-10.5,0.1C218,17.7,217.9,17.7,217.7,17.9z"/>
	<polygon class="st2" points="225.6,35.7 226,24.2 228.9,24.2 228.8,18.3 218.3,18.4 218.4,24.2 221.7,24.2 222.2,35.8 219.1,36 
		219.7,41.4 228.8,40.2 228.7,35.5 	"/>
	<g class="st3">
		<path class="st2" d="M221.7,24.2l0.2,4.6c1.3,0.1,2.6,0.2,4,0.3l0.2-4.9h2.8l-0.1-5.8l-10.5,0.1l0.1,5.7H221.7z"/>
	</g>
	<g>
		<polygon class="st4" points="218.7,19.2 228.6,19.1 228.8,21.2 228.8,18.3 218.3,18.4 218.3,22.4 		"/>
	</g>
	<polygon class="st4" points="222.2,35 222.3,36.2 219.5,36.5 219.5,40.1 219.1,36 222.2,35.8 	"/>
	<polygon class="st4" points="225.7,35 225.6,35.9 228.5,35.9 228.8,39.9 228.7,35.5 225.7,35.6 	"/>
	<path class="st5" d="M220,40.7c0,0.3,1.8,0.2,2.7,0c0.9-0.1,3.9-0.6,5-0.8c0.2,0,0.5-0.1,0.7-0.1c0-0.2,0-0.4,0-0.6
		c0-0.1,0-0.1,0-0.2c0,0,0-0.1,0-0.1c0-0.1-0.1-0.2-0.1-0.3c-0.1-0.1-0.2-0.2-0.3-0.2c-0.1,0-0.1,0-0.2,0.1c0,0.1-0.1,0.1-0.1,0.3
		c0,0.1,0,0.2,0,0.3c0,0,0,0,0,0c0,0,0,0,0,0c-1.4,0.2-3.8,0.6-5,0.8C222,40,220,40.4,220,40.7z M228,37c0.1,0,0.5,0.2,0.5,0.7
		c0,0.5-0.4,0.4-0.5,0.2C227.6,37.3,227.9,37,228,37z"/>
</g>
<g>
	<path class="st0" d="M239.5,40.7c0.1,0.2,0.3,0.5,0.5,0.7c0.1,0.2,0.3,0.5,0.5,0.7c0.2,0.3,0.5,0.4,0.9,0.4c0.2,0,0.5,0,0.7,0
		c1.2,0,2.3,0,3.5,0c2.4,0,4.8,0,7.3,0c0.4,0,0.8,0,1.1-0.4c0.4-0.4,0.3-0.9,0.3-1.4c0-1.3,0.1-2.5,0.1-3.8c0-0.2,0-0.4-0.1-0.5
		c-0.2-0.5-0.7-0.7-1.1-1c-0.5-0.4-1-0.7-1.6-0.7c-0.7,0-1.3,0-2,0c-0.2,0-0.5,0-0.7,0c-0.2,0-0.1-0.3-0.1-0.5c0-0.1,0-0.3,0-0.4
		c1.1,0,2.2,0.1,3.3,0.1c0.4,0,0.9,0.1,1.2,0c0.6-0.2,0.7-0.8,0.8-1.4c0.1-1.3,0.2-2.5,0.4-3.8c0-0.2,0-0.3,0-0.5
		c-0.1-0.6-0.5-0.7-0.9-1c-0.3-0.3-0.7-0.5-1-0.7c-0.2-0.2-0.5-0.2-0.7-0.2c-0.6,0-1.3,0-1.9-0.1c-0.2,0-1.1,0.1-1.1-0.1
		c0-0.1,0-0.6,0-0.6c0.1,0,0.3,0,0.4,0c0.6,0,1.2,0,1.8,0c1,0,2.1,0.1,3.2,0c1.4-0.2,1-2,1-2.9c0-1.3,0-2.6-0.1-3.8
		c0-0.6-0.2-1-0.7-1.4c-0.3-0.2-0.7-0.5-1-0.7c-0.3-0.2-0.5-0.3-0.8-0.3c-1.9,0.2-3.8,0.3-5.7,0.5c-2.6,0.2-5.3,0.4-7.9,0.7
		c-0.5,0-1.5,0-1.8,0.5c-0.2,0.4-0.1,1,0,1.4c0.5,5.1,1,10.2,1.5,15.3c0.1,1.3,0.3,2.6,0.4,3.9C239.2,39.3,239.1,40.3,239.5,40.7
		C239.6,40.8,239.4,40.6,239.5,40.7z"/>
	<path class="st1" d="M240.1,41h11.7c0.4,0,0.8-0.3,0.8-0.8l0.1-4.6c0-0.2-0.1-0.4-0.2-0.6c-0.1-0.2-0.3-0.2-0.6-0.2l-4.7-0.1
		l-0.1-2.4l4.5,0.2c0.4,0,0.8-0.3,0.8-0.7l0.4-4.4c0-0.2,0-0.4-0.2-0.6c-0.1-0.2-0.4-0.3-0.6-0.3l-4.9-0.2V24h5.6
		c0.2,0,0.4-0.1,0.6-0.2c0.1-0.2,0.2-0.4,0.2-0.6l-0.1-6c0-0.2-0.1-0.4-0.3-0.6c-0.2-0.2-0.4-0.2-0.6-0.2l-14.8,1.3
		c-0.2,0-0.4,0.1-0.5,0.3c-0.1,0.2-0.2,0.4-0.2,0.6l2.1,21.7C239.3,40.6,239.7,41,240.1,41z"/>
	<polygon class="st2" points="252.8,17.2 252.9,23.2 246.5,23.2 246.5,27 252.1,27.2 251.7,31.6 246.4,31.4 246.5,35.5 251.9,35.6 
		251.8,40.2 240.1,40.2 237.9,18.5 	"/>
	<path class="st6" d="M240,31.4c1.8,0.2,3.5,0.3,5.4,0c1.3-0.2,2.7-0.5,4.4-1.1c0.7-0.2,1.5-0.5,2.1-0.7l0.2-2.4l-5.7-0.2v-3.8h6.4
		l-0.1-6l-14.8,1.3l1.3,12.9C239.5,31.4,239.7,31.4,240,31.4z"/>
	<path class="st4" d="M246.2,27.3l5.6,0.3c0,0,0,0.7,0.1,2l0.2-2.4l-5.7-0.2v-3.7L246.2,27.3z"/>
	<polygon class="st4" points="238.6,19.3 252.3,18 252.9,23.2 252.8,17.2 237.9,18.5 238.7,26.6 	"/>
	<polygon class="st4" points="246.4,31.4 246.5,35.5 251.9,35.6 251.9,37.4 251.6,36 246.1,35.8 	"/>
	<path class="st6" d="M250.8,39.9c0-0.3-2.7-0.6-4.1-0.7l-5.3-0.3l-0.1-1.8c-0.1-1.8-0.5-2-0.6-2c-0.2,0-0.4-0.1-0.2,2l0.2,2.5
		l6,0.4C247.7,40.1,250.7,40.2,250.8,39.9z M240.4,32.8c0.1-0.1,0.6,0.2,0.6,1c0,0.8-0.4,0.7-0.5,0.4
		C240.1,33.3,240.3,32.8,240.4,32.8z"/>
</g>
</svg>
