<?xml version="1.0" encoding="utf-8"?>
<!-- Generator: Adobe Illustrator 24.0.2, SVG Export Plug-In . SVG Version: 6.00 Build 0)  -->
<svg version="1.1" id="Capa_1" xmlns="http://www.w3.org/2000/svg" xmlns:xlink="http://www.w3.org/1999/xlink" x="0px" y="0px"
	 viewBox="0 0 814 330.3" style="enable-background:new 0 0 814 330.3;" xml:space="preserve">
<style type="text/css">
	.st0{fill:#352E16;}
	.st1{fill:#954415;}
	.st2{fill:#F1AF02;}
	.st3{opacity:0.8;fill:#F1AF02;}
	.st4{fill:#FFFFFF;}
	.st5{fill:#F6EB69;}
	.st6{opacity:0.7;}
	.st7{fill:#F9B84A;}
	.st8{opacity:0.8;}
	.st9{fill:#F4F4F4;}
</style>
<g>
	<path class="st0" d="M767.3,63.1c-11.7,10.4-29.2,8-30,13.6c-0.1,0.7,0.6,0.8,6.2,8.5c0.8,1.1,9,11.5,8.3,12
		c-3.2,2.6-6.3,5.3-9.4,7.9c-12.4,10.4-24.8,20.8-37.1,31.1c-4.6,3.9-9.2,7.7-13.8,11.6c-0.9,0.7-1.8,1.5-2.7,2.2
		c-3.4,2.8-2.4,8.1-2.3,12c0.1,2.3-0.5,5,1.4,6.8c0.3,0.3,0.6,0.6,1,0.9c2,1.9,4,3.8,6,5.7c6,5.6,11.9,11.2,17.9,16.9
		c2.9,2.7,8.7,10.4,13,5.7c1.7-1.8,3.3-3.7,5-5.5c3.7-4,18.8-20.7,27.5-30.4c7.5-8.3,19.3-22.9,36.6-48.8
		c-9.4-25.1-20.9-52-27.1-50.5C767.8,62.9,767.6,62.8,767.3,63.1z"/>
	<path class="st1" d="M742.6,16c-0.2,17.7,4.9,26.8,9.8,31.9c3.7,3.8,9.1,7.2,8.3,10.3c-0.8,2.8-6.3,3.9-10.8,4.3
		c0,0-13.2,4.5-14.2,9.5c-0.1,0.7-0.1,1.4-0.1,1.4c0.1,0.8,0.4,1.5,0.9,2.2l20.7,28.5l-69.1,57.9c-1,0.9-1.6,2.1-1.6,3.4
		c-0.1,1.3,0.5,2.6,1.4,3.5l31.3,29.5c0.9,0.9,2.1,1.3,3.4,1.3c1.2-0.1,2.4-0.6,3.3-1.5c26.4-27.8,52.8-55.5,79.2-83.3
		C784.3,81.9,763.4,48.9,742.6,16z"/>
	<path class="st2" d="M722.4,195l-31.3-29.5l72.4-60.7l-23.3-32.1c18.9,13.7,37.8,27.3,56.7,41C772.1,140.8,747.3,167.9,722.4,195z"
		/>
	<path class="st3" d="M740.6,124l-49.5,41.5l31.3,29.5c13.3-14.5,26.5-28.9,39.8-43.4c-1.6-4.2-4.4-9.9-9.2-15.9
		C748.7,130.2,744.1,126.5,740.6,124z"/>
	<path class="st4" d="M691.1,165.5l31.3,29.5c16.3-17.5,24.3-26.4,24-26.7c-0.2-0.2-7.3,6.6-21.1,20.6L696.7,164l68-59.3l-20.3-32.1
		l13-10.8l-17.3,11c0,0,23.6,32.4,23.3,32.1L691.1,165.5z"/>
	<path class="st0" d="M726.8,129.3c1.7-1.8,4.2-4.4,7.5-7.4c6.7-6.1,11.9-8.4,10.2-10.5c-2.4-2.9-4.8-5.7-7.1-8.5
		c-9.4-11.2-18.8-22.4-28.2-33.6c-3.5-4.2-7-8.3-10.5-12.5c-0.7-0.8-1.4-1.6-2-2.4c-2.6-3.1-0.6-8,0.3-11.6c0.5-2.2,0.6-4.8,2.7-6.3
		c0.3-0.3,0.7-0.5,1.1-0.8c2.3-1.6,4.5-3.2,6.8-4.7c6.7-4.7,13.4-9.3,20.1-14c3.3-2.3,10.2-8.9,13.3-4c1.2,1.9,2.3,3.8,3.5,5.8
		c6.5,10.6,13,21.2,19.4,31.9c12.2,20.1,24.5,40.2,36.7,60.2c0.2,0.3,0.3,0.5,0.4,0.8C801.5,112.9,740.3,141,726.8,129.3z"/>
	<path class="st1" d="M750.9,105.6L698.4,43c-0.7-0.9-1.1-2.2-0.8-3.4c0.2-1.3,1-2.4,2.1-3.2L734.8,12c1-0.7,2.3-1,3.4-0.8
		c1.1,0.2,2.1,0.8,2.7,1.8l59.8,98.2c1,1.6,0.7,3.9-0.7,5.4l-40.6,44.3c0,0,0,0,0,0c0,0-10.9-10.5-32.7-31.5
		C734.8,121.4,742.8,113.5,750.9,105.6z"/>
	<polygon class="st2" points="737.1,15.5 701.9,40 756.9,105.6 728.7,133.4 756.3,158 796.9,113.7 	"/>
	<path class="st3" d="M739.5,84.8L701.9,40l35.1-24.5l31.3,51.4C758.2,71.8,748.4,78.1,739.5,84.8z"/>
	<path class="st4" d="M701.9,40l35.1-24.5l11,18l-9.5-11.9L706.8,42l51.2,63.8c-20.6,21.3-41.3,42.5-61.9,63.8
		c-1.7-1.4-3.3-2.7-5-4.1c43.9-39.9,65.8-59.9,65.7-59.9c0,0,0,0,0,0L701.9,40z"/>
	<path class="st3" d="M767.5,141.6c-1.3-1.1,7.5-12.2,12.6-17.9l9.2-10.5l-11.4-18c-4.6-7.3-3.6-9.1-2.9-9.7c0.7-0.6,1.4-1.8,6.9,7
		l13.2,20.8l-11.7,13.3C779.7,130.8,768.7,142.7,767.5,141.6z M769.4,76.1c-0.8,0.3-1.9,3,0.2,6.1c2.1,3.2,3.7,1.4,3.4-0.4
		C772.4,76.7,770.3,75.8,769.4,76.1z"/>
</g>
<g>
	<path class="st0" d="M49.3,68.1c11.7,10.4,29.2,8,30,13.6c0.1,0.7-0.6,0.8-6.2,8.5c-0.8,1.1-9,11.5-8.3,12c3.2,2.6,6.3,5.3,9.4,7.9
		c12.4,10.4,24.8,20.8,37.1,31.1c4.6,3.9,9.2,7.7,13.8,11.6c0.9,0.7,1.8,1.5,2.7,2.2c3.4,2.8,2.4,8.1,2.3,12c-0.1,2.3,0.5,5-1.4,6.8
		c-0.3,0.3-0.6,0.6-1,0.9c-2,1.9-4,3.8-6,5.7c-6,5.6-11.9,11.2-17.9,16.9c-2.9,2.7-8.7,10.4-13,5.7c-1.7-1.8-3.3-3.7-5-5.5
		c-3.7-4-18.8-20.7-27.5-30.4c-7.5-8.3-19.3-22.9-36.6-48.8c9.4-25.1,20.9-52,27.1-50.5C48.8,67.9,49,67.8,49.3,68.1z"/>
	<path class="st1" d="M74,21c0.2,17.7-4.9,26.8-9.8,31.9c-3.7,3.8-9.1,7.2-8.3,10.3c0.8,2.8,6.3,3.9,10.8,4.3c0,0,13.2,4.5,14.2,9.5
		c0.1,0.7,0.1,1.4,0.1,1.4c-0.1,0.8-0.4,1.5-0.9,2.2l-20.7,28.5l69.1,57.9c1,0.9,1.6,2.1,1.6,3.4c0.1,1.3-0.5,2.6-1.4,3.5
		l-31.3,29.5c-0.9,0.9-2.1,1.3-3.4,1.3c-1.2-0.1-2.4-0.6-3.3-1.5c-26.4-27.8-52.8-55.5-79.2-83.3C32.3,86.9,53.2,53.9,74,21z"/>
	<path class="st2" d="M94.2,200l31.3-29.5l-72.4-60.7l23.3-32.1c-18.9,13.7-37.8,27.3-56.7,41C44.5,145.8,69.3,172.9,94.2,200z"/>
	<path class="st3" d="M76,129l49.5,41.5L94.2,200c-13.3-14.5-26.5-28.9-39.8-43.4c1.6-4.2,4.4-9.9,9.2-15.9
		C67.9,135.2,72.5,131.5,76,129z"/>
	<path class="st4" d="M125.4,170.5L94.2,200c-16.3-17.5-24.3-26.4-24-26.7c0.2-0.2,7.3,6.6,21.1,20.6l28.6-24.8l-68-59.3l20.3-32.1
		l-13-10.8l17.3,11c0,0-23.6,32.4-23.3,32.1L125.4,170.5z"/>
	<path class="st0" d="M89.8,134.3c-1.7-1.8-4.2-4.4-7.5-7.4c-6.7-6.1-11.9-8.4-10.2-10.5c2.4-2.9,4.8-5.7,7.1-8.5
		c9.4-11.2,18.8-22.4,28.2-33.6c3.5-4.2,7-8.3,10.5-12.5c0.7-0.8,1.4-1.6,2-2.4c2.6-3.1,0.6-8-0.3-11.6c-0.5-2.2-0.6-4.8-2.7-6.3
		c-0.3-0.3-0.7-0.5-1.1-0.8c-2.3-1.6-4.5-3.2-6.8-4.7c-6.7-4.7-13.4-9.3-20.1-14c-3.3-2.3-10.2-8.9-13.3-4c-1.2,1.9-2.3,3.8-3.5,5.8
		c-6.5,10.6-13,21.2-19.4,31.9C40.5,75.8,28.3,95.8,16,115.9c-0.2,0.3-0.3,0.5-0.4,0.8C15.1,117.9,76.3,146,89.8,134.3z"/>
	<path class="st1" d="M65.7,110.6L118.2,48c0.7-0.9,1.1-2.2,0.8-3.4c-0.2-1.3-1-2.4-2.1-3.2L81.8,17c-1-0.7-2.3-1-3.4-0.8
		c-1.1,0.2-2.1,0.8-2.7,1.8l-59.8,98.2c-1,1.6-0.7,3.9,0.7,5.4l40.6,44.3c0,0,0,0,0,0c0,0,10.9-10.5,32.7-31.5
		C81.8,126.4,73.7,118.5,65.7,110.6z"/>
	<polygon class="st2" points="79.5,20.5 114.7,45 59.7,110.6 87.9,138.4 60.3,163 19.7,118.7 	"/>
	<path class="st3" d="M77.1,89.8L114.7,45L79.5,20.5L48.2,71.9C58.4,76.8,68.2,83.1,77.1,89.8z"/>
	<path class="st4" d="M114.7,45L79.5,20.5l-11,18l9.5-11.9L109.8,47l-51.2,63.8c20.6,21.3,41.3,42.5,61.9,63.8
		c1.7-1.4,3.3-2.7,5-4.1c-43.9-39.9-65.8-59.9-65.7-59.9c0,0,0,0,0,0L114.7,45z"/>
	<path class="st3" d="M49.1,146.6c1.3-1.1-7.5-12.2-12.6-17.9l-9.2-10.5l11.4-18c4.6-7.3,3.6-9.1,2.9-9.7c-0.7-0.6-1.4-1.8-6.9,7
		l-13.2,20.8l11.7,13.3C36.9,135.8,47.9,147.7,49.1,146.6z M47.2,81.1c0.8,0.3,1.9,3-0.2,6.1c-2.1,3.2-3.7,1.4-3.4-0.4
		C44.2,81.7,46.3,80.8,47.2,81.1z"/>
</g>
<path class="st0" d="M645.1,312.5c-156.9,0.4-313.7,0.9-470.6,1.3c-1.4-0.2-3.1-0.6-5.2-1.3c-0.8-0.2-5.3-1.7-9.7-4.7
	c-10.3-6.9-14.1-17.9-14.3-18.6c-2.1-6.8-1.7-12.5-1.5-15.2c0.4-3.8,0.9-3.7,2-9.8c2-10.9,0.6-13.4,3-16.7c1.7-2.4,5.3-5,13.5-5.4
	c287.1,12,409.6,9.4,445,0.1c5.4-1.4,30.9-8.8,43.3,3.3c6.5,6.4,7.9,19.2,10.5,44.7c0.2,1.6,0.5,5.6-0.9,10.3
	c-0.6,1.8-1.7,5.4-4.7,8.1C655.7,308.5,651.9,312.4,645.1,312.5z"/>
<path class="st1" d="M641.6,296.9c-160.5,0.6-321.1,1.2-481.6,1.8c-2.8-0.6-11.4,1.9-13-1.3c-1.1-2.3-1.7-5.7-2.8-12.6
	c-1.1-6.5-1.3-9.9-3-27.5c-1.3-14.1-1.7-17.1-1.2-20.4c0.9-5.6,3.4-6.4,4.4-6.5c162.7,0,325.5,0,488.2,0c0.7-0.1,1.8,0,3.1,1.1
	c0.9,0.8,2.3,2,3.4,5.5c1,3.1,1.4,6.7,1.7,9.9c0.8,7.2,1.8,13.6,3.7,26.4c2,12.9,3.4,18.4,2.8,20.9
	C647.3,295.7,642.3,296.4,641.6,296.9z"/>
<path class="st4" d="M148.8,286.6c164.7,0,329.3,0,494,0c-2.5-15.4-5-30.9-7.5-46.3c-163.9,0-327.8,0-491.6,0
	C145.4,255.7,147.1,271.1,148.8,286.6z"/>
<path class="st2" d="M152.9,280.8c163.3,1.9,326.6,3.8,489.9,5.8c-2.5-15.4-5-30.9-7.5-46.3c-162.5,1.1-325,2.2-487.5,3.3
	C149.5,256,151.2,268.4,152.9,280.8z"/>
<path class="st3" d="M149.7,281.9c68.2,1.6,136.5,3.1,204.7,4.7c3.7-14.3,6-19.2,7.5-20.9c0.4-0.5,9.6-19.6,10.6-23.7
	c-75,0.9-150,1.7-225,2.6C148.2,257.1,149,269.5,149.7,281.9z"/>
<path class="st5" d="M392,277.7c0,1.4,2.5,2.2,4.7,2.7c81.2,0.7,162.4,1.4,243.6,2c-2.4-11.7-4.9-23.5-7.3-35.2
	c-0.2,8.6-0.3,17.1-0.5,25.7c-146.5,2.2-226.2-1.4-232.6-0.2C396.2,273.5,392,275.9,392,277.7z"/>
<path class="st5" d="M379.5,272.7c0-0.3,0.1-0.6,0.2-1c1.3-4.8,6.5-4.3,9.1,0.4c4,7.1-4.6,9.5-7.3,7.5
	C379.6,278.2,379,275.4,379.5,272.7z"/>
<g>
	<path class="st0" d="M385.5,166.1c-0.2-1.1-1.1-1.4-1.9-1.9c-0.3-0.3-0.8-0.5-1.1-0.8c-0.5-0.4-0.8-0.8-1.5-0.8
		c-2,0-4.1,0.3-6.1,0.4c-0.8,0.1-1.6,0.1-2.4,0.2c-1.1,0.1-1.4,1.1-1.4,2c0.2,2.3,0.1,4.6,0,6.9c0.2,1.2,0.1,2.5,0,3.7
		c0,0.2,0,0.5-0.1,0.7c0.2,3.5-0.9,7.1-4.4,8c-0.6,0.2-1.2,0.2-1.7-0.1c-0.5-0.1-0.7-0.2-1-0.7c-0.1-0.1-0.1-0.2-0.2-0.4
		c-0.4-0.6-0.7-1.3-0.7-2c-0.2-0.8-0.4-1.7-0.5-2.6c-0.3-2.2-0.4-4.3-0.3-6.5c0.1-2.6,0.3-5.3,0.8-7.9c0.1-0.7,0-1.4-0.5-1.9
		c-0.3-0.4-0.9-0.7-1.3-1c-0.5-0.4-1-0.8-1.6-1.1c-0.6-0.6-1.5-0.4-2.2-0.4c-2.5,0.2-5,0.4-7.4,0.6c-1,0.1-1.9,0.2-2.9,0.2
		c-1.3,0.1-1.8,0.8-1.9,2.1c-0.1,8.9-0.4,18,1.3,26.8c0.7,3.4,1.7,6.9,3.7,9.7c1.3,1.9,2.5,3.9,4.3,5.4c1.7,1.4,3.8,2.3,6.1,2.8
		c-0.7-0.1-3-0.6,0,0c0.2,0,0.2,0,0,0c4.7,0.9,9.4-0.4,12.8-3.8c0.2,0.4,0.6,0.9,0.9,1.2c0.2,0.4,0.5,0.8,0.8,1.1
		c0.4,0.4,1,0.5,1.6,0.5c1.2-0.1,2.3-0.1,3.5-0.1c1.2,0,2.4,0,3-1.2c0.2-0.4,0.2-0.8,0.3-1.3c0.2-3.5,0.4-6.9,0.5-10.4
		c0.5-8.9,0.9-17.9,1.4-26.8C385.5,166.8,385.6,166.5,385.5,166.1z"/>
	<path class="st1" d="M358.4,204.9c1,0.2,2,0.3,3,0.3c5.2,0,8.8-2.9,11.1-6.1l0.2,3.4c0.1,0.8,0.7,1.4,1.5,1.4l5-0.2
		c0.8,0,1.4-0.6,1.4-1.4l2-38.1c0-0.4-0.1-0.8-0.4-1.1c-0.3-0.3-0.7-0.5-1.1-0.4l-8.5,0.6c-0.4,0-0.8,0.2-1.1,0.6
		c-0.3,0.3-0.4,0.7-0.3,1.1c0,0,0.6,4.1-0.4,13.3c-0.5,4.3-2.9,6.3-5.2,6.3l0,0c-1.8,0-4.2-1.2-5.2-4.8c-2.2-7.9-0.2-17.8-0.2-17.9
		c0.1-0.5,0-0.9-0.3-1.3c-0.3-0.4-0.8-0.5-1.2-0.5l-11.9,1c-0.8,0.1-1.3,0.7-1.4,1.5C344.9,185.8,345.6,202.5,358.4,204.9z"/>
	<path class="st2" d="M372.6,164.7l8.5-0.6l-2,38.1l-5,0.2l-0.6-8.9c0,0-3.4,12.1-14.9,9.9c-11.5-2.2-12.3-17.9-11.9-40.9l11.9-1
		c0,0-2.2,10.3,0.2,18.7c2.4,8.3,12.3,7.7,13.3-1.8C373.1,168.9,372.6,164.7,372.6,164.7z"/>
	<g class="st6">
		<path class="st2" d="M347.6,176.8c3.5-0.6,7-0.8,10.5-0.7c-0.9-7.3,0.6-14.5,0.6-14.5l-11.9,1c-0.1,5.2-0.1,10,0,14.4
			C347.1,176.9,347.3,176.9,347.6,176.8z"/>
	</g>
	<g class="st6">
		<path class="st2" d="M372.1,178.5c0.6,0.2,1.2,0.4,1.8,0.6c2.1,0.8,4.2,1.7,6.3,2.6l0.9-17.6l-8.5,0.6
			C372.6,164.7,373.1,168.9,372.1,178.5C372.2,178.5,372.1,178.5,372.1,178.5z"/>
	</g>
	<g>
		<path class="st4" d="M346.8,162.6c0,1.8-0.1,3.6-0.1,5.3l0.3-3.8l10.5-0.2c-0.4,2.2,0.1,12.3,0.5,12.3c-0.9-7.3,0.6-14.5,0.6-14.5
			L346.8,162.6z"/>
	</g>
	<g>
		<path class="st4" d="M373.5,166.2l6.6-0.5c0,0-0.2,15.9,0,16l0.9-17.6l-8.5,0.6c0,0,0.3,2.1,0.1,6.6
			C372.6,173.3,373.6,167.8,373.5,166.2z"/>
	</g>
	<path class="st4" d="M358.4,178.2c0,0,1,6.1,5.5,7.4c4.5,1.3,7.3-2.8,7.8-4.8c0,0-2.6,6.5-7.2,5.9
		C358.6,186,358.4,178.2,358.4,178.2z"/>
	<path class="st7" d="M362.8,202.1c0-0.1-0.3-0.3-0.7-0.3c-0.2,0-0.5-0.1-0.7-0.1c-0.3-0.1-0.6-0.1-0.9-0.2
		c-1.3-0.2-2.7-0.7-3.7-1.2c-1-0.4-2.8-1.7-4-3.7c-1.3-1.9-1.9-4.3-2.2-5.6c-0.1-0.3-0.1-0.6-0.2-0.9c-0.1-0.3-0.1-0.5-0.2-0.7
		c-0.1-0.4-0.2-0.7-0.4-0.9c-0.2-0.4-0.5-0.5-0.6-0.5c-0.2,0-0.3,0-0.4,0.4c0,0.2-0.1,0.5,0,1c0,0.5,0.1,1.1,0.3,2
		c0.4,1.7,1.1,4,2.4,6.1c1.2,2.1,3.2,3.6,4.8,4.3c0.2,0.1,0.5,0.2,0.7,0.3c0.3,0.1,0.6,0.2,1,0.3c0.7,0.2,1.5,0.3,2.3,0.3
		c0.7,0,1.4,0,1.9-0.2C362.6,202.4,362.9,202.3,362.8,202.1z M348.8,184.5c0.3-0.1,1.1,0.4,1.1,1.6c0.1,1.2-0.7,1.1-1,0.6
		C348.1,185.3,348.5,184.6,348.8,184.5z"/>
	<path class="st7" d="M375.4,201.6c0,0.1,0.3,0.2,0.8,0.2c0.2,0,0.5,0,0.8,0c0.1,0,0.3,0,0.5,0c0.3,0,0.6-0.1,0.8-0.1
		c0.1-0.5,0.1-1,0.2-1.5c0-0.4,0.1-0.7,0.1-1c0.1-1.6,0.5-6.7,0.6-8.7c0.1-2-0.2-2.3-0.4-2.3c-0.2,0-0.4-0.2-0.6,2.2
		c-0.2,2.4-0.4,6.5-0.6,8.7c0,0.2,0,0.5,0,0.9c0,0.2,0,0.4,0,0.6l0,0.1c0,0.1,0,0,0,0l0,0c0,0,0,0-0.1,0c-0.2,0-0.3,0.1-0.4,0.1
		c-0.3,0.1-0.6,0.1-0.8,0.2C375.7,201.4,375.4,201.5,375.4,201.6z M378.9,185.7c0.2,0,0.7,0.4,0.6,1.3c-0.1,0.9-0.6,0.7-0.7,0.3
		C378.4,186.1,378.7,185.7,378.9,185.7z"/>
</g>
<g>
	<path class="st0" d="M416.2,162c-1.7-1.2-3.4-2.4-5.2-3.2c-1.9-0.9-4-1.4-6.1-1.7c-4.7-0.6-9.6,0.1-14,1.9c-1.4,0.6-1.1,1.6-1,2.8
		c0.2,1.4,0.3,2.8,0.5,4.2c1.1,9.5,2.1,19.1,3.2,28.6c0.3,2.6,0.6,5.2,0.9,7.8c0,0,0,0.1,0,0.1c0,0.4,0.4,1,0.7,1.3
		c0.2,0.5,0.7,1,1,1.5c0.8,1.1,1.6,1.4,2.8,1.1c2.2-0.5,4.4-1,6.6-1.5c1.1-0.2,2.6-0.3,3.5-0.9c1.4-0.9,0.8-2.5,0.6-3.8
		c-0.5-2.9-1.1-5.8-1.6-8.8c3.7-0.2,7.2-1.4,10.2-3.5c2.7-1.9,4.4-4.8,5.2-7.9C425.2,173.2,422,165.8,416.2,162
		C416,161.9,419.6,164.3,416.2,162z M405.5,176c-0.1,0.2-0.2,0.3-0.3,0.4c-0.2-0.9-0.3-1.8-0.5-2.7c0.4,0.1,1.1,0.2,1.1,0.7
		C405.9,174.9,405.8,175.5,405.5,176C405.4,176.1,405.8,175.4,405.5,176z"/>
	<path class="st1" d="M401.5,156.9c-1.2,0-2.4,0.1-3.6,0.2c-2.6,0.3-5,1-7.4,2c-0.6,0.2-0.9,0.8-0.8,1.5l4.7,42c0,0.4,0.3,0.8,0.6,1
		c0.2,0.2,0.5,0.3,0.8,0.3c0.1,0,0.2,0,0.3,0l9.9-2.3c0.7-0.2,1.2-0.9,1.1-1.6l-2.1-11.2c0.1,0,0.2,0,0.4,0c4-0.2,7.4-1.4,10.4-3.6
		c4.4-3.3,6.3-9.6,4.7-15.4C418.2,161.7,411.1,156.9,401.5,156.9z M403.1,177.7l-1.3-6.9c1.9,0.2,3.2,1,3.8,2.4
		c0.4,0.9,0.4,1.9-0.1,2.9c-0.4,0.9-1.1,1.5-1.9,1.7C403.4,177.7,403.3,177.7,403.1,177.7z"/>
	<path class="st2" d="M419.2,170.1c-2.7-9.5-12.1-12.8-21-11.6c-2.4,0.3-4.8,1-7,1.9l1.1,10.2l3.6,31.8l9.9-2.3l-2.3-12.8
		c0.7,0,1.3,0,2-0.1c3.5-0.2,6.7-1.2,9.6-3.3C419.2,180.9,420.6,175,419.2,170.1z M403.9,179c-0.6,0.2-1.3,0.1-2-0.1l-1.8-9.6
		c2.7-0.1,5.5,0.5,6.8,3.2C408,175,406.6,178.3,403.9,179z"/>
	<path class="st3" d="M392.7,174.1c2.7-0.4,5.4-0.6,8.2-0.6l-0.8-4.2c2.7-0.1,5.5,0.5,6.8,3.2c0.2,0.4,0.3,0.7,0.3,1.1
		c4.2,0.3,8.3,0.9,12.4,1.8c0.2-1.8,0-3.6-0.5-5.3c-2.7-9.5-12.1-12.8-21-11.6c-2.4,0.3-4.8,1-7,1.9l1.1,10.2L392.7,174.1z"/>
	<path class="st4" d="M398.1,158.5c-2.4,0.3-4.8,1-7,1.9l1.1,10.2l-0.2-8.6c2-0.8,4-1.3,6.2-1.6c1.1-0.1,2.2-0.2,3.3-0.2
		c8.5,0,15.3,3.8,17.3,10.8c0.3,1.2,0.6,1.9,0.8,4.4c0.2-1.8,0-3.6-0.5-5.3C416.5,160.7,407.1,157.3,398.1,158.5z"/>
	<path class="st4" d="M400.3,170.3l1.6,8.5c0,0,2.1,0.9,3.9-0.9c1.9-1.8,1.4-4.6,1.4-4.6s1.7,5-2.9,6.3c-1.1,0.3-2.7,0-2.7,0
		L400.3,170.3z"/>
	<path class="st3" d="M404.8,186c0,0.3,0.7,0.5,1.6,0.4c0.9,0,1.9-0.2,2.7-0.4c0.7-0.2,2.2-0.7,3.6-1.5c1.4-0.8,2.7-1.9,3.3-2.6
		c0.3-0.4,0.5-0.7,0.6-1c0.1-0.3,0.1-0.5,0.1-0.7c0-0.3-0.2-0.5-0.3-0.5c-0.1-0.1-0.3-0.2-0.5,0c-0.2,0.1-0.4,0.5-1.1,1.3
		c-0.6,0.8-1.7,1.6-2.9,2.3c-1.2,0.7-2.4,1.2-3.4,1.4c-0.5,0.2-1.4,0.4-2.2,0.7C405.5,185.5,404.8,185.7,404.8,186z M416.7,177.4
		c0.1,0,0.4,0,0.6,0.2c0.2,0.2,0.4,0.5,0.3,1c-0.3,0.9-0.9,0.5-1,0.1c-0.2-0.5-0.3-0.8-0.2-1C416.4,177.6,416.6,177.5,416.7,177.4z"
		/>
	<path class="st3" d="M397,200.9c0.1,0.5,2.8,0.1,4.2-0.2l3.8-0.9l-0.7-5.1c-0.3-1.8-0.8-1.9-1.1-1.9c-0.3,0-0.7-0.1-0.4,2.1
		l0.5,3.8l-2.6,0.6C399.8,199.5,396.8,200.3,397,200.9z M402.8,190.5c0.3-0.1,1,0.2,1.1,0.9c0.1,0.8-0.6,0.8-0.9,0.5
		C402.2,191,402.5,190.5,402.8,190.5z"/>
</g>
<g>
	<path class="st0" d="M519.9,83.6c-0.6,0.6-0.5,1.6-0.5,2.4c0,1.3,0.1,2.6,0.1,3.9c0,2.3,0.1,4.7,0.1,7c0,0.6,0.3,1,0.6,1.5
		c0.7,0.9,1.3,2.3,2.2,3c1,0.8,2.8,0.5,4,0.5c0.7,0,0.6,0,0.6,0.7c0,1,0.1,1.9,0.1,2.9c0.2,4.9,0.4,9.9,0.6,14.8
		c0,0.4-1.3,0.3-1.6,0.3c-1.1,0.1-2.3,0.1-3.4,0.2c-1.4,0.1-1.6,1.4-1.5,2.5c0.1,1.2,0.3,2.3,0.4,3.5c0.3,2.4,0.5,4.8,0.8,7.2
		c0.1,0.6,0.3,1,0.7,1.4c0.3,0.5,0.7,1,1,1.5c0.3,0.5,0.7,1.1,1.2,1.5c0.8,0.6,1.6,0.5,2.5,0.4c5.2-0.7,10.3-1.4,15.5-2.1
		c1.2-0.2,2.9-0.1,4-0.7c1.9-0.9,1.3-4.1,1.2-5.8c0-2.1-0.1-4.2-0.1-6.3c0-1.8-1.7-2.1-2.8-3.1c-0.5-0.5-1.5-1.2-2.2-1.2
		c-0.4,0-0.9,0-1.3,0.1c0.2-4.5,0.3-9.1,0.5-13.6c0-1.1,0.1-2.1,0.1-3.2c0-0.3-0.1-1,0.2-1c1.2,0,2.4,0,3.6,0c1.6,0,2.4-1.3,2.4-2.7
		c0-2.4-0.1-4.7-0.1-7.1c0-1.3-0.1-2.6-0.1-3.9c0-0.8,0.1-1.7-0.4-2.5c-0.3-0.4-3.4-2.8-4.3-2.9c-0.4-0.1-0.9,0-1.3,0
		c-2.3,0-4.6,0-7,0.1c-3.3,0-6.7,0.1-10,0.1c-1.2,0-2.3,0-3.5,0C521.4,83,520.5,82.9,519.9,83.6C519.6,83.9,520.2,83.2,519.9,83.6z"
		/>
	<path class="st1" d="M519.9,83.6c-0.3,0.3-0.5,0.7-0.5,1.2l0.2,12.3c0,0.9,0.7,1.6,1.6,1.6h5.6l0.9,21.9l-5.1,0.3
		c-0.5,0-0.9,0.2-1.2,0.6c-0.3,0.3-0.4,0.8-0.4,1.3l1.3,11.6c0.1,0.4,0.3,0.8,0.6,1.1c0.3,0.2,0.6,0.3,1,0.3c0.1,0,0.1,0,0.2,0
		l19.5-2.6c0.8-0.1,1.4-0.8,1.4-1.7l-0.2-10.1c0-0.4-0.2-0.9-0.5-1.2c-0.3-0.3-0.8-0.5-1.2-0.4l-4.7,0.3l0.7-21.3h4.5h0
		c0.9,0,1.6-0.7,1.6-1.6c0-0.1,0-0.2,0-0.2l-0.2-12.3c0-0.9-0.7-1.6-1.7-1.6L521.1,83C520.7,83,520.2,83.2,519.9,83.6z"/>
	<polygon class="st2" points="536.9,121.6 537.8,97 543.9,97 543.7,84.5 521.1,84.7 521.3,97 528.5,97 529.6,122 522.9,122.4 
		524.2,134 543.7,131.4 543.5,121.3 	"/>
	<g class="st6">
		<path class="st2" d="M528.5,97l0.4,9.8c2.8,0.2,5.7,0.4,8.5,0.6l0.4-10.5h6.1l-0.2-12.5l-22.6,0.2l0.2,12.3H528.5z"/>
	</g>
	<g>
		<polygon class="st4" points="522.1,86.3 543.4,86.1 543.8,90.7 543.7,84.5 521.1,84.7 521.3,93.1 		"/>
	</g>
	<polygon class="st4" points="529.5,120.2 529.9,122.8 523.7,123.5 523.8,131.1 522.9,122.4 529.5,121.9 	"/>
	<polygon class="st4" points="537,120.2 536.8,122.2 543.1,122.1 543.7,130.8 543.5,121.3 537.1,121.5 	"/>
	<path class="st7" d="M524.9,132.4c0.1,0.6,3.9,0.3,5.9,0c2-0.3,8.3-1.3,10.7-1.7c0.5-0.1,1-0.2,1.4-0.2c0-0.5,0-0.9,0-1.2
		c0-0.2,0-0.3,0-0.3c0-0.1,0-0.2-0.1-0.2c-0.1-0.3-0.1-0.5-0.2-0.6c-0.2-0.3-0.4-0.4-0.5-0.4c-0.1,0-0.3-0.1-0.5,0.2
		c-0.1,0.1-0.1,0.3-0.2,0.6c0,0.2-0.1,0.3-0.1,0.5c0,0,0,0,0,0c0,0,0,0,0,0c-3,0.5-8.1,1.3-10.8,1.7
		C529.1,130.9,524.8,131.8,524.9,132.4z M542,124.5c0.3-0.1,1.1,0.4,1.1,1.5c-0.1,1.1-0.9,0.9-1.1,0.4
		C541.2,125.1,541.7,124.5,542,124.5z"/>
</g>
<g>
	<path class="st0" d="M665.8,127.5c0.1,0.9,1.1,2,1.6,2.7c0.7,1,1.3,2,2.7,1.9c0.6-0.1,1.2-0.3,1.7-0.4c2.6-0.6,5.2-1.2,7.8-1.8
		c1.7-0.4,4.9-0.5,5.1-2.8c0.1-1-0.3-2.2-0.4-3.2c-1.4-8.9-2.8-17.7-4.1-26.6c0,0,0,0,0-0.1c4.2,0.2,8.4,0.4,12.6,0.7
		c0.9,0,1.7-0.1,2.3-0.9c0.5-0.7,0.4-1.6,0.3-2.5c-0.2-2.6-0.3-5.1-0.5-7.7c-0.1-1.1-0.1-2.3-0.2-3.4c-0.1-1-0.1-1.9-1-2.5
		c-0.9-0.6-1.9-1.3-2.8-1.9c-0.3-0.2-0.7-0.3-1.1-0.3c-0.4,0-0.7,0-1.1,0.1c-4.2,0.2-8.5,0.5-12.7,0.7c-5.6,0.3-11.1,0.6-16.7,0.9
		c-2,0.1-3.9,0.2-5.9,0.3c-0.8,0-2.1-0.1-2.8,0.4c-0.9,0.6-0.7,1.6-0.6,2.5c0.2,1.2,0.4,2.3,0.5,3.4c0.4,2.5,0.7,4.9,1.1,7.4
		c0.2,1.2,1,2.1,1.7,3.1c0.6,0.9,1.2,1.9,2.5,1.9c0.3,0,0.6-0.1,0.9-0.1c2.4-0.4,4.8-0.8,7.2-1.2c0.1,0,0.2,0,0.4-0.1
		c0.5,8.7,0.9,17.4,1.4,26.1C665.7,125.2,665.7,126.3,665.8,127.5z"/>
	<path class="st1" d="M665.8,127.5c0,0.5,0.3,0.9,0.6,1.2c0.3,0.2,0.6,0.3,0.9,0.3c0.1,0,0.2,0,0.3,0l12.7-2.9
		c0.8-0.2,1.3-1,1.2-1.8l-4.7-30.2l13.7,0.7c0,0,0.1,0,0.1,0h0c0.9,0,1.6-0.7,1.6-1.6c0-0.1,0-0.2,0-0.3l-0.8-12.7
		c-0.1-0.9-0.8-1.5-1.6-1.5l-38.5,2.1c-0.4,0-0.8,0.2-1.1,0.6c-0.3,0.3-0.4,0.8-0.3,1.2l1.9,12.3c0.1,0.4,0.3,0.8,0.6,1
		c0.3,0.2,0.8,0.3,1.2,0.3l10.6-1.8L665.8,127.5z"/>
	<polygon class="st2" points="651.3,82.4 653.2,94.7 665.5,92.6 667.3,127.4 680.1,124.5 675.1,92.4 690.7,93.2 689.8,80.3 	"/>
	<path class="st3" d="M665.5,92.6l0.6,10.5c3.6,0.1,7.1-0.1,10.6-0.5l-1.6-10.2l15.6,0.8l-0.8-12.9l-38.5,2.1l1.9,12.3L665.5,92.6z"
		/>
	<polygon class="st4" points="689.8,80.3 651.3,82.4 652.2,88.2 652.4,84.5 689,82.6 690.5,90.9 	"/>
	<path class="st5" d="M678.2,124c-0.1-0.6-5-0.2-7.7,0.1l-1.1,0.1l-0.8-11.5c-0.2-3.3-0.9-3.6-1.2-3.6c-0.3,0-0.7-0.2-0.4,3.8
		l1,13.2l2.8-0.4C672.7,125.5,678.3,124.6,678.2,124z M667,105c0.3-0.1,1.1,0.5,1.2,1.9c0.1,1.5-0.7,1.3-1,0.7
		C666.3,105.9,666.7,105.1,667,105z"/>
</g>
<g>
	<path class="st1" d="M632.2,95.7c-0.7,0-1.2,0.7-1.2,1.4c0,2.1-0.1,4.3-0.1,6.4c-5.7,0.2-11.3,0.4-17,0.5c0-1.8-0.1-3.6-0.1-5.4
		c0-0.4-0.2-0.7-0.5-1c-0.3-0.2-0.6-0.4-1-0.3c-2.1,0.3-4.1,0.6-6.2,0.9c-0.1,2.6-0.1,5.6,0.3,9c0.4,4.2,1.2,7.8,2,10.7
		c1.7-0.1,3.5-0.1,5.2-0.2c0.3,0,0.7-0.2,0.9-0.5c0.2-0.3,0.1-5.1,0.1-5.1l16.6,0.3l0.1,3.9l0,0c0,0.8,0.6,1.4,1.3,1.4
		c0.1,0,0.1,0,0.2,0L632.2,95.7z"/>
	<g>
		<polygon class="st4" points="640.5,97.6 640.9,115.8 637.3,116.2 642.2,116.1 641.7,96.8 635.2,97 		"/>
	</g>
	<path class="st7" d="M604.7,100.7c-0.5,0.1-0.2,3.3,0.1,5c0.3,1.7,1.1,7,1.5,9.2c0.1,0.4,0.1,0.9,0.2,1.2c0.4,0,0.7,0,1,0
		c0.2,0,0.2,0,0.3,0c0.1,0,0.1,0,0.2,0c0.2-0.1,0.4-0.1,0.5-0.2c0.2-0.2,0.3-0.3,0.3-0.5c0-0.1,0-0.3-0.1-0.4
		c-0.1-0.1-0.2-0.1-0.5-0.2c-0.1,0-0.3,0-0.4-0.1c0,0,0,0,0,0c0,0,0,0,0,0c-0.4-2.5-1.1-6.9-1.5-9.2
		C605.9,104.2,605.2,100.6,604.7,100.7z M611.1,115.2c0,0.3-0.3,1-1.2,0.9c-0.9,0-0.7-0.7-0.4-1C610.6,114.5,611,114.9,611.1,115.2z
		"/>
	<path class="st0" d="M597.1,82c-0.4,0.4-0.4,1.1-0.4,2.2c0,1.2,0,2.4,0.1,3.5c0,2.1,0.1,4.3,0.1,6.4c0,0.6,0.2,1,0.5,1.4
		c0.5,0.9,1,2.1,1.7,2.7c0.8,0.7,2.1,0.5,3.1,0.5c0.5,0,0.4,0,0.5,0.7c0,0.9,0.1,1.8,0.1,2.6c0.2,4.5,0.3,9,0.5,13.4
		c0,0.4-1,0.2-1.3,0.3c-0.9,0.1-1.8,0.1-2.7,0.2c-1.1,0.1-1.2,1.3-1.1,2.3c0.1,1.1,0.2,2.1,0.3,3.2c0.2,2.2,0.4,4.4,0.6,6.6
		c0.1,0.5,0.3,0.9,0.5,1.3c0.3,0.5,0.5,0.9,0.8,1.4c0.3,0.5,0.5,1,0.9,1.4c0.6,0.5,1.3,0.4,1.9,0.3c4-0.6,8-1.3,12-1.9
		c0.9-0.2,2.2-0.1,3.1-0.6c1.5-0.8,1-3.7,0.9-5.3c0-1.9-0.1-3.8-0.1-5.8c0-1.2-0.8-1.2-2.2-2.9c-1.2-1.5-2-2.8-2.4-3.7
		c5.5,0.1,11,0.2,16.6,0.3c0.4-0.1,0.8-0.2,1.2-0.4c-6-2.1-11.9-4.1-17.9-6.2c0-0.8,0.2-2.1,0.2-3.4c0-0.2,0.1-1.1,0.1-2.9
		c0-0.2-0.1-0.9,0.2-0.9c0.9,0,1.9,0,2.8,0c1.3,0,1.9-1.1,1.9-2.5c0-2.2-0.1-4.3-0.1-6.5c0-1.2,0-2.4-0.1-3.5c0-0.8,0.1-1.6-0.3-2.2
		c-0.2-0.3-2.7-2.6-3.3-2.7c-0.3-0.1-0.7,0-1,0c-1.8,0-3.6,0-5.4,0.1c-2.6,0-5.2,0.1-7.8,0.1c-0.5,0-1.2,0-2.7,0
		C597.8,81.6,597.4,81.7,597.1,82z"/>
	<path class="st1" d="M597.1,82c-0.2,0.3-0.4,0.7-0.4,1.1l0.2,11.2c0,0.8,0.6,1.5,1.3,1.5h4.3l0.7,19.9l-4,0.2
		c-0.4,0-0.7,0.2-0.9,0.5c-0.2,0.3-0.3,0.7-0.3,1.1l1,10.6c0,0.4,0.2,0.8,0.5,1c0.2,0.2,0.5,0.3,0.8,0.3c0.1,0,0.1,0,0.2,0l15.2-2.4
		c0.6-0.1,1.1-0.8,1.1-1.5l-0.2-9.2c0-0.4-0.2-0.8-0.4-1.1c-0.3-0.3-0.6-0.4-0.9-0.4l-3.7,0.2l0.6-19.4h3.5h0c0.7,0,1.3-0.7,1.3-1.5
		c0-0.1,0-0.1,0-0.2l-0.2-11.2c0-0.8-0.6-1.5-1.3-1.5L598,81.6C597.6,81.6,597.3,81.8,597.1,82z"/>
	<polygon class="st2" points="610.3,116.7 610.9,94.3 615.7,94.3 615.5,82.9 598,83.1 598.1,94.3 603.7,94.3 604.6,117.1 
		599.3,117.4 600.4,128 615.5,125.6 615.4,116.4 	"/>
	<g class="st6">
		<path class="st2" d="M603.7,94.3l0.3,9c2.2,0.1,4.4,0.3,6.6,0.6l0.3-9.6h4.7l-0.2-11.4L598,83.1l0.2,11.2H603.7z"/>
	</g>
	<g>
		<polygon class="st4" points="598.8,84.6 615.3,84.4 615.6,88.6 615.5,82.9 598,83.1 598.1,90.8 		"/>
	</g>
	<polygon class="st4" points="604.5,115.5 604.8,117.8 600,118.4 600.1,125.3 599.3,117.4 604.5,117 	"/>
	<polygon class="st4" points="610.3,115.5 610.2,117.3 615.1,117.1 615.5,125 615.4,116.4 610.4,116.6 	"/>
	<path class="st7" d="M600.9,126.5c0.1,0.6,3,0.3,4.6,0c1.6-0.3,6.4-1.2,8.4-1.6c0.4-0.1,0.8-0.2,1.1-0.2c0-0.4,0-0.8,0-1.1
		c0-0.2,0-0.2,0-0.3c0-0.1,0-0.1,0-0.2c0-0.3-0.1-0.4-0.2-0.6c-0.1-0.3-0.3-0.3-0.4-0.3c-0.1,0-0.2-0.1-0.4,0.2
		c-0.1,0.1-0.1,0.3-0.2,0.6c0,0.1,0,0.3-0.1,0.5c0,0,0,0,0,0c0,0,0,0,0,0c-2.3,0.4-6.3,1.2-8.4,1.6
		C604.2,125.2,600.9,125.9,600.9,126.5z M614.2,119.3c0.2-0.1,0.9,0.4,0.8,1.4c0,1-0.7,0.8-0.9,0.4
		C613.6,119.9,614,119.3,614.2,119.3z"/>
	<path class="st0" d="M625.1,82c-0.5,0.6-0.4,1.5-0.4,2.2c0,1.2,0,2.4,0.1,3.5c0,2.1,0.1,4.3,0.1,6.4c0,0.6,0.2,1,0.5,1.4
		c0.5,0.9,1,2.1,1.7,2.7c0.8,0.7,2.1,0.5,3.1,0.5c0.5,0,0.4,0,0.5,0.7c0,0.9,0.1,1.8,0.1,2.6c0.2,4.5,0.3,9,0.5,13.4
		c0,0.4-1,0.2-1.3,0.3c-0.9,0.1-1.8,0.1-2.7,0.2c-1.1,0.1-1.2,1.3-1.1,2.3c0.1,1.1,0.2,2.1,0.3,3.2c0.2,2.2,0.4,4.4,0.6,6.6
		c0.1,0.5,0.3,0.9,0.5,1.3c0.3,0.5,0.5,0.9,0.8,1.4c0.3,0.5,0.5,1,0.9,1.4c0.6,0.5,1.3,0.4,1.9,0.3c4-0.6,8-1.3,12-1.9
		c0.9-0.2,2.2-0.1,3.1-0.6c1.5-0.8,1-3.7,0.9-5.3c0-1.9-0.1-3.8-0.1-5.8c0-1.6-1.3-1.9-2.2-2.9c-0.4-0.5-1.1-1.1-1.7-1
		c-0.3,0-0.7,0-1,0.1c0.1-4.1,0.2-8.3,0.4-12.4c0-1,0.1-1.9,0.1-2.9c0-0.2-0.1-0.9,0.2-0.9c0.9,0,1.9,0,2.8,0c1.3,0,1.9-1.1,1.9-2.5
		c0-2.2-0.1-4.3-0.1-6.5c0-1.2,0-2.4-0.1-3.5c0-0.8,0.1-1.6-0.3-2.2c-0.2-0.3-2.7-2.6-3.3-2.7c-0.3-0.1-0.7,0-1,0
		c-1.8,0-3.6,0-5.4,0.1c-2.6,0-5.2,0.1-7.8,0.1c-0.9,0-1.8,0-2.7,0C626.2,81.6,625.5,81.5,625.1,82C624.8,82.3,625.3,81.8,625.1,82z
		"/>
	<path class="st1" d="M625.1,82c-0.2,0.3-0.4,0.7-0.4,1.1l0.2,11.2c0,0.8,0.6,1.5,1.3,1.5h4.3c0.1,3.1,0.2,6.3,0.3,9.4
		c-0.2,2.1-0.4,4.2-0.6,6.4c0.7,0.4,1.4,0.8,2.2,1.3c-0.4-0.1-0.9-0.1-1.3-0.2c0,1,0.1,2.1,0.1,3.1c-1.3,0.1-2.6,0.2-4,0.2
		c-0.4,0-0.7,0.2-0.9,0.5c-0.2,0.3-0.3,0.7-0.3,1.1l1,10.6c0,0.4,0.2,0.8,0.5,1c0.2,0.2,0.5,0.3,0.8,0.3c0.1,0,0.1,0,0.2,0l15.2-2.4
		c0.6-0.1,1.1-0.8,1.1-1.5l-0.2-9.2c0-0.4-0.2-0.8-0.4-1.1c-0.3-0.3-0.6-0.4-0.9-0.4l-3.7,0.2l0.6-19.4h3.5h0c0.7,0,1.3-0.7,1.3-1.5
		c0-0.1,0-0.1,0-0.2l-0.2-11.2c0-0.8-0.6-1.5-1.3-1.5L626,81.6C625.6,81.6,625.3,81.8,625.1,82z"/>
	<polygon class="st2" points="638.3,116.7 639,94.3 643.7,94.3 643.5,82.9 626,83.1 626.2,94.3 631.7,94.3 632.6,117.1 627.4,117.4 
		628.4,128 643.5,125.6 643.4,116.4 	"/>
	<g class="st6">
		<path class="st2" d="M631.7,94.3l0.3,9c2.2,0.1,4.4,0.3,6.6,0.6l0.3-9.6h4.7l-0.2-11.4L626,83.1l0.2,11.2H631.7z"/>
	</g>
	<g>
		<polygon class="st4" points="626.8,84.6 643.3,84.4 643.6,88.6 643.5,82.9 626,83.1 626.1,90.8 		"/>
	</g>
	<polygon class="st4" points="632.5,115.5 632.8,117.8 628,118.4 628.1,125.3 627.4,117.4 632.5,117 	"/>
	<polygon class="st4" points="638.3,115.5 638.2,117.3 643.1,117.1 643.5,125 643.4,116.4 638.4,116.6 	"/>
	<path class="st7" d="M629,126.5c0.1,0.6,3,0.3,4.6,0c1.6-0.3,6.4-1.2,8.4-1.6c0.4-0.1,0.8-0.2,1.1-0.2c0-0.4,0-0.8,0-1.1
		c0-0.2,0-0.2,0-0.3c0-0.1,0-0.1,0-0.2c0-0.3-0.1-0.4-0.2-0.6c-0.1-0.3-0.3-0.3-0.4-0.3c-0.1,0-0.2-0.1-0.4,0.2
		c-0.1,0.1-0.1,0.3-0.2,0.6c0,0.1,0,0.3-0.1,0.5c0,0,0,0,0,0c0,0,0,0,0,0c-2.3,0.4-6.3,1.2-8.4,1.6
		C632.2,125.2,628.9,125.9,629,126.5z M642.2,119.3c0.2-0.1,0.9,0.4,0.8,1.4c0,1-0.7,0.8-0.9,0.4C641.6,119.9,642,119.3,642.2,119.3
		z"/>
	<path class="st2" d="M611,110.8c7.1,0.1,14.3,0.3,21.4,0.4c0,1.7,0,3.5,0.1,5.2c1.9,0.1,3.9,0.2,5.8,0.3c0.2-6.6,0.3-13.3,0.5-19.9
		c0,2.3-0.1,4.7-0.1,7c-2.1-0.2-4.3-0.4-6.4-0.6c-0.1,0.6-0.2,1.3-0.3,1.9c-7.1,0-14.3,0.1-21.4,0.1c0.1-0.5,0.1-0.9,0.2-1.4
		c-2.2-0.7-4.4-1.4-6.6-2.1c0,1.7,0,3.5,0,5.2c0.2,2.9,0.3,5.7,0.5,8.6c1.9,0.4,3.9,0.8,5.8,1.3C610.5,114.8,610.7,112.8,611,110.8z
		"/>
</g>
<g>
	<path class="st0" d="M472.8,84.4c0.3,8.3,0.7,16.6,1,24.9c0.2,5.5,0.5,10.9,0.7,16.4c0.1,1.6,0.1,3.3,0.2,4.9c0,0.4,0,0.7,0,1.1
		c0,0,0,0.1,0,0.1c0,0.6,0.3,1,0.6,1.4c0.4,0.5,0.8,1.2,1.2,1.7c0.6,1.3,1.6,1.8,2.9,1.8c1.1,0,2.2-0.1,3.3-0.1
		c2.6-0.1,5.3-0.2,8-0.3c1.2-0.1,2.4-0.3,2.8-1.6c0.3-0.8,0-1.9-0.2-2.7c-0.4-2.6-0.8-5.1-1.2-7.7c0-0.1,0-0.2,0-0.3
		c3.5,2.7,7.1,5.4,10.6,8.1c0.9,0.7,2,1.1,3.1,0.4c0.6-0.4,1-1.1,1.5-1.6c1.8-2.1,3.5-4.3,5.3-6.4c0.7-0.9,1.9-1.9,2.3-3
		c0.2-0.7,0.1-1.3-0.2-1.9c-0.2-0.4-0.6-1.4-1.1-1.6c-0.7-0.3-1.5-0.7-2.2-1c-2.6-1.2-5.2-2.5-7.8-3.7c4-2.2,6.8-5.9,7.8-10.4
		c1-4.4,0-9.2-2.9-12.7c-1.6-1.9-3.6-3.2-5.6-4.6c-2.1-1.5-4.3-2.7-6.8-3.5c-5.1-1.7-10.5-1.7-15.7-0.7c-1.6,0.3-3.3,0.7-4.9,1.2
		C474.4,82.5,472.8,82.9,472.8,84.4z M489.8,100.4c0.4,0.1,0.8,0.2,1.2,0.3c-0.3,0.3-0.8,0.4-1.1,0.5
		C489.8,100.8,489.8,100.6,489.8,100.4z"/>
	<path class="st1" d="M472.8,84.4l2,47.3c0,0.9,0.8,1.6,1.6,1.6c0,0,0,0,0.1,0l12.5-0.4c0.5,0,0.9-0.2,1.2-0.6
		c0.3-0.4,0.4-0.8,0.4-1.3l-1.8-11.3l12.3,9.3c0.7,0.5,1.7,0.4,2.2-0.3l8.1-9.8c0.3-0.4,0.5-0.9,0.3-1.4c-0.1-0.5-0.5-0.9-0.9-1.1
		l-12-5.7c1.2-0.5,2.3-1.1,3.3-1.8c5.7-3.8,8-11.8,5.3-18c-2.7-6.1-10.4-9.6-16.7-10.3c-1.9-0.2-4.1-0.2-6.5,0
		c-1.5,0.1-2.9,0.4-4.4,0.6c-3.2,0.6-4.9,1.2-5.9,1.7C473.2,83.1,472.8,83.7,472.8,84.4z M491.2,100.2c-0.1,0.4-0.3,0.9-1.8,0.9
		c-0.8,0-1.8-0.2-2.8-0.4l-0.2-3.8c1.6,0.1,3.6,0.9,4.4,1.9C491.2,99.3,491.3,99.7,491.2,100.2z"/>
	<path class="st2" d="M510.1,117.9l-15.8-7.5c2.4-0.6,4.7-1.5,6.8-2.9c5.2-3.5,7.1-10.6,4.7-16c-2.5-5.6-9.6-8.7-15.4-9.4
		c-1.9-0.2-4.1-0.2-6.2,0c-1.4,0.1-2.9,0.3-4.2,0.6c-2.9,0.5-4.5,1.1-5.6,1.6l0.1,2.4l1.9,45l12.5-0.4l-2.4-15.3l15.6,11.8
		L510.1,117.9z M485.4,95.3c2.9-0.3,8.4,1.6,7.4,5.3c-0.8,3.1-4.6,2.1-7.7,1.5l-0.3-6.7C485,95.4,485.2,95.4,485.4,95.3z"/>
	<g class="st8">
		<path class="st2" d="M475.3,105c4.9,1.8,10,3.5,15.2,3.6c3.5,0,7.1-0.4,10.6-1c0.1,0,0.1-0.1,0.2-0.1c5.2-3.5,7.1-10.6,4.7-16
			c-2.5-5.6-9.6-8.7-15.4-9.4c-1.9-0.2-4.1-0.2-6.2,0c-1.4,0.1-2.9,0.3-4.2,0.6c-2.9,0.5-4.5,1.1-5.6,1.6l0.1,2.4L475.3,105z
			 M485.4,95.3c2.9-0.3,8.4,1.6,7.4,5.3c-0.8,3.1-4.6,2.1-7.7,1.5l-0.3-6.7C485,95.4,485.2,95.4,485.4,95.3z"/>
	</g>
	<path class="st4" d="M491.9,97.6c0.8,0.8,1.2,1.8,0.8,3.1c-0.8,3.1-4.6,2.1-7.7,1.5l-0.2-6.4c0,0-0.1,0-0.1,0l0.1,7.2l1.1,0.2
		c1.4,0.3,2.9,0.6,4.3,0.6c2.9,0,3.3-0.9,3.6-2.2c0.3-1.3,0.1-1.9-0.7-2.9C492.7,98.2,492.3,97.9,491.9,97.6z"/>
	<path class="st4" d="M475.5,86.3c1-0.3,2.4-0.8,4.8-1.2c1.3-0.3,2.7-0.5,4.1-0.6c1.1-0.1,2.2-0.1,3.3-0.1c1,0,1.9,0,2.7,0.1
		c5.7,0.7,12.4,3.6,14.6,8.8c2,4.6,0.7,10.3-3,13.7c4.6-3.7,6.1-10.2,3.9-15.4c-2.5-5.6-9.6-8.7-15.4-9.4c-1.9-0.2-4.1-0.2-6.2,0
		c-1.4,0.1-2.9,0.3-4.2,0.6c-2.9,0.5-4.5,1.1-5.6,1.6l0.1,2.4l0.2,5.2L475.5,86.3z"/>
	<polygon class="st4" points="494.4,110.4 510.1,117.9 505.8,123.2 508.3,118.1 492.3,110.4 	"/>
	<path class="st3" d="M478,130.2c0.1,0.7,3.8,0.5,5.9,0.3l3.9-0.4l-1.2-8.8c-0.4-2.5-1-2.7-1.4-2.7c-0.3,0-0.8-0.1-0.4,2.9l1,7
		l-2.1,0.2C482.3,128.9,477.9,129.5,478,130.2z M484.7,115.5c0.3-0.1,1.2,0.2,1.3,1.4c0.1,1.1-0.7,1-1,0.6
		C484,116.2,484.4,115.6,484.7,115.5z"/>
</g>
<g>
	<path class="st0" d="M554.3,107.2c0.1,4.3,1.4,8.7,3.5,12.5c1,1.9,2.3,3.7,3.5,5.4c1.3,1.9,2.8,3.6,4.7,4.9
		c3.6,2.6,8.3,3.3,12.5,1.8c2-0.7,3.8-1.9,5.3-3.3c0.7-0.7,1.4-1.4,1.9-2.1c0.3-0.4,0.6-0.8,0.8-1.2c0.2-0.3,0.3-0.9,0.7-0.7
		c0.7,0.3,1.3,0.6,2.1,0.3c0.7-0.2,1.1-0.9,1.3-1.6c0.2-0.9,0.3-1.7,0.5-2.6c0.2-1.2,0.4-2.4,0.6-3.6c0.2-0.9,0.4-1.9-0.3-2.7
		c-0.5-0.6-1.4-0.9-2-1.4c-0.4-0.3-0.8-0.8-1.4-0.9c-0.6-0.2-1.2-0.4-1.9-0.5c-2.3-0.7-4.7-1.4-7-2c-1.3-0.4-4-1.7-4.4,0.4
		c-0.2,1-0.4,2-0.6,3c-0.2,0.8-0.5,1.7-0.5,2.5c0,0.8,0.6,1.2,1.1,1.6c0.1,0.2,0.3,0.5,0.5,0.7c0.1,0.2-0.8,0.9-0.9,1
		c-0.8,0.6-1.7,0.6-2.6,0.3c-0.9-0.3-1.3-1.5-1.6-2.3c-0.8-2.5-0.4-5.7,0.4-8.1c0.5-1.4,1.3-2.8,2.5-3.8c0.7-0.5,1.5-1,2.3-1
		c0.5,0,1,0.2,1.4,0.5c0.4,0.3,0.6,0.7,0.9,1c0.4,0.7,0.9,1.7,1.7,1.9c0.5,0.1,2.6,0.1,3.5,0.1c1.9,0,3.5,0,5.4,0.2
		c0.7,0.1,1.4,0.1,2-0.4c0.9-0.6,1-2,1.2-2.9c0.5-2.1,0.9-4.2,1.3-6.3c0.1-0.7,0.2-1.3-0.2-1.9c-0.5-0.7-1.8-1.5-2.5-2
		c-0.6-0.4-0.5-0.4-1.3-0.6c-0.3-0.1-0.4,0-0.5-0.3c-0.1-0.2-0.2-0.5-0.3-0.7c-0.2-0.5-0.5-1-0.8-1.5c-1.1-1.7-2.6-2.9-4.2-4.1
		c-1.8-1.2-3.5-2.5-5.6-3.2c-4.1-1.4-8.2-0.8-12,1.1c-5.2,2.7-8.7,7.6-10.2,13.2C554.6,100.9,554.2,104.1,554.3,107.2
		C554.5,112.7,554.2,102.7,554.3,107.2z"/>
	<path class="st1" d="M554.3,107.2c0.2,7.3,3.9,15.3,9,19.5c2.4,2,5.4,3.1,8.4,3.1c2,0,4-0.5,5.8-1.4c3.1-1.6,5.5-4,7.1-7l1.3,0.6
		c0.4,0.2,0.8,0.2,1.2,0c0.4-0.2,0.7-0.6,0.7-1l1.3-7.3c0.1-0.7-0.3-1.4-1-1.6l-11.5-3.3c-0.4-0.1-0.8-0.1-1.1,0.1
		c-0.3,0.2-0.6,0.5-0.7,0.9l-1.1,5.4c-0.1,0.6,0.2,1.3,0.8,1.6l1.1,0.5c-0.7,1.2-1.9,2.2-3.4,1.9c-3.1-0.7-5.1-3.2-5.2-6.9
		c-0.1-1.9,0.1-8.4,4.5-10.8c0.5-0.3,1.1-0.4,1.6-0.4c1.4,0,2.7,1,3.4,2.6c0.2,0.6,0.8,0.9,1.4,0.8c0.6-0.1,1.3-0.1,2.3-0.1
		c2.4,0,5.3,0.2,6.2,0.3c0.2,0,0.4,0,0.4,0c0.6,0,1.2-0.4,1.4-1c0.3-1.1,0.6-2.3,0.9-3.6c0.3-1.4,0.6-2.8,0.8-4.2l0.2-0.9
		c0.1-0.7-0.3-1.3-0.9-1.6c-0.3-0.1-0.8-0.2-3.1-0.6c0-0.1-0.1-0.2-0.1-0.3c0,0,0,0,0-0.1c-1.2-6.3-7.8-9.8-13.3-9.8
		c-1.4,0-2.7,0.2-3.9,0.6C554.8,87.7,554.2,102.7,554.3,107.2z"/>
	<path class="st2" d="M571,100.3c3-1.6,5.8,0.2,6.9,2.9c2.8-0.3,8.9,0.2,9.1,0.2c0.3-1.2,0.6-2.4,0.9-3.6c0.4-1.6,0.7-3.3,1-5
		c-0.3-0.1-3.7-0.6-3.8-0.6c0,0-0.4-1.3-0.4-1.3c-1.3-6.6-9.4-10-15.4-8.1c-10.9,3.3-13.9,14-13.7,22.5c0.2,6.4,3.4,14.2,8.5,18.4
		c3.5,2.9,8.4,3.7,12.7,1.5c3.5-1.7,5.7-4.4,7-7.6l2.6,1.2l1.3-7.3l-2.8-0.8l-8.8-2.5l-1.1,5.4l0.4,0.2l2,0.9
		c-0.9,2.4-2.8,4.5-5.5,3.9c-4-0.9-6.2-4.2-6.3-8.2C565.6,108,566.8,102.5,571,100.3z"/>
	<path class="st3" d="M555.7,107.4c3.4,0.2,6.9,0.5,10.3,0.9c0.6-3.3,2-6.4,5-8c3-1.6,5.8,0.2,6.9,2.9c2.8-0.3,8.9,0.2,9.1,0.2
		c0.3-1.2,0.6-2.4,0.9-3.6c0.4-1.6,0.7-3.3,1-5c-0.3-0.1-3.7-0.6-3.8-0.6c0,0-0.4-1.3-0.4-1.3c-1.3-6.6-9.4-10-15.4-8.1
		c-10.9,3.3-13.9,14-13.7,22.5C555.7,107.2,555.7,107.3,555.7,107.4z"/>
	<path class="st4" d="M569.6,86.1c1-0.3,2.1-0.5,3.2-0.5c4.6,0,10.1,3.3,11.1,8.4l0,0.1c0.3,1.6,0.6,1.8,0.8,1.9
		c0.1,0.1,0.1,0.1,0.8,0.2c0.5,0.1,1.6,0.2,2.3,0.4l0,0.1c-0.3,1.3-0.9,6.7-0.9,6.7c0.3-1.2,0.6-2.4,0.9-3.6c0.4-1.6,0.7-3.3,1-5
		c-0.3-0.1-3.7-0.6-3.8-0.6c0,0-0.4-1.3-0.4-1.3c-1.3-6.6-9.4-10-15.4-8.1c-9.2,2.8-12.8,10.9-13.5,18.4
		C555.7,104.5,557.8,89.7,569.6,86.1z"/>
	<polygon class="st4" points="575.3,114.8 576.3,110.1 587.8,113.5 576.9,111 	"/>
	<path class="st4" d="M566.2,107.3c0,0-2.2,9.1,3.8,12.5c5.5,3.1,7.5-3.2,7.5-3.2s-1,6.8-7.4,4.2
		C563.9,118.2,565.5,109.6,566.2,107.3z"/>
	<path class="st3" d="M576.8,126.2c-0.1-0.3-1.2,0.1-2.6,0.3c-1.4,0.2-3,0.1-4.2-0.2c-0.3,0-0.6-0.2-1-0.3c-0.2-0.1-0.4-0.2-0.6-0.3
		c-0.2-0.1-0.5-0.2-0.7-0.3c-1-0.5-2-1.2-2.9-2c-1-0.8-1.8-1.8-2.5-2.8c-0.2-0.2-0.3-0.5-0.5-0.7c-0.1-0.2-0.3-0.5-0.4-0.7
		c-0.3-0.4-0.5-0.8-0.7-1.2c-1.4-2.7-2-2.8-2.3-2.7c-0.2,0.1-0.8,0.1,1,3.4c0.4,0.8,1,1.8,1.7,2.8c0.7,1,1.6,2,2.5,2.8
		c1.9,1.7,4.3,2.9,6,3.3c0.9,0.3,2.9,0.4,4.5,0C575.8,127.2,576.9,126.4,576.8,126.2z M557,111.7c0.2-0.1,1.1,0.2,1.4,1.5
		c0.4,1.2-0.2,1.3-0.7,0.9c-0.6-0.7-0.8-1.3-0.9-1.7C556.8,111.9,556.9,111.7,557,111.7z"/>
</g>
<g>
	<path class="st0" d="M155.2,130c0.2,0.5,0.7,1.1,1,1.5c0.2,0.5,0.6,1,0.9,1.4c0.4,0.5,1.1,0.8,1.8,0.8c0.5,0,1,0,1.4,0
		c2.3,0,4.7,0,7,0c4.8,0,9.7,0,14.5,0c0.8,0,1.5-0.1,2.1-0.7c0.7-0.8,0.6-1.8,0.6-2.7c0.1-2.5,0.1-5,0.2-7.5c0-0.4,0-0.7-0.1-1.1
		c-0.3-1.1-1.4-1.3-2.1-2c-1-0.8-2-1.4-3.2-1.5c-1.3,0-2.7-0.1-4-0.1c-0.5,0-0.9,0-1.4,0c-0.3,0-0.2-0.7-0.2-0.9c0-0.3,0-0.5,0-0.8
		c2.2,0.1,4.4,0.2,6.6,0.3c0.8,0,1.7,0.2,2.4-0.1c1.3-0.4,1.5-1.6,1.6-2.7c0.3-2.5,0.5-5,0.7-7.5c0-0.3,0.1-0.6,0-1
		c-0.2-1.2-1-1.3-1.7-2c-0.6-0.6-1.4-1-2.1-1.5c-0.4-0.3-0.9-0.4-1.4-0.4c-1.3,0-2.6-0.1-3.9-0.2c-0.4,0-2.2,0.2-2.2-0.3
		c0-0.1,0-1.2,0-1.2c0.3,0,0.5,0,0.8,0c1.2,0,2.4,0,3.7,0c2.1,0,4.3,0.2,6.3,0c2.7-0.3,2-4,1.9-5.9c0-2.6-0.1-5.1-0.1-7.7
		c0-1.2-0.4-2-1.5-2.8c-0.7-0.4-1.3-0.9-2-1.4c-0.5-0.3-0.9-0.6-1.5-0.6c-3.8,0.3-7.6,0.7-11.4,1c-5.2,0.4-10.5,0.9-15.7,1.3
		c-1.1,0.1-3-0.1-3.7,1c-0.4,0.8-0.1,2,0,2.9c1,10.2,2,20.4,3,30.6c0.3,2.6,0.5,5.2,0.8,7.9C154.5,127.2,154.4,129.2,155.2,130
		C155.3,130.2,154.9,129.8,155.2,130z"/>
	<path class="st1" d="M156.3,130.5h23.4c0.9,0,1.6-0.7,1.6-1.6l0.2-9.2c0-0.4-0.2-0.8-0.4-1.1c-0.3-0.3-0.7-0.5-1.1-0.5l-9.3-0.2
		l-0.1-4.9l8.9,0.4c0.8,0,1.6-0.6,1.7-1.4l0.9-8.7c0-0.4-0.1-0.9-0.4-1.2c-0.3-0.3-0.7-0.5-1.1-0.6l-9.8-0.4v-4.5h11.2
		c0.4,0,0.8-0.2,1.1-0.5c0.3-0.3,0.5-0.7,0.5-1.1l-0.2-11.9c0-0.4-0.2-0.9-0.5-1.2c-0.3-0.3-0.8-0.5-1.2-0.4l-29.6,2.6
		c-0.4,0-0.8,0.2-1.1,0.6c-0.3,0.3-0.4,0.8-0.4,1.2l4.3,43.2C154.8,129.9,155.5,130.5,156.3,130.5z"/>
	<polygon class="st2" points="181.6,83.1 181.9,95 169.1,95 169.1,102.7 180.4,103.1 179.5,111.9 168.9,111.4 169.1,119.5 
		179.9,119.7 179.7,128.9 156.3,128.9 152,85.7 	"/>
	<path class="st3" d="M156.1,111.5c3.6,0.5,7,0.6,10.7,0c2.7-0.4,5.4-1.1,8.8-2.1c1.5-0.5,2.9-0.9,4.3-1.4l0.5-4.9l-11.3-0.4V95
		h12.8l-0.2-11.9L152,85.7l2.5,25.6C155.1,111.4,155.6,111.5,156.1,111.5z"/>
	<path class="st4" d="M168.6,103.3l11.2,0.6c0,0,0,1.4,0.2,4.1l0.5-4.9l-11.3-0.4v-7.3L168.6,103.3z"/>
	<polygon class="st4" points="153.4,87.3 180.6,84.6 181.9,95 181.6,83.1 152,85.7 153.6,101.8 	"/>
	<polygon class="st4" points="168.9,111.4 169.1,119.5 179.9,119.7 179.9,123.4 179.3,120.6 168.3,120.1 	"/>
	<path class="st3" d="M177.6,128.3c0-0.6-5.3-1.2-8.2-1.4l-10.5-0.6l-0.2-3.6c-0.2-3.6-0.9-4-1.2-4c-0.3,0-0.8-0.2-0.5,4.1l0.3,5.1
		l12,0.7C171.4,128.7,177.6,129,177.6,128.3z M157,114.2c0.3-0.1,1.1,0.5,1.2,2.1c0.1,1.6-0.7,1.4-1,0.7
		C156.3,115.1,156.7,114.3,157,114.2z"/>
</g>
<g>
	<path class="st0" d="M147.2,135.5c2.6,0,2.2-3.2,2.3-5c0.1-2.7,0.2-5.4,0.4-8.1c0-0.8,0.1-1.6,0.1-2.4c0.1-1.6-1.2-2.1-2.2-3
		c-0.9-0.7-1.8-1.4-2.9-1.4c-1.2,0-2.3,0-3.5,0.1c-0.5,0-4.9,0.3-4.9,0c-0.1-1.4-0.2-2.7-0.4-4.1c-0.5-5.4-0.9-10.7-1.4-16.1
		c-0.2-2-0.3-4-0.5-6c0-0.4-0.1-0.8-0.1-1.2c-0.1-1.5-1.8-2.2-2.8-2.9c-0.6-0.4-1.3-1.1-2.1-0.9c-0.1,0-0.3,0.1-0.4,0.1
		c-0.9,0.2-1.8,0.4-2.7,0.6c-2.7,0.6-5.4,1.1-8,1.7c-1.3,0.3-4.5,0.4-4.1,2.5c0.2,0.8,0.4,1.6,0.5,2.4c1,4.4,2,8.9,3,13.4
		c1.9,8.4,3.8,16.8,5.7,25.2c0,0.1,0,0.2,0.1,0.3c0.2,0.4,0.6,0.9,0.8,1.3c0.4,0.5,0.7,1.2,1.2,1.7c0.5,0.9,1.4,1.2,2.3,1.2
		c2,0.1,4,0.2,6,0.2c4.5,0.2,9,0.4,13.5,0.6C147,135.5,147.1,135.5,147.2,135.5z"/>
	<path class="st1" d="M144.7,132.4c0.8,0,1.5-0.7,1.5-1.5l0.6-13.6c0-0.4-0.1-0.8-0.4-1.2c-0.3-0.3-0.7-0.5-1.1-0.5l-11.8,0.2
		l-2.6-30c0-0.4-0.3-0.8-0.6-1.1c-0.4-0.3-0.8-0.4-1.2-0.3L115,87.3c-0.4,0.1-0.8,0.3-1,0.7c-0.2,0.3-0.3,0.8-0.2,1.2l9.3,41.1
		c0.2,0.7,0.7,1.2,1.4,1.2L144.7,132.4C144.7,132.4,144.7,132.4,144.7,132.4z"/>
	<polygon class="st2" points="115.4,88.9 129.4,86 132.1,117.4 145.3,117.2 144.7,130.8 124.7,130 	"/>
	<path class="st3" d="M131.2,107.5L129.4,86l-14.1,2.9l4.9,21.5C123.8,109,127.6,108.1,131.2,107.5z"/>
	<path class="st4" d="M129.4,86l-14.1,2.9l1.7,7.5l-0.6-5.6l12.3-3l3.2,30l12.7,0.6l0.5,5.6l0.3-6.8c0,0-13.4,0.2-13.2,0.2L129.4,86
		z"/>
	<path class="st3" d="M138.2,129.5c0-0.6-4.7-1.2-7.2-1.3l-4.6-0.3l-1.6-7.6c-0.7-3.1-1.3-3.3-1.6-3.3c-0.3,0-0.7-0.1,0,3.6l1.9,8.8
		l5.9,0.4C132.7,129.9,138.2,130.1,138.2,129.5z M122.2,113.1c0.3-0.1,1.2,0.3,1.4,1.6c0.3,1.4-0.5,1.3-0.9,0.8
		C121.6,114,121.9,113.2,122.2,113.1z"/>
</g>
<g>
	<path class="st0" d="M247.3,128.8c0.1,0.9,1.1,2,1.6,2.7c0.7,1,1.3,2,2.7,1.9c0.6-0.1,1.2-0.3,1.7-0.4c2.6-0.6,5.2-1.2,7.8-1.8
		c1.7-0.4,4.9-0.5,5.1-2.8c0.1-1-0.3-2.2-0.4-3.2c-1.4-8.9-2.8-17.7-4.1-26.6c0,0,0,0,0-0.1c4.2,0.2,8.4,0.4,12.6,0.7
		c0.9,0,1.7-0.1,2.3-0.9c0.5-0.7,0.4-1.6,0.3-2.5c-0.2-2.6-0.3-5.1-0.5-7.7c-0.1-1.1-0.1-2.3-0.2-3.4c-0.1-1-0.1-1.9-1-2.5
		c-0.9-0.6-1.9-1.3-2.8-1.9c-0.3-0.2-0.7-0.3-1.1-0.3c-0.4,0-0.7,0-1.1,0.1c-4.2,0.2-8.5,0.5-12.7,0.7c-5.6,0.3-11.1,0.6-16.7,0.9
		c-2,0.1-3.9,0.2-5.9,0.3c-0.8,0-2.1-0.1-2.8,0.4c-0.9,0.6-0.7,1.6-0.6,2.5c0.2,1.2,0.4,2.3,0.5,3.4c0.4,2.5,0.7,4.9,1.1,7.4
		c0.2,1.2,1,2.1,1.7,3.1c0.6,0.9,1.2,1.9,2.5,1.9c0.3,0,0.6-0.1,0.9-0.1c2.4-0.4,4.8-0.8,7.2-1.2c0.1,0,0.2,0,0.4-0.1
		c0.5,8.7,0.9,17.4,1.4,26.1C247.1,126.6,247.2,127.7,247.3,128.8z"/>
	<path class="st1" d="M247.3,128.8c0,0.5,0.3,0.9,0.6,1.2c0.3,0.2,0.6,0.3,0.9,0.3c0.1,0,0.2,0,0.3,0l12.7-2.9
		c0.8-0.2,1.3-1,1.2-1.8l-4.7-30.2l13.7,0.7c0,0,0.1,0,0.1,0h0c0.9,0,1.6-0.7,1.6-1.6c0-0.1,0-0.2,0-0.3l-0.8-12.7
		c-0.1-0.9-0.8-1.5-1.6-1.5l-38.5,2.1c-0.4,0-0.8,0.2-1.1,0.6c-0.3,0.3-0.4,0.8-0.3,1.2l1.9,12.3c0.1,0.4,0.3,0.8,0.6,1
		c0.3,0.2,0.8,0.3,1.2,0.3l10.6-1.8L247.3,128.8z"/>
	<polygon class="st2" points="232.8,83.8 234.7,96.1 246.9,94 248.8,128.8 261.5,125.8 256.5,93.8 272.1,94.6 271.3,81.7 	"/>
	<path class="st3" d="M246.9,94l0.6,10.5c3.6,0.1,7.1-0.1,10.6-0.5l-1.6-10.2l15.6,0.8l-0.8-12.9l-38.5,2.1l1.9,12.3L246.9,94z"/>
	<polygon class="st4" points="271.3,81.7 232.8,83.8 233.7,89.5 233.9,85.9 270.4,83.9 272,92.2 	"/>
	<path class="st5" d="M259.7,125.4c-0.1-0.6-5-0.2-7.7,0.1l-1.1,0.1l-0.8-11.5c-0.2-3.3-0.9-3.6-1.2-3.6c-0.3,0-0.7-0.2-0.4,3.8
		l1,13.2l2.8-0.4C254.1,126.9,259.7,126,259.7,125.4z M248.5,106.4c0.3-0.1,1.1,0.5,1.2,1.9c0.1,1.5-0.7,1.3-1,0.7
		C247.8,107.3,248.2,106.5,248.5,106.4z"/>
</g>
<g>
	<path class="st0" d="M195.3,131.4c0.2,0.5,0.6,1.1,1,1.5c0.2,0.5,0.6,1,0.9,1.4c0.4,0.5,1.1,0.8,1.8,0.8c0.8,0,1.7-0.1,2.5-0.1
		c2.7-0.1,5.4-0.2,8-0.3c0.8,0,1.7,0,2.4-0.5c0.8-0.7,0.8-1.6,0.8-2.5c-0.1-2.5-0.2-5-0.3-7.5c-0.1-2.1-0.2-4.2-0.2-6.3
		c0-0.2,3.7-0.3,4.1-0.3c2.8-0.1,5.6-0.3,8.4-0.5c1.8-0.1,5.4,0.2,5-2.7c-0.2-2-0.5-4-0.8-6.1c-0.2-1.3-0.3-2.6-0.5-3.8
		c-0.1-0.9-0.1-1.8-0.8-2.4c-0.4-0.4-0.8-0.6-1.3-0.9c-0.4-0.3-0.8-0.6-1.2-0.8c-0.5-0.5-1.1-0.9-1.8-0.8c-0.8,0.1-1.6,0.1-2.5,0.2
		c-2.7,0.2-5.3,0.4-8,0.6c-0.4,0-0.8,0.1-1.2,0.1c0-0.6-0.4-1.6,0.3-1.7c0.9-0.1,1.7-0.2,2.6-0.2c2.8-0.2,5.6-0.5,8.4-0.7
		c1.5-0.1,4.5,0.1,5.5-1.4c0.5-0.8,0.3-1.7,0.2-2.6c-0.1-1.2-0.2-2.5-0.3-3.7c-0.2-2.4-0.4-4.8-0.6-7.2c-0.1-1.5-1.3-2.2-2.5-2.9
		c-0.8-0.5-1.5-1.4-2.6-1.3c-3.9,0.5-7.8,0.9-11.6,1.4c-5.3,0.6-10.7,1.3-16,1.9c-1.1,0.1-2.2,0.3-3.3,0.4c-1.6,0.2-1.4,1.7-1.3,2.8
		c0.9,9.7,1.9,19.4,2.8,29.1c0.4,3.9,0.7,7.8,1.1,11.6c0.1,1.1,0.2,2.3,0.3,3.5C194.8,130,194.7,130.9,195.3,131.4
		C195.3,131.6,195,131.2,195.3,131.4z"/>
	<path class="st1" d="M196.4,131.9C196.4,131.9,196.4,131.9,196.4,131.9l11.7-0.4c0.9,0,1.6-0.8,1.6-1.6l-0.6-15.1l16.1-0.9
		c0.4,0,0.8-0.2,1.1-0.6c0.3-0.3,0.4-0.8,0.4-1.2l-1.5-11.1c-0.1-0.8-0.8-1.4-1.7-1.4l-14.9,1.1l-0.2-5l15.7-1.4
		c0.9-0.1,1.5-0.8,1.5-1.7l-1.1-12.3c0-0.4-0.3-0.8-0.6-1.1c-0.3-0.3-0.8-0.4-1.2-0.4l-31.1,3.6c-0.9,0.1-1.5,0.9-1.4,1.7l4.5,46.4
		C194.9,131.3,195.6,131.9,196.4,131.9z"/>
	<polygon class="st2" points="225.1,112.2 223.6,101.1 207.1,102.3 206.8,94.1 224,92.6 223,80.3 191.9,83.9 196.4,130.3 
		208.1,129.8 207.5,113.2 	"/>
	<g class="st8">
		<path class="st2" d="M207.4,106.7c5.6-0.5,11.2-0.8,16.9-1l-0.6-4.6l-16.5,1.2l-0.3-8.2l17.2-1.5L223,80.3l-31,3.6l2.4,25.1
			C198.5,107.8,202.9,107.1,207.4,106.7z"/>
	</g>
	<g>
		<polygon class="st9" points="207,102.8 222.8,102.2 224.7,109 223.6,101.1 207.1,102.3 206.8,94.4 		"/>
	</g>
	<g>
		<polygon class="st9" points="193,86 222.4,81.8 224,92.6 223,80.3 191.9,83.9 193.7,102.5 		"/>
	</g>
	<path class="st5" d="M206.3,128.6c0-0.6-4.4-0.9-6.8-1c-0.3,0-0.7,0-1.1,0c-0.1,0-0.1,0-0.2,0l0,0c-0.1-1-0.2-2.2-0.3-3.4
		c-0.2-2.5-0.5-5.1-0.6-6.6c-0.1-1.5-0.4-2.3-0.6-2.7c-0.3-0.4-0.5-0.5-0.7-0.5c-0.2,0-0.3,0-0.5,0.4c-0.1,0.4-0.1,1.2,0.1,3
		c0.2,1.8,0.4,4.1,0.6,6.5c0.1,1.2,0.2,2.4,0.3,3.4c0,0.5,0.1,1.1,0.1,1.6c0.5,0,1,0,1.5,0c0.5,0,0.9,0,1.4,0
		C201.2,129.3,206.3,129.2,206.3,128.6z M195.4,110.7c0.3-0.1,1.1,0.3,1.3,1.6c0.1,1.3-0.7,1.2-1,0.7
		C194.7,111.6,195.1,110.9,195.4,110.7z"/>
</g>
</svg>
