<?xml version="1.0" encoding="utf-8"?>
<!-- Generator: Adobe Illustrator 24.0.2, SVG Export Plug-In . SVG Version: 6.00 Build 0)  -->
<svg version="1.1" id="Capa_1" xmlns="http://www.w3.org/2000/svg" xmlns:xlink="http://www.w3.org/1999/xlink" x="0px" y="0px"
	 viewBox="0 0 585.1 71.2" style="enable-background:new 0 0 585.1 71.2;" xml:space="preserve">
<style type="text/css">
	.st0{fill:#352E19;}
	.st1{fill:#954515;}
	.st2{fill:#F0AE04;}
	.st3{opacity:0.7;}
	.st4{fill:#FFFFFF;}
	.st5{fill:#F9B84B;}
	.st6{fill:#352E16;}
	.st7{fill:#954415;}
	.st8{fill:#F1AF02;}
	.st9{opacity:0.8;}
	.st10{opacity:0.8;fill:#F1AF02;}
	.st11{fill:#F9B84A;}
	.st12{fill:#F6EB69;}
</style>
<g>
	<path class="st0" d="M50.8,19.7c-4.9,0-9.7,2.4-12.5,6.5c-1.3,2-2.1,4.3-2.3,6.6c-0.2,3,0.8,5.8,2.5,8.3c0.8,1.1,1.5,2.2,2.4,3.1
		c0.9,0.9,1.9,1.7,3,2.3c2.4,1.4,5.1,2,7.9,2.1c5,0.1,10-1.7,13.2-5.6c3.2-3.9,3.9-9.5,1.7-14.1c-0.6-1.2-1.4-2.4-2.4-3.4
		c-1.1-1.1-2.4-2-3.7-2.9c-2.4-1.7-5.4-2.6-8.4-2.8C51.8,19.7,51.3,19.7,50.8,19.7z M49.2,39c-0.7,0-1.4-0.1-2-0.4
		c-0.6-0.2-1-0.9-1.3-1.5c-0.5-1.1-0.6-2.4-0.2-3.6c0.8-2.2,3.1-3.6,5.4-3.5c0.6,0,1.3,0.2,1.8,0.4c0.5,0.2,1.4,0.6,1.6,1.2
		c0.5,1.2,0.5,2.5,0,3.7C53.7,37.6,51.5,39,49.2,39z"/>
	<path class="st1" d="M36,33.5c0,7.4,6.4,13,14.8,13c8.5,0,15.2-5.8,15.3-13.2c0.1-3.6-1.2-6.8-3.5-9.2c-2.8-2.8-7.1-4.4-11.8-4.4
		C42.6,19.7,36,25.9,36,33.5z M49.2,28.1c3.1,0,5.7,2.4,5.7,5.4c0,3-2.6,5.4-5.7,5.4c-3.1,0-5.7-2.4-5.7-5.4
		C43.5,30.6,46,28.1,49.2,28.1z"/>
	<path class="st2" d="M50.8,20.7c-7.6,0-13.8,5.8-13.8,12.8c0,7.1,6.2,12.1,13.8,12.1c7.6,0,14.2-5.2,14.3-12.3
		C65.2,25.1,58.4,20.7,50.8,20.7z M49.2,39.9c-3.7,0-6.6-2.9-6.6-6.4c0-3.5,3-6.4,6.6-6.4c3.7,0,6.7,2.9,6.7,6.4
		C55.8,37.1,52.8,39.9,49.2,39.9z"/>
	<g class="st3">
		<path class="st2" d="M37.8,36.2c2.1,0.6,4.2,1.1,6.3,1.4c-1-1.1-1.6-2.5-1.6-4.1c0-3.5,3-6.4,6.6-6.4c3.7,0,6.7,2.9,6.7,6.4
			c0,1.1-0.3,2.2-0.9,3.2c3.4-1.2,6.8-2.6,10.2-3.9c-0.2-7.9-6.9-12.1-14.3-12.1c-7.6,0-13.8,5.8-13.8,12.8c0,0.9,0.1,1.7,0.3,2.5
			C37.4,36.1,37.6,36.2,37.8,36.2z"/>
	</g>
	<g>
		<path class="st4" d="M50.8,21.8c7.1,0,13.5,3.8,14.3,11c0,0,0,0,0.1,0c-0.2-7.9-6.9-12.1-14.3-12.1c-7.6,0-13.8,5.8-13.8,12.8
			c0,0.2,0,0.4,0,0.6C37.3,27.3,43.3,21.8,50.8,21.8z"/>
	</g>
	<path class="st4" d="M43.1,36.1c0,0,1.8,3.8,6.1,3.9c4.3,0.1,6-3.7,6.5-5.2c0,0-0.4,6-6.9,5.6C44,40.1,43.1,36.1,43.1,36.1z"/>
	<path class="st5" d="M46.3,43.8c-0.1,0.2,0.7,0.6,1.8,0.9c1.1,0.3,2.5,0.4,3.5,0.4c1,0,3-0.3,5-1.1c1-0.4,1.9-0.9,2.7-1.4
		c0.8-0.5,1.4-1.1,1.9-1.5c0.9-0.8,1.2-1.5,1.4-1.8c0.1-0.4,0-0.5,0-0.6c-0.1-0.1-0.1-0.2-0.4,0c-0.1,0.1-0.3,0.3-0.6,0.5
		c-0.1,0.1-0.3,0.3-0.5,0.5c-0.2,0.2-0.4,0.4-0.6,0.6c-0.2,0.2-0.5,0.5-0.8,0.7c-0.3,0.3-0.7,0.5-1,0.7c-0.7,0.5-1.5,0.9-2.4,1.3
		c-1.7,0.7-3.5,1-4.7,1.1c-0.3,0-0.8,0-1.4,0c-0.3,0-0.6,0-0.9,0c-0.3,0-0.6-0.1-0.9-0.1C47.3,43.8,46.4,43.6,46.3,43.8z M63.8,36
		c0.1,0,0.2,0.1,0.3,0.4c0,0.1,0,0.2,0,0.2c0,0.1,0,0.2,0,0.3c0,0.2-0.1,0.4-0.2,0.7c-0.6,1-0.9,0.5-0.8,0.1
		c0.1-0.3,0.1-0.6,0.2-0.8c0-0.2,0.1-0.4,0.2-0.5C63.6,36.1,63.7,36,63.8,36z"/>
</g>
<g>
	<path class="st6" d="M12.9,43.6c1.5,2.3,3.3,4.2,5.9,5.4c2.7,1.2,5.7,1.2,8.6,0.6c2.2-0.5,4.3-1.3,6.3-2.4c0.4-0.3,1-0.5,1.2-0.9
		c0.4-0.5,0.2-1.1,0-1.6c-0.5-1.4-1.1-2.8-1.7-4.2c-0.4-1.1-0.7-2.6-1.8-3.1c-0.2-0.2-0.5-0.3-0.7-0.5c-0.3-0.2-0.6-0.5-0.9-0.6
		c-0.7-0.2-1.5,0.6-2.1,1c-1.1,0.6-2.4,1.1-3.7,1c-0.6,0-1.5-0.1-1.9-0.6c-0.5-0.5-0.8-1.1-1-1.8c-0.3-1.1-0.2-2.4,0-3.6
		c0.2-1.2,0.7-2.6,1.6-3.4c0.8-0.6,2.5-1,3.1,0c0.5,0.8,1.1,1.5,2.1,1.1c0.6-0.2,1.1-0.5,1.7-0.7c0.8-0.3,1.5-0.6,2.3-1
		c0.4-0.2,1-0.3,1.3-0.6c0.6-0.7,0.4-1.8,0.2-2.7c-0.3-1.1-0.8-2.1-1.6-2.9c-0.9-1-2.1-1.8-3.2-2.5c-1.3-0.8-2.7-1.1-4.2-1.1
		c-2.3-0.1-4.6,0.7-6.5,2c-4.6,3-7,8.3-7.4,13.6C10.2,37.4,11,40.7,12.9,43.6C13,43.7,12.9,43.5,12.9,43.6z"/>
	<path class="st7" d="M18.2,47.4c1.3,0.4,2.6,0.6,4.1,0.6l0,0c5.4,0,10.3-3.1,10.5-3.3c0.4-0.2,0.5-0.7,0.4-1.1l-2.8-6.9
		c-0.1-0.3-0.3-0.5-0.6-0.6c-0.3-0.1-0.6,0-0.8,0.1c-1.7,1.2-3.3,1.9-4.9,1.9l0,0c-2.8,0-4.5-2.2-4.9-3.5c-0.5-1.6-0.2-4.6,0.9-6.6
		c0.5-0.9,1.2-1.5,2-1.6c0.4-0.1,0.7-0.1,1-0.1c1.4,0,1.8,1,1.8,1.1c0.1,0.2,0.3,0.4,0.5,0.6c0.2,0.1,0.6,0.1,0.8,0l5-2.1
		c0.3-0.1,0.4-0.3,0.5-0.6l0-0.2c0.1-0.1,0.1-0.2,0.1-0.3c-0.1-1.9-1.3-5.6-5.9-6.4c-0.6-0.2-1.2-0.2-1.8-0.2
		c-5.8,0-11.3,4.9-13,11.6C9,38.2,11.8,45.1,18.2,47.4z"/>
	<path class="st8" d="M29.6,37.1c-6.1,4.5-10.4,0.6-11.2-2.1c-0.8-2.7,0.2-8.5,3.5-9.4c3.3-0.8,4,1.6,4,1.6l5-2.1l0.1-0.2
		c0,0-0.2-4.7-5.1-5.6c-5.6-1-11.8,3.4-13.7,10.7c-2,7.3,0,14.1,6.4,16.4c6.4,2.3,13.8-2.5,13.8-2.5L29.6,37.1z"/>
	<g class="st9">
		<path class="st8" d="M18,36.9c0.4-0.1,0.9-0.1,1.3-0.1c-0.5-0.6-0.8-1.2-0.9-1.8c-0.8-2.7,0.2-8.5,3.5-9.4c3.3-0.8,4,1.6,4,1.6
			l5-2.1l0.1-0.2c0,0-0.2-4.7-5.1-5.6c-5.6-1-11.8,3.4-13.7,10.7c-0.7,2.4-0.9,4.8-0.6,7C13.7,37.2,15.9,37.1,18,36.9z"/>
	</g>
	<g>
		<path class="st4" d="M30.9,24.9c0,0-0.2-4.7-5.1-5.6c-5.6-1-11.8,3.4-13.7,10.7c-0.1,0.3-0.2,0.6-0.3,0.9
			c1.9-5.3,5.4-10.4,11.6-11c0.5,0,0.9-0.1,2.1,0.2c3.8,0.6,5,3,5.1,4l0.1,0.9L30.9,24.9z"/>
	</g>
	<g>
		<path class="st4" d="M19.3,36.7c-0.5-0.6-0.8-1.2-0.9-1.8c-0.2-0.8-0.3-1.9-0.2-3.1c-0.1,1.1-0.2,2,0,3.1c0.2,0.9,0.8,1.9,1.4,2.6
			c0.6,0.7,1.6,1.4,2.5,1.6c1.7,0.4,3.4,0.2,5.1-0.4c0.8-0.3,1.8-1,2.4-1.7C26.2,39.7,21.6,39.4,19.3,36.7z"/>
	</g>
	<path class="st10" d="M29.6,44.7c-0.1-0.1-0.9,0.1-1.9,0.3c-1,0.3-2.3,0.5-3.1,0.7c-0.2,0-0.5,0.1-0.8,0.1c-0.3,0-0.7,0.1-1.1,0.1
		c-0.8,0-1.7-0.1-2.7-0.3c-0.9-0.2-1.7-0.6-2.5-1c-0.7-0.5-1.3-1-1.6-1.4c-0.2-0.2-0.3-0.4-0.5-0.5c-0.1-0.2-0.3-0.3-0.3-0.4
		c-0.2-0.3-0.4-0.4-0.5-0.5c-0.3-0.3-0.4-0.3-0.5-0.2c-0.1,0-0.2,0-0.1,0.3c0,0.2,0.1,0.4,0.3,0.7c0.2,0.3,0.4,0.8,0.9,1.3
		c0.5,0.6,1.2,1.1,1.9,1.6c0.8,0.4,1.7,0.8,2.6,1.1c1.9,0.4,3.7,0.3,5,0.2c0.7-0.1,2-0.4,3.1-0.8C28.8,45.4,29.7,44.9,29.6,44.7z
		 M13.1,38.7c0.1-0.1,0.7,0.2,0.9,1.1c0.3,0.9-0.2,1-0.4,0.6c-0.4-0.5-0.6-1-0.6-1.2C12.9,38.9,12.9,38.8,13.1,38.7z"/>
</g>
<g>
	<path class="st6" d="M82.2,21.3c-0.2-0.2-0.6-0.5-0.9-0.6c-0.2-0.2-0.6-0.4-0.8-0.6c-0.2-0.1-0.4-0.1-0.6-0.1
		c-0.7-0.1-1.3-0.2-2-0.2c-1.3-0.2-2.5-0.3-3.8-0.5c-1.1-0.1-1.1,0.9-1.1,1.6c-0.1,1-0.2,2-0.3,2.9c-0.6,6.4-1.2,12.8-1.8,19.2
		c-0.1,1-0.2,2-0.3,3c0,0.2,0,0.5-0.1,0.7c-0.1,0.5,0.3,0.9,0.5,1.3c0.4,0.7,1,1.7,1.9,1.8c0.4,0,0.8,0,1.2,0.1
		c1.6,0.1,3.2,0.2,4.9,0.3c1.1,0.1,2.1,0.1,3.2,0.2c0.6,0,1.2-0.2,1.4-0.8c0.2-0.4,0.1-0.9,0-1.3c-0.2-2.3-0.5-4.5-0.7-6.8
		c1.3,2,2.6,4,3.8,5.9c0.3,0.5,0.7,1.3,1.2,1.6c0.5,0.3,1.1,0.2,1.7,0.2c1.3,0,2.6,0.1,4,0c1.2,0,1.3-1,1.4-1.9c0.1-1,0.2-2,0.3-3
		c0.3-3.2,0.7-6.5,1-9.7c0.3-3,0.6-6,1-9c0.1-0.7,0.2-1.4,0.2-2.1c0.1-0.6-0.1-1.2-0.7-1.5c-0.2-0.2-0.6-0.5-0.9-0.6
		c-0.2-0.2-0.5-0.4-0.8-0.6c-0.2-0.1-0.4-0.1-0.6-0.1c-2.3-0.1-4.7-0.1-7-0.2c-0.9,0-1.8,0-2.7-0.1c-0.8,0-1.2,0.6-1,1.3
		c0.3,1.3,0.4,2.5,0.6,3.8c-0.3-0.7-0.6-1.4-1-2.1C83.2,22.8,82.9,21.7,82.2,21.3C82.1,21.3,82.5,21.5,82.2,21.3z"/>
	<path class="st7" d="M80.2,20.1l-6.1-0.8c-0.3,0-0.5,0-0.7,0.2c-0.2,0.2-0.3,0.4-0.3,0.7l-2.5,26.7c0,0.3,0.1,0.5,0.2,0.7
		c0.2,0.2,0.4,0.3,0.7,0.3l9.4,0.5c0,0,0,0,0.1,0h0c0.5,0,0.9-0.4,0.9-0.9c0-0.1,0-0.2,0-0.2l-1-9l5.6,8.6c0.2,0.3,0.5,0.4,0.8,0.4
		h4.9c0.5,0,0.9-0.4,0.9-0.8l2.7-24.7c0-0.3-0.1-0.5-0.2-0.7c-0.2-0.2-0.4-0.3-0.7-0.3l-10-0.3c-0.3,0-0.6,0.1-0.8,0.3
		c-0.2,0.2-0.3,0.5-0.2,0.8c0.4,1.8,0.7,4.8,1,7.4l-3.9-8.4C80.8,20.3,80.5,20.1,80.2,20.1z"/>
	<path class="st8" d="M80.8,47.4l-9.4-0.5L74,20.2l6.1,0.8l6.1,13.1c0,0-0.5-8.9-1.4-12.8l10,0.3l-2.7,24.6h-4.9l-7.7-12L80.8,47.4z
		"/>
	<g class="st3">
		<path class="st8" d="M75,31.2c3.2-0.5,6.4-0.7,9.6-0.6L80.1,21L74,20.2l-1.1,11.3C73.6,31.4,74.3,31.3,75,31.2z"/>
	</g>
	<g class="st3">
		<path class="st8" d="M87.9,30.9c2,0.2,3.9,0.6,5.8,1l1.1-10.3l-10-0.3c0.5,2.3,0.9,6.4,1.2,9.3C86.6,30.7,87.2,30.8,87.9,30.9z"/>
	</g>
	<g>
		<path class="st4" d="M80.1,21L74,20.2l-1.1,11.3c0.2,0,1.6-10.5,1.6-10.5l5.2,1.2l6.6,12.1L80.1,21z"/>
	</g>
	<g>
		<path class="st4" d="M85.4,22.3l8.7,0.7L94.1,28l0.7-6.4l-10-0.3c0.2,0.8,0.3,1.8,0.5,2.9L85.4,22.3z"/>
	</g>
	<path class="st11" d="M72.3,46c0,0.4,3.1,0.8,4.7,0.9l3.3,0.2l-0.9-6.8c-0.3-2.1-0.7-2.2-0.9-2.3c-0.2,0-0.4-0.1-0.1,2.4l0.7,5.6
		l-2.1-0.2C75.9,45.8,72.4,45.6,72.3,46z M78.3,35.5c0.2-0.1,0.7,0.2,0.8,1.2c0.1,0.9-0.4,0.8-0.6,0.5C77.9,36,78.1,35.5,78.3,35.5z
		"/>
	<path class="st11" d="M88,45.6c0,0.2,0.5,0.3,1.2,0.4c0.3,0,0.7,0.1,1.1,0.1c0.2,0,0.4,0,0.6,0c0.3,0,0.7,0,1,0
		c0-0.3,0.1-0.5,0.1-0.7c0.2-1.3,0.6-5.3,0.8-6.9c0.2-1.6-0.2-1.8-0.3-1.8c-0.2,0-0.4-0.2-0.6,1.7c-0.2,1.9-0.6,5.1-0.8,6.8
		c0,0,0,0,0,0c0,0,0,0,0,0c-0.2,0-0.3,0-0.5,0c-0.4,0-0.7,0-1.1,0.1C88.5,45.3,88,45.4,88,45.6z M92.5,34.6c0.2,0,0.6,0.3,0.5,1
		c-0.1,0.7-0.6,0.5-0.7,0.2C92,34.9,92.3,34.6,92.5,34.6z"/>
</g>
<g>
	<path class="st6" d="M108.5,46c0,0.5,0.6,1,0.9,1.4c0.3,0.5,0.7,1.1,1.4,1c0.3,0,0.6-0.1,0.9-0.2c1.4-0.3,2.7-0.6,4.1-0.9
		c0.9-0.2,2.6-0.3,2.7-1.5c0-0.5-0.2-1.1-0.2-1.7c-0.7-4.7-1.5-9.3-2.2-14c0,0,0,0,0,0c2.2,0.1,4.4,0.2,6.6,0.4
		c0.5,0,0.9-0.1,1.2-0.5c0.3-0.4,0.2-0.9,0.2-1.3c-0.1-1.3-0.2-2.7-0.3-4c0-0.6-0.1-1.2-0.1-1.8c0-0.5-0.1-1-0.5-1.3
		c-0.5-0.3-1-0.7-1.5-1c-0.2-0.1-0.4-0.2-0.6-0.2c-0.2,0-0.4,0-0.6,0c-2.2,0.1-4.5,0.2-6.7,0.4c-2.9,0.2-5.9,0.3-8.8,0.5
		c-1,0.1-2.1,0.1-3.1,0.2c-0.4,0-1.1-0.1-1.5,0.2c-0.5,0.3-0.4,0.8-0.3,1.3c0.1,0.6,0.2,1.2,0.3,1.8c0.2,1.3,0.4,2.6,0.6,3.9
		c0.1,0.6,0.5,1.1,0.9,1.6c0.3,0.5,0.6,1,1.3,1c0.2,0,0.3,0,0.5-0.1c1.3-0.2,2.5-0.4,3.8-0.6c0.1,0,0.1,0,0.2,0
		c0.2,4.6,0.5,9.1,0.7,13.7C108.5,44.8,108.5,45.4,108.5,46z"/>
	<path class="st7" d="M108.5,46c0,0.2,0.1,0.5,0.3,0.6c0.1,0.1,0.3,0.2,0.5,0.2c0.1,0,0.1,0,0.2,0l6.7-1.5c0.4-0.1,0.7-0.5,0.6-0.9
		l-2.5-15.9l7.2,0.4c0,0,0,0,0,0h0c0.5,0,0.8-0.4,0.8-0.8c0-0.1,0-0.1,0-0.2l-0.4-6.7c0-0.4-0.4-0.8-0.9-0.8l-20.3,1.1
		c-0.2,0-0.4,0.1-0.6,0.3c-0.1,0.2-0.2,0.4-0.2,0.6l1,6.5c0,0.2,0.2,0.4,0.3,0.5c0.2,0.1,0.4,0.2,0.6,0.1l5.6-0.9L108.5,46z"/>
	<polygon class="st8" points="100.9,22.3 101.9,28.7 108.4,27.7 109.4,45.9 116,44.4 113.4,27.5 121.6,28 121.2,21.2 	"/>
	<path class="st10" d="M108.4,27.7l0.3,5.5c1.9,0,3.7,0,5.6-0.3l-0.8-5.4l8.2,0.4l-0.4-6.8l-20.3,1.1l1,6.5L108.4,27.7z"/>
	<polygon class="st4" points="121.2,21.2 100.9,22.3 101.4,25.3 101.5,23.4 120.7,22.4 121.6,26.7 	"/>
	<path class="st12" d="M115.1,44.2c0-0.3-2.6-0.1-4,0.1l-0.6,0.1l-0.4-6c-0.1-1.7-0.5-1.9-0.6-1.9c-0.2,0-0.4-0.1-0.2,2l0.5,6.9
		l1.5-0.2C112.2,45,115.1,44.5,115.1,44.2z M109.2,34.2c0.2-0.1,0.6,0.2,0.6,1c0,0.8-0.4,0.7-0.5,0.4
		C108.8,34.7,109,34.2,109.2,34.2z"/>
</g>
<g>
	<path class="st6" d="M126.6,21.7c0.2,4.4,0.4,8.7,0.5,13.1c0.1,2.9,0.2,5.7,0.4,8.6c0,0.9,0.1,1.7,0.1,2.6c0,0.2,0,0.4,0,0.6
		c0,0,0,0,0,0.1c0,0.3,0.2,0.5,0.3,0.7c0.2,0.3,0.4,0.6,0.7,0.9c0.3,0.7,0.8,1,1.5,0.9c0.6,0,1.2,0,1.7-0.1c1.4-0.1,2.8-0.1,4.2-0.1
		c0.6,0,1.3-0.2,1.5-0.8c0.1-0.4,0-1-0.1-1.4c-0.2-1.3-0.4-2.7-0.6-4c0,0,0-0.1,0-0.2c1.9,1.4,3.7,2.8,5.6,4.2
		c0.5,0.4,1,0.6,1.6,0.2c0.3-0.2,0.5-0.6,0.8-0.8c0.9-1.1,1.9-2.3,2.8-3.4c0.4-0.5,1-1,1.2-1.6c0.1-0.3,0.1-0.7-0.1-1
		c-0.1-0.2-0.3-0.7-0.6-0.8c-0.4-0.2-0.8-0.4-1.2-0.6c-1.4-0.6-2.7-1.3-4.1-2c2.1-1.2,3.6-3.1,4.1-5.5c0.5-2.3,0-4.8-1.5-6.7
		c-0.8-1-1.9-1.7-3-2.4c-1.1-0.8-2.3-1.4-3.6-1.8c-2.7-0.9-5.5-0.9-8.3-0.4c-0.9,0.2-1.7,0.3-2.6,0.6
		C127.4,20.8,126.6,21,126.6,21.7z M135.5,30.1c0.2,0,0.4,0.1,0.6,0.2c-0.1,0.2-0.4,0.2-0.6,0.2C135.5,30.4,135.5,30.3,135.5,30.1z"
		/>
	<path class="st7" d="M126.6,21.7l1,24.9c0,0.5,0.4,0.8,0.9,0.8c0,0,0,0,0,0l6.6-0.2c0.2,0,0.5-0.1,0.6-0.3c0.2-0.2,0.2-0.4,0.2-0.7
		l-0.9-5.9l6.5,4.9c0.4,0.3,0.9,0.2,1.2-0.1l4.3-5.2c0.2-0.2,0.2-0.5,0.2-0.7c-0.1-0.3-0.2-0.5-0.5-0.6l-6.3-3
		c0.6-0.3,1.2-0.6,1.7-1c3-2,4.2-6.2,2.8-9.5c-1.4-3.2-5.5-5.1-8.8-5.4c-1-0.1-2.2-0.1-3.4,0c-0.8,0.1-1.5,0.2-2.3,0.3
		c-1.7,0.3-2.6,0.7-3.1,0.9C126.8,21,126.6,21.4,126.6,21.7z M136.3,30c-0.1,0.2-0.1,0.5-0.9,0.5c-0.4,0-1-0.1-1.5-0.2l-0.1-2
		c0.9,0.1,1.9,0.5,2.3,1C136.3,29.6,136.3,29.8,136.3,30z"/>
	<path class="st8" d="M146.2,39.3l-8.3-3.9c1.3-0.3,2.5-0.8,3.6-1.5c2.7-1.8,3.7-5.6,2.5-8.4c-1.3-3-5.1-4.6-8.1-4.9
		c-1-0.1-2.1-0.1-3.2,0c-0.8,0.1-1.5,0.2-2.2,0.3c-1.5,0.3-2.4,0.6-2.9,0.8l0.1,1.2l1,23.7l6.6-0.2l-1.3-8.1l8.2,6.2L146.2,39.3z
		 M133.2,27.5c1.5-0.1,4.4,0.8,3.9,2.8c-0.4,1.6-2.4,1.1-4.1,0.8l-0.1-3.5C133,27.5,133.1,27.5,133.2,27.5z"/>
	<g class="st9">
		<path class="st8" d="M127.9,32.6c2.6,1,5.3,1.8,8,1.9c1.9,0,3.7-0.2,5.6-0.5c0,0,0.1,0,0.1-0.1c2.7-1.8,3.7-5.6,2.5-8.4
			c-1.3-3-5.1-4.6-8.1-4.9c-1-0.1-2.1-0.1-3.2,0c-0.8,0.1-1.5,0.2-2.2,0.3c-1.5,0.3-2.4,0.6-2.9,0.8l0.1,1.2L127.9,32.6z
			 M133.2,27.5c1.5-0.1,4.4,0.8,3.9,2.8c-0.4,1.6-2.4,1.1-4.1,0.8l-0.1-3.5C133,27.5,133.1,27.5,133.2,27.5z"/>
	</g>
	<path class="st4" d="M136.6,28.7c0.4,0.4,0.6,1,0.4,1.6c-0.4,1.6-2.4,1.1-4.1,0.8l-0.1-3.4c0,0,0,0-0.1,0l0,3.8l0.6,0.1
		c0.7,0.2,1.5,0.3,2.2,0.3c1.5,0,1.7-0.5,1.9-1.2c0.2-0.7,0-1-0.4-1.5C137.1,29,136.9,28.8,136.6,28.7z"/>
	<path class="st4" d="M128,22.7c0.5-0.2,1.3-0.4,2.5-0.7c0.7-0.1,1.4-0.2,2.2-0.3c0.6-0.1,1.2-0.1,1.7-0.1c0.5,0,1,0,1.4,0.1
		c3,0.3,6.5,1.9,7.7,4.6c1.1,2.4,0.4,5.4-1.6,7.2c2.4-1.9,3.2-5.4,2-8.1c-1.3-3-5.1-4.6-8.1-4.9c-1-0.1-2.1-0.1-3.2,0
		c-0.8,0.1-1.5,0.2-2.2,0.3c-1.5,0.3-2.4,0.6-2.9,0.8l0.1,1.2l0.1,2.7L128,22.7z"/>
	<polygon class="st4" points="137.9,35.4 146.2,39.3 143.9,42.1 145.3,39.5 136.8,35.4 	"/>
	<path class="st10" d="M129.3,45.8c0,0.3,2,0.3,3.1,0.2l2-0.2l-0.6-4.6c-0.2-1.3-0.5-1.4-0.7-1.4c-0.2,0-0.4,0-0.2,1.5l0.5,3.7
		l-1.1,0.1C131.6,45.2,129.3,45.5,129.3,45.8z M132.8,38.1c0.2-0.1,0.6,0.1,0.7,0.7c0.1,0.6-0.4,0.6-0.5,0.3
		C132.5,38.5,132.7,38.2,132.8,38.1z"/>
</g>
<g>
	<path class="st0" d="M164.6,20.2c-4.9,0-9.7,2.4-12.5,6.5c-1.3,2-2.1,4.3-2.3,6.6c-0.2,3,0.8,5.8,2.5,8.3c0.8,1.1,1.5,2.2,2.4,3.1
		c0.9,0.9,1.9,1.7,3,2.3c2.4,1.4,5.1,2,7.9,2.1c5,0.1,10-1.7,13.2-5.6c3.2-3.9,3.9-9.5,1.7-14.1c-0.6-1.2-1.4-2.4-2.4-3.4
		c-1.1-1.1-2.4-2-3.7-2.9c-2.4-1.7-5.4-2.6-8.4-2.8C165.7,20.2,165.2,20.2,164.6,20.2z M163,39.4c-0.7,0-1.4-0.1-2-0.4
		c-0.6-0.2-1-0.9-1.3-1.5c-0.5-1.1-0.6-2.4-0.2-3.6c0.8-2.2,3.1-3.6,5.4-3.5c0.6,0,1.3,0.2,1.8,0.4c0.5,0.2,1.4,0.6,1.6,1.2
		c0.5,1.2,0.5,2.5,0,3.7C167.5,38,165.3,39.4,163,39.4z"/>
	<path class="st1" d="M149.8,34c0,7.4,6.4,13,14.8,13c8.5,0,15.2-5.8,15.3-13.2c0.1-3.6-1.2-6.8-3.5-9.2c-2.8-2.8-7.1-4.4-11.8-4.4
		C156.5,20.2,149.8,26.4,149.8,34z M163,28.6c3.1,0,5.7,2.4,5.7,5.4c0,3-2.6,5.4-5.7,5.4c-3.1,0-5.7-2.4-5.7-5.4
		C157.3,31,159.9,28.6,163,28.6z"/>
	<path class="st2" d="M164.6,21.1c-7.6,0-13.8,5.8-13.8,12.8c0,7.1,6.2,12.1,13.8,12.1c7.6,0,14.2-5.2,14.3-12.3
		C179.1,25.5,172.3,21.1,164.6,21.1z M163,40.4c-3.7,0-6.6-2.9-6.6-6.4c0-3.5,3-6.4,6.6-6.4c3.7,0,6.7,2.9,6.7,6.4
		C169.7,37.5,166.7,40.4,163,40.4z"/>
	<g class="st3">
		<path class="st2" d="M151.7,36.7c2.1,0.6,4.2,1.1,6.3,1.4c-1-1.1-1.6-2.5-1.6-4.1c0-3.5,3-6.4,6.6-6.4c3.7,0,6.7,2.9,6.7,6.4
			c0,1.1-0.3,2.2-0.9,3.2c3.4-1.2,6.8-2.6,10.2-3.9c-0.2-7.9-6.9-12.1-14.3-12.1c-7.6,0-13.8,5.8-13.8,12.8c0,0.9,0.1,1.7,0.3,2.5
			C151.3,36.6,151.5,36.6,151.7,36.7z"/>
	</g>
	<g>
		<path class="st4" d="M164.6,22.3c7.1,0,13.5,3.8,14.3,11c0,0,0,0,0.1,0c-0.2-7.9-6.9-12.1-14.3-12.1c-7.6,0-13.8,5.8-13.8,12.8
			c0,0.2,0,0.4,0,0.6C151.2,27.7,157.2,22.3,164.6,22.3z"/>
	</g>
	<path class="st4" d="M156.9,36.5c0,0,1.8,3.8,6.1,3.9c4.3,0.1,6-3.7,6.5-5.2c0,0-0.4,6-6.9,5.6C157.8,40.5,156.9,36.5,156.9,36.5z"
		/>
	<path class="st5" d="M160.2,44.2c-0.1,0.2,0.7,0.6,1.8,0.9c1.1,0.3,2.5,0.4,3.5,0.4c1,0,3-0.3,5-1.1c1-0.4,1.9-0.9,2.7-1.4
		c0.8-0.5,1.4-1.1,1.9-1.5c0.9-0.8,1.2-1.5,1.4-1.8c0.1-0.4,0-0.5,0-0.6c-0.1-0.1-0.1-0.2-0.4,0c-0.1,0.1-0.3,0.3-0.6,0.5
		c-0.1,0.1-0.3,0.3-0.5,0.5c-0.2,0.2-0.4,0.4-0.6,0.6c-0.2,0.2-0.5,0.5-0.8,0.7c-0.3,0.3-0.7,0.5-1,0.7c-0.7,0.5-1.5,0.9-2.4,1.3
		c-1.7,0.7-3.5,1-4.7,1.1c-0.3,0-0.8,0-1.4,0c-0.3,0-0.6,0-0.9,0c-0.3,0-0.6-0.1-0.9-0.1C161.2,44.3,160.2,44,160.2,44.2z
		 M177.7,36.4c0.1,0,0.2,0.1,0.3,0.4c0,0.1,0,0.2,0,0.2c0,0.1,0,0.2,0,0.3c0,0.2-0.1,0.4-0.2,0.7c-0.6,1-0.9,0.5-0.8,0.1
		c0.1-0.3,0.1-0.6,0.2-0.8c0-0.2,0.1-0.4,0.2-0.5C177.4,36.6,177.6,36.5,177.7,36.4z"/>
</g>
<g>
	<path class="st6" d="M200.5,48.2c1.4,0,1.2-1.7,1.2-2.6c0.1-1.4,0.1-2.9,0.2-4.3c0-0.4,0-0.8,0.1-1.3c0-0.9-0.6-1.1-1.2-1.6
		c-0.5-0.4-0.9-0.7-1.5-0.7c-0.6,0-1.2,0-1.9,0c-0.2,0-2.6,0.1-2.6,0c-0.1-0.7-0.1-1.4-0.2-2.2c-0.2-2.8-0.5-5.7-0.7-8.5
		c-0.1-1.1-0.2-2.1-0.3-3.2c0-0.2,0-0.4,0-0.6c-0.1-0.8-0.9-1.2-1.5-1.5c-0.3-0.2-0.7-0.6-1.1-0.5c-0.1,0-0.2,0-0.2,0
		c-0.5,0.1-1,0.2-1.4,0.3c-1.4,0.3-2.8,0.6-4.2,0.9c-0.7,0.1-2.4,0.2-2.1,1.3c0.1,0.4,0.2,0.8,0.3,1.3c0.5,2.3,1.1,4.7,1.6,7
		c1,4.4,2,8.9,3,13.3c0,0.1,0,0.1,0,0.2c0.1,0.2,0.3,0.5,0.4,0.7c0.2,0.3,0.4,0.6,0.6,0.9c0.3,0.5,0.7,0.6,1.2,0.6
		c1,0,2.1,0.1,3.1,0.1c2.4,0.1,4.7,0.2,7.1,0.3C200.4,48.2,200.4,48.2,200.5,48.2z"/>
	<path class="st7" d="M199.2,46.6c0.4,0,0.8-0.3,0.8-0.8l0.3-7.2c0-0.2-0.1-0.4-0.2-0.6c-0.2-0.2-0.4-0.2-0.6-0.2l-6.2,0.1
		l-1.3-15.8c0-0.2-0.1-0.4-0.3-0.6c-0.2-0.1-0.4-0.2-0.6-0.1l-7.4,1.5c-0.2,0-0.4,0.2-0.5,0.4c-0.1,0.2-0.2,0.4-0.1,0.6l4.9,21.6
		c0.1,0.4,0.4,0.6,0.8,0.6L199.2,46.6C199.1,46.6,199.2,46.6,199.2,46.6z"/>
	<polygon class="st8" points="183.7,23.7 191.1,22.2 192.5,38.7 199.5,38.6 199.2,45.8 188.6,45.3 	"/>
	<path class="st10" d="M192.1,33.5l-1-11.3l-7.4,1.5l2.6,11.3C188.1,34.3,190.1,33.8,192.1,33.5z"/>
	<path class="st4" d="M191.1,22.2l-7.4,1.5l0.9,4l-0.3-2.9l6.5-1.6l1.7,15.8l6.7,0.3l0.2,3l0.2-3.6c0,0-7,0.1-7,0.1L191.1,22.2z"/>
	<path class="st10" d="M195.7,45.1c0-0.3-2.4-0.6-3.8-0.7l-2.4-0.2l-0.8-4c-0.3-1.6-0.7-1.7-0.9-1.7c-0.2,0-0.4,0,0,1.9l1,4.7
		l3.1,0.2C192.9,45.3,195.7,45.4,195.7,45.1z M187.3,36.4c0.1-0.1,0.6,0.1,0.7,0.9c0.1,0.7-0.3,0.7-0.5,0.4
		C187,36.9,187.2,36.5,187.3,36.4z"/>
</g>
<g>
	<path class="st6" d="M206.9,45.9c1.6,2.3,3.7,4.1,6.4,4.8c2.5,0.6,5.2,0.2,7.3-1.2c2.1-1.3,3.5-3.4,3.6-5.9
		c0.2-2.4-0.8-4.6-2.3-6.4c-1.5-1.8-3.4-3-5-4.6c-0.6-0.6-1.7-1.7-1.2-2.6c0.3-0.5,0.8-0.9,1.4-0.9c0.2,0,0.3-0.1,0.3,0.2
		c0,0.2,0,0.3,0,0.5c0,0.4,0,0.8-0.1,1.2c-0.1,0.5,0.2,0.9,0.6,1.3c0.3,0.4,0.5,0.9,0.9,1.2c0.5,0.5,1.2,0.3,1.8,0.1
		c0.7-0.2,1.4-0.5,2.1-0.8c1.4-0.6,2.7-1.3,4-1.9c1.3-0.6,0.9-2.1,0.6-3.2c-0.5-2.3-1.9-4.5-3.9-5.8c-1.1-0.8-2.1-1.6-3.4-2
		c-1.3-0.5-2.7-0.6-4-0.4c-2.6,0.3-4.9,2-6.3,4.1c-1.5,2.2-2.2,4.7-1.5,7.3c0.5,1.7,1.7,3.3,2.8,4.8c0.6,0.8,1.4,1.4,2.2,2
		c0.4,0.3,0.8,0.6,1.2,0.9c0.2,0.1,0.4,0.3,0.4,0.5c0,0.2,0,0.4-0.1,0.6c0.1-0.8-0.5-1.4-1.2-1.7c-0.4-0.4-1-0.8-1.7-0.8
		c-2,0.2-4-0.2-6.1-0.1c-0.4,0-0.8,0-1.1,0.2c-0.3,0.3-0.4,0.8-0.5,1.2c-0.2,0.9-0.1,1.8,0,2.6C204.7,42.7,205.8,44.3,206.9,45.9
		C206.9,45.9,206.8,45.8,206.9,45.9z"/>
	<path class="st7" d="M208.8,47.5c1.5,1.1,3.4,1.7,5.3,1.7l0,0c2.8,0,5.4-1.3,7.1-3.5c1.7-2.3,1.5-5.8,0.3-7.8
		c-1.3-2.3-2.8-3.6-4.6-5c-1.1-0.8-3-2.4-3.1-3.7c0-0.4,0.1-0.8,0.5-1.2c0.4-0.4,0.9-0.7,1.5-0.7c0.4,0,0.8,0.1,1,0.3
		c0.7,0.6,0.6,2.2,0.5,3.4c0,0.3,0.1,0.6,0.3,0.7c0.2,0.2,0.5,0.3,0.8,0.2c1.7-0.4,3.3-1.2,4.8-2c0.7-0.4,1.5-0.7,2.2-1
		c0.3-0.2,0.6-0.5,0.5-0.9c0-0.2,0-0.4,0-0.5c-0.4-4.8-4.1-8.4-8.6-8.4c-2.1,0-4.1,0.8-5.8,2.3c-1.5,1.3-2.9,3.7-3.3,5.6
		c-0.5,2.4,0.3,5,2.2,7.1c0.6,0.7,1.4,1.2,2.1,1.7c1.1,0.8,2,1.5,2.5,2.6c0.2,0.4,0,0.7-0.1,0.9c-0.2,0.3-0.5,0.5-0.9,0.5
		c-0.2,0-0.5-0.1-0.7-0.3c-0.3-0.3-0.3-0.8-0.2-1.7c0-0.3,0-0.5-0.2-0.7c-0.2-0.2-0.5-0.3-0.7-0.3c-0.4,0.1-0.8,0.1-1.3,0.1
		c-0.7,0-1.5-0.1-2.2-0.1c-0.8-0.1-1.5-0.1-2.3-0.1c-0.4,0-0.7,0-1,0c-0.4,0-0.7,0.3-0.8,0.6C203.3,41.2,205.9,45.4,208.8,47.5z"/>
	<path class="st8" d="M216.4,33.6c-1.7-1.3-4.9-3.9-2.7-6.2c1-1.1,2.8-1.2,3.7-0.4c1,0.9,1,2.6,0.8,4.2c2.4-0.6,4.5-2,6.8-3
		c0-0.2,0-0.4,0-0.5c-0.5-6.6-7.9-10-13-5.5c-1.3,1.1-2.7,3.4-3,5.1c-0.5,2.3,0.4,4.6,2,6.4c1.5,1.7,3.8,2.4,4.7,4.6
		c0.7,1.9-1.7,3.5-3.1,2c-0.6-0.7-0.5-1.6-0.4-2.4c-2.2,0.3-4.7-0.3-6.9-0.1c-1,3.3,1.4,7.2,4.1,9.1c3.4,2.4,8.5,2,11.2-1.6
		c1.4-1.9,1.3-5,0.3-6.9C219.6,36.2,218.2,35,216.4,33.6z"/>
	<path class="st10" d="M214.4,31.8c-1.2-1.3-2.1-2.9-0.7-4.4c1-1.1,2.8-1.2,3.7-0.4c1,0.9,1,2.6,0.8,4.2c2.4-0.6,4.5-2,6.8-3
		c0-0.2,0-0.4,0-0.5c-0.5-6.6-7.9-10-13-5.5c-1.3,1.1-2.7,3.4-3,5.1c-0.3,1.7,0,3.3,0.8,4.7C211.3,31.9,212.9,31.8,214.4,31.8z"/>
	<g>
		<path class="st4" d="M212,23.2c5-4.4,12.1-1.3,12.9,5.1c0,0,0.1,0,0.1,0c0-0.2,0-0.4,0-0.5c-0.5-6.6-7.9-10-13-5.5
			c-1.3,1.1-2.7,3.4-3,5.1c-0.1,0.6-0.2,1.2-0.1,1.8c0-0.3,0.1-0.5,0.1-0.8C209.4,26.6,210.7,24.3,212,23.2z"/>
	</g>
	<path class="st4" d="M216.4,34.3c1.8,1.5,3.2,2.6,4.4,4.8c0.5,0.8,0.7,1.9,0.8,2.9c0.1-1.3-0.2-2.6-0.8-3.6
		c-1.2-2.1-2.6-3.3-4.4-4.8c-1.2-0.9-3.2-2.5-3.4-4.2C212.7,31.3,215.1,33.2,216.4,34.3z"/>
	<path class="st4" d="M212.6,41c1.3,1.4,3.5,0.1,3.2-1.6c-0.3,1.4-2,2.2-3.2,0.9c-0.3-0.3-0.4-0.7-0.5-1.1
		C212.1,39.8,212.1,40.4,212.6,41z"/>
	<path class="st4" d="M212.1,38.5c0-0.2,0.1-0.5,0.1-0.7c-2.2,0.3-4.7-0.3-6.9-0.1c-0.2,0.6-0.3,1.3-0.2,2c0-0.4,0.1-0.9,0.2-1.3
		C207.5,38.2,210,38.8,212.1,38.5z"/>
	<path class="st10" d="M205.8,41.5c-0.1,0,0,0.2,0.1,0.6c0.1,0.2,0.1,0.3,0.2,0.5c0.1,0.2,0.2,0.4,0.3,0.6c0.3,0.4,0.6,0.9,0.9,1.3
		c0.2,0.2,0.3,0.4,0.5,0.6c0.2,0.2,0.4,0.4,0.5,0.5c0.1,0.1,0.2,0.2,0.3,0.3c0.1,0.1,0.2,0.2,0.4,0.3c0.3,0.2,0.6,0.4,0.9,0.6
		c0.7,0.4,1.6,0.8,2.5,1c0.9,0.2,1.9,0.1,2.8,0c0.9-0.2,1.6-0.4,2.1-0.7c0.3-0.1,0.5-0.2,0.7-0.3c0,0,0.1-0.1,0.1-0.1
		c0.1,0,0.1-0.1,0.2-0.1c0.1-0.1,0.2-0.1,0.2-0.2c0.3-0.2,0.4-0.4,0.5-0.6c0.2-0.3,0.1-0.4,0.1-0.5c-0.1-0.1-0.1-0.2-0.3,0
		c-0.1,0.1-0.3,0.2-0.6,0.3c-0.1,0-0.1,0.1-0.2,0.1c-0.1,0-0.2,0.1-0.3,0.1c-0.1,0.1-0.2,0.1-0.4,0.2c-0.1,0.1-0.2,0.1-0.4,0.2
		c-0.5,0.3-1.2,0.5-2,0.6c-0.2,0-0.4,0.1-0.6,0.1c-0.2,0-0.4,0-0.6,0c-0.4,0-0.8,0-1.2-0.1l-0.3,0c-0.1,0-0.2-0.1-0.3-0.1
		c-0.2-0.1-0.4-0.1-0.6-0.2c-0.3-0.2-0.7-0.3-1-0.5c-0.2-0.1-0.3-0.2-0.5-0.3c-0.1-0.1-0.3-0.2-0.4-0.3c-0.1-0.1-0.3-0.2-0.4-0.3
		c-0.1-0.1-0.2-0.2-0.3-0.3c-0.1-0.1-0.2-0.2-0.4-0.4c-0.2-0.1-0.3-0.3-0.5-0.5c-0.2-0.2-0.3-0.4-0.5-0.6c-0.2-0.2-0.3-0.4-0.5-0.6
		c-0.3-0.4-0.6-0.8-0.8-1.1C206.1,41.7,205.9,41.5,205.8,41.5z M220.5,43.2c0.1,0,0.2,0.1,0.2,0.4c0,0.1,0,0.3,0,0.4
		c0,0.1,0,0.2-0.1,0.3c0,0.1-0.1,0.2-0.2,0.3c-0.1,0.2-0.3,0.3-0.4,0.4c-0.1,0.1-0.2,0.1-0.3,0c-0.1-0.1-0.1-0.2-0.1-0.4
		c0.1-0.3,0.1-0.5,0.2-0.7c0.1-0.2,0.1-0.3,0.2-0.4C220.3,43.3,220.4,43.2,220.5,43.2z"/>
</g>
<g>
	<path class="st6" d="M279.5,20.2c-0.3,0.3-0.2,0.9-0.2,1.3c0,0.7,0,1.4,0,2c0,1.2,0,2.5,0.1,3.7c0,0.3,0.2,0.6,0.3,0.8
		c0.3,0.5,0.7,1.2,1.2,1.6c0.5,0.4,1.4,0.3,2.1,0.3c0.4,0,0.3,0,0.3,0.4c0,0.5,0,1,0.1,1.5c0.1,2.6,0.2,5.2,0.3,7.8
		c0,0.2-0.7,0.1-0.9,0.1c-0.6,0-1.2,0.1-1.8,0.1c-0.8,0-0.8,0.7-0.8,1.3c0.1,0.6,0.1,1.2,0.2,1.9c0.1,1.3,0.3,2.5,0.4,3.8
		c0,0.3,0.2,0.5,0.3,0.7c0.2,0.3,0.4,0.5,0.6,0.8c0.2,0.3,0.4,0.6,0.6,0.8c0.4,0.3,0.8,0.3,1.3,0.2c2.7-0.4,5.4-0.7,8.1-1.1
		c0.6-0.1,1.5-0.1,2.1-0.3c1-0.5,0.7-2.2,0.6-3.1c0-1.1,0-2.2-0.1-3.3c0-0.9-0.9-1.1-1.5-1.6c-0.3-0.3-0.8-0.6-1.2-0.6
		c-0.2,0-0.5,0-0.7,0c0.1-2.4,0.2-4.8,0.2-7.2c0-0.6,0-1.1,0.1-1.7c0-0.1-0.1-0.5,0.1-0.5c0.6,0,1.3,0,1.9,0c0.8,0,1.3-0.7,1.3-1.4
		c0-1.2,0-2.5-0.1-3.7c0-0.7,0-1.4,0-2c0-0.4,0-0.9-0.2-1.3c-0.1-0.2-1.8-1.5-2.2-1.5c-0.2,0-0.5,0-0.7,0c-1.2,0-2.4,0-3.7,0
		c-1.8,0-3.5,0-5.3,0c-0.6,0-1.2,0-1.8,0C280.2,19.9,279.8,19.9,279.5,20.2C279.3,20.4,279.6,20,279.5,20.2z"/>
	<path class="st7" d="M279.5,20.2c-0.2,0.2-0.3,0.4-0.2,0.6l0.1,6.5c0,0.5,0.4,0.8,0.9,0.8h2.9l0.5,11.5l-2.7,0.1
		c-0.2,0-0.5,0.1-0.6,0.3c-0.2,0.2-0.2,0.4-0.2,0.7l0.7,6.1c0,0.2,0.1,0.4,0.3,0.6c0.2,0.1,0.3,0.2,0.5,0.2c0,0,0.1,0,0.1,0
		l10.3-1.4c0.4-0.1,0.8-0.4,0.7-0.9l-0.1-5.3c0-0.2-0.1-0.5-0.3-0.6c-0.2-0.2-0.4-0.2-0.6-0.2l-2.5,0.1l0.4-11.2h2.4h0
		c0.5,0,0.9-0.4,0.9-0.9c0,0,0-0.1,0-0.1l-0.1-6.5c0-0.5-0.4-0.9-0.9-0.9l-11.9,0.1C279.9,19.9,279.6,20,279.5,20.2z"/>
	<polygon class="st8" points="288.4,40.2 288.9,27.3 292.1,27.3 292,20.7 280.1,20.8 280.2,27.3 284,27.3 284.6,40.4 281,40.6 
		281.7,46.7 292,45.4 291.9,40.1 	"/>
	<g class="st3">
		<path class="st8" d="M284,27.3l0.2,5.2c1.5,0.1,3,0.2,4.5,0.3l0.2-5.5h3.2l-0.1-6.6l-11.9,0.1l0.1,6.5H284z"/>
	</g>
	<g>
		<polygon class="st4" points="280.6,21.7 291.8,21.6 292,24 292,20.7 280.1,20.8 280.2,25.2 		"/>
	</g>
	<polygon class="st4" points="284.5,39.5 284.7,40.8 281.5,41.2 281.5,45.2 281,40.6 284.5,40.4 	"/>
	<polygon class="st4" points="288.5,39.5 288.4,40.5 291.7,40.5 292,45 291.9,40.1 288.5,40.2 	"/>
	<path class="st11" d="M282.1,45.9c0.1,0.3,2,0.2,3.1,0c1.1-0.2,4.3-0.7,5.7-0.9c0.3,0,0.5-0.1,0.8-0.1c0-0.2,0-0.5,0-0.6
		c0-0.1,0-0.1,0-0.2c0,0,0-0.1,0-0.1c0-0.1-0.1-0.3-0.1-0.3c-0.1-0.2-0.2-0.2-0.3-0.2c-0.1,0-0.2,0-0.2,0.1c0,0.1-0.1,0.2-0.1,0.3
		c0,0.1,0,0.2,0,0.3c0,0,0,0,0,0c0,0,0,0,0,0c-1.6,0.3-4.2,0.7-5.7,0.9C284.3,45.1,282.1,45.6,282.1,45.9z M291.1,41.7
		c0.2,0,0.6,0.2,0.6,0.8c0,0.6-0.5,0.5-0.6,0.2C290.7,42.1,290.9,41.8,291.1,41.7z"/>
</g>
<g>
	<path class="st6" d="M328.3,46.4c1.6,2.3,3.7,4.1,6.4,4.8c2.5,0.6,5.2,0.2,7.3-1.2c2.1-1.3,3.5-3.4,3.6-5.9
		c0.2-2.4-0.8-4.6-2.3-6.4c-1.5-1.8-3.4-3-5-4.6c-0.6-0.6-1.7-1.7-1.2-2.6c0.3-0.5,0.8-0.9,1.4-0.9c0.2,0,0.3-0.1,0.3,0.2
		c0,0.2,0,0.3,0,0.5c0,0.4,0,0.8-0.1,1.2c-0.1,0.5,0.2,0.9,0.6,1.3c0.3,0.4,0.5,0.9,0.9,1.2c0.5,0.5,1.2,0.3,1.8,0.1
		c0.7-0.2,1.4-0.5,2.1-0.8c1.4-0.6,2.7-1.3,4-1.9c1.3-0.6,0.9-2.1,0.6-3.2c-0.5-2.3-1.9-4.5-3.9-5.8c-1.1-0.8-2.1-1.6-3.4-2
		c-1.3-0.5-2.7-0.6-4-0.4c-2.6,0.3-4.9,2-6.3,4.1c-1.5,2.2-2.2,4.7-1.5,7.3c0.5,1.7,1.7,3.3,2.8,4.8c0.6,0.8,1.4,1.4,2.2,2
		c0.4,0.3,0.8,0.6,1.2,0.9c0.2,0.1,0.4,0.3,0.4,0.5c0,0.2,0,0.4-0.1,0.6c0.1-0.8-0.5-1.4-1.2-1.7c-0.4-0.4-1-0.8-1.7-0.8
		c-2,0.2-4-0.2-6.1-0.1c-0.4,0-0.8,0-1.1,0.2c-0.3,0.3-0.4,0.8-0.5,1.2c-0.2,0.9-0.1,1.8,0,2.6C326.2,43.3,327.2,44.9,328.3,46.4
		C328.4,46.5,328.2,46.3,328.3,46.4z"/>
	<path class="st7" d="M330.3,48.1c1.5,1.1,3.4,1.7,5.3,1.7l0,0c2.8,0,5.4-1.3,7.1-3.5c1.7-2.3,1.5-5.8,0.3-7.8
		c-1.3-2.3-2.8-3.6-4.6-5c-1.1-0.8-3-2.4-3.1-3.7c0-0.4,0.1-0.8,0.5-1.2c0.4-0.4,0.9-0.7,1.5-0.7c0.4,0,0.8,0.1,1,0.3
		c0.7,0.6,0.6,2.2,0.5,3.4c0,0.3,0.1,0.6,0.3,0.7c0.2,0.2,0.5,0.3,0.8,0.2c1.7-0.4,3.3-1.2,4.8-2c0.7-0.4,1.5-0.7,2.2-1
		c0.3-0.2,0.6-0.5,0.5-0.9c0-0.2,0-0.4,0-0.5c-0.4-4.8-4.1-8.4-8.6-8.4c-2.1,0-4.1,0.8-5.8,2.3c-1.5,1.3-2.9,3.7-3.3,5.6
		c-0.5,2.4,0.3,5,2.2,7.1c0.6,0.7,1.4,1.2,2.1,1.7c1.1,0.8,2,1.5,2.5,2.6c0.2,0.4,0,0.7-0.1,0.9c-0.2,0.3-0.5,0.5-0.9,0.5
		c-0.2,0-0.5-0.1-0.7-0.3c-0.3-0.3-0.3-0.8-0.2-1.7c0-0.3,0-0.5-0.2-0.7c-0.2-0.2-0.5-0.3-0.7-0.3c-0.4,0.1-0.8,0.1-1.3,0.1
		c-0.7,0-1.5-0.1-2.2-0.1c-0.8-0.1-1.5-0.1-2.3-0.1c-0.4,0-0.7,0-1,0c-0.4,0-0.7,0.3-0.8,0.6C324.7,41.7,327.3,46,330.3,48.1z"/>
	<path class="st8" d="M337.9,34.1c-1.7-1.3-4.9-3.9-2.7-6.2c1-1.1,2.8-1.2,3.7-0.4c1,0.9,1,2.6,0.8,4.2c2.4-0.6,4.5-2,6.8-3
		c0-0.2,0-0.4,0-0.5c-0.5-6.6-7.9-10-13-5.5c-1.3,1.1-2.7,3.4-3,5.1c-0.5,2.3,0.4,4.6,2,6.4c1.5,1.7,3.8,2.4,4.7,4.6
		c0.7,1.9-1.7,3.5-3.1,2c-0.6-0.7-0.5-1.6-0.4-2.4c-2.2,0.3-4.7-0.3-6.9-0.1c-1,3.3,1.4,7.2,4.1,9.1c3.4,2.4,8.5,2,11.2-1.6
		c1.4-1.9,1.3-5,0.3-6.9C341,36.8,339.7,35.6,337.9,34.1z"/>
	<path class="st10" d="M335.8,32.4c-1.2-1.3-2.1-2.9-0.7-4.4c1-1.1,2.8-1.2,3.7-0.4c1,0.9,1,2.6,0.8,4.2c2.4-0.6,4.5-2,6.8-3
		c0-0.2,0-0.4,0-0.5c-0.5-6.6-7.9-10-13-5.5c-1.3,1.1-2.7,3.4-3,5.1c-0.3,1.7,0,3.3,0.8,4.7C332.8,32.4,334.3,32.4,335.8,32.4z"/>
	<g>
		<path class="st4" d="M333.5,23.7c5-4.4,12.1-1.3,12.9,5.1c0,0,0.1,0,0.1,0c0-0.2,0-0.4,0-0.5c-0.5-6.6-7.9-10-13-5.5
			c-1.3,1.1-2.7,3.4-3,5.1c-0.1,0.6-0.2,1.2-0.1,1.8c0-0.3,0.1-0.5,0.1-0.8C330.8,27.1,332.2,24.9,333.5,23.7z"/>
	</g>
	<path class="st4" d="M337.9,34.8c1.8,1.5,3.2,2.6,4.4,4.8c0.5,0.8,0.7,1.9,0.8,2.9c0.1-1.3-0.2-2.6-0.8-3.6
		c-1.2-2.1-2.6-3.3-4.4-4.8c-1.2-0.9-3.2-2.5-3.4-4.2C334.1,31.9,336.5,33.8,337.9,34.8z"/>
	<path class="st4" d="M334,41.5c1.3,1.4,3.5,0.1,3.2-1.6c-0.3,1.4-2,2.2-3.2,0.9c-0.3-0.3-0.4-0.7-0.5-1.1
		C333.5,40.4,333.6,41,334,41.5z"/>
	<path class="st4" d="M333.6,39.1c0-0.2,0.1-0.5,0.1-0.7c-2.2,0.3-4.7-0.3-6.9-0.1c-0.2,0.6-0.3,1.3-0.2,2c0-0.4,0.1-0.9,0.2-1.3
		C328.9,38.8,331.4,39.3,333.6,39.1z"/>
	<path class="st10" d="M327.3,42.1c-0.1,0,0,0.2,0.1,0.6c0.1,0.2,0.1,0.3,0.2,0.5c0.1,0.2,0.2,0.4,0.3,0.6c0.3,0.4,0.6,0.9,0.9,1.3
		c0.2,0.2,0.3,0.4,0.5,0.6c0.2,0.2,0.4,0.4,0.5,0.5c0.1,0.1,0.2,0.2,0.3,0.3c0.1,0.1,0.2,0.2,0.4,0.3c0.3,0.2,0.6,0.4,0.9,0.6
		c0.7,0.4,1.6,0.8,2.5,1c0.9,0.2,1.9,0.1,2.8,0c0.9-0.2,1.6-0.4,2.1-0.7c0.3-0.1,0.5-0.2,0.7-0.3c0,0,0.1-0.1,0.1-0.1
		c0.1,0,0.1-0.1,0.2-0.1c0.1-0.1,0.2-0.1,0.2-0.2c0.3-0.2,0.4-0.4,0.5-0.6c0.2-0.3,0.1-0.4,0.1-0.5c-0.1-0.1-0.1-0.2-0.3,0
		c-0.1,0.1-0.3,0.2-0.6,0.3c-0.1,0-0.1,0.1-0.2,0.1c-0.1,0-0.2,0.1-0.3,0.1c-0.1,0.1-0.2,0.1-0.4,0.2c-0.1,0.1-0.2,0.1-0.4,0.2
		c-0.5,0.3-1.2,0.5-2,0.6c-0.2,0-0.4,0.1-0.6,0.1c-0.2,0-0.4,0-0.6,0c-0.4,0-0.8,0-1.2-0.1l-0.3,0c-0.1,0-0.2-0.1-0.3-0.1
		c-0.2-0.1-0.4-0.1-0.6-0.2c-0.3-0.2-0.7-0.3-1-0.5c-0.2-0.1-0.3-0.2-0.5-0.3c-0.1-0.1-0.3-0.2-0.4-0.3c-0.1-0.1-0.3-0.2-0.4-0.3
		c-0.1-0.1-0.2-0.2-0.3-0.3c-0.1-0.1-0.2-0.2-0.4-0.4c-0.2-0.1-0.3-0.3-0.5-0.5c-0.2-0.2-0.3-0.4-0.5-0.6c-0.2-0.2-0.3-0.4-0.5-0.6
		c-0.3-0.4-0.6-0.8-0.8-1.1C327.5,42.2,327.4,42.1,327.3,42.1z M341.9,43.8c0.1,0,0.2,0.1,0.2,0.4c0,0.1,0,0.3,0,0.4
		c0,0.1,0,0.2-0.1,0.3c0,0.1-0.1,0.2-0.2,0.3c-0.1,0.2-0.3,0.3-0.4,0.4c-0.1,0.1-0.2,0.1-0.3,0c-0.1-0.1-0.1-0.2-0.1-0.4
		c0.1-0.3,0.1-0.5,0.2-0.7c0.1-0.2,0.1-0.3,0.2-0.4C341.7,43.9,341.9,43.8,341.9,43.8z"/>
</g>
<g>
	<path class="st6" d="M308.3,21.6c-0.2-0.2-0.6-0.5-0.9-0.6c-0.2-0.2-0.6-0.4-0.8-0.6c-0.2-0.1-0.4-0.1-0.6-0.1
		c-0.7-0.1-1.3-0.2-2-0.2c-1.3-0.2-2.5-0.3-3.8-0.5c-1.1-0.1-1.1,0.9-1.1,1.6c-0.1,1-0.2,2-0.3,2.9c-0.6,6.4-1.2,12.8-1.8,19.2
		c-0.1,1-0.2,2-0.3,3c0,0.2,0,0.5-0.1,0.7c-0.1,0.5,0.3,0.9,0.5,1.3c0.4,0.7,1,1.7,1.9,1.8c0.4,0,0.8,0,1.2,0.1
		c1.6,0.1,3.2,0.2,4.9,0.3c1.1,0.1,2.1,0.1,3.2,0.2c0.6,0,1.2-0.2,1.4-0.8c0.2-0.4,0.1-0.9,0-1.3c-0.2-2.3-0.5-4.5-0.7-6.8
		c1.3,2,2.6,4,3.8,5.9c0.3,0.5,0.7,1.3,1.2,1.6c0.5,0.3,1.1,0.2,1.7,0.2c1.3,0,2.6,0.1,4,0c1.2,0,1.3-1,1.4-1.9c0.1-1,0.2-2,0.3-3
		c0.3-3.2,0.7-6.5,1-9.7c0.3-3,0.6-6,1-9c0.1-0.7,0.2-1.4,0.2-2.1c0.1-0.6-0.1-1.2-0.7-1.5c-0.2-0.2-0.6-0.5-0.9-0.6
		c-0.2-0.2-0.5-0.4-0.8-0.6c-0.2-0.1-0.4-0.1-0.6-0.1c-2.3-0.1-4.7-0.1-7-0.2c-0.9,0-1.8,0-2.7-0.1c-0.8,0-1.2,0.6-1,1.3
		c0.3,1.3,0.4,2.5,0.6,3.8c-0.3-0.7-0.6-1.4-1-2.1C309.3,23.1,309,22,308.3,21.6C308.2,21.6,308.6,21.8,308.3,21.6z"/>
	<path class="st7" d="M306.3,20.4l-6.1-0.8c-0.3,0-0.5,0-0.7,0.2c-0.2,0.2-0.3,0.4-0.3,0.7l-2.5,26.7c0,0.3,0.1,0.5,0.2,0.7
		c0.2,0.2,0.4,0.3,0.7,0.3l9.4,0.5c0,0,0,0,0.1,0h0c0.5,0,0.9-0.4,0.9-0.9c0-0.1,0-0.2,0-0.2l-1-9l5.6,8.6c0.2,0.3,0.5,0.4,0.8,0.4
		h4.9c0.5,0,0.9-0.4,0.9-0.8l2.7-24.7c0-0.3-0.1-0.5-0.2-0.7c-0.2-0.2-0.4-0.3-0.7-0.3l-10-0.3c-0.3,0-0.6,0.1-0.8,0.3
		c-0.2,0.2-0.3,0.5-0.2,0.8c0.4,1.8,0.7,4.8,1,7.4l-3.9-8.4C306.9,20.6,306.6,20.4,306.3,20.4z"/>
	<path class="st8" d="M306.9,47.7l-9.4-0.5l2.5-26.7l6.1,0.8l6.1,13.1c0,0-0.5-8.9-1.4-12.8l10,0.3l-2.7,24.6h-4.9l-7.7-12
		L306.9,47.7z"/>
	<g class="st3">
		<path class="st8" d="M301,31.5c3.2-0.5,6.4-0.7,9.6-0.6l-4.4-9.6l-6.1-0.8L299,31.9C299.7,31.7,300.4,31.6,301,31.5z"/>
	</g>
	<g class="st3">
		<path class="st8" d="M313.9,31.2c2,0.2,3.9,0.6,5.8,1l1.1-10.3l-10-0.3c0.5,2.3,0.9,6.4,1.2,9.3C312.6,31,313.3,31.1,313.9,31.2z"
			/>
	</g>
	<g>
		<path class="st4" d="M306.2,21.3l-6.1-0.8L299,31.9c0.2,0,1.6-10.5,1.6-10.5l5.2,1.2l6.6,12.1L306.2,21.3z"/>
	</g>
	<g>
		<path class="st4" d="M311.5,22.6l8.7,0.7l-0.1,5.1l0.7-6.4l-10-0.3c0.2,0.8,0.3,1.8,0.5,2.9L311.5,22.6z"/>
	</g>
	<path class="st11" d="M298.4,46.3c0,0.4,3.1,0.8,4.7,0.9l3.3,0.2l-0.9-6.8c-0.3-2.1-0.7-2.2-0.9-2.3c-0.2,0-0.4-0.1-0.1,2.4
		l0.7,5.6l-2.1-0.2C302,46.1,298.5,45.9,298.4,46.3z M304.4,35.8c0.2-0.1,0.7,0.2,0.8,1.2c0.1,0.9-0.4,0.8-0.6,0.5
		C304,36.3,304.2,35.8,304.4,35.8z"/>
	<path class="st11" d="M314.1,45.9c0,0.2,0.5,0.3,1.2,0.4c0.3,0,0.7,0.1,1.1,0.1c0.2,0,0.4,0,0.6,0c0.3,0,0.7,0,1,0
		c0-0.3,0.1-0.5,0.1-0.7c0.2-1.3,0.6-5.3,0.8-6.9c0.2-1.6-0.2-1.8-0.3-1.8c-0.2,0-0.4-0.2-0.6,1.7c-0.2,1.9-0.6,5.1-0.8,6.8
		c0,0,0,0,0,0c0,0,0,0,0,0c-0.2,0-0.3,0-0.5,0c-0.4,0-0.7,0-1.1,0.1C314.6,45.6,314.1,45.7,314.1,45.9z M318.5,34.9
		c0.2,0,0.6,0.3,0.5,1c-0.1,0.7-0.6,0.5-0.7,0.2C318.1,35.2,318.4,34.9,318.5,34.9z"/>
</g>
<g>
	<path class="st6" d="M359.5,47c0,0.5,0.6,1,0.9,1.4c0.3,0.5,0.7,1.1,1.4,1c0.3,0,0.6-0.1,0.9-0.2c1.4-0.3,2.7-0.6,4.1-0.9
		c0.9-0.2,2.6-0.3,2.7-1.5c0-0.5-0.2-1.1-0.2-1.7c-0.7-4.7-1.5-9.3-2.2-14c0,0,0,0,0,0c2.2,0.1,4.4,0.2,6.6,0.4
		c0.5,0,0.9-0.1,1.2-0.5c0.3-0.4,0.2-0.9,0.2-1.3c-0.1-1.3-0.2-2.7-0.3-4c0-0.6-0.1-1.2-0.1-1.8c0-0.5-0.1-1-0.5-1.3
		c-0.5-0.3-1-0.7-1.5-1c-0.2-0.1-0.4-0.2-0.6-0.2c-0.2,0-0.4,0-0.6,0c-2.2,0.1-4.5,0.2-6.7,0.4c-2.9,0.2-5.9,0.3-8.8,0.5
		c-1,0.1-2.1,0.1-3.1,0.2c-0.4,0-1.1-0.1-1.5,0.2c-0.5,0.3-0.4,0.8-0.3,1.3c0.1,0.6,0.2,1.2,0.3,1.8c0.2,1.3,0.4,2.6,0.6,3.9
		c0.1,0.6,0.5,1.1,0.9,1.6c0.3,0.5,0.6,1,1.3,1c0.2,0,0.3,0,0.5-0.1c1.3-0.2,2.5-0.4,3.8-0.6c0.1,0,0.1,0,0.2,0
		c0.2,4.6,0.5,9.1,0.7,13.7C359.4,45.7,359.4,46.3,359.5,47z"/>
	<path class="st7" d="M359.5,47c0,0.2,0.1,0.5,0.3,0.6c0.1,0.1,0.3,0.2,0.5,0.2c0.1,0,0.1,0,0.2,0l6.7-1.5c0.4-0.1,0.7-0.5,0.6-0.9
		l-2.5-15.9l7.2,0.4c0,0,0,0,0,0h0c0.5,0,0.8-0.4,0.8-0.8c0-0.1,0-0.1,0-0.2l-0.4-6.7c0-0.4-0.4-0.8-0.9-0.8l-20.3,1.1
		c-0.2,0-0.4,0.1-0.6,0.3c-0.1,0.2-0.2,0.4-0.2,0.6l1,6.5c0,0.2,0.2,0.4,0.3,0.5c0.2,0.1,0.4,0.2,0.6,0.1l5.6-0.9L359.5,47z"/>
	<polygon class="st8" points="351.9,23.2 352.8,29.7 359.3,28.6 360.3,46.9 367,45.4 364.3,28.5 372.6,28.9 372.1,22.1 	"/>
	<path class="st10" d="M359.3,28.6l0.3,5.5c1.9,0,3.7,0,5.6-0.3l-0.8-5.4l8.2,0.4l-0.4-6.8l-20.3,1.1l1,6.5L359.3,28.6z"/>
	<polygon class="st4" points="372.1,22.1 351.9,23.2 352.3,26.3 352.4,24.4 371.7,23.3 372.5,27.7 	"/>
	<path class="st12" d="M366,45.1c0-0.3-2.6-0.1-4,0.1l-0.6,0.1l-0.4-6c-0.1-1.7-0.5-1.9-0.6-1.9c-0.2,0-0.4-0.1-0.2,2l0.5,6.9
		l1.5-0.2C363.1,45.9,366,45.5,366,45.1z M360.1,35.1c0.2-0.1,0.6,0.2,0.6,1c0,0.8-0.4,0.7-0.5,0.4C359.8,35.6,360,35.2,360.1,35.1z
		"/>
</g>
<g>
	<path class="st6" d="M377,23c0.2,4.4,0.4,8.7,0.5,13.1c0.1,2.9,0.2,5.7,0.4,8.6c0,0.9,0.1,1.7,0.1,2.6c0,0.2,0,0.4,0,0.6
		c0,0,0,0,0,0.1c0,0.3,0.2,0.5,0.3,0.7c0.2,0.3,0.4,0.6,0.7,0.9c0.3,0.7,0.8,1,1.5,0.9c0.6,0,1.2,0,1.7-0.1c1.4-0.1,2.8-0.1,4.2-0.1
		c0.6,0,1.3-0.2,1.5-0.8c0.1-0.4,0-1-0.1-1.4c-0.2-1.3-0.4-2.7-0.6-4c0,0,0-0.1,0-0.2c1.9,1.4,3.7,2.8,5.6,4.2
		c0.5,0.4,1,0.6,1.6,0.2c0.3-0.2,0.5-0.6,0.8-0.8c0.9-1.1,1.9-2.3,2.8-3.4c0.4-0.5,1-1,1.2-1.6c0.1-0.3,0.1-0.7-0.1-1
		c-0.1-0.2-0.3-0.7-0.6-0.8c-0.4-0.2-0.8-0.4-1.2-0.6c-1.4-0.6-2.7-1.3-4.1-2c2.1-1.2,3.6-3.1,4.1-5.5c0.5-2.3,0-4.8-1.5-6.7
		c-0.8-1-1.9-1.7-3-2.4c-1.1-0.8-2.3-1.4-3.6-1.8c-2.7-0.9-5.5-0.9-8.3-0.4c-0.9,0.2-1.7,0.3-2.6,0.6C377.8,22,376.9,22.2,377,23z
		 M385.9,31.4c0.2,0,0.4,0.1,0.6,0.2c-0.1,0.2-0.4,0.2-0.6,0.2C385.9,31.6,385.9,31.5,385.9,31.4z"/>
	<path class="st7" d="M377,23l1,24.9c0,0.5,0.4,0.8,0.9,0.8c0,0,0,0,0,0l6.6-0.2c0.2,0,0.5-0.1,0.6-0.3c0.2-0.2,0.2-0.4,0.2-0.7
		l-0.9-5.9l6.5,4.9c0.4,0.3,0.9,0.2,1.2-0.1l4.3-5.2c0.2-0.2,0.2-0.5,0.2-0.7c-0.1-0.3-0.2-0.5-0.5-0.6l-6.3-3
		c0.6-0.3,1.2-0.6,1.7-1c3-2,4.2-6.2,2.8-9.5c-1.4-3.2-5.5-5.1-8.8-5.4c-1-0.1-2.2-0.1-3.4,0c-0.8,0.1-1.5,0.2-2.3,0.3
		c-1.7,0.3-2.6,0.7-3.1,0.9C377.2,22.3,377,22.6,377,23z M386.6,31.3c-0.1,0.2-0.1,0.5-0.9,0.5c-0.4,0-1-0.1-1.5-0.2l-0.1-2
		c0.9,0.1,1.9,0.5,2.3,1C386.7,30.8,386.7,31,386.6,31.3z"/>
	<path class="st8" d="M396.6,40.6l-8.3-3.9c1.3-0.3,2.5-0.8,3.6-1.5c2.7-1.8,3.7-5.6,2.5-8.4c-1.3-3-5.1-4.6-8.1-4.9
		c-1-0.1-2.1-0.1-3.2,0c-0.8,0.1-1.5,0.2-2.2,0.3c-1.5,0.3-2.4,0.6-2.9,0.8l0.1,1.2l1,23.7l6.6-0.2l-1.3-8.1l8.2,6.2L396.6,40.6z
		 M383.6,28.7c1.5-0.1,4.4,0.8,3.9,2.8c-0.4,1.6-2.4,1.1-4.1,0.8l-0.1-3.5C383.4,28.7,383.5,28.7,383.6,28.7z"/>
	<g class="st9">
		<path class="st8" d="M378.3,33.8c2.6,1,5.3,1.8,8,1.9c1.9,0,3.7-0.2,5.6-0.5c0,0,0.1,0,0.1-0.1c2.7-1.8,3.7-5.6,2.5-8.4
			c-1.3-3-5.1-4.6-8.1-4.9c-1-0.1-2.1-0.1-3.2,0c-0.8,0.1-1.5,0.2-2.2,0.3c-1.5,0.3-2.4,0.6-2.9,0.8l0.1,1.2L378.3,33.8z
			 M383.6,28.7c1.5-0.1,4.4,0.8,3.9,2.8c-0.4,1.6-2.4,1.1-4.1,0.8l-0.1-3.5C383.4,28.7,383.5,28.7,383.6,28.7z"/>
	</g>
	<path class="st4" d="M387,29.9c0.4,0.4,0.6,1,0.4,1.6c-0.4,1.6-2.4,1.1-4.1,0.8l-0.1-3.4c0,0,0,0-0.1,0l0,3.8l0.6,0.1
		c0.7,0.2,1.5,0.3,2.2,0.3c1.5,0,1.7-0.5,1.9-1.2c0.2-0.7,0-1-0.4-1.5C387.4,30.2,387.2,30.1,387,29.9z"/>
	<path class="st4" d="M378.4,24c0.5-0.2,1.3-0.4,2.5-0.7c0.7-0.1,1.4-0.2,2.2-0.3c0.6-0.1,1.2-0.1,1.7-0.1c0.5,0,1,0,1.4,0.1
		c3,0.3,6.5,1.9,7.7,4.6c1.1,2.4,0.4,5.4-1.6,7.2c2.4-1.9,3.2-5.4,2-8.1c-1.3-3-5.1-4.6-8.1-4.9c-1-0.1-2.1-0.1-3.2,0
		c-0.8,0.1-1.5,0.2-2.2,0.3c-1.5,0.3-2.4,0.6-2.9,0.8l0.1,1.2l0.1,2.7L378.4,24z"/>
	<polygon class="st4" points="388.3,36.7 396.6,40.6 394.3,43.4 395.6,40.7 387.2,36.7 	"/>
	<path class="st10" d="M379.7,47.1c0,0.3,2,0.3,3.1,0.2l2-0.2l-0.6-4.6c-0.2-1.3-0.5-1.4-0.7-1.4c-0.2,0-0.4,0-0.2,1.5l0.5,3.7
		l-1.1,0.1C381.9,46.4,379.7,46.7,379.7,47.1z M383.2,39.3c0.2-0.1,0.6,0.1,0.7,0.7c0.1,0.6-0.4,0.6-0.5,0.3
		C382.8,39.7,383,39.4,383.2,39.3z"/>
</g>
<g>
	<path class="st6" d="M422.4,26.4c-0.1-0.6-0.6-0.7-1-1c-0.2-0.2-0.4-0.3-0.6-0.4c-0.2-0.2-0.4-0.4-0.8-0.4c-1.1,0-2.2,0.1-3.2,0.2
		c-0.4,0-0.8,0.1-1.3,0.1c-0.6,0-0.8,0.6-0.7,1.1c0.1,1.2,0.1,2.4,0,3.6c0.1,0.7,0.1,1.3,0,1.9c0,0.1,0,0.2,0,0.4
		c0.1,1.8-0.5,3.7-2.3,4.2c-0.3,0.1-0.6,0.1-0.9,0c-0.3,0-0.4-0.1-0.5-0.4c0-0.1-0.1-0.1-0.1-0.2c-0.2-0.3-0.3-0.7-0.4-1.1
		c-0.1-0.4-0.2-0.9-0.3-1.3c-0.2-1.1-0.2-2.3-0.2-3.4c0-1.4,0.2-2.8,0.4-4.2c0.1-0.4,0-0.7-0.2-1c-0.2-0.2-0.5-0.4-0.7-0.5
		c-0.3-0.2-0.5-0.4-0.8-0.6c-0.3-0.3-0.8-0.2-1.2-0.2c-1.3,0.1-2.6,0.2-3.9,0.3c-0.5,0-1,0.1-1.5,0.1c-0.7,0.1-1,0.4-1,1.1
		c-0.1,4.7-0.2,9.5,0.7,14.1c0.3,1.8,0.9,3.6,2,5.1c0.7,1,1.3,2.1,2.3,2.8c0.9,0.8,2,1.2,3.2,1.4c-0.3-0.1-1.6-0.3,0,0
		c0.1,0,0.1,0,0,0c2.5,0.5,4.9-0.2,6.7-2c0.1,0.2,0.3,0.5,0.5,0.7c0.1,0.2,0.3,0.4,0.4,0.6c0.2,0.2,0.5,0.3,0.8,0.3
		c0.6,0,1.2-0.1,1.8-0.1c0.6,0,1.3,0,1.6-0.6c0.1-0.2,0.1-0.4,0.1-0.7c0.1-1.8,0.2-3.7,0.3-5.5c0.2-4.7,0.5-9.4,0.7-14.1
		C422.4,26.8,422.4,26.6,422.4,26.4z"/>
	<path class="st7" d="M408.1,46.8c0.5,0.1,1.1,0.2,1.6,0.2c2.8,0,4.7-1.5,5.8-3.2l0.1,1.8c0,0.4,0.4,0.7,0.8,0.7l2.6-0.1
		c0.4,0,0.7-0.3,0.7-0.7l1-20c0-0.2-0.1-0.4-0.2-0.6c-0.2-0.2-0.4-0.2-0.6-0.2l-4.5,0.3c-0.2,0-0.4,0.1-0.6,0.3
		c-0.1,0.2-0.2,0.4-0.2,0.6c0,0,0.3,2.2-0.2,7c-0.2,2.3-1.5,3.3-2.7,3.3l0,0c-1,0-2.2-0.7-2.7-2.5c-1.2-4.1-0.1-9.4-0.1-9.4
		c0-0.2,0-0.5-0.2-0.7c-0.2-0.2-0.4-0.3-0.7-0.3l-6.3,0.5c-0.4,0-0.7,0.4-0.7,0.8C401,36.8,401.4,45.5,408.1,46.8z"/>
	<path class="st8" d="M415.5,25.7l4.5-0.3l-1,20l-2.6,0.1l-0.3-4.7c0,0-1.8,6.4-7.8,5.2c-6.1-1.1-6.5-9.4-6.3-21.5l6.3-0.5
		c0,0-1.1,5.4,0.1,9.8c1.3,4.4,6.5,4.1,7-0.9C415.9,27.9,415.5,25.7,415.5,25.7z"/>
	<g class="st3">
		<path class="st8" d="M402.4,32c1.9-0.3,3.7-0.4,5.5-0.4c-0.5-3.8,0.3-7.6,0.3-7.6l-6.3,0.5c0,2.7-0.1,5.3,0,7.6
			C402.1,32.1,402.3,32.1,402.4,32z"/>
	</g>
	<g class="st3">
		<path class="st8" d="M415.3,32.9c0.3,0.1,0.6,0.2,0.9,0.3c1.1,0.4,2.2,0.9,3.3,1.4l0.5-9.2l-4.5,0.3
			C415.5,25.7,415.9,27.9,415.3,32.9C415.3,32.9,415.3,32.9,415.3,32.9z"/>
	</g>
	<g>
		<path class="st4" d="M402,24.5c0,0.9,0,1.9,0,2.8l0.2-2l5.5-0.1c-0.2,1.1,0.1,6.5,0.2,6.5c-0.5-3.8,0.3-7.6,0.3-7.6L402,24.5z"/>
	</g>
	<g>
		<path class="st4" d="M416.1,26.4l3.5-0.2c0,0-0.1,8.4,0,8.4l0.5-9.2l-4.5,0.3c0,0,0.2,1.1,0.1,3.5
			C415.6,30.2,416.1,27.3,416.1,26.4z"/>
	</g>
	<path class="st4" d="M408.1,32.8c0,0,0.5,3.2,2.9,3.9c2.4,0.7,3.9-1.5,4.1-2.5c0,0-1.4,3.4-3.8,3.1
		C408.2,36.9,408.1,32.8,408.1,32.8z"/>
	<path class="st11" d="M410.4,45.3c0-0.1-0.2-0.1-0.4-0.2c-0.1,0-0.2,0-0.4-0.1c-0.1,0-0.3-0.1-0.5-0.1c-0.7-0.1-1.4-0.4-1.9-0.6
		c-0.5-0.2-1.5-0.9-2.1-1.9c-0.7-1-1-2.2-1.2-3c0-0.2-0.1-0.3-0.1-0.5c0-0.1-0.1-0.3-0.1-0.4c-0.1-0.2-0.1-0.4-0.2-0.5
		c-0.1-0.2-0.2-0.2-0.3-0.2c-0.1,0-0.2,0-0.2,0.2c0,0.1,0,0.3,0,0.5c0,0.3,0,0.6,0.1,1c0.2,0.9,0.6,2.1,1.3,3.2
		c0.7,1.1,1.7,1.9,2.5,2.3c0.1,0.1,0.2,0.1,0.4,0.2c0.2,0.1,0.3,0.1,0.5,0.2c0.4,0.1,0.8,0.1,1.2,0.2c0.4,0,0.8,0,1-0.1
		C410.3,45.5,410.4,45.4,410.4,45.3z M403,36.1c0.1,0,0.6,0.2,0.6,0.9c0,0.7-0.4,0.6-0.5,0.3C402.7,36.5,402.9,36.1,403,36.1z"/>
	<path class="st11" d="M417.1,45.1c0,0.1,0.2,0.1,0.4,0.1c0.1,0,0.3,0,0.4,0c0.1,0,0.2,0,0.2,0c0.1,0,0.3,0,0.4,0
		c0-0.3,0.1-0.5,0.1-0.8c0-0.2,0-0.4,0-0.5c0.1-0.9,0.2-3.5,0.3-4.6c0.1-1.1-0.1-1.2-0.2-1.2c-0.1,0-0.2-0.1-0.3,1.2
		c-0.1,1.3-0.2,3.4-0.3,4.6c0,0.1,0,0.3,0,0.5c0,0.1,0,0.2,0,0.3l0,0.1c0,0,0,0,0,0l0,0c0,0,0,0,0,0c-0.1,0-0.2,0-0.2,0.1
		c-0.2,0-0.3,0.1-0.4,0.1C417.2,44.9,417.1,45,417.1,45.1z M418.9,36.7c0.1,0,0.3,0.2,0.3,0.7c0,0.5-0.3,0.4-0.4,0.2
		C418.6,36.9,418.8,36.7,418.9,36.7z"/>
</g>
<g>
	<path class="st6" d="M426.8,44.5c1.5,2.3,3.3,4.2,5.9,5.4c2.7,1.2,5.7,1.2,8.6,0.6c2.2-0.5,4.3-1.3,6.3-2.4c0.4-0.3,1-0.5,1.2-0.9
		c0.4-0.5,0.2-1.1,0-1.6c-0.5-1.4-1.1-2.8-1.7-4.2c-0.4-1.1-0.7-2.6-1.8-3.1c-0.2-0.2-0.5-0.3-0.7-0.5c-0.3-0.2-0.6-0.5-0.9-0.6
		c-0.7-0.2-1.5,0.6-2.1,1c-1.1,0.6-2.4,1.1-3.7,1c-0.6,0-1.5-0.1-1.9-0.6c-0.5-0.5-0.8-1.1-1-1.8c-0.3-1.1-0.2-2.4,0-3.6
		c0.2-1.2,0.7-2.6,1.6-3.4c0.8-0.6,2.5-1,3.1,0c0.5,0.8,1.1,1.5,2.1,1.1c0.6-0.2,1.1-0.5,1.7-0.7c0.8-0.3,1.5-0.6,2.3-1
		c0.4-0.2,1-0.3,1.3-0.6c0.6-0.7,0.4-1.8,0.2-2.7c-0.3-1.1-0.8-2.1-1.6-2.9c-0.9-1-2.1-1.8-3.2-2.5c-1.3-0.8-2.7-1.1-4.2-1.1
		c-2.3-0.1-4.6,0.7-6.5,2c-4.6,3-7,8.3-7.4,13.6C424.1,38.3,424.8,41.6,426.8,44.5C426.9,44.6,426.8,44.4,426.8,44.5z"/>
	<path class="st7" d="M432.1,48.3c1.3,0.4,2.6,0.6,4.1,0.6l0,0c5.4,0,10.3-3.1,10.5-3.3c0.4-0.2,0.5-0.7,0.4-1.1l-2.8-6.9
		c-0.1-0.3-0.3-0.5-0.6-0.6c-0.3-0.1-0.6,0-0.8,0.1c-1.7,1.2-3.3,1.9-4.9,1.9l0,0c-2.8,0-4.5-2.2-4.9-3.5c-0.5-1.6-0.2-4.6,0.9-6.6
		c0.5-0.9,1.2-1.5,2-1.6c0.4-0.1,0.7-0.1,1-0.1c1.4,0,1.8,1,1.8,1.1c0.1,0.2,0.3,0.4,0.5,0.6c0.2,0.1,0.6,0.1,0.8,0l5-2.1
		c0.3-0.1,0.4-0.3,0.5-0.6l0-0.2c0.1-0.1,0.1-0.2,0.1-0.3c-0.1-1.9-1.3-5.6-5.9-6.4c-0.6-0.2-1.2-0.2-1.8-0.2
		c-5.8,0-11.3,4.9-13,11.6C422.9,39.1,425.6,46,432.1,48.3z"/>
	<path class="st8" d="M443.5,38c-6.1,4.5-10.4,0.6-11.2-2.1c-0.8-2.7,0.2-8.5,3.5-9.4c3.3-0.8,4,1.6,4,1.6l5-2.1l0.1-0.2
		c0,0-0.2-4.7-5.1-5.6c-5.6-1-11.8,3.4-13.7,10.7c-2,7.3,0,14.1,6.4,16.4c6.4,2.3,13.8-2.5,13.8-2.5L443.5,38z"/>
	<g class="st9">
		<path class="st8" d="M431.9,37.8c0.4-0.1,0.9-0.1,1.3-0.1c-0.5-0.6-0.8-1.2-0.9-1.8c-0.8-2.7,0.2-8.5,3.5-9.4c3.3-0.8,4,1.6,4,1.6
			l5-2.1l0.1-0.2c0,0-0.2-4.7-5.1-5.6c-5.6-1-11.8,3.4-13.7,10.7c-0.7,2.4-0.9,4.8-0.6,7C427.6,38.1,429.7,38,431.9,37.8z"/>
	</g>
	<g>
		<path class="st4" d="M444.8,25.8c0,0-0.2-4.7-5.1-5.6c-5.6-1-11.8,3.4-13.7,10.7c-0.1,0.3-0.2,0.6-0.3,0.9
			c1.9-5.3,5.4-10.4,11.6-11c0.5,0,0.9-0.1,2.1,0.2c3.8,0.6,5,3,5.1,4l0.1,0.9L444.8,25.8z"/>
	</g>
	<g>
		<path class="st4" d="M433.2,37.6c-0.5-0.6-0.8-1.2-0.9-1.8c-0.2-0.8-0.3-1.9-0.2-3.1c-0.1,1.1-0.2,2,0,3.1
			c0.2,0.9,0.8,1.9,1.4,2.6c0.6,0.7,1.6,1.4,2.5,1.6c1.7,0.4,3.4,0.2,5.1-0.4c0.8-0.3,1.8-1,2.4-1.7
			C440.1,40.6,435.4,40.3,433.2,37.6z"/>
	</g>
	<path class="st10" d="M443.5,45.6c-0.1-0.1-0.9,0.1-1.9,0.3c-1,0.3-2.3,0.5-3.1,0.7c-0.2,0-0.5,0.1-0.8,0.1c-0.3,0-0.7,0.1-1.1,0.1
		c-0.8,0-1.7-0.1-2.7-0.3c-0.9-0.2-1.7-0.6-2.5-1c-0.7-0.5-1.3-1-1.6-1.4c-0.2-0.2-0.3-0.4-0.5-0.5c-0.1-0.2-0.3-0.3-0.3-0.4
		c-0.2-0.3-0.4-0.4-0.5-0.5c-0.3-0.3-0.4-0.3-0.5-0.2c-0.1,0-0.2,0-0.1,0.3c0,0.2,0.1,0.4,0.3,0.7c0.2,0.3,0.4,0.8,0.9,1.3
		c0.5,0.6,1.2,1.1,1.9,1.6c0.8,0.4,1.7,0.8,2.6,1.1c1.9,0.4,3.7,0.3,5,0.2c0.7-0.1,2-0.4,3.1-0.8C442.7,46.3,443.5,45.8,443.5,45.6z
		 M426.9,39.6c0.1-0.1,0.7,0.2,0.9,1.1c0.3,0.9-0.2,1-0.4,0.6c-0.4-0.5-0.6-1-0.6-1.2C426.8,39.8,426.8,39.7,426.9,39.6z"/>
</g>
<g>
	<path class="st6" d="M459.4,47.4c0,0.5,0.6,1,0.9,1.4c0.3,0.5,0.7,1.1,1.4,1c0.3,0,0.6-0.1,0.9-0.2c1.4-0.3,2.7-0.6,4.1-0.9
		c0.9-0.2,2.6-0.3,2.7-1.5c0-0.5-0.2-1.1-0.2-1.7c-0.7-4.7-1.5-9.3-2.2-14c0,0,0,0,0,0c2.2,0.1,4.4,0.2,6.6,0.4
		c0.5,0,0.9-0.1,1.2-0.5c0.3-0.4,0.2-0.9,0.2-1.3c-0.1-1.3-0.2-2.7-0.3-4c0-0.6-0.1-1.2-0.1-1.8c0-0.5-0.1-1-0.5-1.3
		c-0.5-0.3-1-0.7-1.5-1c-0.2-0.1-0.4-0.2-0.6-0.2c-0.2,0-0.4,0-0.6,0c-2.2,0.1-4.5,0.2-6.7,0.4c-2.9,0.2-5.9,0.3-8.8,0.5
		c-1,0.1-2.1,0.1-3.1,0.2c-0.4,0-1.1-0.1-1.5,0.2c-0.5,0.3-0.4,0.8-0.3,1.3c0.1,0.6,0.2,1.2,0.3,1.8c0.2,1.3,0.4,2.6,0.6,3.9
		c0.1,0.6,0.5,1.1,0.9,1.6c0.3,0.5,0.6,1,1.3,1c0.2,0,0.3,0,0.5-0.1c1.3-0.2,2.5-0.4,3.8-0.6c0.1,0,0.1,0,0.2,0
		c0.2,4.6,0.5,9.1,0.7,13.7C459.3,46.1,459.3,46.8,459.4,47.4z"/>
	<path class="st7" d="M459.4,47.4c0,0.2,0.1,0.5,0.3,0.6c0.1,0.1,0.3,0.2,0.5,0.2c0.1,0,0.1,0,0.2,0l6.7-1.5
		c0.4-0.1,0.7-0.5,0.6-0.9l-2.5-15.9l7.2,0.4c0,0,0,0,0,0h0c0.5,0,0.8-0.4,0.8-0.8c0-0.1,0-0.1,0-0.2l-0.4-6.7
		c0-0.4-0.4-0.8-0.9-0.8l-20.3,1.1c-0.2,0-0.4,0.1-0.6,0.3c-0.1,0.2-0.2,0.4-0.2,0.6l1,6.5c0,0.2,0.2,0.4,0.3,0.5
		c0.2,0.1,0.4,0.2,0.6,0.1l5.6-0.9L459.4,47.4z"/>
	<polygon class="st8" points="451.8,23.6 452.7,30.1 459.2,29 460.2,47.3 466.9,45.8 464.2,28.9 472.5,29.3 472,22.6 	"/>
	<path class="st10" d="M459.2,29l0.3,5.5c1.9,0,3.7,0,5.6-0.3l-0.8-5.4l8.2,0.4l-0.4-6.8l-20.3,1.1l1,6.5L459.2,29z"/>
	<polygon class="st4" points="472,22.6 451.8,23.6 452.2,26.7 452.3,24.8 471.6,23.7 472.4,28.1 	"/>
	<path class="st12" d="M465.9,45.5c0-0.3-2.6-0.1-4,0.1l-0.6,0.1l-0.4-6c-0.1-1.7-0.5-1.9-0.6-1.9c-0.2,0-0.4-0.1-0.2,2l0.5,6.9
		l1.5-0.2C463,46.3,465.9,45.9,465.9,45.5z M460,35.5c0.2-0.1,0.6,0.2,0.6,1c0,0.8-0.4,0.7-0.5,0.4C459.7,36,459.9,35.6,460,35.5z"
		/>
</g>
<g>
	<path class="st6" d="M477.1,21.9c-0.3,0.3-0.2,0.9-0.2,1.3c0,0.7,0,1.4,0,2c0,1.2,0,2.5,0.1,3.7c0,0.3,0.2,0.6,0.3,0.8
		c0.3,0.5,0.7,1.2,1.2,1.6c0.5,0.4,1.4,0.3,2.1,0.3c0.4,0,0.3,0,0.3,0.4c0,0.5,0,1,0.1,1.5c0.1,2.6,0.2,5.2,0.3,7.8
		c0,0.2-0.7,0.1-0.9,0.1c-0.6,0-1.2,0.1-1.8,0.1c-0.8,0-0.8,0.7-0.8,1.3c0.1,0.6,0.1,1.2,0.2,1.9c0.1,1.3,0.3,2.5,0.4,3.8
		c0,0.3,0.2,0.5,0.3,0.7c0.2,0.3,0.4,0.5,0.6,0.8c0.2,0.3,0.4,0.6,0.6,0.8c0.4,0.3,0.8,0.3,1.3,0.2c2.7-0.4,5.4-0.7,8.1-1.1
		c0.6-0.1,1.5-0.1,2.1-0.3c1-0.5,0.7-2.2,0.6-3.1c0-1.1,0-2.2-0.1-3.3c0-0.9-0.9-1.1-1.5-1.6c-0.3-0.3-0.8-0.6-1.2-0.6
		c-0.2,0-0.5,0-0.7,0c0.1-2.4,0.2-4.8,0.2-7.2c0-0.6,0-1.1,0.1-1.7c0-0.1-0.1-0.5,0.1-0.5c0.6,0,1.3,0,1.9,0c0.8,0,1.3-0.7,1.3-1.4
		c0-1.2,0-2.5-0.1-3.7c0-0.7,0-1.4,0-2c0-0.4,0-0.9-0.2-1.3c-0.1-0.2-1.8-1.5-2.2-1.5c-0.2,0-0.5,0-0.7,0c-1.2,0-2.4,0-3.7,0
		c-1.8,0-3.5,0-5.3,0c-0.6,0-1.2,0-1.8,0C477.9,21.6,477.4,21.6,477.1,21.9C477,22,477.3,21.7,477.1,21.9z"/>
	<path class="st7" d="M477.1,21.9c-0.2,0.2-0.3,0.4-0.2,0.6l0.1,6.5c0,0.5,0.4,0.8,0.9,0.8h2.9l0.5,11.5l-2.7,0.1
		c-0.2,0-0.5,0.1-0.6,0.3c-0.2,0.2-0.2,0.4-0.2,0.7l0.7,6.1c0,0.2,0.1,0.4,0.3,0.6c0.2,0.1,0.3,0.2,0.5,0.2c0,0,0.1,0,0.1,0
		l10.3-1.4c0.4-0.1,0.8-0.4,0.7-0.9l-0.1-5.3c0-0.2-0.1-0.5-0.3-0.6c-0.2-0.2-0.4-0.2-0.6-0.2L487,41l0.4-11.2h2.4h0
		c0.5,0,0.9-0.4,0.9-0.9c0,0,0-0.1,0-0.1l-0.1-6.5c0-0.5-0.4-0.9-0.9-0.9l-11.9,0.1C477.5,21.6,477.3,21.7,477.1,21.9z"/>
	<polygon class="st8" points="486.1,41.9 486.5,28.9 489.7,28.9 489.6,22.4 477.7,22.5 477.9,28.9 481.6,28.9 482.2,42.1 
		478.7,42.3 479.4,48.4 489.6,47 489.5,41.7 	"/>
	<g class="st3">
		<path class="st8" d="M481.6,28.9l0.2,5.2c1.5,0.1,3,0.2,4.5,0.3l0.2-5.5h3.2l-0.1-6.6l-11.9,0.1l0.1,6.5H481.6z"/>
	</g>
	<g>
		<polygon class="st4" points="478.3,23.3 489.4,23.2 489.7,25.7 489.6,22.4 477.7,22.5 477.8,26.9 		"/>
	</g>
	<polygon class="st4" points="482.1,41.2 482.3,42.5 479.1,42.9 479.2,46.9 478.7,42.3 482.2,42.1 	"/>
	<polygon class="st4" points="486.1,41.2 486,42.2 489.3,42.1 489.6,46.7 489.5,41.7 486.1,41.8 	"/>
	<path class="st11" d="M479.7,47.6c0.1,0.3,2,0.2,3.1,0c1.1-0.2,4.3-0.7,5.7-0.9c0.3,0,0.5-0.1,0.8-0.1c0-0.2,0-0.5,0-0.6
		c0-0.1,0-0.1,0-0.2c0,0,0-0.1,0-0.1c0-0.1-0.1-0.3-0.1-0.3c-0.1-0.2-0.2-0.2-0.3-0.2c-0.1,0-0.2,0-0.2,0.1c0,0.1-0.1,0.2-0.1,0.3
		c0,0.1,0,0.2,0,0.3c0,0,0,0,0,0c0,0,0,0,0,0c-1.6,0.3-4.2,0.7-5.7,0.9C481.9,46.8,479.7,47.2,479.7,47.6z M488.7,43.4
		c0.2,0,0.6,0.2,0.6,0.8c0,0.6-0.5,0.5-0.6,0.2C488.3,43.7,488.6,43.4,488.7,43.4z"/>
</g>
<g>
	<path class="st6" d="M506.2,22.8c-4,0-7.9,1.9-10.1,5.2c-1.1,1.6-1.7,3.4-1.8,5.4c-0.1,2.5,0.6,4.7,2,6.7c0.6,0.9,1.2,1.7,1.9,2.5
		c0.7,0.7,1.5,1.3,2.4,1.8c1.9,1.1,4.1,1.6,6.4,1.7c4,0.1,8.1-1.4,10.7-4.5c2.6-3.2,3.2-7.7,1.4-11.4c-0.5-1-1.1-1.9-1.9-2.7
		c-0.9-0.9-2-1.6-3-2.3c-2-1.4-4.4-2.1-6.7-2.3C507,22.8,506.6,22.8,506.2,22.8z M504.9,38.3c-0.6,0-1.1-0.1-1.6-0.3
		c-0.5-0.2-0.8-0.8-1-1.2c-0.4-0.9-0.5-1.9-0.1-2.9c0.6-1.8,2.5-2.9,4.4-2.8c0.5,0,1,0.2,1.5,0.4c0.4,0.2,1.1,0.5,1.3,0.9
		c0.4,1,0.4,2,0,3C508.6,37.2,506.8,38.3,504.9,38.3z"/>
	<path class="st7" d="M494.3,33.9c0,6,5.1,10.5,12,10.5c6.8,0,12.3-4.7,12.4-10.7c0-2.9-0.9-5.5-2.8-7.4c-2.2-2.3-5.7-3.6-9.5-3.6
		C499.6,22.8,494.3,27.8,494.3,33.9z M504.9,29.5c2.5,0,4.6,2,4.6,4.4c0,2.4-2.1,4.4-4.6,4.4c-2.5,0-4.6-2-4.6-4.4
		C500.3,31.5,502.4,29.5,504.9,29.5z"/>
	<path class="st8" d="M506.2,23.5c-6.2,0-11.2,4.6-11.2,10.4c0,5.7,5,9.8,11.2,9.8c6.2,0,11.5-4.2,11.6-9.9
		C517.9,27.1,512.4,23.5,506.2,23.5z M504.9,39.1c-3,0-5.4-2.3-5.4-5.2c0-2.9,2.4-5.2,5.4-5.2c3,0,5.4,2.3,5.4,5.2
		C510.3,36.8,507.9,39.1,504.9,39.1z"/>
	<g class="st3">
		<path class="st8" d="M495.7,36.1c1.7,0.5,3.4,0.9,5.1,1.2c-0.8-0.9-1.3-2.1-1.3-3.3c0-2.9,2.4-5.2,5.4-5.2c3,0,5.4,2.3,5.4,5.2
			c0,0.9-0.3,1.8-0.7,2.5c2.8-0.9,5.5-2.1,8.2-3.2c-0.1-6.4-5.6-9.8-11.6-9.8c-6.2,0-11.2,4.6-11.2,10.4c0,0.7,0.1,1.4,0.2,2
			C495.4,36,495.6,36,495.7,36.1z"/>
	</g>
	<g>
		<path class="st4" d="M506.2,24.5c5.7,0,10.9,3.1,11.5,8.9c0,0,0,0,0.1,0c-0.1-6.4-5.6-9.8-11.6-9.8c-6.2,0-11.2,4.6-11.2,10.4
			c0,0.2,0,0.3,0,0.5C495.3,28.9,500.2,24.5,506.2,24.5z"/>
	</g>
	<path class="st4" d="M500,36c0,0,1.4,3.1,4.9,3.1c3.5,0,4.9-3,5.3-4.2c0,0-0.4,4.8-5.6,4.5C500.7,39.2,500,36,500,36z"/>
	<path class="st11" d="M502.6,42.2c-0.1,0.1,0.6,0.5,1.5,0.8c0.9,0.3,2,0.3,2.8,0.3c0.8,0,2.5-0.2,4-0.9c0.8-0.3,1.5-0.7,2.2-1.2
		c0.6-0.4,1.2-0.9,1.5-1.2c0.7-0.7,1-1.2,1.1-1.5c0.1-0.3,0-0.4,0-0.5c-0.1-0.1-0.1-0.1-0.3,0c-0.1,0.1-0.2,0.2-0.4,0.4
		c-0.1,0.1-0.2,0.2-0.4,0.4c-0.2,0.1-0.3,0.3-0.5,0.5c-0.2,0.2-0.4,0.4-0.7,0.6c-0.2,0.2-0.5,0.4-0.8,0.6c-0.6,0.4-1.2,0.7-1.9,1
		c-1.4,0.6-2.8,0.8-3.8,0.9c-0.3,0-0.7,0-1.1,0c-0.2,0-0.5,0-0.7,0c-0.2,0-0.5-0.1-0.7-0.1C503.4,42.2,502.7,42,502.6,42.2z
		 M516.7,35.9c0.1,0,0.2,0.1,0.3,0.3c0,0.1,0,0.1,0,0.2c0,0.1,0,0.2,0,0.2c0,0.2-0.1,0.4-0.2,0.6c-0.4,0.8-0.7,0.4-0.6,0.1
		c0.1-0.3,0.1-0.5,0.1-0.6c0-0.2,0.1-0.3,0.1-0.4C516.5,36,516.7,35.9,516.7,35.9z"/>
</g>
<g>
	<path class="st6" d="M533.8,23.1c-0.2-0.2-0.6-0.5-0.9-0.6c-0.2-0.2-0.6-0.4-0.8-0.6c-0.2-0.1-0.4-0.1-0.6-0.1
		c-0.7-0.1-1.3-0.2-2-0.2c-1.3-0.2-2.5-0.3-3.8-0.5c-1.1-0.1-1.1,0.9-1.1,1.6c-0.1,1-0.2,2-0.3,2.9c-0.6,6.4-1.2,12.8-1.8,19.2
		c-0.1,1-0.2,2-0.3,3c0,0.2,0,0.5-0.1,0.7c-0.1,0.5,0.3,0.9,0.5,1.3c0.4,0.7,1,1.7,1.9,1.8c0.4,0,0.8,0,1.2,0.1
		c1.6,0.1,3.2,0.2,4.9,0.3c1.1,0.1,2.1,0.1,3.2,0.2c0.6,0,1.2-0.2,1.4-0.8c0.2-0.4,0.1-0.9,0-1.3c-0.2-2.3-0.5-4.5-0.7-6.8
		c1.3,2,2.6,4,3.8,5.9c0.3,0.5,0.7,1.3,1.2,1.6c0.5,0.3,1.1,0.2,1.7,0.2c1.3,0,2.6,0.1,4,0c1.2,0,1.3-1,1.4-1.9c0.1-1,0.2-2,0.3-3
		c0.3-3.2,0.7-6.5,1-9.7c0.3-3,0.6-6,1-9c0.1-0.7,0.2-1.4,0.2-2.1c0.1-0.6-0.1-1.2-0.7-1.5c-0.2-0.2-0.6-0.5-0.9-0.6
		c-0.2-0.2-0.5-0.4-0.8-0.6c-0.2-0.1-0.4-0.1-0.6-0.1c-2.3-0.1-4.7-0.1-7-0.2c-0.9,0-1.8,0-2.7-0.1c-0.8,0-1.2,0.6-1,1.3
		c0.3,1.3,0.4,2.5,0.6,3.8c-0.3-0.7-0.6-1.4-1-2.1C534.8,24.6,534.5,23.5,533.8,23.1C533.7,23,534,23.3,533.8,23.1z"/>
	<path class="st7" d="M531.8,21.8l-6.1-0.8c-0.3,0-0.5,0-0.7,0.2c-0.2,0.2-0.3,0.4-0.3,0.7l-2.5,26.7c0,0.3,0.1,0.5,0.2,0.7
		c0.2,0.2,0.4,0.3,0.7,0.3l9.4,0.5c0,0,0,0,0.1,0h0c0.5,0,0.9-0.4,0.9-0.9c0-0.1,0-0.2,0-0.2l-1-9l5.6,8.6c0.2,0.3,0.5,0.4,0.8,0.4
		h4.9c0.5,0,0.9-0.4,0.9-0.8l2.7-24.7c0-0.3-0.1-0.5-0.2-0.7c-0.2-0.2-0.4-0.3-0.7-0.3l-10-0.3c-0.3,0-0.6,0.1-0.8,0.3
		c-0.2,0.2-0.3,0.5-0.2,0.8c0.4,1.8,0.7,4.8,1,7.4l-3.9-8.4C532.4,22.1,532.1,21.9,531.8,21.8z"/>
	<path class="st8" d="M532.4,49.2l-9.4-0.5l2.5-26.7l6.1,0.8l6.1,13.1c0,0-0.5-8.9-1.4-12.8l10,0.3l-2.7,24.6h-4.9L531,36
		L532.4,49.2z"/>
	<g class="st3">
		<path class="st8" d="M526.5,33c3.2-0.5,6.4-0.7,9.6-0.6l-4.4-9.6l-6.1-0.8l-1.1,11.3C525.2,33.2,525.8,33.1,526.5,33z"/>
	</g>
	<g class="st3">
		<path class="st8" d="M539.4,32.6c2,0.2,3.9,0.6,5.8,1l1.1-10.3l-10-0.3c0.5,2.3,0.9,6.4,1.2,9.3C538.1,32.5,538.8,32.6,539.4,32.6
			z"/>
	</g>
	<g>
		<path class="st4" d="M531.6,22.8l-6.1-0.8l-1.1,11.3c0.2,0,1.6-10.5,1.6-10.5l5.2,1.2l6.6,12.1L531.6,22.8z"/>
	</g>
	<g>
		<path class="st4" d="M536.9,24l8.7,0.7l-0.1,5.1l0.7-6.4l-10-0.3c0.2,0.8,0.3,1.8,0.5,2.9L536.9,24z"/>
	</g>
	<path class="st11" d="M523.9,47.8c0,0.4,3.1,0.8,4.7,0.9l3.3,0.2l-0.9-6.8c-0.3-2.1-0.7-2.2-0.9-2.3c-0.2,0-0.4-0.1-0.1,2.4
		l0.7,5.6l-2.1-0.2C527.5,47.6,523.9,47.4,523.9,47.8z M529.9,37.2c0.2-0.1,0.7,0.2,0.8,1.2c0.1,0.9-0.4,0.8-0.6,0.5
		C529.5,37.8,529.7,37.3,529.9,37.2z"/>
	<path class="st11" d="M539.5,47.3c0,0.2,0.5,0.3,1.2,0.4c0.3,0,0.7,0.1,1.1,0.1c0.2,0,0.4,0,0.6,0c0.3,0,0.7,0,1,0
		c0-0.3,0.1-0.5,0.1-0.7c0.2-1.3,0.6-5.3,0.8-6.9c0.2-1.6-0.2-1.8-0.3-1.8c-0.2,0-0.4-0.2-0.6,1.7c-0.2,1.9-0.6,5.1-0.8,6.8
		c0,0,0,0,0,0c0,0,0,0,0,0c-0.2,0-0.3,0-0.5,0c-0.4,0-0.7,0-1.1,0.1C540.1,47.1,539.5,47.2,539.5,47.3z M544,36.4
		c0.2,0,0.6,0.3,0.5,1c-0.1,0.7-0.6,0.5-0.7,0.2C543.5,36.7,543.8,36.4,544,36.4z"/>
</g>
<g>
	<path class="st6" d="M553.8,47.8c1.6,2.3,3.7,4.1,6.4,4.8c2.5,0.6,5.2,0.2,7.3-1.2c2.1-1.3,3.5-3.4,3.6-5.9
		c0.2-2.4-0.8-4.6-2.3-6.4c-1.5-1.8-3.4-3-5-4.6c-0.6-0.6-1.7-1.7-1.2-2.6c0.3-0.5,0.8-0.9,1.4-0.9c0.2,0,0.3-0.1,0.3,0.2
		c0,0.2,0,0.3,0,0.5c0,0.4,0,0.8-0.1,1.2c-0.1,0.5,0.2,0.9,0.6,1.3c0.3,0.4,0.5,0.9,0.9,1.2c0.5,0.5,1.2,0.3,1.8,0.1
		c0.7-0.2,1.4-0.5,2.1-0.8c1.4-0.6,2.7-1.3,4-1.9c1.3-0.6,0.9-2.1,0.6-3.2c-0.5-2.3-1.9-4.5-3.9-5.8c-1.1-0.8-2.1-1.6-3.4-2
		c-1.3-0.5-2.7-0.6-4-0.4c-2.6,0.3-4.9,2-6.3,4.1c-1.5,2.2-2.2,4.7-1.5,7.3c0.5,1.7,1.7,3.3,2.8,4.8c0.6,0.8,1.4,1.4,2.2,2
		c0.4,0.3,0.8,0.6,1.2,0.9c0.2,0.1,0.4,0.3,0.4,0.5c0,0.2,0,0.4-0.1,0.6c0.1-0.8-0.5-1.4-1.2-1.7c-0.4-0.4-1-0.8-1.7-0.8
		c-2,0.2-4-0.2-6.1-0.1c-0.4,0-0.8,0-1.1,0.2c-0.3,0.3-0.4,0.8-0.5,1.2c-0.2,0.9-0.1,1.8,0,2.6C551.6,44.7,552.7,46.2,553.8,47.8
		C553.8,47.9,553.7,47.7,553.8,47.8z"/>
	<path class="st7" d="M555.8,49.5c1.5,1.1,3.4,1.7,5.3,1.7l0,0c2.8,0,5.4-1.3,7.1-3.5c1.7-2.3,1.5-5.8,0.3-7.8
		c-1.3-2.3-2.8-3.6-4.6-5c-1.1-0.8-3-2.4-3.1-3.7c0-0.4,0.1-0.8,0.5-1.2c0.4-0.4,0.9-0.7,1.5-0.7c0.4,0,0.8,0.1,1,0.3
		c0.7,0.6,0.6,2.2,0.5,3.4c0,0.3,0.1,0.6,0.3,0.7c0.2,0.2,0.5,0.3,0.8,0.2c1.7-0.4,3.3-1.2,4.8-2c0.7-0.4,1.5-0.7,2.2-1
		c0.3-0.2,0.6-0.5,0.5-0.9c0-0.2,0-0.4,0-0.5c-0.4-4.8-4.1-8.4-8.6-8.4c-2.1,0-4.1,0.8-5.8,2.3c-1.5,1.3-2.9,3.7-3.3,5.6
		c-0.5,2.4,0.3,5,2.2,7.1c0.6,0.7,1.4,1.2,2.1,1.7c1.1,0.8,2,1.5,2.5,2.6c0.2,0.4,0,0.7-0.1,0.9c-0.2,0.3-0.5,0.5-0.9,0.5
		c-0.2,0-0.5-0.1-0.7-0.3c-0.3-0.3-0.3-0.8-0.2-1.7c0-0.3,0-0.5-0.2-0.7c-0.2-0.2-0.5-0.3-0.7-0.3c-0.4,0.1-0.8,0.1-1.3,0.1
		c-0.7,0-1.5-0.1-2.2-0.1c-0.8-0.1-1.5-0.1-2.3-0.1c-0.4,0-0.7,0-1,0c-0.4,0-0.7,0.3-0.8,0.6C550.2,43.1,552.8,47.3,555.8,49.5z"/>
	<path class="st8" d="M563.3,35.5c-1.7-1.3-4.9-3.9-2.7-6.2c1-1.1,2.8-1.2,3.7-0.4c1,0.9,1,2.6,0.8,4.2c2.4-0.6,4.5-2,6.8-3
		c0-0.2,0-0.4,0-0.5c-0.5-6.6-7.9-10-13-5.5c-1.3,1.1-2.7,3.4-3,5.1c-0.5,2.3,0.4,4.6,2,6.4c1.5,1.7,3.8,2.4,4.7,4.6
		c0.7,1.9-1.7,3.5-3.1,2c-0.6-0.7-0.5-1.6-0.4-2.4c-2.2,0.3-4.7-0.3-6.9-0.1c-1,3.3,1.4,7.2,4.1,9.1c3.4,2.4,8.5,2,11.2-1.6
		c1.4-1.9,1.3-5,0.3-6.9C566.5,38.1,565.2,37,563.3,35.5z"/>
	<path class="st10" d="M561.3,33.7c-1.2-1.3-2.1-2.9-0.7-4.4c1-1.1,2.8-1.2,3.7-0.4c1,0.9,1,2.6,0.8,4.2c2.4-0.6,4.5-2,6.8-3
		c0-0.2,0-0.4,0-0.5c-0.5-6.6-7.9-10-13-5.5c-1.3,1.1-2.7,3.4-3,5.1c-0.3,1.7,0,3.3,0.8,4.7C558.3,33.8,559.8,33.7,561.3,33.7z"/>
	<g>
		<path class="st4" d="M558.9,25.1c5-4.4,12.1-1.3,12.9,5.1c0,0,0.1,0,0.1,0c0-0.2,0-0.4,0-0.5c-0.5-6.6-7.9-10-13-5.5
			c-1.3,1.1-2.7,3.4-3,5.1c-0.1,0.6-0.2,1.2-0.1,1.8c0-0.3,0.1-0.5,0.1-0.8C556.3,28.5,557.6,26.2,558.9,25.1z"/>
	</g>
	<path class="st4" d="M563.3,36.2c1.8,1.5,3.2,2.6,4.4,4.8c0.5,0.8,0.7,1.9,0.8,2.9c0.1-1.3-0.2-2.6-0.8-3.6
		c-1.2-2.1-2.6-3.3-4.4-4.8c-1.2-0.9-3.2-2.5-3.4-4.2C559.6,33.2,562,35.1,563.3,36.2z"/>
	<path class="st4" d="M559.5,42.9c1.3,1.4,3.5,0.1,3.2-1.6c-0.3,1.4-2,2.2-3.2,0.9c-0.3-0.3-0.4-0.7-0.5-1.1
		C559,41.7,559,42.4,559.5,42.9z"/>
	<path class="st4" d="M559,40.4c0-0.2,0.1-0.5,0.1-0.7c-2.2,0.3-4.7-0.3-6.9-0.1c-0.2,0.6-0.3,1.3-0.2,2c0-0.4,0.1-0.9,0.2-1.3
		C554.4,40.2,556.9,40.7,559,40.4z"/>
	<path class="st10" d="M552.8,43.5c-0.1,0,0,0.2,0.1,0.6c0.1,0.2,0.1,0.3,0.2,0.5c0.1,0.2,0.2,0.4,0.3,0.6c0.3,0.4,0.6,0.9,0.9,1.3
		c0.2,0.2,0.3,0.4,0.5,0.6c0.2,0.2,0.4,0.4,0.5,0.5c0.1,0.1,0.2,0.2,0.3,0.3c0.1,0.1,0.2,0.2,0.4,0.3c0.3,0.2,0.6,0.4,0.9,0.6
		c0.7,0.4,1.6,0.8,2.5,1c0.9,0.2,1.9,0.1,2.8,0c0.9-0.2,1.6-0.4,2.1-0.7c0.3-0.1,0.5-0.2,0.7-0.3c0,0,0.1-0.1,0.1-0.1
		c0.1,0,0.1-0.1,0.2-0.1c0.1-0.1,0.2-0.1,0.2-0.2c0.3-0.2,0.4-0.4,0.5-0.6c0.2-0.3,0.1-0.4,0.1-0.5c-0.1-0.1-0.1-0.2-0.3,0
		c-0.1,0.1-0.3,0.2-0.6,0.3c-0.1,0-0.1,0.1-0.2,0.1c-0.1,0-0.2,0.1-0.3,0.1c-0.1,0.1-0.2,0.1-0.4,0.2c-0.1,0.1-0.2,0.1-0.4,0.2
		c-0.5,0.3-1.2,0.5-2,0.6c-0.2,0-0.4,0.1-0.6,0.1c-0.2,0-0.4,0-0.6,0c-0.4,0-0.8,0-1.2-0.1l-0.3,0c-0.1,0-0.2-0.1-0.3-0.1
		c-0.2-0.1-0.4-0.1-0.6-0.2c-0.3-0.2-0.7-0.3-1-0.5c-0.2-0.1-0.3-0.2-0.5-0.3c-0.1-0.1-0.3-0.2-0.4-0.3c-0.1-0.1-0.3-0.2-0.4-0.3
		c-0.1-0.1-0.2-0.2-0.3-0.3c-0.1-0.1-0.2-0.2-0.4-0.4c-0.2-0.1-0.3-0.3-0.5-0.5c-0.2-0.2-0.3-0.4-0.5-0.6c-0.2-0.2-0.3-0.4-0.5-0.6
		c-0.3-0.4-0.6-0.8-0.8-1.1C553,43.6,552.8,43.4,552.8,43.5z M567.4,45.2c0.1,0,0.2,0.1,0.2,0.4c0,0.1,0,0.3,0,0.4
		c0,0.1,0,0.2-0.1,0.3c0,0.1-0.1,0.2-0.2,0.3c-0.1,0.2-0.3,0.3-0.4,0.4c-0.1,0.1-0.2,0.1-0.3,0c-0.1-0.1-0.1-0.2-0.1-0.4
		c0.1-0.3,0.1-0.5,0.2-0.7c0.1-0.2,0.1-0.3,0.2-0.4C567.2,45.2,567.3,45.2,567.4,45.2z"/>
</g>
</svg>
