<?xml version="1.0" encoding="utf-8"?>
<!-- Generator: Adobe Illustrator 24.0.2, SVG Export Plug-In . SVG Version: 6.00 Build 0)  -->
<svg version="1.1" id="Capa_1" xmlns="http://www.w3.org/2000/svg" xmlns:xlink="http://www.w3.org/1999/xlink" x="0px" y="0px"
	 viewBox="0 0 1800 678.7" style="enable-background:new 0 0 1800 678.7;" xml:space="preserve">
<style type="text/css">
	.st0{fill:#352E16;}
	.st1{fill:#954415;}
	.st2{fill:#F1AF02;}
	.st3{opacity:0.8;fill:#F1AF02;enable-background:new    ;}
	.st4{fill:#FFFFFF;}
	.st5{opacity:0.8;}
	.st6{opacity:0.7;}
	.st7{fill:#F9B84A;}
	.st8{fill:#F6EB69;}
	.st9{fill:#F4F4F4;}
</style>
<g>
	<path class="st0" d="M806.7,620.3c2.8,4.2,6.7,7.6,11.7,8.8c4.5,1.1,9.4,0.4,13.3-2.1c3.8-2.4,6.3-6.2,6.6-10.7
		c0.3-4.4-1.4-8.3-4.1-11.7c-2.6-3.3-6.2-5.4-9.2-8.4c-1.1-1.1-3-3-2.2-4.7c0.5-1,1.5-1.6,2.6-1.7c0.4,0,0.6-0.1,0.6,0.3
		c0,0.3,0,0.6,0,0.9c0,0.7,0,1.4-0.1,2.1c-0.1,1,0.4,1.7,1.1,2.5c0.6,0.7,0.9,1.6,1.6,2.2c1,0.8,2.2,0.5,3.2,0.1
		c1.3-0.4,2.6-0.9,3.9-1.5c2.5-1.1,4.8-2.4,7.3-3.5c2.3-1,1.6-3.8,1.2-5.8c-0.9-4.3-3.4-8.1-7.1-10.6c-1.9-1.4-3.9-2.8-6.1-3.7
		c-2.3-0.9-4.8-1.1-7.3-0.8c-4.8,0.6-8.9,3.6-11.5,7.5c-2.6,4-4.1,8.6-2.7,13.3c0.9,3.2,3,6.1,5.1,8.7c1.1,1.4,2.5,2.6,4,3.7
		c0.7,0.5,1.5,1.1,2.2,1.7c0.3,0.3,0.7,0.5,0.7,0.9s0,0.8-0.2,1.1c0.2-1.5-0.9-2.5-2.2-3.2c-0.8-0.7-1.9-1.5-3-1.4
		c-3.7,0.4-7.4-0.3-11-0.3c-0.7,0-1.5-0.1-2.1,0.4s-0.7,1.4-0.9,2.1c-0.3,1.6-0.2,3.2,0.1,4.8C802.8,614.6,804.7,617.5,806.7,620.3
		C806.8,620.5,806.6,620.2,806.7,620.3z"/>
	<path class="st1" d="M810.3,623.4c2.8,2,6.2,3.1,9.7,3.1l0,0c5.2,0,9.9-2.3,12.9-6.3c3.2-4.3,2.7-10.5,0.6-14.2
		c-2.4-4.2-5.1-6.5-8.4-9.2c-1.9-1.5-5.5-4.3-5.7-6.8c-0.1-0.8,0.2-1.5,0.9-2.2s1.7-1.2,2.8-1.2c0.7,0,1.4,0.2,1.8,0.6
		c1.3,1.1,1.2,4.1,0.9,6.2c-0.1,0.5,0.1,1,0.5,1.4c0.4,0.3,0.9,0.5,1.4,0.3c3.1-0.8,5.9-2.2,8.7-3.6c1.3-0.6,2.6-1.3,4-1.9
		c0.6-0.3,1-0.9,0.9-1.6c0-0.3-0.1-0.6-0.1-0.9c-0.7-8.7-7.5-15.2-15.7-15.2c-3.8,0-7.4,1.4-10.5,4.1c-2.7,2.4-5.3,6.8-6,10.3
		c-0.9,4.4,0.5,9.1,3.9,13c1.1,1.3,2.5,2.2,3.7,3.2c1.9,1.4,3.7,2.7,4.5,4.8c0.3,0.8,0.1,1.3-0.2,1.7c-0.4,0.5-1,0.9-1.6,0.9
		c-0.5,0-0.9-0.2-1.2-0.6c-0.6-0.6-0.5-1.5-0.3-3.2c0.1-0.5-0.1-1-0.4-1.3c-0.4-0.4-0.8-0.5-1.3-0.5c-0.7,0.1-1.5,0.1-2.4,0.1
		c-1.3,0-2.7-0.1-4-0.2c-1.4-0.1-2.8-0.2-4.2-0.2c-0.7,0-1.3,0-1.8,0.1c-0.6,0.1-1.2,0.5-1.4,1.1
		C800.2,611.8,804.9,619.5,810.3,623.4z"/>
	<path class="st2" d="M824.1,597.9c-3.1-2.4-8.9-7-5-11.3c1.9-2.1,5.1-2.2,6.8-0.7c1.8,1.6,1.8,4.8,1.5,7.6
		c4.4-1.1,8.3-3.6,12.4-5.4c0-0.3-0.1-0.7-0.1-1c-1-12.1-14.3-18.2-23.6-10c-2.4,2.1-4.8,6.2-5.5,9.4c-0.9,4.3,0.8,8.5,3.6,11.6
		c2.7,3,7,4.4,8.6,8.4c1.3,3.5-3.1,6.4-5.6,3.6c-1.1-1.2-0.9-2.9-0.7-4.5c-4,0.5-8.6-0.5-12.6-0.2c-1.9,6,2.6,13.2,7.4,16.6
		c6.3,4.4,15.6,3.6,20.4-2.9c2.6-3.5,2.4-9,0.5-12.5C829.9,602.7,827.5,600.6,824.1,597.9z"/>
	<path class="st3" d="M820.5,594.8c-2.3-2.4-3.9-5.3-1.3-8.1c1.9-2.1,5.1-2.2,6.8-0.7c1.8,1.6,1.8,4.8,1.5,7.6
		c4.4-1.1,8.3-3.6,12.4-5.4c0-0.3-0.1-0.7-0.1-1c-1-12.1-14.3-18.2-23.6-10c-2.4,2.1-4.8,6.2-5.5,9.4c-0.6,3,0,6,1.4,8.6
		C814.9,594.9,817.7,594.8,820.5,594.8z"/>
	<g>
		<path class="st4" d="M816.1,579c9.1-8,22-2.3,23.5,9.2c0.1,0,0.1-0.1,0.2-0.1c0-0.3-0.1-0.7-0.1-1c-1-12.1-14.3-18.2-23.6-10
			c-2.4,2.1-4.8,6.2-5.5,9.4c-0.2,1.1-0.3,2.2-0.2,3.3c0-0.5,0.1-1,0.2-1.4C811.3,585.2,813.8,581.1,816.1,579z"/>
	</g>
	<path class="st4" d="M824.1,599.2c3.3,2.6,5.8,4.8,8,8.7c0.8,1.5,1.3,3.4,1.4,5.3c0.1-2.4-0.4-4.8-1.4-6.6c-2.2-3.9-4.7-6.1-8-8.7
		c-2.2-1.7-5.8-4.6-6.2-7.6C817.3,593.8,821.6,597.3,824.1,599.2z"/>
	<path class="st4" d="M817.2,611.4c2.4,2.6,6.4,0.2,5.8-3c-0.5,2.5-3.7,4-5.8,1.7c-0.5-0.6-0.8-1.3-0.9-2
		C816.2,609.3,816.3,610.5,817.2,611.4z"/>
	<path class="st4" d="M816.3,606.9c0-0.4,0.1-0.9,0.2-1.3c-4,0.5-8.6-0.5-12.6-0.2c-0.4,1.2-0.5,2.4-0.4,3.6c0-0.8,0.2-1.6,0.4-2.3
		C807.8,606.4,812.4,607.4,816.3,606.9z"/>
	<path class="st3" d="M804.9,612.5c-0.1,0.1-0.1,0.5,0.1,1c0.1,0.3,0.2,0.6,0.4,1s0.3,0.8,0.6,1.2c0.5,0.8,1,1.7,1.7,2.5
		c0.3,0.4,0.6,0.8,0.9,1.1c0.3,0.3,0.7,0.6,1,0.9c0.2,0.1,0.3,0.3,0.5,0.5s0.4,0.3,0.7,0.5c0.5,0.3,1,0.8,1.7,1.1
		c1.2,0.8,2.9,1.4,4.6,1.7c1.7,0.3,3.5,0.3,5.1,0c1.5-0.3,2.9-0.8,3.8-1.2c0.5-0.2,0.9-0.4,1.2-0.6c0.1,0,0.2-0.1,0.2-0.1
		c0.1,0,0.2-0.1,0.3-0.2c0.2-0.1,0.3-0.2,0.4-0.3c0.5-0.4,0.8-0.8,1-1c0.3-0.6,0.2-0.8,0.1-0.9c-0.1-0.1-0.2-0.3-0.6-0.1
		c-0.2,0.1-0.5,0.3-1,0.6c-0.1,0.1-0.3,0.1-0.4,0.2c-0.2,0.1-0.3,0.1-0.5,0.2c-0.2,0.1-0.4,0.2-0.7,0.3c-0.2,0.1-0.4,0.2-0.7,0.3
		c-1,0.5-2.2,0.9-3.6,1.1c-0.3,0-0.7,0.1-1,0.2c-0.3,0-0.7,0-1.1,0.1c-0.7,0-1.4,0-2.1-0.2l-0.5-0.1c-0.2,0-0.3-0.1-0.5-0.1
		c-0.3-0.1-0.7-0.2-1-0.3c-0.6-0.3-1.3-0.5-1.8-0.9c-0.3-0.2-0.6-0.3-0.8-0.5c-0.3-0.2-0.5-0.4-0.7-0.6c-0.2-0.2-0.5-0.3-0.7-0.5
		s-0.4-0.4-0.6-0.5c-0.2-0.2-0.4-0.4-0.7-0.7c-0.3-0.2-0.5-0.6-0.9-0.9c-0.3-0.3-0.6-0.7-0.9-1c-0.3-0.4-0.6-0.8-0.9-1.1
		c-0.6-0.7-1.1-1.5-1.5-1.9C805.3,612.7,805,612.4,804.9,612.5z M831.6,615.5c0.2,0,0.3,0.2,0.4,0.7c0,0.2,0,0.5,0,0.8
		c0,0.2-0.1,0.3-0.1,0.5c-0.1,0.2-0.2,0.4-0.3,0.5c-0.2,0.4-0.5,0.6-0.6,0.8c-0.2,0.1-0.4,0.1-0.5,0.1c-0.2-0.1-0.3-0.4-0.2-0.8
		c0.1-0.5,0.2-0.9,0.4-1.3c0.1-0.3,0.2-0.6,0.3-0.8C831.1,615.7,831.4,615.5,831.6,615.5z"/>
</g>
<g>
	<path class="st0" d="M879.1,578.2c-1.9-1.4-3.9-2.8-6-3.7c-2.2-1-4.6-1.6-7-1.9c-5.4-0.7-11.1,0.1-16.1,2.2
		c-1.6,0.7-1.3,1.9-1.1,3.2c0.2,1.6,0.4,3.3,0.5,4.9c1.2,11,2.5,22,3.7,33c0.3,3,0.7,6,1,9v0.1c0.1,0.5,0.5,1.1,0.8,1.5
		c0.3,0.6,0.8,1.2,1.2,1.7c0.9,1.2,1.8,1.6,3.3,1.3c2.5-0.6,5-1.1,7.6-1.7c1.2-0.3,2.9-0.4,4-1c1.6-1,0.9-2.9,0.6-4.4
		c-0.6-3.4-1.2-6.7-1.9-10.1c4.2-0.3,8.3-1.6,11.7-4.1c3.1-2.2,5.1-5.5,6-9.1C889.5,591.1,885.8,582.6,879.1,578.2
		C879,578,883.1,580.8,879.1,578.2z M866.9,594.3c-0.1,0.2-0.2,0.4-0.3,0.5c-0.2-1.1-0.4-2.1-0.6-3.1c0.5,0.1,1.3,0.2,1.3,0.8
		C867.3,593.1,867.1,593.7,866.9,594.3C866.8,594.5,867.2,593.6,866.9,594.3z"/>
	<path class="st1" d="M862.3,572.3c-1.4,0-2.8,0.1-4.1,0.3c-2.9,0.4-5.8,1.2-8.5,2.3c-0.6,0.3-1,1-1,1.7l5.4,48.4
		c0,0.5,0.3,0.9,0.7,1.1c0.3,0.2,0.6,0.3,0.9,0.3c0.1,0,0.2,0,0.4,0l11.4-2.6c0.9-0.2,1.4-1,1.2-1.9l-2.4-12.9c0.1,0,0.3,0,0.4,0
		c4.6-0.2,8.5-1.6,11.9-4.1c5.1-3.8,7.3-11.1,5.4-17.7C881.5,577.8,873.3,572.3,862.3,572.3z M864.1,596.3l-1.5-8
		c2.2,0.3,3.6,1.2,4.4,2.7c0.5,1,0.4,2.2-0.1,3.3c-0.5,1-1.3,1.7-2.2,1.9C864.5,596.3,864.3,596.3,864.1,596.3z"/>
	<path class="st2" d="M882.6,587.6c-3.1-10.9-14-14.7-24.2-13.4c-2.8,0.4-5.5,1.1-8,2.2l1.3,11.8l4.1,36.6l11.4-2.6l-2.7-14.7
		c0.8,0,1.5,0,2.3-0.1c4.1-0.2,7.7-1.4,11-3.8C882.7,599.9,884.2,593.2,882.6,587.6z M865,597.8c-0.7,0.2-1.5,0.1-2.3-0.2l-2-11
		c3.1-0.1,6.3,0.6,7.8,3.7C869.8,593.2,868.2,597,865,597.8z"/>
	<path class="st3" d="M852.1,592.1c3.1-0.4,6.3-0.7,9.4-0.7l-0.9-4.8c3.1-0.1,6.3,0.6,7.8,3.7c0.2,0.4,0.3,0.8,0.4,1.3
		c4.9,0.3,9.6,1,14.3,2c0.2-2,0-4.1-0.5-6.1c-3.1-10.9-14-14.7-24.2-13.4c-2.8,0.4-5.5,1.1-8,2.2l1.3,11.8L852.1,592.1z"/>
	<path class="st4" d="M858.4,574.2c-2.8,0.4-5.5,1.1-8,2.2l1.3,11.8l-0.3-9.9c2.3-0.9,4.6-1.5,7.1-1.9c1.3-0.2,2.5-0.3,3.8-0.3
		c9.8,0,17.6,4.3,19.9,12.4c0.4,1.4,0.6,2.2,1,5c0.2-2,0-4.1-0.5-6.1C879.5,576.7,868.6,572.8,858.4,574.2z"/>
	<path class="st4" d="M860.9,587.8l1.8,9.8c0,0,2.4,1,4.5-1.1c2.2-2,1.6-5.3,1.6-5.3s2,5.8-3.4,7.2c-1.2,0.3-3.2,0-3.2,0
		L860.9,587.8z"/>
	<path class="st3" d="M866,605.8c0,0.3,0.8,0.5,1.8,0.5s2.2-0.2,3.1-0.5c0.8-0.2,2.5-0.9,4.1-1.8c1.6-0.9,3.1-2.2,3.8-3
		c0.4-0.4,0.6-0.8,0.7-1.1c0.1-0.3,0.2-0.6,0.1-0.8c0-0.4-0.2-0.5-0.4-0.6c-0.1-0.1-0.3-0.2-0.5,0s-0.5,0.6-1.2,1.5
		s-1.9,1.9-3.3,2.6c-1.4,0.8-2.8,1.3-3.9,1.6c-0.5,0.2-1.6,0.5-2.6,0.8C866.9,605.2,866,605.4,866,605.8z M879.7,596
		c0.1,0,0.4,0.1,0.6,0.3c0.2,0.2,0.4,0.6,0.3,1.1c-0.3,1-1,0.6-1.2,0.2c-0.2-0.6-0.3-0.9-0.2-1.2C879.4,596.1,879.6,596,879.7,596z"
		/>
	<path class="st3" d="M857,623c0.2,0.6,3.2,0.2,4.9-0.3l4.4-1.1l-0.8-5.9c-0.3-2.1-1-2.2-1.3-2.2s-0.8-0.1-0.4,2.4l0.6,4.4l-3,0.7
		C860.3,621.3,856.9,622.3,857,623z M863.7,611c0.3-0.1,1.2,0.2,1.3,1.1c0.1,0.9-0.7,0.9-1,0.5C863,611.6,863.4,611.1,863.7,611z"/>
</g>
<g>
	<path class="st0" d="M894.9,625.2c0.8,1.4,3.3,1.1,4.6,1.1c2.5,0.1,5,0.3,7.5,0.4c0.9,0.1,1.8,0.1,2.7,0.2c0.8,0,1.5,0.1,2.1-0.5
		c0.7-0.6,0.6-1.4,0.7-2.2c0-1,0.1-2,0.1-3c0.1-2.8,0.2-5.6,0.3-8.4c0.2,0,0.7-0.1,0.7,0.1c0,0.3,0.1,0.6,0.1,0.9
		c0.1,1.1,0.2,2.2,0.4,3.4c0.1,1.2,0.3,2.4,0.4,3.6c0.1,0.6,0.1,1.2,0.2,1.8c0.1,0.4,0.4,0.7,0.6,1c0.5,0.7,1,1.3,1.2,1.5
		c0.8,1,1.4,1.4,2.4,1.3c2.1-0.1,4.3-0.3,6.4-0.4c1.7-0.1,3.4-0.2,5.1-0.3c1.3-0.1,2.1-1.3,1.8-2.5c-0.1-0.2-0.1-0.5-0.2-0.7
		c-0.8-3.2-1.7-6.4-2.5-9.6c-2.4-9.2-4.8-18.4-7.2-27.6c-0.3-1.2-0.6-2.3-0.9-3.5c0-0.2-0.1-0.4-0.2-0.6c-0.2-0.9-1.1-1.3-1.8-1.8
		c-0.7-0.4-1.6-1.4-2.4-1.4c-0.5,0-1,0-1.5,0c-2.3,0-4.6-0.1-6.8-0.2c-2.3-0.1-4.6-0.1-6.9-0.2c-1.1,0-2.9-0.3-3.1,1.2
		c-0.3,2.5-0.7,4.9-1,7.4c-1.3,9.6-2.6,19.2-3.9,28.8c-0.3,1.9-0.5,3.8-0.8,5.7c0,0.3-0.1,0.6-0.1,0.9c-0.1,0.7,0.5,1.3,0.9,1.9
		C894.2,624.2,894.6,624.7,894.9,625.2z"/>
	<path class="st1" d="M894.3,623.3l13.9,0.8c0,0,0,0,0.1,0c0.4,0,0.7-0.1,1-0.4c0.3-0.3,0.4-0.6,0.5-1l0.5-12.7l3.2,0.3l1.4,12.2
		c0.1,0.7,0.7,1.3,1.5,1.3l11.9-0.8c0.4,0,0.8-0.2,1.1-0.6c0.2-0.3,0.3-0.8,0.2-1.2L918.7,579c-0.2-0.6-0.7-1-1.3-1.1l-16.9-0.4
		c-0.7,0-1.3,0.5-1.4,1.2l-5.8,42.9c-0.1,0.4,0.1,0.8,0.3,1.1C893.5,623.1,893.9,623.3,894.3,623.3z M912,597.9h-1.3l0.2-5.5h0.4
		L912,597.9z"/>
	<path class="st2" d="M916.2,622.3l11.9-0.8l-10.9-42.2l-16.9-0.4l-5.8,42.9l13.9,0.8l0.6-14.2l5.8,0.5L916.2,622.3z M909.3,599.2
		l0.3-8.3h3l1,8.4L909.3,599.2z"/>
	<path class="st3" d="M899.5,604.9c1.5,0.5,5.3,1.5,8,2c1.5,0.3,3,0.5,4.5,0.7c0.6,0.1,1.2,0.1,1.7,0.2c0.2,0,0.3,0,0.4,0
		c0.1,0,0.3,0,0.4,0c3.3,0.1,6.6,0,9.9-0.4l-7.3-28l-16.9-0.4l-3.4,24.8C897.7,604.2,898.6,604.6,899.5,604.9z M909.6,590.9h3l1,8.4
		l-4.3-0.1L909.6,590.9z"/>
	<polygon class="st4" points="912.7,591.2 913.6,599.3 909.3,599.2 909.6,591.2 909,600.1 914,600.2 	"/>
	<path class="st4" d="M901,581l15.5,0.3c0,0,5,16.2,5.4,16.2l-4.7-18.1l-16.9-0.4l-2.5,18.7C898,597.8,901,581,901,581z"/>
	<path class="st3" d="M898.3,620.7c0,0.6,3.4,1,5.3,1c0.5,0,1.2,0,2,0c0.2,0,0.4,0,0.7,0c0.1,0,0.2,0,0.4,0h0.2c0.1,0,0.1,0,0.3,0
		h0.1h0.1c0.1,0,0.2-0.1,0.3-0.1c0-0.1,0.1,0,0.2-0.4c0-0.2,0-1.5-0.7-0.2l0,0l0.1-0.1c0.1,0,0.1-0.1,0.3-0.2
		c0.1-0.1,0.4-0.1,0.3-0.1c0,0.1,0,0.1,0,0.2l0,0v-0.1v-0.3c0-0.2,0-0.5,0-0.7c0.1-2,0.2-4,0.3-5.2c0.1-2.3-0.4-2.6-0.7-2.6
		s-0.6-0.2-0.8,2.6c-0.1,1.4-0.2,3.3-0.3,5.1c0,0.5-0.1,0.9-0.1,1.4l0,0v0.1c0,0.1,0,0.2,0.1,0.3s0,0.1,0,0.1
		c0.3-0.2-0.6,0.4,0.6-0.4l0,0l0,0V621v-0.4c0-0.2,0-0.1,0-0.2l0,0l0,0h-0.1h-0.3c-0.2,0-0.4,0-0.6,0c-0.8,0-1.6,0-2.2,0
		C902.3,620.2,898.3,620.1,898.3,620.7z M907.4,608.8c0.3-0.1,1,0.4,0.9,1.4s-0.8,0.8-1,0.4C906.8,609.4,907.2,608.9,907.4,608.8z"
		/>
	<path class="st3" d="M917,621.2c0,0.6,3.7,0.5,5.6,0.4c0.5,0,1.2-0.1,2.1-0.2c0.5,0,1.1-0.1,1.7-0.1c0.2,0,0.5,0,0.7-0.1h0.4
		c0-0.1,0-0.2-0.1-0.4c-0.1-0.5-0.2-1-0.4-1.4c-0.5-2-1-4.1-1.3-5.3c-0.6-2.4-1.2-2.5-1.5-2.4c-0.3,0-0.7,0,0.1,2.8
		c0.4,1.4,0.8,3.3,1.3,5.2v0.1l0,0c-0.3,0-0.6,0-0.9,0.1c-0.9,0.1-1.7,0.1-2.3,0.2C921.1,620.2,916.9,620.7,917,621.2z M923.4,608.8
		c0.2-0.1,1,0.1,1.3,1.1c0.3,1.1-0.5,1.1-0.8,0.7C922.9,609.6,923.2,608.9,923.4,608.8z"/>
</g>
<g>
	<path class="st0" d="M941,619.5c2.8,4.2,5.9,7.7,10.7,9.8c5,2.1,10.5,2.2,15.7,1c3.9-0.9,7.8-2.4,11.4-4.4c0.7-0.5,1.8-0.9,2.2-1.6
		c0.7-1,0.3-2-0.1-3c-1-2.5-2-5-3-7.7c-0.8-1.9-1.3-4.7-3.3-5.7c-0.4-0.4-0.9-0.6-1.2-0.9c-0.5-0.4-1-0.9-1.6-1
		c-1.3-0.4-2.8,1.2-3.9,1.8c-2.1,1.1-4.4,1.9-6.8,1.8c-1,0-2.8-0.2-3.5-1c-0.9-0.9-1.5-2-1.8-3.2c-0.5-2.1-0.3-4.4,0.1-6.5
		c0.4-2.1,1.2-4.7,3-6.3c1.4-1.1,4.5-1.9,5.7-0.1c0.9,1.4,1.9,2.8,3.9,1.9c1-0.4,2.1-0.9,3.1-1.3c1.4-0.6,2.8-1.1,4.1-1.8
		c0.8-0.3,1.8-0.6,2.5-1.2c1.2-1.3,0.7-3.3,0.3-4.8c-0.6-2-1.5-3.9-2.9-5.4c-1.6-1.8-3.8-3.2-5.9-4.5c-2.3-1.4-5-2-7.7-2.1
		c-4.2-0.1-8.4,1.3-11.9,3.6c-8.3,5.4-12.8,15.1-13.4,24.8C936.1,608.2,937.4,614.3,941,619.5C941.1,619.7,940.9,619.3,941,619.5z"
		/>
	<path class="st1" d="M950.6,626.5c2.3,0.8,4.8,1.2,7.4,1.2l0,0c9.8,0,18.8-5.7,19.1-6c0.7-0.4,1-1.3,0.7-2l-5-12.6
		c-0.2-0.5-0.6-0.9-1.1-1c-0.5-0.2-1-0.1-1.5,0.3c-3.1,2.3-6.1,3.4-8.8,3.4l0,0c-5.1,0-8.1-3.9-8.9-6.3c-0.9-3-0.4-8.4,1.6-11.9
		c1-1.6,2.2-2.6,3.6-3c0.7-0.2,1.3-0.3,1.9-0.3c2.6,0,3.3,1.8,3.3,2.1c0.1,0.4,0.5,0.8,0.9,1s1,0.2,1.4,0l9.1-3.8
		c0.5-0.1,0.8-0.6,1-1v-0.3c0.1-0.2,0.1-0.4,0.1-0.6c-0.1-3.4-2.5-10.3-10.7-11.7c-1-0.3-2.1-0.3-3.2-0.3
		c-10.5,0-20.5,8.9-23.7,21.1C933.8,609.7,938.9,622.2,950.6,626.5z"/>
	<path class="st2" d="M971.3,607.7c-11.2,8.2-18.9,1.1-20.4-3.9c-1.5-4.9,0.3-15.5,6.3-17c6.1-1.4,7.3,3,7.3,3l9.1-3.8l0.2-0.4
		c0,0-0.3-8.5-9.3-10.1c-10.1-1.8-21.5,6.2-25,19.5c-3.6,13.2,0.1,25.7,11.7,29.9c11.6,4.2,25.1-4.6,25.1-4.6L971.3,607.7z"/>
	<g class="st5">
		<path class="st2" d="M950.3,607.3c0.8-0.1,1.6-0.2,2.4-0.3c-0.9-1.1-1.4-2.1-1.7-3.2c-1.5-4.9,0.3-15.5,6.3-17
			c6.1-1.4,7.3,3,7.3,3l9.1-3.8l0.2-0.4c0,0-0.3-8.5-9.3-10.1c-10.1-1.8-21.5,6.2-25,19.5c-1.2,4.4-1.6,8.7-1.1,12.7
			C942.4,607.8,946.3,607.7,950.3,607.3z"/>
	</g>
	<g>
		<path class="st4" d="M973.8,585.6c0,0-0.3-8.5-9.3-10.1c-10.1-1.8-21.5,6.2-25,19.5c-0.2,0.5-0.3,1.2-0.5,1.7
			c3.4-9.7,9.9-19,21.1-20c0.9,0,1.7-0.1,3.9,0.3c6.9,1,9.1,5.5,9.3,7.3l0.3,1.6L973.8,585.6z"/>
	</g>
	<g>
		<path class="st4" d="M952.7,607.1c-0.9-1.1-1.4-2.1-1.7-3.2c-0.4-1.5-0.6-3.5-0.4-5.6c-0.1,2-0.4,3.7,0,5.7
			c0.4,1.6,1.4,3.5,2.5,4.7s3,2.5,4.5,2.9c3,0.8,6.3,0.4,9.3-0.8c1.5-0.6,3.3-1.8,4.4-3C965.2,612.4,956.7,612,952.7,607.1z"/>
	</g>
	<path class="st3" d="M971.3,621.6c-0.2-0.3-1.6,0.1-3.5,0.6c-1.8,0.5-4.1,1-5.7,1.2c-0.4,0.1-0.9,0.1-1.5,0.2
		c-0.6,0-1.3,0.1-1.9,0.1c-1.5,0-3.2-0.1-4.8-0.5s-3.2-1.1-4.5-1.8c-1.3-0.9-2.3-1.8-3-2.5c-0.3-0.4-0.6-0.7-0.9-1
		c-0.2-0.3-0.5-0.6-0.6-0.8c-0.4-0.5-0.7-0.8-1-1c-0.5-0.5-0.8-0.5-0.9-0.4c-0.2,0.1-0.4,0.1-0.2,0.6c0.1,0.3,0.2,0.8,0.6,1.3
		c0.4,0.6,0.8,1.4,1.7,2.4c0.9,1.1,2.1,2,3.5,2.9c1.4,0.8,3,1.5,4.7,2c3.4,0.8,6.8,0.6,9.1,0.4c1.2-0.2,3.6-0.7,5.6-1.5
		C970,622.9,971.5,621.9,971.3,621.6z M941.2,610.7c0.3-0.2,1.2,0.4,1.7,2c0.6,1.6-0.3,1.8-0.8,1.1c-0.8-0.9-1-1.8-1.1-2.3
		C940.9,611.1,941,610.8,941.2,610.7z"/>
</g>
<g>
	<path class="st0" d="M992.5,624.6c0.2,0.4,0.6,1,1,1.4c0.2,0.4,0.6,0.9,0.9,1.3c0.4,0.5,1,0.8,1.7,0.8c0.5,0,0.9,0,1.4,0
		c2.2,0,4.5,0,6.7,0c4.6,0,9.3,0,13.9,0c0.8,0,1.5-0.1,2-0.7c0.7-0.7,0.6-1.7,0.6-2.6c0.1-2.4,0.1-4.8,0.2-7.2c0-0.4,0-0.7-0.1-1
		c-0.3-1-1.3-1.3-2-1.9c-0.9-0.8-1.9-1.4-3.1-1.4c-1.3,0-2.6-0.1-3.8-0.1c-0.4,0-0.9,0-1.3,0c-0.3,0-0.2-0.6-0.2-0.9
		c0-0.2,0-0.5,0-0.7c2.1,0.1,4.2,0.2,6.3,0.3c0.7,0,1.6,0.2,2.3-0.1c1.2-0.4,1.4-1.5,1.5-2.6c0.2-2.4,0.5-4.8,0.7-7.2
		c0-0.3,0.1-0.6,0-0.9c-0.1-1.1-0.9-1.3-1.6-1.9c-0.6-0.5-1.4-0.9-2-1.4c-0.4-0.3-0.9-0.3-1.3-0.4c-1.2,0-2.5-0.1-3.7-0.1
		c-0.4,0-2.2,0.1-2.2-0.3c0-0.1,0-1.2,0-1.2c0.3,0,0.5,0,0.8,0c1.2,0,2.3,0,3.5,0c2,0,4.1,0.2,6.1,0c2.6-0.3,1.9-3.9,1.8-5.6
		c0-2.5-0.1-4.9-0.1-7.4c0-1.2-0.4-2-1.4-2.7c-0.6-0.4-1.2-0.9-1.9-1.3c-0.5-0.3-0.9-0.6-1.5-0.6c-3.6,0.3-7.3,0.6-10.9,1
		c-5,0.4-10,0.9-15.1,1.3c-1,0.1-2.9-0.1-3.5,0.9c-0.4,0.7-0.1,2,0,2.7c1,9.8,1.9,19.5,2.9,29.3c0.2,2.5,0.5,5,0.7,7.5
		C991.9,621.9,991.8,623.9,992.5,624.6C992.6,624.8,992.3,624.4,992.5,624.6z"/>
	<path class="st1" d="M993.6,625.1h22.4c0.8,0,1.5-0.7,1.5-1.5l0.2-8.8c0-0.4-0.1-0.8-0.4-1.1c-0.3-0.3-0.7-0.5-1.1-0.5l-8.9-0.2
		l-0.1-4.7l8.6,0.3c0.8,0,1.5-0.6,1.6-1.4l0.8-8.4c0-0.4-0.1-0.8-0.4-1.2c-0.3-0.3-0.7-0.5-1.1-0.5l-9.3-0.3v-4.3h10.7
		c0.4,0,0.8-0.2,1.1-0.5s0.4-0.7,0.4-1.1l-0.2-11.4c0-0.4-0.2-0.8-0.5-1.1s-0.7-0.4-1.2-0.4l-28.3,2.4c-0.4,0-0.8,0.2-1.1,0.5
		s-0.4,0.7-0.4,1.1l4.1,41.4C992.2,624.5,992.8,625.1,993.6,625.1z"/>
	<polygon class="st2" points="1017.9,579.7 1018.1,591.1 1005.8,591.1 1005.8,598.4 1016.7,598.9 1015.8,607.2 1005.6,606.8 
		1005.8,614.6 1016.2,614.8 1016,623.5 993.6,623.5 989.5,582.1 	"/>
	<path class="st3" d="M993.4,606.9c3.5,0.4,6.7,0.6,10.3,0c2.6-0.4,5.2-1,8.4-2c1.4-0.4,2.8-0.9,4.1-1.3l0.5-4.7l-10.8-0.4v-7.3
		h12.2l-0.2-11.4l-28.3,2.4l2.4,24.6C992.4,606.8,992.9,606.8,993.4,606.9z"/>
	<path class="st4" d="M1005.4,599.1l10.7,0.6c0,0,0,1.3,0.2,3.9l0.5-4.7l-10.8-0.4v-7L1005.4,599.1z"/>
	<polygon class="st4" points="990.8,583.7 1016.9,581.2 1018.1,591.1 1017.9,579.7 989.5,582.1 991.1,597.6 	"/>
	<polygon class="st4" points="1005.6,606.8 1005.8,614.6 1016.2,614.8 1016.2,618.2 1015.6,615.6 1005.1,615.1 	"/>
	<path class="st3" d="M1014,623c0-0.6-5.1-1.2-7.9-1.4l-10-0.6l-0.2-3.5c-0.2-3.5-0.9-3.8-1.2-3.8s-0.7-0.2-0.4,3.9l0.3,4.9
		l11.5,0.7C1008.1,623.4,1014,623.6,1014,623z M994.3,609.4c0.3-0.1,1.1,0.5,1.2,2c0.1,1.5-0.7,1.3-1,0.7
		C993.6,610.4,994,609.5,994.3,609.4z"/>
</g>
<g>
	<path class="st0" d="M1334.3,277c0.8,1.3,3.1,1,4.4,1.1c2.4,0.1,4.7,0.3,7.1,0.4c0.9,0.1,1.7,0.1,2.6,0.1c0.7,0,1.4,0.1,2-0.5
		s0.6-1.3,0.6-2c0-0.9,0.1-1.9,0.1-2.8c0.1-2.6,0.2-5.3,0.3-7.9c0.2,0,0.6,0,0.7,0.1c0,0.3,0.1,0.5,0.1,0.8c0.1,1.1,0.2,2.1,0.4,3.2
		c0.1,1.1,0.3,2.3,0.4,3.4c0.1,0.6,0.1,1.2,0.2,1.7c0.1,0.4,0.3,0.6,0.6,0.9c0.4,0.6,0.9,1.2,1.1,1.5c0.8,1,1.3,1.3,2.2,1.2
		c2-0.1,4-0.3,6.1-0.4c1.6-0.1,3.2-0.2,4.8-0.3c1.2-0.1,2-1.2,1.7-2.4c-0.1-0.2-0.1-0.5-0.2-0.7c-0.8-3-1.6-6-2.3-9
		c-2.3-8.7-4.5-17.4-6.8-26.1c-0.3-1.1-0.6-2.2-0.8-3.3c0-0.2-0.1-0.4-0.2-0.6c-0.2-0.9-1-1.3-1.7-1.7c-0.6-0.4-1.5-1.3-2.3-1.3
		c-0.5,0-0.9,0-1.4,0c-2.2,0-4.3-0.1-6.5-0.1s-4.3-0.1-6.5-0.1c-1.1,0-2.7-0.3-2.9,1.2c-0.3,2.3-0.6,4.7-0.9,7
		c-1.2,9.1-2.5,18.2-3.7,27.2c-0.2,1.8-0.5,3.6-0.7,5.4c0,0.3-0.1,0.6-0.1,0.8c-0.1,0.7,0.5,1.3,0.8,1.8
		C1333.6,276,1333.9,276.5,1334.3,277z"/>
	<path class="st1" d="M1333.7,275.3l13.2,0.7c0,0,0,0,0.1,0c0.3,0,0.7-0.1,0.9-0.4c0.3-0.2,0.4-0.6,0.4-0.9l0.5-12l3,0.2l1.3,11.5
		c0.1,0.7,0.7,1.2,1.4,1.2l11.2-0.7c0.4,0,0.8-0.2,1-0.5s0.3-0.7,0.2-1.1l-10.3-39.8c-0.2-0.6-0.7-1-1.3-1l-16-0.4
		c-0.7,0-1.3,0.5-1.3,1.2l-5.5,40.5c-0.1,0.4,0.1,0.7,0.3,1C1333,275.1,1333.3,275.2,1333.7,275.3z M1350.4,251.2h-1.2l0.2-5.2h0.4
		L1350.4,251.2z"/>
	<path class="st2" d="M1354.4,274.3l11.2-0.7l-10.3-39.8l-16-0.4l-5.5,40.5l13.2,0.7l0.6-13.4l5.5,0.5L1354.4,274.3z M1347.8,252.5
		l0.3-7.9h2.8l0.9,7.9H1347.8z"/>
	<path class="st3" d="M1338.6,257.8c1.4,0.5,5,1.4,7.5,1.9c1.4,0.3,2.8,0.5,4.2,0.6c0.5,0.1,1.1,0.1,1.6,0.2c0.2,0,0.3,0,0.3,0
		c0.1,0,0.3,0,0.4,0c3.2,0.1,6.3,0,9.4-0.4l-6.9-26.5l-16-0.4l-3.2,23.5C1336.9,257.2,1337.8,257.5,1338.6,257.8z M1348.2,244.6h2.8
		l0.9,7.9l-4.1-0.1L1348.2,244.6z"/>
	<polygon class="st4" points="1351,244.9 1351.9,252.5 1347.8,252.5 1348.1,244.9 1347.5,253.3 1352.3,253.4 	"/>
	<path class="st4" d="M1340,235.3l14.7,0.3c0,0,4.7,15.3,5.1,15.3l-4.4-17.1l-16-0.4L1337,251C1337.2,251.2,1340,235.3,1340,235.3z"
		/>
	<path class="st3" d="M1337.4,272.7c0,0.5,3.2,0.9,5,1c0.4,0,1.1,0,1.9,0c0.2,0,0.4,0,0.6,0c0.1,0,0.2,0,0.3,0h0.2
		c0.1,0,0.1,0,0.2,0h0.1h0.1c0.1,0,0.2-0.1,0.3-0.1c0-0.1,0.1,0,0.2-0.4c0-0.2,0-1.4-0.7-0.2l0,0l0.1-0.1c0.1,0,0.1-0.1,0.2-0.1
		s0.3-0.1,0.3-0.1c0,0.1,0,0.1,0,0.2l0,0v-0.2v-0.3c0-0.2,0-0.5,0-0.7c0.1-1.9,0.2-3.8,0.3-4.9c0.1-2.2-0.4-2.5-0.7-2.5
		c-0.3,0-0.6-0.2-0.7,2.4c-0.1,1.3-0.2,3.1-0.3,4.8c0,0.4-0.1,0.9-0.1,1.3l0,0v0.1c0,0.1,0,0.2,0.1,0.2c0,0.1,0,0.1,0,0.1
		c0.3-0.2-0.6,0.4,0.6-0.4l0,0l0,0v-0.1v-0.4c0-0.2,0-0.1,0-0.2l0,0l0,0h-0.1h-0.3c-0.2,0-0.4,0-0.6,0c-0.8,0-1.5,0-2.1,0
		C1341.2,272.3,1337.5,272.2,1337.4,272.7z M1346.1,261.6c0.2-0.1,0.9,0.4,0.8,1.4s-0.7,0.8-0.9,0.4
		C1345.4,262.1,1345.8,261.6,1346.1,261.6z"/>
	<path class="st3" d="M1355.1,273.3c0,0.5,3.5,0.5,5.3,0.3c0.5,0,1.2-0.1,2-0.2c0.5,0,1.1-0.1,1.6-0.1c0.2,0,0.5,0,0.7-0.1h0.4
		c0-0.1,0-0.2-0.1-0.3c-0.1-0.4-0.2-0.9-0.3-1.4c-0.5-1.9-1-3.9-1.3-5c-0.6-2.2-1.2-2.3-1.4-2.3c-0.3,0-0.6,0,0.1,2.6
		c0.4,1.3,0.8,3.1,1.2,4.9v0.1l0,0c-0.3,0-0.6,0-0.9,0.1c-0.8,0.1-1.6,0.1-2.2,0.2C1359,272.3,1355.1,272.7,1355.1,273.3z
		 M1361.2,261.5c0.2-0.1,1,0.1,1.2,1.1s-0.4,1-0.8,0.7C1360.7,262.2,1360.9,261.6,1361.2,261.5z"/>
</g>
<g>
	<path class="st0" d="M1371.9,230.9c0.3,7.9,0.6,15.9,1,23.8c0.2,5.2,0.4,10.5,0.7,15.7c0.1,1.6,0.1,3.1,0.2,4.7c0,0.4,0,0.7,0,1
		v0.1c0,0.5,0.3,0.9,0.6,1.3c0.4,0.5,0.7,1.2,1.2,1.6c0.6,1.2,1.5,1.7,2.8,1.7c1.1,0,2.1-0.1,3.2-0.1c2.5-0.1,5.1-0.2,7.6-0.3
		c1.1-0.1,2.3-0.3,2.7-1.5c0.3-0.8,0-1.8-0.2-2.6c-0.4-2.5-0.8-4.9-1.2-7.4c0-0.1,0-0.2,0-0.3c3.4,2.6,6.8,5.2,10.1,7.7
		c0.9,0.7,1.9,1,2.9,0.4c0.6-0.4,1-1,1.4-1.5c1.7-2,3.4-4.1,5.1-6.1c0.7-0.8,1.8-1.8,2.2-2.9c0.2-0.6,0.1-1.3-0.2-1.8
		c-0.2-0.4-0.6-1.3-1.1-1.5c-0.7-0.3-1.4-0.7-2.1-1c-2.5-1.2-5-2.4-7.5-3.6c3.8-2.1,6.5-5.7,7.5-10c0.9-4.3,0-8.8-2.8-12.2
		c-1.5-1.8-3.5-3.1-5.4-4.4c-2-1.4-4.1-2.6-6.5-3.4c-4.9-1.6-10-1.6-15-0.7c-1.6,0.3-3.2,0.6-4.7,1.1
		C1373.3,229.1,1371.8,229.5,1371.9,230.9z M1388.1,246.2c0.4,0.1,0.8,0.2,1.1,0.3c-0.3,0.3-0.7,0.4-1.1,0.4
		C1388.1,246.6,1388.1,246.4,1388.1,246.2z"/>
	<path class="st1" d="M1371.9,230.9l1.9,45.3c0,0.9,0.7,1.5,1.6,1.5c0,0,0,0,0.1,0l12-0.4c0.4,0,0.9-0.2,1.2-0.6
		c0.3-0.4,0.4-0.8,0.3-1.2l-1.7-10.8l11.8,8.9c0.7,0.5,1.6,0.4,2.1-0.3l7.8-9.4c0.3-0.4,0.4-0.9,0.3-1.3c-0.1-0.5-0.4-0.9-0.9-1.1
		l-11.5-5.5c1.1-0.5,2.2-1.1,3.2-1.7c5.5-3.7,7.7-11.3,5-17.3c-2.6-5.9-9.9-9.2-16-9.9c-1.8-0.2-3.9-0.2-6.2,0
		c-1.4,0.1-2.8,0.3-4.2,0.6c-3,0.6-4.7,1.2-5.7,1.6C1372.2,229.6,1371.9,230.2,1371.9,230.9z M1389.4,246c-0.1,0.4-0.2,0.9-1.7,0.9
		c-0.8,0-1.7-0.2-2.7-0.3l-0.2-3.6c1.6,0.1,3.5,0.8,4.3,1.8C1389.5,245.2,1389.6,245.5,1389.4,246z"/>
	<path class="st2" d="M1407.6,262.9l-15.1-7.1c2.3-0.5,4.5-1.4,6.5-2.8c5-3.4,6.8-10.1,4.5-15.3c-2.4-5.4-9.2-8.3-14.8-9
		c-1.8-0.2-3.9-0.2-5.9,0c-1.4,0.1-2.8,0.3-4,0.6c-2.7,0.5-4.3,1.1-5.3,1.5l0.1,2.3l1.8,43.1l11.9-0.4l-2.3-14.7l14.9,11.3
		L1407.6,262.9z M1383.9,241.4c2.7-0.2,8,1.5,7.1,5.1c-0.8,3-4.4,2-7.4,1.4l-0.2-6.4C1383.5,241.4,1383.7,241.4,1383.9,241.4z"/>
	<g class="st5">
		<path class="st2" d="M1374.3,250.7c4.7,1.8,9.6,3.4,14.5,3.4c3.4,0,6.8-0.4,10.1-0.9c0.1,0,0.1-0.1,0.2-0.1
			c5-3.4,6.8-10.1,4.5-15.3c-2.4-5.4-9.2-8.3-14.8-9c-1.8-0.2-3.9-0.2-5.9,0c-1.4,0.1-2.8,0.3-4,0.6c-2.7,0.5-4.3,1.1-5.3,1.5
			l0.1,2.3L1374.3,250.7z M1383.9,241.4c2.7-0.2,8,1.5,7.1,5.1c-0.8,3-4.4,2-7.4,1.4l-0.2-6.4
			C1383.5,241.4,1383.7,241.4,1383.9,241.4z"/>
	</g>
	<path class="st4" d="M1390.2,243.5c0.7,0.8,1.1,1.7,0.8,2.9c-0.8,3-4.4,2-7.4,1.4l-0.2-6.1h-0.1l0.1,6.9l1,0.2
		c1.3,0.3,2.8,0.6,4.1,0.6c2.8,0,3.1-0.9,3.5-2.1c0.3-1.2,0.1-1.8-0.7-2.8C1390.9,244.1,1390.6,243.8,1390.2,243.5z"/>
	<path class="st4" d="M1374.4,232.7c0.9-0.3,2.3-0.8,4.5-1.2c1.3-0.2,2.6-0.4,3.9-0.6c1.1-0.1,2.1-0.1,3.1-0.1c0.9,0,1.8,0,2.6,0.1
		c5.4,0.6,11.8,3.5,14,8.4c1.9,4.4,0.7,9.8-2.8,13.1c4.4-3.5,5.9-9.8,3.7-14.7c-2.4-5.4-9.2-8.3-14.8-9c-1.8-0.2-3.9-0.2-5.9,0
		c-1.4,0.1-2.8,0.3-4,0.6c-2.7,0.5-4.3,1.1-5.3,1.5l0.1,2.3l0.2,4.9L1374.4,232.7z"/>
	<polygon class="st4" points="1392.5,255.8 1407.6,262.9 1403.4,268 1405.8,263.2 1390.5,255.8 	"/>
	<path class="st3" d="M1376.8,274.7c0.1,0.6,3.7,0.5,5.6,0.3l3.7-0.4l-1.2-8.4c-0.3-2.4-1-2.6-1.3-2.6s-0.7-0.1-0.3,2.8l0.9,6.7
		l-2,0.2C1380.9,273.6,1376.8,274.1,1376.8,274.7z M1383.2,260.7c0.3-0.1,1.1,0.2,1.2,1.3c0.1,1.1-0.7,1-1,0.6
		C1382.6,261.4,1382.9,260.8,1383.2,260.7z"/>
</g>
<g>
	<path class="st0" d="M1417.8,229.9c0.3,7.9,0.6,15.9,1,23.8c0.2,5.2,0.4,10.5,0.7,15.7c0.1,1.6,0.1,3.1,0.2,4.7c0,0.4,0,0.7,0,1
		v0.1c0,0.5,0.3,0.9,0.6,1.3c0.4,0.5,0.7,1.2,1.2,1.6c0.6,1.2,1.5,1.7,2.8,1.7c1.1,0,2.1-0.1,3.2-0.1c2.5-0.1,5.1-0.2,7.6-0.3
		c1.1-0.1,2.3-0.3,2.7-1.5c0.3-0.8,0-1.8-0.2-2.6c-0.4-2.5-0.8-4.9-1.2-7.4c0-0.1,0-0.2,0-0.3c3.4,2.6,6.8,5.2,10.1,7.7
		c0.9,0.7,1.9,1,2.9,0.4c0.6-0.4,1-1,1.4-1.5c1.7-2,3.4-4.1,5.1-6.1c0.7-0.8,1.8-1.8,2.2-2.9c0.2-0.6,0.1-1.3-0.2-1.8
		c-0.2-0.4-0.6-1.3-1.1-1.5c-0.7-0.3-1.4-0.7-2.1-1c-2.5-1.2-5-2.4-7.5-3.6c3.8-2.1,6.5-5.7,7.5-10c0.9-4.3,0-8.8-2.8-12.2
		c-1.5-1.8-3.5-3.1-5.4-4.4c-2-1.4-4.1-2.6-6.5-3.4c-4.9-1.6-10-1.6-15-0.7c-1.6,0.3-3.2,0.6-4.7,1.1
		C1419.3,228.2,1417.8,228.5,1417.8,229.9z M1434.1,245.2c0.4,0.1,0.8,0.2,1.1,0.3c-0.3,0.3-0.7,0.4-1.1,0.4
		C1434.1,245.7,1434.1,245.5,1434.1,245.2z"/>
	<path class="st1" d="M1417.8,229.9l1.9,45.3c0,0.9,0.7,1.5,1.6,1.5c0,0,0,0,0.1,0l12-0.4c0.4,0,0.9-0.2,1.2-0.6
		c0.3-0.4,0.4-0.8,0.3-1.2l-1.7-10.8l11.8,8.9c0.7,0.5,1.6,0.4,2.1-0.3l7.8-9.4c0.3-0.4,0.4-0.9,0.3-1.3c-0.1-0.5-0.4-0.9-0.9-1.1
		l-11.5-5.5c1.1-0.5,2.2-1.1,3.2-1.7c5.5-3.7,7.7-11.3,5-17.3c-2.6-5.9-9.9-9.2-16-9.9c-1.8-0.2-3.9-0.2-6.2,0
		c-1.4,0.1-2.8,0.3-4.2,0.6c-3,0.6-4.7,1.2-5.7,1.6C1418.2,228.7,1417.8,229.3,1417.8,229.9z M1435.4,245.1
		c-0.1,0.4-0.2,0.9-1.7,0.9c-0.8,0-1.7-0.2-2.7-0.3l-0.2-3.6c1.6,0.1,3.5,0.8,4.3,1.8C1435.5,244.2,1435.5,244.6,1435.4,245.1z"/>
	<path class="st2" d="M1453.6,262l-15.1-7.1c2.3-0.5,4.5-1.4,6.5-2.8c5-3.4,6.8-10.1,4.5-15.3c-2.4-5.4-9.2-8.3-14.8-9
		c-1.8-0.2-3.9-0.2-5.9,0c-1.4,0.1-2.8,0.3-4,0.6c-2.7,0.5-4.3,1.1-5.3,1.5l0.1,2.3l1.8,43.1l11.9-0.4l-2.3-14.7l14.9,11.3
		L1453.6,262z M1429.9,240.4c2.7-0.2,8,1.5,7.1,5.1c-0.8,3-4.4,2-7.4,1.4l-0.2-6.4C1429.5,240.4,1429.7,240.4,1429.9,240.4z"/>
	<g class="st5">
		<path class="st2" d="M1420.2,249.7c4.7,1.8,9.6,3.4,14.5,3.4c3.4,0,6.8-0.4,10.1-0.9c0,0,0.1-0.1,0.2-0.1c5-3.4,6.8-10.1,4.5-15.3
			c-2.4-5.4-9.2-8.3-14.8-9c-1.8-0.2-3.9-0.2-5.9,0c-1.4,0.1-2.8,0.3-4,0.6c-2.7,0.5-4.3,1.1-5.3,1.5l0.1,2.3L1420.2,249.7z
			 M1429.9,240.4c2.7-0.2,8,1.5,7.1,5.1c-0.8,3-4.4,2-7.4,1.4l-0.2-6.4C1429.5,240.4,1429.7,240.4,1429.9,240.4z"/>
	</g>
	<path class="st4" d="M1436.1,242.6c0.7,0.8,1.1,1.7,0.8,2.9c-0.8,3-4.4,2-7.4,1.4l-0.2-6.1h-0.1l0.1,6.9l1,0.2
		c1.3,0.3,2.8,0.6,4.1,0.6c2.8,0,3.1-0.9,3.5-2.1c0.3-1.2,0.1-1.8-0.7-2.8C1436.9,243.2,1436.5,242.8,1436.1,242.6z"/>
	<path class="st4" d="M1420.4,231.7c0.9-0.3,2.3-0.8,4.5-1.2c1.3-0.2,2.6-0.4,3.9-0.6c1.1-0.1,2.1-0.1,3.1-0.1c0.9,0,1.8,0,2.6,0.1
		c5.4,0.6,11.8,3.5,14,8.4c1.9,4.4,0.7,9.8-2.8,13.1c4.4-3.5,5.9-9.8,3.7-14.7c-2.4-5.4-9.2-8.3-14.8-9c-1.8-0.2-3.9-0.2-5.9,0
		c-1.4,0.1-2.8,0.3-4,0.6c-2.7,0.5-4.3,1.1-5.3,1.5l0.1,2.3l0.2,4.9L1420.4,231.7z"/>
	<polygon class="st4" points="1438.5,254.9 1453.6,262 1449.4,267.1 1451.8,262.2 1436.5,254.9 	"/>
	<path class="st3" d="M1422.8,273.8c0.1,0.6,3.7,0.5,5.6,0.3l3.7-0.4l-1.2-8.4c-0.3-2.4-1-2.6-1.3-2.6s-0.7-0.1-0.3,2.8l0.9,6.7
		l-2,0.2C1426.9,272.6,1422.7,273.2,1422.8,273.8z M1429.2,259.7c0.3-0.1,1.1,0.2,1.2,1.3s-0.7,1-1,0.6
		C1428.5,260.4,1428.9,259.8,1429.2,259.7z"/>
</g>
<g>
	<path class="st0" d="M1486.1,225.6c-8.9,0-17.7,4.3-22.8,11.8c-2.4,3.6-3.9,7.8-4.1,12.1c-0.3,5.5,1.4,10.5,4.6,15
		c1.4,2,2.7,3.9,4.4,5.6c1.6,1.6,3.5,3,5.5,4.1c4.3,2.5,9.3,3.7,14.3,3.8c9,0.2,18.3-3.2,24.1-10.2c5.9-7.1,7.1-17.3,3.1-25.7
		c-1.1-2.3-2.5-4.3-4.3-6.1c-2-2-4.4-3.6-6.8-5.2c-4.5-3.1-9.8-4.7-15.2-5.1C1488,225.6,1487.1,225.6,1486.1,225.6z M1483.2,260.6
		c-1.3,0-2.5-0.2-3.7-0.7c-1.1-0.4-1.8-1.7-2.3-2.8c-0.9-2-1-4.4-0.3-6.5c1.4-4.1,5.6-6.6,9.8-6.3c1.2,0.1,2.3,0.4,3.3,0.8
		c0.9,0.4,2.5,1.1,2.9,2.1c0.8,2.2,0.8,4.6,0,6.8C1491.4,258.1,1487.4,260.6,1483.2,260.6z"/>
	<path class="st1" d="M1459.2,250.7c0,13.5,11.6,23.8,26.9,23.8c15.4,0,27.7-10.6,27.9-24.1c0.1-6.6-2.1-12.4-6.4-16.8
		c-5.1-5.1-12.9-8.1-21.5-8.1C1471.3,225.6,1459.2,236.9,1459.2,250.7z M1483.2,240.9c5.7,0,10.4,4.4,10.4,9.9
		c0,5.4-4.6,9.9-10.4,9.9c-5.7,0-10.3-4.4-10.3-9.9C1472.8,245.3,1477.5,240.9,1483.2,240.9z"/>
	<path class="st2" d="M1486.1,227.4c-13.9,0-25.2,10.5-25.2,23.4c0,12.9,11.3,22,25.2,22c13.9,0,25.9-9.4,26.1-22.3
		C1512.5,235.4,1500,227.4,1486.1,227.4z M1483.2,262.4c-6.7,0-12.1-5.2-12.1-11.6s5.4-11.7,12.1-11.7s12.1,5.2,12.1,11.7
		C1495.3,257.2,1489.9,262.4,1483.2,262.4z"/>
	<g class="st6">
		<path class="st2" d="M1462.5,255.6c3.8,1,7.6,2,11.4,2.6c-1.8-2-2.9-4.6-2.9-7.5c0-6.4,5.4-11.7,12.1-11.7s12.1,5.2,12.1,11.7
			c0,2.1-0.6,4-1.6,5.7c6.3-2.1,12.3-4.8,18.5-7.1c-0.3-14.4-12.5-22-26.1-22c-13.9,0-25.2,10.5-25.2,23.4c0,1.6,0.2,3.1,0.5,4.6
			C1461.8,255.4,1462.1,255.5,1462.5,255.6z"/>
	</g>
	<g>
		<path class="st4" d="M1486.1,229.4c12.9,0,24.6,6.9,26,20c0,0,0.1,0,0.1-0.1c-0.3-14.4-12.5-22-26.1-22
			c-13.9,0-25.2,10.5-25.2,23.4c0,0.3,0,0.7,0,1C1461.6,239.3,1472.6,229.4,1486.1,229.4z"/>
	</g>
	<path class="st4" d="M1472,255.3c0,0,3.2,7,11.1,7.1s10.9-6.8,11.9-9.4c0,0-0.8,10.9-12.5,10.2C1473.7,262.7,1472,255.3,1472,255.3
		z"/>
	<path class="st7" d="M1478,269.4c-0.1,0.3,1.3,1.1,3.4,1.7c2,0.6,4.6,0.8,6.4,0.7c1.8-0.1,5.5-0.5,9.1-2c1.8-0.7,3.5-1.7,4.9-2.6
		c1.4-1,2.6-2,3.4-2.8c1.6-1.5,2.2-2.7,2.5-3.3c0.2-0.7,0.1-0.9,0-1.1c-0.1-0.1-0.2-0.3-0.7,0c-0.2,0.2-0.5,0.5-1,1
		c-0.2,0.3-0.5,0.5-0.8,0.9c-0.3,0.3-0.7,0.7-1.2,1.1c-0.4,0.4-1,0.9-1.5,1.3c-0.6,0.5-1.2,0.9-1.8,1.3c-1.3,0.8-2.8,1.7-4.3,2.3
		c-3.1,1.3-6.3,1.8-8.6,1.9c-0.6,0.1-1.5,0-2.5,0c-0.5,0-1-0.1-1.6-0.1c-0.5,0-1.1-0.1-1.6-0.2C1479.9,269.5,1478.1,269,1478,269.4z
		 M1509.8,255.2c0.2,0,0.4,0.2,0.6,0.7c0,0.1,0.1,0.3,0.1,0.4c0,0.2,0,0.3,0,0.5c0,0.4-0.2,0.8-0.4,1.3c-1,1.8-1.6,1-1.4,0.1
		c0.1-0.6,0.2-1.1,0.3-1.5c0.1-0.4,0.2-0.7,0.3-0.9C1509.4,255.4,1509.7,255.2,1509.8,255.2z"/>
</g>
<g>
	<path class="st0" d="M1516.5,227.4c-0.5,0.8,0,2,0.2,2.8c0.4,1.7,0.8,3.3,1.2,5c1.2,5.1,2.4,10.3,3.6,15.4c1.2,5,2.4,10.1,3.6,15.2
		c0.4,1.5,0.7,3.1,1.1,4.6c0.1,0.4,0.2,0.7,0.3,1.1c0.2,0.9,1,1.8,1.6,2.6c0.6,0.8,1.1,1.7,2.2,1.9c0.3,0,0.6,0,0.8,0
		c1.2-0.1,2.4-0.1,3.6-0.2s2.5-0.1,3.7-0.2c1.1-0.1,2.3-0.3,2.7-1.6c1.3-3.8,2.3-7.8,3.4-11.7c0-0.1,0-0.1,0.1-0.2
		c0.8,2,1.5,4,2.3,6c0.1,0.3,0.2,0.6,0.3,0.8c0.2,0.4,0.6,0.7,1,1c0.2,0.4,0.5,0.9,0.8,1.3c0.6,1.1,1.3,1.5,2.6,1.5
		c2.5-0.1,5-0.2,7.4-0.3c0.8,0,1.8,0,2.4-0.4s0.9-1,1-1.7c1.8-9,3.7-18.1,5.5-27.1c0.4-1.8,0.7-3.6,1.1-5.5c0.3-1.4,0.8-3-0.8-3.8
		c-0.4-0.3-1-0.8-1.4-1c-0.4-0.3-0.9-0.7-1.3-0.9c-0.2-0.1-0.5-0.2-0.7-0.2c-1-0.3-2-0.6-2.9-0.9c-2.4-0.7-4.8-1.4-7.2-2.1
		c-1.1-0.3-2.3-0.2-2.6,1.2c-0.2,1.1-0.4,2.3-0.5,3.4c-0.4,2.6-0.8,5.1-1.2,7.7c-0.8-1.6-1.5-3.3-2.3-4.9c-0.2-0.5-0.5-0.9-0.9-1.1
		c-0.8-0.5-1.6-1.3-2.5-1.7c-0.9-1-2.1-0.3-2.6,0.7c-1.6,3.2-3.3,6.5-4.9,9.7c-1-4.2-2-8.4-3-12.6c-0.2-0.8-0.4-1.5-0.5-2.3
		c-0.3-1.4-1.7-2-2.8-2.8c-0.6-0.4-1.2-1-2.1-0.9c-0.3,0.1-0.5,0.1-0.8,0.1c-1.2,0.2-2.3,0.4-3.5,0.6c-1.6,0.3-3.2,0.5-4.8,0.8
		C1518.5,226.5,1517.1,226.5,1516.5,227.4C1516.3,227.7,1516.7,227,1516.5,227.4z"/>
	<path class="st1" d="M1516.5,227.4c-0.2,0.3-0.3,0.8-0.2,1.2l10.1,43c0.2,0.7,0.8,1.2,1.5,1.2h0.1l8.5-0.4c0.7,0,1.2-0.5,1.4-1.1
		l4.3-14.9l4.7,12.2c0.2,0.6,0.8,1,1.5,1l9.3-0.4c0.7,0,1.3-0.5,1.4-1.2l7-34.4c0.2-0.8-0.3-1.6-1.1-1.8l-11.1-3.3
		c-0.4-0.1-0.9-0.1-1.3,0.2c-0.4,0.2-0.6,0.6-0.7,1.1l-2.3,14.5l-4.9-10.6c-0.2-0.5-0.8-0.9-1.4-0.9s-1.1,0.3-1.4,0.9l-6.7,13.3
		l-5-20.8c-0.2-0.8-1-1.3-1.8-1.2l-10.9,1.9C1517.1,226.8,1516.7,227,1516.5,227.4z"/>
	<polygon class="st2" points="1517.8,228.2 1528.7,226.4 1534.7,251.3 1543.3,234.2 1550.3,249.4 1553.4,229.9 1564.5,233.2 
		1557.5,267.6 1548.3,268 1541.9,251.5 1536.3,270.9 1527.9,271.3 	"/>
	<g class="st6">
		<path class="st2" d="M1534.6,256.2c1,0.1,2,0.3,3,0.3c0.3,0,1.1,0,1.2,0c0.5,0,1,0,1.6,0l1.4-5l1.9,4.9c2.2-0.2,4.4-0.4,6.6-0.8
			c3.4-0.6,6.7-1.4,10-2.1l4.1-20.2l-11.1-3.3l-3.1,19.6l-7-15.2l-8.7,17.1l-6-24.9l-10.9,1.9l5.9,25.2
			C1527.1,254.8,1530.4,255.6,1534.6,256.2z"/>
	</g>
	<g>
		<polygon class="st4" points="1518.9,230.2 1528,228.7 1534.4,254 1543.3,237.6 1550.8,253.8 1554.2,232.3 1563.5,235.1 
			1561.9,246.3 1564.5,233.2 1553.4,229.9 1550.3,249.4 1543.3,234.2 1534.7,251.3 1528.7,226.4 1517.8,228.2 1520.1,237.9 		"/>
	</g>
	<path class="st7" d="M1529.1,269.9c0.1,0.6,3,0.6,4.6,0.4l2-0.2l2.3-7.3c0.6-1.9,0.1-2.3-0.2-2.4c-0.3-0.1-0.6-0.4-1.3,1.9l-2,6.3
		l-0.9,0.1C1532.4,268.8,1529,269.3,1529.1,269.9z M1538.5,257.9c0.3,0,0.9,0.6,0.6,1.5c-0.3,0.8-1,0.5-1.1,0
		C1537.6,258.2,1538.2,257.9,1538.5,257.9z"/>
	<path class="st7" d="M1549.7,266.6c0,0.6,3,0.6,4.6,0.5l2.7-0.2l1.2-7c0.3-2-0.2-2.3-0.5-2.3c-0.3-0.1-0.7-0.3-1.1,2.1l-1,5.7
		l-1.5,0.1C1553,265.6,1549.6,266,1549.7,266.6z M1557.9,255.1c0.3,0,1,0.5,0.8,1.3c-0.2,0.9-0.9,0.6-1.1,0.2
		C1557.1,255.4,1557.6,255.1,1557.9,255.1z"/>
</g>
<g>
	<path class="st0" d="M933.6,76.1c0.2,0.4,0.6,1,1,1.4c0.2,0.4,0.6,0.9,0.9,1.3c0.4,0.5,1,0.8,1.7,0.8c0.5,0,0.9,0,1.4,0
		c2.2,0,4.5,0,6.7,0c4.6,0,9.3,0,13.9,0c0.8,0,1.5-0.1,2-0.7c0.7-0.7,0.6-1.7,0.6-2.6c0.1-2.4,0.1-4.8,0.2-7.2c0-0.4,0-0.7-0.1-1
		c-0.3-1-1.3-1.3-2-1.9c-0.9-0.8-1.9-1.4-3.1-1.4c-1.3,0-2.6-0.1-3.8-0.1c-0.4,0-0.9,0-1.3,0c-0.3,0-0.2-0.6-0.2-0.9
		c0-0.2,0-0.5,0-0.7c2.1,0.1,4.2,0.2,6.3,0.3c0.7,0,1.6,0.2,2.3-0.1c1.2-0.4,1.4-1.5,1.5-2.6c0.2-2.4,0.5-4.8,0.7-7.2
		c0-0.3,0.1-0.6,0-0.9c-0.1-1.1-0.9-1.3-1.6-1.9c-0.6-0.5-1.4-0.9-2-1.4c-0.4-0.3-0.9-0.3-1.3-0.4c-1.2,0-2.5-0.1-3.7-0.1
		c-0.4,0-2.2,0.1-2.2-0.3c0-0.1,0-1.2,0-1.2c0.3,0,0.5,0,0.8,0c1.2,0,2.3,0,3.5,0c2,0,4.1,0.2,6.1,0c2.6-0.3,1.9-3.9,1.8-5.6
		c0-2.5-0.1-4.9-0.1-7.4c0-1.2-0.4-2-1.4-2.7c-0.6-0.4-1.2-0.9-1.9-1.3c-0.5-0.3-0.9-0.6-1.5-0.6c-3.6,0.3-7.3,0.6-10.9,1
		c-5,0.4-10,0.9-15.1,1.3c-1,0.1-2.9-0.1-3.5,0.9c-0.4,0.7-0.1,2,0,2.7c1,9.8,1.9,19.5,2.9,29.3c0.2,2.5,0.5,5,0.7,7.5
		C933,73.4,932.8,75.3,933.6,76.1C933.7,76.3,933.4,75.9,933.6,76.1z"/>
	<path class="st1" d="M934.7,76.6h22.4c0.8,0,1.5-0.7,1.5-1.5l0.2-8.8c0-0.4-0.1-0.8-0.4-1.1c-0.3-0.3-0.7-0.5-1.1-0.5l-8.9-0.2
		l-0.1-4.7l8.6,0.3c0.8,0,1.5-0.6,1.6-1.4l0.8-8.4c0-0.4-0.1-0.8-0.4-1.2c-0.3-0.3-0.7-0.5-1.1-0.5l-9.3-0.3V44h10.7
		c0.4,0,0.8-0.2,1.1-0.5s0.4-0.7,0.4-1.1L960.5,31c0-0.4-0.2-0.8-0.5-1.1c-0.3-0.3-0.7-0.4-1.2-0.4l-28.3,2.4
		c-0.4,0-0.8,0.2-1.1,0.5s-0.4,0.7-0.4,1.1l4.1,41.4C933.2,76,933.9,76.6,934.7,76.6z"/>
	<polygon class="st2" points="959,31.2 959.2,42.6 946.9,42.6 946.9,49.9 957.7,50.3 956.9,58.7 946.7,58.3 946.9,66.1 957.3,66.3 
		957.1,75 934.7,75 930.6,33.6 	"/>
	<path class="st3" d="M934.4,58.4c3.5,0.4,6.7,0.6,10.3,0c2.6-0.4,5.2-1,8.4-2c1.4-0.4,2.8-0.9,4.1-1.3l0.5-4.7L946.9,50v-7.3h12.2
		L959,31.2l-28.3,2.4l2.4,24.6C933.5,58.3,934,58.3,934.4,58.4z"/>
	<path class="st4" d="M946.4,50.5l10.7,0.6c0,0,0,1.3,0.2,3.9l0.5-4.7L947,49.9v-7L946.4,50.5z"/>
	<polygon class="st4" points="931.9,35.2 958,32.6 959.2,42.6 959,31.2 930.6,33.6 932.1,49.1 	"/>
	<polygon class="st4" points="946.7,58.3 946.9,66.1 957.3,66.3 957.2,69.7 956.7,67.1 946.2,66.6 	"/>
	<path class="st3" d="M955.1,74.5c0-0.6-5.1-1.2-7.9-1.4l-10-0.6L937,69c-0.2-3.5-0.9-3.8-1.2-3.8s-0.7-0.2-0.4,3.9l0.3,4.9
		l11.5,0.7C949.1,74.9,955,75.1,955.1,74.5z M935.4,60.9c0.3-0.1,1.1,0.5,1.2,2c0.1,1.5-0.7,1.3-1,0.7
		C934.7,61.8,935.1,61,935.4,60.9z"/>
</g>
<g>
	<path class="st0" d="M854.6,35.5c-0.4-0.3-0.9-0.7-1.3-0.9c-0.3-0.3-0.9-0.7-1.3-0.9c-0.3-0.1-0.6-0.2-0.9-0.2
		c-1-0.1-2-0.3-3.1-0.4c-2-0.2-3.9-0.5-5.9-0.7c-1.6-0.2-1.6,1.4-1.8,2.5c-0.1,1.5-0.3,3-0.4,4.5c-0.9,9.8-1.9,19.6-2.8,29.5
		c-0.1,1.5-0.3,3-0.4,4.6c0,0.4-0.1,0.7-0.1,1.1c-0.1,0.8,0.4,1.3,0.8,2c0.7,1.1,1.5,2.6,2.9,2.7c0.6,0,1.2,0.1,1.8,0.1
		c2.5,0.1,5,0.3,7.5,0.4c1.6,0.1,3.2,0.2,4.9,0.3c0.9,0.1,1.8-0.3,2.2-1.2c0.3-0.6,0.1-1.3,0.1-2c-0.4-3.5-0.7-7-1.1-10.5
		c2,3.1,4,6.1,5.9,9.1c0.5,0.8,1.1,2,1.9,2.4c0.7,0.4,1.8,0.3,2.6,0.3c2,0,4.1,0.1,6.1,0c1.8,0,2-1.6,2.2-2.9
		c0.2-1.5,0.3-3.1,0.5-4.6c0.5-5,1.1-10,1.6-15c0.5-4.6,1-9.2,1.5-13.8c0.1-1.1,0.2-2.1,0.3-3.2c0.1-0.9-0.2-1.8-1.1-2.2
		c-0.4-0.3-0.9-0.7-1.3-0.9c-0.3-0.3-0.8-0.7-1.2-0.9c-0.3-0.1-0.6-0.2-0.9-0.2c-3.6-0.1-7.2-0.2-10.8-0.3c-1.4,0-2.8-0.1-4.2-0.1
		c-1.2,0-1.8,0.9-1.6,2c0.4,1.9,0.7,3.9,0.9,5.9c-0.5-1.1-1-2.1-1.5-3.2C856.1,37.8,855.7,36.1,854.6,35.5
		C854.5,35.4,855,35.7,854.6,35.5z"/>
	<path class="st1" d="M851.5,33.6l-9.3-1.2c-0.4,0-0.8,0.1-1.1,0.3s-0.5,0.6-0.5,1l-3.9,41c0,0.4,0.1,0.8,0.3,1.1
		c0.3,0.3,0.6,0.5,1,0.5l14.4,0.8h0.1l0,0c0.8,0,1.4-0.6,1.4-1.5c0-0.1,0-0.2,0-0.3l-1.5-13.9l8.6,13.3c0.3,0.4,0.7,0.7,1.2,0.7h7.6
		c0.8,0,1.4-0.6,1.5-1.3l4.1-37.9c0-0.4-0.1-0.8-0.4-1.1c-0.3-0.3-0.7-0.5-1.1-0.5l-15.4-0.4c-0.4,0-0.9,0.2-1.2,0.5
		c-0.3,0.4-0.4,0.8-0.3,1.2c0.6,2.8,1.1,7.4,1.5,11.4l-6-12.9C852.5,33.9,852,33.6,851.5,33.6z"/>
	<path class="st2" d="M852.5,75.7l-14.4-0.8l3.9-41l9.3,1.2l9.3,20.2c0,0-0.8-13.6-2.1-19.6l15.4,0.4L869.8,74h-7.6l-11.9-18.5
		L852.5,75.7z"/>
	<g class="st6">
		<path class="st2" d="M843.4,50.7c4.9-0.7,9.8-1.1,14.7-0.9L851.3,35l-9.3-1.2l-1.7,17.4C841.4,51.1,842.4,50.9,843.4,50.7z"/>
	</g>
	<g class="st6">
		<path class="st2" d="M863.3,50.2c3,0.3,6,0.9,8.9,1.6l1.7-15.8l-15.4-0.4c0.8,3.6,1.4,9.9,1.8,14.3
			C861.3,50,862.3,50.1,863.3,50.2z"/>
	</g>
	<g>
		<path class="st4" d="M851.3,35l-9.3-1.2l-1.7,17.4c0.3-0.1,2.4-16.1,2.4-16.1l8,1.8L861,55.6L851.3,35z"/>
	</g>
	<g>
		<path class="st4" d="M859.5,37l13.4,1l-0.1,7.8l1.1-9.9l-15.4-0.4c0.3,1.2,0.5,2.8,0.8,4.5L859.5,37z"/>
	</g>
	<path class="st7" d="M839.4,73.5c0,0.6,4.7,1.2,7.3,1.4l5.1,0.4l-1.3-10.6c-0.4-3.2-1-3.5-1.3-3.5s-0.7-0.2-0.2,3.7l1.1,8.7
		l-3.3-0.2C845,73.2,839.5,72.9,839.4,73.5z M848.6,57.3c0.3-0.1,1.1,0.4,1.2,1.8c0.1,1.4-0.6,1.3-0.9,0.7
		C848,58.2,848.3,57.4,848.6,57.3z"/>
	<path class="st7" d="M863.5,72.8c0,0.3,0.8,0.5,1.8,0.6c0.5,0.1,1.1,0.1,1.7,0.2c0.3,0,0.6,0,0.8,0c0.5,0,1,0,1.5,0
		c0.1-0.4,0.1-0.8,0.1-1.1c0.2-2,1-8.2,1.3-10.7c0.3-2.4-0.2-2.8-0.5-2.8c-0.3-0.1-0.6-0.3-1,2.7c-0.3,2.9-0.9,7.8-1.2,10.4l0,0l0,0
		c-0.3,0-0.5,0-0.8,0c-0.6,0-1.1,0.1-1.7,0.1C864.3,72.4,863.5,72.5,863.5,72.8z M870.4,55.9c0.3,0,1,0.5,0.8,1.6s-0.8,0.8-1,0.3
		C869.6,56.4,870.1,55.9,870.4,55.9z"/>
</g>
<g>
	<path class="st0" d="M897.3,77.6c0.1,0.9,1.1,1.9,1.5,2.6c0.6,0.9,1.3,1.9,2.6,1.8c0.6-0.1,1.1-0.2,1.7-0.4c2.5-0.6,5-1.1,7.5-1.7
		c1.6-0.4,4.7-0.5,4.9-2.6c0.1-1-0.3-2.1-0.4-3.1c-1.3-8.5-2.6-17-4-25.5c0,0,0,0,0-0.1c4,0.2,8,0.4,12,0.6c0.8,0,1.6-0.1,2.2-0.9
		c0.5-0.7,0.4-1.6,0.3-2.4c-0.2-2.4-0.3-4.9-0.5-7.3c-0.1-1.1-0.1-2.2-0.2-3.2c-0.1-0.9-0.1-1.8-1-2.4c-0.9-0.6-1.8-1.2-2.7-1.9
		c-0.3-0.2-0.7-0.3-1.1-0.3c-0.3,0-0.7,0-1,0.1c-4.1,0.2-8.1,0.4-12.2,0.7c-5.3,0.3-10.7,0.6-16,0.9c-1.9,0.1-3.8,0.2-5.6,0.3
		c-0.8,0-2-0.1-2.7,0.3c-0.9,0.6-0.7,1.5-0.6,2.4c0.2,1.1,0.3,2.2,0.5,3.3c0.4,2.3,0.7,4.7,1.1,7c0.2,1.2,0.9,2,1.6,3
		c0.6,0.9,1.2,1.8,2.4,1.8c0.3,0,0.6-0.1,0.9-0.1c2.3-0.4,4.6-0.8,6.9-1.2c0.1,0,0.2,0,0.3-0.1c0.4,8.3,0.9,16.6,1.3,25
		C897.1,75.4,897.2,76.5,897.3,77.6z"/>
	<path class="st1" d="M897.3,77.6c0,0.4,0.2,0.8,0.6,1.1c0.3,0.2,0.6,0.3,0.9,0.3c0.1,0,0.2,0,0.3,0l12.2-2.8
		c0.8-0.2,1.3-0.9,1.1-1.7l-4.5-28.9l13.1,0.7h0.1l0,0c0.8,0,1.5-0.7,1.5-1.5c0-0.1,0-0.2,0-0.3l-0.8-12.2c-0.1-0.8-0.7-1.4-1.6-1.4
		l-36.9,2c-0.4,0-0.8,0.2-1.1,0.6c-0.3,0.3-0.4,0.8-0.3,1.2l1.8,11.8c0.1,0.4,0.3,0.7,0.6,1c0.3,0.2,0.7,0.3,1.1,0.3l10.1-1.7
		L897.3,77.6z"/>
	<polygon class="st2" points="883.4,34.4 885.2,46.2 897,44.2 898.8,77.5 910.9,74.7 906.1,44 921.1,44.8 920.3,32.4 	"/>
	<path class="st3" d="M897,44.2l0.5,10.1c3.4,0.1,6.8-0.1,10.2-0.5l-1.5-9.8l15,0.8l-0.8-12.4l-36.9,2l1.8,11.8L897,44.2z"/>
	<polygon class="st4" points="920.3,32.4 883.4,34.4 884.2,39.9 884.4,36.4 919.5,34.5 921,42.5 	"/>
	<path class="st8" d="M909.1,74.3c-0.1-0.6-4.8-0.2-7.3,0.1l-1,0.1l-0.8-11c-0.2-3.2-0.8-3.5-1.1-3.5s-0.7-0.2-0.4,3.6l0.9,12.6
		l2.7-0.4C903.9,75.7,909.2,74.8,909.1,74.3z M898.4,56.1c0.3-0.1,1.1,0.4,1.1,1.8c0.1,1.4-0.7,1.2-1,0.7
		C897.8,56.9,898.2,56.2,898.4,56.1z"/>
</g>
<g>
	<path class="st0" d="M801.2,76.5c0.2,0.4,0.6,1,1,1.4c0.2,0.4,0.6,0.9,0.9,1.3c0.4,0.5,1,0.8,1.7,0.8c0.5,0,0.9,0,1.4,0
		c2.2,0,4.5,0,6.7,0c4.6,0,9.3,0,13.9,0c0.8,0,1.5-0.1,2-0.7c0.7-0.7,0.6-1.7,0.6-2.6c0.1-2.4,0.1-4.8,0.2-7.2c0-0.4,0-0.7-0.1-1
		c-0.3-1-1.3-1.3-2-1.9c-0.9-0.8-1.9-1.4-3.1-1.4c-1.3,0-2.6-0.1-3.8-0.1c-0.4,0-0.9,0-1.3,0c-0.3,0-0.2-0.6-0.2-0.9
		c0-0.2,0-0.5,0-0.7c2.1,0.1,4.2,0.2,6.3,0.3c0.7,0,1.6,0.2,2.3-0.1c1.2-0.4,1.4-1.5,1.5-2.6c0.2-2.4,0.5-4.8,0.7-7.2
		c0-0.3,0.1-0.6,0-0.9c-0.1-1.1-0.9-1.3-1.6-1.9c-0.6-0.5-1.4-0.9-2-1.4c-0.4-0.3-0.9-0.3-1.3-0.4c-1.2,0-2.5-0.1-3.7-0.1
		c-0.4,0-2.2,0.1-2.2-0.3c0-0.1,0-1.2,0-1.2c0.3,0,0.5,0,0.8,0c1.2,0,2.3,0,3.5,0c2,0,4.1,0.2,6.1,0c2.6-0.3,1.9-3.9,1.8-5.6
		c0-2.5-0.1-4.9-0.1-7.4c0-1.2-0.4-2-1.4-2.7c-0.6-0.4-1.2-0.9-1.9-1.3c-0.5-0.3-0.9-0.6-1.5-0.6c-3.6,0.3-7.3,0.6-10.9,1
		c-5,0.4-10,0.9-15.1,1.3c-1,0.1-2.9-0.1-3.5,0.9c-0.4,0.7-0.1,2,0,2.7c1,9.8,1.9,19.5,2.9,29.3c0.2,2.5,0.5,5,0.7,7.5
		C800.6,73.8,800.5,75.8,801.2,76.5C801.3,76.7,801,76.3,801.2,76.5z"/>
	<path class="st1" d="M802.3,77h22.4c0.8,0,1.5-0.7,1.5-1.5l0.2-8.8c0-0.4-0.1-0.8-0.4-1.1c-0.3-0.3-0.7-0.5-1.1-0.5l-8.9-0.2
		l-0.1-4.7l8.6,0.3c0.8,0,1.5-0.6,1.6-1.4l0.8-8.4c0-0.4-0.1-0.8-0.4-1.2c-0.3-0.3-0.7-0.5-1.1-0.5l-9.3-0.3v-4.3h10.7
		c0.4,0,0.8-0.2,1.1-0.5s0.4-0.7,0.4-1.1l-0.2-11.4c0-0.4-0.2-0.8-0.5-1.1c-0.3-0.3-0.7-0.4-1.2-0.4l-28.3,2.4
		c-0.4,0-0.8,0.2-1.1,0.5s-0.4,0.7-0.4,1.1l4.1,41.4C800.9,76.4,801.5,77,802.3,77z"/>
	<polygon class="st2" points="826.6,31.6 826.8,43 814.6,43 814.6,50.4 825.4,50.8 824.6,59.1 814.4,58.7 814.6,66.5 825,66.7 
		824.8,75.4 802.3,75.4 798.2,34 	"/>
	<path class="st3" d="M802.1,58.8c3.5,0.4,6.7,0.6,10.3,0c2.6-0.4,5.2-1,8.4-2c1.4-0.4,2.8-0.9,4.1-1.3l0.5-4.7l-10.8-0.4v-7.3h12.2
		l-0.2-11.4l-28.3,2.4l2.4,24.6C801.1,58.7,801.6,58.8,802.1,58.8z"/>
	<path class="st4" d="M814.1,51l10.7,0.6c0,0,0,1.3,0.2,3.9l0.5-4.7l-10.8-0.4v-7L814.1,51z"/>
	<polygon class="st4" points="799.5,35.6 825.6,33.1 826.8,43 826.6,31.6 798.2,34 799.8,49.5 	"/>
	<polygon class="st4" points="814.4,58.7 814.6,66.5 825,66.7 824.9,70.2 824.3,67.6 813.8,67 	"/>
	<path class="st3" d="M822.7,74.9c0-0.6-5.1-1.2-7.9-1.4l-10-0.6l-0.2-3.5c-0.2-3.5-0.9-3.8-1.2-3.8s-0.7-0.2-0.4,3.9l0.3,4.9
		l11.5,0.7C816.8,75.3,822.7,75.5,822.7,74.9z M803,61.4c0.3-0.1,1.1,0.5,1.2,2c0.1,1.5-0.7,1.3-1,0.7
		C802.4,62.3,802.7,61.5,803,61.4z"/>
</g>
<g>
	<path class="st0" d="M968.7,30.1c0.3,7.9,0.6,15.9,1,23.8c0.2,5.2,0.4,10.5,0.7,15.7c0.1,1.6,0.1,3.1,0.2,4.7c0,0.4,0,0.7,0,1v0.1
		c0,0.5,0.3,0.9,0.6,1.3c0.4,0.5,0.7,1.2,1.2,1.6c0.6,1.2,1.5,1.7,2.8,1.7c1.1,0,2.1-0.1,3.2-0.1c2.5-0.1,5.1-0.2,7.6-0.3
		c1.1-0.1,2.3-0.3,2.7-1.5c0.3-0.8,0-1.8-0.2-2.6c-0.4-2.5-0.8-4.9-1.2-7.4c0-0.1,0-0.2,0-0.3c3.4,2.6,6.8,5.2,10.1,7.7
		c0.9,0.7,1.9,1,2.9,0.4c0.6-0.4,1-1,1.4-1.5c1.7-2,3.4-4.1,5.1-6.1c0.7-0.8,1.8-1.8,2.2-2.9c0.2-0.6,0.1-1.3-0.2-1.8
		c-0.2-0.4-0.6-1.3-1.1-1.5c-0.7-0.3-1.4-0.7-2.1-1c-2.5-1.2-5-2.4-7.5-3.6c3.8-2.1,6.5-5.7,7.5-10c0.9-4.3,0-8.8-2.8-12.2
		c-1.5-1.8-3.5-3.1-5.4-4.4c-2-1.4-4.1-2.6-6.5-3.4c-4.9-1.6-10-1.6-15-0.7c-1.6,0.3-3.2,0.6-4.7,1.1
		C970.2,28.3,968.7,28.7,968.7,30.1z M985,45.4c0.4,0.1,0.8,0.2,1.1,0.3c-0.3,0.3-0.7,0.4-1.1,0.4C985,45.8,985,45.6,985,45.4z"/>
	<path class="st1" d="M968.7,30.1l1.9,45.3c0,0.9,0.7,1.5,1.6,1.5c0,0,0,0,0.1,0l12-0.4c0.4,0,0.9-0.2,1.2-0.6s0.4-0.8,0.3-1.2
		L984,63.9l11.8,8.9c0.7,0.5,1.6,0.4,2.1-0.3l7.8-9.4c0.3-0.4,0.4-0.9,0.3-1.3c-0.1-0.5-0.4-0.9-0.9-1.1l-11.5-5.5
		c1.1-0.5,2.2-1.1,3.2-1.7c5.5-3.7,7.7-11.3,5-17.3c-2.6-5.9-9.9-9.2-16-9.9c-1.8-0.2-3.9-0.2-6.2,0c-1.4,0.1-2.8,0.3-4.2,0.6
		c-3,0.6-4.7,1.2-5.7,1.6C969.1,28.8,968.7,29.4,968.7,30.1z M986.3,45.2c-0.1,0.4-0.2,0.9-1.7,0.9c-0.8,0-1.7-0.2-2.7-0.3l-0.2-3.6
		c1.6,0.1,3.5,0.8,4.3,1.8C986.4,44.4,986.4,44.7,986.3,45.2z"/>
	<path class="st2" d="M1004.5,62.1L989.4,55c2.3-0.5,4.5-1.4,6.5-2.8c5-3.4,6.8-10.1,4.5-15.3c-2.4-5.4-9.2-8.3-14.8-9
		c-1.8-0.2-3.9-0.2-5.9,0c-1.4,0.1-2.8,0.3-4,0.6c-2.7,0.5-4.3,1.1-5.3,1.5l0.1,2.3l1.8,43.1l11.9-0.4l-2.3-14.7l14.9,11.3
		L1004.5,62.1z M980.8,40.5c2.7-0.2,8,1.5,7.1,5.1c-0.8,3-4.4,2-7.4,1.4l-0.2-6.4C980.4,40.6,980.6,40.6,980.8,40.5z"/>
	<g class="st5">
		<path class="st2" d="M971.1,49.8c4.7,1.8,9.6,3.4,14.5,3.4c3.4,0,6.8-0.4,10.1-0.9c0,0,0.1-0.1,0.2-0.1c5-3.4,6.8-10.1,4.5-15.3
			c-2.4-5.4-9.2-8.3-14.8-9c-1.8-0.2-3.9-0.2-5.9,0c-1.4,0.1-2.8,0.3-4,0.6c-2.7,0.5-4.3,1.1-5.3,1.5l0.1,2.3L971.1,49.8z
			 M980.8,40.5c2.7-0.2,8,1.5,7.1,5.1c-0.8,3-4.4,2-7.4,1.4l-0.2-6.4C980.4,40.6,980.6,40.6,980.8,40.5z"/>
	</g>
	<path class="st4" d="M987,42.7c0.7,0.8,1.1,1.7,0.8,2.9c-0.8,3-4.4,2-7.4,1.4l-0.2-6.1h-0.1l0.1,6.9l1,0.2c1.3,0.3,2.8,0.6,4.1,0.6
		c2.8,0,3.1-0.9,3.5-2.1c0.3-1.2,0.1-1.8-0.7-2.8C987.8,43.3,987.4,43,987,42.7z"/>
	<path class="st4" d="M971.3,31.9c0.9-0.3,2.3-0.8,4.5-1.2c1.3-0.2,2.6-0.4,3.9-0.6c1.1-0.1,2.1-0.1,3.1-0.1c0.9,0,1.8,0,2.6,0.1
		c5.4,0.6,11.8,3.5,14,8.4c1.9,4.4,0.7,9.8-2.8,13.1c4.4-3.5,5.9-9.8,3.7-14.7c-2.4-5.4-9.2-8.3-14.8-9c-1.8-0.2-3.9-0.2-5.9,0
		c-1.4,0.1-2.8,0.3-4,0.6c-2.7,0.5-4.3,1.1-5.3,1.5l0.1,2.3l0.2,4.9L971.3,31.9z"/>
	<polygon class="st4" points="989.4,55 1004.5,62.1 1000.3,67.2 1002.7,62.3 987.4,55 	"/>
	<path class="st3" d="M973.7,73.9c0.1,0.6,3.7,0.5,5.6,0.3l3.7-0.4l-1.2-8.4c-0.3-2.4-1-2.6-1.3-2.6s-0.7-0.1-0.3,2.8l0.9,6.7
		l-2,0.2C977.8,72.7,973.6,73.3,973.7,73.9z M980.1,59.9c0.3-0.1,1.1,0.2,1.2,1.3c0.1,1.1-0.7,1-1,0.6
		C979.4,60.6,979.8,60,980.1,59.9z"/>
</g>
<g>
	<path class="st0" d="M277.1,302.2c0.8,1.3,3.1,1,4.4,1.1c2.4,0.1,4.7,0.3,7.1,0.4c0.9,0.1,1.7,0.1,2.6,0.1c0.7,0,1.4,0.1,2-0.5
		s0.6-1.3,0.6-2c0-0.9,0.1-1.9,0.1-2.8c0.1-2.6,0.2-5.3,0.3-7.9c0.2,0,0.6,0,0.7,0.1c0,0.3,0.1,0.5,0.1,0.8c0.1,1.1,0.2,2.1,0.4,3.2
		c0.1,1.1,0.3,2.3,0.4,3.4c0.1,0.6,0.1,1.2,0.2,1.7c0.1,0.4,0.3,0.6,0.6,0.9c0.4,0.6,0.9,1.2,1.1,1.5c0.8,1,1.3,1.3,2.2,1.2
		c2-0.1,4-0.3,6.1-0.4c1.6-0.1,3.2-0.2,4.8-0.3c1.2-0.1,2-1.2,1.7-2.4c-0.1-0.2-0.1-0.5-0.2-0.7c-0.8-3-1.6-6-2.3-9
		c-2.3-8.7-4.5-17.4-6.8-26.1c-0.3-1.1-0.6-2.2-0.8-3.3c0-0.2-0.1-0.4-0.2-0.6c-0.2-0.9-1-1.3-1.7-1.7c-0.6-0.4-1.5-1.3-2.3-1.3
		c-0.5,0-0.9,0-1.4,0c-2.2,0-4.3-0.1-6.5-0.1c-2.2,0-4.3-0.1-6.5-0.1c-1.1,0-2.7-0.3-2.9,1.2c-0.3,2.3-0.6,4.7-0.9,7
		c-1.2,9.1-2.5,18.2-3.7,27.2c-0.2,1.8-0.5,3.6-0.7,5.4c0,0.3-0.1,0.6-0.1,0.8c-0.1,0.7,0.5,1.3,0.8,1.8
		C276.4,301.2,276.7,301.7,277.1,302.2z"/>
	<path class="st1" d="M276.5,300.5l13.2,0.7c0,0,0,0,0.1,0c0.3,0,0.7-0.1,0.9-0.4c0.3-0.2,0.4-0.6,0.4-0.9l0.5-12l3,0.2l1.3,11.5
		c0.1,0.7,0.7,1.2,1.4,1.2l11.2-0.7c0.4,0,0.8-0.2,1-0.5c0.2-0.3,0.3-0.7,0.2-1.1l-10.3-39.8c-0.2-0.6-0.7-1-1.3-1l-16-0.4
		c-0.7,0-1.3,0.5-1.3,1.2l-5.5,40.5c-0.1,0.4,0.1,0.7,0.3,1C275.7,300.3,276.1,300.5,276.5,300.5z M293.2,276.4H292l0.2-5.2h0.4
		L293.2,276.4z"/>
	<path class="st2" d="M297.1,299.5l11.2-0.7L298,259l-16-0.4l-5.5,40.5l13.2,0.7l0.6-13.4l5.5,0.5L297.1,299.5z M290.6,277.7
		l0.3-7.9h2.8l0.9,7.9H290.6z"/>
	<path class="st3" d="M281.4,283.1c1.4,0.5,5,1.4,7.5,1.9c1.4,0.3,2.8,0.5,4.2,0.6c0.5,0.1,1.1,0.1,1.6,0.2c0.2,0,0.3,0,0.3,0
		c0.1,0,0.3,0,0.4,0c3.2,0.1,6.3,0,9.4-0.4L298,259l-16-0.4l-3.2,23.5C279.7,282.4,280.5,282.8,281.4,283.1z M290.9,269.8h2.8
		l0.9,7.9l-4.1-0.1L290.9,269.8z"/>
	<polygon class="st4" points="293.8,270.1 294.7,277.8 290.6,277.7 290.9,270.1 290.3,278.5 295,278.6 	"/>
	<path class="st4" d="M282.7,260.5l14.7,0.3c0,0,4.7,15.3,5.1,15.3L298,259l-16-0.4l-2.4,17.6C279.9,276.4,282.7,260.5,282.7,260.5z
		"/>
	<path class="st3" d="M280.2,297.9c0,0.5,3.2,0.9,5,1c0.4,0,1.1,0,1.9,0c0.2,0,0.4,0,0.6,0c0.1,0,0.2,0,0.3,0h0.2c0.1,0,0.1,0,0.2,0
		h0.1h0.1c0.1,0,0.2-0.1,0.3-0.1c0-0.1,0.1,0,0.2-0.4c0-0.2,0-1.4-0.7-0.2l0,0l0.1-0.1c0.1,0,0.1-0.1,0.2-0.1s0.3-0.1,0.3-0.1
		c0,0.1,0,0.1,0,0.2l0,0v-0.2v-0.3c0-0.2,0-0.5,0-0.7c0.1-1.9,0.2-3.8,0.3-4.9c0.1-2.2-0.4-2.5-0.7-2.5c-0.3,0-0.6-0.2-0.7,2.4
		c-0.1,1.3-0.2,3.1-0.3,4.8c0,0.4-0.1,0.9-0.1,1.3l0,0v0.1c0,0.1,0,0.2,0.1,0.2c0,0.1,0,0.1,0,0.1c0.3-0.2-0.6,0.4,0.6-0.4l0,0l0,0
		v-0.1v-0.4c0-0.2,0-0.1,0-0.2l0,0l0,0h-0.1H288c-0.2,0-0.4,0-0.6,0c-0.8,0-1.5,0-2.1,0C284,297.5,280.3,297.4,280.2,297.9z
		 M288.8,286.8c0.2-0.1,0.9,0.4,0.8,1.4c-0.1,1-0.7,0.8-0.9,0.4C288.2,287.3,288.6,286.8,288.8,286.8z"/>
	<path class="st3" d="M297.9,298.5c0,0.5,3.5,0.5,5.3,0.3c0.5,0,1.2-0.1,2-0.2c0.5,0,1.1-0.1,1.6-0.1c0.2,0,0.5,0,0.7-0.1h0.4
		c0-0.1,0-0.2-0.1-0.3c-0.1-0.4-0.2-0.9-0.3-1.4c-0.5-1.9-1-3.9-1.3-5c-0.6-2.2-1.2-2.3-1.4-2.3c-0.3,0-0.6,0,0.1,2.6
		c0.4,1.3,0.8,3.1,1.2,4.9v0.1l0,0c-0.3,0-0.6,0-0.9,0.1c-0.8,0.1-1.6,0.1-2.2,0.2C301.7,297.5,297.8,297.9,297.9,298.5z
		 M303.9,286.7c0.2-0.1,1,0.1,1.2,1.1c0.2,1-0.4,1-0.8,0.7C303.5,287.5,303.7,286.8,303.9,286.7z"/>
</g>
<g>
	<path class="st0" d="M314.6,256.1c0.3,7.9,0.6,15.9,1,23.8c0.2,5.2,0.4,10.5,0.7,15.7c0.1,1.6,0.1,3.1,0.2,4.7c0,0.4,0,0.7,0,1v0.1
		c0,0.5,0.3,0.9,0.6,1.3c0.4,0.5,0.7,1.2,1.2,1.6c0.6,1.2,1.5,1.7,2.8,1.7c1.1,0,2.1-0.1,3.2-0.1c2.5-0.1,5.1-0.2,7.6-0.3
		c1.1-0.1,2.3-0.3,2.7-1.5c0.3-0.8,0-1.8-0.2-2.6c-0.4-2.5-0.8-4.9-1.2-7.4c0-0.1,0-0.2,0-0.3c3.4,2.6,6.8,5.2,10.1,7.7
		c0.9,0.7,1.9,1,2.9,0.4c0.6-0.4,1-1,1.4-1.5c1.7-2,3.4-4.1,5.1-6.1c0.7-0.8,1.8-1.8,2.2-2.9c0.2-0.6,0.1-1.3-0.2-1.8
		c-0.2-0.4-0.6-1.3-1.1-1.5c-0.7-0.3-1.4-0.7-2.1-1c-2.5-1.2-5-2.4-7.5-3.6c3.8-2.1,6.5-5.7,7.5-10c0.9-4.3,0-8.8-2.8-12.2
		c-1.5-1.8-3.5-3.1-5.4-4.4c-2-1.4-4.1-2.6-6.5-3.4c-4.9-1.6-10-1.6-15-0.7c-1.6,0.3-3.2,0.6-4.7,1.1
		C316.1,254.3,314.6,254.7,314.6,256.1z M330.9,271.4c0.4,0.1,0.8,0.2,1.1,0.3c-0.3,0.3-0.7,0.4-1.1,0.4
		C330.9,271.9,330.9,271.6,330.9,271.4z"/>
	<path class="st1" d="M314.6,256.1l1.9,45.3c0,0.9,0.7,1.5,1.6,1.5c0,0,0,0,0.1,0l12-0.4c0.4,0,0.9-0.2,1.2-0.6
		c0.3-0.4,0.4-0.8,0.3-1.2l-1.7-10.8l11.8,8.9c0.7,0.5,1.6,0.4,2.1-0.3l7.8-9.4c0.3-0.4,0.4-0.9,0.3-1.3c-0.1-0.5-0.4-0.9-0.9-1.1
		l-11.5-5.5c1.1-0.5,2.2-1.1,3.2-1.7c5.5-3.7,7.7-11.3,5-17.3c-2.6-5.9-9.9-9.2-16-9.9c-1.8-0.2-3.9-0.2-6.2,0
		c-1.4,0.1-2.8,0.3-4.2,0.6c-3,0.6-4.7,1.2-5.7,1.6C315,254.8,314.6,255.4,314.6,256.1z M332.2,271.2c-0.1,0.4-0.2,0.9-1.7,0.9
		c-0.8,0-1.7-0.2-2.7-0.3l-0.2-3.6c1.6,0.1,3.5,0.8,4.3,1.8C332.3,270.4,332.3,270.8,332.2,271.2z"/>
	<path class="st2" d="M350.4,288.2l-15.1-7.1c2.3-0.5,4.5-1.4,6.5-2.8c5-3.4,6.8-10.1,4.5-15.3c-2.4-5.4-9.2-8.3-14.8-9
		c-1.8-0.2-3.9-0.2-5.9,0c-1.4,0.1-2.8,0.3-4,0.6c-2.7,0.5-4.3,1.1-5.3,1.5l0.1,2.3l1.8,43.1l11.9-0.4l-2.3-14.7l14.9,11.3
		L350.4,288.2z M326.7,266.6c2.7-0.2,8,1.5,7.1,5.1c-0.8,3-4.4,2-7.4,1.4l-0.2-6.4C326.3,266.6,326.5,266.6,326.7,266.6z"/>
	<g class="st5">
		<path class="st2" d="M317,275.9c4.7,1.8,9.6,3.4,14.5,3.4c3.4,0,6.8-0.4,10.1-0.9c0.1,0,0.1-0.1,0.2-0.1c5-3.4,6.8-10.1,4.5-15.3
			c-2.4-5.4-9.2-8.3-14.8-9c-1.8-0.2-3.9-0.2-5.9,0c-1.4,0.1-2.8,0.3-4,0.6c-2.7,0.5-4.3,1.1-5.3,1.5l0.1,2.3L317,275.9z
			 M326.7,266.6c2.7-0.2,8,1.5,7.1,5.1c-0.8,3-4.4,2-7.4,1.4l-0.2-6.4C326.3,266.6,326.5,266.6,326.7,266.6z"/>
	</g>
	<path class="st4" d="M332.9,268.7c0.7,0.8,1.1,1.7,0.8,2.9c-0.8,3-4.4,2-7.4,1.4l-0.2-6.1H326l0.1,6.9l1,0.2
		c1.3,0.3,2.8,0.6,4.1,0.6c2.8,0,3.1-0.9,3.5-2.1c0.3-1.2,0.1-1.8-0.7-2.8C333.7,269.3,333.3,269,332.9,268.7z"/>
	<path class="st4" d="M317.2,257.9c0.9-0.3,2.3-0.8,4.5-1.2c1.3-0.2,2.6-0.4,3.9-0.6c1.1-0.1,2.1-0.1,3.1-0.1c0.9,0,1.8,0,2.6,0.1
		c5.4,0.6,11.8,3.5,14,8.4c1.9,4.4,0.7,9.8-2.8,13.1c4.4-3.5,5.9-9.8,3.7-14.7c-2.4-5.4-9.2-8.3-14.8-9c-1.8-0.2-3.9-0.2-5.9,0
		c-1.4,0.1-2.8,0.3-4,0.6c-2.7,0.5-4.3,1.1-5.3,1.5l0.1,2.3l0.2,4.9L317.2,257.9z"/>
	<polygon class="st4" points="335.3,281 350.4,288.2 346.2,293.2 348.6,288.4 333.3,281 	"/>
	<path class="st3" d="M319.6,299.9c0.1,0.6,3.7,0.5,5.6,0.3l3.7-0.4l-1.2-8.4c-0.3-2.4-1-2.6-1.3-2.6c-0.3,0-0.7-0.1-0.3,2.8
		l0.9,6.7l-2,0.2C323.7,298.8,319.5,299.3,319.6,299.9z M326,285.9c0.3-0.1,1.1,0.2,1.2,1.3c0.1,1.1-0.7,1-1,0.6
		C325.3,286.6,325.7,286,326,285.9z"/>
</g>
<g>
	<path class="st0" d="M360.6,255.1c0.3,7.9,0.6,15.9,1,23.8c0.2,5.2,0.4,10.5,0.7,15.7c0.1,1.6,0.1,3.1,0.2,4.7c0,0.4,0,0.7,0,1v0.1
		c0,0.5,0.3,0.9,0.6,1.3c0.4,0.5,0.7,1.2,1.2,1.6c0.6,1.2,1.5,1.7,2.8,1.7c1.1,0,2.1-0.1,3.2-0.1c2.5-0.1,5.1-0.2,7.6-0.3
		c1.1-0.1,2.3-0.3,2.7-1.5c0.3-0.8,0-1.8-0.2-2.6c-0.4-2.5-0.8-4.9-1.2-7.4c0-0.1,0-0.2,0-0.3c3.4,2.6,6.8,5.2,10.1,7.7
		c0.9,0.7,1.9,1,2.9,0.4c0.6-0.4,1-1,1.4-1.5c1.7-2,3.4-4.1,5.1-6.1c0.7-0.8,1.8-1.8,2.2-2.9c0.2-0.6,0.1-1.3-0.2-1.8
		c-0.2-0.4-0.6-1.3-1.1-1.5c-0.7-0.3-1.4-0.7-2.1-1c-2.5-1.2-5-2.4-7.5-3.6c3.8-2.1,6.5-5.7,7.5-10c0.9-4.3,0-8.8-2.8-12.2
		c-1.5-1.8-3.5-3.1-5.4-4.4c-2-1.4-4.1-2.6-6.5-3.4c-4.9-1.6-10-1.6-15-0.7c-1.6,0.3-3.2,0.6-4.7,1.1
		C362.1,253.4,360.5,253.8,360.6,255.1z M376.9,270.4c0.4,0.1,0.8,0.2,1.1,0.3c-0.3,0.3-0.7,0.4-1.1,0.4
		C376.9,270.9,376.9,270.7,376.9,270.4z"/>
	<path class="st1" d="M360.6,255.1l1.9,45.3c0,0.9,0.7,1.5,1.6,1.5c0,0,0,0,0.1,0l12-0.4c0.4,0,0.9-0.2,1.2-0.6
		c0.3-0.4,0.4-0.8,0.3-1.2l-1.7-10.8l11.8,8.9c0.7,0.5,1.6,0.4,2.1-0.3l7.8-9.4c0.3-0.4,0.4-0.9,0.3-1.3c-0.1-0.5-0.4-0.9-0.9-1.1
		l-11.5-5.5c1.1-0.5,2.2-1.1,3.2-1.7c5.5-3.7,7.7-11.3,5-17.3c-2.6-5.9-9.9-9.2-16-9.9c-1.8-0.2-3.9-0.2-6.2,0
		c-1.4,0.1-2.8,0.3-4.2,0.6c-3,0.6-4.7,1.2-5.7,1.6C361,253.9,360.6,254.5,360.6,255.1z M378.2,270.3c-0.1,0.4-0.2,0.9-1.7,0.9
		c-0.8,0-1.7-0.2-2.7-0.3l-0.2-3.6c1.6,0.1,3.5,0.8,4.3,1.8C378.2,269.4,378.3,269.8,378.2,270.3z"/>
	<path class="st2" d="M396.3,287.2l-15.1-7.1c2.3-0.5,4.5-1.4,6.5-2.8c5-3.4,6.8-10.1,4.5-15.3c-2.4-5.4-9.2-8.3-14.8-9
		c-1.8-0.2-3.9-0.2-5.9,0c-1.4,0.1-2.8,0.3-4,0.6c-2.7,0.5-4.3,1.1-5.3,1.5l0.1,2.3l1.8,43.1l11.9-0.4l-2.3-14.7l14.9,11.3
		L396.3,287.2z M372.6,265.6c2.7-0.2,8,1.5,7.1,5.1c-0.8,3-4.4,2-7.4,1.4l-0.2-6.4C372.2,265.7,372.4,265.6,372.6,265.6z"/>
	<g class="st5">
		<path class="st2" d="M363,274.9c4.7,1.8,9.6,3.4,14.5,3.4c3.4,0,6.8-0.4,10.1-0.9c0.1,0,0.1-0.1,0.2-0.1c5-3.4,6.8-10.1,4.5-15.3
			c-2.4-5.4-9.2-8.3-14.8-9c-1.8-0.2-3.9-0.2-5.9,0c-1.4,0.1-2.8,0.3-4,0.6c-2.7,0.5-4.3,1.1-5.3,1.5l0.1,2.3L363,274.9z
			 M372.6,265.6c2.7-0.2,8,1.5,7.1,5.1c-0.8,3-4.4,2-7.4,1.4l-0.2-6.4C372.2,265.7,372.4,265.6,372.6,265.6z"/>
	</g>
	<path class="st4" d="M378.9,267.8c0.7,0.8,1.1,1.7,0.8,2.9c-0.8,3-4.4,2-7.4,1.4l-0.2-6.1H372l0.1,6.9l1,0.2
		c1.3,0.3,2.8,0.6,4.1,0.6c2.8,0,3.1-0.9,3.5-2.1c0.3-1.2,0.1-1.8-0.7-2.8C379.6,268.4,379.3,268.1,378.9,267.8z"/>
	<path class="st4" d="M363.1,256.9c0.9-0.3,2.3-0.8,4.5-1.2c1.3-0.2,2.6-0.4,3.9-0.6c1.1-0.1,2.1-0.1,3.1-0.1c0.9,0,1.8,0,2.6,0.1
		c5.4,0.6,11.8,3.5,14,8.4c1.9,4.4,0.7,9.8-2.8,13.1c4.4-3.5,5.9-9.8,3.7-14.7c-2.4-5.4-9.2-8.3-14.8-9c-1.8-0.2-3.9-0.2-5.9,0
		c-1.4,0.1-2.8,0.3-4,0.6c-2.7,0.5-4.3,1.1-5.3,1.5l0.1,2.3l0.2,4.9L363.1,256.9z"/>
	<polygon class="st4" points="381.2,280.1 396.3,287.2 392.2,292.3 394.6,287.4 379.3,280.1 	"/>
	<path class="st3" d="M365.6,299c0.1,0.6,3.7,0.5,5.6,0.3l3.7-0.4l-1.2-8.4c-0.3-2.4-1-2.6-1.3-2.6c-0.3,0-0.7-0.1-0.3,2.8l0.9,6.7
		l-2,0.2C369.6,297.8,365.5,298.4,365.6,299z M371.9,284.9c0.3-0.1,1.1,0.2,1.2,1.3c0.1,1.1-0.7,1-1,0.6
		C371.3,285.7,371.7,285.1,371.9,284.9z"/>
</g>
<g>
	<path class="st0" d="M428.9,250.8c-8.9,0-17.7,4.3-22.8,11.8c-2.4,3.6-3.9,7.8-4.1,12.1c-0.3,5.5,1.4,10.5,4.6,15
		c1.4,2,2.7,3.9,4.4,5.6c1.6,1.6,3.5,3,5.5,4.1c4.3,2.5,9.3,3.7,14.3,3.8c9,0.2,18.3-3.2,24.1-10.2c5.9-7.1,7.1-17.3,3.1-25.7
		c-1.1-2.3-2.5-4.3-4.3-6.1c-2-2-4.4-3.6-6.8-5.2c-4.5-3.1-9.8-4.7-15.2-5.1C430.8,250.8,429.8,250.8,428.9,250.8z M425.9,285.8
		c-1.3,0-2.5-0.2-3.7-0.7c-1.1-0.4-1.8-1.7-2.3-2.8c-0.9-2-1-4.4-0.3-6.5c1.4-4.1,5.6-6.6,9.8-6.3c1.2,0.1,2.3,0.4,3.3,0.8
		c0.9,0.4,2.5,1.1,2.9,2.1c0.8,2.2,0.8,4.6,0,6.8C434.2,283.3,430.1,285.8,425.9,285.8z"/>
	<path class="st1" d="M401.9,276c0,13.5,11.6,23.8,26.9,23.8c15.4,0,27.7-10.6,27.9-24.1c0.1-6.6-2.1-12.4-6.4-16.8
		c-5.1-5.1-12.9-8.1-21.5-8.1C414,250.8,401.9,262.1,401.9,276z M425.9,266.1c5.7,0,10.4,4.4,10.4,9.9c0,5.4-4.6,9.9-10.4,9.9
		c-5.7,0-10.3-4.4-10.3-9.9C415.6,270.5,420.2,266.1,425.9,266.1z"/>
	<path class="st2" d="M428.9,252.6c-13.9,0-25.2,10.5-25.2,23.4s11.3,22,25.2,22s25.9-9.4,26.1-22.3
		C455.2,260.6,442.8,252.6,428.9,252.6z M425.9,287.6c-6.7,0-12.1-5.2-12.1-11.6s5.4-11.7,12.1-11.7c6.7,0,12.1,5.2,12.1,11.7
		C438.1,282.4,432.6,287.6,425.9,287.6z"/>
	<g class="st6">
		<path class="st2" d="M405.3,280.8c3.8,1,7.6,2,11.4,2.6c-1.8-2-2.9-4.6-2.9-7.5c0-6.4,5.4-11.7,12.1-11.7s12.1,5.2,12.1,11.7
			c0,2.1-0.6,4-1.6,5.7c6.3-2.1,12.3-4.8,18.5-7.1c-0.3-14.4-12.5-22-26.1-22c-13.9,0-25.2,10.5-25.2,23.4c0,1.6,0.2,3.1,0.5,4.6
			C404.6,280.6,404.9,280.7,405.3,280.8z"/>
	</g>
	<g>
		<path class="st4" d="M428.9,254.6c12.9,0,24.6,6.9,26,20c0,0,0.1,0,0.1-0.1c-0.3-14.4-12.5-22-26.1-22
			c-13.9,0-25.2,10.5-25.2,23.4c0,0.3,0,0.7,0,1C404.3,264.6,415.4,254.6,428.9,254.6z"/>
	</g>
	<path class="st4" d="M414.8,280.5c0,0,3.2,7,11.1,7.1s10.9-6.8,11.9-9.4c0,0-0.8,10.9-12.5,10.2
		C416.5,287.9,414.8,280.5,414.8,280.5z"/>
	<path class="st7" d="M420.7,294.6c-0.1,0.3,1.3,1.1,3.4,1.7c2,0.6,4.6,0.8,6.4,0.7c1.8-0.1,5.5-0.5,9.1-2c1.8-0.7,3.5-1.7,4.9-2.6
		c1.4-1,2.6-2,3.4-2.8c1.6-1.5,2.2-2.7,2.5-3.3c0.2-0.7,0.1-0.9,0-1.1c-0.1-0.1-0.2-0.3-0.7,0c-0.2,0.2-0.5,0.5-1,1
		c-0.2,0.3-0.5,0.5-0.8,0.9c-0.3,0.3-0.7,0.7-1.2,1.1c-0.4,0.4-1,0.9-1.5,1.3c-0.6,0.5-1.2,0.9-1.8,1.3c-1.3,0.8-2.8,1.7-4.3,2.3
		c-3.1,1.3-6.3,1.8-8.6,1.9c-0.6,0.1-1.5,0-2.5,0c-0.5,0-1-0.1-1.6-0.1c-0.5,0-1.1-0.1-1.6-0.2C422.6,294.7,420.9,294.3,420.7,294.6
		z M452.6,280.4c0.2,0,0.4,0.2,0.6,0.7c0,0.1,0.1,0.3,0.1,0.4c0,0.2,0,0.3,0,0.5c0,0.4-0.2,0.8-0.4,1.3c-1,1.8-1.6,1-1.4,0.1
		c0.1-0.6,0.2-1.1,0.3-1.5s0.2-0.7,0.3-0.9C452.2,280.7,452.4,280.4,452.6,280.4z"/>
</g>
<g>
	<path class="st0" d="M459.3,252.6c-0.5,0.8,0,2,0.2,2.8c0.4,1.7,0.8,3.3,1.2,5c1.2,5.1,2.4,10.3,3.6,15.4c1.2,5,2.4,10.1,3.6,15.2
		c0.4,1.5,0.7,3.1,1.1,4.6c0.1,0.4,0.2,0.7,0.3,1.1c0.2,0.9,1,1.8,1.6,2.6c0.6,0.8,1.1,1.7,2.2,1.9c0.3,0,0.6,0,0.8,0
		c1.2-0.1,2.4-0.1,3.6-0.2c1.2-0.1,2.5-0.1,3.7-0.2c1.1-0.1,2.3-0.3,2.7-1.6c1.3-3.8,2.3-7.8,3.4-11.7c0-0.1,0-0.1,0.1-0.2
		c0.8,2,1.5,4,2.3,6c0.1,0.3,0.2,0.6,0.3,0.8c0.2,0.4,0.6,0.7,1,1c0.2,0.4,0.5,0.9,0.8,1.3c0.6,1.1,1.3,1.5,2.6,1.5
		c2.5-0.1,5-0.2,7.4-0.3c0.8,0,1.8,0,2.4-0.4s0.9-1,1-1.7c1.8-9,3.7-18.1,5.5-27.1c0.4-1.8,0.7-3.6,1.1-5.5c0.3-1.4,0.8-3-0.8-3.8
		c-0.4-0.3-1-0.8-1.4-1c-0.4-0.3-0.9-0.7-1.3-0.9c-0.2-0.1-0.5-0.2-0.7-0.2c-1-0.3-2-0.6-2.9-0.9c-2.4-0.7-4.8-1.4-7.2-2.1
		c-1.1-0.3-2.3-0.2-2.6,1.2c-0.2,1.1-0.4,2.3-0.5,3.4c-0.4,2.6-0.8,5.1-1.2,7.7c-0.8-1.6-1.5-3.3-2.3-4.9c-0.2-0.5-0.5-0.9-0.9-1.1
		c-0.8-0.5-1.6-1.3-2.5-1.7c-0.9-1-2.1-0.3-2.6,0.7c-1.6,3.2-3.3,6.5-4.9,9.7c-1-4.2-2-8.4-3-12.6c-0.2-0.8-0.4-1.5-0.5-2.3
		c-0.3-1.4-1.7-2-2.8-2.8c-0.6-0.4-1.2-1-2.1-0.9c-0.3,0.1-0.5,0.1-0.8,0.1c-1.2,0.2-2.3,0.4-3.5,0.6c-1.6,0.3-3.2,0.5-4.8,0.8
		C461.2,251.8,459.8,251.8,459.3,252.6C459,252.9,459.5,252.2,459.3,252.6z"/>
	<path class="st1" d="M459.3,252.6c-0.2,0.3-0.3,0.8-0.2,1.2l10.1,43c0.2,0.7,0.8,1.2,1.5,1.2h0.1l8.5-0.4c0.7,0,1.2-0.5,1.4-1.1
		l4.3-14.9l4.7,12.2c0.2,0.6,0.8,1,1.5,1l9.3-0.4c0.7,0,1.3-0.5,1.4-1.2l7-34.4c0.2-0.8-0.3-1.6-1.1-1.8l-11.1-3.3
		c-0.4-0.1-0.9-0.1-1.3,0.2c-0.4,0.2-0.6,0.6-0.7,1.1l-2.3,14.5l-4.9-10.6c-0.2-0.5-0.8-0.9-1.4-0.9s-1.1,0.3-1.4,0.9l-6.7,13.3
		l-5-20.8c-0.2-0.8-1-1.3-1.8-1.2l-10.9,1.9C459.9,252,459.5,252.2,459.3,252.6z"/>
	<polygon class="st2" points="460.6,253.4 471.5,251.6 477.4,276.5 486.1,259.4 493.1,274.6 496.2,255.1 507.3,258.4 500.3,292.8 
		491,293.2 484.7,276.7 479.1,296.1 470.6,296.5 	"/>
	<g class="st6">
		<path class="st2" d="M477.4,281.4c1,0.1,2,0.3,3,0.3c0.3,0,1.1,0,1.2,0c0.5,0,1,0,1.6,0l1.4-5l1.9,4.9c2.2-0.2,4.4-0.4,6.6-0.8
			c3.4-0.6,6.7-1.4,10-2.1l4.1-20.2l-11.1-3.3l-3.1,19.6l-7-15.2l-8.7,17.1l-6-24.9l-10.9,1.9l5.9,25.2
			C469.9,280,473.2,280.8,477.4,281.4z"/>
	</g>
	<g>
		<polygon class="st4" points="461.7,255.4 470.8,253.9 477.1,279.2 486.1,262.8 493.5,279.1 496.9,257.5 506.2,260.3 504.6,271.5 
			507.3,258.4 496.2,255.1 493.1,274.6 486.1,259.4 477.4,276.5 471.5,251.6 460.6,253.4 462.8,263.1 		"/>
	</g>
	<path class="st7" d="M471.9,295.1c0.1,0.6,3,0.6,4.6,0.4l2-0.2l2.3-7.3c0.6-1.9,0.1-2.3-0.2-2.4c-0.3-0.1-0.6-0.4-1.3,1.9l-2,6.3
		l-0.9,0.1C475.2,294,471.8,294.5,471.9,295.1z M481.2,283.1c0.3,0,0.9,0.6,0.6,1.5c-0.3,0.8-1,0.5-1.1,0
		C480.4,283.4,480.9,283.1,481.2,283.1z"/>
	<path class="st7" d="M492.4,291.8c0,0.6,3,0.6,4.6,0.5l2.7-0.2l1.2-7c0.3-2-0.2-2.3-0.5-2.3c-0.3-0.1-0.7-0.3-1.1,2.1l-1,5.7
		l-1.5,0.1C495.7,290.8,492.4,291.2,492.4,291.8z M500.7,280.3c0.3,0,1,0.5,0.8,1.3c-0.2,0.9-0.9,0.6-1.1,0.2
		C499.9,280.7,500.4,280.3,500.7,280.3z"/>
</g>
<g>
	<path class="st0" d="M1277.1,301.1c-11.7,10.4-29.2,8-30,13.6c-0.1,0.7,0.6,0.8,6.2,8.5c0.8,1.1,9,11.5,8.3,12
		c-3.2,2.6-6.3,5.3-9.4,7.9c-12.4,10.4-24.8,20.8-37.1,31.1c-4.6,3.9-9.2,7.7-13.8,11.6c-0.9,0.7-1.8,1.5-2.7,2.2
		c-3.4,2.8-2.4,8.1-2.3,12c0.1,2.3-0.5,5,1.4,6.8c0.3,0.3,0.6,0.6,1,0.9c2,1.9,4,3.8,6,5.7c6,5.6,11.9,11.2,17.9,16.9
		c2.9,2.7,8.7,10.4,13,5.7c1.7-1.8,3.3-3.7,5-5.5c3.7-4,18.8-20.7,27.5-30.4c7.5-8.3,19.3-22.9,36.6-48.8
		c-9.4-25.1-20.9-52-27.1-50.5C1277.5,300.9,1277.4,300.8,1277.1,301.1z"/>
	<path class="st1" d="M1252.3,254c-0.2,17.7,4.9,26.8,9.8,31.9c3.7,3.8,9.1,7.2,8.3,10.3c-0.8,2.8-6.3,3.9-10.8,4.3
		c0,0-13.2,4.5-14.2,9.5c-0.1,0.7-0.1,1.4-0.1,1.4c0.1,0.8,0.4,1.5,0.9,2.2l20.7,28.5l-69.1,57.9c-1,0.9-1.6,2.1-1.6,3.4
		c-0.1,1.3,0.5,2.6,1.4,3.5l31.3,29.5c0.9,0.9,2.1,1.3,3.4,1.3c1.2-0.1,2.4-0.6,3.3-1.5c26.4-27.8,52.8-55.5,79.2-83.3
		C1294,319.9,1273.2,286.9,1252.3,254z"/>
	<path class="st2" d="M1232.2,433l-31.3-29.5l72.4-60.7l-23.3-32.1c18.9,13.7,37.8,27.3,56.7,41C1281.8,378.8,1257,405.9,1232.2,433
		z"/>
	<path class="st3" d="M1250.4,362l-49.5,41.5l31.3,29.5c13.3-14.5,26.5-28.9,39.8-43.4c-1.6-4.2-4.4-9.9-9.2-15.9
		C1258.4,368.2,1253.9,364.5,1250.4,362z"/>
	<path class="st4" d="M1200.9,403.5l31.3,29.5c16.3-17.5,24.3-26.4,24-26.7c-0.2-0.2-7.3,6.6-21.1,20.6l-28.6-24.8l68-59.3
		l-20.3-32.1l13-10.8l-17.3,11c0,0,23.6,32.4,23.3,32.1L1200.9,403.5z"/>
	<path class="st0" d="M1236.5,367.3c1.7-1.8,4.2-4.4,7.5-7.4c6.7-6.1,11.9-8.4,10.2-10.5c-2.4-2.9-4.8-5.7-7.1-8.5
		c-9.4-11.2-18.8-22.4-28.2-33.6c-3.5-4.2-7-8.3-10.5-12.5c-0.7-0.8-1.4-1.6-2-2.4c-2.6-3.1-0.6-8,0.3-11.6c0.5-2.2,0.6-4.8,2.7-6.3
		c0.3-0.3,0.7-0.5,1.1-0.8c2.3-1.6,4.5-3.2,6.8-4.7c6.7-4.7,13.4-9.3,20.1-14c3.3-2.3,10.2-8.9,13.3-4c1.2,1.9,2.3,3.8,3.5,5.8
		c6.5,10.6,13,21.2,19.4,31.9c12.2,20.1,24.5,40.2,36.7,60.2c0.2,0.3,0.3,0.5,0.4,0.8C1311.2,350.9,1250,379,1236.5,367.3z"/>
	<path class="st1" d="M1260.6,343.6l-52.5-62.6c-0.7-0.9-1.1-2.2-0.8-3.4c0.2-1.3,1-2.4,2.1-3.2l35.1-24.5c1-0.7,2.3-1,3.4-0.8
		s2.1,0.8,2.7,1.8l59.8,98.2c1,1.6,0.7,3.9-0.7,5.4l-40.6,44.3l0,0c0,0-10.9-10.5-32.7-31.5C1244.6,359.4,1252.6,351.5,1260.6,343.6
		z"/>
	<polygon class="st2" points="1246.8,253.6 1211.7,278 1266.6,343.6 1238.4,371.4 1266,396 1306.6,351.7 	"/>
	<path class="st3" d="M1249.2,322.8l-37.6-44.8l35.1-24.5l31.3,51.4C1267.9,309.8,1258.2,316.1,1249.2,322.8z"/>
	<path class="st4" d="M1211.7,278l35.1-24.5l11,18l-9.5-11.9l-31.7,20.4l51.2,63.8c-20.6,21.3-41.3,42.5-61.9,63.8
		c-1.7-1.4-3.3-2.7-5-4.1c43.9-39.9,65.8-59.9,65.7-59.9l0,0L1211.7,278z"/>
	<path class="st3" d="M1277.2,379.6c-1.3-1.1,7.5-12.2,12.6-17.9l9.2-10.5l-11.4-18c-4.6-7.3-3.6-9.1-2.9-9.7s1.4-1.8,6.9,7
		l13.2,20.8l-11.8,13.4C1289.4,368.8,1278.5,380.7,1277.2,379.6z M1279.2,314.1c-0.8,0.3-1.9,3,0.2,6.1c2.1,3.2,3.7,1.4,3.4-0.4
		C1282.1,314.7,1280,313.8,1279.2,314.1z"/>
</g>
<g>
	<path class="st0" d="M559,306.1c11.7,10.4,29.2,8,30,13.6c0.1,0.7-0.6,0.8-6.2,8.5c-0.8,1.1-9,11.5-8.3,12c3.2,2.6,6.3,5.3,9.4,7.9
		c12.4,10.4,24.8,20.8,37.1,31.1c4.6,3.9,9.2,7.7,13.8,11.6c0.9,0.7,1.8,1.5,2.7,2.2c3.4,2.8,2.4,8.1,2.3,12c-0.1,2.3,0.5,5-1.4,6.8
		c-0.3,0.3-0.6,0.6-1,0.9c-2,1.9-4,3.8-6,5.7c-6,5.6-11.9,11.2-17.9,16.9c-2.9,2.7-8.7,10.4-13,5.7c-1.7-1.8-3.3-3.7-5-5.5
		c-3.7-4-18.8-20.7-27.5-30.4c-7.5-8.3-19.3-22.9-36.6-48.8c9.4-25.1,20.9-52,27.1-50.5C558.6,305.9,558.7,305.8,559,306.1z"/>
	<path class="st1" d="M583.7,259c0.2,17.7-4.9,26.8-9.8,31.9c-3.7,3.8-9.1,7.2-8.3,10.3c0.8,2.8,6.3,3.9,10.8,4.3
		c0,0,13.2,4.5,14.2,9.5c0.1,0.7,0.1,1.4,0.1,1.4c-0.1,0.8-0.4,1.5-0.9,2.2l-20.7,28.5l69.1,57.9c1,0.9,1.6,2.1,1.6,3.4
		c0.1,1.3-0.5,2.6-1.4,3.5l-31.3,29.5c-0.9,0.9-2.1,1.3-3.4,1.3c-1.2-0.1-2.4-0.6-3.3-1.5c-26.4-27.8-52.8-55.5-79.2-83.3
		C542.1,324.9,562.9,291.9,583.7,259z"/>
	<path class="st2" d="M603.9,438l31.3-29.5l-72.4-60.7l23.3-32.1c-18.9,13.7-37.8,27.3-56.7,41C554.3,383.8,579.1,410.9,603.9,438z"
		/>
	<path class="st3" d="M585.7,367l49.5,41.5L603.9,438c-13.3-14.5-26.5-28.9-39.8-43.4c1.6-4.2,4.4-9.9,9.2-15.9
		C577.7,373.2,582.2,369.5,585.7,367z"/>
	<path class="st4" d="M635.2,408.5L603.9,438c-16.3-17.5-24.3-26.4-24-26.7c0.2-0.2,7.3,6.6,21.1,20.6l28.6-24.8l-68-59.3l20.3-32.1
		l-13-10.8l17.3,11c0,0-23.6,32.4-23.3,32.1L635.2,408.5z"/>
	<path class="st0" d="M599.5,372.3c-1.7-1.8-4.2-4.4-7.5-7.4c-6.7-6.1-11.9-8.4-10.2-10.5c2.4-2.9,4.8-5.7,7.1-8.5
		c9.4-11.2,18.8-22.4,28.2-33.6c3.5-4.2,7-8.3,10.5-12.5c0.7-0.8,1.4-1.6,2-2.4c2.6-3.1,0.6-8-0.3-11.6c-0.5-2.2-0.6-4.8-2.7-6.3
		c-0.3-0.3-0.7-0.5-1.1-0.8c-2.3-1.6-4.5-3.2-6.8-4.7c-6.7-4.7-13.4-9.3-20.1-14c-3.3-2.3-10.2-8.9-13.3-4c-1.2,1.9-2.3,3.8-3.5,5.8
		c-6.5,10.6-13,21.2-19.4,31.9c-12.2,20.1-24.5,40.2-36.7,60.2c-0.2,0.3-0.3,0.5-0.4,0.8C524.8,355.9,586.1,384,599.5,372.3z"/>
	<path class="st1" d="M575.5,348.6L628,286c0.7-0.9,1.1-2.2,0.8-3.4c-0.2-1.3-1-2.4-2.1-3.2l-35.1-24.5c-1-0.7-2.3-1-3.4-0.8
		c-1.1,0.2-2.1,0.8-2.7,1.8l-59.8,98.2c-1,1.6-0.7,3.9,0.7,5.4l40.6,44.3l0,0c0,0,10.9-10.5,32.7-31.5
		C591.5,364.4,583.5,356.5,575.5,348.6z"/>
	<polygon class="st2" points="589.3,258.6 624.4,283 569.4,348.6 597.7,376.4 570,401 529.4,356.7 	"/>
	<path class="st3" d="M586.8,327.8l37.6-44.8l-35.1-24.5L558,309.9C568.2,314.8,577.9,321.1,586.8,327.8z"/>
	<path class="st4" d="M624.4,283l-35.1-24.5l-11,18l9.5-11.9l31.7,20.4l-51.2,63.8c20.6,21.3,41.3,42.5,61.9,63.8
		c1.7-1.4,3.3-2.7,5-4.1c-43.9-39.9-65.8-59.9-65.7-59.9l0,0L624.4,283z"/>
	<path class="st3" d="M558.9,384.6c1.3-1.1-7.5-12.2-12.6-17.9l-9.2-10.5l11.4-18c4.6-7.3,3.6-9.1,2.9-9.7s-1.4-1.8-6.9,7
		l-13.2,20.8l11.7,13.4C546.7,373.8,557.6,385.7,558.9,384.6z M556.9,319.1c0.8,0.3,1.9,3-0.2,6.1c-2.1,3.2-3.7,1.4-3.4-0.4
		C553.9,319.7,556.1,318.8,556.9,319.1z"/>
</g>
<path class="st0" d="M1154.8,550.5c-156.9,0.4-313.7,0.9-470.6,1.3c-1.4-0.2-3.1-0.6-5.2-1.3c-0.8-0.2-5.3-1.7-9.7-4.7
	c-10.3-6.9-14.1-17.9-14.3-18.6c-2.1-6.8-1.7-12.5-1.5-15.2c0.4-3.8,0.9-3.7,2-9.8c2-10.9,0.6-13.4,3-16.7c1.7-2.4,5.3-5,13.5-5.4
	c287.1,12,409.6,9.4,445,0.1c5.4-1.4,30.9-8.8,43.3,3.3c6.5,6.4,7.9,19.2,10.5,44.7c0.2,1.6,0.5,5.6-0.9,10.3
	c-0.6,1.8-1.7,5.4-4.7,8.1C1165.4,546.5,1161.6,550.4,1154.8,550.5z"/>
<path class="st1" d="M1151.4,534.9c-160.5,0.6-321.1,1.2-481.6,1.8c-2.8-0.6-11.4,1.9-13-1.3c-1.1-2.3-1.7-5.7-2.8-12.6
	c-1.1-6.5-1.3-9.9-3-27.5c-1.3-14.1-1.7-17.1-1.2-20.4c0.9-5.6,3.4-6.4,4.4-6.5c162.7,0,325.5,0,488.2,0c0.7-0.1,1.8,0,3.1,1.1
	c0.9,0.8,2.3,2,3.4,5.5c1,3.1,1.4,6.7,1.7,9.9c0.8,7.2,1.8,13.6,3.7,26.4c2,12.9,3.4,18.4,2.8,20.9
	C1157,533.7,1152,534.4,1151.4,534.9z"/>
<path class="st4" d="M658.5,524.6c164.7,0,329.3,0,494,0c-2.5-15.4-5-30.9-7.5-46.3c-163.9,0-327.8,0-491.6,0
	C655.1,493.7,656.8,509.1,658.5,524.6z"/>
<path class="st2" d="M662.7,518.8c163.3,1.9,326.6,3.8,489.9,5.8c-2.5-15.4-5-30.9-7.5-46.3c-162.5,1.1-325,2.2-487.5,3.3
	C659.3,494,661,506.4,662.7,518.8z"/>
<path class="st3" d="M659.4,519.9c68.2,1.6,136.5,3.1,204.7,4.7c3.7-14.3,6-19.2,7.5-20.9c0.4-0.5,9.6-19.6,10.6-23.7
	c-75,0.9-150,1.7-225,2.6C658,495.1,658.7,507.5,659.4,519.9z"/>
<path class="st8" d="M901.8,515.7c0,1.4,2.5,2.2,4.7,2.7c81.2,0.7,162.4,1.4,243.6,2c-2.4-11.7-4.9-23.5-7.3-35.2
	c-0.2,8.6-0.3,17.1-0.5,25.7c-146.5,2.2-226.2-1.4-232.6-0.2C906,511.5,901.8,513.9,901.8,515.7z"/>
<path class="st8" d="M889.2,510.7c0-0.3,0.1-0.6,0.2-1c1.3-4.8,6.5-4.3,9.1,0.4c4,7.1-4.6,9.5-7.3,7.5
	C889.3,516.3,888.7,513.4,889.2,510.7z"/>
<g>
	<path class="st0" d="M1395.3,308.4c-0.6,0.6-0.5,1.6-0.5,2.4c0,1.3,0.1,2.6,0.1,3.9c0,2.3,0.1,4.7,0.1,7c0,0.6,0.3,1,0.6,1.5
		c0.7,0.9,1.3,2.3,2.2,3c1,0.8,2.8,0.5,3.9,0.5c0.7,0,0.6,0,0.6,0.7c0,1,0.1,1.9,0.1,2.9c0.2,4.9,0.4,9.9,0.6,14.8
		c0,0.4-1.3,0.3-1.6,0.3c-1.1,0.1-2.3,0.1-3.4,0.2c-1.4,0.1-1.6,1.4-1.5,2.5c0.1,1.2,0.3,2.3,0.4,3.5c0.3,2.4,0.5,4.8,0.8,7.2
		c0.1,0.6,0.3,1,0.7,1.4c0.3,0.5,0.7,1,1,1.5s0.7,1.1,1.2,1.5c0.8,0.6,1.6,0.5,2.5,0.4c5.2-0.7,10.3-1.4,15.5-2.1
		c1.2-0.2,2.9-0.1,4-0.7c1.9-0.9,1.3-4.1,1.2-5.8c0-2.1-0.1-4.2-0.1-6.3c0-1.8-1.7-2.1-2.8-3.1c-0.5-0.5-1.5-1.2-2.2-1.2
		c-0.4,0-0.9,0-1.3,0.1c0.2-4.5,0.3-9.1,0.5-13.6c0-1.1,0.1-2.1,0.1-3.2c0-0.3-0.1-1,0.2-1c1.2,0,2.4,0,3.6,0c1.6,0,2.4-1.3,2.4-2.7
		c0-2.4-0.1-4.7-0.1-7.1c0-1.3-0.1-2.6-0.1-3.9c0-0.8,0.1-1.7-0.4-2.5c-0.3-0.4-3.4-2.8-4.3-2.9c-0.4-0.1-0.9,0-1.3,0
		c-2.3,0-4.6,0-7,0.1c-3.3,0-6.7,0.1-10,0.1c-1.2,0-2.3,0-3.5,0C1396.7,307.9,1395.8,307.8,1395.3,308.4
		C1395,308.7,1395.6,308.1,1395.3,308.4z"/>
	<path class="st1" d="M1395.3,308.4c-0.3,0.3-0.5,0.7-0.5,1.2l0.2,12.3c0,0.9,0.7,1.6,1.6,1.6h5.6l0.9,21.9l-5.1,0.3
		c-0.5,0-0.9,0.2-1.2,0.6c-0.3,0.3-0.4,0.8-0.4,1.3l1.3,11.6c0.1,0.4,0.3,0.8,0.6,1.1c0.3,0.2,0.6,0.3,1,0.3c0.1,0,0.1,0,0.2,0
		l19.5-2.6c0.8-0.1,1.4-0.8,1.4-1.7l-0.2-10.1c0-0.4-0.2-0.9-0.5-1.2c-0.3-0.3-0.8-0.5-1.2-0.4l-4.7,0.3l0.7-21.3h4.5l0,0
		c0.9,0,1.6-0.7,1.6-1.6c0-0.1,0-0.2,0-0.2l-0.2-12.3c0-0.9-0.7-1.6-1.7-1.6l-22.6,0.2C1396,307.9,1395.6,308.1,1395.3,308.4z"/>
	<polygon class="st2" points="1412.3,346.5 1413.1,321.8 1419.2,321.8 1419,309.4 1396.4,309.6 1396.7,321.8 1403.8,321.8 
		1404.9,346.9 1398.2,347.3 1399.5,358.9 1419,356.2 1418.8,346.2 	"/>
	<g class="st6">
		<path class="st2" d="M1403.8,321.8l0.4,9.8c2.8,0.2,5.7,0.4,8.5,0.6l0.4-10.5h6.1l-0.2-12.5l-22.6,0.2l0.2,12.3h7.2V321.8z"/>
	</g>
	<g>
		<polygon class="st4" points="1397.4,311.2 1418.7,311 1419.1,315.6 1419,309.4 1396.4,309.6 1396.6,318 		"/>
	</g>
	<polygon class="st4" points="1404.8,345.1 1405.2,347.7 1399,348.4 1399.2,355.9 1398.2,347.3 1404.8,346.8 	"/>
	<polygon class="st4" points="1412.3,345.1 1412.2,347.1 1418.5,346.9 1419,355.6 1418.8,346.2 1412.4,346.4 	"/>
	<path class="st7" d="M1400.3,357.3c0.1,0.6,3.9,0.3,5.9,0s8.3-1.3,10.7-1.7c0.5-0.1,1-0.2,1.4-0.2c0-0.5,0-0.9,0-1.2
		c0-0.2,0-0.3,0-0.3c0-0.1,0-0.2-0.1-0.2c-0.1-0.3-0.1-0.5-0.2-0.6c-0.2-0.3-0.4-0.4-0.5-0.4s-0.3-0.1-0.5,0.2
		c-0.1,0.1-0.1,0.3-0.2,0.6c0,0.2-0.1,0.3-0.1,0.5l0,0l0,0c-3,0.5-8.1,1.3-10.8,1.7C1404.4,355.8,1400.1,356.6,1400.3,357.3z
		 M1417.3,349.3c0.3-0.1,1.1,0.4,1.1,1.5c-0.1,1.1-0.9,0.9-1.1,0.4C1416.5,350,1417,349.4,1417.3,349.3z"/>
</g>
<g>
	<path class="st0" d="M1541.1,352.4c0.1,0.9,1.1,2,1.6,2.7c0.7,1,1.3,2,2.7,1.9c0.6-0.1,1.2-0.3,1.7-0.4c2.6-0.6,5.2-1.2,7.8-1.8
		c1.7-0.4,4.9-0.5,5.1-2.8c0.1-1-0.3-2.2-0.4-3.2c-1.4-8.9-2.8-17.7-4.1-26.6c0,0,0,0,0-0.1c4.2,0.2,8.4,0.4,12.6,0.7
		c0.9,0,1.7-0.1,2.3-0.9c0.5-0.7,0.4-1.6,0.3-2.5c-0.2-2.6-0.3-5.1-0.5-7.7c-0.1-1.1-0.1-2.3-0.2-3.4c-0.1-1-0.1-1.9-1-2.5
		s-1.9-1.3-2.8-1.9c-0.3-0.2-0.7-0.3-1.1-0.3s-0.7,0-1.1,0.1c-4.2,0.2-8.5,0.5-12.7,0.7c-5.6,0.3-11.1,0.6-16.7,0.9
		c-2,0.1-3.9,0.2-5.9,0.3c-0.8,0-2.1-0.1-2.8,0.4c-0.9,0.6-0.7,1.6-0.6,2.5c0.2,1.2,0.4,2.3,0.5,3.4c0.4,2.5,0.7,4.9,1.1,7.4
		c0.2,1.2,1,2.1,1.7,3.1c0.6,0.9,1.2,1.9,2.5,1.9c0.3,0,0.6-0.1,0.9-0.1c2.4-0.4,4.8-0.8,7.2-1.2c0.1,0,0.2,0,0.4-0.1
		c0.5,8.7,0.9,17.4,1.4,26.1C1541,350.1,1541,351.2,1541.1,352.4z"/>
	<path class="st1" d="M1541.1,352.4c0,0.5,0.3,0.9,0.6,1.2c0.3,0.2,0.6,0.3,0.9,0.3c0.1,0,0.2,0,0.3,0l12.7-2.9
		c0.8-0.2,1.3-1,1.2-1.8l-4.7-30.2l13.7,0.7h0.1l0,0c0.9,0,1.6-0.7,1.6-1.6c0-0.1,0-0.2,0-0.3l-0.8-12.7c-0.1-0.9-0.8-1.5-1.6-1.5
		l-38.5,2.1c-0.4,0-0.8,0.2-1.1,0.6c-0.3,0.3-0.4,0.8-0.3,1.2l1.9,12.3c0.1,0.4,0.3,0.8,0.6,1c0.3,0.2,0.8,0.3,1.2,0.3l10.6-1.8
		L1541.1,352.4z"/>
	<polygon class="st2" points="1526.6,307.3 1528.5,319.6 1540.8,317.5 1542.7,352.3 1555.4,349.4 1550.4,317.3 1566,318.1 
		1565.2,305.2 	"/>
	<path class="st3" d="M1540.8,317.5l0.6,10.5c3.6,0.1,7.1-0.1,10.6-0.5l-1.6-10.2l15.6,0.8l-0.8-12.9l-38.5,2.1l1.9,12.3
		L1540.8,317.5z"/>
	<polygon class="st4" points="1565.2,305.2 1526.6,307.3 1527.5,313.1 1527.7,309.4 1564.3,307.4 1565.8,315.7 	"/>
	<path class="st8" d="M1553.5,348.9c-0.1-0.6-5-0.2-7.7,0.1l-1.1,0.1l-0.7-11.4c-0.2-3.3-0.9-3.6-1.2-3.6c-0.3,0-0.7-0.2-0.4,3.8
		l1,13.2l2.8-0.4C1548,350.4,1553.6,349.5,1553.5,348.9z M1542.3,329.9c0.3-0.1,1.1,0.5,1.2,1.9c0.1,1.5-0.7,1.3-1,0.7
		C1541.7,330.8,1542,330,1542.3,329.9z"/>
</g>
<g>
	<path class="st1" d="M1507.5,320.6c-0.7,0-1.2,0.7-1.2,1.4c0,2.1-0.1,4.3-0.1,6.4c-5.7,0.2-11.3,0.4-17,0.5c0-1.8-0.1-3.6-0.1-5.4
		c0-0.4-0.2-0.7-0.5-1c-0.3-0.2-0.6-0.4-1-0.3c-2.1,0.3-4.1,0.6-6.2,0.9c-0.1,2.6-0.1,5.6,0.3,9c0.4,4.2,1.2,7.8,2,10.7
		c1.7-0.1,3.5-0.1,5.2-0.2c0.3,0,0.7-0.2,0.9-0.5c0.2-0.3,0.1-5.1,0.1-5.1l16.6,0.3l0.1,3.9l0,0c0,0.8,0.6,1.4,1.3,1.4
		c0.1,0,0.1,0,0.2,0L1507.5,320.6z"/>
	<g>
		<polygon class="st4" points="1515.8,322.5 1516.2,340.7 1512.6,341.1 1517.5,340.9 1517.1,321.6 1510.5,321.9 		"/>
	</g>
	<path class="st7" d="M1480,325.6c-0.5,0.1-0.2,3.3,0.1,5c0.3,1.7,1.1,7,1.5,9.2c0.1,0.4,0.1,0.9,0.2,1.2c0.4,0,0.7,0,1,0
		c0.2,0,0.2,0,0.3,0c0.1,0,0.1,0,0.2,0c0.2-0.1,0.4-0.1,0.5-0.2c0.2-0.2,0.3-0.3,0.3-0.5c0-0.1,0-0.3-0.1-0.4s-0.2-0.1-0.5-0.2
		c-0.1,0-0.3,0-0.4-0.1l0,0l0,0c-0.4-2.5-1.1-6.9-1.5-9.2C1481.2,329.1,1480.5,325.5,1480,325.6z M1486.4,340.1c0,0.3-0.3,1-1.2,0.9
		c-0.9,0-0.7-0.7-0.4-1C1485.9,339.4,1486.3,339.8,1486.4,340.1z"/>
	<path class="st0" d="M1472.4,306.9c-0.4,0.4-0.4,1.1-0.4,2.2c0,1.2,0,2.4,0.1,3.5c0,2.1,0.1,4.3,0.1,6.4c0,0.6,0.2,1,0.5,1.4
		c0.5,0.9,1,2.1,1.7,2.7c0.8,0.7,2.1,0.5,3.1,0.5c0.5,0,0.4,0,0.5,0.7c0,0.9,0.1,1.8,0.1,2.6c0.2,4.5,0.3,9,0.5,13.4
		c0,0.4-1,0.2-1.3,0.3c-0.9,0.1-1.8,0.1-2.7,0.2c-1.1,0.1-1.2,1.3-1.1,2.3c0.1,1.1,0.2,2.1,0.3,3.2c0.2,2.2,0.4,4.4,0.6,6.6
		c0.1,0.5,0.3,0.9,0.5,1.3c0.3,0.5,0.5,0.9,0.8,1.4s0.5,1,0.9,1.4c0.6,0.5,1.3,0.4,1.9,0.3c4-0.6,8-1.3,12-1.9
		c0.9-0.2,2.2-0.1,3.1-0.6c1.5-0.8,1-3.7,0.9-5.3c0-1.9-0.1-3.8-0.1-5.8c0-1.2-0.8-1.2-2.2-2.9c-1.2-1.5-2-2.8-2.4-3.7
		c5.5,0.1,11,0.2,16.6,0.3c0.4-0.1,0.8-0.2,1.2-0.4c-6-2.1-11.9-4.1-17.9-6.2c0-0.8,0.2-2.1,0.2-3.4c0-0.2,0.1-1.1,0.1-2.9
		c0-0.2-0.1-0.9,0.2-0.9c0.9,0,1.9,0,2.8,0c1.3,0,1.9-1.1,1.9-2.5c0-2.2-0.1-4.3-0.1-6.5c0-1.2,0-2.4-0.1-3.5c0-0.8,0.1-1.6-0.3-2.2
		c-0.2-0.3-2.7-2.6-3.3-2.7c-0.3-0.1-0.7,0-1,0c-1.8,0-3.6,0-5.4,0.1c-2.6,0-5.2,0.1-7.8,0.1c-0.5,0-1.2,0-2.7,0
		C1473.1,306.5,1472.7,306.6,1472.4,306.9z"/>
	<path class="st1" d="M1472.4,306.9c-0.2,0.3-0.4,0.7-0.4,1.1l0.2,11.2c0,0.8,0.6,1.5,1.3,1.5h4.3l0.7,19.9l-4,0.2
		c-0.4,0-0.7,0.2-0.9,0.5c-0.2,0.3-0.3,0.7-0.3,1.1l1,10.6c0,0.4,0.2,0.8,0.5,1c0.2,0.2,0.5,0.3,0.8,0.3c0.1,0,0.1,0,0.2,0l15.2-2.4
		c0.6-0.1,1.1-0.8,1.1-1.5l-0.2-9.2c0-0.4-0.2-0.8-0.4-1.1c-0.3-0.3-0.6-0.4-0.9-0.4l-3.7,0.2l0.6-19.4h3.5l0,0
		c0.7,0,1.3-0.7,1.3-1.5c0-0.1,0-0.1,0-0.2l-0.2-11.2c0-0.8-0.6-1.5-1.3-1.5l-17.6,0.2C1472.9,306.5,1472.6,306.6,1472.4,306.9z"/>
	<polygon class="st2" points="1485.6,341.6 1486.3,319.1 1491,319.1 1490.8,307.8 1473.3,308 1473.5,319.1 1479,319.1 1479.9,342 
		1474.6,342.3 1475.7,352.9 1490.8,350.5 1490.7,341.3 	"/>
	<g class="st6">
		<path class="st2" d="M1479,319.1l0.3,9c2.2,0.1,4.4,0.3,6.6,0.6l0.3-9.6h4.7l-0.2-11.4l-17.6,0.2l0.2,11.2L1479,319.1L1479,319.1z
			"/>
	</g>
	<g>
		<polygon class="st4" points="1474.1,309.5 1490.6,309.3 1490.9,313.5 1490.8,307.8 1473.3,308 1473.4,315.6 		"/>
	</g>
	<polygon class="st4" points="1479.8,340.3 1480.1,342.7 1475.3,343.3 1475.4,350.2 1474.6,342.3 1479.8,341.9 	"/>
	<polygon class="st4" points="1485.6,340.3 1485.5,342.1 1490.4,342 1490.8,349.9 1490.7,341.3 1485.7,341.5 	"/>
	<path class="st7" d="M1476.3,351.4c0.1,0.6,3,0.3,4.6,0s6.4-1.2,8.4-1.6c0.4-0.1,0.8-0.2,1.1-0.2c0-0.4,0-0.8,0-1.1
		c0-0.2,0-0.2,0-0.3c0-0.1,0-0.1,0-0.2c0-0.3-0.1-0.4-0.2-0.6c-0.1-0.3-0.3-0.3-0.4-0.3s-0.2-0.1-0.4,0.2c-0.1,0.1-0.1,0.3-0.2,0.6
		c0,0.1,0,0.3-0.1,0.5l0,0l0,0c-2.3,0.4-6.3,1.2-8.4,1.6C1479.5,350.1,1476.2,350.8,1476.3,351.4z M1489.5,344.2
		c0.2-0.1,0.9,0.4,0.8,1.4c0,1-0.7,0.8-0.9,0.4C1488.9,344.7,1489.3,344.2,1489.5,344.2z"/>
	<path class="st0" d="M1500.4,306.9c-0.5,0.6-0.4,1.5-0.4,2.2c0,1.2,0,2.4,0.1,3.5c0,2.1,0.1,4.3,0.1,6.4c0,0.6,0.2,1,0.5,1.4
		c0.5,0.9,1,2.1,1.7,2.7c0.8,0.7,2.1,0.5,3.1,0.5c0.5,0,0.4,0,0.5,0.7c0,0.9,0.1,1.8,0.1,2.6c0.2,4.5,0.3,9,0.5,13.4
		c0,0.4-1,0.2-1.3,0.3c-0.9,0.1-1.8,0.1-2.7,0.2c-1.1,0.1-1.2,1.3-1.1,2.3c0.1,1.1,0.2,2.1,0.3,3.2c0.2,2.2,0.4,4.4,0.6,6.6
		c0.1,0.5,0.3,0.9,0.5,1.3c0.3,0.5,0.5,0.9,0.8,1.4s0.5,1,0.9,1.4c0.6,0.5,1.3,0.4,1.9,0.3c4-0.6,8-1.3,12-1.9
		c0.9-0.2,2.2-0.1,3.1-0.6c1.5-0.8,1-3.7,0.9-5.3c0-1.9-0.1-3.8-0.1-5.8c0-1.6-1.3-1.9-2.2-2.9c-0.4-0.5-1.1-1.1-1.7-1
		c-0.3,0-0.7,0-1,0.1c0.1-4.1,0.2-8.3,0.4-12.4c0-1,0.1-1.9,0.1-2.9c0-0.2-0.1-0.9,0.2-0.9c0.9,0,1.9,0,2.8,0c1.3,0,1.9-1.1,1.9-2.5
		c0-2.2-0.1-4.3-0.1-6.5c0-1.2,0-2.4-0.1-3.5c0-0.8,0.1-1.6-0.3-2.2c-0.2-0.3-2.7-2.6-3.3-2.7c-0.3-0.1-0.7,0-1,0
		c-1.8,0-3.6,0-5.4,0.1c-2.6,0-5.2,0.1-7.8,0.1c-0.9,0-1.8,0-2.7,0C1501.5,306.5,1500.8,306.4,1500.4,306.9
		C1500.2,307.2,1500.6,306.6,1500.4,306.9z"/>
	<path class="st1" d="M1500.4,306.9c-0.2,0.3-0.4,0.7-0.4,1.1l0.2,11.2c0,0.8,0.6,1.5,1.3,1.5h4.3c0.1,3.1,0.2,6.3,0.3,9.4
		c-0.2,2.1-0.4,4.2-0.6,6.4c0.7,0.4,1.4,0.8,2.2,1.3c-0.4-0.1-0.9-0.1-1.3-0.2c0,1,0.1,2.1,0.1,3.1c-1.3,0.1-2.6,0.2-4,0.2
		c-0.4,0-0.7,0.2-0.9,0.5c-0.2,0.3-0.3,0.7-0.3,1.1l1,10.6c0,0.4,0.2,0.8,0.5,1c0.2,0.2,0.5,0.3,0.8,0.3c0.1,0,0.1,0,0.2,0l15.2-2.4
		c0.6-0.1,1.1-0.8,1.1-1.5l-0.2-9.2c0-0.4-0.2-0.8-0.4-1.1c-0.3-0.3-0.6-0.4-0.9-0.4l-3.7,0.2l0.6-19.4h3.5l0,0
		c0.7,0,1.3-0.7,1.3-1.5c0-0.1,0-0.1,0-0.2l-0.2-11.2c0-0.8-0.6-1.5-1.3-1.5l-17.6,0.2C1501,306.5,1500.6,306.6,1500.4,306.9z"/>
	<polygon class="st2" points="1513.6,341.6 1514.3,319.1 1519,319.1 1518.9,307.8 1501.3,308 1501.5,319.1 1507.1,319.1 1507.9,342 
		1502.7,342.3 1503.7,352.9 1518.9,350.5 1518.7,341.3 	"/>
	<g class="st6">
		<path class="st2" d="M1507.1,319.1l0.3,9c2.2,0.1,4.4,0.3,6.6,0.6l0.3-9.6h4.7l-0.2-11.4l-17.6,0.2l0.2,11.2L1507.1,319.1
			L1507.1,319.1z"/>
	</g>
	<g>
		<polygon class="st4" points="1502.1,309.5 1518.6,309.3 1519,313.5 1518.9,307.8 1501.3,308 1501.4,315.6 		"/>
	</g>
	<polygon class="st4" points="1507.8,340.3 1508.1,342.7 1503.3,343.3 1503.4,350.2 1502.7,342.3 1507.9,341.9 	"/>
	<polygon class="st4" points="1513.7,340.3 1513.5,342.1 1518.4,342 1518.9,349.9 1518.7,341.3 1513.7,341.5 	"/>
	<path class="st7" d="M1504.3,351.4c0.1,0.6,3,0.3,4.6,0s6.4-1.2,8.4-1.6c0.4-0.1,0.8-0.2,1.1-0.2c0-0.4,0-0.8,0-1.1
		c0-0.2,0-0.2,0-0.3c0-0.1,0-0.1,0-0.2c0-0.3-0.1-0.4-0.2-0.6c-0.1-0.3-0.3-0.3-0.4-0.3s-0.2-0.1-0.4,0.2c-0.1,0.1-0.1,0.3-0.2,0.6
		c0,0.1,0,0.3-0.1,0.5l0,0l0,0c-2.3,0.4-6.3,1.2-8.4,1.6C1507.5,350.1,1504.2,350.8,1504.3,351.4z M1517.6,344.2
		c0.2-0.1,0.9,0.4,0.8,1.4c0,1-0.7,0.8-0.9,0.4C1517,344.7,1517.3,344.2,1517.6,344.2z"/>
	<path class="st2" d="M1486.3,335.7c7.1,0.1,14.3,0.3,21.4,0.4c0,1.7,0,3.5,0.1,5.2c1.9,0.1,3.9,0.2,5.8,0.3
		c0.2-6.6,0.3-13.3,0.5-19.9c0,2.3-0.1,4.7-0.1,7c-2.1-0.2-4.3-0.4-6.4-0.6c-0.1,0.6-0.2,1.3-0.3,1.9c-7.1,0-14.3,0.1-21.4,0.1
		c0.1-0.5,0.1-0.9,0.2-1.4c-2.2-0.7-4.4-1.4-6.6-2.1c0,1.7,0,3.5,0,5.2c0.2,2.9,0.3,5.7,0.5,8.6c1.9,0.4,3.9,0.8,5.8,1.3
		C1485.8,339.6,1486.1,337.7,1486.3,335.7z"/>
</g>
<g>
	<path class="st0" d="M1348.1,309.3c0.3,8.3,0.7,16.6,1,24.9c0.2,5.5,0.5,10.9,0.7,16.4c0.1,1.6,0.1,3.3,0.2,4.9c0,0.4,0,0.7,0,1.1
		v0.1c0,0.6,0.3,1,0.6,1.4c0.4,0.5,0.8,1.2,1.2,1.7c0.6,1.3,1.6,1.8,2.9,1.8c1.1,0,2.2-0.1,3.3-0.1c2.6-0.1,5.3-0.2,8-0.3
		c1.2-0.1,2.4-0.3,2.8-1.6c0.3-0.8,0-1.9-0.2-2.7c-0.4-2.6-0.8-5.1-1.2-7.7c0-0.1,0-0.2,0-0.3c3.5,2.7,7.1,5.4,10.6,8.1
		c0.9,0.7,2,1.1,3.1,0.4c0.6-0.4,1-1.1,1.5-1.6c1.8-2.1,3.5-4.3,5.3-6.4c0.7-0.9,1.9-1.9,2.3-3c0.2-0.7,0.1-1.3-0.2-1.9
		c-0.2-0.4-0.6-1.4-1.1-1.6c-0.7-0.3-1.5-0.7-2.2-1c-2.6-1.2-5.2-2.5-7.8-3.7c4-2.2,6.8-5.9,7.8-10.4c1-4.4,0-9.2-2.9-12.7
		c-1.6-1.9-3.6-3.2-5.6-4.6c-2.1-1.5-4.3-2.7-6.8-3.5c-5.1-1.7-10.5-1.7-15.7-0.7c-1.6,0.3-3.3,0.7-4.9,1.2
		C1349.7,307.4,1348.1,307.8,1348.1,309.3z M1365.1,325.2c0.4,0.1,0.8,0.2,1.2,0.3c-0.3,0.3-0.8,0.4-1.1,0.5
		C1365.1,325.7,1365.1,325.5,1365.1,325.2z"/>
	<path class="st1" d="M1348.1,309.3l2,47.3c0,0.9,0.8,1.6,1.6,1.6c0,0,0,0,0.1,0l12.5-0.4c0.5,0,0.9-0.2,1.2-0.6
		c0.3-0.4,0.4-0.8,0.4-1.3l-1.8-11.3l12.3,9.3c0.7,0.5,1.7,0.4,2.2-0.3l8.1-9.8c0.3-0.4,0.5-0.9,0.3-1.4c-0.1-0.5-0.5-0.9-0.9-1.1
		l-12-5.7c1.2-0.5,2.3-1.1,3.3-1.8c5.7-3.8,8-11.8,5.3-18c-2.7-6.1-10.4-9.6-16.7-10.3c-1.9-0.2-4.1-0.2-6.5,0
		c-1.5,0.1-2.9,0.4-4.4,0.6c-3.2,0.6-4.9,1.2-5.9,1.7C1348.5,307.9,1348.1,308.6,1348.1,309.3z M1366.5,325.1
		c-0.1,0.4-0.3,0.9-1.8,0.9c-0.8,0-1.8-0.2-2.8-0.4l-0.2-3.8c1.6,0.1,3.6,0.9,4.4,1.9C1366.5,324.2,1366.6,324.6,1366.5,325.1z"/>
	<path class="st2" d="M1385.5,342.7l-15.8-7.5c2.4-0.6,4.7-1.5,6.8-2.9c5.2-3.5,7.1-10.6,4.7-16c-2.5-5.6-9.6-8.7-15.4-9.4
		c-1.9-0.2-4.1-0.2-6.2,0c-1.4,0.1-2.9,0.3-4.2,0.6c-2.9,0.5-4.5,1.1-5.6,1.6l0.1,2.4l1.9,45l12.5-0.4l-2.4-15.3l15.6,11.8
		L1385.5,342.7z M1360.7,320.2c2.9-0.3,8.4,1.6,7.4,5.3c-0.8,3.1-4.6,2.1-7.7,1.5l-0.3-6.7C1360.3,320.2,1360.5,320.2,1360.7,320.2z
		"/>
	<g class="st5">
		<path class="st2" d="M1350.6,329.9c4.9,1.8,10,3.5,15.2,3.6c3.5,0,7.1-0.4,10.6-1c0.1,0,0.1-0.1,0.2-0.1c5.2-3.5,7.1-10.6,4.7-16
			c-2.5-5.6-9.6-8.7-15.4-9.4c-1.9-0.2-4.1-0.2-6.2,0c-1.4,0.1-2.9,0.3-4.2,0.6c-2.9,0.5-4.5,1.1-5.6,1.6l0.1,2.4L1350.6,329.9z
			 M1360.7,320.2c2.9-0.3,8.4,1.6,7.4,5.3c-0.8,3.1-4.6,2.1-7.7,1.5l-0.3-6.7C1360.3,320.2,1360.5,320.2,1360.7,320.2z"/>
	</g>
	<path class="st4" d="M1367.2,322.4c0.8,0.8,1.2,1.8,0.8,3.1c-0.8,3.1-4.6,2.1-7.7,1.5l-0.2-6.4h-0.1l0.1,7.2l1.1,0.2
		c1.4,0.3,2.9,0.6,4.3,0.6c2.9,0,3.3-0.9,3.6-2.2c0.3-1.3,0.1-1.9-0.7-2.9C1368,323.1,1367.6,322.8,1367.2,322.4z"/>
	<path class="st4" d="M1350.8,311.1c1-0.3,2.4-0.8,4.8-1.2c1.3-0.3,2.7-0.5,4.1-0.6c1.1-0.1,2.2-0.1,3.3-0.1c1,0,1.9,0,2.7,0.1
		c5.7,0.7,12.4,3.6,14.6,8.8c2,4.6,0.7,10.3-3,13.7c4.6-3.7,6.1-10.2,3.9-15.4c-2.5-5.6-9.6-8.7-15.4-9.4c-1.9-0.2-4.1-0.2-6.2,0
		c-1.4,0.1-2.9,0.3-4.2,0.6c-2.9,0.5-4.5,1.1-5.6,1.6l0.1,2.4l0.2,5.2L1350.8,311.1z"/>
	<polygon class="st4" points="1369.7,335.3 1385.5,342.7 1381.1,348 1383.6,343 1367.6,335.3 	"/>
	<path class="st3" d="M1353.3,355c0.1,0.7,3.8,0.5,5.9,0.3l3.9-0.4l-1.2-8.8c-0.4-2.5-1-2.7-1.4-2.7c-0.3,0-0.8-0.1-0.4,2.9l1,7
		l-2.1,0.2C1357.6,353.8,1353.3,354.4,1353.3,355z M1360,340.4c0.3-0.1,1.2,0.2,1.3,1.4c0.1,1.1-0.7,1-1,0.6
		C1359.3,341.1,1359.7,340.5,1360,340.4z"/>
</g>
<g>
	<path class="st0" d="M1429.6,332.1c0.1,4.3,1.4,8.7,3.5,12.5c1,1.9,2.3,3.7,3.5,5.4c1.3,1.9,2.8,3.6,4.7,4.9
		c3.6,2.6,8.3,3.3,12.5,1.8c2-0.7,3.8-1.9,5.3-3.3c0.7-0.7,1.4-1.4,1.9-2.1c0.3-0.4,0.6-0.8,0.8-1.2c0.2-0.3,0.3-0.9,0.7-0.7
		c0.7,0.3,1.3,0.6,2.1,0.3c0.7-0.2,1.1-0.9,1.3-1.6c0.2-0.9,0.3-1.7,0.5-2.6c0.2-1.2,0.4-2.4,0.6-3.6c0.2-0.9,0.4-1.9-0.3-2.7
		c-0.5-0.6-1.4-0.9-2-1.4c-0.4-0.3-0.8-0.8-1.4-0.9c-0.6-0.2-1.2-0.4-1.9-0.5c-2.3-0.7-4.7-1.4-7-2c-1.3-0.4-4-1.7-4.4,0.4
		c-0.2,1-0.4,2-0.6,3c-0.2,0.8-0.5,1.7-0.5,2.5s0.6,1.2,1.1,1.6c0.1,0.2,0.3,0.5,0.5,0.7c0.1,0.2-0.8,0.9-0.9,1
		c-0.8,0.6-1.7,0.6-2.6,0.3c-0.9-0.3-1.3-1.5-1.6-2.3c-0.8-2.5-0.4-5.7,0.4-8.1c0.5-1.4,1.3-2.8,2.5-3.8c0.7-0.5,1.5-1,2.3-1
		c0.5,0,1,0.2,1.4,0.5s0.6,0.7,0.9,1c0.4,0.7,0.9,1.7,1.7,1.9c0.5,0.1,2.6,0.1,3.5,0.1c1.9,0,3.5,0,5.4,0.2c0.7,0.1,1.4,0.1,2-0.4
		c0.9-0.6,1-2,1.2-2.9c0.5-2.1,0.9-4.2,1.3-6.3c0.1-0.7,0.2-1.3-0.2-1.9c-0.5-0.7-1.8-1.5-2.5-2c-0.6-0.4-0.5-0.4-1.3-0.6
		c-0.3-0.1-0.4,0-0.5-0.3c-0.1-0.2-0.2-0.5-0.3-0.7c-0.2-0.5-0.5-1-0.8-1.5c-1.1-1.7-2.6-2.9-4.2-4.1c-1.8-1.2-3.5-2.5-5.6-3.2
		c-4.1-1.4-8.2-0.8-12,1.1c-5.2,2.7-8.7,7.6-10.2,13.2C1429.9,325.8,1429.5,329,1429.6,332.1
		C1429.8,337.6,1429.5,327.6,1429.6,332.1z"/>
	<path class="st1" d="M1429.6,332.1c0.2,7.3,3.9,15.3,9,19.5c2.4,2,5.4,3.1,8.4,3.1c2,0,4-0.5,5.8-1.4c3.1-1.6,5.5-4,7.1-7l1.3,0.6
		c0.4,0.2,0.8,0.2,1.2,0c0.4-0.2,0.7-0.6,0.7-1l1.3-7.3c0.1-0.7-0.3-1.4-1-1.6l-11.4-3.3c-0.4-0.1-0.8-0.1-1.1,0.1
		c-0.3,0.2-0.6,0.5-0.7,0.9l-1.1,5.4c-0.1,0.6,0.2,1.3,0.8,1.6l1.1,0.5c-0.7,1.2-1.9,2.2-3.4,1.9c-3.1-0.7-5.1-3.2-5.2-6.9
		c-0.1-1.9,0.1-8.4,4.5-10.8c0.5-0.3,1.1-0.4,1.6-0.4c1.4,0,2.7,1,3.4,2.6c0.2,0.6,0.8,0.9,1.4,0.8s1.3-0.1,2.3-0.1
		c2.4,0,5.3,0.2,6.2,0.3c0.2,0,0.4,0,0.4,0c0.6,0,1.2-0.4,1.4-1c0.3-1.1,0.6-2.3,0.9-3.6c0.3-1.4,0.6-2.8,0.8-4.2l0.2-0.9
		c0.1-0.7-0.3-1.3-0.9-1.6c-0.3-0.1-0.8-0.2-3.1-0.6c0-0.1-0.1-0.2-0.1-0.3c0,0,0,0,0-0.1c-1.2-6.3-7.8-9.8-13.3-9.8
		c-1.4,0-2.7,0.2-3.9,0.6C1430.1,312.6,1429.5,327.6,1429.6,332.1z"/>
	<path class="st2" d="M1446.3,325.2c3-1.6,5.8,0.2,6.9,2.9c2.8-0.3,8.9,0.2,9.1,0.2c0.3-1.2,0.6-2.4,0.9-3.6c0.4-1.6,0.7-3.3,1-5
		c-0.3-0.1-3.7-0.6-3.8-0.6l-0.4-1.3c-1.3-6.6-9.4-10-15.4-8.1c-10.9,3.3-13.9,14-13.7,22.5c0.2,6.4,3.4,14.2,8.5,18.4
		c3.5,2.9,8.4,3.7,12.7,1.5c3.5-1.7,5.7-4.4,7-7.6l2.6,1.2l1.3-7.3l-2.8-0.8l-8.8-2.5l-1.1,5.4l0.4,0.2l2,0.9
		c-0.9,2.4-2.8,4.5-5.5,3.9c-4-0.9-6.2-4.2-6.3-8.2C1440.9,332.8,1442.1,327.4,1446.3,325.2z"/>
	<path class="st3" d="M1431,332.3c3.4,0.2,6.9,0.5,10.3,0.9c0.6-3.3,2-6.4,5-8s5.8,0.2,6.9,2.9c2.8-0.3,8.9,0.2,9.1,0.2
		c0.3-1.2,0.6-2.4,0.9-3.6c0.4-1.6,0.7-3.3,1-5c-0.3-0.1-3.7-0.6-3.8-0.6l-0.4-1.3c-1.3-6.6-9.4-10-15.4-8.1
		c-10.9,3.3-13.9,14-13.7,22.5C1431,332.1,1431,332.2,1431,332.3z"/>
	<path class="st4" d="M1444.9,311c1-0.3,2.1-0.5,3.2-0.5c4.6,0,10.1,3.3,11.1,8.4v0.1c0.3,1.6,0.6,1.8,0.8,1.9
		c0.1,0.1,0.1,0.1,0.8,0.2c0.5,0.1,1.6,0.2,2.3,0.4v0.1c-0.3,1.3-0.9,6.7-0.9,6.7c0.3-1.2,0.6-2.4,0.9-3.6c0.4-1.6,0.7-3.3,1-5
		c-0.3-0.1-3.7-0.6-3.8-0.6l-0.4-1.3c-1.3-6.6-9.4-10-15.4-8.1c-9.2,2.8-12.8,10.9-13.5,18.4C1431,329.4,1433.1,314.6,1444.9,311z"
		/>
	<polygon class="st4" points="1450.6,339.7 1451.6,335 1463.1,338.3 1452.2,335.9 	"/>
	<path class="st4" d="M1441.5,332.2c0,0-2.2,9.1,3.8,12.5c5.5,3.1,7.5-3.2,7.5-3.2s-1,6.8-7.4,4.2
		C1439.2,343,1440.8,334.5,1441.5,332.2z"/>
	<path class="st3" d="M1452.1,351c-0.1-0.3-1.2,0.1-2.6,0.3c-1.4,0.2-3,0.1-4.2-0.2c-0.3,0-0.6-0.2-1-0.3c-0.2-0.1-0.4-0.2-0.6-0.3
		c-0.2-0.1-0.5-0.2-0.7-0.3c-1-0.5-2-1.2-2.9-2c-1-0.8-1.8-1.8-2.5-2.8c-0.2-0.2-0.3-0.5-0.5-0.7c-0.1-0.2-0.3-0.5-0.4-0.7
		c-0.3-0.4-0.5-0.8-0.7-1.2c-1.4-2.7-2-2.8-2.3-2.7c-0.2,0.1-0.8,0.1,1,3.4c0.4,0.8,1,1.8,1.7,2.8s1.6,2,2.5,2.8
		c1.9,1.7,4.3,2.9,6,3.3c0.9,0.3,2.9,0.4,4.5,0C1451.1,352.1,1452.2,351.3,1452.1,351z M1432.3,336.5c0.2-0.1,1.1,0.2,1.4,1.5
		c0.4,1.2-0.2,1.3-0.7,0.9c-0.6-0.7-0.8-1.3-0.9-1.7C1432.1,336.8,1432.2,336.6,1432.3,336.5z"/>
</g>
<g>
	<path class="st0" d="M358.4,375.8c0.2,0.5,0.7,1.1,1,1.5c0.2,0.5,0.6,1,0.9,1.4c0.4,0.5,1.1,0.8,1.8,0.8c0.5,0,1,0,1.4,0
		c2.3,0,4.7,0,7,0c4.8,0,9.7,0,14.5,0c0.8,0,1.5-0.1,2.1-0.7c0.7-0.8,0.6-1.8,0.6-2.7c0.1-2.5,0.1-5,0.2-7.5c0-0.4,0-0.7-0.1-1.1
		c-0.3-1.1-1.4-1.3-2.1-2c-1-0.8-2-1.4-3.2-1.5c-1.3,0-2.7-0.1-4-0.1c-0.5,0-0.9,0-1.4,0c-0.3,0-0.2-0.7-0.2-0.9c0-0.3,0-0.5,0-0.8
		c2.2,0.1,4.4,0.2,6.6,0.3c0.8,0,1.7,0.2,2.4-0.1c1.3-0.4,1.5-1.6,1.6-2.7c0.3-2.5,0.5-5,0.7-7.5c0-0.3,0.1-0.6,0-1
		c-0.2-1.2-1-1.3-1.7-2c-0.6-0.6-1.4-1-2.1-1.5c-0.4-0.3-0.9-0.4-1.4-0.4c-1.3,0-2.6-0.1-3.9-0.2c-0.4,0-2.2,0.2-2.2-0.3
		c0-0.1,0-1.2,0-1.2c0.3,0,0.5,0,0.8,0c1.2,0,2.4,0,3.7,0c2.1,0,4.3,0.2,6.3,0c2.7-0.3,2-4,1.9-5.9c0-2.6-0.1-5.1-0.1-7.7
		c0-1.2-0.4-2-1.5-2.8c-0.7-0.4-1.3-0.9-2-1.4c-0.5-0.3-0.9-0.6-1.5-0.6c-3.8,0.3-7.6,0.7-11.4,1c-5.2,0.4-10.5,0.9-15.7,1.3
		c-1.1,0.1-3-0.1-3.7,1c-0.4,0.8-0.1,2,0,2.9c1,10.2,2,20.4,3,30.6c0.3,2.6,0.5,5.2,0.8,7.9C357.7,372.9,357.5,375,358.4,375.8
		C358.4,376,358.1,375.5,358.4,375.8z"/>
	<path class="st1" d="M359.5,376.3h23.4c0.9,0,1.6-0.7,1.6-1.6l0.2-9.2c0-0.4-0.2-0.8-0.4-1.1c-0.3-0.3-0.7-0.5-1.1-0.5l-9.3-0.2
		l-0.1-4.9l8.9,0.4c0.8,0,1.6-0.6,1.7-1.4l0.9-8.7c0-0.4-0.1-0.9-0.4-1.2c-0.3-0.3-0.7-0.5-1.1-0.6l-9.8-0.4v-4.5h11
		c0.4,0,0.8-0.2,1.1-0.5c0.3-0.3,0.5-0.7,0.5-1.1l-0.2-11.9c0-0.4-0.2-0.9-0.5-1.2c-0.3-0.3-0.8-0.5-1.2-0.4l-29.6,2.6
		c-0.4,0-0.8,0.2-1.1,0.6c-0.3,0.3-0.4,0.8-0.4,1.2l4.3,43.2C358,375.6,358.7,376.3,359.5,376.3z"/>
	<polygon class="st2" points="384.8,328.9 385,340.8 372.3,340.8 372.3,348.5 383.5,348.9 382.7,357.6 372,357.2 372.3,365.3 
		383.1,365.5 382.9,374.7 359.5,374.7 355.2,331.4 	"/>
	<path class="st3" d="M359.2,357.3c3.6,0.5,7,0.6,10.7,0c2.7-0.4,5.4-1.1,8.8-2.1c1.5-0.5,2.9-0.9,4.3-1.4l0.5-4.9l-11.3-0.4v-7.7
		H385l-0.2-11.9l-29.6,2.6l2.5,25.6C358.2,357.2,358.7,357.2,359.2,357.3z"/>
	<path class="st4" d="M371.8,349.1l11.2,0.6c0,0,0,1.4,0.2,4.1l0.5-4.9l-11.3-0.4v-7.3L371.8,349.1z"/>
	<polygon class="st4" points="356.6,333.1 383.8,330.4 385,340.8 384.8,328.9 355.2,331.4 356.8,347.6 	"/>
	<polygon class="st4" points="372,357.2 372.3,365.3 383.1,365.5 383,369.1 382.4,366.4 371.5,365.9 	"/>
	<path class="st3" d="M380.8,374.1c0-0.6-5.3-1.2-8.2-1.4l-10.5-0.6l-0.2-3.6c-0.2-3.6-0.9-4-1.2-4c-0.3,0-0.8-0.2-0.5,4.1l0.3,5.1
		l12,0.7C374.6,374.5,380.7,374.7,380.8,374.1z M360.2,359.9c0.3-0.1,1.1,0.5,1.2,2.1c0.1,1.6-0.7,1.4-1,0.7
		C359.5,360.9,359.9,360,360.2,359.9z"/>
</g>
<g>
	<path class="st0" d="M350.4,381.2c2.6,0,2.2-3.2,2.3-5c0.1-2.7,0.2-5.4,0.4-8.1c0-0.8,0.1-1.6,0.1-2.4c0.1-1.6-1.2-2.1-2.2-3
		c-0.9-0.7-1.8-1.4-2.9-1.4c-1.2,0-2.3,0-3.5,0.1c-0.5,0-4.9,0.3-4.9,0c-0.1-1.4-0.2-2.7-0.4-4.1c-0.5-5.4-0.9-10.7-1.4-16.1
		c-0.2-2-0.3-4-0.5-6c0-0.4-0.1-0.8-0.1-1.2c-0.1-1.5-1.8-2.2-2.8-2.9c-0.6-0.4-1.3-1.1-2.1-0.9c-0.1,0-0.3,0.1-0.4,0.1
		c-0.9,0.2-1.8,0.4-2.7,0.6c-2.7,0.6-5.4,1.1-8,1.7c-1.3,0.3-4.5,0.4-4.1,2.5c0.2,0.8,0.4,1.6,0.5,2.4c1,4.4,2,8.9,3,13.4
		c1.9,8.4,3.8,16.8,5.7,25.2c0,0.1,0,0.2,0.1,0.3c0.2,0.4,0.6,0.9,0.8,1.3c0.4,0.5,0.7,1.2,1.2,1.7c0.5,0.9,1.4,1.2,2.3,1.2
		c2,0.1,4,0.2,6,0.2c4.5,0.2,9,0.4,13.5,0.6C350.2,381.2,350.3,381.2,350.4,381.2z"/>
	<path class="st1" d="M347.9,378.2c0.8,0,1.5-0.7,1.5-1.5l0.6-13.6c0-0.4-0.1-0.8-0.4-1.2c-0.3-0.3-0.7-0.5-1.1-0.5l-11.8,0.2
		l-2.6-30c0-0.4-0.3-0.8-0.6-1.1c-0.4-0.3-0.8-0.4-1.2-0.3l-14.1,2.9c-0.4,0.1-0.8,0.3-1,0.7c-0.2,0.3-0.3,0.8-0.2,1.2l9.3,41.1
		c0.2,0.7,0.7,1.2,1.4,1.2L347.9,378.2C347.8,378.2,347.9,378.2,347.9,378.2z"/>
	<polygon class="st2" points="318.5,334.6 332.6,331.7 335.3,363.2 348.5,363 347.9,376.6 327.8,375.8 	"/>
	<path class="st3" d="M334.4,353.2l-1.8-21.5l-14.1,2.9l4.9,21.5C326.9,354.7,330.7,353.8,334.4,353.2z"/>
	<path class="st4" d="M332.6,331.7l-14.1,2.9l1.7,7.5l-0.6-5.6l12.3-3l3.2,30l12.7,0.6l0.5,5.6l0.3-6.8c0,0-13.4,0.2-13.2,0.2
		L332.6,331.7z"/>
	<path class="st3" d="M341.4,375.3c0-0.6-4.7-1.2-7.2-1.3l-4.6-0.3l-1.6-7.6c-0.7-3.1-1.3-3.3-1.6-3.3s-0.7-0.1,0,3.6l1.9,8.8
		l5.9,0.4C335.9,375.7,341.3,375.9,341.4,375.3z M325.3,358.8c0.3-0.1,1.2,0.3,1.4,1.6c0.3,1.4-0.5,1.3-0.9,0.8
		C324.8,359.8,325.1,359,325.3,358.8z"/>
</g>
<g>
	<path class="st0" d="M450.4,374.6c0.1,0.9,1.1,2,1.6,2.7c0.7,1,1.3,2,2.7,1.9c0.6-0.1,1.2-0.3,1.7-0.4c2.6-0.6,5.2-1.2,7.8-1.8
		c1.7-0.4,4.9-0.5,5.1-2.8c0.1-1-0.3-2.2-0.4-3.2c-1.4-8.9-2.8-17.7-4.1-26.6c0,0,0,0,0-0.1c4.2,0.2,8.4,0.4,12.6,0.7
		c0.9,0,1.7-0.1,2.3-0.9c0.5-0.7,0.4-1.6,0.3-2.5c-0.2-2.6-0.3-5.1-0.5-7.7c-0.1-1.1-0.1-2.3-0.2-3.4c-0.1-1-0.1-1.9-1-2.5
		s-1.9-1.3-2.8-1.9c-0.3-0.2-0.7-0.3-1.1-0.3c-0.4,0-0.7,0-1.1,0.1c-4.2,0.2-8.5,0.5-12.7,0.7c-5.6,0.3-11.1,0.6-16.7,0.9
		c-2,0.1-3.9,0.2-5.9,0.3c-0.8,0-2.1-0.1-2.8,0.4c-0.9,0.6-0.7,1.6-0.6,2.5c0.2,1.2,0.4,2.3,0.5,3.4c0.4,2.5,0.7,4.9,1.1,7.4
		c0.2,1.2,1,2.1,1.7,3.1c0.6,0.9,1.2,1.9,2.5,1.9c0.3,0,0.6-0.1,0.9-0.1c2.4-0.4,4.8-0.8,7.2-1.2c0.1,0,0.2,0,0.4-0.1
		c0.5,8.7,0.9,17.4,1.4,26.1C450.3,372.3,450.4,373.5,450.4,374.6z"/>
	<path class="st1" d="M450.4,374.6c0,0.5,0.3,0.9,0.6,1.2c0.3,0.2,0.6,0.3,0.9,0.3c0.1,0,0.2,0,0.3,0l12.7-2.9
		c0.8-0.2,1.3-1,1.2-1.8l-4.7-30.2l13.7,0.7h0.1l0,0c0.9,0,1.6-0.7,1.6-1.6c0-0.1,0-0.2,0-0.3l-0.8-12.7c-0.1-0.9-0.8-1.5-1.6-1.5
		l-38.5,2.1c-0.4,0-0.8,0.2-1.1,0.6c-0.3,0.3-0.4,0.8-0.3,1.2l1.9,12.3c0.1,0.4,0.3,0.8,0.6,1c0.3,0.2,0.8,0.3,1.2,0.3l10.6-1.8
		L450.4,374.6z"/>
	<polygon class="st2" points="436,329.5 437.8,341.8 450.1,339.7 452,374.5 464.7,371.6 459.7,339.5 475.3,340.4 474.5,327.5 	"/>
	<path class="st3" d="M450.1,339.7l0.6,10.5c3.6,0.1,7.1-0.1,10.6-0.5l-1.6-10.2l15.6,0.8l-0.8-12.9l-38.5,2.1l1.9,12.3L450.1,339.7
		z"/>
	<polygon class="st4" points="474.5,327.5 436,329.5 436.8,335.3 437,331.7 473.6,329.7 475.2,338 	"/>
	<path class="st8" d="M462.8,371.2c-0.1-0.6-5-0.2-7.7,0.1l-1.1,0.1l-0.8-11.5c-0.2-3.3-0.9-3.6-1.2-3.6c-0.3,0-0.7-0.2-0.4,3.8
		l1,13.2l2.8-0.4C457.3,372.7,462.9,371.8,462.8,371.2z M451.7,352.2c0.3-0.1,1.1,0.5,1.2,1.9c0.1,1.5-0.7,1.3-1,0.7
		C451,353.1,451.4,352.3,451.7,352.2z"/>
</g>
<g>
	<path class="st0" d="M398.4,377.2c0.2,0.5,0.6,1.1,1,1.5c0.2,0.5,0.6,1,0.9,1.4c0.4,0.5,1.1,0.8,1.8,0.8c0.8,0,1.7-0.1,2.5-0.1
		c2.7-0.1,5.4-0.2,8-0.3c0.8,0,1.7,0,2.4-0.5c0.8-0.7,0.8-1.6,0.8-2.5c-0.1-2.5-0.2-5-0.3-7.5c-0.1-2.1-0.2-4.2-0.2-6.3
		c0-0.2,3.7-0.3,4.1-0.3c2.8-0.1,5.6-0.3,8.4-0.5c1.8-0.1,5.4,0.2,5-2.7c-0.2-2-0.5-4-0.8-6.1c-0.2-1.3-0.3-2.6-0.5-3.8
		c-0.1-0.9-0.1-1.8-0.8-2.4c-0.4-0.4-0.8-0.6-1.3-0.9c-0.4-0.3-0.8-0.6-1.2-0.8c-0.5-0.5-1.1-0.9-1.8-0.8c-0.8,0.1-1.6,0.1-2.5,0.2
		c-2.7,0.2-5.3,0.4-8,0.6c-0.4,0-0.8,0.1-1.2,0.1c0-0.6-0.4-1.6,0.3-1.7c0.9-0.1,1.7-0.2,2.6-0.2c2.8-0.2,5.6-0.5,8.4-0.7
		c1.5-0.1,4.5,0.1,5.5-1.4c0.5-0.8,0.3-1.7,0.2-2.6c-0.1-1.2-0.2-2.5-0.3-3.7c-0.2-2.4-0.4-4.8-0.6-7.2c-0.1-1.5-1.3-2.2-2.5-2.9
		c-0.8-0.5-1.5-1.4-2.6-1.3c-3.9,0.5-7.8,0.9-11.6,1.4c-5.3,0.6-10.7,1.3-16,1.9c-1.1,0.1-2.2,0.3-3.3,0.4c-1.6,0.2-1.4,1.7-1.3,2.8
		c0.9,9.7,1.9,19.4,2.8,29.1c0.4,3.9,0.7,7.8,1.1,11.6c0.1,1.1,0.2,2.3,0.3,3.5C397.9,375.8,397.9,376.6,398.4,377.2
		C398.5,377.3,398.2,376.9,398.4,377.2z"/>
	<path class="st1" d="M399.6,377.6L399.6,377.6l11.7-0.4c0.9,0,1.6-0.8,1.6-1.6l-0.6-15.1l16.1-0.9c0.4,0,0.8-0.2,1.1-0.6
		c0.3-0.3,0.4-0.8,0.4-1.2l-1.5-11.1c-0.1-0.8-0.8-1.4-1.7-1.4l-14.9,1.1l-0.2-5l15.7-1.4c0.9-0.1,1.5-0.8,1.5-1.7l-1.1-12.3
		c0-0.4-0.3-0.8-0.6-1.1c-0.3-0.3-0.8-0.4-1.2-0.4l-31.1,3.6c-0.9,0.1-1.5,0.9-1.4,1.7l4.5,46.4C398.1,377,398.7,377.6,399.6,377.6z
		"/>
	<polygon class="st2" points="428.3,358 426.8,346.9 410.3,348.1 410,339.9 427.2,338.4 426.2,326.1 395.1,329.7 399.6,376 
		411.3,375.6 410.7,358.9 	"/>
	<g class="st5">
		<path class="st2" d="M410.5,352.5c5.6-0.5,11.2-0.8,16.9-1l-0.6-4.6l-16.5,1.2l-0.3-8.2l17.2-1.5l-1.1-12.3l-31,3.6l2.4,25.1
			C401.7,353.6,406.1,352.9,410.5,352.5z"/>
	</g>
	<g>
		<polygon class="st9" points="410.2,348.6 426,347.9 427.8,354.7 426.8,346.9 410.3,348.1 410,340.2 		"/>
	</g>
	<g>
		<polygon class="st9" points="396.1,331.8 425.5,327.5 427.2,338.4 426.2,326.1 395.1,329.7 396.9,348.3 		"/>
	</g>
	<path class="st8" d="M409.5,374.4c0-0.6-4.4-0.9-6.8-1c-0.3,0-0.7,0-1.1,0c-0.1,0-0.1,0-0.2,0l0,0c-0.1-1-0.2-2.2-0.3-3.4
		c-0.2-2.5-0.5-5.1-0.6-6.6s-0.4-2.3-0.6-2.7c-0.3-0.4-0.5-0.5-0.7-0.5c-0.2,0-0.3,0-0.5,0.4c-0.1,0.4-0.1,1.2,0.1,3
		c0.2,1.8,0.4,4.1,0.6,6.5c0.1,1.2,0.2,2.4,0.3,3.4c0,0.5,0.1,1.1,0.1,1.6c0.5,0,1,0,1.5,0s0.9,0,1.4,0
		C404.4,375.1,409.5,375,409.5,374.4z M398.6,356.5c0.3-0.1,1.1,0.3,1.3,1.6c0.1,1.3-0.7,1.2-1,0.7
		C397.9,357.4,398.3,356.6,398.6,356.5z"/>
</g>
<g>
	<path class="st8" d="M882.7,371.9c-1.2,1-3.5,2.9-3.9,6.4c-0.3,3,0.9,5.3,1.3,6.1c59.7-3.5,119.3-7,179-10.5
		c-0.5-17.1-1.1-34.3-1.6-51.4c-2.9,13.5-5.7,27-8.6,40.4c-108.6,5.5-145.8,6.7-150.5,6.1c-3.7-0.5-5.6-0.2-9.6,0.5
		C885.9,370,884.3,370.6,882.7,371.9z"/>
	<path class="st8" d="M868.2,238.7c0.4,0.1,0.7,0.3,1.1,0.4c5.4,2.4,4.1,6.8-1.6,7.8c-8.6,1.6-10.3-6.5-7.7-8.3
		C861.8,237.3,865.1,237.5,868.2,238.7z"/>
	<g>
		<path class="st0" d="M1067.3,275.9c-3.9,1.4-128.5,4.1-296.4,6.6c-6.8,1-17.1,1.2-28.7-4.7c-1.5-0.8-2.7-1.4-3.6-2
			c-8.9-5.5-24.8-19.9-24.9-33.6c-0.1-8.4,7.1-19.6,7.3-25.7c0-0.3,0.1-1.7,0.2-3.6c0.2-2.8,0.6-4.6,1.2-11.5
			c1.4-16.8,0.4-20.7,2.1-25.8c1.2-3.7,3.6-7.6,9.3-8.4c205.4,76,280.9,48.9,307.4,0.1c13.8-25.4,20.6-68.2,28.5-66.2
			c12.4,3.2,6.8,111.3,8.7,140.3c0.1,1.8,0.5,8-0.6,15.9c-0.4,2.8-1.2,8.3-3.2,12.5C1074.6,269.9,1072.4,274.1,1067.3,275.9z"/>
		<path class="st0" d="M1071.5,429.9c-93.5,1.3-187.1,2.6-280.6,3.9c-1.6-0.2-4.1-0.7-6.4-2.8c-4.2-3.9-5.3-10.5-5.7-13.7
			c-4.1-29.6-5.3-57.9-5.3-58l0,0c-2.9-59.9-4.3-91.7,4.7-125.6c1-3.6,2.7-9.8,5.5-17.2c171.2,36.4,244.3,28.5,265.4,0.3
			c3.2-4.3,18.4-26.8,25.8,10.1c3.9,19.4,4.7,58.1,6.3,135.6c0.1,4.8,0.3,16.9-0.5,31.2c-0.3,5.5-1,16.4-2.8,24.5
			C1077.8,418,1075.5,429.8,1071.5,429.9z"/>
		<path class="st1" d="M790.2,420.8c-2.6-2.9-3-7.5-3.2-9.7c-3.9-54.6-4.1-114.3-4.1-114.3c0-8.9-0.3-22.9-1.6-40.3
			c-17.6-0.2-35.3-0.4-52.9-0.6c-0.7-0.3-1.8-0.7-3-1.3c-2.2-1.1-6.2-3-8.7-6.1c-4-4.9-4.2-12.7-4.1-15.5
			c-0.8-68.8-1.7-117.7-2.6-125.5c-0.1-1-0.7-5.2,1-8.2c0.3-0.6,1.8-2.8,5.7-3.2c11-1,165.6,1.2,178.4,1.3
			c4.7,0,151.2,1.1,166.9,0.6c1.2,0,5.1-0.2,7.8,3.2c2.7,3.4,3.1,9.1,2.7,14.1c-0.7,86.8-0.1,136.1,0.5,165.7
			c0.1,5.1,0.6,23.4,1,48.6c0.4,23.8,0.8,47.3,1,70.7c-0.7,3.8-2.1,8.9-5.4,12.6c-3.7,4-8,4.5-9.6,4.7c-9,1-116,3.2-262.2,5.6
			C795.7,423.3,792.5,423.3,790.2,420.8z"/>
		<path class="st1" d="M1066.4,412c-4.4,5.5-11,5.3-13,5.3c-10.3-0.2-116.7,1.5-263.2,3.6c-1.5-12.3-3.3-31.1-4.1-54.6
			c-0.1-3.7-0.2-6.4-0.3-11.7c-0.4-15.2-0.6-31.1-1.4-76.3c-0.8-45-1-54.7-0.7-65.3c0.5-18,1.9-20.4,2.5-20.8
			c92.6,0,282.6,42.1,282.5,52.7c-0.5,43.2,1.9,156.8,1.3,158.8C1069.5,406,1068.6,409.3,1066.4,412z"/>
		<path class="st2" d="M796.6,410.9c90.5-4.1,180.9-8.2,271.4-12.3c-0.7-95.1-1.5-190.3-2.2-285.4c-91.9,0.3-183.7,0.6-275.6,0.9
			C792.3,213.1,794.5,312,796.6,410.9z"/>
		<path class="st4" d="M722,239.9c22.3,0,44.6,0.1,66.9,0.1c2.6,56.8,5.2,113.6,7.7,170.4c0.9-60.9,1.8-121.7,2.7-182.6
			c87-21.1,174.1-42.2,261.1-63.3c-113.7-17.8-227.3-35.5-341-53.3C720.4,154.2,721.2,197.1,722,239.9z"/>
		<path class="st2" d="M727.3,227.1c112.8,3,225.6,5.9,338.4,8.9c-1.7-23.8-3.4-47.7-5.2-71.5c-112.2,1.7-224.5,3.4-336.7,5.1
			C724.9,188.8,726.1,208,727.3,227.1z"/>
		<path class="st2" d="M723.8,183.6c113.9,20.1,227.8,40.1,341.7,60.2c-1.1-42.5-2.2-85.1-3.4-127.6c-114.2-1.6-228.4-3.3-342.6-4.9
			C721,135.4,722.4,159.5,723.8,183.6z"/>
		<path class="st3" d="M725.1,228.8c24.9,1.3,49.7,2.5,74.6,3.8c-1,59.3-2,118.6-3,177.9c20.2-1,40.3-2,60.5-3.1
			c-2.8-45.6-2.5-119.7,21.1-201.8c10.7-37.2,23.8-67.8,36.1-91.8c-64.9-0.8-129.9-1.7-194.8-2.5
			C721.4,150.4,723.2,189.6,725.1,228.8z"/>
	</g>
</g>
</svg>
