<?xml version="1.0" encoding="utf-8"?>
<!-- Generator: Adobe Illustrator 24.0.2, SVG Export Plug-In . SVG Version: 6.00 Build 0)  -->
<svg version="1.1" id="Capa_1" xmlns="http://www.w3.org/2000/svg" xmlns:xlink="http://www.w3.org/1999/xlink" x="0px" y="0px"
	 viewBox="0 0 1800 678.7" style="enable-background:new 0 0 1800 678.7;" xml:space="preserve">
<style type="text/css">
	.st0{fill:#352E16;}
	.st1{fill:#954415;}
	.st2{fill:#F1AF02;}
	.st3{opacity:0.8;fill:#F1AF02;enable-background:new    ;}
	.st4{fill:#FFFFFF;}
	.st5{fill:#F6EB69;}
	.st6{opacity:0.7;}
	.st7{fill:#F9B84A;}
	.st8{opacity:0.8;}
	.st9{fill:#F4F4F4;}
</style>
<g>
	<path class="st0" d="M1277.6,305c-11.7,10.4-29.2,8-30,13.6c-0.1,0.7,0.6,0.8,6.2,8.5c0.8,1.1,9,11.5,8.3,12
		c-3.2,2.6-6.3,5.3-9.4,7.9c-12.4,10.4-24.8,20.8-37.1,31.1c-4.6,3.9-9.2,7.7-13.8,11.6c-0.9,0.7-1.8,1.5-2.7,2.2
		c-3.4,2.8-2.4,8.1-2.3,12c0.1,2.3-0.5,5,1.4,6.8c0.3,0.3,0.6,0.6,1,0.9c2,1.9,4,3.8,6,5.7c6,5.6,11.9,11.2,17.9,16.9
		c2.9,2.7,8.7,10.4,13,5.7c1.7-1.8,3.3-3.7,5-5.5c3.7-4,18.8-20.7,27.5-30.4c7.5-8.3,19.3-22.9,36.6-48.8
		c-9.4-25.1-20.9-52-27.1-50.5C1278,304.8,1277.8,304.8,1277.6,305z"/>
	<path class="st1" d="M1252.8,257.9c-0.2,17.7,4.9,26.8,9.8,31.9c3.7,3.8,9.1,7.2,8.3,10.3c-0.8,2.8-6.3,3.9-10.8,4.3
		c0,0-13.2,4.5-14.2,9.5c-0.1,0.7-0.1,1.4-0.1,1.4c0.1,0.8,0.4,1.5,0.9,2.2l20.7,28.5l-69.1,57.9c-1,0.9-1.6,2.1-1.6,3.4
		c-0.1,1.3,0.5,2.6,1.4,3.5l31.3,29.5c0.9,0.9,2.1,1.3,3.4,1.3c1.2-0.1,2.4-0.6,3.3-1.5c26.4-27.8,52.8-55.5,79.2-83.3
		C1294.5,323.8,1273.7,290.9,1252.8,257.9z"/>
	<path class="st2" d="M1232.7,436.9l-31.3-29.5l72.4-60.7l-23.3-32.1c18.9,13.7,37.8,27.3,56.7,41
		C1282.3,382.8,1257.5,409.9,1232.7,436.9z"/>
	<path class="st3" d="M1250.8,366l-49.5,41.5l31.3,29.5c13.3-14.5,26.5-28.9,39.8-43.4c-1.6-4.2-4.4-9.9-9.2-15.9
		C1258.9,372.2,1254.3,368.4,1250.8,366z"/>
	<path class="st4" d="M1201.4,407.5l31.3,29.5c16.3-17.5,24.3-26.4,24-26.7c-0.2-0.2-7.3,6.6-21.1,20.6L1207,406l68-59.3l-20.3-32.1
		l13-10.8l-17.3,11c0,0,23.6,32.4,23.3,32.1L1201.4,407.5z"/>
	<path class="st0" d="M1237,371.3c1.7-1.8,4.2-4.4,7.5-7.4c6.7-6.1,11.9-8.4,10.2-10.5c-2.4-2.9-4.8-5.7-7.1-8.5
		c-9.4-11.2-18.8-22.4-28.2-33.6c-3.5-4.2-7-8.3-10.5-12.5c-0.7-0.8-1.4-1.6-2-2.4c-2.6-3.1-0.6-8,0.3-11.6c0.5-2.2,0.6-4.8,2.7-6.3
		c0.3-0.3,0.7-0.5,1.1-0.8c2.3-1.6,4.5-3.2,6.8-4.7c6.7-4.7,13.4-9.3,20.1-14c3.3-2.3,10.2-8.9,13.3-4c1.2,1.9,2.3,3.8,3.5,5.8
		c6.5,10.6,13,21.2,19.4,31.9c12.2,20.1,24.5,40.2,36.7,60.2c0.2,0.3,0.3,0.5,0.4,0.8C1311.7,354.9,1250.5,383,1237,371.3z"/>
	<path class="st1" d="M1261.1,347.6l-52.5-62.6c-0.7-0.9-1.1-2.2-0.8-3.4c0.2-1.3,1-2.4,2.1-3.2l35.1-24.5c1-0.7,2.3-1,3.4-0.8
		c1.1,0.2,2.1,0.8,2.7,1.8l59.9,98.2c1,1.6,0.7,3.9-0.7,5.4l-40.6,44.3l0,0c0,0-10.9-10.5-32.7-31.5
		C1245,363.4,1253.1,355.5,1261.1,347.6z"/>
	<polygon class="st2" points="1247.3,257.5 1212.1,282 1267.1,347.5 1238.9,375.3 1266.5,400 1307.1,355.7 	"/>
	<path class="st3" d="M1249.7,326.8l-37.6-44.8l35.1-24.5l31.3,51.4C1268.4,313.7,1258.7,320.1,1249.7,326.8z"/>
	<path class="st4" d="M1212.1,282l35.1-24.5l11,18l-9.5-11.9L1217,284l51.2,63.8c-20.6,21.3-41.3,42.5-61.9,63.8
		c-1.7-1.4-3.3-2.7-5-4.1c43.9-39.9,65.8-59.9,65.7-59.9l0,0L1212.1,282z"/>
	<path class="st3" d="M1277.7,383.6c-1.3-1.1,7.5-12.2,12.6-17.9l9.2-10.5l-11.4-18c-4.6-7.3-3.6-9.1-2.9-9.7c0.7-0.6,1.4-1.8,6.9,7
		l13.2,20.8l-11.7,13.3C1289.9,372.7,1278.9,384.7,1277.7,383.6z M1279.7,318.1c-0.8,0.3-1.9,3,0.2,6.1c2.1,3.2,3.7,1.4,3.4-0.4
		C1282.6,318.7,1280.5,317.8,1279.7,318.1z"/>
</g>
<g>
	<path class="st0" d="M559.5,310c11.7,10.4,29.2,8,30,13.6c0.1,0.7-0.6,0.8-6.2,8.5c-0.8,1.1-9,11.5-8.3,12c3.2,2.6,6.3,5.3,9.4,7.9
		c12.4,10.4,24.8,20.8,37.1,31.1c4.6,3.9,9.2,7.7,13.8,11.6c0.9,0.7,1.8,1.5,2.7,2.2c3.4,2.8,2.4,8.1,2.3,12c-0.1,2.3,0.5,5-1.4,6.8
		c-0.3,0.3-0.6,0.6-1,0.9c-2,1.9-4,3.8-6,5.7c-6,5.6-11.9,11.2-17.9,16.9c-2.9,2.7-8.7,10.4-13,5.7c-1.7-1.8-3.3-3.7-5-5.5
		c-3.7-4-18.8-20.7-27.5-30.4c-7.5-8.3-19.3-22.9-36.6-48.8c9.4-25.1,20.9-52,27.1-50.5C559.1,309.8,559.2,309.8,559.5,310z"/>
	<path class="st1" d="M584.2,262.9c0.2,17.7-4.9,26.8-9.8,31.9c-3.7,3.8-9.1,7.2-8.3,10.3c0.8,2.8,6.3,3.9,10.8,4.3
		c0,0,13.2,4.5,14.2,9.5c0.1,0.7,0.1,1.4,0.1,1.4c-0.1,0.8-0.4,1.5-0.9,2.2L569.6,351l69.1,57.9c1,0.9,1.6,2.1,1.6,3.4
		c0.1,1.3-0.5,2.6-1.4,3.5l-31.3,29.5c-0.9,0.9-2.1,1.3-3.4,1.3c-1.2-0.1-2.4-0.6-3.3-1.5c-26.4-27.8-52.8-55.5-79.2-83.3
		C542.6,328.8,563.4,295.9,584.2,262.9z"/>
	<path class="st2" d="M604.4,441.9l31.3-29.5l-72.4-60.7l23.3-32.1c-18.9,13.7-37.8,27.3-56.7,41
		C554.7,387.8,579.6,414.9,604.4,441.9z"/>
	<path class="st3" d="M586.2,371l49.5,41.5L604.4,442c-13.3-14.5-26.5-28.9-39.8-43.4c1.6-4.2,4.4-9.9,9.2-15.9
		C578.1,377.2,582.7,373.4,586.2,371z"/>
	<path class="st4" d="M635.7,412.5L604.4,442c-16.3-17.5-24.3-26.4-24-26.7c0.2-0.2,7.3,6.6,21.1,20.6l28.6-24.8l-68-59.3l20.3-32.1
		l-13-10.8l17.3,11c0,0-23.6,32.4-23.3,32.1L635.7,412.5z"/>
	<path class="st0" d="M600,376.3c-1.7-1.8-4.2-4.4-7.5-7.4c-6.7-6.1-11.9-8.4-10.2-10.5c2.4-2.9,4.8-5.7,7.1-8.5
		c9.4-11.2,18.8-22.4,28.2-33.6c3.5-4.2,7-8.3,10.5-12.5c0.7-0.8,1.4-1.6,2-2.4c2.6-3.1,0.6-8-0.3-11.6c-0.5-2.2-0.6-4.8-2.7-6.3
		c-0.3-0.3-0.7-0.5-1.1-0.8c-2.3-1.6-4.5-3.2-6.8-4.7c-6.7-4.7-13.4-9.3-20.1-14c-3.3-2.3-10.2-8.9-13.3-4c-1.2,1.9-2.3,3.8-3.5,5.8
		c-6.5,10.6-13,21.2-19.4,31.9c-12.2,20.1-24.5,40.2-36.7,60.2c-0.2,0.3-0.3,0.5-0.4,0.8C525.3,359.9,586.6,388,600,376.3z"/>
	<path class="st1" d="M575.9,352.6l52.5-62.6c0.7-0.9,1.1-2.2,0.8-3.4c-0.2-1.3-1-2.4-2.1-3.2L592,259c-1-0.7-2.3-1-3.4-0.8
		c-1.1,0.2-2.1,0.8-2.7,1.8l-59.8,98.1c-1,1.6-0.7,3.9,0.7,5.4l40.6,44.3l0,0c0,0,10.9-10.5,32.7-31.5
		C592,368.4,584,360.5,575.9,352.6z"/>
	<polygon class="st2" points="589.8,262.5 624.9,287 569.9,352.5 598.2,380.3 570.5,405 529.9,360.7 	"/>
	<path class="st3" d="M587.3,331.8l37.6-44.8l-35.1-24.5l-31.3,51.4C568.6,318.7,578.4,325.1,587.3,331.8z"/>
	<path class="st4" d="M624.9,287l-35.1-24.5l-11,18l9.5-11.9L620,289l-51.2,63.8c20.6,21.3,41.3,42.5,61.9,63.8
		c1.7-1.4,3.3-2.7,5-4.1c-43.9-39.9-65.8-59.9-65.7-59.9l0,0L624.9,287z"/>
	<path class="st3" d="M559.4,388.6c1.3-1.1-7.5-12.2-12.6-17.9l-9.2-10.5l11.4-18c4.6-7.3,3.6-9.1,2.9-9.7s-1.4-1.8-6.9,7
		l-13.2,20.8l11.7,13.3C547.1,377.7,558.1,389.7,559.4,388.6z M557.4,323.1c0.8,0.3,1.9,3-0.2,6.1c-2.1,3.2-3.7,1.4-3.4-0.4
		C554.4,323.7,556.5,322.8,557.4,323.1z"/>
</g>
<path class="st0" d="M1155.3,554.4c-156.9,0.4-313.7,0.9-470.6,1.3c-1.4-0.2-3.1-0.6-5.2-1.3c-0.8-0.2-5.3-1.7-9.7-4.7
	c-10.3-6.9-14.1-17.9-14.3-18.6c-2.1-6.8-1.7-12.5-1.5-15.2c0.4-3.8,0.9-3.7,2-9.8c2-10.9,0.6-13.4,3-16.7c1.7-2.4,5.3-5,13.5-5.4
	c287.1,12,409.6,9.4,445,0.1c5.4-1.4,30.9-8.8,43.3,3.3c6.5,6.4,7.9,19.2,10.5,44.7c0.2,1.6,0.5,5.6-0.9,10.3
	c-0.6,1.8-1.7,5.4-4.7,8.1C1165.9,550.5,1162.1,554.4,1155.3,554.4z"/>
<path class="st1" d="M1151.9,538.9c-160.5,0.6-321.1,1.2-481.6,1.8c-2.8-0.6-11.4,1.9-13-1.3c-1.1-2.3-1.7-5.7-2.8-12.6
	c-1.1-6.5-1.3-9.9-3-27.5c-1.3-14.1-1.7-17.1-1.2-20.4c0.9-5.6,3.4-6.4,4.4-6.5c162.7,0,325.5,0,488.2,0c0.7-0.1,1.8,0,3.1,1.1
	c0.9,0.8,2.3,2,3.4,5.5c1,3.1,1.4,6.7,1.7,9.9c0.8,7.2,1.8,13.6,3.7,26.4c2,12.9,3.4,18.4,2.8,20.9
	C1157.5,537.7,1152.5,538.3,1151.9,538.9z"/>
<path class="st4" d="M659,528.5c164.7,0,329.3,0,494,0c-2.5-15.4-5-30.9-7.5-46.3c-163.9,0-327.8,0-491.6,0
	C655.6,497.6,657.3,513.1,659,528.5z"/>
<path class="st2" d="M663.1,522.8c163.3,1.9,326.6,3.8,489.9,5.8c-2.5-15.4-5-30.9-7.5-46.3c-162.5,1.1-325,2.2-487.5,3.3
	C659.7,497.9,661.4,510.3,663.1,522.8z"/>
<path class="st3" d="M659.9,523.9c68.2,1.6,136.5,3.1,204.7,4.7c3.7-14.3,6-19.2,7.5-20.9c0.4-0.5,9.6-19.6,10.6-23.7
	c-75,0.9-150,1.7-225,2.6C658.5,499,659.2,511.4,659.9,523.9z"/>
<path class="st5" d="M902.3,519.7c0,1.4,2.5,2.2,4.7,2.7c81.2,0.7,162.4,1.4,243.6,2c-2.4-11.7-4.9-23.5-7.3-35.2
	c-0.2,8.6-0.3,17.1-0.5,25.7c-146.5,2.2-226.2-1.4-232.6-0.2C906.4,515.4,902.2,517.9,902.3,519.7z"/>
<path class="st5" d="M889.7,514.6c0-0.3,0.1-0.6,0.2-1c1.3-4.8,6.5-4.3,9.1,0.4c4,7.1-4.6,9.5-7.3,7.5
	C889.8,520.2,889.2,517.3,889.7,514.6z"/>
<g>
	<path class="st0" d="M916,597c-0.2-1.1-1.1-1.4-1.9-1.9c-0.3-0.3-0.8-0.5-1.1-0.8c-0.5-0.4-0.8-0.8-1.5-0.8c-2,0-4.1,0.3-6.1,0.4
		c-0.8,0.1-1.6,0.1-2.4,0.2c-1.1,0.1-1.4,1.1-1.4,2c0.2,2.3,0.1,4.6,0,6.9c0.2,1.2,0.1,2.5,0,3.7c0,0.2,0,0.5-0.1,0.7
		c0.2,3.5-0.9,7.1-4.4,8c-0.6,0.2-1.2,0.2-1.7-0.1c-0.5-0.1-0.7-0.2-1-0.7c-0.1-0.1-0.1-0.2-0.2-0.4c-0.4-0.6-0.7-1.3-0.7-2
		c-0.2-0.8-0.4-1.7-0.5-2.6c-0.3-2.2-0.4-4.3-0.3-6.5c0.1-2.6,0.3-5.3,0.8-7.9c0.1-0.7,0-1.4-0.5-1.9c-0.3-0.4-0.9-0.7-1.3-1
		c-0.5-0.4-1-0.8-1.6-1.1c-0.6-0.6-1.5-0.4-2.2-0.4c-2.5,0.2-5,0.4-7.4,0.6c-1,0.1-1.9,0.2-2.9,0.2c-1.3,0.1-1.8,0.8-1.9,2.1
		c-0.1,8.9-0.4,18,1.3,26.8c0.7,3.4,1.7,6.9,3.7,9.7c1.3,1.9,2.5,3.9,4.3,5.4c1.7,1.4,3.8,2.3,6.1,2.8c-0.7-0.1-3-0.6,0,0
		c0.2,0,0.2,0,0,0c4.7,0.9,9.4-0.4,12.8-3.8c0.2,0.4,0.6,0.9,0.9,1.2c0.2,0.4,0.5,0.8,0.8,1.1c0.4,0.4,1,0.5,1.6,0.5
		c1.2-0.1,2.3-0.1,3.5-0.1s2.4,0,3-1.2c0.2-0.4,0.2-0.8,0.3-1.3c0.2-3.5,0.4-6.9,0.5-10.4c0.5-8.9,0.9-17.9,1.4-26.8
		C916,597.6,916.1,597.3,916,597z"/>
	<path class="st1" d="M888.9,635.7c1,0.2,2,0.3,3,0.3c5.2,0,8.8-2.9,11.1-6.1l0.2,3.4c0.1,0.8,0.7,1.4,1.5,1.4l5-0.2
		c0.8,0,1.4-0.6,1.4-1.4l2-38.1c0-0.4-0.1-0.8-0.4-1.1c-0.3-0.3-0.7-0.5-1.1-0.4l-8.5,0.6c-0.4,0-0.8,0.2-1.1,0.6
		c-0.3,0.3-0.4,0.7-0.3,1.1c0,0,0.6,4.1-0.4,13.3c-0.5,4.3-2.9,6.3-5.2,6.3l0,0c-1.8,0-4.2-1.2-5.2-4.8c-2.2-7.9-0.2-17.8-0.2-17.9
		c0.1-0.5,0-0.9-0.3-1.3c-0.3-0.4-0.8-0.5-1.2-0.5l-11.9,1c-0.8,0.1-1.3,0.7-1.4,1.5C875.4,616.6,876.1,633.3,888.9,635.7z"/>
	<path class="st2" d="M903,595.6l8.5-0.6l-2,38.1l-5,0.2l-0.6-8.9c0,0-3.4,12.1-14.9,9.9c-11.5-2.2-12.3-17.9-11.9-40.9l11.9-1
		c0,0-2.2,10.3,0.2,18.7c2.4,8.3,12.3,7.7,13.3-1.8C903.6,599.7,903,595.6,903,595.6z"/>
	<g class="st6">
		<path class="st2" d="M878.1,607.7c3.5-0.6,7-0.8,10.5-0.7c-0.9-7.3,0.6-14.5,0.6-14.5l-11.9,1c-0.1,5.2-0.1,10,0,14.4
			C877.5,607.8,877.8,607.7,878.1,607.7z"/>
	</g>
	<g class="st6">
		<path class="st2" d="M902.6,609.3c0.6,0.2,1.2,0.4,1.8,0.6c2.1,0.8,4.2,1.7,6.3,2.6l0.9-17.6l-8.5,0.6
			C903,595.6,903.6,599.7,902.6,609.3L902.6,609.3z"/>
	</g>
	<g>
		<path class="st4" d="M877.3,593.4c0,1.8-0.1,3.6-0.1,5.3l0.3-3.8l10.5-0.2c-0.4,2.2,0.1,12.3,0.5,12.3c-0.9-7.3,0.6-14.5,0.6-14.5
			L877.3,593.4z"/>
	</g>
	<g>
		<path class="st4" d="M904,597l6.6-0.5c0,0-0.2,15.9,0,16l0.9-17.6l-8.5,0.6c0,0,0.3,2.1,0.1,6.6C903.1,604.1,904.1,598.6,904,597z
			"/>
	</g>
	<path class="st4" d="M888.9,609c0,0,1,6.1,5.5,7.4c4.5,1.3,7.3-2.8,7.8-4.8c0,0-2.6,6.5-7.2,5.9C889.1,616.8,888.9,609,888.9,609z"
		/>
	<path class="st7" d="M893.3,632.9c0-0.1-0.3-0.3-0.7-0.3c-0.2,0-0.5-0.1-0.7-0.1c-0.3-0.1-0.6-0.1-0.9-0.2
		c-1.3-0.2-2.7-0.7-3.7-1.2c-1-0.4-2.8-1.7-4-3.7c-1.3-1.9-1.9-4.3-2.2-5.6c-0.1-0.3-0.1-0.6-0.2-0.9c-0.1-0.3-0.1-0.5-0.2-0.7
		c-0.1-0.4-0.2-0.7-0.4-0.9c-0.2-0.4-0.5-0.5-0.6-0.5c-0.2,0-0.3,0-0.4,0.4c0,0.2-0.1,0.5,0,1c0,0.5,0.1,1.1,0.3,2
		c0.4,1.7,1.1,4,2.4,6.1c1.2,2.1,3.2,3.6,4.8,4.3c0.2,0.1,0.5,0.2,0.7,0.3c0.3,0.1,0.6,0.2,1,0.3c0.7,0.2,1.5,0.3,2.3,0.3
		c0.7,0,1.4,0,1.9-0.2C893,633.2,893.3,633.1,893.3,632.9z M879.3,615.3c0.3-0.1,1.1,0.4,1.1,1.6c0.1,1.2-0.7,1.1-1,0.6
		C878.6,616.1,879,615.4,879.3,615.3z"/>
	<path class="st7" d="M905.9,632.4c0,0.1,0.3,0.2,0.8,0.2c0.2,0,0.5,0,0.8,0c0.1,0,0.3,0,0.5,0c0.3,0,0.6-0.1,0.8-0.1
		c0.1-0.5,0.1-1,0.2-1.5c0-0.4,0.1-0.7,0.1-1c0.1-1.6,0.5-6.7,0.6-8.7s-0.2-2.3-0.4-2.3s-0.4-0.2-0.6,2.2c-0.2,2.4-0.4,6.5-0.6,8.7
		c0,0.2,0,0.5,0,0.9c0,0.2,0,0.4,0,0.6v0.1c0,0.1,0,0,0,0l0,0c0,0,0,0-0.1,0c-0.2,0-0.3,0.1-0.4,0.1c-0.3,0.1-0.6,0.1-0.8,0.2
		C906.2,632.2,905.9,632.3,905.9,632.4z M909.3,616.5c0.2,0,0.7,0.4,0.6,1.3c-0.1,0.9-0.6,0.7-0.7,0.3
		C908.8,617,909.2,616.5,909.3,616.5z"/>
</g>
<g>
	<path class="st0" d="M946.7,592.8c-1.7-1.2-3.4-2.4-5.2-3.2c-1.9-0.9-4-1.4-6.1-1.7c-4.7-0.6-9.6,0.1-14,1.9
		c-1.4,0.6-1.1,1.6-1,2.8c0.2,1.4,0.3,2.8,0.5,4.2c1.1,9.5,2.1,19.1,3.2,28.6c0.3,2.6,0.6,5.2,0.9,7.8v0.1c0,0.4,0.4,1,0.7,1.3
		c0.2,0.5,0.7,1,1,1.5c0.8,1.1,1.6,1.4,2.8,1.1c2.2-0.5,4.4-1,6.6-1.5c1.1-0.2,2.6-0.3,3.5-0.9c1.4-0.9,0.8-2.5,0.6-3.8
		c-0.5-2.9-1.1-5.8-1.6-8.8c3.7-0.2,7.2-1.4,10.2-3.5c2.7-1.9,4.4-4.8,5.2-7.9C955.7,604,952.5,596.6,946.7,592.8
		C946.5,592.7,950.1,595.1,946.7,592.8z M936,606.8c-0.1,0.2-0.2,0.3-0.3,0.4c-0.2-0.9-0.3-1.8-0.5-2.7c0.4,0.1,1.1,0.2,1.1,0.7
		C936.4,605.7,936.3,606.3,936,606.8C935.9,606.9,936.3,606.2,936,606.8z"/>
	<path class="st1" d="M932,587.7c-1.2,0-2.4,0.1-3.6,0.2c-2.6,0.3-5,1-7.4,2c-0.6,0.2-0.9,0.8-0.8,1.5l4.7,42c0,0.4,0.3,0.8,0.6,1
		c0.2,0.2,0.5,0.3,0.8,0.3c0.1,0,0.2,0,0.3,0l9.9-2.3c0.7-0.2,1.2-0.9,1.1-1.6l-2.1-11.2c0.1,0,0.2,0,0.4,0c4-0.2,7.4-1.4,10.4-3.6
		c4.4-3.3,6.3-9.6,4.7-15.4C948.7,592.5,941.6,587.7,932,587.7z M933.6,608.5l-1.3-6.9c1.9,0.2,3.2,1,3.8,2.4
		c0.4,0.9,0.4,1.9-0.1,2.9c-0.4,0.9-1.1,1.5-1.9,1.7C933.9,608.5,933.8,608.5,933.6,608.5z"/>
	<path class="st2" d="M949.7,600.9c-2.7-9.5-12.1-12.8-21-11.6c-2.4,0.3-4.8,1-7,1.9l1.1,10.2l3.6,31.8l9.9-2.3l-2.3-12.8
		c0.7,0,1.3,0,2-0.1c3.5-0.2,6.7-1.2,9.6-3.3C949.7,611.7,951.1,605.8,949.7,600.9z M934.4,609.8c-0.6,0.2-1.3,0.1-2-0.1l-1.8-9.6
		c2.7-0.1,5.5,0.5,6.8,3.2C938.5,605.8,937.1,609.2,934.4,609.8z"/>
	<path class="st3" d="M923.2,604.9c2.7-0.4,5.4-0.6,8.2-0.6l-0.8-4.2c2.7-0.1,5.5,0.5,6.8,3.2c0.2,0.4,0.3,0.7,0.3,1.1
		c4.2,0.3,8.3,0.9,12.4,1.8c0.2-1.8,0-3.6-0.5-5.3c-2.7-9.5-12.1-12.8-21-11.6c-2.4,0.3-4.8,1-7,1.9l1.1,10.2L923.2,604.9z"/>
	<path class="st4" d="M928.6,589.3c-2.4,0.3-4.8,1-7,1.9l1.1,10.2l-0.2-8.6c2-0.8,4-1.3,6.2-1.6c1.1-0.1,2.2-0.2,3.3-0.2
		c8.5,0,15.3,3.8,17.3,10.8c0.3,1.2,0.6,1.9,0.8,4.4c0.2-1.8,0-3.6-0.5-5.3C947,591.5,937.6,588.1,928.6,589.3z"/>
	<path class="st4" d="M930.8,601.1l1.6,8.5c0,0,2.1,0.9,3.9-0.9c1.9-1.8,1.4-4.6,1.4-4.6s1.7,5-2.9,6.3c-1.1,0.3-2.7,0-2.7,0
		L930.8,601.1z"/>
	<path class="st3" d="M935.3,616.8c0,0.3,0.7,0.5,1.6,0.4c0.9,0,1.9-0.2,2.7-0.4c0.7-0.2,2.2-0.7,3.6-1.5c1.4-0.8,2.7-1.9,3.3-2.6
		c0.3-0.4,0.5-0.7,0.6-1s0.1-0.5,0.1-0.7c0-0.3-0.2-0.5-0.3-0.5c-0.1-0.1-0.3-0.2-0.5,0c-0.2,0.1-0.4,0.5-1.1,1.3
		c-0.6,0.8-1.7,1.6-2.9,2.3s-2.4,1.2-3.4,1.4c-0.5,0.2-1.4,0.4-2.2,0.7C936,616.3,935.3,616.5,935.3,616.8z M947.2,608.2
		c0.1,0,0.4,0,0.6,0.2c0.2,0.2,0.4,0.5,0.3,1c-0.3,0.9-0.9,0.5-1,0.1c-0.2-0.5-0.3-0.8-0.2-1C946.9,608.4,947,608.3,947.2,608.2z"/>
	<path class="st3" d="M927.4,631.7c0.1,0.5,2.8,0.1,4.2-0.2l3.8-0.9l-0.7-5.1c-0.3-1.8-0.8-1.9-1.1-1.9s-0.7-0.1-0.4,2.1l0.5,3.8
		l-2.6,0.6C930.3,630.3,927.3,631.1,927.4,631.7z M933.3,621.3c0.3-0.1,1,0.2,1.1,0.9c0.1,0.8-0.6,0.8-0.9,0.5
		C932.7,621.8,933,621.3,933.3,621.3z"/>
</g>
<g>
	<path class="st0" d="M1395.7,312.4c-0.6,0.6-0.5,1.6-0.5,2.4c0,1.3,0.1,2.6,0.1,3.9c0,2.3,0.1,4.7,0.1,7c0,0.6,0.3,1,0.6,1.5
		c0.7,0.9,1.3,2.3,2.2,3c1,0.8,2.8,0.5,4,0.5c0.7,0,0.6,0,0.6,0.7c0,1,0.1,1.9,0.1,2.9c0.2,4.9,0.4,9.9,0.6,14.8
		c0,0.4-1.3,0.3-1.6,0.3c-1.1,0.1-2.3,0.1-3.4,0.2c-1.4,0.1-1.6,1.4-1.5,2.5c0.1,1.2,0.3,2.3,0.4,3.5c0.3,2.4,0.5,4.8,0.8,7.2
		c0.1,0.6,0.3,1,0.7,1.4c0.3,0.5,0.7,1,1,1.5s0.7,1.1,1.2,1.5c0.8,0.6,1.6,0.5,2.5,0.4c5.2-0.7,10.3-1.4,15.5-2.1
		c1.2-0.2,2.9-0.1,4-0.7c1.9-0.9,1.3-4.1,1.2-5.8c0-2.1-0.1-4.2-0.1-6.3c0-1.8-1.7-2.1-2.8-3.1c-0.5-0.5-1.5-1.2-2.2-1.2
		c-0.4,0-0.9,0-1.3,0.1c0.2-4.5,0.3-9.1,0.5-13.6c0-1.1,0.1-2.1,0.1-3.2c0-0.3-0.1-1,0.2-1c1.2,0,2.4,0,3.6,0c1.6,0,2.4-1.3,2.4-2.7
		c0-2.4-0.1-4.7-0.1-7.1c0-1.3-0.1-2.6-0.1-3.9c0-0.8,0.1-1.7-0.4-2.5c-0.3-0.4-3.4-2.8-4.3-2.9c-0.4-0.1-0.9,0-1.3,0
		c-2.3,0-4.6,0-7,0.1c-3.3,0-6.7,0.1-10,0.1c-1.2,0-2.3,0-3.5,0C1397.2,311.9,1396.3,311.8,1395.7,312.4
		C1395.4,312.7,1396,312.1,1395.7,312.4z"/>
	<path class="st1" d="M1395.7,312.4c-0.3,0.3-0.5,0.7-0.5,1.2l0.2,12.3c0,0.9,0.7,1.6,1.6,1.6h5.6l0.9,21.9l-5.1,0.3
		c-0.5,0-0.9,0.2-1.2,0.6c-0.3,0.3-0.4,0.8-0.4,1.3l1.3,11.6c0.1,0.4,0.3,0.8,0.6,1.1c0.3,0.2,0.6,0.3,1,0.3c0.1,0,0.1,0,0.2,0
		l19.5-2.6c0.8-0.1,1.4-0.8,1.4-1.7l-0.2-10.1c0-0.4-0.2-0.9-0.5-1.2c-0.3-0.3-0.8-0.5-1.2-0.4l-4.7,0.3l0.7-21.3h4.5l0,0
		c0.9,0,1.6-0.7,1.6-1.6c0-0.1,0-0.2,0-0.2l-0.2-12.3c0-0.9-0.7-1.6-1.7-1.6l-22.6,0.2C1396.5,311.9,1396,312.1,1395.7,312.4z"/>
	<polygon class="st2" points="1412.7,350.5 1413.6,325.8 1419.7,325.8 1419.5,313.3 1396.9,313.5 1397.1,325.8 1404.3,325.8 
		1405.4,350.9 1398.7,351.2 1400,362.8 1419.5,360.2 1419.3,350.1 	"/>
	<g class="st6">
		<path class="st2" d="M1404.3,325.8l0.4,9.8c2.8,0.2,5.7,0.4,8.5,0.6l0.4-10.5h6.1l-0.2-12.5l-22.6,0.2l0.2,12.3h7.2V325.8z"/>
	</g>
	<g>
		<polygon class="st4" points="1397.9,315.2 1419.2,315 1419.6,319.6 1419.5,313.3 1396.9,313.5 1397.1,322 		"/>
	</g>
	<polygon class="st4" points="1405.3,349.1 1405.7,351.6 1399.5,352.4 1399.6,359.9 1398.7,351.2 1405.3,350.7 	"/>
	<polygon class="st4" points="1412.8,349.1 1412.6,351.1 1418.9,350.9 1419.5,359.6 1419.3,350.1 1412.9,350.3 	"/>
	<path class="st7" d="M1400.7,361.2c0.1,0.6,3.9,0.3,5.9,0s8.3-1.3,10.7-1.7c0.5-0.1,1-0.2,1.4-0.2c0-0.5,0-0.9,0-1.2
		c0-0.2,0-0.3,0-0.3c0-0.1,0-0.2-0.1-0.2c-0.1-0.3-0.1-0.5-0.2-0.6c-0.2-0.3-0.4-0.4-0.5-0.4s-0.3-0.1-0.5,0.2
		c-0.1,0.1-0.1,0.3-0.2,0.6c0,0.2-0.1,0.3-0.1,0.5l0,0l0,0c-3,0.5-8.1,1.3-10.8,1.7C1404.9,359.8,1400.6,360.6,1400.7,361.2z
		 M1417.8,353.3c0.3-0.1,1.1,0.4,1.1,1.5c-0.1,1.1-0.9,0.9-1.1,0.4C1417,353.9,1417.5,353.4,1417.8,353.3z"/>
</g>
<g>
	<path class="st0" d="M1541.6,356.3c0.1,0.9,1.1,2,1.6,2.7c0.7,1,1.3,2,2.7,1.9c0.6-0.1,1.2-0.3,1.7-0.4c2.6-0.6,5.2-1.2,7.8-1.8
		c1.7-0.4,4.9-0.5,5.1-2.8c0.1-1-0.3-2.2-0.4-3.2c-1.4-8.9-2.8-17.7-4.1-26.6c0,0,0,0,0-0.1c4.2,0.2,8.4,0.4,12.6,0.7
		c0.9,0,1.7-0.1,2.3-0.9c0.5-0.7,0.4-1.6,0.3-2.5c-0.2-2.6-0.3-5.1-0.5-7.7c-0.1-1.1-0.1-2.3-0.2-3.4c-0.1-1-0.1-1.9-1-2.5
		s-1.9-1.3-2.8-1.9c-0.3-0.2-0.7-0.3-1.1-0.3s-0.7,0-1.1,0.1c-4.2,0.2-8.5,0.5-12.7,0.7c-5.6,0.3-11.1,0.6-16.7,0.9
		c-2,0.1-3.9,0.2-5.9,0.3c-0.8,0-2.1-0.1-2.8,0.4c-0.9,0.6-0.7,1.6-0.6,2.5c0.2,1.2,0.4,2.3,0.5,3.4c0.4,2.5,0.7,4.9,1.1,7.4
		c0.2,1.2,1,2.1,1.7,3.1c0.6,0.9,1.2,1.9,2.5,1.9c0.3,0,0.6-0.1,0.9-0.1c2.4-0.4,4.8-0.8,7.2-1.2c0.1,0,0.2,0,0.4-0.1
		c0.5,8.7,0.9,17.4,1.4,26.1C1541.5,354,1541.5,355.2,1541.6,356.3z"/>
	<path class="st1" d="M1541.6,356.3c0,0.5,0.3,0.9,0.6,1.2c0.3,0.2,0.6,0.3,0.9,0.3c0.1,0,0.2,0,0.3,0l12.7-2.9
		c0.8-0.2,1.3-1,1.2-1.8l-4.7-30.2l13.7,0.7h0.1l0,0c0.9,0,1.6-0.7,1.6-1.6c0-0.1,0-0.2,0-0.3l-0.8-12.7c-0.1-0.9-0.8-1.5-1.6-1.5
		l-38.5,2.1c-0.4,0-0.8,0.2-1.1,0.6c-0.3,0.3-0.4,0.8-0.3,1.2l1.9,12.3c0.1,0.4,0.3,0.8,0.6,1c0.3,0.2,0.8,0.3,1.2,0.3l10.6-1.8
		L1541.6,356.3z"/>
	<polygon class="st2" points="1527.1,311.3 1529,323.5 1541.3,321.5 1543.2,356.2 1555.9,353.3 1550.9,321.3 1566.5,322.1 
		1565.6,309.2 	"/>
	<path class="st3" d="M1541.3,321.5l0.6,10.5c3.6,0.1,7.1-0.1,10.6-0.5l-1.6-10.2l15.6,0.8l-0.8-12.9l-38.5,2.1l1.9,12.3
		L1541.3,321.5z"/>
	<polygon class="st4" points="1565.6,309.2 1527.1,311.3 1528,317 1528.2,313.4 1564.8,311.4 1566.3,319.7 	"/>
	<path class="st5" d="M1554,352.9c-0.1-0.6-5-0.2-7.7,0.1l-1.1,0.1l-0.8-11.5c-0.2-3.3-0.9-3.6-1.2-3.6c-0.3,0-0.7-0.2-0.4,3.8
		l1,13.2l2.8-0.4C1548.5,354.4,1554.1,353.5,1554,352.9z M1542.8,333.9c0.3-0.1,1.1,0.5,1.2,1.9c0.1,1.5-0.7,1.3-1,0.7
		C1542.1,334.8,1542.5,334,1542.8,333.9z"/>
</g>
<g>
	<path class="st1" d="M1508,324.6c-0.7,0-1.2,0.7-1.2,1.4c0,2.1-0.1,4.3-0.1,6.4c-5.7,0.2-11.3,0.4-17,0.5c0-1.8-0.1-3.6-0.1-5.4
		c0-0.4-0.2-0.7-0.5-1c-0.3-0.2-0.6-0.4-1-0.3c-2.1,0.3-4.1,0.6-6.2,0.9c-0.1,2.6-0.1,5.6,0.3,9c0.4,4.2,1.2,7.8,2,10.7
		c1.7-0.1,3.5-0.1,5.2-0.2c0.3,0,0.7-0.2,0.9-0.5c0.2-0.3,0.1-5.1,0.1-5.1l16.6,0.3l0.1,3.9l0,0c0,0.8,0.6,1.4,1.3,1.4
		c0.1,0,0.1,0,0.2,0L1508,324.6z"/>
	<g>
		<polygon class="st4" points="1516.3,326.5 1516.7,344.6 1513.1,345.1 1518,344.9 1517.5,325.6 1511,325.8 		"/>
	</g>
	<path class="st7" d="M1480.5,329.5c-0.5,0.1-0.2,3.3,0.1,5c0.3,1.7,1.1,7,1.5,9.2c0.1,0.4,0.1,0.9,0.2,1.2c0.4,0,0.7,0,1,0
		c0.2,0,0.2,0,0.3,0c0.1,0,0.1,0,0.2,0c0.2-0.1,0.4-0.1,0.5-0.2c0.2-0.2,0.3-0.3,0.3-0.5c0-0.1,0-0.3-0.1-0.4s-0.2-0.1-0.5-0.2
		c-0.1,0-0.3,0-0.4-0.1l0,0l0,0c-0.4-2.5-1.1-6.9-1.5-9.2C1481.7,333.1,1481,329.4,1480.5,329.5z M1486.9,344c0,0.3-0.3,1-1.2,0.9
		c-0.9,0-0.7-0.7-0.4-1C1486.4,343.4,1486.8,343.8,1486.9,344z"/>
	<path class="st0" d="M1472.9,310.9c-0.4,0.4-0.4,1.1-0.4,2.2c0,1.2,0,2.4,0.1,3.5c0,2.1,0.1,4.3,0.1,6.4c0,0.6,0.2,1,0.5,1.4
		c0.5,0.9,1,2.1,1.7,2.7c0.8,0.7,2.1,0.5,3.1,0.5c0.5,0,0.4,0,0.5,0.7c0,0.9,0.1,1.8,0.1,2.6c0.2,4.5,0.3,9,0.5,13.4
		c0,0.4-1,0.2-1.3,0.3c-0.9,0.1-1.8,0.1-2.7,0.2c-1.1,0.1-1.2,1.3-1.1,2.3c0.1,1.1,0.2,2.1,0.3,3.2c0.2,2.2,0.4,4.4,0.6,6.6
		c0.1,0.5,0.3,0.9,0.5,1.3c0.3,0.5,0.5,0.9,0.8,1.4s0.5,1,0.9,1.4c0.6,0.5,1.3,0.4,1.9,0.3c4-0.6,8-1.3,12-1.9
		c0.9-0.2,2.2-0.1,3.1-0.6c1.5-0.8,1-3.7,0.9-5.3c0-1.9-0.1-3.8-0.1-5.8c0-1.2-0.8-1.2-2.2-2.9c-1.2-1.5-2-2.8-2.4-3.7
		c5.5,0.1,11,0.2,16.6,0.3c0.4-0.1,0.8-0.2,1.2-0.4c-6-2.1-11.9-4.1-17.9-6.2c0-0.8,0.2-2.1,0.2-3.4c0-0.2,0.1-1.1,0.1-2.9
		c0-0.2-0.1-0.9,0.2-0.9c0.9,0,1.9,0,2.8,0c1.3,0,1.9-1.1,1.9-2.5c0-2.2-0.1-4.3-0.1-6.5c0-1.2,0-2.4-0.1-3.5c0-0.8,0.1-1.6-0.3-2.2
		c-0.2-0.3-2.7-2.6-3.3-2.7c-0.3-0.1-0.7,0-1,0c-1.8,0-3.6,0-5.4,0.1c-2.6,0-5.2,0.1-7.8,0.1c-0.5,0-1.2,0-2.7,0
		C1473.6,310.5,1473.2,310.5,1472.9,310.9z"/>
	<path class="st1" d="M1472.9,310.9c-0.2,0.3-0.4,0.7-0.4,1.1l0.2,11.2c0,0.8,0.6,1.5,1.3,1.5h4.3l0.7,19.9l-4,0.2
		c-0.4,0-0.7,0.2-0.9,0.5c-0.2,0.3-0.3,0.7-0.3,1.1l1,10.6c0,0.4,0.2,0.8,0.5,1c0.2,0.2,0.5,0.3,0.8,0.3c0.1,0,0.1,0,0.2,0l15.2-2.4
		c0.6-0.1,1.1-0.8,1.1-1.5l-0.2-9.2c0-0.4-0.2-0.8-0.4-1.1c-0.3-0.3-0.6-0.4-0.9-0.4l-3.7,0.2l0.6-19.4h3.5l0,0
		c0.7,0,1.3-0.7,1.3-1.5c0-0.1,0-0.1,0-0.2l-0.2-11.2c0-0.8-0.6-1.5-1.3-1.5l-17.6,0.2C1473.4,310.4,1473.1,310.6,1472.9,310.9z"/>
	<polygon class="st2" points="1486.1,345.6 1486.7,323.1 1491.5,323.1 1491.3,311.7 1473.8,311.9 1473.9,323.1 1479.5,323.1 
		1480.4,345.9 1475.1,346.2 1476.2,356.8 1491.3,354.4 1491.2,345.2 	"/>
	<g class="st6">
		<path class="st2" d="M1479.5,323.1l0.3,9c2.2,0.1,4.4,0.3,6.6,0.6l0.3-9.6h4.7l-0.2-11.4l-17.6,0.2l0.2,11.2L1479.5,323.1
			L1479.5,323.1z"/>
	</g>
	<g>
		<polygon class="st4" points="1474.6,313.4 1491.1,313.2 1491.4,317.4 1491.3,311.7 1473.8,311.9 1473.9,319.6 		"/>
	</g>
	<polygon class="st4" points="1480.3,344.3 1480.6,346.6 1475.8,347.3 1475.9,354.1 1475.1,346.2 1480.3,345.8 	"/>
	<polygon class="st4" points="1486.1,344.3 1486,346.1 1490.9,345.9 1491.3,353.9 1491.2,345.2 1486.2,345.4 	"/>
	<path class="st7" d="M1476.7,355.4c0.1,0.6,3,0.3,4.6,0s6.4-1.2,8.4-1.6c0.4-0.1,0.8-0.2,1.1-0.2c0-0.4,0-0.8,0-1.1
		c0-0.2,0-0.2,0-0.3c0-0.1,0-0.1,0-0.2c0-0.3-0.1-0.4-0.2-0.6c-0.1-0.3-0.3-0.3-0.4-0.3s-0.2-0.1-0.4,0.2c-0.1,0.1-0.1,0.3-0.2,0.6
		c0,0.1,0,0.3-0.1,0.5l0,0l0,0c-2.3,0.4-6.3,1.2-8.4,1.6C1480,354,1476.7,354.8,1476.7,355.4z M1490,348.1c0.2-0.1,0.9,0.4,0.8,1.4
		c0,1-0.7,0.8-0.9,0.4C1489.4,348.7,1489.8,348.2,1490,348.1z"/>
	<path class="st0" d="M1500.9,310.9c-0.5,0.6-0.4,1.5-0.4,2.2c0,1.2,0,2.4,0.1,3.5c0,2.1,0.1,4.3,0.1,6.4c0,0.6,0.2,1,0.5,1.4
		c0.5,0.9,1,2.1,1.7,2.7c0.8,0.7,2.1,0.5,3.1,0.5c0.5,0,0.4,0,0.5,0.7c0,0.9,0.1,1.8,0.1,2.6c0.2,4.5,0.3,9,0.5,13.4
		c0,0.4-1,0.2-1.3,0.3c-0.9,0.1-1.8,0.1-2.7,0.2c-1.1,0.1-1.2,1.3-1.1,2.3c0.1,1.1,0.2,2.1,0.3,3.2c0.2,2.2,0.4,4.4,0.6,6.6
		c0.1,0.5,0.3,0.9,0.5,1.3c0.3,0.5,0.5,0.9,0.8,1.4s0.5,1,0.9,1.4c0.6,0.5,1.3,0.4,1.9,0.3c4-0.6,8-1.3,12-1.9
		c0.9-0.2,2.2-0.1,3.1-0.6c1.5-0.8,1-3.7,0.9-5.3c0-1.9-0.1-3.8-0.1-5.8c0-1.6-1.3-1.9-2.2-2.9c-0.4-0.5-1.1-1.1-1.7-1
		c-0.3,0-0.7,0-1,0.1c0.1-4.1,0.2-8.3,0.4-12.4c0-1,0.1-1.9,0.1-2.9c0-0.2-0.1-0.9,0.2-0.9c0.9,0,1.9,0,2.8,0c1.3,0,1.9-1.1,1.9-2.5
		c0-2.2-0.1-4.3-0.1-6.5c0-1.2,0-2.4-0.1-3.5c0-0.8,0.1-1.6-0.3-2.2c-0.2-0.3-2.7-2.6-3.3-2.7c-0.3-0.1-0.7,0-1,0
		c-1.8,0-3.6,0-5.4,0.1c-2.6,0-5.2,0.1-7.8,0.1c-0.9,0-1.8,0-2.7,0C1502,310.4,1501.3,310.3,1500.9,310.9
		C1500.6,311.2,1501.1,310.6,1500.9,310.9z"/>
	<path class="st1" d="M1500.9,310.9c-0.2,0.3-0.4,0.7-0.4,1.1l0.2,11.2c0,0.8,0.6,1.5,1.3,1.5h4.3c0.1,3.1,0.2,6.3,0.3,9.4
		c-0.2,2.1-0.4,4.2-0.6,6.4c0.7,0.4,1.4,0.8,2.2,1.3c-0.4-0.1-0.9-0.1-1.3-0.2c0,1,0.1,2.1,0.1,3.1c-1.3,0.1-2.6,0.2-4,0.2
		c-0.4,0-0.7,0.2-0.9,0.5c-0.2,0.3-0.3,0.7-0.3,1.1l1,10.6c0,0.4,0.2,0.8,0.5,1c0.2,0.2,0.5,0.3,0.8,0.3c0.1,0,0.1,0,0.2,0l15.2-2.4
		c0.6-0.1,1.1-0.8,1.1-1.5l-0.2-9.2c0-0.4-0.2-0.8-0.4-1.1c-0.3-0.3-0.6-0.4-0.9-0.4l-3.7,0.2l0.6-19.4h3.5l0,0
		c0.7,0,1.3-0.7,1.3-1.5c0-0.1,0-0.1,0-0.2l-0.2-11.2c0-0.8-0.6-1.5-1.3-1.5l-17.6,0.2C1501.4,310.4,1501.1,310.6,1500.9,310.9z"/>
	<polygon class="st2" points="1514.1,345.6 1514.8,323.1 1519.5,323.1 1519.3,311.7 1501.8,311.9 1502,323.1 1507.5,323.1 
		1508.4,345.9 1503.2,346.2 1504.2,356.8 1519.3,354.4 1519.2,345.2 	"/>
	<g class="st6">
		<path class="st2" d="M1507.5,323.1l0.3,9c2.2,0.1,4.4,0.3,6.6,0.6l0.3-9.6h4.7l-0.2-11.4l-17.6,0.2l0.2,11.2L1507.5,323.1
			L1507.5,323.1z"/>
	</g>
	<g>
		<polygon class="st4" points="1502.6,313.4 1519.1,313.2 1519.4,317.4 1519.3,311.7 1501.8,311.9 1501.9,319.6 		"/>
	</g>
	<polygon class="st4" points="1508.3,344.3 1508.6,346.6 1503.8,347.3 1503.9,354.1 1503.2,346.2 1508.3,345.8 	"/>
	<polygon class="st4" points="1514.1,344.3 1514,346.1 1518.9,345.9 1519.3,353.9 1519.2,345.2 1514.2,345.4 	"/>
	<path class="st7" d="M1504.8,355.4c0.1,0.6,3,0.3,4.6,0s6.4-1.2,8.4-1.6c0.4-0.1,0.8-0.2,1.1-0.2c0-0.4,0-0.8,0-1.1
		c0-0.2,0-0.2,0-0.3c0-0.1,0-0.1,0-0.2c0-0.3-0.1-0.4-0.2-0.6c-0.1-0.3-0.3-0.3-0.4-0.3s-0.2-0.1-0.4,0.2c-0.1,0.1-0.1,0.3-0.2,0.6
		c0,0.1,0,0.3-0.1,0.5l0,0l0,0c-2.3,0.4-6.3,1.2-8.4,1.6C1508,354,1504.7,354.8,1504.8,355.4z M1518,348.1c0.2-0.1,0.9,0.4,0.8,1.4
		c0,1-0.7,0.8-0.9,0.4C1517.4,348.7,1517.8,348.2,1518,348.1z"/>
	<path class="st2" d="M1486.8,339.6c7.1,0.1,14.3,0.3,21.4,0.4c0,1.7,0,3.5,0.1,5.2c1.9,0.1,3.9,0.2,5.8,0.3
		c0.2-6.6,0.3-13.3,0.5-19.9c0,2.3-0.1,4.7-0.1,7c-2.1-0.2-4.3-0.4-6.4-0.6c-0.1,0.6-0.2,1.3-0.3,1.9c-7.1,0-14.3,0.1-21.4,0.1
		c0.1-0.5,0.1-0.9,0.2-1.4c-2.2-0.7-4.4-1.4-6.6-2.1c0,1.7,0,3.5,0,5.2c0.2,2.9,0.3,5.7,0.5,8.6c1.9,0.4,3.9,0.8,5.8,1.3
		C1486.3,343.6,1486.5,341.6,1486.8,339.6z"/>
</g>
<g>
	<path class="st0" d="M1348.6,313.2c0.3,8.3,0.7,16.6,1,24.9c0.2,5.5,0.5,10.9,0.7,16.4c0.1,1.6,0.1,3.3,0.2,4.9c0,0.4,0,0.7,0,1.1
		v0.1c0,0.6,0.3,1,0.6,1.4c0.4,0.5,0.8,1.2,1.2,1.7c0.6,1.3,1.6,1.8,2.9,1.8c1.1,0,2.2-0.1,3.3-0.1c2.6-0.1,5.3-0.2,8-0.3
		c1.2-0.1,2.4-0.3,2.8-1.6c0.3-0.8,0-1.9-0.2-2.7c-0.4-2.6-0.8-5.1-1.2-7.7c0-0.1,0-0.2,0-0.3c3.5,2.7,7.1,5.4,10.6,8.1
		c0.9,0.7,2,1.1,3.1,0.4c0.6-0.4,1-1.1,1.5-1.6c1.8-2.1,3.5-4.3,5.3-6.4c0.7-0.9,1.9-1.9,2.3-3c0.2-0.7,0.1-1.3-0.2-1.9
		c-0.2-0.4-0.6-1.4-1.1-1.6c-0.7-0.3-1.5-0.7-2.2-1c-2.6-1.2-5.2-2.5-7.8-3.7c4-2.2,6.8-5.9,7.8-10.4c1-4.4,0-9.2-2.9-12.7
		c-1.6-1.9-3.6-3.2-5.6-4.6c-2.1-1.5-4.3-2.7-6.8-3.5c-5.1-1.7-10.5-1.7-15.7-0.7c-1.6,0.3-3.3,0.7-4.9,1.2
		C1350.2,311.4,1348.6,311.8,1348.6,313.2z M1365.6,329.2c0.4,0.1,0.8,0.2,1.2,0.3c-0.3,0.3-0.8,0.4-1.1,0.5
		C1365.6,329.7,1365.6,329.4,1365.6,329.2z"/>
	<path class="st1" d="M1348.6,313.2l2,47.3c0,0.9,0.8,1.6,1.6,1.6c0,0,0,0,0.1,0l12.5-0.4c0.5,0,0.9-0.2,1.2-0.6
		c0.3-0.4,0.4-0.8,0.4-1.3l-1.8-11.3l12.3,9.3c0.7,0.5,1.7,0.4,2.2-0.3l8.1-9.8c0.3-0.4,0.5-0.9,0.3-1.4c-0.1-0.5-0.5-0.9-0.9-1.1
		l-12-5.7c1.2-0.5,2.3-1.1,3.3-1.8c5.7-3.8,8-11.8,5.3-18c-2.7-6.1-10.4-9.6-16.7-10.3c-1.9-0.2-4.1-0.2-6.5,0
		c-1.5,0.1-2.9,0.4-4.4,0.6c-3.2,0.6-4.9,1.2-5.9,1.7C1349,311.9,1348.6,312.5,1348.6,313.2z M1367,329c-0.1,0.4-0.3,0.9-1.8,0.9
		c-0.8,0-1.8-0.2-2.8-0.4l-0.2-3.8c1.6,0.1,3.6,0.9,4.4,1.9C1367,328.1,1367.1,328.5,1367,329z"/>
	<path class="st2" d="M1385.9,346.7l-15.8-7.5c2.4-0.6,4.7-1.5,6.8-2.9c5.2-3.5,7.1-10.6,4.7-16c-2.5-5.6-9.6-8.7-15.4-9.4
		c-1.9-0.2-4.1-0.2-6.2,0c-1.4,0.1-2.9,0.3-4.2,0.6c-2.9,0.5-4.5,1.1-5.6,1.6l0.1,2.4l1.9,45l12.5-0.4l-2.4-15.3l15.6,11.8
		L1385.9,346.7z M1361.2,324.2c2.9-0.3,8.4,1.6,7.4,5.3c-0.8,3.1-4.6,2.1-7.7,1.5l-0.3-6.7C1360.8,324.2,1361,324.2,1361.2,324.2z"
		/>
	<g class="st8">
		<path class="st2" d="M1351.1,333.9c4.9,1.8,10,3.5,15.2,3.6c3.5,0,7.1-0.4,10.6-1c0.1,0,0.1-0.1,0.2-0.1c5.2-3.5,7.1-10.6,4.7-16
			c-2.5-5.6-9.6-8.7-15.4-9.4c-1.9-0.2-4.1-0.2-6.2,0c-1.4,0.1-2.9,0.3-4.2,0.6c-2.9,0.5-4.5,1.1-5.6,1.6l0.1,2.4L1351.1,333.9z
			 M1361.2,324.2c2.9-0.3,8.4,1.6,7.4,5.3c-0.8,3.1-4.6,2.1-7.7,1.5l-0.3-6.7C1360.8,324.2,1361,324.2,1361.2,324.2z"/>
	</g>
	<path class="st4" d="M1367.7,326.4c0.8,0.8,1.2,1.8,0.8,3.1c-0.8,3.1-4.6,2.1-7.7,1.5l-0.2-6.4h-0.1l0.1,7.2l1.1,0.2
		c1.4,0.3,2.9,0.6,4.3,0.6c2.9,0,3.3-0.9,3.6-2.2c0.3-1.3,0.1-1.9-0.7-2.9C1368.5,327.1,1368.1,326.7,1367.7,326.4z"/>
	<path class="st4" d="M1351.3,315.1c1-0.3,2.4-0.8,4.8-1.2c1.3-0.3,2.7-0.5,4.1-0.6c1.1-0.1,2.2-0.1,3.3-0.1c1,0,1.9,0,2.7,0.1
		c5.7,0.7,12.4,3.6,14.6,8.8c2,4.6,0.7,10.3-3,13.7c4.6-3.7,6.1-10.2,3.9-15.4c-2.5-5.6-9.6-8.7-15.4-9.4c-1.9-0.2-4.1-0.2-6.2,0
		c-1.4,0.1-2.9,0.3-4.2,0.6c-2.9,0.5-4.5,1.1-5.6,1.6l0.1,2.4l0.2,5.2L1351.3,315.1z"/>
	<polygon class="st4" points="1370.2,339.3 1385.9,346.7 1381.6,352 1384.1,346.9 1368.1,339.3 	"/>
	<path class="st3" d="M1353.8,359c0.1,0.7,3.8,0.5,5.9,0.3l3.9-0.4l-1.2-8.8c-0.4-2.5-1-2.7-1.4-2.7c-0.3,0-0.8-0.1-0.4,2.9l1,7
		l-2.1,0.2C1358.1,357.8,1353.7,358.4,1353.8,359z M1360.5,344.3c0.3-0.1,1.2,0.2,1.3,1.4c0.1,1.1-0.7,1-1,0.6
		C1359.8,345.1,1360.2,344.5,1360.5,344.3z"/>
</g>
<g>
	<path class="st0" d="M1430.1,336.1c0.1,4.3,1.4,8.7,3.5,12.5c1,1.9,2.3,3.7,3.5,5.4c1.3,1.9,2.8,3.6,4.7,4.9
		c3.6,2.6,8.3,3.3,12.5,1.8c2-0.7,3.8-1.9,5.3-3.3c0.7-0.7,1.4-1.4,1.9-2.1c0.3-0.4,0.6-0.8,0.8-1.2c0.2-0.3,0.3-0.9,0.7-0.7
		c0.7,0.3,1.3,0.6,2.1,0.3c0.7-0.2,1.1-0.9,1.3-1.6c0.2-0.9,0.3-1.7,0.5-2.6c0.2-1.2,0.4-2.4,0.6-3.6c0.2-0.9,0.4-1.9-0.3-2.7
		c-0.5-0.6-1.4-0.9-2-1.4c-0.4-0.3-0.8-0.8-1.4-0.9c-0.6-0.2-1.2-0.4-1.9-0.5c-2.3-0.7-4.7-1.4-7-2c-1.3-0.4-4-1.7-4.4,0.4
		c-0.2,1-0.4,2-0.6,3c-0.2,0.8-0.5,1.7-0.5,2.5s0.6,1.2,1.1,1.6c0.1,0.2,0.3,0.5,0.5,0.7c0.1,0.2-0.8,0.9-0.9,1
		c-0.8,0.6-1.7,0.6-2.6,0.3c-0.9-0.3-1.3-1.5-1.6-2.3c-0.8-2.5-0.4-5.7,0.4-8.1c0.5-1.4,1.3-2.8,2.5-3.8c0.7-0.5,1.5-1,2.3-1
		c0.5,0,1,0.2,1.4,0.5s0.6,0.7,0.9,1c0.4,0.7,0.9,1.7,1.7,1.9c0.5,0.1,2.6,0.1,3.5,0.1c1.9,0,3.5,0,5.4,0.2c0.7,0.1,1.4,0.1,2-0.4
		c0.9-0.6,1-2,1.2-2.9c0.5-2.1,0.9-4.2,1.3-6.3c0.1-0.7,0.2-1.3-0.2-1.9c-0.5-0.7-1.8-1.5-2.5-2c-0.6-0.4-0.5-0.4-1.3-0.6
		c-0.3-0.1-0.4,0-0.5-0.3c-0.1-0.2-0.2-0.5-0.3-0.7c-0.2-0.5-0.5-1-0.8-1.5c-1.1-1.7-2.6-2.9-4.2-4.1c-1.8-1.2-3.5-2.5-5.6-3.2
		c-4.1-1.4-8.2-0.8-12,1.1c-5.2,2.7-8.7,7.6-10.2,13.2C1430.4,329.7,1430,332.9,1430.1,336.1C1430.3,341.5,1430,331.6,1430.1,336.1z
		"/>
	<path class="st1" d="M1430.1,336.1c0.2,7.3,3.9,15.3,9,19.5c2.4,2,5.4,3.1,8.4,3.1c2,0,4-0.5,5.8-1.4c3.1-1.6,5.5-4,7.1-7l1.3,0.6
		c0.4,0.2,0.8,0.2,1.2,0c0.4-0.2,0.7-0.6,0.7-1l1.3-7.3c0.1-0.7-0.3-1.4-1-1.6l-11.5-3.3c-0.4-0.1-0.8-0.1-1.1,0.1
		c-0.3,0.2-0.6,0.5-0.7,0.9l-1.1,5.4c-0.1,0.6,0.2,1.3,0.8,1.6l1.1,0.5c-0.7,1.2-1.9,2.2-3.4,1.9c-3.1-0.7-5.1-3.2-5.2-6.9
		c-0.1-1.9,0.1-8.4,4.5-10.8c0.5-0.3,1.1-0.4,1.6-0.4c1.4,0,2.7,1,3.4,2.6c0.2,0.6,0.8,0.9,1.4,0.8s1.3-0.1,2.3-0.1
		c2.4,0,5.3,0.2,6.2,0.3c0.2,0,0.4,0,0.4,0c0.6,0,1.2-0.4,1.4-1c0.3-1.1,0.6-2.3,0.9-3.6c0.3-1.4,0.6-2.8,0.8-4.2l0.2-0.9
		c0.1-0.7-0.3-1.3-0.9-1.6c-0.3-0.1-0.8-0.2-3.1-0.6c0-0.1-0.1-0.2-0.1-0.3c0,0,0,0,0-0.1c-1.2-6.3-7.8-9.8-13.3-9.8
		c-1.4,0-2.7,0.2-3.9,0.6C1430.6,316.6,1430,331.6,1430.1,336.1z"/>
	<path class="st2" d="M1446.8,329.1c3-1.6,5.8,0.2,6.9,2.9c2.8-0.3,8.9,0.2,9.1,0.2c0.3-1.2,0.6-2.4,0.9-3.6c0.4-1.6,0.7-3.3,1-5
		c-0.3-0.1-3.7-0.6-3.8-0.6l-0.4-1.3c-1.3-6.6-9.4-10-15.4-8.1c-10.9,3.3-13.9,14-13.7,22.5c0.2,6.4,3.4,14.2,8.5,18.4
		c3.5,2.9,8.4,3.7,12.7,1.5c3.5-1.7,5.7-4.4,7-7.6l2.6,1.2l1.3-7.3l-2.8-0.8l-8.8-2.5l-1.1,5.4l0.4,0.2l2,0.9
		c-0.9,2.4-2.8,4.5-5.5,3.9c-4-0.9-6.2-4.2-6.3-8.2C1441.4,336.8,1442.6,331.3,1446.8,329.1z"/>
	<path class="st3" d="M1431.5,336.2c3.4,0.2,6.9,0.5,10.3,0.9c0.6-3.3,2-6.4,5-8s5.8,0.2,6.9,2.9c2.8-0.3,8.9,0.2,9.1,0.2
		c0.3-1.2,0.6-2.4,0.9-3.6c0.4-1.6,0.7-3.3,1-5c-0.3-0.1-3.7-0.6-3.8-0.6l-0.4-1.3c-1.3-6.6-9.4-10-15.4-8.1
		c-10.9,3.3-13.9,14-13.7,22.5C1431.5,336.1,1431.5,336.1,1431.5,336.2z"/>
	<path class="st4" d="M1445.4,314.9c1-0.3,2.1-0.5,3.2-0.5c4.6,0,10.1,3.3,11.1,8.4v0.1c0.3,1.6,0.6,1.8,0.8,1.9
		c0.1,0.1,0.1,0.1,0.8,0.2c0.5,0.1,1.6,0.2,2.3,0.4v0.1c-0.3,1.3-0.9,6.7-0.9,6.7c0.3-1.2,0.6-2.4,0.9-3.6c0.4-1.6,0.7-3.3,1-5
		c-0.3-0.1-3.7-0.6-3.8-0.6l-0.4-1.3c-1.3-6.6-9.4-10-15.4-8.1c-9.2,2.8-12.8,10.9-13.5,18.4
		C1431.5,333.4,1433.6,318.6,1445.4,314.9z"/>
	<polygon class="st4" points="1451.1,343.7 1452.1,338.9 1463.6,342.3 1452.7,339.9 	"/>
	<path class="st4" d="M1442,336.2c0,0-2.2,9.1,3.8,12.5c5.5,3.1,7.5-3.2,7.5-3.2s-1,6.8-7.4,4.2C1439.7,347,1441.3,338.5,1442,336.2
		z"/>
	<path class="st3" d="M1452.6,355c-0.1-0.3-1.2,0.1-2.6,0.3c-1.4,0.2-3,0.1-4.2-0.2c-0.3,0-0.6-0.2-1-0.3c-0.2-0.1-0.4-0.2-0.6-0.3
		c-0.2-0.1-0.5-0.2-0.7-0.3c-1-0.5-2-1.2-2.9-2c-1-0.8-1.8-1.8-2.5-2.8c-0.2-0.2-0.3-0.5-0.5-0.7c-0.1-0.2-0.3-0.5-0.4-0.7
		c-0.3-0.4-0.5-0.8-0.7-1.2c-1.4-2.7-2-2.8-2.3-2.7c-0.2,0.1-0.8,0.1,1,3.4c0.4,0.8,1,1.8,1.7,2.8s1.6,2,2.5,2.8
		c1.9,1.7,4.3,2.9,6,3.3c0.9,0.3,2.9,0.4,4.5,0C1451.6,356.1,1452.7,355.2,1452.6,355z M1432.8,340.5c0.2-0.1,1.1,0.2,1.4,1.5
		c0.4,1.2-0.2,1.3-0.7,0.9c-0.6-0.7-0.8-1.3-0.9-1.7C1432.6,340.8,1432.7,340.6,1432.8,340.5z"/>
</g>
<g>
	<path class="st0" d="M358.8,379.8c0.2,0.5,0.7,1.1,1,1.5c0.2,0.5,0.6,1,0.9,1.4c0.4,0.5,1.1,0.8,1.8,0.8c0.5,0,1,0,1.4,0
		c2.3,0,4.7,0,7,0c4.8,0,9.7,0,14.5,0c0.8,0,1.5-0.1,2.1-0.7c0.7-0.8,0.6-1.8,0.6-2.7c0.1-2.5,0.1-5,0.2-7.5c0-0.4,0-0.7-0.1-1.1
		c-0.3-1.1-1.4-1.3-2.1-2c-1-0.8-2-1.4-3.2-1.5c-1.3,0-2.7-0.1-4-0.1c-0.5,0-0.9,0-1.4,0c-0.3,0-0.2-0.7-0.2-0.9c0-0.3,0-0.5,0-0.8
		c2.2,0.1,4.4,0.2,6.6,0.3c0.8,0,1.7,0.2,2.4-0.1c1.3-0.4,1.5-1.6,1.6-2.7c0.3-2.5,0.5-5,0.7-7.5c0-0.3,0.1-0.6,0-1
		c-0.2-1.2-1-1.3-1.7-2c-0.6-0.6-1.4-1-2.1-1.5c-0.4-0.3-0.9-0.4-1.4-0.4c-1.3,0-2.6-0.1-3.9-0.2c-0.4,0-2.2,0.2-2.2-0.3
		c0-0.1,0-1.2,0-1.2c0.3,0,0.5,0,0.8,0c1.2,0,2.4,0,3.7,0c2.1,0,4.3,0.2,6.3,0c2.7-0.3,2-4,1.9-5.9c0-2.6-0.1-5.1-0.1-7.7
		c0-1.2-0.4-2-1.5-2.8c-0.7-0.4-1.3-0.9-2-1.4c-0.5-0.3-0.9-0.6-1.5-0.6c-3.8,0.3-7.6,0.7-11.4,1c-5.2,0.4-10.5,0.9-15.7,1.3
		c-1.1,0.1-3-0.1-3.7,1c-0.4,0.8-0.1,2,0,2.9c1,10.2,2,20.4,3,30.6c0.3,2.6,0.5,5.2,0.8,7.9C358.2,376.9,358,378.9,358.8,379.8
		C358.9,379.9,358.6,379.5,358.8,379.8z"/>
	<path class="st1" d="M360,380.2h23.4c0.9,0,1.6-0.7,1.6-1.6l0.2-9.2c0-0.4-0.2-0.8-0.4-1.1c-0.3-0.3-0.7-0.5-1.1-0.5l-9.3-0.2
		l-0.1-4.9l8.9,0.4c0.8,0,1.6-0.6,1.7-1.4l0.9-8.7c0-0.4-0.1-0.9-0.4-1.2c-0.3-0.3-0.7-0.5-1.1-0.6l-9.8-0.4v-4.5h11.2
		c0.4,0,0.8-0.2,1.1-0.5s0.5-0.7,0.5-1.1l-0.2-11.9c0-0.4-0.2-0.9-0.5-1.2c-0.3-0.3-0.8-0.5-1.2-0.4l-29.6,2.6
		c-0.4,0-0.8,0.2-1.1,0.6c-0.3,0.3-0.4,0.8-0.4,1.2l4.3,43.2C358.5,379.6,359.1,380.2,360,380.2z"/>
	<polygon class="st2" points="385.3,332.8 385.5,344.8 372.7,344.8 372.7,352.4 384,352.8 383.2,361.6 372.5,361.2 372.7,369.2 
		383.6,369.5 383.4,378.6 360,378.6 355.7,335.4 	"/>
	<path class="st3" d="M359.7,361.2c3.6,0.5,7,0.6,10.7,0c2.7-0.4,5.4-1.1,8.8-2.1c1.5-0.5,2.9-0.9,4.3-1.4l0.5-4.9l-11.3-0.4v-7.7
		h12.8l-0.2-11.9l-29.6,2.6l2.5,25.6C358.7,361.1,359.2,361.2,359.7,361.2z"/>
	<path class="st4" d="M372.2,353.1l11.2,0.6c0,0,0,1.4,0.2,4.1l0.5-4.9l-11.3-0.4v-7.4L372.2,353.1z"/>
	<polygon class="st4" points="357,337 384.3,334.4 385.5,344.8 385.3,332.8 355.7,335.4 357.3,351.5 	"/>
	<polygon class="st4" points="372.5,361.2 372.7,369.2 383.6,369.5 383.5,373.1 382.9,370.4 372,369.8 	"/>
	<path class="st3" d="M381.3,378c0-0.6-5.3-1.2-8.2-1.4l-10.5-0.6l-0.2-3.6c-0.2-3.6-0.9-4-1.2-4c-0.3,0-0.8-0.2-0.5,4.1l0.3,5.1
		l12,0.7C375.1,378.4,381.2,378.7,381.3,378z M360.7,363.9c0.3-0.1,1.1,0.5,1.2,2.1s-0.7,1.4-1,0.7C360,364.9,360.4,364,360.7,363.9
		z"/>
</g>
<g>
	<path class="st0" d="M350.9,385.2c2.6,0,2.2-3.2,2.3-5c0.1-2.7,0.2-5.4,0.4-8.1c0-0.8,0.1-1.6,0.1-2.4c0.1-1.6-1.2-2.1-2.2-3
		c-0.9-0.7-1.8-1.4-2.9-1.4c-1.2,0-2.3,0-3.5,0.1c-0.5,0-4.9,0.3-4.9,0c-0.1-1.4-0.2-2.7-0.4-4.1c-0.5-5.4-0.9-10.7-1.4-16.1
		c-0.2-2-0.3-4-0.5-6c0-0.4-0.1-0.8-0.1-1.2c-0.1-1.5-1.8-2.2-2.8-2.9c-0.6-0.4-1.3-1.1-2.1-0.9c-0.1,0-0.3,0.1-0.4,0.1
		c-0.9,0.2-1.8,0.4-2.7,0.6c-2.7,0.6-5.4,1.1-8,1.7c-1.3,0.3-4.5,0.4-4.1,2.5c0.2,0.8,0.4,1.6,0.5,2.4c1,4.4,2,8.9,3,13.4
		c1.9,8.4,3.8,16.8,5.7,25.2c0,0.1,0,0.2,0.1,0.3c0.2,0.4,0.6,0.9,0.8,1.3c0.4,0.5,0.7,1.2,1.2,1.7c0.5,0.9,1.4,1.2,2.3,1.2
		c2,0.1,4,0.2,6,0.2c4.5,0.2,9,0.4,13.5,0.6C350.7,385.2,350.8,385.2,350.9,385.2z"/>
	<path class="st1" d="M348.4,382.1c0.8,0,1.5-0.7,1.5-1.5l0.6-13.6c0-0.4-0.1-0.8-0.4-1.2c-0.3-0.3-0.7-0.5-1.1-0.5l-11.8,0.2
		l-2.6-30c0-0.4-0.3-0.8-0.6-1.1c-0.4-0.3-0.8-0.4-1.2-0.3l-14.1,3c-0.4,0.1-0.8,0.3-1,0.7c-0.2,0.3-0.3,0.8-0.2,1.2l9.3,41.1
		c0.2,0.7,0.7,1.2,1.4,1.2L348.4,382.1C348.3,382.1,348.3,382.1,348.4,382.1z"/>
	<polygon class="st2" points="319,338.6 333.1,335.7 335.8,367.1 349,366.9 348.4,380.6 328.3,379.7 	"/>
	<path class="st3" d="M334.9,357.2l-1.8-21.5l-14.1,2.9l4.9,21.5C327.4,358.7,331.2,357.8,334.9,357.2z"/>
	<path class="st4" d="M333.1,335.7l-14.1,2.9l1.7,7.5l-0.6-5.6l12.3-3l3.2,30l12.7,0.6l0.5,5.6l0.3-6.8c0,0-13.4,0.2-13.2,0.2
		L333.1,335.7z"/>
	<path class="st3" d="M341.9,379.2c0-0.6-4.7-1.2-7.2-1.3l-4.6-0.3l-1.6-7.6c-0.7-3.1-1.3-3.3-1.6-3.3c-0.3,0-0.7-0.1,0,3.6l1.9,8.8
		l5.9,0.4C336.4,379.6,341.8,379.8,341.9,379.2z M325.8,362.8c0.3-0.1,1.2,0.3,1.4,1.6c0.3,1.4-0.5,1.3-0.9,0.8
		C325.3,363.7,325.5,362.9,325.8,362.8z"/>
</g>
<g>
	<path class="st0" d="M450.9,378.6c0.1,0.9,1.1,2,1.6,2.7c0.7,1,1.3,2,2.7,1.9c0.6-0.1,1.2-0.3,1.7-0.4c2.6-0.6,5.2-1.2,7.8-1.8
		c1.7-0.4,4.9-0.5,5.1-2.8c0.1-1-0.3-2.2-0.4-3.2c-1.4-8.9-2.8-17.7-4.1-26.6c0,0,0,0,0-0.1c4.2,0.2,8.4,0.4,12.6,0.7
		c0.9,0,1.7-0.1,2.3-0.9c0.5-0.7,0.4-1.6,0.3-2.5c-0.2-2.6-0.3-5.1-0.5-7.7c-0.1-1.1-0.1-2.3-0.2-3.4c-0.1-1-0.1-1.9-1-2.5
		s-1.9-1.3-2.8-1.9c-0.3-0.2-0.7-0.3-1.1-0.3c-0.4,0-0.7,0-1.1,0.1c-4.2,0.2-8.5,0.5-12.7,0.7c-5.6,0.3-11.1,0.6-16.7,0.9
		c-2,0.1-3.9,0.2-5.9,0.3c-0.8,0-2.1-0.1-2.8,0.4c-0.9,0.6-0.7,1.6-0.6,2.5c0.2,1.2,0.4,2.3,0.5,3.4c0.4,2.5,0.7,4.9,1.1,7.4
		c0.2,1.2,1,2.1,1.7,3.1c0.6,0.9,1.2,1.9,2.5,1.9c0.3,0,0.6-0.1,0.9-0.1c2.4-0.4,4.8-0.8,7.2-1.2c0.1,0,0.2,0,0.4-0.1
		c0.5,8.7,0.9,17.4,1.4,26.1C450.8,376.3,450.9,377.4,450.9,378.6z"/>
	<path class="st1" d="M450.9,378.6c0,0.5,0.3,0.9,0.6,1.2c0.3,0.2,0.6,0.3,0.9,0.3c0.1,0,0.2,0,0.3,0l12.7-2.9
		c0.8-0.2,1.3-1,1.2-1.8l-4.7-30.2l13.7,0.7h0.1l0,0c0.9,0,1.6-0.7,1.6-1.6c0-0.1,0-0.2,0-0.3l-0.8-12.7c-0.1-0.9-0.8-1.5-1.6-1.5
		l-38.5,2.1c-0.4,0-0.8,0.2-1.1,0.6c-0.3,0.3-0.4,0.8-0.3,1.2l1.9,12.3c0.1,0.4,0.3,0.8,0.6,1c0.3,0.2,0.8,0.3,1.2,0.3l10.6-1.8
		L450.9,378.6z"/>
	<polygon class="st2" points="436.4,333.5 438.3,345.8 450.6,343.7 452.5,378.5 465.2,375.6 460.2,343.5 475.8,344.3 475,331.4 	"/>
	<path class="st3" d="M450.6,343.7l0.6,10.5c3.6,0.1,7.1-0.1,10.6-0.5l-1.6-10.2l15.6,0.8l-0.8-12.9l-38.5,2.1l1.9,12.3L450.6,343.7
		z"/>
	<polygon class="st4" points="475,331.4 436.4,333.5 437.3,339.3 437.5,335.6 474.1,333.6 475.7,341.9 	"/>
	<path class="st5" d="M463.3,375.1c-0.1-0.6-5-0.2-7.7,0.1l-1.1,0.1l-0.8-11.5c-0.2-3.3-0.9-3.6-1.2-3.6c-0.3,0-0.7-0.2-0.4,3.8
		l1,13.2l2.8-0.4C457.8,376.6,463.4,375.7,463.3,375.1z M452.1,356.1c0.3-0.1,1.1,0.5,1.2,1.9c0.1,1.5-0.7,1.3-1,0.7
		C451.5,357,451.9,356.2,452.1,356.1z"/>
</g>
<g>
	<path class="st0" d="M398.9,381.1c0.2,0.5,0.6,1.1,1,1.5c0.2,0.5,0.6,1,0.9,1.4c0.4,0.5,1.1,0.8,1.8,0.8c0.8,0,1.7-0.1,2.5-0.1
		c2.7-0.1,5.4-0.2,8-0.3c0.8,0,1.7,0,2.4-0.5c0.8-0.7,0.8-1.6,0.8-2.5c-0.1-2.5-0.2-5-0.3-7.5c-0.1-2.1-0.2-4.2-0.2-6.3
		c0-0.2,3.7-0.3,4.1-0.3c2.8-0.1,5.6-0.3,8.4-0.5c1.8-0.1,5.4,0.2,5-2.7c-0.2-2-0.5-4-0.8-6.1c-0.2-1.3-0.3-2.6-0.5-3.8
		c-0.1-0.9-0.1-1.8-0.8-2.4c-0.4-0.4-0.8-0.6-1.3-0.9c-0.4-0.3-0.8-0.6-1.2-0.8c-0.5-0.5-1.1-0.9-1.8-0.8c-0.8,0.1-1.6,0.1-2.5,0.2
		c-2.7,0.2-5.3,0.4-8,0.6c-0.4,0-0.8,0.1-1.2,0.1c0-0.6-0.4-1.6,0.3-1.7c0.9-0.1,1.7-0.2,2.6-0.2c2.8-0.2,5.6-0.5,8.4-0.7
		c1.5-0.1,4.5,0.1,5.5-1.4c0.5-0.8,0.3-1.7,0.2-2.6c-0.1-1.2-0.2-2.5-0.3-3.7c-0.2-2.4-0.4-4.8-0.6-7.2c-0.1-1.5-1.3-2.2-2.5-2.9
		c-0.8-0.5-1.5-1.4-2.6-1.3c-3.9,0.5-7.8,0.9-11.6,1.4c-5.3,0.6-10.7,1.3-16,1.9c-1.1,0.1-2.2,0.3-3.3,0.4c-1.6,0.2-1.4,1.7-1.3,2.8
		c0.9,9.7,1.9,19.4,2.8,29.1c0.4,3.9,0.7,7.8,1.1,11.6c0.1,1.1,0.2,2.3,0.3,3.5C398.4,379.8,398.4,380.6,398.9,381.1
		C399,381.3,398.7,380.9,398.9,381.1z"/>
	<path class="st1" d="M400.1,381.6L400.1,381.6l11.7-0.4c0.9,0,1.6-0.8,1.6-1.6l-0.6-15.1l16.1-0.9c0.4,0,0.8-0.2,1.1-0.6
		c0.3-0.3,0.4-0.8,0.4-1.2l-1.5-11.1c-0.1-0.8-0.8-1.4-1.7-1.4l-14.9,1.1l-0.2-5l15.7-1.4c0.9-0.1,1.5-0.8,1.5-1.7l-1.1-12.3
		c0-0.4-0.3-0.8-0.6-1.1c-0.3-0.3-0.8-0.4-1.2-0.4l-31.1,3.6c-0.9,0.1-1.5,0.9-1.4,1.7l4.5,46.4C398.5,381,399.2,381.6,400.1,381.6z
		"/>
	<polygon class="st2" points="428.8,361.9 427.3,350.9 410.8,352 410.5,343.8 427.7,342.4 426.6,330 395.6,333.6 400.1,380 
		411.7,379.6 411.2,362.9 	"/>
	<g class="st8">
		<path class="st2" d="M411,356.4c5.6-0.5,11.2-0.8,16.9-1l-0.6-4.6l-16.5,1.2l-0.3-8.2l17.2-1.5l-1.1-12.3l-31,3.6l2.4,25.1
			C402.2,357.5,406.6,356.9,411,356.4z"/>
	</g>
	<g>
		<polygon class="st9" points="410.7,352.6 426.5,351.9 428.3,358.7 427.3,350.9 410.8,352 410.5,344.1 		"/>
	</g>
	<g>
		<polygon class="st9" points="396.6,335.7 426,331.5 427.7,342.4 426.6,330 395.6,333.6 397.4,352.2 		"/>
	</g>
	<path class="st5" d="M410,378.3c0-0.6-4.4-0.9-6.8-1c-0.3,0-0.7,0-1.1,0c-0.1,0-0.1,0-0.2,0l0,0c-0.1-1-0.2-2.2-0.3-3.4
		c-0.2-2.5-0.5-5.1-0.6-6.6s-0.4-2.3-0.6-2.7c-0.3-0.4-0.5-0.5-0.7-0.5c-0.2,0-0.3,0-0.5,0.4c-0.1,0.4-0.1,1.2,0.1,3
		c0.2,1.8,0.4,4.1,0.6,6.5c0.1,1.2,0.2,2.4,0.3,3.4c0,0.5,0.1,1.1,0.1,1.6c0.5,0,1,0,1.5,0s0.9,0,1.4,0
		C404.9,379.1,410,379,410,378.3z M399.1,360.5c0.3-0.1,1.1,0.3,1.3,1.6c0.1,1.3-0.7,1.2-1,0.7C398.4,361.3,398.8,360.6,399.1,360.5
		z"/>
</g>
<g>
	<path class="st5" d="M883.2,375.8c-1.2,1-3.5,2.9-3.9,6.4c-0.3,3,0.9,5.3,1.3,6.1c59.7-3.5,119.3-7,179-10.5
		c-0.5-17.1-1.1-34.3-1.6-51.4c-2.9,13.5-5.7,27-8.6,40.4c-108.6,5.5-145.8,6.7-150.5,6.1c-3.7-0.5-5.6-0.2-9.6,0.5
		C886.4,373.9,884.8,374.5,883.2,375.8z"/>
	<path class="st5" d="M868.7,242.6c0.4,0.1,0.7,0.3,1.1,0.4c5.4,2.4,4.1,6.8-1.6,7.8c-8.6,1.6-10.3-6.5-7.7-8.3
		C862.2,241.3,865.6,241.5,868.7,242.6z"/>
	<g>
		<path class="st0" d="M1067.7,279.9c-3.9,1.4-128.5,4.1-296.4,6.6c-6.8,1-17.1,1.2-28.7-4.7c-1.5-0.8-2.7-1.4-3.6-2
			c-8.9-5.5-24.8-19.9-24.9-33.6c-0.1-8.4,7.1-19.6,7.3-25.7c0-0.3,0.1-1.7,0.2-3.6c0.2-2.8,0.6-4.6,1.2-11.5
			c1.4-16.8,0.4-20.7,2.1-25.8c1.2-3.7,3.6-7.6,9.3-8.4c205.4,76,280.9,48.9,307.4,0.1c13.8-25.4,20.6-68.2,28.5-66.2
			c12.4,3.2,6.8,111.3,8.7,140.3c0.1,1.8,0.5,8-0.6,15.9c-0.4,2.8-1.2,8.3-3.2,12.5C1075.1,273.8,1072.9,278,1067.7,279.9z"/>
		<path class="st0" d="M1072,433.9c-93.5,1.3-187.1,2.6-280.6,3.9c-1.6-0.2-4.1-0.7-6.4-2.8c-4.2-3.9-5.3-10.5-5.7-13.7
			c-4.1-29.6-5.3-57.9-5.3-58l0,0c-2.9-59.9-4.3-91.7,4.7-125.6c1-3.6,2.7-9.8,5.5-17.2c171.2,36.4,244.3,28.5,265.4,0.3
			c3.2-4.3,18.4-26.8,25.8,10.1c3.9,19.4,4.7,58.1,6.3,135.6c0.1,4.8,0.3,16.9-0.5,31.2c-0.3,5.5-1,16.4-2.8,24.5
			C1078.3,422,1076,433.8,1072,433.9z"/>
		<path class="st1" d="M790.7,424.7c-2.6-2.9-3-7.5-3.2-9.7c-3.9-54.6-4.1-114.3-4.1-114.3c0-8.9-0.3-22.9-1.6-40.3
			c-17.6-0.2-35.3-0.4-52.9-0.6c-0.7-0.3-1.8-0.7-3-1.3c-2.2-1.1-6.2-3-8.7-6.1c-4-4.9-4.2-12.7-4.1-15.5
			c-0.8-68.8-1.7-117.7-2.6-125.5c-0.1-1-0.7-5.2,1-8.2c0.3-0.6,1.8-2.8,5.7-3.2c11-1,165.6,1.2,178.4,1.3
			c4.7,0,151.2,1.1,166.9,0.6c1.2,0,5.1-0.2,7.8,3.2c2.7,3.4,3.1,9.1,2.7,14.1c-0.7,86.8-0.1,136.1,0.5,165.7
			c0.1,5.1,0.6,23.4,1,48.6c0.4,23.8,0.8,47.3,1,70.7c-0.7,3.8-2.1,8.9-5.4,12.6c-3.7,4-8,4.5-9.6,4.7c-9,1-116,3.2-262.2,5.6
			C796.2,427.3,793,427.3,790.7,424.7z"/>
		<path class="st1" d="M1066.9,415.9c-4.4,5.5-11,5.3-13,5.3c-10.3-0.2-116.7,1.5-263.2,3.6c-1.5-12.3-3.3-31.1-4.1-54.6
			c-0.1-3.7-0.2-6.4-0.3-11.7c-0.4-15.2-0.6-31.1-1.4-76.3c-0.8-45-1-54.7-0.7-65.3c0.5-18,1.9-20.4,2.5-20.8
			c92.6,0,282.6,42.1,282.5,52.7c-0.5,43.2,1.9,156.8,1.3,158.8C1070,410,1069,413.2,1066.9,415.9z"/>
		<path class="st2" d="M797.1,414.9c90.5-4.1,180.9-8.2,271.4-12.3c-0.7-95.1-1.5-190.3-2.2-285.4c-91.9,0.3-183.7,0.6-275.6,0.9
			C792.8,217,795,316,797.1,414.9z"/>
		<path class="st4" d="M722.5,243.9c22.3,0,44.6,0.1,66.9,0.1c2.6,56.8,5.2,113.6,7.7,170.4c0.9-60.9,1.8-121.7,2.7-182.6
			c87-21.1,174.1-42.2,261.1-63.3c-113.7-17.8-227.3-35.5-341-53.3C720.9,158.1,721.7,201,722.5,243.9z"/>
		<path class="st2" d="M727.8,231.1c112.8,3,225.6,5.9,338.4,8.9c-1.7-23.8-3.4-47.7-5.2-71.5c-112.2,1.7-224.5,3.4-336.7,5.1
			C725.4,192.7,726.6,211.9,727.8,231.1z"/>
		<path class="st2" d="M724.3,187.6c113.9,20.1,227.8,40.1,341.7,60.2c-1.1-42.5-2.2-85.1-3.4-127.6c-114.2-1.6-228.4-3.3-342.6-4.9
			C721.5,139.3,722.9,163.5,724.3,187.6z"/>
		<path class="st3" d="M725.5,232.8c24.9,1.3,49.7,2.5,74.6,3.8c-1,59.3-2,118.6-3,177.9c20.2-1,40.3-2,60.5-3.1
			c-2.8-45.6-2.5-119.7,21.1-201.8c10.7-37.2,23.8-67.8,36.1-91.8c-64.9-0.8-129.9-1.7-194.8-2.5
			C721.9,154.4,723.7,193.6,725.5,232.8z"/>
	</g>
</g>
<g>
	<g>
		<path class="st0" d="M767.2,72.2c3.1,4.6,7.3,8.2,12.7,9.6c4.9,1.2,10.3,0.4,14.5-2.3c4.1-2.6,6.9-6.8,7.2-11.7
			c0.3-4.8-1.5-9.1-4.5-12.8c-2.9-3.6-6.8-5.9-10-9.1c-1.2-1.2-3.3-3.3-2.4-5.1c0.5-1.1,1.6-1.8,2.8-1.9c0.4,0,0.7-0.1,0.7,0.3
			c0,0.3,0,0.7,0,1c0,0.8-0.1,1.5-0.1,2.3c-0.1,1.1,0.5,1.9,1.2,2.7c0.6,0.7,1,1.8,1.7,2.4c1.1,0.9,2.4,0.5,3.5,0.1
			c1.5-0.4,2.9-1,4.2-1.6c2.7-1.2,5.3-2.7,8-3.9c2.5-1.1,1.8-4.1,1.3-6.3c-1-4.7-3.8-8.9-7.7-11.6c-2.1-1.5-4.2-3.1-6.7-4
			s-5.3-1.2-7.9-0.9c-5.2,0.7-9.7,3.9-12.5,8.2c-2.9,4.3-4.5,9.3-3,14.5c1,3.5,3.3,6.6,5.5,9.4c1.2,1.6,2.8,2.8,4.4,4
			c0.8,0.6,1.6,1.2,2.4,1.8c0.3,0.3,0.7,0.5,0.8,1c0.1,0.4,0,0.9-0.3,1.2c0.2-1.7-1-2.8-2.4-3.4c-0.8-0.8-2.1-1.7-3.3-1.5
			c-4,0.4-8-0.4-12-0.3c-0.7,0-1.6-0.1-2.2,0.4c-0.7,0.5-0.8,1.5-0.9,2.3c-0.3,1.7-0.2,3.5,0.1,5.2C762.9,66,765,69.1,767.2,72.2
			C767.3,72.4,767.1,72,767.2,72.2z"/>
		<path class="st1" d="M771.1,75.5c3,2.1,6.8,3.3,10.6,3.3l0,0c5.7,0,10.8-2.5,14-6.9c3.5-4.7,2.9-11.5,0.6-15.5
			c-2.6-4.6-5.5-7.1-9.2-10c-2.1-1.7-6-4.7-6.2-7.4c-0.1-0.8,0.2-1.6,1-2.4c0.8-0.8,1.9-1.3,3-1.3c0.8,0,1.5,0.2,2,0.6
			c1.4,1.2,1.3,4.5,1,6.8c-0.1,0.6,0.2,1.1,0.6,1.5c0.4,0.4,1,0.5,1.6,0.4c3.4-0.9,6.5-2.4,9.5-3.9c1.4-0.7,2.9-1.4,4.3-2.1
			c0.7-0.3,1.1-1,1-1.8c0-0.4-0.1-0.7-0.1-1c-0.8-9.5-8.1-16.6-17.1-16.6c-4.2,0-8.1,1.6-11.5,4.5c-2.9,2.6-5.8,7.4-6.5,11.2
			c-1,4.8,0.6,10,4.3,14.2c1.2,1.4,2.7,2.4,4.1,3.5c2.1,1.5,4.1,3,4.9,5.2c0.3,0.8,0.1,1.5-0.2,1.8c-0.4,0.6-1.1,0.9-1.7,0.9
			c-0.5,0-0.9-0.2-1.3-0.6c-0.6-0.7-0.6-1.6-0.3-3.4c0.1-0.5-0.1-1.1-0.5-1.5c-0.4-0.4-0.9-0.6-1.5-0.5c-0.8,0.1-1.6,0.2-2.6,0.2
			c-1.4,0-2.9-0.1-4.4-0.2s-3.1-0.2-4.6-0.2c-0.7,0-1.4,0-2,0.1c-0.7,0.1-1.3,0.5-1.5,1.2C760.1,62.8,765.2,71.3,771.1,75.5z"/>
		<path class="st2" d="M786.2,47.8c-3.3-2.6-9.7-7.7-5.5-12.3c2.1-2.2,5.6-2.4,7.4-0.8c2,1.7,1.9,5.2,1.6,8.3
			c4.8-1.2,9-3.9,13.5-5.9c0-0.4-0.1-0.7-0.1-1.1c-1.1-13.2-15.6-19.9-25.7-10.9c-2.6,2.3-5.3,6.8-6,10.2c-1,4.6,0.8,9.2,3.9,12.7
			c2.9,3.3,7.6,4.9,9.3,9.2c1.5,3.8-3.3,7-6.1,4c-1.2-1.3-1-3.1-0.8-4.9c-4.3,0.6-9.4-0.5-13.7-0.2c-2.1,6.6,2.8,14.4,8.1,18.1
			c6.8,4.8,17,3.9,22.2-3.2c2.8-3.8,2.6-9.9,0.5-13.6C792.5,53,789.8,50.7,786.2,47.8z"/>
		<path class="st3" d="M782.2,44.3c-2.5-2.6-4.2-5.8-1.5-8.8c2.1-2.2,5.6-2.4,7.4-0.8c2,1.7,1.9,5.2,1.6,8.3c4.8-1.2,9-3.9,13.5-5.9
			c0-0.4-0.1-0.7-0.1-1.1c-1.1-13.2-15.6-19.9-25.7-10.9c-2.6,2.3-5.3,6.8-6,10.2c-0.7,3.3,0,6.5,1.6,9.4
			C776.1,44.4,779.1,44.3,782.2,44.3z"/>
		<g>
			<path class="st4" d="M777.5,27.1c9.9-8.7,24-2.5,25.6,10c0.1,0,0.1-0.1,0.2-0.1c0-0.4-0.1-0.7-0.1-1.1
				C802.1,22.7,787.6,16,777.5,25c-2.6,2.3-5.3,6.8-6,10.2c-0.2,1.2-0.3,2.4-0.2,3.6c0-0.5,0.1-1,0.2-1.6
				C772.2,33.8,774.9,29.4,777.5,27.1z"/>
		</g>
		<path class="st4" d="M786.2,49.2c3.6,2.9,6.3,5.2,8.7,9.5c0.9,1.6,1.5,3.7,1.6,5.8c0.1-2.6-0.5-5.2-1.6-7.2
			c-2.4-4.3-5.1-6.6-8.7-9.5c-2.4-1.9-6.3-5-6.8-8.3C778.7,43.3,783.5,47,786.2,49.2z"/>
		<path class="st4" d="M778.6,62.4c2.6,2.8,7,0.2,6.3-3.3c-0.5,2.7-4.1,4.3-6.3,1.9c-0.6-0.6-0.8-1.4-0.9-2.2
			C777.5,60.2,777.7,61.4,778.6,62.4z"/>
		<path class="st4" d="M777.7,57.6c0-0.5,0.1-0.9,0.2-1.4c-4.3,0.6-9.4-0.5-13.7-0.2c-0.4,1.3-0.5,2.6-0.5,3.9
			c0.1-0.9,0.2-1.7,0.5-2.6C768.4,57,773.4,58.1,777.7,57.6z"/>
		<path class="st3" d="M765.2,63.6c-0.1,0.1-0.1,0.5,0.2,1.1c0.1,0.3,0.3,0.7,0.4,1.1c0.2,0.4,0.4,0.8,0.7,1.3
			c0.6,0.9,1.1,1.9,1.8,2.7c0.4,0.4,0.7,0.8,1,1.2c0.4,0.4,0.7,0.7,1,1c0.2,0.2,0.4,0.3,0.6,0.5s0.5,0.4,0.7,0.6
			c0.5,0.4,1.1,0.9,1.8,1.2c1.4,0.9,3.2,1.6,5,1.9c1.9,0.4,3.9,0.3,5.5-0.1c1.7-0.3,3.1-0.9,4.1-1.3c0.5-0.2,0.9-0.5,1.3-0.6
			c0.1-0.1,0.2-0.1,0.2-0.1c0.1-0.1,0.2-0.1,0.3-0.2c0.2-0.1,0.3-0.2,0.5-0.3c0.6-0.4,0.9-0.8,1.1-1.1c0.4-0.6,0.2-0.9,0.2-1
			c-0.1-0.1-0.2-0.3-0.7-0.1c-0.2,0.1-0.6,0.3-1.1,0.6c-0.1,0.1-0.3,0.2-0.4,0.2c-0.2,0.1-0.3,0.1-0.5,0.2s-0.5,0.2-0.7,0.3
			c-0.2,0.1-0.5,0.2-0.8,0.3c-1.1,0.5-2.4,0.9-3.9,1.2c-0.4,0-0.7,0.1-1.1,0.2c-0.4,0-0.8,0-1.2,0.1c-0.8,0-1.6,0-2.3-0.2l-0.6-0.1
			c-0.2,0-0.4-0.1-0.6-0.2c-0.4-0.1-0.7-0.2-1.1-0.3c-0.7-0.3-1.4-0.5-2-0.9c-0.3-0.2-0.6-0.4-0.9-0.5c-0.3-0.2-0.5-0.4-0.8-0.6
			s-0.5-0.4-0.8-0.6c-0.2-0.2-0.4-0.4-0.6-0.6s-0.5-0.4-0.8-0.7c-0.3-0.3-0.6-0.6-0.9-1s-0.7-0.7-1-1.1s-0.7-0.8-1-1.2
			c-0.7-0.8-1.2-1.6-1.7-2.1C765.7,63.8,765.3,63.5,765.2,63.6z M794.3,67c0.2,0,0.4,0.3,0.4,0.8c0,0.2,0,0.5,0,0.9
			c0,0.2-0.1,0.4-0.2,0.6c-0.1,0.2-0.2,0.4-0.3,0.6c-0.3,0.4-0.5,0.7-0.7,0.8c-0.2,0.1-0.4,0.2-0.5,0.1c-0.2-0.1-0.3-0.5-0.2-0.9
			c0.1-0.6,0.3-1,0.4-1.4c0.1-0.4,0.2-0.7,0.4-0.9C793.8,67.1,794.1,67,794.3,67z"/>
	</g>
	<g>
		<path class="st1" d="M850.2,40.3c-0.7,0-1.3,0.7-1.3,1.5c0,2.2-0.1,4.4-0.1,6.7c-5.9,0.2-11.8,0.4-17.8,0.6c0-1.9-0.1-3.7-0.1-5.6
			c0-0.4-0.2-0.8-0.5-1c-0.3-0.3-0.6-0.4-1-0.3c-2.2,0.3-4.3,0.6-6.5,0.9c-0.1,2.7-0.1,5.9,0.3,9.4c0.4,4.4,1.2,8.2,2.1,11.2
			c1.8-0.1,3.6-0.2,5.5-0.2c0.4,0,0.7-0.2,0.9-0.5s0.1-5.3,0.1-5.3l17.3,0.3l0.1,4l0,0c0,0.8,0.6,1.5,1.4,1.4c0.1,0,0.1,0,0.2,0
			L850.2,40.3z"/>
		<g>
			<polygon class="st4" points="858.9,42.3 859.3,61.3 855.6,61.7 860.7,61.5 860.2,41.3 853.4,41.6 			"/>
		</g>
		<path class="st7" d="M821.5,45.5c-0.5,0.1-0.2,3.4,0.1,5.2s1.2,7.4,1.5,9.6c0.1,0.5,0.2,0.9,0.2,1.3c0.4,0,0.7,0,1-0.1
			c0.2,0,0.2,0,0.3,0s0.1,0,0.2,0c0.2-0.1,0.4-0.1,0.5-0.2c0.2-0.2,0.3-0.4,0.3-0.5s0-0.3-0.1-0.4s-0.3-0.1-0.5-0.2
			c-0.1,0-0.3,0-0.4-0.1l0,0l0,0c-0.4-2.7-1.1-7.2-1.5-9.6C822.8,49.1,822,45.4,821.5,45.5z M828.2,60.6c0.1,0.3-0.3,1-1.2,1
			s-0.8-0.8-0.4-1C827.6,59.9,828.1,60.3,828.2,60.6z"/>
		<path class="st0" d="M813.5,26c-0.4,0.5-0.4,1.1-0.4,2.3s0,2.5,0.1,3.7c0,2.2,0.1,4.4,0.1,6.7c0,0.6,0.2,1,0.5,1.5
			c0.5,0.9,1.1,2.2,1.8,2.8c0.8,0.8,2.2,0.5,3.2,0.5c0.6,0,0.5,0,0.5,0.7c0,0.9,0.1,1.8,0.1,2.8c0.2,4.7,0.3,9.4,0.5,14.1
			c0,0.4-1.1,0.2-1.3,0.3c-0.9,0.1-1.9,0.1-2.8,0.2c-1.2,0.1-1.3,1.3-1.2,2.4s0.2,2.2,0.3,3.3c0.2,2.3,0.4,4.6,0.7,6.9
			c0.1,0.5,0.3,0.9,0.5,1.4c0.3,0.5,0.6,1,0.9,1.4c0.3,0.5,0.6,1.1,0.9,1.4c0.6,0.6,1.3,0.5,2,0.3c4.2-0.7,8.4-1.3,12.6-2
			c1-0.2,2.3-0.1,3.2-0.6c1.6-0.9,1-3.9,1-5.5c0-2-0.1-4-0.1-6c0-1.2-0.9-1.2-2.3-3c-1.2-1.6-2-3-2.6-3.9c5.8,0.1,11.5,0.2,17.3,0.3
			c0.4-0.1,0.8-0.3,1.2-0.4c-6.2-2.2-12.4-4.3-18.7-6.5c0-0.8,0.2-2.2,0.2-3.6c0-0.2,0.1-1.2,0.1-3c0-0.3-0.1-0.9,0.2-0.9
			c1,0,2,0,2.9,0c1.3,0,2-1.2,1.9-2.6c0-2.3-0.1-4.5-0.1-6.7c0-1.2,0-2.5-0.1-3.7c0-0.8,0.1-1.7-0.4-2.3c-0.2-0.4-2.8-2.7-3.5-2.8
			c-0.3-0.1-0.7,0-1.1,0c-1.9,0-3.8,0-5.7,0.1c-2.7,0-5.4,0.1-8.1,0.1c-0.5,0-1.3,0-2.8,0C814.3,25.5,813.9,25.6,813.5,26z"/>
		<path class="st1" d="M813.5,26c-0.2,0.3-0.4,0.7-0.4,1.1l0.2,11.7c0,0.9,0.6,1.5,1.3,1.5h4.5l0.9,20.8l-4.1,0.3
			c-0.4,0-0.7,0.2-0.9,0.5s-0.3,0.8-0.3,1.2l1.1,11c0,0.4,0.2,0.8,0.5,1.1c0.2,0.2,0.5,0.3,0.8,0.3c0.1,0,0.1,0,0.2,0l15.9-2.5
			c0.7-0.1,1.2-0.8,1.2-1.6l-0.2-9.6c0-0.4-0.2-0.8-0.4-1.1c-0.3-0.3-0.6-0.4-1-0.4l-3.8,0.2l0.6-20.3h3.7l0,0
			c0.7,0,1.3-0.7,1.3-1.6c0-0.1,0-0.2,0-0.2l-0.2-11.7c0-0.9-0.6-1.6-1.3-1.5l-18.3,0.2C814.1,25.5,813.8,25.7,813.5,26z"/>
		<polygon class="st2" points="827.3,62.2 828,38.7 833,38.7 832.8,26.9 814.5,27.1 814.7,38.7 820.5,38.7 821.4,62.6 815.9,62.9 
			817,74 832.8,71.5 832.7,61.9 		"/>
		<g class="st6">
			<path class="st2" d="M820.5,38.7l0.3,9.4c2.3,0.1,4.6,0.4,6.9,0.6l0.3-10h5l-0.2-11.9l-18.3,0.3l0.2,11.7h5.8V38.7z"/>
		</g>
		<g>
			<polygon class="st4" points="815.3,28.6 832.6,28.4 832.9,32.8 832.8,26.9 814.5,27.1 814.6,35.1 			"/>
		</g>
		<polygon class="st4" points="821.3,60.9 821.6,63.3 816.6,64 816.7,71.2 815.9,62.9 821.3,62.5 		"/>
		<polygon class="st4" points="827.4,60.9 827.3,62.8 832.4,62.6 832.8,70.9 832.7,61.9 827.5,62.1 		"/>
		<path class="st7" d="M817.6,72.5c0.1,0.6,3.1,0.3,4.8,0c1.6-0.3,6.7-1.2,8.7-1.6c0.4-0.1,0.8-0.2,1.2-0.2c0-0.4,0-0.8,0-1.2
			c0-0.2,0-0.3,0-0.3c0-0.1,0-0.2,0-0.2c-0.1-0.3-0.1-0.5-0.2-0.6c-0.2-0.3-0.3-0.3-0.4-0.4c-0.1,0-0.3-0.1-0.4,0.2
			c-0.1,0.1-0.1,0.3-0.2,0.6c0,0.1,0,0.3-0.1,0.5l0,0l0,0c-2.4,0.5-6.5,1.2-8.8,1.6C820.9,71.1,817.5,71.8,817.6,72.5z M831.5,64.9
			c0.3-0.1,0.9,0.4,0.9,1.5s-0.7,0.9-0.9,0.4C830.8,65.5,831.2,65,831.5,64.9z"/>
		<path class="st0" d="M842.8,26c-0.5,0.6-0.4,1.5-0.4,2.3c0,1.2,0,2.5,0.1,3.7c0,2.2,0.1,4.4,0.1,6.7c0,0.6,0.2,1,0.5,1.5
			c0.5,0.9,1.1,2.2,1.8,2.8c0.8,0.8,2.2,0.5,3.2,0.5c0.6,0,0.5,0,0.5,0.7c0,0.9,0.1,1.8,0.1,2.8c0.2,4.7,0.3,9.4,0.5,14.1
			c0,0.4-1.1,0.2-1.3,0.3c-0.9,0.1-1.9,0.1-2.8,0.2c-1.2,0.1-1.3,1.3-1.2,2.4s0.2,2.2,0.3,3.3c0.2,2.3,0.4,4.6,0.7,6.9
			c0.1,0.5,0.3,0.9,0.5,1.4c0.3,0.5,0.6,1,0.9,1.4c0.3,0.5,0.6,1.1,0.9,1.4c0.6,0.6,1.3,0.5,2,0.3c4.2-0.7,8.4-1.3,12.6-2
			c1-0.2,2.3-0.1,3.2-0.6c1.6-0.9,1-3.9,1-5.5c0-2-0.1-4-0.1-6c0-1.7-1.4-2-2.3-3c-0.4-0.5-1.2-1.1-1.8-1.1c-0.4,0-0.7,0-1.1,0.1
			c0.1-4.3,0.3-8.6,0.4-13c0-1,0.1-2,0.1-3c0-0.3-0.1-0.9,0.2-0.9c1,0,2,0,2.9,0c1.3,0,2-1.2,1.9-2.6c0-2.3-0.1-4.5-0.1-6.7
			c0-1.2,0-2.5-0.1-3.7c0-0.8,0.1-1.7-0.4-2.3c-0.2-0.4-2.8-2.7-3.5-2.8c-0.3-0.1-0.7,0-1.1,0c-1.9,0-3.8,0-5.7,0.1
			c-2.7,0-5.4,0.1-8.1,0.1c-0.9,0-1.9,0-2.8,0C844,25.5,843.3,25.4,842.8,26C842.6,26.3,843.1,25.7,842.8,26z"/>
		<path class="st1" d="M842.8,26c-0.2,0.3-0.4,0.7-0.4,1.1l0.2,11.7c0,0.9,0.6,1.5,1.3,1.5h4.5c0.1,3.3,0.2,6.5,0.4,9.8
			c-0.2,2.2-0.4,4.4-0.6,6.6c0.8,0.4,1.5,0.9,2.3,1.3c-0.4-0.1-0.9-0.1-1.3-0.2c0,1.1,0.1,2.2,0.1,3.2c-1.4,0.1-2.8,0.2-4.1,0.3
			c-0.4,0-0.7,0.2-0.9,0.5S844,62.6,844,63l1.1,11c0,0.4,0.2,0.8,0.5,1.1c0.2,0.2,0.5,0.3,0.8,0.3c0.1,0,0.1,0,0.2,0l15.9-2.5
			c0.7-0.1,1.2-0.8,1.2-1.6l-0.2-9.6c0-0.4-0.2-0.8-0.4-1.1c-0.3-0.3-0.6-0.4-1-0.4l-3.8,0.2l0.6-20.3h3.7l0,0
			c0.7,0,1.3-0.7,1.3-1.6c0-0.1,0-0.2,0-0.2l-0.2-11.7c0-0.9-0.6-1.6-1.3-1.5l-18.3,0.2C843.4,25.5,843.1,25.7,842.8,26z"/>
		<polygon class="st2" points="856.6,62.2 857.3,38.7 862.3,38.7 862.1,26.9 843.8,27.1 844,38.7 849.8,38.7 850.7,62.6 845.2,62.9 
			846.3,74 862.1,71.5 861.9,61.9 		"/>
		<g class="st6">
			<path class="st2" d="M849.8,38.7l0.3,9.4c2.3,0.1,4.6,0.4,6.9,0.6l0.3-10h5l-0.2-11.9l-18.3,0.3l0.2,11.7h5.8V38.7z"/>
		</g>
		<g>
			<polygon class="st4" points="844.6,28.6 861.9,28.4 862.2,32.8 862.1,26.9 843.8,27.1 843.9,35.1 			"/>
		</g>
		<polygon class="st4" points="850.6,60.9 850.9,63.3 845.9,64 846,71.2 845.2,62.9 850.6,62.5 		"/>
		<polygon class="st4" points="856.7,60.9 856.5,62.8 861.7,62.6 862.1,70.9 861.9,61.9 856.7,62.1 		"/>
		<path class="st7" d="M846.9,72.5c0.1,0.6,3.1,0.3,4.8,0c1.6-0.3,6.7-1.2,8.7-1.6c0.4-0.1,0.8-0.2,1.2-0.2c0-0.4,0-0.8,0-1.2
			c0-0.2,0-0.3,0-0.3c0-0.1,0-0.2,0-0.2c-0.1-0.3-0.1-0.5-0.2-0.6c-0.2-0.3-0.3-0.3-0.4-0.4c-0.1,0-0.3-0.1-0.4,0.2
			c-0.1,0.1-0.1,0.3-0.2,0.6c0,0.1,0,0.3-0.1,0.5l0,0l0,0c-2.4,0.5-6.5,1.2-8.8,1.6C850.2,71.1,846.8,71.8,846.9,72.5z M860.8,64.9
			c0.3-0.1,0.9,0.4,0.9,1.5s-0.7,0.9-0.9,0.4C860.1,65.5,860.5,65,860.8,64.9z"/>
		<path class="st2" d="M828.1,56c7.5,0.1,14.9,0.3,22.4,0.4c0,1.8,0,3.6,0.1,5.5c2,0.1,4.1,0.2,6.1,0.3c0.2-6.9,0.4-13.9,0.5-20.8
			c0,2.5-0.1,4.9-0.1,7.4c-2.2-0.2-4.5-0.4-6.7-0.6c-0.1,0.7-0.2,1.3-0.4,2c-7.5,0-14.9,0.1-22.4,0.1c0.1-0.5,0.1-1,0.2-1.5
			c-2.3-0.7-4.6-1.5-6.9-2.2c0,1.8,0,3.6,0,5.4c0.2,3,0.4,6,0.5,9c2,0.4,4,0.9,6,1.3C827.6,60.2,827.8,58.1,828.1,56z"/>
	</g>
	<g>
		<path class="st0" d="M894.6,31.5c-7.5,0-14.9,3.6-19.1,9.9c-2,3-3.3,6.5-3.5,10.1c-0.3,4.6,1.2,8.9,3.9,12.6
			c1.1,1.6,2.2,3.3,3.7,4.7c1.4,1.4,2.9,2.5,4.6,3.5c3.7,2.1,7.8,3.1,12,3.2c7.6,0.2,15.3-2.7,20.3-8.6c4.9-6,6-14.6,2.6-21.6
			c-0.9-1.9-2.1-3.6-3.6-5.1c-1.7-1.7-3.7-3-5.7-4.4c-3.7-2.6-8.3-3.9-12.8-4.3C896.1,31.5,895.3,31.5,894.6,31.5z M892.1,60.9
			c-1.1,0-2.1-0.2-3.1-0.5c-1-0.4-1.5-1.4-2-2.3c-0.8-1.7-0.9-3.7-0.3-5.4c1.2-3.4,4.7-5.5,8.3-5.3c1,0.1,1.9,0.3,2.8,0.7
			c0.8,0.3,2.1,1,2.4,1.8c0.7,1.8,0.7,3.9,0,5.7C899,58.8,895.6,60.9,892.1,60.9z"/>
		<path class="st1" d="M871.9,52.6c0,11.4,9.7,20,22.6,20c13,0,23.2-8.9,23.4-20.2c0.1-5.5-1.8-10.4-5.4-14.1
			c-4.2-4.3-10.8-6.8-18-6.8C882.1,31.5,871.9,41,871.9,52.6z M892.1,44.3c4.8,0,8.7,3.7,8.7,8.3s-3.9,8.3-8.7,8.3s-8.7-3.7-8.7-8.3
			C883.4,48,887.3,44.3,892.1,44.3z"/>
		<path class="st2" d="M894.6,33c-11.7,0-21.1,8.8-21.1,19.7s9.5,18.5,21.1,18.5c11.7,0,21.8-7.9,21.9-18.8
			C916.7,39.7,906.2,33,894.6,33z M892.1,62.4c-5.6,0-10.2-4.4-10.2-9.8s4.6-9.8,10.2-9.8c5.6,0,10.2,4.4,10.2,9.8
			S897.7,62.4,892.1,62.4z"/>
		<g class="st6">
			<path class="st2" d="M874.7,56.7c3.2,0.9,6.4,1.7,9.6,2.2c-1.5-1.7-2.4-3.9-2.4-6.3c0-5.4,4.6-9.8,10.2-9.8
				c5.6,0,10.2,4.4,10.2,9.8c0,1.8-0.5,3.4-1.3,4.8c5.3-1.8,10.3-4,15.5-6c-0.3-12.1-10.5-18.5-21.9-18.5
				c-11.7,0-21.1,8.8-21.1,19.7c0,1.3,0.1,2.6,0.4,3.8C874.1,56.6,874.4,56.6,874.7,56.7z"/>
		</g>
		<g>
			<path class="st4" d="M894.6,34.7c10.9,0,20.7,5.8,21.8,16.8h0.1C916.2,39.4,906,33,894.6,33c-11.7,0-21.1,8.8-21.1,19.7
				c0,0.3,0,0.6,0,0.9C873.9,43,883.2,34.7,894.6,34.7z"/>
		</g>
		<path class="st4" d="M882.7,56.5c0,0,2.7,5.9,9.4,5.9c6.6,0.1,9.2-5.7,10-7.9c0,0-0.7,9.2-10.5,8.6
			C884.1,62.6,882.7,56.5,882.7,56.5z"/>
		<path class="st7" d="M887.7,68.3c-0.1,0.3,1.1,0.9,2.8,1.4s3.9,0.7,5.4,0.6s4.6-0.4,7.6-1.7c1.5-0.6,2.9-1.4,4.1-2.2
			c1.2-0.8,2.2-1.7,2.9-2.3c1.4-1.3,1.9-2.2,2.1-2.8c0.2-0.6,0.1-0.8,0-0.9s-0.2-0.3-0.6,0c-0.2,0.1-0.5,0.4-0.8,0.8
			c-0.2,0.2-0.4,0.4-0.7,0.7c-0.3,0.3-0.6,0.6-1,1s-0.8,0.7-1.3,1.1s-1,0.7-1.5,1.1c-1.1,0.7-2.3,1.4-3.6,1.9
			c-2.6,1.1-5.3,1.5-7.2,1.6c-0.5,0-1.3,0-2.1,0c-0.4,0-0.9,0-1.3-0.1c-0.5,0-0.9-0.1-1.3-0.1C889.3,68.4,887.8,68,887.7,68.3z
			 M914.5,56.4c0.2,0,0.4,0.1,0.5,0.6c0,0.1,0.1,0.2,0.1,0.4c0,0.1,0,0.3,0,0.4c0,0.3-0.2,0.7-0.4,1.1c-0.8,1.5-1.3,0.8-1.2,0.1
			c0.1-0.5,0.2-0.9,0.3-1.2c0.1-0.3,0.1-0.6,0.2-0.8C914.1,56.6,914.3,56.4,914.5,56.4z"/>
	</g>
	<g>
		<path class="st0" d="M948.1,32.1c-7.5,0-14.9,3.6-19.1,9.9c-2,3-3.3,6.5-3.5,10.1c-0.3,4.6,1.2,8.9,3.9,12.6
			c1.1,1.6,2.2,3.3,3.7,4.7c1.4,1.4,2.9,2.5,4.6,3.5c3.7,2.1,7.8,3.1,12,3.2c7.6,0.2,15.3-2.7,20.3-8.6c4.9-6,6-14.6,2.6-21.6
			c-0.9-1.9-2.1-3.6-3.6-5.1c-1.7-1.7-3.7-3-5.7-4.4c-3.7-2.6-8.3-3.9-12.8-4.3C949.7,32.1,948.9,32.1,948.1,32.1z M945.6,61.5
			c-1.1,0-2.1-0.2-3.1-0.5c-0.9-0.4-1.5-1.4-2-2.3c-0.8-1.7-0.9-3.7-0.3-5.4c1.2-3.4,4.7-5.5,8.3-5.3c1,0.1,1.9,0.3,2.8,0.7
			c0.8,0.3,2.1,1,2.4,1.8c0.7,1.8,0.7,3.9,0,5.7C952.5,59.4,949.2,61.5,945.6,61.5z"/>
		<path class="st1" d="M925.5,53.2c0,11.4,9.7,20,22.6,20c13,0,23.2-8.9,23.4-20.2c0.1-5.5-1.8-10.4-5.4-14.1
			c-4.2-4.3-10.8-6.8-18-6.8C935.6,32.1,925.5,41.5,925.5,53.2z M945.6,44.9c4.8,0,8.7,3.7,8.7,8.3s-3.9,8.3-8.7,8.3
			s-8.7-3.7-8.7-8.3C936.9,48.6,940.8,44.9,945.6,44.9z"/>
		<path class="st2" d="M948.1,33.5c-11.7,0-21.1,8.8-21.1,19.7s9.5,18.5,21.1,18.5c11.7,0,21.8-7.9,21.9-18.8
			C970.2,40.3,959.8,33.5,948.1,33.5z M945.6,63c-5.6,0-10.2-4.4-10.2-9.8s4.6-9.8,10.2-9.8c5.6,0,10.2,4.4,10.2,9.8
			S951.3,63,945.6,63z"/>
		<g class="st6">
			<path class="st2" d="M928.3,57.3c3.2,0.9,6.4,1.7,9.6,2.2c-1.5-1.7-2.4-3.9-2.4-6.3c0-5.4,4.6-9.8,10.2-9.8
				c5.6,0,10.2,4.4,10.2,9.8c0,1.8-0.5,3.4-1.3,4.8c5.3-1.8,10.3-4,15.5-6c-0.3-12.1-10.5-18.5-21.9-18.5
				c-11.7,0-21.1,8.8-21.1,19.7c0,1.3,0.1,2.6,0.4,3.8C927.7,57.1,928,57.2,928.3,57.3z"/>
		</g>
		<g>
			<path class="st4" d="M948.1,35.3c10.9,0,20.7,5.8,21.8,16.8h0.1c-0.3-12.1-10.5-18.5-21.9-18.5c-11.7,0-21.1,8.8-21.1,19.7
				c0,0.3,0,0.6,0,0.9C927.5,43.6,936.7,35.3,948.1,35.3z"/>
		</g>
		<path class="st4" d="M936.3,57c0,0,2.7,5.9,9.4,5.9c6.6,0.1,9.2-5.7,10-7.9c0,0-0.7,9.2-10.5,8.6C937.7,63.2,936.3,57,936.3,57z"
			/>
		<path class="st7" d="M941.3,68.9c-0.1,0.3,1.1,0.9,2.8,1.4s3.9,0.7,5.4,0.6s4.6-0.4,7.6-1.7c1.5-0.6,2.9-1.4,4.1-2.2
			c1.2-0.8,2.2-1.7,2.9-2.3c1.4-1.3,1.9-2.2,2.1-2.8c0.2-0.6,0.1-0.8,0-0.9s-0.2-0.3-0.6,0c-0.2,0.1-0.5,0.4-0.8,0.8
			c-0.2,0.2-0.4,0.4-0.7,0.7c-0.3,0.3-0.6,0.6-1,1s-0.8,0.7-1.3,1.1s-1,0.7-1.5,1.1c-1.1,0.7-2.3,1.4-3.6,1.9
			c-2.6,1.1-5.3,1.5-7.2,1.6c-0.5,0-1.3,0-2.1,0c-0.4,0-0.9,0-1.3-0.1c-0.5,0-0.9-0.1-1.3-0.1C942.9,68.9,941.4,68.6,941.3,68.9z
			 M968,56.9c0.2,0,0.4,0.1,0.5,0.6c0,0.1,0.1,0.2,0.1,0.4c0,0.1,0,0.3,0,0.4c0,0.3-0.2,0.7-0.4,1.1c-0.8,1.5-1.3,0.8-1.2,0.1
			c0.1-0.5,0.2-0.9,0.3-1.2c0.1-0.3,0.1-0.6,0.2-0.8C967.7,57.1,967.9,57,968,56.9z"/>
	</g>
	<g>
		<path class="st0" d="M990,75c0.1,1,1.2,2.1,1.7,2.8c0.7,1,1.4,2.1,2.8,2c0.6-0.1,1.2-0.3,1.8-0.4c2.7-0.6,5.4-1.2,8.2-1.9
			c1.7-0.4,5.2-0.5,5.3-2.9c0.1-1.1-0.3-2.3-0.5-3.3c-1.4-9.3-2.9-18.5-4.3-27.8v-0.1c4.4,0.2,8.8,0.5,13.1,0.7
			c0.9,0,1.8-0.1,2.4-0.9c0.6-0.8,0.4-1.7,0.3-2.6c-0.2-2.7-0.3-5.3-0.5-8c-0.1-1.2-0.2-2.4-0.2-3.5c-0.1-1-0.1-2-1.1-2.6
			c-1-0.7-2-1.3-2.9-2c-0.3-0.3-0.7-0.3-1.1-0.3c-0.4,0-0.7,0-1.1,0.1c-4.4,0.2-8.8,0.5-13.3,0.7c-5.8,0.3-11.6,0.6-17.5,0.9
			c-2,0.1-4.1,0.2-6.1,0.3c-0.8,0.1-2.2-0.1-3,0.4c-1,0.6-0.7,1.7-0.6,2.6c0.2,1.2,0.4,2.4,0.5,3.6c0.4,2.6,0.8,5.1,1.2,7.7
			c0.2,1.3,1,2.2,1.8,3.3c0.7,1,1.3,2,2.6,2c0.3,0,0.6-0.1,1-0.2c2.5-0.4,5-0.8,7.5-1.3c0.1,0,0.3,0,0.4-0.1
			c0.5,9.1,1,18.2,1.5,27.2C989.9,72.6,990,73.8,990,75z"/>
		<path class="st1" d="M990,75c0,0.5,0.3,0.9,0.6,1.2c0.3,0.2,0.6,0.3,1,0.3c0.1,0,0.2,0,0.4,0l13.3-3c0.8-0.2,1.4-1,1.2-1.8
			l-4.9-31.6l14.3,0.8h0.1l0,0c0.9,0,1.6-0.7,1.6-1.6c0-0.1,0-0.2,0-0.3l-0.9-13.3c-0.1-0.9-0.8-1.6-1.7-1.5l-40.3,2.2
			c-0.5,0-0.9,0.3-1.2,0.6c-0.3,0.4-0.4,0.8-0.4,1.3l2,12.8c0.1,0.4,0.3,0.8,0.7,1.1s0.8,0.4,1.2,0.3l11-1.9L990,75z"/>
		<polygon class="st2" points="974.9,27.9 976.9,40.8 989.7,38.6 991.7,74.9 1004.9,71.9 999.7,38.4 1016,39.3 1015.2,25.8 		"/>
		<path class="st3" d="M989.7,38.6l0.6,11c3.7,0.1,7.4-0.1,11.1-0.5l-1.7-10.6l16.3,0.9l-0.9-13.5l-40.3,2.2l2,12.8L989.7,38.6z"/>
		<polygon class="st4" points="1015.2,25.8 974.9,27.9 975.8,34 976,30.2 1014.3,28.1 1015.9,36.8 		"/>
		<path class="st5" d="M1003,71.4c-0.1-0.6-5.2-0.3-8,0.1l-1.1,0.1l-0.9-12c-0.3-3.5-0.9-3.8-1.2-3.8s-0.8-0.2-0.5,3.9l1,13.8l3-0.4
			C997.2,73,1003.1,72.1,1003,71.4z M991.3,51.6c0.3-0.1,1.2,0.5,1.2,2c0.1,1.5-0.7,1.3-1.1,0.7C990.6,52.5,991,51.7,991.3,51.6z"/>
	</g>
</g>
</svg>
