<?xml version="1.0" encoding="utf-8"?>
<!-- Generator: Adobe Illustrator 24.0.2, SVG Export Plug-In . SVG Version: 6.00 Build 0)  -->
<svg version="1.1" id="Capa_1" xmlns="http://www.w3.org/2000/svg" xmlns:xlink="http://www.w3.org/1999/xlink" x="0px" y="0px"
	 viewBox="0 0 283.6 67.2" style="enable-background:new 0 0 283.6 67.2;" xml:space="preserve">
<style type="text/css">
	.st0{fill:#352E16;}
	.st1{fill:#954415;}
	.st2{fill:#F1AF02;}
	.st3{opacity:0.7;}
	.st4{fill:#FFFFFF;}
	.st5{fill:#F9B84A;}
	.st6{opacity:0.8;fill:#F1AF02;}
	.st7{fill:#F6EB69;}
	.st8{opacity:0.8;}
	.st9{fill:#F4F4F4;}
</style>
<g>
	<path class="st0" d="M-572.3,22c-0.3,0.4,0,1,0.1,1.5c0.2,0.8,0.4,1.7,0.6,2.5c0.6,2.6,1.2,5.3,1.9,7.9c0.6,2.6,1.2,5.2,1.8,7.8
		c0.2,0.8,0.4,1.6,0.6,2.4c0,0.2,0.1,0.4,0.1,0.5c0.1,0.5,0.5,0.9,0.8,1.3c0.3,0.4,0.6,0.9,1.1,1c0.1,0,0.3,0,0.4,0
		c0.6,0,1.2-0.1,1.8-0.1c0.6,0,1.3-0.1,1.9-0.1c0.6,0,1.2-0.2,1.4-0.8c0.7-2,1.2-4,1.7-6c0,0,0-0.1,0-0.1c0.4,1,0.8,2,1.2,3.1
		c0,0.1,0.1,0.3,0.2,0.4c0.1,0.2,0.3,0.4,0.5,0.5c0.1,0.2,0.2,0.5,0.4,0.7c0.3,0.6,0.7,0.8,1.3,0.7c1.3-0.1,2.5-0.1,3.8-0.2
		c0.4,0,0.9,0,1.3-0.2c0.3-0.2,0.5-0.5,0.5-0.9c0.9-4.6,1.9-9.3,2.8-13.9c0.2-0.9,0.4-1.9,0.6-2.8c0.1-0.7,0.4-1.5-0.4-2
		c-0.2-0.2-0.5-0.4-0.7-0.5c-0.2-0.2-0.5-0.4-0.7-0.5c-0.1-0.1-0.2-0.1-0.4-0.1c-0.5-0.1-1-0.3-1.5-0.4c-1.2-0.4-2.4-0.7-3.7-1.1
		c-0.6-0.2-1.2-0.1-1.3,0.6c-0.1,0.6-0.2,1.2-0.3,1.8c-0.2,1.3-0.4,2.6-0.6,4c-0.4-0.8-0.8-1.7-1.2-2.5c-0.1-0.2-0.2-0.4-0.5-0.6
		c-0.4-0.3-0.8-0.6-1.3-0.9c-0.5-0.5-1.1-0.2-1.4,0.3c-0.8,1.7-1.7,3.3-2.5,5c-0.5-2.2-1-4.3-1.5-6.5c-0.1-0.4-0.2-0.8-0.3-1.2
		c-0.2-0.7-0.9-1-1.5-1.4c-0.3-0.2-0.6-0.5-1.1-0.5c-0.1,0-0.3,0-0.4,0.1c-0.6,0.1-1.2,0.2-1.8,0.3c-0.8,0.1-1.6,0.3-2.5,0.4
		C-571.3,21.6-572,21.6-572.3,22C-572.4,22.2-572.2,21.8-572.3,22z"/>
	<path class="st1" d="M-572.3,22c-0.1,0.2-0.2,0.4-0.1,0.6l5.2,22c0.1,0.4,0.4,0.6,0.8,0.6c0,0,0,0,0,0l4.3-0.2
		c0.3,0,0.6-0.2,0.7-0.6l2.2-7.7l2.4,6.2c0.1,0.3,0.4,0.5,0.8,0.5l4.8-0.2c0.4,0,0.7-0.3,0.7-0.6l3.6-17.6c0.1-0.4-0.2-0.8-0.6-0.9
		l-5.7-1.7c-0.2-0.1-0.5,0-0.6,0.1c-0.2,0.1-0.3,0.3-0.4,0.5l-1.2,7.4l-2.5-5.4c-0.1-0.3-0.4-0.5-0.7-0.5c-0.3,0-0.6,0.2-0.7,0.4
		l-3.5,6.8l-2.6-10.7c-0.1-0.4-0.5-0.7-0.9-0.6l-5.6,0.9C-572,21.7-572.2,21.8-572.3,22z"/>
	<polygon class="st2" points="-571.6,22.5 -566,21.5 -563,34.3 -558.6,25.5 -555,33.3 -553.4,23.3 -547.7,25 -551.3,42.6 -556,42.8 
		-559.3,34.4 -562.1,44.3 -566.5,44.5 	"/>
	<g class="st3">
		<path class="st2" d="M-563,36.8c0.5,0.1,1,0.1,1.5,0.2c0.1,0,0.5,0,0.6,0c0.3,0,0.5,0,0.8,0l0.7-2.6l1,2.5
			c1.1-0.1,2.3-0.2,3.4-0.4c1.7-0.3,3.4-0.7,5.1-1.1l2.1-10.4l-5.7-1.7l-1.6,10l-3.6-7.8l-4.4,8.8l-3.1-12.8l-5.6,0.9l3,12.9
			C-566.9,36.1-565.2,36.5-563,36.8z"/>
	</g>
	<g>
		<polygon class="st4" points="-571.1,23.5 -566.4,22.7 -563.1,35.6 -558.6,27.2 -554.7,35.6 -553,24.5 -548.2,26 -549.1,31.7 
			-547.7,25 -553.4,23.3 -555,33.3 -558.6,25.5 -563,34.3 -566,21.5 -571.6,22.5 -570.5,27.4 		"/>
	</g>
	<path class="st5" d="M-565.8,43.8c0,0.3,1.6,0.3,2.4,0.2l1-0.1l1.2-3.8c0.3-1,0-1.2-0.1-1.2c-0.1-0.1-0.3-0.2-0.7,1l-1,3.2l-0.5,0
		C-564.1,43.2-565.9,43.5-565.8,43.8z M-561,37.7c0.1,0,0.5,0.3,0.3,0.7c-0.2,0.4-0.5,0.2-0.6,0C-561.5,37.8-561.2,37.6-561,37.7z"
		/>
	<path class="st5" d="M-555.3,42.1c0,0.3,1.5,0.3,2.4,0.3l1.4-0.1l0.6-3.6c0.2-1-0.1-1.2-0.3-1.2c-0.2,0-0.3-0.1-0.5,1.1l-0.5,2.9
		l-0.8,0.1C-553.6,41.6-555.3,41.8-555.3,42.1z M-551.1,36.2c0.2,0,0.5,0.3,0.4,0.7c-0.1,0.4-0.5,0.3-0.6,0.1
		C-551.5,36.4-551.2,36.2-551.1,36.2z"/>
</g>
<g>
	<path class="st0" d="M-541.6,47.7c0.5,0.8,1.9,0.6,2.6,0.6c1.4,0.1,2.8,0.2,4.3,0.2c0.5,0,1,0.1,1.6,0.1c0.4,0,0.9,0.1,1.2-0.3
		c0.4-0.3,0.4-0.8,0.4-1.2c0-0.6,0-1.1,0.1-1.7c0.1-1.6,0.1-3.2,0.2-4.8c0.1,0,0.4,0,0.4,0.1c0,0.2,0,0.3,0.1,0.5
		c0.1,0.6,0.1,1.3,0.2,1.9c0.1,0.7,0.2,1.4,0.2,2.1c0,0.3,0,0.7,0.1,1c0.1,0.2,0.2,0.4,0.3,0.6c0.3,0.4,0.5,0.7,0.7,0.9
		c0.5,0.6,0.8,0.8,1.4,0.8c1.2-0.1,2.4-0.2,3.7-0.2c1-0.1,1.9-0.1,2.9-0.2c0.7,0,1.2-0.7,1-1.4c0-0.1-0.1-0.3-0.1-0.4
		c-0.5-1.8-0.9-3.6-1.4-5.5c-1.4-5.3-2.7-10.5-4.1-15.8c-0.2-0.7-0.3-1.3-0.5-2c0-0.1-0.1-0.2-0.1-0.4c-0.1-0.5-0.6-0.8-1-1
		c-0.4-0.3-0.9-0.8-1.4-0.8c-0.3,0-0.6,0-0.9,0c-1.3,0-2.6-0.1-3.9-0.1c-1.3,0-2.6-0.1-3.9-0.1c-0.6,0-1.6-0.2-1.8,0.7
		c-0.2,1.4-0.4,2.8-0.6,4.2c-0.7,5.5-1.5,11-2.2,16.4c-0.1,1.1-0.3,2.2-0.4,3.3c0,0.2,0,0.3-0.1,0.5c-0.1,0.4,0.3,0.8,0.5,1.1
		C-542,47.1-541.8,47.4-541.6,47.7z"/>
	<path class="st1" d="M-542,46.6l7.9,0.4c0,0,0,0,0,0c0.2,0,0.4-0.1,0.5-0.2c0.2-0.1,0.3-0.3,0.3-0.6l0.3-7.3l1.8,0.1l0.8,7
		c0,0.4,0.4,0.7,0.8,0.7l6.8-0.4c0.2,0,0.5-0.1,0.6-0.3c0.1-0.2,0.2-0.4,0.1-0.7l-6.2-24c-0.1-0.4-0.4-0.6-0.8-0.6l-9.7-0.2
		c-0.4,0-0.8,0.3-0.8,0.7l-3.3,24.5c0,0.2,0,0.4,0.2,0.6C-542.4,46.5-542.2,46.6-542,46.6z M-531.9,32.1l-0.7,0l0.1-3.2h0.2
		L-531.9,32.1z"/>
	<path class="st2" d="M-529.5,46l6.8-0.4l-6.2-24l-9.7-0.2l-3.3,24.5l7.9,0.4l0.3-8.1l3.3,0.3L-529.5,46z M-533.4,32.9l0.2-4.8h1.7
		l0.5,4.8L-533.4,32.9z"/>
	<path class="st6" d="M-539,36.1c0.8,0.3,3,0.9,4.5,1.1c0.8,0.2,1.7,0.3,2.5,0.4c0.3,0,0.7,0.1,1,0.1c0.1,0,0.2,0,0.2,0
		c0.1,0,0.2,0,0.3,0c1.9,0.1,3.8,0,5.7-0.2l-4.1-16l-9.7-0.2l-1.9,14.2C-540,35.7-539.5,35.9-539,36.1z M-533.2,28.1h1.7l0.5,4.8
		l-2.5,0L-533.2,28.1z"/>
	<polygon class="st4" points="-531.5,28.3 -531,32.9 -533.4,32.9 -533.3,28.3 -533.6,33.3 -530.8,33.4 	"/>
	<path class="st4" d="M-538.2,22.5l8.9,0.2c0,0,2.8,9.2,3.1,9.2l-2.7-10.3l-9.7-0.2l-1.4,10.7C-539.9,32.1-538.2,22.5-538.2,22.5z"
		/>
	<path class="st6" d="M-539.7,45.1c0,0.3,2,0.6,3,0.6c0.3,0,0.7,0,1.2,0c0.1,0,0.3,0,0.4,0c0.1,0,0.1,0,0.2,0h0.1c0,0,0.1,0,0.1,0
		l0,0l0,0c0.1,0,0.1,0,0.2-0.1c0,0,0,0,0.1-0.2c0-0.1,0-0.9-0.4-0.1l0,0l0,0c0,0,0,0,0.1-0.1c0.1,0,0.2-0.1,0.2,0c0,0,0,0.1,0,0.1v0
		v-0.1l0-0.2c0-0.1,0-0.3,0-0.4c0.1-1.1,0.1-2.3,0.2-2.9c0.1-1.3-0.2-1.5-0.4-1.5c-0.2,0-0.4-0.1-0.5,1.5c0,0.8-0.1,1.9-0.2,2.9
		c0,0.3,0,0.5,0,0.8v0c0,0,0,0,0,0.1c0,0.1,0,0.1,0,0.1c0,0.1,0,0,0,0.1c0.2-0.1-0.3,0.2,0.3-0.2l0,0c0,0,0,0,0,0c0,0,0-0.1,0-0.1
		l0-0.2c0-0.1,0-0.1,0-0.1h0h0l0,0h-0.2c-0.1,0-0.2,0-0.4,0c-0.5,0-0.9,0-1.3,0C-537.4,44.8-539.7,44.8-539.7,45.1z M-534.5,38.3
		c0.1,0,0.6,0.2,0.5,0.8c0,0.6-0.4,0.5-0.6,0.2C-534.9,38.7-534.7,38.4-534.5,38.3z"/>
	<path class="st6" d="M-529.1,45.4c0,0.3,2.1,0.3,3.2,0.2c0.3,0,0.7-0.1,1.2-0.1c0.3,0,0.6,0,1-0.1c0.1,0,0.3,0,0.4,0l0.2,0
		c0,0,0-0.1,0-0.2c-0.1-0.3-0.1-0.5-0.2-0.8c-0.3-1.2-0.6-2.3-0.8-3c-0.4-1.4-0.7-1.4-0.9-1.4c-0.2,0-0.4,0,0,1.6
		c0.2,0.8,0.5,1.9,0.7,3l0,0.1c0,0,0,0,0,0c-0.2,0-0.4,0-0.5,0c-0.5,0-1,0.1-1.3,0.1C-526.7,44.8-529.1,45.1-529.1,45.4z
		 M-525.4,38.3c0.1-0.1,0.6,0.1,0.7,0.7c0.1,0.6-0.3,0.6-0.5,0.4C-525.7,38.8-525.5,38.4-525.4,38.3z"/>
</g>
<g>
	<path class="st0" d="M-499.4,50.6c1.5,0,1.3-1.9,1.4-2.9c0.1-1.6,0.1-3.2,0.2-4.8c0-0.5,0-1,0.1-1.4c0-1-0.7-1.2-1.3-1.7
		c-0.5-0.4-1.1-0.8-1.7-0.8c-0.7,0-1.4,0-2.1,0c-0.3,0-2.9,0.2-2.9,0c-0.1-0.8-0.1-1.6-0.2-2.4c-0.3-3.2-0.5-6.4-0.8-9.5
		c-0.1-1.2-0.2-2.4-0.3-3.5c0-0.2,0-0.5-0.1-0.7c-0.1-0.9-1-1.3-1.7-1.7c-0.4-0.3-0.8-0.6-1.3-0.5c-0.1,0-0.2,0-0.3,0.1
		c-0.5,0.1-1.1,0.2-1.6,0.3c-1.6,0.3-3.2,0.7-4.8,1c-0.8,0.2-2.7,0.2-2.4,1.5c0.1,0.5,0.2,1,0.3,1.4c0.6,2.6,1.2,5.3,1.8,7.9
		c1.1,5,2.3,10,3.4,14.9c0,0.1,0,0.1,0.1,0.2c0.1,0.3,0.3,0.5,0.5,0.7c0.2,0.3,0.4,0.7,0.7,1c0.3,0.5,0.8,0.7,1.4,0.7
		c1.2,0.1,2.4,0.1,3.5,0.1c2.7,0.1,5.3,0.2,8,0.3C-499.4,50.6-499.4,50.6-499.4,50.6z"/>
	<path class="st1" d="M-500.8,48.8c0.5,0,0.9-0.4,0.9-0.9l0.4-8.1c0-0.3-0.1-0.5-0.3-0.7c-0.2-0.2-0.4-0.3-0.7-0.3l-7,0.1l-1.5-17.8
		c0-0.3-0.2-0.5-0.4-0.7c-0.2-0.2-0.5-0.2-0.7-0.2l-8.3,1.7c-0.2,0.1-0.5,0.2-0.6,0.4c-0.1,0.2-0.2,0.5-0.1,0.7l5.5,24.4
		c0.1,0.4,0.4,0.7,0.9,0.7L-500.8,48.8C-500.9,48.8-500.8,48.8-500.8,48.8z"/>
	<polygon class="st2" points="-518.2,23 -509.9,21.3 -508.3,39.9 -500.5,39.8 -500.8,47.9 -512.7,47.4 	"/>
	<path class="st6" d="M-508.8,34l-1.1-12.7l-8.3,1.7l2.9,12.7C-513.2,34.9-511,34.4-508.8,34z"/>
	<path class="st4" d="M-509.9,21.3l-8.3,1.7l1,4.5l-0.3-3.3l7.3-1.8l1.9,17.8l7.5,0.4l0.3,3.3l0.2-4c0,0-7.9,0.1-7.8,0.1
		L-509.9,21.3z"/>
	<path class="st6" d="M-504.7,47.1c0-0.4-2.8-0.7-4.3-0.8l-2.8-0.2l-0.9-4.5c-0.4-1.8-0.8-2-1-1.9c-0.2,0-0.4-0.1,0,2.1l1.1,5.2
		l3.5,0.2C-507.9,47.3-504.7,47.5-504.7,47.1z M-514.2,37.4c0.2-0.1,0.7,0.2,0.8,1c0.2,0.8-0.3,0.8-0.5,0.5
		C-514.5,37.9-514.3,37.4-514.2,37.4z"/>
</g>
<g>
	<path class="st0" d="M-486.4,21.6c-0.1-0.6-0.5-0.9-1-1.1c-0.2-0.1-0.4-0.3-0.7-0.4c-0.2-0.2-0.4-0.4-0.6-0.5
		c-0.3-0.2-0.9-0.1-1.2-0.1c-1.5,0-3,0.1-4.5,0.1c-0.8,0-2.2-0.2-2.2,1c0,0.5,0,1.1,0.1,1.6c0.2,5.8,0.5,11.6,0.7,17.4
		c0.1,2.3,0.2,4.5,0.3,6.8c0,0.7,0,1.2,0.6,1.7c0.1,0.2,0.3,0.5,0.4,0.6c0.1,0.2,0.2,0.5,0.4,0.7c0.3,0.3,0.7,0.4,1,0.4
		c0.4,0,0.7,0,1.1-0.1c2.5-0.2,5-0.3,7.6-0.5c0.7,0,1.2-0.4,1.3-1.1c0-0.4-0.1-0.9-0.1-1.4c-0.1-1.2-0.3-2.3-0.4-3.5
		c0.8,0.9,1.6,1.8,2.4,2.7c0.5,0.6,1.4,0.8,2,0.1c0.3-0.3,0.5-0.6,0.8-0.9c1-1.1,2-2.3,3-3.4c0.2-0.3,0.5-0.5,0.7-0.8
		c0.6-0.6,0.3-1.4-0.3-1.9c-2-1.5-3.9-3-5.9-4.5c-0.1-0.1,3.2-4.8,3.5-5.2c0.8-1.2,1.7-2.5,2.5-3.7c0.4-0.6,1.2-1.5,1.2-2.2
		c0-0.7-0.6-1-1.1-1.3c-0.4-0.3-1-0.8-1.5-0.9c-0.4-0.1-0.7-0.1-1.1-0.2c-1.5-0.2-3-0.4-4.5-0.6c-0.4-0.1-0.9-0.1-1.3-0.2
		c-0.7-0.1-0.9,0.5-1.2,1c-0.5,1.2-1.1,2.3-1.6,3.5C-486.1,23.6-486.2,22.6-486.4,21.6z"/>
	<path class="st1" d="M-488.1,20.3c-0.1-0.4-0.4-0.8-0.9-0.8l-6.6,0.1c-0.2,0-0.5,0.1-0.6,0.3c-0.2,0.2-0.3,0.4-0.2,0.6l1.1,26.6
		c0,0.2,0.1,0.5,0.3,0.6c0.2,0.1,0.4,0.2,0.6,0.2c0,0,0,0,0.1,0l8.9-0.6c0.2,0,0.5-0.1,0.6-0.3c0.2-0.2,0.2-0.4,0.2-0.7l-0.7-5.7
		l3.3,3.7c0.2,0.2,0.4,0.3,0.7,0.3c0.3,0,0.5-0.1,0.7-0.3l4.5-5.1c0.2-0.2,0.2-0.4,0.2-0.7c0-0.2-0.1-0.5-0.3-0.6l-6.3-4.8l7.2-10.6
		c0.2-0.3,0.2-0.6,0.1-0.9c-0.1-0.3-0.4-0.5-0.7-0.5l-7-0.9c-0.4-0.1-0.8,0.2-0.9,0.5l-3.1,6.6L-488.1,20.3z"/>
	<polygon class="st2" points="-476.4,22 -483.3,21.1 -487.7,30.5 -489,20.4 -495.6,20.5 -494.6,47.1 -485.7,46.5 -486.8,38 
		-481.6,43.8 -477.1,38.7 -484.1,33.4 	"/>
	<path class="st6" d="M-487.2,30.5c1.4,0.3,2.8,0.8,4.3,1.2l6.6-9.7l-7-0.9l-4.3,9.3C-487.5,30.4-487.4,30.5-487.2,30.5z"/>
	<path class="st6" d="M-487.7,30.4l-1.3-10l-6.6,0.1l0.4,9C-492.7,29.5-490.2,29.8-487.7,30.4z"/>
	<path class="st4" d="M-482.9,21.9l5.7,1c0,0-5.8,8.9-5.8,8.9l6.6-9.7l-7-0.9l-3.8,8.2L-482.9,21.9z"/>
	<polygon class="st4" points="-489,20.4 -495.6,20.5 -495.4,26.7 -495.4,21.4 -489.5,21.1 -488.3,26.4 	"/>
	<path class="st6" d="M-478.1,39.1c0.2-0.3-0.7-1.2-1.3-1.6c-0.5-0.4-2.3-1.8-2.9-2.3c-0.7-0.5-1-0.3-1.1-0.2
		c-0.1,0.1-0.3,0.3,0.5,0.9c0.8,0.6,2.2,1.7,2.9,2.3C-479.5,38.6-478.3,39.4-478.1,39.1z M-484.3,34.4c0.1-0.1,0.5-0.4,0.8-0.2
		c0.3,0.2,0,0.6-0.2,0.6C-484.3,34.9-484.3,34.6-484.3,34.4z"/>
	<path class="st6" d="M-489.3,45.9c0-0.2-0.7-0.3-1.6-0.4c-0.4-0.1-0.9-0.1-1.4-0.1c-0.2,0-0.5,0-0.7,0c-0.1,0-0.2,0-0.3,0h0h0l0,0
		l0,0l-0.2-7.4c-0.1-1.9-0.4-2.1-0.6-2.1c-0.2,0-0.4-0.1-0.3,2.1l0.2,8.3l0.4,0c0.2,0,0.4,0,0.7,0c0.2,0,0.4,0,0.6,0
		c0.4,0,0.9,0,1.4,0C-490.1,46.2-489.3,46.1-489.3,45.9z M-494.2,33.5c0.2-0.1,0.6,0.3,0.6,1.1c0,0.8-0.4,0.7-0.6,0.4
		C-494.6,34-494.4,33.5-494.2,33.5z"/>
</g>
<g>
	<path class="st0" d="M-466.6,22.6c-0.3,0.3-0.2,0.8-0.2,1.1c0,0.6,0,1.2,0,1.8c0,1.1,0,2.2,0.1,3.3c0,0.3,0.1,0.5,0.3,0.7
		c0.3,0.4,0.6,1.1,1,1.4c0.5,0.4,1.3,0.2,1.8,0.2c0.3,0,0.3,0,0.3,0.3c0,0.4,0,0.9,0.1,1.4c0.1,2.3,0.2,4.6,0.3,6.9
		c0,0.2-0.6,0.1-0.8,0.1c-0.5,0-1.1,0.1-1.6,0.1c-0.7,0-0.7,0.6-0.7,1.2c0.1,0.5,0.1,1.1,0.2,1.6c0.1,1.1,0.3,2.3,0.4,3.4
		c0,0.3,0.2,0.4,0.3,0.7c0.2,0.2,0.3,0.5,0.5,0.7c0.2,0.2,0.3,0.5,0.5,0.7c0.4,0.3,0.8,0.2,1.2,0.2c2.4-0.3,4.8-0.6,7.2-1
		c0.6-0.1,1.3-0.1,1.9-0.3c0.9-0.4,0.6-1.9,0.6-2.7c0-1,0-2-0.1-2.9c0-0.8-0.8-1-1.3-1.5c-0.2-0.2-0.7-0.6-1-0.5c-0.2,0-0.4,0-0.6,0
		c0.1-2.1,0.1-4.2,0.2-6.4c0-0.5,0-1,0.1-1.5c0-0.1-0.1-0.5,0.1-0.5c0.6,0,1.1,0,1.7,0c0.7,0,1.1-0.6,1.1-1.3c0-1.1,0-2.2-0.1-3.3
		c0-0.6,0-1.2,0-1.8c0-0.4,0-0.8-0.2-1.1c-0.1-0.2-1.6-1.3-2-1.4c-0.2,0-0.4,0-0.6,0c-1.1,0-2.2,0-3.2,0c-1.6,0-3.1,0-4.7,0
		c-0.5,0-1.1,0-1.6,0C-465.9,22.4-466.3,22.3-466.6,22.6C-466.7,22.7-466.5,22.5-466.6,22.6z"/>
	<path class="st1" d="M-466.6,22.6c-0.1,0.1-0.2,0.3-0.2,0.5l0.1,5.7c0,0.4,0.3,0.8,0.8,0.8h2.6l0.4,10.2l-2.4,0.1
		c-0.2,0-0.4,0.1-0.5,0.3c-0.1,0.2-0.2,0.4-0.2,0.6l0.6,5.4c0,0.2,0.1,0.4,0.3,0.5c0.1,0.1,0.3,0.2,0.5,0.2c0,0,0.1,0,0.1,0l9.1-1.2
		c0.4,0,0.7-0.4,0.7-0.8l-0.1-4.7c0-0.2-0.1-0.4-0.2-0.5c-0.2-0.1-0.4-0.2-0.6-0.2l-2.2,0.1l0.3-9.9h2.1h0c0.4,0,0.8-0.3,0.8-0.8
		c0,0,0-0.1,0-0.1l-0.1-5.7c0-0.4-0.3-0.8-0.8-0.8l-10.5,0.1C-466.3,22.4-466.5,22.5-466.6,22.6z"/>
	<polygon class="st2" points="-458.7,40.4 -458.3,28.9 -455.4,28.9 -455.5,23 -466.1,23.1 -466,28.9 -462.6,28.9 -462.1,40.5 
		-465.2,40.7 -464.6,46.1 -455.5,44.9 -455.6,40.2 	"/>
	<g class="st3">
		<path class="st2" d="M-462.6,28.9l0.2,4.6c1.3,0.1,2.6,0.2,4,0.3l0.2-4.9h2.8l-0.1-5.8l-10.5,0.1l0.1,5.7H-462.6z"/>
	</g>
	<g>
		<polygon class="st4" points="-465.6,23.9 -455.7,23.8 -455.5,25.9 -455.5,23 -466.1,23.1 -466,27.1 		"/>
	</g>
	<polygon class="st4" points="-462.1,39.7 -462,40.9 -464.8,41.2 -464.8,44.8 -465.2,40.7 -462.1,40.5 	"/>
	<polygon class="st4" points="-458.6,39.7 -458.7,40.6 -455.8,40.6 -455.5,44.6 -455.6,40.2 -458.6,40.3 	"/>
	<path class="st5" d="M-464.3,45.4c0,0.3,1.8,0.2,2.7,0c0.9-0.1,3.9-0.6,5-0.8c0.2,0,0.5-0.1,0.7-0.1c0-0.2,0-0.4,0-0.6
		c0-0.1,0-0.1,0-0.2c0,0,0-0.1,0-0.1c0-0.1-0.1-0.2-0.1-0.3c-0.1-0.1-0.2-0.2-0.3-0.2c-0.1,0-0.1,0-0.2,0.1c0,0.1-0.1,0.1-0.1,0.3
		c0,0.1,0,0.2,0,0.3c0,0,0,0,0,0c0,0,0,0,0,0c-1.4,0.2-3.8,0.6-5,0.8C-462.3,44.7-464.3,45.1-464.3,45.4z M-456.3,41.7
		c0.1,0,0.5,0.2,0.5,0.7c0,0.5-0.4,0.4-0.5,0.2C-456.7,42-456.5,41.7-456.3,41.7z"/>
</g>
<g>
	<path class="st0" d="M-438,23.1c-0.2-0.2-0.5-0.4-0.7-0.5c-0.2-0.2-0.5-0.4-0.7-0.5c-0.2-0.1-0.3-0.1-0.5-0.1
		c-0.6-0.1-1.1-0.1-1.7-0.2c-1.1-0.1-2.1-0.3-3.2-0.4c-0.9-0.1-0.9,0.8-1,1.4c-0.1,0.8-0.2,1.7-0.2,2.5c-0.5,5.4-1,10.8-1.5,16.2
		c-0.1,0.8-0.2,1.7-0.2,2.5c0,0.2,0,0.4-0.1,0.6c0,0.5,0.2,0.7,0.5,1.1c0.4,0.6,0.8,1.4,1.6,1.5c0.3,0,0.7,0,1,0.1
		c1.4,0.1,2.7,0.1,4.1,0.2c0.9,0.1,1.8,0.1,2.7,0.1c0.5,0,1-0.2,1.2-0.6c0.2-0.3,0.1-0.7,0-1.1c-0.2-1.9-0.4-3.8-0.6-5.7
		c1.1,1.7,2.2,3.3,3.2,5c0.3,0.4,0.6,1.1,1,1.3c0.4,0.2,1,0.2,1.4,0.2c1.1,0,2.2,0.1,3.3,0c1,0,1.1-0.9,1.2-1.6
		c0.1-0.8,0.2-1.7,0.3-2.5c0.3-2.7,0.6-5.5,0.9-8.2c0.3-2.5,0.5-5.1,0.8-7.6c0.1-0.6,0.1-1.2,0.2-1.8c0.1-0.5-0.1-1-0.6-1.2
		c-0.2-0.2-0.5-0.4-0.7-0.5c-0.2-0.2-0.5-0.4-0.7-0.5c-0.1-0.1-0.3-0.1-0.5-0.1c-2,0-3.9-0.1-5.9-0.2c-0.8,0-1.5,0-2.3-0.1
		c-0.6,0-1,0.5-0.9,1.1c0.2,1.1,0.4,2.1,0.5,3.2c-0.3-0.6-0.5-1.2-0.8-1.8C-437.2,24.3-437.4,23.4-438,23.1
		C-438.1,23-437.8,23.2-438,23.1z"/>
	<path class="st1" d="M-439.7,22l-5.1-0.6c-0.2,0-0.4,0-0.6,0.2c-0.2,0.1-0.3,0.3-0.3,0.6l-2.1,22.5c0,0.2,0,0.4,0.2,0.6
		c0.1,0.2,0.3,0.3,0.6,0.3l7.9,0.4c0,0,0,0,0,0h0c0.4,0,0.8-0.4,0.8-0.8c0-0.1,0-0.1,0-0.2l-0.8-7.6l4.7,7.3
		c0.1,0.2,0.4,0.4,0.7,0.4h4.2c0.4,0,0.8-0.3,0.8-0.7l2.2-20.8c0-0.2,0-0.4-0.2-0.6c-0.1-0.2-0.4-0.3-0.6-0.3l-8.4-0.2
		c-0.2,0-0.5,0.1-0.6,0.3c-0.2,0.2-0.2,0.4-0.2,0.7c0.4,1.5,0.6,4.1,0.8,6.2l-3.3-7.1C-439.2,22.2-439.4,22.1-439.7,22z"/>
	<path class="st2" d="M-439.2,45.2l-7.9-0.4l2.1-22.5l5.1,0.6l5.1,11.1c0,0-0.4-7.5-1.2-10.8l8.4,0.2l-2.2,20.8h-4.2l-6.5-10.1
		L-439.2,45.2z"/>
	<g class="st3">
		<path class="st2" d="M-444.2,31.5c2.7-0.4,5.4-0.6,8.1-0.5l-3.8-8.1l-5.1-0.6l-0.9,9.6C-445.3,31.7-444.7,31.5-444.2,31.5z"/>
	</g>
	<g class="st3">
		<path class="st2" d="M-433.3,31.2c1.7,0.2,3.3,0.5,4.9,0.9l0.9-8.7l-8.4-0.2c0.4,2,0.8,5.4,1,7.9
			C-434.4,31.1-433.8,31.1-433.3,31.2z"/>
	</g>
	<g>
		<path class="st4" d="M-439.8,22.8l-5.1-0.6l-0.9,9.6c0.2,0,1.3-8.8,1.3-8.8l4.4,1l5.6,10.2L-439.8,22.8z"/>
	</g>
	<g>
		<path class="st4" d="M-435.3,23.9l7.4,0.6l0,4.3l0.6-5.4l-8.4-0.2c0.2,0.7,0.3,1.5,0.4,2.5L-435.3,23.9z"/>
	</g>
	<path class="st5" d="M-446.4,44c0,0.3,2.6,0.6,4,0.8l2.8,0.2l-0.7-5.8c-0.2-1.8-0.6-1.9-0.7-1.9c-0.2,0-0.4-0.1-0.1,2l0.6,4.8
		l-1.8-0.1C-443.3,43.8-446.3,43.6-446.4,44z M-441.3,35c0.1-0.1,0.6,0.2,0.7,1c0.1,0.8-0.3,0.7-0.5,0.4
		C-441.6,35.5-441.5,35.1-441.3,35z"/>
	<path class="st5" d="M-433.1,43.6c0,0.1,0.4,0.3,1,0.3c0.3,0,0.6,0.1,0.9,0.1c0.2,0,0.3,0,0.5,0c0.3,0,0.6,0,0.8,0
		c0-0.2,0.1-0.4,0.1-0.6c0.1-1.1,0.5-4.5,0.7-5.9c0.2-1.3-0.1-1.5-0.3-1.6c-0.2,0-0.3-0.2-0.5,1.5c-0.2,1.6-0.5,4.3-0.7,5.7
		c0,0,0,0,0,0c0,0,0,0,0,0c-0.1,0-0.3,0-0.4,0c-0.3,0-0.6,0-0.9,0.1C-432.7,43.3-433.1,43.4-433.1,43.6z M-429.4,34.3
		c0.2,0,0.5,0.3,0.4,0.9c-0.1,0.6-0.5,0.4-0.6,0.2C-429.8,34.6-429.5,34.3-429.4,34.3z"/>
</g>
<g>
	<path class="st0" d="M-419.6,33.2c0.1,2.3,0.7,4.6,1.8,6.6c0.5,1,1.2,1.9,1.9,2.8c0.7,1,1.5,1.9,2.5,2.6c1.9,1.3,4.4,1.7,6.6,0.9
		c1-0.4,2-1,2.8-1.7c0.4-0.3,0.7-0.7,1-1.1c0.2-0.2,0.3-0.4,0.4-0.6c0.1-0.2,0.2-0.5,0.4-0.4c0.4,0.2,0.7,0.3,1.1,0.2
		c0.4-0.1,0.6-0.4,0.7-0.8c0.1-0.5,0.2-0.9,0.2-1.4c0.1-0.6,0.2-1.2,0.3-1.9c0.1-0.5,0.2-1-0.1-1.4c-0.3-0.3-0.7-0.5-1.1-0.7
		c-0.2-0.2-0.4-0.4-0.7-0.5c-0.3-0.1-0.7-0.2-1-0.3c-1.2-0.4-2.4-0.7-3.7-1.1c-0.7-0.2-2.1-0.9-2.3,0.2c-0.1,0.5-0.2,1-0.3,1.6
		c-0.1,0.4-0.2,0.9-0.3,1.3c0,0.4,0.3,0.6,0.6,0.8c0.1,0.1,0.2,0.3,0.2,0.4c0,0.1-0.4,0.4-0.5,0.5c-0.4,0.3-0.9,0.3-1.3,0.2
		c-0.5-0.1-0.7-0.8-0.8-1.2c-0.4-1.3-0.2-3,0.2-4.3c0.3-0.8,0.7-1.5,1.3-2c0.3-0.3,0.8-0.5,1.2-0.5c0.3,0,0.5,0.1,0.7,0.2
		c0.2,0.2,0.3,0.3,0.5,0.5c0.2,0.4,0.5,0.9,0.9,1c0.2,0.1,1.3,0.1,1.8,0.1c1,0,1.8,0,2.8,0.1c0.4,0,0.7,0.1,1.1-0.2
		c0.4-0.3,0.5-1,0.6-1.5c0.3-1.1,0.5-2.2,0.7-3.3c0.1-0.4,0.1-0.7-0.1-1c-0.2-0.4-0.9-0.8-1.3-1c-0.3-0.2-0.2-0.2-0.7-0.3
		c-0.2,0-0.2,0-0.3-0.2c0-0.1-0.1-0.2-0.1-0.4c-0.1-0.3-0.3-0.5-0.4-0.8c-0.6-0.9-1.4-1.6-2.2-2.2c-0.9-0.7-1.8-1.3-2.9-1.7
		c-2.1-0.7-4.3-0.4-6.3,0.6c-2.8,1.4-4.6,4-5.4,6.9C-419.4,29.9-419.6,31.6-419.6,33.2C-419.5,36.1-419.6,30.9-419.6,33.2z"/>
	<path class="st1" d="M-419.6,33.2c0.1,3.8,2.1,8,4.7,10.2c1.3,1,2.8,1.6,4.4,1.6c1.1,0,2.1-0.2,3.1-0.7c1.6-0.8,2.9-2.1,3.7-3.7
		l0.7,0.3c0.2,0.1,0.4,0.1,0.6,0c0.2-0.1,0.3-0.3,0.4-0.5l0.7-3.8c0.1-0.4-0.2-0.7-0.5-0.8l-6.1-1.8c-0.2-0.1-0.4,0-0.6,0.1
		c-0.2,0.1-0.3,0.3-0.3,0.5l-0.6,2.8c-0.1,0.3,0.1,0.7,0.4,0.8l0.6,0.3c-0.4,0.7-1,1.2-1.8,1c-1.6-0.4-2.7-1.7-2.7-3.6
		c0-1,0-4.4,2.4-5.7c0.3-0.1,0.6-0.2,0.9-0.2c0.7,0,1.4,0.5,1.8,1.4c0.1,0.3,0.4,0.5,0.8,0.4c0.3,0,0.7-0.1,1.2-0.1
		c1.3,0,2.8,0.1,3.3,0.2c0.1,0,0.2,0,0.2,0c0.3,0,0.6-0.2,0.7-0.5c0.2-0.6,0.3-1.2,0.5-1.9c0.2-0.7,0.3-1.5,0.4-2.2l0.1-0.5
		c0.1-0.4-0.1-0.7-0.5-0.8c-0.1-0.1-0.4-0.1-1.7-0.3c0-0.1,0-0.1,0-0.1c0,0,0,0,0,0c-0.6-3.3-4.1-5.1-7-5.1c-0.7,0-1.4,0.1-2,0.3
		C-419.3,23-419.6,30.9-419.6,33.2z"/>
	<path class="st2" d="M-410.8,29.6c1.6-0.8,3.1,0.1,3.7,1.5c1.5-0.2,4.7,0.1,4.8,0.1c0.2-0.6,0.3-1.2,0.5-1.9
		c0.2-0.9,0.4-1.7,0.5-2.6c-0.2-0.1-2-0.3-2-0.3c0,0-0.2-0.7-0.2-0.7c-0.7-3.4-4.9-5.3-8.1-4.3c-5.7,1.8-7.3,7.4-7.2,11.8
		c0.1,3.4,1.8,7.5,4.5,9.7c1.8,1.5,4.4,2,6.7,0.8c1.8-0.9,3-2.3,3.7-4l1.4,0.6l0.7-3.8l-1.5-0.4l-4.6-1.3l-0.6,2.8l0.2,0.1l1,0.5
		c-0.5,1.3-1.5,2.4-2.9,2.1c-2.1-0.5-3.2-2.2-3.3-4.3C-413.6,33.6-413,30.8-410.8,29.6z"/>
	<path class="st6" d="M-418.8,33.3c1.8,0.1,3.6,0.3,5.4,0.5c0.3-1.7,1.1-3.4,2.6-4.2c1.6-0.8,3.1,0.1,3.7,1.5
		c1.5-0.2,4.7,0.1,4.8,0.1c0.2-0.6,0.3-1.2,0.5-1.9c0.2-0.9,0.4-1.7,0.5-2.6c-0.2-0.1-2-0.3-2-0.3c0,0-0.2-0.7-0.2-0.7
		c-0.7-3.4-4.9-5.3-8.1-4.3c-5.7,1.8-7.3,7.4-7.2,11.8C-418.8,33.3-418.8,33.3-418.8,33.3z"/>
	<path class="st4" d="M-411.5,22.1c0.5-0.2,1.1-0.2,1.7-0.2c2.4,0,5.3,1.7,5.9,4.4l0,0c0.1,0.8,0.3,0.9,0.4,1c0.1,0,0.1,0,0.4,0.1
		c0.2,0,0.8,0.1,1.2,0.2l0,0.1c-0.1,0.7-0.5,3.5-0.5,3.5c0.2-0.6,0.3-1.2,0.5-1.9c0.2-0.9,0.4-1.7,0.5-2.6c-0.2-0.1-2-0.3-2-0.3
		c0,0-0.2-0.7-0.2-0.7c-0.7-3.4-4.9-5.3-8.1-4.3c-4.8,1.5-6.7,5.7-7.1,9.7C-418.8,31.8-417.8,24-411.5,22.1z"/>
	<polygon class="st4" points="-408.5,37.2 -408,34.8 -402,36.5 -407.7,35.3 	"/>
	<path class="st4" d="M-413.3,33.3c0,0-1.2,4.8,2,6.6c2.9,1.6,4-1.7,4-1.7s-0.5,3.6-3.9,2.2C-414.6,39-413.7,34.5-413.3,33.3z"/>
	<path class="st6" d="M-407.8,43.2c-0.1-0.1-0.6,0.1-1.4,0.2c-0.7,0.1-1.6,0-2.2-0.1c-0.1,0-0.3-0.1-0.5-0.2c-0.1,0-0.2-0.1-0.3-0.1
		c-0.1-0.1-0.2-0.1-0.4-0.2c-0.5-0.3-1-0.6-1.5-1.1c-0.5-0.4-0.9-1-1.3-1.5c-0.1-0.1-0.2-0.2-0.3-0.4c-0.1-0.1-0.1-0.2-0.2-0.4
		c-0.1-0.2-0.2-0.4-0.3-0.6c-0.7-1.4-1-1.5-1.2-1.4c-0.1,0-0.4,0,0.5,1.8c0.2,0.4,0.5,1,0.9,1.5c0.4,0.5,0.8,1,1.3,1.5
		c1,0.9,2.2,1.5,3.2,1.7c0.5,0.1,1.5,0.2,2.4,0C-408.3,43.8-407.7,43.3-407.8,43.2z M-418.2,35.6c0.1-0.1,0.6,0.1,0.8,0.8
		c0.2,0.7-0.1,0.7-0.4,0.5c-0.3-0.4-0.4-0.7-0.5-0.9C-418.3,35.7-418.2,35.6-418.2,35.6z"/>
</g>
<g>
	<path class="st0" d="M-344.6,26.4c-1.3-0.9-2.5-1.8-3.9-2.4c-1.5-0.6-3-1-4.6-1.2c-3.5-0.4-7.2,0.1-10.5,1.5
		c-1,0.4-0.8,1.2-0.7,2.1c0.1,1.1,0.1,2.1,0.4,3.2c0.3,1.2,0.8,5.3,1.9,17.4c0.9,0.6,2.3,1.3,4.2,1.7c1.1,0.2,2.2,0.3,3.6,0.1
		c3.6-0.3,6.5-0.5,9.4-2.5c0.7-0.5,3.3-2.4,4.5-5.9C-337.8,32.8-344.5,26.4-344.6,26.4C-344.6,26.4-344.6,26.4-344.6,26.4z
		 M-352.6,36.9c-0.1,0.1-0.1,0.2-0.2,0.3c-0.1-0.7-0.2-1.4-0.4-2.1c0.3,0.1,0.8,0.1,0.8,0.5C-352.3,36.1-352.4,36.5-352.6,36.9
		C-352.6,37-352.3,36.4-352.6,36.9z"/>
	<path class="st1" d="M-355.5,22.6c-0.9,0-1.8,0.1-2.7,0.2c-1.9,0.3-3.8,0.8-5.5,1.5c-0.4,0.2-0.7,0.6-0.6,1.1
		c0.8,7.2,1.6,14.3,2.4,21.5c0.8,0,6.8,0.2,11-0.5c1.7-0.3,2.9-0.7,3.9-1.2c1.1-0.5,1.9-1.1,2.2-1.3c3.3-2.5,4.8-7.2,3.5-11.5
		C-343,26.2-348.4,22.6-355.5,22.6z M-354.4,38.2l-1-5.2c1.4,0.2,2.4,0.8,2.8,1.8c0.3,0.6,0.3,1.4-0.1,2.1c-0.3,0.7-0.8,1.1-1.5,1.3
		C-354.1,38.2-354.2,38.2-354.4,38.2z"/>
	<path class="st2" d="M-342.3,32.5c-2-7.1-9.1-9.6-15.8-8.7c-1.8,0.2-3.6,0.7-5.2,1.4l0.9,7.7c0.5,4.2,1,8.5,1.6,12.7
		c3.5,0.1,6.3,0,8.3-0.2c1.8-0.2,3.4-0.4,5.2-1.3c0.7-0.3,1.4-0.7,2-1.2C-342.3,40.6-341.3,36.2-342.3,32.5z M-353.8,39.2
		c-0.5,0.1-1,0-1.5-0.1l-1.3-7.2c2-0.1,4.1,0.4,5.1,2.4C-350.7,36.2-351.7,38.7-353.8,39.2z"/>
	<path class="st6" d="M-362.2,35.5c2-0.3,4.1-0.4,6.2-0.5l-0.6-3.1c2-0.1,4.1,0.4,5.1,2.4c0.1,0.3,0.2,0.5,0.3,0.8
		c3.2,0.2,6.3,0.7,9.3,1.3c0.1-1.3,0-2.7-0.3-3.9c-2-7.1-9.1-9.6-15.8-8.7c-1.8,0.2-3.6,0.7-5.2,1.4l0.9,7.7L-362.2,35.5z"/>
	<path class="st4" d="M-358.1,23.8c-1.8,0.2-3.6,0.7-5.2,1.4l0.9,7.7l-0.2-6.4c1.5-0.6,3-1,4.6-1.2c0.8-0.1,1.7-0.2,2.5-0.2
		c6.4,0,11.4,2.8,12.9,8.1c0.3,0.9,0.4,1.4,0.6,3.3c0.1-1.3,0-2.7-0.3-3.9C-344.3,25.4-351.4,22.9-358.1,23.8z"/>
	<path class="st4" d="M-356.5,32.7l1.2,6.4c0,0,1.5,0.6,2.9-0.7c1.4-1.3,1-3.4,1-3.4s1.3,3.8-2.2,4.7c-0.8,0.2-2.1,0-2.1,0
		L-356.5,32.7z"/>
	<path class="st6" d="M-353.1,44.4c0,0.2,0.5,0.4,1.2,0.3c0.7,0,1.5-0.2,2-0.3c0.5-0.2,1.6-0.6,2.7-1.1c1.1-0.6,2-1.4,2.5-2
		c0.2-0.3,0.4-0.5,0.5-0.7c0.1-0.2,0.1-0.4,0.1-0.5c0-0.3-0.2-0.3-0.2-0.4c-0.1-0.1-0.2-0.1-0.4,0c-0.1,0.1-0.3,0.4-0.8,1
		c-0.5,0.6-1.3,1.2-2.1,1.7c-0.9,0.5-1.8,0.9-2.5,1.1c-0.4,0.1-1.1,0.3-1.7,0.5C-352.6,44-353.1,44.2-353.1,44.4z M-344.2,38
		c0.1,0,0.3,0,0.4,0.2c0.1,0.1,0.3,0.4,0.2,0.7c-0.2,0.7-0.7,0.4-0.8,0.1c-0.1-0.4-0.2-0.6-0.1-0.8C-344.4,38.1-344.3,38-344.2,38z"
		/>
</g>
<g>
	<path class="st0" d="M-332.4,46.4c0.1,0.2,0.3,0.5,0.5,0.7c0.1,0.2,0.3,0.5,0.5,0.7c0.2,0.3,0.5,0.4,0.9,0.4c0.2,0,0.5,0,0.7,0
		c1.2,0,2.3,0,3.5,0c2.4,0,4.8,0,7.3,0c0.4,0,0.8,0,1.1-0.4c0.4-0.4,0.3-0.9,0.3-1.4c0-1.3,0.1-2.5,0.1-3.8c0-0.2,0-0.4-0.1-0.5
		c-0.2-0.5-0.7-0.7-1.1-1c-0.5-0.4-1-0.7-1.6-0.7c-0.7,0-1.3,0-2,0c-0.2,0-0.5,0-0.7,0c-0.2,0-0.1-0.3-0.1-0.5c0-0.1,0-0.3,0-0.4
		c1.1,0,2.2,0.1,3.3,0.1c0.4,0,0.9,0.1,1.2,0c0.6-0.2,0.7-0.8,0.8-1.4c0.1-1.3,0.2-2.5,0.4-3.8c0-0.2,0-0.3,0-0.5
		c-0.1-0.6-0.5-0.7-0.9-1c-0.3-0.3-0.7-0.5-1-0.7c-0.2-0.2-0.5-0.2-0.7-0.2c-0.6,0-1.3,0-1.9-0.1c-0.2,0-1.1,0.1-1.1-0.1
		c0-0.1,0-0.6,0-0.6c0.1,0,0.3,0,0.4,0c0.6,0,1.2,0,1.8,0c1,0,2.1,0.1,3.2,0c1.4-0.2,1-2,1-2.9c0-1.3,0-2.6-0.1-3.8
		c0-0.6-0.2-1-0.7-1.4c-0.3-0.2-0.7-0.5-1-0.7c-0.3-0.2-0.5-0.3-0.8-0.3c-1.9,0.2-3.8,0.3-5.7,0.5c-2.6,0.2-5.3,0.4-7.9,0.7
		c-0.5,0-1.5,0-1.8,0.5c-0.2,0.4-0.1,1,0,1.4c0.5,5.1,1,10.2,1.5,15.3c0.1,1.3,0.3,2.6,0.4,3.9C-332.8,44.9-332.8,45.9-332.4,46.4
		C-332.4,46.4-332.6,46.2-332.4,46.4z"/>
	<path class="st1" d="M-331.9,46.6h11.7c0.4,0,0.8-0.3,0.8-0.8l0.1-4.6c0-0.2-0.1-0.4-0.2-0.6c-0.1-0.2-0.3-0.2-0.6-0.2l-4.7-0.1
		l-0.1-2.4l4.5,0.2c0.4,0,0.8-0.3,0.8-0.7l0.4-4.4c0-0.2,0-0.4-0.2-0.6c-0.1-0.2-0.4-0.3-0.6-0.3l-4.9-0.2v-2.3h5.6
		c0.2,0,0.4-0.1,0.6-0.2c0.1-0.2,0.2-0.4,0.2-0.6l-0.1-6c0-0.2-0.1-0.4-0.3-0.6c-0.2-0.2-0.4-0.2-0.6-0.2l-14.8,1.3
		c-0.2,0-0.4,0.1-0.5,0.3c-0.1,0.2-0.2,0.4-0.2,0.6l2.1,21.7C-332.6,46.3-332.3,46.6-331.9,46.6z"/>
	<polygon class="st2" points="-319.2,22.8 -319.1,28.8 -325.5,28.8 -325.5,32.6 -319.8,32.9 -320.2,37.2 -325.6,37 -325.5,41.1 
		-320,41.2 -320.1,45.8 -331.9,45.8 -334,24.1 	"/>
	<path class="st6" d="M-332,37.1c1.8,0.2,3.5,0.3,5.4,0c1.3-0.2,2.7-0.5,4.4-1.1c0.7-0.2,1.5-0.5,2.1-0.7l0.2-2.4l-5.7-0.2v-3.8h6.4
		l-0.1-6l-14.8,1.3l1.3,12.9C-332.5,37-332.2,37-332,37.1z"/>
	<path class="st4" d="M-325.7,33l5.6,0.3c0,0,0,0.7,0.1,2l0.2-2.4l-5.7-0.2V29L-325.7,33z"/>
	<polygon class="st4" points="-333.3,24.9 -319.7,23.6 -319.1,28.8 -319.2,22.8 -334,24.1 -333.2,32.2 	"/>
	<polygon class="st4" points="-325.6,37 -325.5,41.1 -320,41.2 -320.1,43 -320.4,41.6 -325.8,41.4 	"/>
	<path class="st6" d="M-321.2,45.5c0-0.3-2.7-0.6-4.1-0.7l-5.3-0.3l-0.1-1.8c-0.1-1.8-0.5-2-0.6-2c-0.2,0-0.4-0.1-0.2,2l0.2,2.5
		l6,0.4C-324.3,45.7-321.2,45.8-321.2,45.5z M-331.5,38.4c0.1-0.1,0.6,0.2,0.6,1c0,0.8-0.4,0.7-0.5,0.4
		C-331.9,38.9-331.7,38.5-331.5,38.4z"/>
</g>
<g>
	<path class="st0" d="M-310.2,47.4c0.5,0.8,1.9,0.6,2.6,0.6c1.4,0.1,2.8,0.2,4.3,0.2c0.5,0,1,0.1,1.6,0.1c0.4,0,0.9,0.1,1.2-0.3
		c0.4-0.3,0.4-0.8,0.4-1.2c0-0.6,0-1.1,0.1-1.7c0.1-1.6,0.1-3.2,0.2-4.8c0.1,0,0.4,0,0.4,0.1c0,0.2,0,0.3,0.1,0.5
		c0.1,0.6,0.1,1.3,0.2,1.9c0.1,0.7,0.2,1.4,0.2,2.1c0,0.3,0,0.7,0.1,1c0.1,0.2,0.2,0.4,0.3,0.6c0.3,0.4,0.5,0.7,0.7,0.9
		c0.5,0.6,0.8,0.8,1.4,0.8c1.2-0.1,2.4-0.2,3.7-0.2c1-0.1,1.9-0.1,2.9-0.2c0.7,0,1.2-0.7,1-1.4c0-0.1-0.1-0.3-0.1-0.4
		c-0.5-1.8-0.9-3.6-1.4-5.5c-1.4-5.3-2.7-10.5-4.1-15.8c-0.2-0.7-0.3-1.3-0.5-2c0-0.1-0.1-0.2-0.1-0.4c-0.1-0.5-0.6-0.8-1-1
		c-0.4-0.3-0.9-0.8-1.4-0.8c-0.3,0-0.6,0-0.9,0c-1.3,0-2.6-0.1-3.9-0.1c-1.3,0-2.6-0.1-3.9-0.1c-0.6,0-1.6-0.2-1.8,0.7
		c-0.2,1.4-0.4,2.8-0.6,4.2c-0.7,5.5-1.5,11-2.2,16.4c-0.1,1.1-0.3,2.2-0.4,3.3c0,0.2,0,0.3-0.1,0.5c-0.1,0.4,0.3,0.8,0.5,1.1
		C-310.6,46.8-310.4,47.1-310.2,47.4z"/>
	<path class="st1" d="M-310.6,46.3l7.9,0.4c0,0,0,0,0,0c0.2,0,0.4-0.1,0.5-0.2c0.2-0.1,0.3-0.3,0.3-0.6l0.3-7.3l1.8,0.1l0.8,7
		c0,0.4,0.4,0.7,0.8,0.7l6.8-0.4c0.2,0,0.5-0.1,0.6-0.3c0.1-0.2,0.2-0.4,0.1-0.7l-6.2-24c-0.1-0.4-0.4-0.6-0.8-0.6l-9.7-0.2
		c-0.4,0-0.8,0.3-0.8,0.7l-3.3,24.5c0,0.2,0,0.4,0.2,0.6C-311,46.2-310.8,46.3-310.6,46.3z M-300.5,31.8l-0.7,0l0.1-3.2h0.2
		L-300.5,31.8z"/>
	<path class="st2" d="M-298.1,45.7l6.8-0.4l-6.2-24l-9.7-0.2l-3.3,24.5l7.9,0.4l0.3-8.1l3.3,0.3L-298.1,45.7z M-302,32.6l0.2-4.8
		h1.7l0.5,4.8L-302,32.6z"/>
	<path class="st6" d="M-307.6,35.8c0.8,0.3,3,0.9,4.5,1.1c0.8,0.2,1.7,0.3,2.5,0.4c0.3,0,0.7,0.1,1,0.1c0.1,0,0.2,0,0.2,0
		c0.1,0,0.2,0,0.3,0c1.9,0.1,3.8,0,5.7-0.2l-4.1-16l-9.7-0.2l-1.9,14.2C-308.6,35.4-308.1,35.6-307.6,35.8z M-301.8,27.8h1.7
		l0.5,4.8l-2.5,0L-301.8,27.8z"/>
	<polygon class="st4" points="-300.1,28 -299.6,32.6 -302,32.6 -301.8,28 -302.2,33 -299.4,33.1 	"/>
	<path class="st4" d="M-306.8,22.2l8.9,0.2c0,0,2.8,9.2,3.1,9.2l-2.7-10.3l-9.7-0.2l-1.4,10.7C-308.5,31.8-306.8,22.2-306.8,22.2z"
		/>
	<path class="st6" d="M-308.3,44.8c0,0.3,2,0.6,3,0.6c0.3,0,0.7,0,1.2,0c0.1,0,0.3,0,0.4,0c0.1,0,0.1,0,0.2,0h0.1c0,0,0.1,0,0.1,0
		l0,0l0,0c0.1,0,0.1,0,0.2-0.1c0,0,0,0,0.1-0.2c0-0.1,0-0.9-0.4-0.1l0,0l0,0c0,0,0,0,0.1-0.1c0.1,0,0.2-0.1,0.2,0c0,0,0,0.1,0,0.1v0
		v-0.1l0-0.2c0-0.1,0-0.3,0-0.4c0.1-1.1,0.1-2.3,0.2-2.9c0.1-1.3-0.2-1.5-0.4-1.5c-0.2,0-0.4-0.1-0.5,1.5c0,0.8-0.1,1.9-0.2,2.9
		c0,0.3,0,0.5,0,0.8v0c0,0,0,0,0,0.1c0,0.1,0,0.1,0,0.1c0,0.1,0,0,0,0.1c0.2-0.1-0.3,0.2,0.3-0.2l0,0c0,0,0,0,0,0c0,0,0-0.1,0-0.1
		l0-0.2c0-0.1,0-0.1,0-0.1h0h0l0,0h-0.2c-0.1,0-0.2,0-0.4,0c-0.5,0-0.9,0-1.3,0C-306,44.5-308.3,44.5-308.3,44.8z M-303.1,38.1
		c0.1,0,0.6,0.2,0.5,0.8c0,0.6-0.4,0.5-0.6,0.2C-303.5,38.4-303.2,38.1-303.1,38.1z"/>
	<path class="st6" d="M-297.6,45.1c0,0.3,2.1,0.3,3.2,0.2c0.3,0,0.7-0.1,1.2-0.1c0.3,0,0.6,0,1-0.1c0.1,0,0.3,0,0.4,0l0.2,0
		c0,0,0-0.1,0-0.2c-0.1-0.3-0.1-0.5-0.2-0.8c-0.3-1.2-0.6-2.3-0.8-3c-0.4-1.4-0.7-1.4-0.9-1.4c-0.2,0-0.4,0,0,1.6
		c0.2,0.8,0.5,1.9,0.7,3l0,0.1c0,0,0,0,0,0c-0.2,0-0.4,0-0.5,0c-0.5,0-1,0.1-1.3,0.1C-295.3,44.5-297.7,44.8-297.6,45.1z M-294,38
		c0.1-0.1,0.6,0.1,0.7,0.7c0.1,0.6-0.3,0.6-0.5,0.4C-294.3,38.5-294.1,38.1-294,38z"/>
</g>
<g>
	<path class="st0" d="M-263.5,24.7c-1.3-0.9-2.5-1.8-3.9-2.4c-1.5-0.6-3-1-4.6-1.2c-3.5-0.4-7.2,0.1-10.5,1.5
		c-1,0.4-0.8,1.2-0.7,2.1c0.1,1.1,0.1,2.1,0.4,3.2c0.3,1.2,0.8,5.3,1.9,17.4c0.9,0.6,2.3,1.3,4.2,1.7c1.1,0.2,2.2,0.3,3.6,0.1
		c3.6-0.3,6.5-0.5,9.4-2.5c0.7-0.5,3.3-2.4,4.5-5.9C-256.7,31.1-263.4,24.7-263.5,24.7C-263.5,24.7-263.5,24.7-263.5,24.7z
		 M-271.5,35.2c-0.1,0.1-0.1,0.2-0.2,0.3c-0.1-0.7-0.2-1.4-0.4-2.1c0.3,0.1,0.8,0.1,0.8,0.5C-271.2,34.4-271.3,34.8-271.5,35.2
		C-271.5,35.3-271.3,34.8-271.5,35.2z"/>
	<path class="st1" d="M-274.5,20.9c-0.9,0-1.8,0.1-2.7,0.2c-1.9,0.3-3.8,0.8-5.5,1.5c-0.4,0.2-0.7,0.6-0.6,1.1
		c0.8,7.2,1.6,14.3,2.4,21.5c0.8,0,6.8,0.2,11-0.5c1.7-0.3,2.9-0.7,3.9-1.2c1.1-0.5,1.9-1.1,2.2-1.3c3.3-2.5,4.8-7.2,3.5-11.5
		C-261.9,24.5-267.3,20.9-274.5,20.9z M-273.3,36.5l-1-5.2c1.4,0.2,2.4,0.8,2.8,1.8c0.3,0.6,0.3,1.4-0.1,2.1
		c-0.3,0.7-0.8,1.1-1.5,1.3C-273,36.5-273.2,36.5-273.3,36.5z"/>
	<path class="st2" d="M-261.2,30.8c-2-7.1-9.1-9.6-15.8-8.7c-1.8,0.2-3.6,0.7-5.2,1.4l0.9,7.7c0.5,4.2,1,8.5,1.6,12.7
		c3.5,0.1,6.3,0,8.3-0.2c1.8-0.2,3.4-0.4,5.2-1.3c0.7-0.3,1.4-0.7,2-1.2C-261.2,38.9-260.2,34.5-261.2,30.8z M-272.7,37.5
		c-0.5,0.1-1,0-1.5-0.1l-1.3-7.2c2-0.1,4.1,0.4,5.1,2.4C-269.6,34.5-270.6,37-272.7,37.5z"/>
	<path class="st6" d="M-281.1,33.8c2-0.3,4.1-0.4,6.2-0.5l-0.6-3.1c2-0.1,4.1,0.4,5.1,2.4c0.1,0.3,0.2,0.5,0.3,0.8
		c3.2,0.2,6.3,0.7,9.3,1.3c0.1-1.3,0-2.7-0.3-3.9c-2-7.1-9.1-9.6-15.8-8.7c-1.8,0.2-3.6,0.7-5.2,1.4l0.9,7.7L-281.1,33.8z"/>
	<path class="st4" d="M-277,22.1c-1.8,0.2-3.6,0.7-5.2,1.4l0.9,7.7l-0.2-6.4c1.5-0.6,3-1,4.6-1.2c0.8-0.1,1.7-0.2,2.5-0.2
		c6.4,0,11.4,2.8,12.9,8.1c0.3,0.9,0.4,1.4,0.6,3.3c0.1-1.3,0-2.7-0.3-3.9C-263.3,23.7-270.3,21.2-277,22.1z"/>
	<path class="st4" d="M-275.4,31l1.2,6.4c0,0,1.5,0.6,2.9-0.7c1.4-1.3,1-3.4,1-3.4s1.3,3.8-2.2,4.7c-0.8,0.2-2.1,0-2.1,0L-275.4,31z
		"/>
	<path class="st6" d="M-272,42.7c0,0.2,0.5,0.4,1.2,0.3c0.7,0,1.5-0.2,2-0.3c0.5-0.2,1.6-0.6,2.7-1.1c1.1-0.6,2-1.4,2.5-2
		c0.2-0.3,0.4-0.5,0.5-0.7c0.1-0.2,0.1-0.4,0.1-0.5c0-0.3-0.2-0.3-0.2-0.4c-0.1-0.1-0.2-0.1-0.4,0c-0.1,0.1-0.3,0.4-0.8,1
		c-0.5,0.6-1.3,1.2-2.1,1.7c-0.9,0.5-1.8,0.9-2.5,1.1c-0.4,0.1-1.1,0.3-1.7,0.5C-271.5,42.4-272,42.5-272,42.7z M-263.1,36.3
		c0.1,0,0.3,0,0.4,0.2c0.1,0.1,0.3,0.4,0.2,0.7c-0.2,0.7-0.7,0.4-0.8,0.1c-0.1-0.4-0.2-0.6-0.1-0.8
		C-263.3,36.4-263.2,36.3-263.1,36.3z"/>
</g>
<g>
	<path class="st0" d="M139.1,37.6c1.2-0.5,1.8-0.2,2-0.1c0.9,0.5,0.9,1.9,0.9,3.3c0,1.3,0,2.2-0.4,3c0,0-0.1,0.1-0.1,0.1
		c-1,1.3-4.6,1.5-10.4,1.1c-2.8-0.2-1.3-0.2-3.7-0.3c-1.4-0.1-2-0.1-2.9-0.4c-0.8-0.3-1.6-0.5-2.2-1.2c-1.4-1.5-1-3.8-0.9-4.3
		c0.2-0.9,0.5-1.9,2.4-4.3c1-1.2,2.3-2.9,4.2-4.7c0.4-0.4,1.1-1.1,1.9-1.9c1-1,1.3-1.3,1.3-1.5c-0.2-0.5-2.4-0.1-3.2,0.1
		c-6.2,1.2-6.7,1-7.1,0.9c-2-1-2.3-5.8-0.8-7c1-0.7,3.1-0.3,4.6-0.6c0.1,0,0.6-0.2,1.3-0.3c0.2,0,0.4-0.1,0.6-0.1
		c1.6-0.2,2.4-0.4,3.3-0.2c2.1,0.4,3.9,1.8,5,3.6c1.1,1.8,1.7,4,0.9,6.1c-0.5,1.4-1.2,2.3-2.5,3.8c-2,2.3-3.6,3.2-3.4,4.2
		c0.1,0.3,0.4,0.6,1.2,1C134,39,137.5,38.1,139.1,37.6z"/>
	<path class="st1" d="M131.5,44.4c-2.1,0-4.2,0.1-6.3-0.4c-0.4-0.1-1.4-0.3-2.4-1.2c-0.4-0.3-0.8-0.7-1.1-1.4
		c-0.2-0.7-0.1-1.3,0-1.8c0.5-1.8,1.5-3.3,2.6-4.8c0.7-0.9,1.6-2,2.7-3.2c1-0.9,1.8-1.6,2.3-2.2c0.5-0.5,0.7-0.8,0.8-0.9
		c0.7-0.8,1.8-2.3,1.4-2.8c-0.2-0.3-1.3-0.1-3.5,0.3c-2.4,0.5-3.7,0.7-3.8,0.8c-0.7,0.2-1.3,0.5-2,0.3c-0.6-0.2-1-0.6-1.3-0.9
		c-0.1-0.1-0.5-0.5-0.9-1.2c-0.6-1.1-1.1-3.4-0.1-4.6c0.4-0.5,0.9-0.6,3.4-0.9c3.1-0.4,4.7-0.6,5.8-0.6c2.4-0.1,3.6-0.1,5.2,0.3
		c1.8,0.4,3.9,1,4.7,2.7c0.5,1.2,0.1,2.3-0.2,3.5c0,0-0.7,2.1-4.8,6.3c-0.1,0.1-0.1,0.1-0.1,0.1c-0.2,0.1-0.3,0.2-1.6,1.2
		c-1.7,1.4-2.6,2-2.9,2.6c-0.2,0.4-0.8,1.4-0.4,2.2c0.5,1.2,2.7,1.3,3.5,1.4c4.8,0.2,7-2.7,8.5-1.7c1.3,0.9,1.4,4.2-0.1,5.9
		c-0.2,0.2-0.4,0.3-0.5,0.4C138.3,45.2,135.7,44.5,131.5,44.4z"/>
	<path class="st2" d="M129.1,30.8c0.2-0.1,0.3-0.2,0.4-0.3c0.3-0.3,1.8-1.9,2.6-3c0.4-0.6,1.1-1.4,0.8-2c-0.3-0.7-2-0.5-4.3-0.2
		c-0.6,0.1-1.3,0.2-2.9,0.4c-1,0.2-1.5,0.2-1.6,0.3c-0.5,0.2-0.8,0.3-1.2,0.2c-0.3-0.1-0.6-0.3-0.8-0.5c-0.1-0.1-0.6-0.6-1-1.6
		c-0.3-0.8-0.5-1.2-0.3-1.7c0.2-0.5,0.8-0.6,1.5-0.9c2-0.7,1.7-1,3.1-1.4c1.3-0.4,2.3-0.5,3.8-0.5c2.8-0.1,4.6-0.2,6.4,0.8
		c0.8,0.4,2.2,1.1,2.6,2.6c0.3,1-0.1,1.9-0.4,2.9c-0.6,1.5-1.5,2.5-1.9,2.9c-0.4,0.4-0.5,0.4-1.3,1c-1.2,0.9-2,1.8-3.8,3.6
		c-0.7,0.7-1.1,1.1-1.3,1.4c-1,1.2-2,2.4-1.7,3.4c0.4,1.3,3.2,1.9,6.9,1.6c0.5,0,1.4,0,2.3-0.2c1.6-0.4,2.3-1,3-0.6
		c0.5,0.3,0.6,0.9,0.8,1.8c0.1,0.4,0.3,1.4,0.1,2c-0.5,1.3-2.9,0.7-9,1.2c0,0-1.3,0.1-3.9,0.1c-1.4,0-2.1-0.1-2.9-0.4
		c-0.6-0.2-1.5-0.6-2.1-1.5c-0.8-1.2-0.5-2.7-0.4-3c0.2-0.9,0.7-1.5,1.1-2.1c0.6-0.7,1.2-1.3,1.7-2.4
		C125.4,34.4,124.9,33.9,129.1,30.8z"/>
	<path class="st6" d="M129.9,29.7c0.6-0.4,1.5-1,2.2-2.2c0.5-0.8,1-1.5,0.8-2c-0.2-0.5-1.1-0.6-4.3-0.2c-1.4,0.2-3.3,0.5-5.6,1
		c-0.2-0.1-1.5-0.7-1.8-2.1c-0.4-1.8,1.2-3.2,1.3-3.2c0.2-0.2,0.8-0.5,4-1c0.7-0.1,1.6-0.2,2.8-0.3c3-0.1,7.5-0.3,8.8,2
		c0.4,0.7,0.3,1.3,0.3,2.1c-0.2,3.3-2.9,5.4-3.7,6c-0.6-0.1-1.2-0.2-1.9-0.2C131.7,29.5,130.7,29.6,129.9,29.7z"/>
	<g>
		<path class="st4" d="M138.3,23c-0.3-0.4-0.8-0.9-1.5-1.4c-2.4-1.7-5-1.5-9-1.1c-4.6,0.5-5.6,1.5-6,2.1c-0.4,0.6-0.6,1.2-0.7,1.6
			c-0.7-1.5-0.5-2.3-0.3-2.6c0.2-0.3,0.7-1.2,6.5-1.8c2.1-0.2,3.1-0.3,4.6-0.2c2.2,0.2,5.2,0.4,6.1,2.2
			C138.3,22.2,138.3,22.7,138.3,23z"/>
	</g>
	<path class="st4" d="M131.2,29c-0.8,1-1.2,1.3-2.7,2.7c-1.5,1.4-2.5,2.7-3.2,3.4c-1.5,1.8-2.3,3.1-2.4,3c-0.1-0.1,0.5-1.1,1-1.9
		c0.8-1.2,1.5-2.1,2.2-2.8c1.5-1.7,2.2-2.2,3.8-3.8c0.7-0.6,1.6-1.6,2.7-2.9C132.3,27.3,131.9,28.1,131.2,29z"/>
	<path class="st4" d="M128.2,38.8c-0.2-0.3-0.3-0.7-0.3-0.7c-0.3-1.2,0.8-2.4,1-2.6c-0.6,0.7-0.8,1.7-0.5,2.4
		c0.2,0.4,0.5,0.7,0.7,0.8c0.4,0.2,0.9,0.3,1.5,0.5c1.3,0.3,2.4,0.4,3.3,0.4C133.6,39.8,129.4,40.3,128.2,38.8z"/>
	<path class="st6" d="M132.5,43.2c-0.3,0-1.2,0.1-3.1,0.1c-1.7,0-2,0.1-2.6,0c-1.2-0.1-1.9-0.2-2.6-0.7c-0.7-0.5-1-1.3-1.2-1.7
		c0.8,0.7,1.5,1.1,2.1,1.3c0.1,0,0.3,0.1,1.2,0.2c0.6,0.1,1.3,0.2,2.4,0.3c0.7,0.1,1.9,0.2,3.6,0.1c0.9,0,2-0.1,3.4-0.2
		C134.9,42.7,133.8,43,132.5,43.2z M123,39.4C123,39.4,122.9,39.4,123,39.4c-0.1,0.4,0,0.9,0.1,0.9c0.1,0,0.3-0.2,0.3-0.2
		c0.2-0.2,0.1-0.4,0.1-0.7c0-0.7,0.1-1,0-1C123.4,38.3,123,38.8,123,39.4z"/>
</g>
<g>
	<path class="st0" d="M155.1,19.7c-3.8,0-7.5,1.8-9.6,5c-1,1.5-1.6,3.3-1.7,5.1c-0.1,2.3,0.6,4.5,1.9,6.4c0.6,0.8,1.1,1.7,1.8,2.4
		c0.7,0.7,1.5,1.3,2.3,1.7c1.8,1,3.9,1.6,6.1,1.6c3.8,0.1,7.7-1.3,10.2-4.3c2.5-3,3-7.3,1.3-10.9c-0.5-1-1.1-1.8-1.8-2.6
		c-0.8-0.9-1.9-1.5-2.9-2.2c-1.9-1.3-4.2-2-6.4-2.2C155.9,19.7,155.5,19.7,155.1,19.7z M153.9,34.5c-0.5,0-1.1-0.1-1.6-0.3
		c-0.5-0.2-0.8-0.7-1-1.2c-0.4-0.9-0.4-1.8-0.1-2.7c0.6-1.7,2.4-2.8,4.2-2.7c0.5,0,1,0.1,1.4,0.3c0.4,0.2,1.1,0.5,1.2,0.9
		c0.4,0.9,0.4,1.9,0,2.9C157.3,33.4,155.6,34.5,153.9,34.5z"/>
	<path class="st1" d="M143.7,30.3c0,5.7,4.9,10,11.4,10c6.5,0,11.7-4.5,11.8-10.2c0-2.8-0.9-5.2-2.7-7.1c-2.1-2.2-5.4-3.4-9.1-3.4
		C148.8,19.7,143.7,24.5,143.7,30.3z M153.9,26.2c2.4,0,4.4,1.9,4.4,4.2c0,2.3-2,4.2-4.4,4.2c-2.4,0-4.4-1.9-4.4-4.2
		C149.5,28,151.4,26.2,153.9,26.2z"/>
	<path class="st2" d="M155.1,20.4c-5.9,0-10.6,4.4-10.6,9.9c0,5.5,4.8,9.3,10.6,9.3c5.9,0,11-4,11-9.4
		C166.2,23.8,161,20.4,155.1,20.4z M153.9,35.3c-2.8,0-5.1-2.2-5.1-4.9c0-2.7,2.3-4.9,5.1-4.9c2.8,0,5.1,2.2,5.1,4.9
		C159,33.1,156.7,35.3,153.9,35.3z"/>
	<g class="st3">
		<path class="st2" d="M145.1,32.4c1.6,0.4,3.2,0.9,4.8,1.1c-0.8-0.9-1.2-2-1.2-3.2c0-2.7,2.3-4.9,5.1-4.9c2.8,0,5.1,2.2,5.1,4.9
			c0,0.9-0.2,1.7-0.7,2.4c2.6-0.9,5.2-2,7.8-3c-0.1-6.1-5.3-9.3-11-9.3c-5.9,0-10.6,4.4-10.6,9.9c0,0.7,0.1,1.3,0.2,1.9
			C144.8,32.3,145,32.4,145.1,32.4z"/>
	</g>
	<g>
		<path class="st4" d="M155.1,21.3c5.5,0,10.4,2.9,11,8.5c0,0,0,0,0.1,0c-0.1-6.1-5.3-9.3-11-9.3c-5.9,0-10.6,4.4-10.6,9.9
			c0,0.1,0,0.3,0,0.4C144.7,25.5,149.4,21.3,155.1,21.3z"/>
	</g>
	<path class="st4" d="M149.2,32.3c0,0,1.4,3,4.7,3c3.3,0,4.6-2.9,5-4c0,0-0.3,4.6-5.3,4.3C149.8,35.4,149.2,32.3,149.2,32.3z"/>
	<path class="st5" d="M151.7,38.2c-0.1,0.1,0.6,0.5,1.4,0.7c0.9,0.2,2,0.3,2.7,0.3c0.8,0,2.3-0.2,3.8-0.9c0.8-0.3,1.5-0.7,2.1-1.1
		c0.6-0.4,1.1-0.8,1.5-1.2c0.7-0.6,0.9-1.1,1.1-1.4c0.1-0.3,0-0.4,0-0.4c-0.1-0.1-0.1-0.1-0.3,0c-0.1,0.1-0.2,0.2-0.4,0.4
		c-0.1,0.1-0.2,0.2-0.4,0.4c-0.1,0.1-0.3,0.3-0.5,0.5c-0.2,0.2-0.4,0.4-0.6,0.6c-0.2,0.2-0.5,0.4-0.8,0.6c-0.6,0.4-1.2,0.7-1.8,1
		c-1.3,0.6-2.7,0.8-3.6,0.8c-0.3,0-0.6,0-1.1,0c-0.2,0-0.4,0-0.7,0c-0.2,0-0.5,0-0.7-0.1C152.5,38.3,151.7,38.1,151.7,38.2z
		 M165.1,32.2c0.1,0,0.2,0.1,0.2,0.3c0,0.1,0,0.1,0,0.2c0,0.1,0,0.1,0,0.2c0,0.2-0.1,0.3-0.2,0.5c-0.4,0.7-0.7,0.4-0.6,0.1
		c0.1-0.2,0.1-0.5,0.1-0.6c0-0.2,0.1-0.3,0.1-0.4C165,32.3,165.1,32.2,165.1,32.2z"/>
</g>
<g>
	<path class="st0" d="M171.6,42.5c0.1,0.2,0.3,0.5,0.5,0.7c0.1,0.2,0.3,0.5,0.5,0.6c0.2,0.1,0.4,0.2,0.6,0.2c0.5,0.1,1,0.2,1.5,0.3
		c1.3,0.2,2.6,0.5,3.8,0.7c0.6,0.1,1.3,0,1.6-0.7c0.1-0.3,0.1-0.7,0.1-1c0.2-1.4,0.3-2.7,0.5-4.1c0.1-0.8,0.2-1.5,0.3-2.3
		c0.2,0.5,0.4,0.9,0.6,1.4c0.3,0.7,0.8,1.4,1.3,2c0.6,0.7,1.6,0.4,2-0.4c0.2-0.5,0.4-1,0.6-1.5c0.1,0.4,0.1,0.9,0.2,1.3
		c0.1,0.7,0.1,1.4,0.2,2c0,0.1,0,0.2,0,0.4c0,0.3,0.2,0.5,0.4,0.8c0.1,0.1,0.9,1.3,1.1,1.4c0.2,0.1,0.5,0.2,0.7,0.1
		c2.4-0.2,4.8-0.4,7.1-0.6c0.9-0.1,2.1-0.1,1.9-1.4c-0.1-0.5-0.1-1-0.2-1.5c-0.3-2.5-0.6-4.9-0.9-7.4c-0.3-2.8-0.7-5.7-1-8.5
		c-0.1-1-0.2-1.9-0.3-2.9c0-0.4,0-0.9-0.2-1.3c-0.2-0.5-0.7-0.8-1.2-1.1c-0.3-0.2-0.7-0.6-1.2-0.7c-0.3,0-0.7,0-1-0.1
		c-1.4-0.1-2.8-0.2-4.2-0.3c-0.7,0-2.3-0.5-2.6,0.4c-0.4,1.1-0.8,2.2-1.2,3.3c-0.1,0.2-0.2,0.5-0.3,0.7c-0.1-0.5-0.3-1-0.5-1.5
		c-0.1-0.5-0.2-1.2-0.6-1.6c-0.2-0.2-0.4-0.4-0.6-0.5c-0.2-0.2-0.5-0.4-0.7-0.5c-0.2-0.2-0.6-0.4-0.9-0.4c-0.5,0-1.1,0-1.6,0
		c-0.7,0-1.4,0-2.1,0c-0.5,0-1.1,0-1.3,0.6c-0.1,0.4-0.1,0.8-0.2,1.2c-0.9,5.2-1.7,10.4-2.5,15.5c-0.2,1.3-0.4,2.6-0.6,3.8
		C171.2,41,170.9,41.8,171.6,42.5C171.6,42.6,171.5,42.4,171.6,42.5z"/>
	<path class="st1" d="M171.8,42.4l5.7,1.1c0,0,0.1,0,0.1,0c0.2,0,0.3-0.1,0.5-0.2c0.2-0.1,0.3-0.3,0.3-0.6l1.1-9l2.2,5
		c0.1,0.3,0.4,0.5,0.7,0.5h0c0.3,0,0.6-0.2,0.7-0.5l1.8-4.3l0.9,7.8c0,0.4,0.4,0.7,0.9,0.7l8.1-0.6c0.2,0,0.4-0.1,0.6-0.3
		c0.1-0.2,0.2-0.4,0.2-0.6l-2.5-21.4c0-0.4-0.4-0.7-0.8-0.7l-7-0.4c-0.4,0-0.7,0.2-0.8,0.5l-2.1,5.9l-1.8-5.8
		c-0.1-0.3-0.4-0.6-0.8-0.6h-4.3c-0.4,0-0.7,0.3-0.8,0.7l-3.6,21.7C171.1,41.9,171.4,42.4,171.8,42.4z"/>
	<polygon class="st2" points="177.7,42.7 171.9,41.6 175.5,19.9 179.8,19.9 182.3,28 185.3,19.8 192.3,20.2 194.8,41.6 186.7,42.3 
		185.5,31.4 182.4,38.5 179.1,30.7 	"/>
	<path class="st6" d="M174.9,29.5c3.4,0.8,6.8,1.8,10.2,2.1c0.1,0,0.2,0,0.2,0l0.1-0.2l0,0.2c2.7,0.2,5.4-0.1,8-0.7l-1.2-10.6
		l-7-0.4l-2.9,8.2l-2.5-8.1h-4.3l-1.5,9.4C174.3,29.3,174.6,29.4,174.9,29.5z"/>
	<path class="st4" d="M192.3,20.2l-7-0.4l-2.9,8.2l-2.5-8.1h-4.3l-1,6.2l1.4-5.4h3.6l2.8,8.3l3.3-8.4l6.3,0.7c0,0,1.5,9.6,1.7,9.5
		L192.3,20.2z"/>
	<path class="st7" d="M173.7,41.3c0,0.2,0.4,0.4,1,0.5c0.3,0.1,0.6,0.2,1,0.2c0.2,0,0.3,0.1,0.5,0.1c0.2,0,0.2,0,0.6,0.1l0.7,0.1
		l0.5-5.8c0.1-1.3-0.2-1.5-0.4-1.5c-0.2,0-0.4-0.1-0.5,1.4l-0.4,4.9c-0.2,0-0.4-0.1-0.7-0.1c-0.3,0-0.7-0.1-1-0.1
		C174.3,41.2,173.7,41.2,173.7,41.3z M177.6,33.5c0.2,0,0.5,0.3,0.5,0.8c-0.1,0.6-0.5,0.4-0.6,0.2C177.2,33.8,177.5,33.5,177.6,33.5
		z"/>
	<path class="st7" d="M188.1,41.4c0,0.3,2.2,0.2,3.4,0l2.6-0.4l-0.4-4.6c-0.1-1.5-0.4-1.6-0.6-1.6c-0.2,0-0.4-0.1-0.2,1.7l0.3,3.8
		l-1.8,0.2C190.6,40.7,188.1,41.1,188.1,41.4z M193,33c0.1,0,0.6,0.2,0.6,0.8c0,0.6-0.4,0.6-0.5,0.3C192.6,33.4,192.8,33.1,193,33z"
		/>
</g>
<g>
	<path class="st0" d="M200.7,43.4c0.1,0.2,0.3,0.5,0.5,0.7c0.1,0.2,0.3,0.5,0.5,0.6c0.5,0.4,1.3,0.4,1.9,0.5
		c1.3,0.2,2.5,0.3,3.8,0.4c2.2,0.1,4.5,0.1,6.6-0.6c2.5-0.7,4.6-2.4,5.1-5.1c0.3-1.5,0.1-3-0.4-4.5c-0.4-1-0.9-1.8-1.6-2.6
		c-0.8-0.9-1.8-1.5-2.7-2.1c1.1-1.8,1.4-4,0.4-5.9c-1-1.8-2.7-2.9-4.3-4c-1.8-1.3-4.2-1.5-6.4-1.2c-0.6,0.1-1.2,0.2-1.8,0.4
		c-0.5,0.1-1.4,0.3-1.7,0.8c-0.1,0.2-0.1,0.4-0.1,0.5c0,1.7,0,3.3,0,5c0,5-0.1,10-0.1,14.9C200.3,42,200.2,42.8,200.7,43.4
		C200.8,43.5,200.7,43.3,200.7,43.4z M207.1,27.9c0-0.2,0-0.3,0-0.5c0.2,0,0.2,0,0.2,0.2C207.2,27.7,207.2,27.8,207.1,27.9z
		 M209.1,37.3c-0.1,0.5-0.7,0.8-1.1,1c0-0.5-0.1-1-0.1-1.6c0.3,0,0.6,0,0.8,0.1C209,36.9,209.2,37,209.1,37.3
		C209,37.7,209.1,37.2,209.1,37.3z"/>
	<path class="st1" d="M201,43.3c1.8,0.4,3.6,0.6,5.2,0.7c0.6,0,1.1,0.1,1.7,0.1c8,0,9.8-3.7,9.9-6.7c0.1-3.1-1.9-6.5-5.2-7.5
		c0.7-0.9,1.4-2.3,1.3-3.9c-0.1-1.9-1.3-3.7-3.6-5.2c-1.6-1.1-3.7-1.5-6.1-1.1c-1,0.1-2.1,0.4-3.2,0.8c-0.3,0.1-0.5,0.4-0.5,0.7
		l-0.2,21.5C200.3,43,200.6,43.3,201,43.3z M205.5,25.8c1.8,0.1,1.8,1,1.8,1.4c0,0.7-0.5,1.3-1.5,1.5L205.5,25.8z M209.1,37.3
		c-0.2,0.6-1.1,1.1-2.5,1.3c-0.1-1.1-0.2-2.2-0.3-3.4c0.9,0,1.6,0.2,2,0.5C208.8,36.1,209.3,36.8,209.1,37.3z"/>
	<path class="st2" d="M211.1,30.3c0,0,5.3-4.6-1.2-9c-1.6-1.1-3.5-1.3-5.6-1c-1,0.2-2,0.4-3,0.8c0,5.1-0.1,15.6-0.2,21.5
		c1.4,0.3,3.2,0.5,5.1,0.7c5,0.3,10.6-0.6,10.8-5.9C217.1,34.1,214.6,30.6,211.1,30.3z M208.1,27.2c0,1.7-1.7,2.3-3,2.5
		c-0.1-1.6-0.3-3.2-0.4-4.6C206.1,25,208.1,25.3,208.1,27.2z M205.9,39.5c-0.1-1.6-0.3-3.3-0.4-5c1.1-0.1,2.4,0,3.3,0.6
		C210.3,36.2,211,39.1,205.9,39.5z"/>
	<g class="st8">
		<path class="st2" d="M207.7,31.5c2.4-0.1,4.8,0,7.1,0.7c0,0,0,0,0.1,0c-1-1-2.3-1.7-3.8-1.8c0,0,5.3-4.6-1.2-9
			c-1.6-1.1-3.5-1.3-5.6-1c-1,0.2-2,0.4-3,0.8c0,2.7-0.1,6.9-0.1,11.2C203.3,31.9,205.5,31.6,207.7,31.5z M208.1,27.2
			c0,1.7-1.7,2.3-3,2.5c-0.1-1.6-0.3-3.2-0.4-4.6C206.1,25,208.1,25.3,208.1,27.2z"/>
	</g>
	<g>
		<path class="st9" d="M209.6,22.3c1.9,1.3,2.9,2.8,3,4.3c0.1,2.3-1.8,4-1.9,4l0,0c0.5,0,1.1,0.1,1.6,0.2c0.6,0.1,1.1,0.3,1.7,0.5
			c-0.8-0.6-1.8-1-2.9-1.1c0,0,5.3-4.6-1.2-9c-1.6-1.1-3.5-1.3-5.6-1c-1,0.2-2,0.4-3,0.8c0,1.8,0,4.3-0.1,7c0,1.3,0.5-6.1,0.5-6.1
			c0.9-0.3,1.8-0.5,2.7-0.7c0.5-0.1,1.1-0.1,1.6-0.1C207.4,21.3,208.6,21.6,209.6,22.3z"/>
	</g>
	<g>
		<path class="st9" d="M207.6,25.8c0.3,0.3,0.5,0.8,0.5,1.4c0,1.7-1.7,2.3-3,2.5c-0.1-1.6-0.3-3.1-0.4-4.4h0l0.2,4.8l0.5-0.1
			c2.2-0.3,2.9-1.1,2.9-2.6C208.2,26.8,208.1,26.4,207.6,25.8z"/>
	</g>
	<path class="st6" d="M203,42c0,0.1,0.2,0.2,0.5,0.3c0.2,0.1,0.4,0.1,0.6,0.2c0.2,0.1,0.5,0.1,0.7,0.2c0.5,0.1,1.1,0.2,1.7,0.2
		c0.3,0,0.6,0,0.8,0c0.3,0,0.5,0,0.7,0c0.9,0,2.8-0.2,4.6-0.8c0.5-0.2,0.9-0.4,1.4-0.7c0.4-0.3,0.8-0.6,1.1-1c0.6-0.7,0.9-1.5,1-2.1
		c0.1-0.6,0.2-1,0.1-1.4c0-0.3-0.1-0.6-0.1-0.8c-0.1-0.3-0.2-0.4-0.3-0.4c-0.1,0-0.2,0-0.2,0.2c0,0.2,0,0.4-0.1,0.7
		c0,0.3-0.1,0.8-0.2,1.4c-0.1,0.6-0.4,1.3-0.9,1.9c-0.2,0.3-0.6,0.5-0.9,0.8c-0.3,0.2-0.7,0.4-1.1,0.5c-1.6,0.6-3.3,0.8-4.5,0.8
		c-0.3,0-0.8,0-1.3,0c-0.3,0-0.5,0-0.8,0c-0.3,0-0.6,0-0.8,0c-0.5,0-1-0.1-1.4-0.1C203.3,41.9,203,42,203,42z M215,33.2
		c0.1-0.1,0.6,0.1,1,1.1c0.1,0.5,0.1,0.7,0,0.8c-0.1,0.1-0.3,0-0.4-0.2c-0.3-0.5-0.5-0.9-0.6-1.1C214.9,33.4,214.9,33.3,215,33.2z"
		/>
</g>
<g>
	<path class="st0" d="M223.7,18.9c-0.3,0.3-0.2,0.8-0.2,1.1c0,0.6,0,1.2,0,1.8c0,1.1,0,2.2,0.1,3.3c0,0.3,0.1,0.5,0.3,0.7
		c0.3,0.4,0.6,1.1,1,1.4c0.5,0.4,1.3,0.2,1.8,0.2c0.3,0,0.3,0,0.3,0.3c0,0.4,0,0.9,0.1,1.4c0.1,2.3,0.2,4.6,0.3,6.9
		c0,0.2-0.6,0.1-0.8,0.1c-0.5,0-1.1,0.1-1.6,0.1c-0.7,0-0.7,0.6-0.7,1.2c0.1,0.5,0.1,1.1,0.2,1.6c0.1,1.1,0.3,2.3,0.4,3.4
		c0,0.3,0.2,0.4,0.3,0.7c0.2,0.2,0.3,0.5,0.5,0.7c0.2,0.2,0.3,0.5,0.5,0.7c0.4,0.3,0.8,0.2,1.2,0.2c2.4-0.3,4.8-0.6,7.2-1
		c0.6-0.1,1.3-0.1,1.9-0.3c0.9-0.4,0.6-1.9,0.6-2.7c0-1,0-2-0.1-2.9c0-0.8-0.8-1-1.3-1.5c-0.2-0.2-0.7-0.6-1-0.5c-0.2,0-0.4,0-0.6,0
		c0.1-2.1,0.1-4.2,0.2-6.4c0-0.5,0-1,0.1-1.5c0-0.1-0.1-0.5,0.1-0.5c0.6,0,1.1,0,1.7,0c0.7,0,1.1-0.6,1.1-1.3c0-1.1,0-2.2-0.1-3.3
		c0-0.6,0-1.2,0-1.8c0-0.4,0-0.8-0.2-1.1c-0.1-0.2-1.6-1.3-2-1.4c-0.2,0-0.4,0-0.6,0c-1.1,0-2.2,0-3.2,0c-1.6,0-3.1,0-4.7,0
		c-0.5,0-1.1,0-1.6,0C224.4,18.6,224,18.6,223.7,18.9C223.5,19,223.8,18.7,223.7,18.9z"/>
	<path class="st1" d="M223.7,18.9c-0.1,0.1-0.2,0.3-0.2,0.5l0.1,5.7c0,0.4,0.3,0.8,0.8,0.8h2.6l0.4,10.2l-2.4,0.1
		c-0.2,0-0.4,0.1-0.5,0.3c-0.1,0.2-0.2,0.4-0.2,0.6l0.6,5.4c0,0.2,0.1,0.4,0.3,0.5c0.1,0.1,0.3,0.2,0.5,0.2c0,0,0.1,0,0.1,0l9.1-1.2
		c0.4,0,0.7-0.4,0.7-0.8l-0.1-4.7c0-0.2-0.1-0.4-0.2-0.5c-0.2-0.1-0.4-0.2-0.6-0.2l-2.2,0.1l0.3-9.9h2.1h0c0.4,0,0.8-0.3,0.8-0.8
		c0,0,0-0.1,0-0.1l-0.1-5.7c0-0.4-0.3-0.8-0.8-0.8l-10.5,0.1C224,18.6,223.8,18.7,223.7,18.9z"/>
	<polygon class="st2" points="231.6,36.6 232,25.1 234.9,25.1 234.8,19.3 224.2,19.4 224.3,25.1 227.7,25.1 228.2,36.8 225,37 
		225.7,42.4 234.8,41.2 234.7,36.5 	"/>
	<g class="st3">
		<path class="st2" d="M227.7,25.1l0.2,4.6c1.3,0.1,2.6,0.2,4,0.3l0.2-4.9h2.8l-0.1-5.8l-10.5,0.1l0.1,5.7H227.7z"/>
	</g>
	<g>
		<polygon class="st4" points="224.7,20.2 234.6,20.1 234.8,22.2 234.8,19.3 224.2,19.4 224.3,23.3 		"/>
	</g>
	<polygon class="st4" points="228.1,36 228.3,37.2 225.4,37.5 225.5,41 225,37 228.2,36.8 	"/>
	<polygon class="st4" points="231.6,36 231.6,36.9 234.5,36.8 234.7,40.9 234.7,36.5 231.7,36.6 	"/>
	<path class="st5" d="M226,41.6c0,0.3,1.8,0.2,2.7,0c0.9-0.1,3.9-0.6,5-0.8c0.2,0,0.5-0.1,0.7-0.1c0-0.2,0-0.4,0-0.6
		c0-0.1,0-0.1,0-0.2c0,0,0-0.1,0-0.1c0-0.1-0.1-0.2-0.1-0.3c-0.1-0.1-0.2-0.2-0.3-0.2c-0.1,0-0.1,0-0.2,0.1c0,0.1-0.1,0.1-0.1,0.3
		c0,0.1,0,0.2,0,0.3c0,0,0,0,0,0c0,0,0,0,0,0c-1.4,0.2-3.8,0.6-5,0.8C227.9,41,226,41.3,226,41.6z M234,37.9c0.1,0,0.5,0.2,0.5,0.7
		c0,0.5-0.4,0.4-0.5,0.2C233.6,38.2,233.8,38,234,37.9z"/>
</g>
<g>
	<path class="st0" d="M245.5,41.7c0.1,0.2,0.3,0.5,0.5,0.7c0.1,0.2,0.3,0.5,0.5,0.7c0.2,0.3,0.5,0.4,0.9,0.4c0.2,0,0.5,0,0.7,0
		c1.2,0,2.3,0,3.5,0c2.4,0,4.8,0,7.3,0c0.4,0,0.8,0,1.1-0.4c0.4-0.4,0.3-0.9,0.3-1.4c0-1.3,0.1-2.5,0.1-3.8c0-0.2,0-0.4-0.1-0.5
		c-0.2-0.5-0.7-0.7-1.1-1c-0.5-0.4-1-0.7-1.6-0.7c-0.7,0-1.3,0-2,0c-0.2,0-0.5,0-0.7,0c-0.2,0-0.1-0.3-0.1-0.5c0-0.1,0-0.3,0-0.4
		c1.1,0,2.2,0.1,3.3,0.1c0.4,0,0.9,0.1,1.2,0c0.6-0.2,0.7-0.8,0.8-1.4c0.1-1.3,0.2-2.5,0.4-3.8c0-0.2,0-0.3,0-0.5
		c-0.1-0.6-0.5-0.7-0.9-1c-0.3-0.3-0.7-0.5-1-0.7c-0.2-0.2-0.5-0.2-0.7-0.2c-0.6,0-1.3,0-1.9-0.1c-0.2,0-1.1,0.1-1.1-0.1
		c0-0.1,0-0.6,0-0.6c0.1,0,0.3,0,0.4,0c0.6,0,1.2,0,1.8,0c1,0,2.1,0.1,3.2,0c1.4-0.2,1-2,1-2.9c0-1.3,0-2.6-0.1-3.8
		c0-0.6-0.2-1-0.7-1.4c-0.3-0.2-0.7-0.5-1-0.7c-0.3-0.2-0.5-0.3-0.8-0.3c-1.9,0.2-3.8,0.3-5.7,0.5c-2.6,0.2-5.3,0.4-7.9,0.7
		c-0.5,0-1.5,0-1.8,0.5c-0.2,0.4-0.1,1,0,1.4c0.5,5.1,1,10.2,1.5,15.3c0.1,1.3,0.3,2.6,0.4,3.9C245.2,40.3,245.1,41.3,245.5,41.7
		C245.5,41.8,245.4,41.6,245.5,41.7z"/>
	<path class="st1" d="M246,41.9h11.7c0.4,0,0.8-0.3,0.8-0.8l0.1-4.6c0-0.2-0.1-0.4-0.2-0.6c-0.1-0.2-0.3-0.2-0.6-0.2l-4.7-0.1
		l-0.1-2.4l4.5,0.2c0.4,0,0.8-0.3,0.8-0.7l0.4-4.4c0-0.2,0-0.4-0.2-0.6c-0.1-0.2-0.4-0.3-0.6-0.3l-4.9-0.2v-2.3h5.6
		c0.2,0,0.4-0.1,0.6-0.2c0.1-0.2,0.2-0.4,0.2-0.6l-0.1-6c0-0.2-0.1-0.4-0.3-0.6c-0.2-0.2-0.4-0.2-0.6-0.2l-14.8,1.3
		c-0.2,0-0.4,0.1-0.5,0.3c-0.1,0.2-0.2,0.4-0.2,0.6l2.1,21.7C245.3,41.6,245.6,41.9,246,41.9z"/>
	<polygon class="st2" points="258.8,18.2 258.9,24.1 252.5,24.1 252.5,28 258.1,28.2 257.7,32.6 252.4,32.4 252.5,36.4 257.9,36.5 
		257.8,41.1 246,41.1 243.9,19.4 	"/>
	<path class="st6" d="M245.9,32.4c1.8,0.2,3.5,0.3,5.4,0c1.3-0.2,2.7-0.5,4.4-1.1c0.7-0.2,1.5-0.5,2.1-0.7l0.2-2.4l-5.7-0.2v-3.8
		h6.4l-0.1-6l-14.8,1.3l1.3,12.9C245.4,32.4,245.7,32.4,245.9,32.4z"/>
	<path class="st4" d="M252.2,28.3l5.6,0.3c0,0,0,0.7,0.1,2l0.2-2.4l-5.7-0.2v-3.7L252.2,28.3z"/>
	<polygon class="st4" points="244.6,20.3 258.3,18.9 258.9,24.1 258.8,18.2 243.9,19.4 244.7,27.6 	"/>
	<polygon class="st4" points="252.4,32.4 252.5,36.4 257.9,36.5 257.9,38.4 257.6,37 252.1,36.7 	"/>
	<path class="st6" d="M256.7,40.8c0-0.3-2.7-0.6-4.1-0.7l-5.3-0.3l-0.1-1.8c-0.1-1.8-0.5-2-0.6-2c-0.2,0-0.4-0.1-0.2,2l0.2,2.5
		l6,0.4C253.6,41,256.7,41.2,256.7,40.8z M246.4,33.7c0.1-0.1,0.6,0.2,0.6,1c0,0.8-0.4,0.7-0.5,0.4
		C246.1,34.2,246.3,33.8,246.4,33.7z"/>
</g>
<g>
	<path class="st0" d="M38.6,24.7c-1.3-0.9-2.5-1.8-3.9-2.4c-1.5-0.6-3-1-4.6-1.2c-3.5-0.4-7.2,0.1-10.5,1.5c-1,0.4-0.8,1.2-0.7,2.1
		c0.1,1.1,0.1,2.1,0.4,3.2c0.3,1.2,0.8,5.3,1.9,17.4c0.9,0.6,2.3,1.3,4.2,1.7c1.1,0.2,2.2,0.3,3.6,0.1c3.6-0.3,6.5-0.5,9.4-2.5
		c0.7-0.5,3.3-2.4,4.5-5.9C45.4,31,38.7,24.7,38.6,24.7C38.6,24.7,38.6,24.7,38.6,24.7z M30.6,35.2c-0.1,0.1-0.1,0.2-0.2,0.3
		c-0.1-0.7-0.2-1.4-0.4-2.1c0.3,0.1,0.8,0.1,0.8,0.5C30.9,34.4,30.8,34.8,30.6,35.2C30.6,35.3,30.9,34.7,30.6,35.2z"/>
	<path class="st1" d="M27.7,20.8c-0.9,0-1.8,0.1-2.7,0.2c-1.9,0.3-3.8,0.8-5.5,1.5c-0.4,0.2-0.7,0.6-0.6,1.1
		c0.8,7.2,1.6,14.3,2.4,21.5c0.8,0,6.8,0.2,11-0.5c1.7-0.3,2.9-0.7,3.9-1.2c1.1-0.5,1.9-1.1,2.2-1.3c3.3-2.5,4.8-7.2,3.5-11.5
		C40.2,24.5,34.8,20.8,27.7,20.8z M28.8,36.5l-1-5.2c1.4,0.2,2.4,0.8,2.8,1.8c0.3,0.6,0.3,1.4-0.1,2.1c-0.3,0.7-0.8,1.1-1.5,1.3
		C29.1,36.5,29,36.5,28.8,36.5z"/>
	<path class="st2" d="M40.9,30.8c-2-7.1-9.1-9.6-15.8-8.7c-1.8,0.2-3.6,0.7-5.2,1.4l0.9,7.7c0.5,4.2,1,8.5,1.6,12.7
		c3.5,0.1,6.3,0,8.3-0.2c1.8-0.2,3.4-0.4,5.2-1.3c0.7-0.3,1.4-0.7,2-1.2C40.9,38.9,41.9,34.5,40.9,30.8z M29.4,37.5
		c-0.5,0.1-1,0-1.5-0.1l-1.3-7.2c2-0.1,4.1,0.4,5.1,2.4C32.5,34.5,31.5,37,29.4,37.5z"/>
	<path class="st6" d="M21,33.8c2-0.3,4.1-0.4,6.2-0.5l-0.6-3.1c2-0.1,4.1,0.4,5.1,2.4c0.1,0.3,0.2,0.5,0.3,0.8
		c3.2,0.2,6.3,0.7,9.3,1.3c0.1-1.3,0-2.7-0.3-3.9c-2-7.1-9.1-9.6-15.8-8.7c-1.8,0.2-3.6,0.7-5.2,1.4l0.9,7.7L21,33.8z"/>
	<path class="st4" d="M25.1,22.1c-1.8,0.2-3.6,0.7-5.2,1.4l0.9,7.7l-0.2-6.4c1.5-0.6,3-1,4.6-1.2c0.8-0.1,1.7-0.2,2.5-0.2
		c6.4,0,11.4,2.8,12.9,8.1c0.3,0.9,0.4,1.4,0.6,3.3c0.1-1.3,0-2.7-0.3-3.9C38.9,23.7,31.8,21.2,25.1,22.1z"/>
	<path class="st4" d="M26.7,30.9l1.2,6.4c0,0,1.5,0.6,2.9-0.7c1.4-1.3,1-3.4,1-3.4s1.3,3.8-2.2,4.7c-0.8,0.2-2.1,0-2.1,0L26.7,30.9z
		"/>
	<path class="st6" d="M30.1,42.7c0,0.2,0.5,0.4,1.2,0.3c0.7,0,1.5-0.2,2-0.3c0.5-0.2,1.6-0.6,2.7-1.1c1.1-0.6,2-1.4,2.5-2
		c0.2-0.3,0.4-0.5,0.5-0.7c0.1-0.2,0.1-0.4,0.1-0.5c0-0.3-0.2-0.3-0.2-0.4c-0.1-0.1-0.2-0.1-0.4,0c-0.1,0.1-0.3,0.4-0.8,1
		c-0.5,0.6-1.3,1.2-2.1,1.7c-0.9,0.5-1.8,0.9-2.5,1.1c-0.4,0.1-1.1,0.3-1.7,0.5C30.6,42.3,30.1,42.4,30.1,42.7z M39,36.3
		c0.1,0,0.3,0,0.4,0.2c0.1,0.1,0.3,0.4,0.2,0.7c-0.2,0.7-0.7,0.4-0.8,0.1c-0.1-0.4-0.2-0.6-0.1-0.8C38.8,36.4,38.9,36.3,39,36.3z"/>
</g>
<g>
	<path class="st0" d="M56.2,21.7c-3.8,0-7.5,1.8-9.6,5c-1,1.5-1.6,3.3-1.7,5.1c-0.1,2.3,0.6,4.5,1.9,6.4c0.6,0.8,1.1,1.7,1.8,2.4
		c0.7,0.7,1.5,1.3,2.3,1.7c1.8,1,3.9,1.6,6.1,1.6c3.8,0.1,7.7-1.3,10.2-4.3c2.5-3,3-7.3,1.3-10.9c-0.5-1-1.1-1.8-1.8-2.6
		c-0.8-0.9-1.9-1.5-2.9-2.2c-1.9-1.3-4.2-2-6.4-2.2C57,21.7,56.6,21.7,56.2,21.7z M54.9,36.5c-0.5,0-1.1-0.1-1.6-0.3
		c-0.5-0.2-0.8-0.7-1-1.2c-0.4-0.9-0.4-1.8-0.1-2.7c0.6-1.7,2.4-2.8,4.2-2.7c0.5,0,1,0.1,1.4,0.3c0.4,0.2,1.1,0.5,1.2,0.9
		c0.4,0.9,0.4,1.9,0,2.9C58.4,35.5,56.7,36.5,54.9,36.5z"/>
	<path class="st1" d="M44.8,32.4c0,5.7,4.9,10,11.4,10c6.5,0,11.7-4.5,11.8-10.2c0-2.8-0.9-5.2-2.7-7.1c-2.1-2.2-5.4-3.4-9.1-3.4
		C49.9,21.7,44.8,26.5,44.8,32.4z M54.9,28.2c2.4,0,4.4,1.9,4.4,4.2c0,2.3-2,4.2-4.4,4.2c-2.4,0-4.4-1.9-4.4-4.2
		C50.5,30.1,52.5,28.2,54.9,28.2z"/>
	<path class="st2" d="M56.2,22.5c-5.9,0-10.6,4.4-10.6,9.9c0,5.5,4.8,9.3,10.6,9.3c5.9,0,11-4,11-9.4C67.3,25.8,62,22.5,56.2,22.5z
		 M54.9,37.3c-2.8,0-5.1-2.2-5.1-4.9c0-2.7,2.3-4.9,5.1-4.9c2.8,0,5.1,2.2,5.1,4.9C60,35.1,57.8,37.3,54.9,37.3z"/>
	<g class="st3">
		<path class="st2" d="M46.2,34.4c1.6,0.4,3.2,0.9,4.8,1.1c-0.8-0.9-1.2-2-1.2-3.2c0-2.7,2.3-4.9,5.1-4.9c2.8,0,5.1,2.2,5.1,4.9
			c0,0.9-0.2,1.7-0.7,2.4c2.6-0.9,5.2-2,7.8-3c-0.1-6.1-5.3-9.3-11-9.3c-5.9,0-10.6,4.4-10.6,9.9c0,0.7,0.1,1.3,0.2,1.9
			C45.9,34.3,46,34.4,46.2,34.4z"/>
	</g>
	<g>
		<path class="st4" d="M56.2,23.3c5.5,0,10.4,2.9,11,8.5c0,0,0,0,0.1,0c-0.1-6.1-5.3-9.3-11-9.3c-5.9,0-10.6,4.4-10.6,9.9
			c0,0.1,0,0.3,0,0.4C45.8,27.5,50.4,23.3,56.2,23.3z"/>
	</g>
	<path class="st4" d="M50.2,34.3c0,0,1.4,3,4.7,3c3.3,0,4.6-2.9,5-4c0,0-0.3,4.6-5.3,4.3C50.9,37.4,50.2,34.3,50.2,34.3z"/>
	<path class="st5" d="M52.7,40.2c-0.1,0.1,0.6,0.5,1.4,0.7c0.9,0.2,2,0.3,2.7,0.3c0.8,0,2.3-0.2,3.8-0.9c0.8-0.3,1.5-0.7,2.1-1.1
		c0.6-0.4,1.1-0.8,1.5-1.2c0.7-0.6,0.9-1.1,1.1-1.4c0.1-0.3,0-0.4,0-0.4c-0.1-0.1-0.1-0.1-0.3,0c-0.1,0.1-0.2,0.2-0.4,0.4
		c-0.1,0.1-0.2,0.2-0.4,0.4c-0.1,0.1-0.3,0.3-0.5,0.5c-0.2,0.2-0.4,0.4-0.6,0.6c-0.2,0.2-0.5,0.4-0.8,0.6c-0.6,0.4-1.2,0.7-1.8,1
		c-1.3,0.6-2.7,0.8-3.6,0.8c-0.3,0-0.6,0-1.1,0c-0.2,0-0.4,0-0.7,0c-0.2,0-0.5,0-0.7-0.1C53.5,40.3,52.8,40.1,52.7,40.2z M66.2,34.2
		c0.1,0,0.2,0.1,0.2,0.3c0,0.1,0,0.1,0,0.2c0,0.1,0,0.1,0,0.2c0,0.2-0.1,0.3-0.2,0.5c-0.4,0.7-0.7,0.4-0.6,0.1
		c0.1-0.2,0.1-0.5,0.1-0.6c0-0.2,0.1-0.3,0.1-0.4C66,34.3,66.1,34.2,66.2,34.2z"/>
</g>
<g>
	<path class="st0" d="M71.4,32.7c0.1,2.3,0.7,4.6,1.8,6.6c0.5,1,1.2,1.9,1.9,2.8c0.7,1,1.5,1.9,2.5,2.6c1.9,1.3,4.4,1.7,6.6,0.9
		c1-0.4,2-1,2.8-1.7c0.4-0.3,0.7-0.7,1-1.1c0.2-0.2,0.3-0.4,0.4-0.6c0.1-0.2,0.2-0.5,0.4-0.4c0.4,0.2,0.7,0.3,1.1,0.2
		c0.4-0.1,0.6-0.4,0.7-0.8c0.1-0.5,0.2-0.9,0.2-1.4c0.1-0.6,0.2-1.2,0.3-1.9c0.1-0.5,0.2-1-0.1-1.4c-0.3-0.3-0.7-0.5-1.1-0.7
		c-0.2-0.2-0.4-0.4-0.7-0.5c-0.3-0.1-0.7-0.2-1-0.3c-1.2-0.4-2.4-0.7-3.7-1.1c-0.7-0.2-2.1-0.9-2.3,0.2c-0.1,0.5-0.2,1-0.3,1.6
		c-0.1,0.4-0.2,0.9-0.3,1.3c0,0.4,0.3,0.6,0.6,0.8c0.1,0.1,0.2,0.3,0.2,0.4c0,0.1-0.4,0.4-0.5,0.5c-0.4,0.3-0.9,0.3-1.3,0.2
		c-0.5-0.1-0.7-0.8-0.8-1.2c-0.4-1.3-0.2-3,0.2-4.3c0.3-0.8,0.7-1.5,1.3-2c0.3-0.3,0.8-0.5,1.2-0.5c0.3,0,0.5,0.1,0.7,0.2
		c0.2,0.2,0.3,0.3,0.5,0.5c0.2,0.4,0.5,0.9,0.9,1c0.2,0.1,1.3,0.1,1.8,0.1c1,0,1.8,0,2.8,0.1c0.4,0,0.7,0.1,1.1-0.2
		c0.4-0.3,0.5-1,0.6-1.5c0.3-1.1,0.5-2.2,0.7-3.3c0.1-0.4,0.1-0.7-0.1-1c-0.2-0.4-0.9-0.8-1.3-1c-0.3-0.2-0.2-0.2-0.7-0.3
		c-0.2,0-0.2,0-0.3-0.2c0-0.1-0.1-0.2-0.1-0.4c-0.1-0.3-0.3-0.5-0.4-0.8c-0.6-0.9-1.4-1.6-2.2-2.2c-0.9-0.7-1.8-1.3-2.9-1.7
		c-2.1-0.7-4.3-0.4-6.3,0.6c-2.8,1.4-4.6,4-5.4,6.9C71.5,29.4,71.3,31,71.4,32.7C71.5,35.6,71.3,30.3,71.4,32.7z"/>
	<path class="st1" d="M71.4,32.7c0.1,3.8,2.1,8,4.7,10.2c1.3,1,2.8,1.6,4.4,1.6c1.1,0,2.1-0.2,3.1-0.7c1.6-0.8,2.9-2.1,3.7-3.7
		l0.7,0.3c0.2,0.1,0.4,0.1,0.6,0c0.2-0.1,0.3-0.3,0.4-0.5l0.7-3.8c0.1-0.4-0.2-0.7-0.5-0.8l-6.1-1.8c-0.2-0.1-0.4,0-0.6,0.1
		c-0.2,0.1-0.3,0.3-0.3,0.5l-0.6,2.8c-0.1,0.3,0.1,0.7,0.4,0.8l0.6,0.3c-0.4,0.7-1,1.2-1.8,1c-1.6-0.4-2.7-1.7-2.7-3.6
		c0-1,0-4.4,2.4-5.7c0.3-0.1,0.6-0.2,0.9-0.2c0.7,0,1.4,0.5,1.8,1.4c0.1,0.3,0.4,0.5,0.8,0.4c0.3,0,0.7-0.1,1.2-0.1
		c1.3,0,2.8,0.1,3.3,0.2c0.1,0,0.2,0,0.2,0c0.3,0,0.6-0.2,0.7-0.5c0.2-0.6,0.3-1.2,0.5-1.9c0.2-0.7,0.3-1.5,0.4-2.2l0.1-0.5
		c0.1-0.4-0.1-0.7-0.5-0.8c-0.1-0.1-0.4-0.1-1.7-0.3c0-0.1,0-0.1,0-0.1c0,0,0,0,0,0c-0.6-3.3-4.1-5.1-7-5.1c-0.7,0-1.4,0.1-2,0.3
		C71.7,22.4,71.3,30.3,71.4,32.7z"/>
	<path class="st2" d="M80.2,29c1.6-0.8,3.1,0.1,3.7,1.5c1.5-0.2,4.7,0.1,4.8,0.1c0.2-0.6,0.3-1.2,0.5-1.9c0.2-0.9,0.4-1.7,0.5-2.6
		c-0.2-0.1-2-0.3-2-0.3c0,0-0.2-0.7-0.2-0.7c-0.7-3.4-4.9-5.3-8.1-4.3c-5.7,1.8-7.3,7.4-7.2,11.8c0.1,3.4,1.8,7.5,4.5,9.7
		c1.8,1.5,4.4,2,6.7,0.8c1.8-0.9,3-2.3,3.7-4l1.4,0.6L89,36l-1.5-0.4l-4.6-1.3L82.4,37l0.2,0.1l1,0.5c-0.5,1.3-1.5,2.4-2.9,2.1
		c-2.1-0.5-3.2-2.2-3.3-4.3C77.3,33.1,77.9,30.2,80.2,29z"/>
	<path class="st6" d="M72.1,32.8c1.8,0.1,3.6,0.3,5.4,0.5c0.3-1.7,1.1-3.4,2.6-4.2c1.6-0.8,3.1,0.1,3.7,1.5c1.5-0.2,4.7,0.1,4.8,0.1
		c0.2-0.6,0.3-1.2,0.5-1.9c0.2-0.9,0.4-1.7,0.5-2.6c-0.2-0.1-2-0.3-2-0.3c0,0-0.2-0.7-0.2-0.7c-0.7-3.4-4.9-5.3-8.1-4.3
		c-5.7,1.8-7.3,7.4-7.2,11.8C72.1,32.7,72.1,32.7,72.1,32.8z"/>
	<path class="st4" d="M79.4,21.6c0.5-0.2,1.1-0.2,1.7-0.2c2.4,0,5.3,1.7,5.9,4.4l0,0c0.1,0.8,0.3,0.9,0.4,1c0.1,0,0.1,0,0.4,0.1
		c0.2,0,0.8,0.1,1.2,0.2l0,0.1c-0.1,0.7-0.5,3.5-0.5,3.5c0.2-0.6,0.3-1.2,0.5-1.9c0.2-0.9,0.4-1.7,0.5-2.6c-0.2-0.1-2-0.3-2-0.3
		c0,0-0.2-0.7-0.2-0.7c-0.7-3.4-4.9-5.3-8.1-4.3c-4.8,1.5-6.7,5.7-7.1,9.7C72.1,31.3,73.2,23.5,79.4,21.6z"/>
	<polygon class="st4" points="82.4,36.7 82.9,34.2 89,36 83.3,34.7 	"/>
	<path class="st4" d="M77.6,32.7c0,0-1.2,4.8,2,6.6c2.9,1.6,4-1.7,4-1.7s-0.5,3.6-3.9,2.2C76.4,38.4,77.2,34,77.6,32.7z"/>
	<path class="st6" d="M83.2,42.6c-0.1-0.1-0.6,0.1-1.4,0.2c-0.7,0.1-1.6,0-2.2-0.1c-0.1,0-0.3-0.1-0.5-0.2c-0.1,0-0.2-0.1-0.3-0.1
		c-0.1-0.1-0.2-0.1-0.4-0.2c-0.5-0.3-1-0.6-1.5-1.1c-0.5-0.4-0.9-1-1.3-1.5c-0.1-0.1-0.2-0.2-0.3-0.4c-0.1-0.1-0.1-0.2-0.2-0.4
		c-0.1-0.2-0.2-0.4-0.3-0.6c-0.7-1.4-1-1.5-1.2-1.4c-0.1,0-0.4,0,0.5,1.8c0.2,0.4,0.5,1,0.9,1.5c0.4,0.5,0.8,1,1.3,1.5
		c1,0.9,2.2,1.5,3.2,1.7c0.5,0.1,1.5,0.2,2.4,0C82.7,43.2,83.3,42.8,83.2,42.6z M72.8,35c0.1-0.1,0.6,0.1,0.8,0.8
		c0.2,0.7-0.1,0.7-0.4,0.5c-0.3-0.4-0.4-0.7-0.5-0.9C72.7,35.2,72.7,35,72.8,35z"/>
</g>
<g>
	<path class="st0" d="M485.7,42.7c0.1,0.2,0.3,0.5,0.5,0.7c0.1,0.2,0.3,0.5,0.5,0.6c0.5,0.4,1.3,0.4,1.9,0.5
		c1.3,0.2,2.5,0.3,3.8,0.4c2.2,0.1,4.5,0.1,6.6-0.6c2.5-0.7,4.6-2.4,5.1-5.1c0.3-1.5,0.1-3-0.4-4.5c-0.4-1-0.9-1.8-1.6-2.6
		c-0.8-0.9-1.8-1.5-2.7-2.1c1.1-1.8,1.4-4,0.4-5.9c-1-1.8-2.7-2.9-4.3-4c-1.8-1.3-4.2-1.5-6.4-1.2c-0.6,0.1-1.2,0.2-1.8,0.4
		c-0.5,0.1-1.4,0.3-1.7,0.8c-0.1,0.2-0.1,0.4-0.1,0.5c0,1.7,0,3.3,0,5c0,5-0.1,10-0.1,14.9C485.3,41.2,485.2,42.1,485.7,42.7
		C485.8,42.7,485.7,42.6,485.7,42.7z M492.1,27.2c0-0.2,0-0.3,0-0.5c0.2,0,0.2,0,0.2,0.2C492.2,26.9,492.2,27,492.1,27.2z
		 M494.1,36.6c-0.1,0.5-0.7,0.8-1.1,1c0-0.5-0.1-1-0.1-1.6c0.3,0,0.6,0,0.8,0.1C494,36.2,494.2,36.3,494.1,36.6
		C494,37,494.1,36.5,494.1,36.6z"/>
	<path class="st1" d="M486,42.6c1.8,0.4,3.6,0.6,5.2,0.7c0.6,0,1.1,0.1,1.7,0.1c8,0,9.8-3.7,9.9-6.7c0.1-3.1-1.9-6.5-5.2-7.5
		c0.7-0.9,1.4-2.3,1.3-3.9c-0.1-1.9-1.3-3.7-3.6-5.2c-1.6-1.1-3.7-1.5-6.1-1.1c-1,0.1-2.1,0.4-3.2,0.8c-0.3,0.1-0.5,0.4-0.5,0.7
		l-0.2,21.5C485.3,42.2,485.6,42.6,486,42.6z M490.5,25.1c1.8,0.1,1.8,1,1.8,1.4c0,0.7-0.5,1.3-1.5,1.5L490.5,25.1z M494.1,36.6
		c-0.2,0.6-1.1,1.1-2.5,1.3c-0.1-1.1-0.2-2.2-0.3-3.4c0.9,0,1.6,0.2,2,0.5C493.8,35.4,494.3,36,494.1,36.6z"/>
	<path class="st2" d="M496.1,29.6c0,0,5.3-4.6-1.2-9c-1.6-1.1-3.5-1.3-5.6-1c-1,0.2-2,0.4-3,0.8c0,5.1-0.1,15.6-0.2,21.5
		c1.4,0.3,3.2,0.5,5.1,0.7c5,0.3,10.6-0.6,10.8-5.9C502.1,33.4,499.6,29.9,496.1,29.6z M493.1,26.5c0,1.7-1.7,2.3-3,2.5
		c-0.1-1.6-0.3-3.2-0.4-4.6C491.1,24.3,493.1,24.5,493.1,26.5z M490.9,38.8c-0.1-1.6-0.3-3.3-0.4-5c1.1-0.1,2.4,0,3.3,0.6
		C495.3,35.5,496,38.3,490.9,38.8z"/>
	<g class="st8">
		<path class="st2" d="M492.7,30.7c2.4-0.1,4.8,0,7.1,0.7c0,0,0,0,0.1,0c-1-1-2.3-1.7-3.8-1.8c0,0,5.3-4.6-1.2-9
			c-1.6-1.1-3.5-1.3-5.6-1c-1,0.2-2,0.4-3,0.8c0,2.7-0.1,6.9-0.1,11.2C488.3,31.2,490.5,30.9,492.7,30.7z M493.1,26.5
			c0,1.7-1.7,2.3-3,2.5c-0.1-1.6-0.3-3.2-0.4-4.6C491.1,24.3,493.1,24.5,493.1,26.5z"/>
	</g>
	<g>
		<path class="st9" d="M494.6,21.6c1.9,1.3,2.9,2.8,3,4.3c0.1,2.3-1.8,4-1.9,4l0,0c0.5,0,1.1,0.1,1.6,0.2c0.6,0.1,1.1,0.3,1.7,0.5
			c-0.8-0.6-1.8-1-2.9-1.1c0,0,5.3-4.6-1.2-9c-1.6-1.1-3.5-1.3-5.6-1c-1,0.2-2,0.4-3,0.8c0,1.8,0,4.3-0.1,7c0,1.3,0.5-6.1,0.5-6.1
			c0.9-0.3,1.8-0.5,2.7-0.7c0.5-0.1,1.1-0.1,1.6-0.1C492.4,20.5,493.6,20.9,494.6,21.6z"/>
	</g>
	<g>
		<path class="st9" d="M492.6,25.1c0.3,0.3,0.5,0.8,0.5,1.4c0,1.7-1.7,2.3-3,2.5c-0.1-1.6-0.3-3.1-0.4-4.4h0l0.2,4.8l0.5-0.1
			c2.2-0.3,2.9-1.1,2.9-2.6C493.2,26,493.1,25.6,492.6,25.1z"/>
	</g>
	<path class="st6" d="M488,41.3c0,0.1,0.2,0.2,0.5,0.3c0.2,0.1,0.4,0.1,0.6,0.2c0.2,0.1,0.5,0.1,0.7,0.2c0.5,0.1,1.1,0.2,1.7,0.2
		c0.3,0,0.6,0,0.8,0c0.3,0,0.5,0,0.7,0c0.9,0,2.8-0.2,4.6-0.8c0.5-0.2,0.9-0.4,1.4-0.7c0.4-0.3,0.8-0.6,1.1-1c0.6-0.7,0.9-1.5,1-2.1
		c0.1-0.6,0.2-1,0.1-1.4c0-0.3-0.1-0.6-0.1-0.8c-0.1-0.3-0.2-0.4-0.3-0.4c-0.1,0-0.2,0-0.2,0.2c0,0.2,0,0.4-0.1,0.7
		c0,0.3-0.1,0.8-0.2,1.4c-0.1,0.6-0.4,1.3-0.9,1.9c-0.2,0.3-0.6,0.5-0.9,0.8c-0.3,0.2-0.7,0.4-1.1,0.5c-1.6,0.6-3.3,0.8-4.5,0.8
		c-0.3,0-0.8,0-1.3,0c-0.3,0-0.5,0-0.8,0c-0.3,0-0.6,0-0.8,0c-0.5,0-1-0.1-1.4-0.1C488.3,41.2,488,41.2,488,41.3z M500,32.5
		c0.1-0.1,0.6,0.1,1,1.1c0.1,0.5,0.1,0.7,0,0.8c-0.1,0.1-0.3,0-0.4-0.2c-0.3-0.5-0.5-0.9-0.6-1.1C499.9,32.7,499.9,32.5,500,32.5z"
		/>
</g>
<g>
	<path class="st0" d="M507.1,19.4c-0.3,0.3-0.2,0.8-0.2,1.1c0,0.6,0,1.2,0,1.8c0,1.1,0,2.2,0.1,3.3c0,0.3,0.1,0.5,0.3,0.7
		c0.3,0.4,0.6,1.1,1,1.4c0.5,0.4,1.3,0.2,1.8,0.2c0.3,0,0.3,0,0.3,0.3c0,0.4,0,0.9,0.1,1.4c0.1,2.3,0.2,4.6,0.3,6.9
		c0,0.2-0.6,0.1-0.8,0.1c-0.5,0-1.1,0.1-1.6,0.1c-0.7,0-0.7,0.6-0.7,1.2c0.1,0.5,0.1,1.1,0.2,1.6c0.1,1.1,0.3,2.3,0.4,3.4
		c0,0.3,0.2,0.4,0.3,0.7c0.2,0.2,0.3,0.5,0.5,0.7c0.2,0.2,0.3,0.5,0.5,0.7c0.4,0.3,0.8,0.2,1.2,0.2c2.4-0.3,4.8-0.6,7.2-1
		c0.6-0.1,1.3-0.1,1.9-0.3c0.9-0.4,0.6-1.9,0.6-2.7c0-1,0-2-0.1-2.9c0-0.8-0.8-1-1.3-1.5c-0.2-0.2-0.7-0.6-1-0.5c-0.2,0-0.4,0-0.6,0
		c0.1-2.1,0.1-4.2,0.2-6.4c0-0.5,0-1,0.1-1.5c0-0.1-0.1-0.5,0.1-0.5c0.6,0,1.1,0,1.7,0c0.7,0,1.1-0.6,1.1-1.3c0-1.1,0-2.2-0.1-3.3
		c0-0.6,0-1.2,0-1.8c0-0.4,0-0.8-0.2-1.1c-0.1-0.2-1.6-1.3-2-1.4c-0.2,0-0.4,0-0.6,0c-1.1,0-2.2,0-3.2,0c-1.6,0-3.1,0-4.7,0
		c-0.5,0-1.1,0-1.6,0C507.8,19.2,507.4,19.1,507.1,19.4C507,19.6,507.2,19.3,507.1,19.4z"/>
	<path class="st1" d="M507.1,19.4c-0.1,0.1-0.2,0.3-0.2,0.5l0.1,5.7c0,0.4,0.3,0.8,0.8,0.8h2.6l0.4,10.2l-2.4,0.1
		c-0.2,0-0.4,0.1-0.5,0.3c-0.1,0.2-0.2,0.4-0.2,0.6l0.6,5.4c0,0.2,0.1,0.4,0.3,0.5c0.1,0.1,0.3,0.2,0.5,0.2c0,0,0.1,0,0.1,0l9.1-1.2
		c0.4,0,0.7-0.4,0.7-0.8l-0.1-4.7c0-0.2-0.1-0.4-0.2-0.5c-0.2-0.1-0.4-0.2-0.6-0.2l-2.2,0.1l0.3-9.9h2.1h0c0.4,0,0.8-0.3,0.8-0.8
		c0,0,0-0.1,0-0.1l-0.1-5.7c0-0.4-0.3-0.8-0.8-0.8l-10.5,0.1C507.4,19.2,507.2,19.3,507.1,19.4z"/>
	<polygon class="st2" points="515,37.2 515.4,25.7 518.3,25.7 518.2,19.8 507.7,20 507.8,25.7 511.1,25.7 511.6,37.4 508.5,37.5 
		509.1,42.9 518.2,41.7 518.1,37 	"/>
	<g class="st3">
		<path class="st2" d="M511.1,25.7l0.2,4.6c1.3,0.1,2.6,0.2,4,0.3l0.2-4.9h2.8l-0.1-5.8L507.7,20l0.1,5.7H511.1z"/>
	</g>
	<g>
		<polygon class="st4" points="508.1,20.7 518,20.6 518.2,22.8 518.2,19.8 507.7,20 507.7,23.9 		"/>
	</g>
	<polygon class="st4" points="511.6,36.5 511.7,37.7 508.9,38.1 508.9,41.6 508.5,37.5 511.6,37.3 	"/>
	<polygon class="st4" points="515.1,36.5 515,37.5 517.9,37.4 518.2,41.4 518.1,37 515.1,37.1 	"/>
	<path class="st5" d="M509.4,42.2c0,0.3,1.8,0.2,2.7,0c0.9-0.1,3.9-0.6,5-0.8c0.2,0,0.5-0.1,0.7-0.1c0-0.2,0-0.4,0-0.6
		c0-0.1,0-0.1,0-0.2c0,0,0-0.1,0-0.1c0-0.1-0.1-0.2-0.1-0.3c-0.1-0.1-0.2-0.2-0.3-0.2c-0.1,0-0.1,0-0.2,0.1c0,0.1-0.1,0.1-0.1,0.3
		c0,0.1,0,0.2,0,0.3c0,0,0,0,0,0c0,0,0,0,0,0c-1.4,0.2-3.8,0.6-5,0.8C511.4,41.5,509.4,41.9,509.4,42.2z M517.4,38.5
		c0.1,0,0.5,0.2,0.5,0.7c0,0.5-0.4,0.4-0.5,0.2C517,38.8,517.3,38.5,517.4,38.5z"/>
</g>
<g>
	<path class="st0" d="M524.5,30.8c0.1,2.3,0.7,4.6,1.8,6.6c0.5,1,1.2,1.9,1.9,2.8c0.7,1,1.5,1.9,2.5,2.6c1.9,1.3,4.4,1.7,6.6,0.9
		c1-0.4,2-1,2.8-1.7c0.4-0.3,0.7-0.7,1-1.1c0.2-0.2,0.3-0.4,0.4-0.6c0.1-0.2,0.2-0.5,0.4-0.4c0.4,0.2,0.7,0.3,1.1,0.2
		c0.4-0.1,0.6-0.4,0.7-0.8c0.1-0.5,0.2-0.9,0.2-1.4c0.1-0.6,0.2-1.2,0.3-1.9c0.1-0.5,0.2-1-0.1-1.4c-0.3-0.3-0.7-0.5-1.1-0.7
		c-0.2-0.2-0.4-0.4-0.7-0.5c-0.3-0.1-0.7-0.2-1-0.3c-1.2-0.4-2.4-0.7-3.7-1.1c-0.7-0.2-2.1-0.9-2.3,0.2c-0.1,0.5-0.2,1-0.3,1.6
		c-0.1,0.4-0.2,0.9-0.3,1.3c0,0.4,0.3,0.6,0.6,0.8c0.1,0.1,0.2,0.3,0.2,0.4c0,0.1-0.4,0.4-0.5,0.5c-0.4,0.3-0.9,0.3-1.3,0.2
		c-0.5-0.1-0.7-0.8-0.8-1.2c-0.4-1.3-0.2-3,0.2-4.3c0.3-0.8,0.7-1.5,1.3-2c0.3-0.3,0.8-0.5,1.2-0.5c0.3,0,0.5,0.1,0.7,0.2
		c0.2,0.2,0.3,0.3,0.5,0.5c0.2,0.4,0.5,0.9,0.9,1c0.2,0.1,1.3,0.1,1.8,0.1c1,0,1.8,0,2.8,0.1c0.4,0,0.7,0.1,1.1-0.2
		c0.4-0.3,0.5-1,0.6-1.5c0.3-1.1,0.5-2.2,0.7-3.3c0.1-0.4,0.1-0.7-0.1-1c-0.2-0.4-0.9-0.8-1.3-1c-0.3-0.2-0.2-0.2-0.7-0.3
		c-0.2,0-0.2,0-0.3-0.2c0-0.1-0.1-0.2-0.1-0.4c-0.1-0.3-0.3-0.5-0.4-0.8c-0.6-0.9-1.4-1.6-2.2-2.2c-0.9-0.7-1.8-1.3-2.9-1.7
		c-2.1-0.7-4.3-0.4-6.3,0.6c-2.8,1.4-4.6,4-5.4,6.9C524.6,27.5,524.4,29.1,524.5,30.8C524.6,33.7,524.4,28.4,524.5,30.8z"/>
	<path class="st1" d="M524.5,30.8c0.1,3.8,2.1,8,4.7,10.2c1.3,1,2.8,1.6,4.4,1.6c1.1,0,2.1-0.2,3.1-0.7c1.6-0.8,2.9-2.1,3.7-3.7
		l0.7,0.3c0.2,0.1,0.4,0.1,0.6,0c0.2-0.1,0.3-0.3,0.4-0.5l0.7-3.8c0.1-0.4-0.2-0.7-0.5-0.8l-6.1-1.8c-0.2-0.1-0.4,0-0.6,0.1
		c-0.2,0.1-0.3,0.3-0.3,0.5l-0.6,2.8c-0.1,0.3,0.1,0.7,0.4,0.8l0.6,0.3c-0.4,0.7-1,1.2-1.8,1c-1.6-0.4-2.7-1.7-2.7-3.6
		c0-1,0-4.4,2.4-5.7c0.3-0.1,0.6-0.2,0.9-0.2c0.7,0,1.4,0.5,1.8,1.4c0.1,0.3,0.4,0.5,0.8,0.4c0.3,0,0.7-0.1,1.2-0.1
		c1.3,0,2.8,0.1,3.3,0.2c0.1,0,0.2,0,0.2,0c0.3,0,0.6-0.2,0.7-0.5c0.2-0.6,0.3-1.2,0.5-1.9c0.2-0.7,0.3-1.5,0.4-2.2l0.1-0.5
		c0.1-0.4-0.1-0.7-0.5-0.8c-0.1-0.1-0.4-0.1-1.7-0.3c0-0.1,0-0.1,0-0.1c0,0,0,0,0,0c-0.6-3.3-4.1-5.1-7-5.1c-0.7,0-1.4,0.1-2,0.3
		C524.8,20.5,524.4,28.4,524.5,30.8z"/>
	<path class="st2" d="M533.3,27.1c1.6-0.8,3.1,0.1,3.7,1.5c1.5-0.2,4.7,0.1,4.8,0.1c0.2-0.6,0.3-1.2,0.5-1.9
		c0.2-0.9,0.4-1.7,0.5-2.6c-0.2-0.1-2-0.3-2-0.3c0,0-0.2-0.7-0.2-0.7c-0.7-3.4-4.9-5.3-8.1-4.3c-5.7,1.8-7.3,7.4-7.2,11.8
		c0.1,3.4,1.8,7.5,4.5,9.7c1.8,1.5,4.4,2,6.7,0.8c1.8-0.9,3-2.3,3.7-4l1.4,0.6l0.7-3.8l-1.5-0.4l-4.6-1.3l-0.6,2.8l0.2,0.1l1,0.5
		c-0.5,1.3-1.5,2.4-2.9,2.1c-2.1-0.5-3.2-2.2-3.3-4.3C530.4,31.2,531.1,28.3,533.3,27.1z"/>
	<path class="st6" d="M525.2,30.9c1.8,0.1,3.6,0.3,5.4,0.5c0.3-1.7,1.1-3.4,2.6-4.2c1.6-0.8,3.1,0.1,3.7,1.5
		c1.5-0.2,4.7,0.1,4.8,0.1c0.2-0.6,0.3-1.2,0.5-1.9c0.2-0.9,0.4-1.7,0.5-2.6c-0.2-0.1-2-0.3-2-0.3c0,0-0.2-0.7-0.2-0.7
		c-0.7-3.4-4.9-5.3-8.1-4.3c-5.7,1.8-7.3,7.4-7.2,11.8C525.2,30.8,525.2,30.8,525.2,30.9z"/>
	<path class="st4" d="M532.6,19.7c0.5-0.2,1.1-0.2,1.7-0.2c2.4,0,5.3,1.7,5.9,4.4l0,0c0.1,0.8,0.3,0.9,0.4,1c0.1,0,0.1,0,0.4,0.1
		c0.2,0,0.8,0.1,1.2,0.2l0,0.1c-0.1,0.7-0.5,3.5-0.5,3.5c0.2-0.6,0.3-1.2,0.5-1.9c0.2-0.9,0.4-1.7,0.5-2.6c-0.2-0.1-2-0.3-2-0.3
		c0,0-0.2-0.7-0.2-0.7c-0.7-3.4-4.9-5.3-8.1-4.3c-4.8,1.5-6.7,5.7-7.1,9.7C525.2,29.4,526.3,21.6,532.6,19.7z"/>
	<polygon class="st4" points="535.5,34.8 536.1,32.3 542.1,34.1 536.4,32.8 	"/>
	<path class="st4" d="M530.7,30.8c0,0-1.2,4.8,2,6.6c2.9,1.6,4-1.7,4-1.7s-0.5,3.6-3.9,2.2C529.5,36.5,530.4,32.1,530.7,30.8z"/>
	<path class="st6" d="M536.3,40.8c-0.1-0.1-0.6,0.1-1.4,0.2c-0.7,0.1-1.6,0-2.2-0.1c-0.1,0-0.3-0.1-0.5-0.2c-0.1,0-0.2-0.1-0.3-0.1
		c-0.1-0.1-0.2-0.1-0.4-0.2c-0.5-0.3-1-0.6-1.5-1.1c-0.5-0.4-0.9-1-1.3-1.5c-0.1-0.1-0.2-0.2-0.3-0.4c-0.1-0.1-0.1-0.2-0.2-0.4
		c-0.1-0.2-0.2-0.4-0.3-0.6c-0.7-1.4-1-1.5-1.2-1.4c-0.1,0-0.4,0,0.5,1.8c0.2,0.4,0.5,1,0.9,1.5c0.4,0.5,0.8,1,1.3,1.5
		c1,0.9,2.2,1.5,3.2,1.7c0.5,0.1,1.5,0.2,2.4,0C535.8,41.3,536.4,40.9,536.3,40.8z M525.9,33.1c0.1-0.1,0.6,0.1,0.8,0.8
		c0.2,0.7-0.1,0.7-0.4,0.5c-0.3-0.4-0.4-0.7-0.5-0.9C525.8,33.3,525.8,33.2,525.9,33.1z"/>
</g>
<g>
	<path class="st0" d="M600.1,36.6c1.2-0.5,1.8-0.2,2-0.1c0.9,0.5,0.9,1.9,0.9,3.3c0,1.3,0,2.2-0.4,3c0,0-0.1,0.1-0.1,0.1
		c-1,1.3-4.6,1.5-10.4,1.1c-2.8-0.2-1.3-0.2-3.7-0.3c-1.4-0.1-2-0.1-2.9-0.4c-0.8-0.3-1.6-0.5-2.2-1.2c-1.4-1.5-1-3.8-0.9-4.3
		c0.2-0.9,0.5-1.9,2.4-4.3c1-1.2,2.3-2.9,4.2-4.7c0.4-0.4,1.1-1.1,1.9-1.9c1-1,1.3-1.3,1.3-1.5c-0.2-0.5-2.4-0.1-3.2,0.1
		c-6.2,1.2-6.7,1-7.1,0.9c-2-1-2.3-5.8-0.8-7c1-0.7,3.1-0.3,4.6-0.6c0.1,0,0.6-0.2,1.3-0.3c0.2,0,0.4-0.1,0.6-0.1
		c1.6-0.2,2.4-0.4,3.3-0.2c2.1,0.4,3.9,1.8,5,3.6c1.1,1.8,1.7,4,0.9,6.1c-0.5,1.4-1.2,2.3-2.5,3.8c-2,2.3-3.6,3.2-3.4,4.2
		c0.1,0.3,0.4,0.6,1.2,1C595.1,38,598.5,37.2,600.1,36.6z"/>
	<path class="st1" d="M592.6,43.4c-2.1,0-4.2,0.1-6.3-0.4c-0.4-0.1-1.4-0.3-2.4-1.2c-0.4-0.3-0.8-0.7-1.1-1.4
		c-0.2-0.7-0.1-1.3,0-1.8c0.5-1.8,1.5-3.3,2.6-4.8c0.7-0.9,1.6-2,2.7-3.2c1-0.9,1.8-1.6,2.3-2.2c0.5-0.5,0.7-0.8,0.8-0.9
		c0.7-0.8,1.8-2.3,1.4-2.8c-0.2-0.3-1.3-0.1-3.5,0.3c-2.4,0.5-3.7,0.7-3.8,0.8c-0.7,0.2-1.3,0.5-2,0.3c-0.6-0.2-1-0.6-1.3-0.9
		c-0.1-0.1-0.5-0.5-0.9-1.2c-0.6-1.1-1.1-3.4-0.1-4.6c0.4-0.5,0.9-0.6,3.4-0.9c3.1-0.4,4.7-0.6,5.8-0.6c2.4-0.1,3.6-0.1,5.2,0.3
		c1.8,0.4,3.9,1,4.7,2.7c0.5,1.2,0.1,2.3-0.2,3.5c0,0-0.7,2.1-4.8,6.3c-0.1,0.1-0.1,0.1-0.1,0.1c-0.2,0.1-0.3,0.2-1.6,1.2
		c-1.7,1.4-2.6,2-2.9,2.6c-0.2,0.4-0.8,1.4-0.4,2.2c0.5,1.2,2.7,1.3,3.5,1.4c4.8,0.2,7-2.7,8.5-1.7c1.3,0.9,1.4,4.2-0.1,5.9
		c-0.2,0.2-0.4,0.3-0.5,0.4C599.3,44.2,596.7,43.5,592.6,43.4z"/>
	<path class="st2" d="M590.2,29.9c0.2-0.1,0.3-0.2,0.4-0.3c0.3-0.3,1.8-1.9,2.6-3c0.4-0.6,1.1-1.4,0.8-2c-0.3-0.7-2-0.5-4.3-0.2
		c-0.6,0.1-1.3,0.2-2.9,0.4c-1,0.2-1.5,0.2-1.6,0.3c-0.5,0.2-0.8,0.3-1.2,0.2c-0.3-0.1-0.6-0.3-0.8-0.5c-0.1-0.1-0.6-0.6-1-1.6
		c-0.3-0.8-0.5-1.2-0.3-1.7c0.2-0.5,0.8-0.6,1.5-0.9c2-0.7,1.7-1,3.1-1.4c1.3-0.4,2.3-0.5,3.8-0.5c2.8-0.1,4.6-0.2,6.4,0.8
		c0.8,0.4,2.2,1.1,2.6,2.6c0.3,1-0.1,1.9-0.4,2.9c-0.6,1.5-1.5,2.5-1.9,2.9c-0.4,0.4-0.5,0.4-1.3,1c-1.2,0.9-2,1.8-3.8,3.6
		c-0.7,0.7-1.1,1.1-1.3,1.4c-1,1.2-2,2.4-1.7,3.4c0.4,1.3,3.2,1.9,6.9,1.6c0.5,0,1.4,0,2.3-0.2c1.6-0.4,2.3-1,3-0.6
		c0.5,0.3,0.6,0.9,0.8,1.8c0.1,0.4,0.3,1.4,0.1,2c-0.5,1.3-2.9,0.7-9,1.2c0,0-1.3,0.1-3.9,0.1c-1.4,0-2.1-0.1-2.9-0.4
		c-0.6-0.2-1.5-0.6-2.1-1.5c-0.8-1.2-0.5-2.7-0.4-3c0.2-0.9,0.7-1.5,1.1-2.1c0.6-0.7,1.2-1.3,1.7-2.4
		C586.4,33.5,585.9,32.9,590.2,29.9z"/>
	<path class="st6" d="M590.9,28.7c0.6-0.4,1.5-1,2.2-2.2c0.5-0.8,1-1.5,0.8-2c-0.2-0.5-1.1-0.6-4.3-0.2c-1.4,0.2-3.3,0.5-5.6,1
		c-0.2-0.1-1.5-0.7-1.8-2.1c-0.4-1.8,1.2-3.2,1.3-3.2c0.2-0.2,0.8-0.5,4-1c0.7-0.1,1.6-0.2,2.8-0.3c3-0.1,7.5-0.3,8.8,2
		c0.4,0.7,0.3,1.3,0.3,2.1c-0.2,3.3-2.9,5.4-3.7,6c-0.6-0.1-1.2-0.2-1.9-0.2C592.7,28.6,591.8,28.6,590.9,28.7z"/>
	<g>
		<path class="st4" d="M599.3,22.1c-0.3-0.4-0.8-0.9-1.5-1.4c-2.4-1.7-5-1.5-9-1.1c-4.6,0.5-5.6,1.5-6,2.1c-0.4,0.6-0.6,1.2-0.7,1.6
			c-0.7-1.5-0.5-2.3-0.3-2.6c0.2-0.3,0.7-1.2,6.5-1.8c2.1-0.2,3.1-0.3,4.6-0.2c2.2,0.2,5.2,0.4,6.1,2.2
			C599.3,21.3,599.4,21.8,599.3,22.1z"/>
	</g>
	<path class="st4" d="M592.3,28c-0.8,1-1.2,1.3-2.7,2.7c-1.5,1.4-2.5,2.7-3.2,3.4c-1.5,1.8-2.3,3.1-2.4,3c-0.1-0.1,0.5-1.1,1-1.9
		c0.8-1.2,1.5-2.1,2.2-2.8c1.5-1.7,2.2-2.2,3.8-3.8c0.7-0.6,1.6-1.6,2.7-2.9C593.4,26.4,592.9,27.1,592.3,28z"/>
	<path class="st4" d="M589.3,37.8c-0.2-0.3-0.3-0.7-0.3-0.7c-0.3-1.2,0.8-2.4,1-2.6c-0.6,0.7-0.8,1.7-0.5,2.4
		c0.2,0.4,0.5,0.7,0.7,0.8c0.4,0.2,0.9,0.3,1.5,0.5c1.3,0.3,2.4,0.4,3.3,0.4C594.6,38.8,590.4,39.4,589.3,37.8z"/>
	<path class="st6" d="M593.6,42.2c-0.3,0-1.2,0.1-3.1,0.1c-1.7,0-2,0.1-2.6,0c-1.2-0.1-1.9-0.2-2.6-0.7c-0.7-0.5-1-1.3-1.2-1.7
		c0.8,0.7,1.5,1.1,2.1,1.3c0.1,0,0.3,0.1,1.2,0.2c0.6,0.1,1.3,0.2,2.4,0.3c0.7,0.1,1.9,0.2,3.6,0.1c0.9,0,2-0.1,3.4-0.2
		C596,41.8,594.9,42,593.6,42.2z M584,38.4C584,38.4,584,38.4,584,38.4c-0.1,0.4,0,0.9,0.1,0.9c0.1,0,0.3-0.2,0.3-0.2
		c0.1-0.2,0.1-0.4,0.1-0.7c0-0.7,0.1-1,0-1C584.4,37.3,584.1,37.9,584,38.4z"/>
</g>
<g>
	<path class="st0" d="M616.2,18.7c-3.8,0-7.5,1.8-9.6,5c-1,1.5-1.6,3.3-1.7,5.1c-0.1,2.3,0.6,4.5,1.9,6.4c0.6,0.8,1.1,1.7,1.8,2.4
		c0.7,0.7,1.5,1.3,2.3,1.7c1.8,1,3.9,1.6,6.1,1.6c3.8,0.1,7.7-1.3,10.2-4.3c2.5-3,3-7.3,1.3-10.9c-0.5-1-1.1-1.8-1.8-2.6
		c-0.8-0.9-1.9-1.5-2.9-2.2c-1.9-1.3-4.2-2-6.4-2.2C617,18.7,616.6,18.7,616.2,18.7z M614.9,33.5c-0.5,0-1.1-0.1-1.6-0.3
		c-0.5-0.2-0.8-0.7-1-1.2c-0.4-0.9-0.4-1.8-0.1-2.7c0.6-1.7,2.4-2.8,4.2-2.7c0.5,0,1,0.1,1.4,0.3c0.4,0.2,1.1,0.5,1.2,0.9
		c0.4,0.9,0.4,1.9,0,2.9C618.4,32.5,616.7,33.5,614.9,33.5z"/>
	<path class="st1" d="M604.8,29.4c0,5.7,4.9,10,11.4,10c6.5,0,11.7-4.5,11.8-10.2c0-2.8-0.9-5.2-2.7-7.1c-2.1-2.2-5.4-3.4-9.1-3.4
		C609.9,18.7,604.8,23.5,604.8,29.4z M614.9,25.2c2.4,0,4.4,1.9,4.4,4.2c0,2.3-2,4.2-4.4,4.2c-2.4,0-4.4-1.9-4.4-4.2
		C610.5,27.1,612.5,25.2,614.9,25.2z"/>
	<path class="st2" d="M616.2,19.5c-5.9,0-10.6,4.4-10.6,9.9c0,5.5,4.8,9.3,10.6,9.3c5.9,0,11-4,11-9.4
		C627.3,22.9,622,19.5,616.2,19.5z M614.9,34.3c-2.8,0-5.1-2.2-5.1-4.9c0-2.7,2.3-4.9,5.1-4.9c2.8,0,5.1,2.2,5.1,4.9
		C620,32.1,617.7,34.3,614.9,34.3z"/>
	<g class="st3">
		<path class="st2" d="M606.2,31.4c1.6,0.4,3.2,0.9,4.8,1.1c-0.8-0.9-1.2-2-1.2-3.2c0-2.7,2.3-4.9,5.1-4.9c2.8,0,5.1,2.2,5.1,4.9
			c0,0.9-0.2,1.7-0.7,2.4c2.6-0.9,5.2-2,7.8-3c-0.1-6.1-5.3-9.3-11-9.3c-5.9,0-10.6,4.4-10.6,9.9c0,0.7,0.1,1.3,0.2,1.9
			C605.9,31.4,606,31.4,606.2,31.4z"/>
	</g>
	<g>
		<path class="st4" d="M616.2,20.3c5.5,0,10.4,2.9,11,8.5c0,0,0,0,0.1,0c-0.1-6.1-5.3-9.3-11-9.3c-5.9,0-10.6,4.4-10.6,9.9
			c0,0.1,0,0.3,0,0.4C605.8,24.5,610.4,20.3,616.2,20.3z"/>
	</g>
	<path class="st4" d="M610.2,31.3c0,0,1.4,3,4.7,3c3.3,0,4.6-2.9,5-4c0,0-0.3,4.6-5.3,4.3C610.9,34.4,610.2,31.3,610.2,31.3z"/>
	<path class="st5" d="M612.7,37.3c-0.1,0.1,0.6,0.5,1.4,0.7c0.9,0.2,2,0.3,2.7,0.3c0.8,0,2.3-0.2,3.8-0.9c0.8-0.3,1.5-0.7,2.1-1.1
		c0.6-0.4,1.1-0.8,1.5-1.2c0.7-0.6,0.9-1.1,1.1-1.4c0.1-0.3,0-0.4,0-0.4c-0.1-0.1-0.1-0.1-0.3,0c-0.1,0.1-0.2,0.2-0.4,0.4
		c-0.1,0.1-0.2,0.2-0.4,0.4c-0.1,0.1-0.3,0.3-0.5,0.5c-0.2,0.2-0.4,0.4-0.6,0.6c-0.2,0.2-0.5,0.4-0.8,0.6c-0.6,0.4-1.2,0.7-1.8,1
		c-1.3,0.6-2.7,0.8-3.6,0.8c-0.3,0-0.6,0-1.1,0c-0.2,0-0.4,0-0.7,0c-0.2,0-0.5,0-0.7-0.1C613.5,37.3,612.8,37.1,612.7,37.3z
		 M626.2,31.3c0.1,0,0.2,0.1,0.2,0.3c0,0.1,0,0.1,0,0.2c0,0.1,0,0.1,0,0.2c0,0.2-0.1,0.3-0.2,0.5c-0.4,0.7-0.7,0.4-0.6,0.1
		c0.1-0.2,0.1-0.5,0.1-0.6c0-0.2,0.1-0.3,0.1-0.4C626,31.4,626.1,31.3,626.2,31.3z"/>
</g>
<g>
	<path class="st0" d="M632.6,41.5c0.1,0.2,0.3,0.5,0.5,0.7c0.1,0.2,0.3,0.5,0.5,0.6c0.2,0.1,0.4,0.2,0.6,0.2c0.5,0.1,1,0.2,1.5,0.3
		c1.3,0.2,2.6,0.5,3.8,0.7c0.6,0.1,1.3,0,1.6-0.7c0.1-0.3,0.1-0.7,0.1-1c0.2-1.4,0.3-2.7,0.5-4.1c0.1-0.8,0.2-1.5,0.3-2.3
		c0.2,0.5,0.4,0.9,0.6,1.4c0.3,0.7,0.8,1.4,1.3,2c0.6,0.7,1.6,0.4,2-0.4c0.2-0.5,0.4-1,0.6-1.5c0.1,0.4,0.1,0.9,0.2,1.3
		c0.1,0.7,0.1,1.4,0.2,2c0,0.1,0,0.2,0,0.4c0,0.3,0.2,0.5,0.4,0.8c0.1,0.1,0.9,1.3,1.1,1.4c0.2,0.1,0.5,0.2,0.7,0.1
		c2.4-0.2,4.8-0.4,7.1-0.6c0.9-0.1,2.1-0.1,1.9-1.4c-0.1-0.5-0.1-1-0.2-1.5c-0.3-2.5-0.6-4.9-0.9-7.4c-0.3-2.8-0.7-5.7-1-8.5
		c-0.1-1-0.2-1.9-0.3-2.9c0-0.4,0-0.9-0.2-1.3c-0.2-0.5-0.7-0.8-1.2-1.1c-0.3-0.2-0.7-0.6-1.2-0.7c-0.3,0-0.7,0-1-0.1
		c-1.4-0.1-2.8-0.2-4.2-0.3c-0.7,0-2.3-0.5-2.6,0.4c-0.4,1.1-0.8,2.2-1.2,3.3c-0.1,0.2-0.2,0.5-0.3,0.7c-0.1-0.5-0.3-1-0.5-1.5
		c-0.1-0.5-0.2-1.2-0.6-1.6c-0.2-0.2-0.4-0.4-0.6-0.5c-0.2-0.2-0.5-0.4-0.7-0.5c-0.2-0.2-0.6-0.4-0.9-0.4c-0.5,0-1.1,0-1.6,0
		c-0.7,0-1.4,0-2.1,0c-0.5,0-1.1,0-1.3,0.6c-0.1,0.4-0.1,0.8-0.2,1.2c-0.9,5.2-1.7,10.4-2.5,15.5c-0.2,1.3-0.4,2.6-0.6,3.8
		C632.3,40,632,40.9,632.6,41.5C632.6,41.6,632.5,41.4,632.6,41.5z"/>
	<path class="st1" d="M632.9,41.5l5.7,1.1c0,0,0.1,0,0.1,0c0.2,0,0.3-0.1,0.5-0.2c0.2-0.1,0.3-0.3,0.3-0.6l1.1-9l2.2,5
		c0.1,0.3,0.4,0.5,0.7,0.5h0c0.3,0,0.6-0.2,0.7-0.5l1.8-4.3l0.9,7.8c0,0.4,0.4,0.7,0.9,0.7l8.1-0.6c0.2,0,0.4-0.1,0.6-0.3
		c0.1-0.2,0.2-0.4,0.2-0.6l-2.5-21.4c0-0.4-0.4-0.7-0.8-0.7l-7-0.4c-0.4,0-0.7,0.2-0.8,0.5l-2.1,5.9l-1.8-5.8
		c-0.1-0.3-0.4-0.6-0.8-0.6h-4.3c-0.4,0-0.7,0.3-0.8,0.7l-3.6,21.7C632.1,41,632.4,41.4,632.9,41.5z"/>
	<polygon class="st2" points="638.7,41.8 633,40.7 636.6,18.9 640.9,18.9 643.4,27 646.3,18.8 653.3,19.3 655.8,40.7 647.7,41.3 
		646.5,30.4 643.5,37.5 640.1,29.8 	"/>
	<path class="st6" d="M636,28.5c3.4,0.8,6.8,1.8,10.2,2.1c0.1,0,0.2,0,0.2,0l0.1-0.2l0,0.2c2.7,0.2,5.4-0.1,8-0.7l-1.2-10.6l-7-0.4
		l-2.9,8.2l-2.5-8.1h-4.3l-1.5,9.4C635.3,28.4,635.6,28.4,636,28.5z"/>
	<path class="st4" d="M653.3,19.3l-7-0.4l-2.9,8.2l-2.5-8.1h-4.3l-1,6.2l1.4-5.4h3.6l2.8,8.3l3.3-8.4l6.3,0.7c0,0,1.5,9.6,1.7,9.5
		L653.3,19.3z"/>
	<path class="st7" d="M634.8,40.3c0,0.2,0.4,0.4,1,0.5c0.3,0.1,0.6,0.2,1,0.2c0.2,0,0.3,0.1,0.5,0.1c0.2,0,0.2,0,0.6,0.1l0.7,0.1
		l0.5-5.8c0.1-1.3-0.2-1.5-0.4-1.5c-0.2,0-0.4-0.1-0.5,1.4l-0.4,4.9c-0.2,0-0.4-0.1-0.7-0.1c-0.3,0-0.7-0.1-1-0.1
		C635.4,40.2,634.8,40.2,634.8,40.3z M638.7,32.5c0.2,0,0.5,0.3,0.5,0.8c-0.1,0.6-0.5,0.4-0.6,0.2C638.3,32.8,638.5,32.5,638.7,32.5
		z"/>
	<path class="st7" d="M649.2,40.4c0,0.3,2.2,0.2,3.4,0l2.6-0.4l-0.4-4.6c-0.1-1.5-0.4-1.6-0.6-1.6c-0.2,0-0.4-0.1-0.2,1.7l0.3,3.8
		l-1.8,0.2C651.6,39.7,649.2,40.1,649.2,40.4z M654,32c0.1,0,0.6,0.2,0.6,0.8c0,0.6-0.4,0.6-0.5,0.3C653.7,32.4,653.9,32.1,654,32z"
		/>
</g>
<g>
	<path class="st0" d="M661.8,42.4c0.1,0.2,0.3,0.5,0.5,0.7c0.1,0.2,0.3,0.5,0.5,0.6c0.5,0.4,1.3,0.4,1.9,0.5
		c1.3,0.2,2.5,0.3,3.8,0.4c2.2,0.1,4.5,0.1,6.6-0.6c2.5-0.7,4.6-2.4,5.1-5.1c0.3-1.5,0.1-3-0.4-4.5c-0.4-1-0.9-1.8-1.6-2.6
		c-0.8-0.9-1.8-1.5-2.7-2.1c1.1-1.8,1.4-4,0.4-5.9c-1-1.8-2.7-2.9-4.3-4c-1.8-1.3-4.2-1.5-6.4-1.2c-0.6,0.1-1.2,0.2-1.8,0.4
		c-0.5,0.1-1.4,0.3-1.7,0.8c-0.1,0.2-0.1,0.4-0.1,0.5c0,1.7,0,3.3,0,5c0,5-0.1,10-0.1,14.9C661.4,41,661.2,41.8,661.8,42.4
		C661.8,42.5,661.7,42.3,661.8,42.4z M668.2,26.9c0-0.2,0-0.3,0-0.5c0.2,0,0.2,0,0.2,0.2C668.3,26.7,668.2,26.8,668.2,26.9z
		 M670.1,36.4c-0.1,0.5-0.7,0.8-1.1,1c0-0.5-0.1-1-0.1-1.6c0.3,0,0.6,0,0.8,0.1C670,36,670.3,36,670.1,36.4
		C670,36.8,670.2,36.3,670.1,36.4z"/>
	<path class="st1" d="M662,42.4c1.8,0.4,3.6,0.6,5.2,0.7c0.6,0,1.1,0.1,1.7,0.1c8,0,9.8-3.7,9.9-6.7c0.1-3.1-1.9-6.5-5.2-7.5
		c0.7-0.9,1.4-2.3,1.3-3.9c-0.1-1.9-1.3-3.7-3.6-5.2c-1.6-1.1-3.7-1.5-6.1-1.1c-1,0.1-2.1,0.4-3.2,0.8c-0.3,0.1-0.5,0.4-0.5,0.7
		l-0.2,21.5C661.4,42,661.6,42.3,662,42.4z M666.6,24.8c1.8,0.1,1.8,1,1.8,1.4c0,0.7-0.5,1.3-1.5,1.5L666.6,24.8z M670.1,36.4
		c-0.2,0.6-1.1,1.1-2.5,1.3c-0.1-1.1-0.2-2.2-0.3-3.4c0.9,0,1.6,0.2,2,0.5C669.9,35.1,670.3,35.8,670.1,36.4z"/>
	<path class="st2" d="M672.1,29.4c0,0,5.3-4.6-1.2-9c-1.6-1.1-3.5-1.3-5.6-1c-1,0.2-2,0.4-3,0.8c0,5.1-0.1,15.6-0.2,21.5
		c1.4,0.3,3.2,0.5,5.1,0.7c5,0.3,10.6-0.6,10.8-5.9C678.1,33.1,675.7,29.7,672.1,29.4z M669.1,26.2c0,1.7-1.7,2.3-3,2.5
		c-0.1-1.6-0.3-3.2-0.4-4.6C667.2,24,669.1,24.3,669.1,26.2z M666.9,38.5c-0.1-1.6-0.3-3.3-0.4-5c1.1-0.1,2.4,0,3.3,0.6
		C671.3,35.3,672.1,38.1,666.9,38.5z"/>
	<g class="st8">
		<path class="st2" d="M668.7,30.5c2.4-0.1,4.8,0,7.1,0.7c0,0,0,0,0.1,0c-1-1-2.3-1.7-3.8-1.8c0,0,5.3-4.6-1.2-9
			c-1.6-1.1-3.5-1.3-5.6-1c-1,0.2-2,0.4-3,0.8c0,2.7-0.1,6.9-0.1,11.2C664.4,30.9,666.5,30.6,668.7,30.5z M669.1,26.2
			c0,1.7-1.7,2.3-3,2.5c-0.1-1.6-0.3-3.2-0.4-4.6C667.2,24,669.1,24.3,669.1,26.2z"/>
	</g>
	<g>
		<path class="st9" d="M670.7,21.3c1.9,1.3,2.9,2.8,3,4.3c0.1,2.3-1.8,4-1.9,4l0,0c0.5,0,1.1,0.1,1.6,0.2c0.6,0.1,1.1,0.3,1.7,0.5
			c-0.8-0.6-1.8-1-2.9-1.1c0,0,5.3-4.6-1.2-9c-1.6-1.1-3.5-1.3-5.6-1c-1,0.2-2,0.4-3,0.8c0,1.8,0,4.3-0.1,7c0,1.3,0.5-6.1,0.5-6.1
			c0.9-0.3,1.8-0.5,2.7-0.7c0.5-0.1,1.1-0.1,1.6-0.1C668.4,20.3,669.7,20.6,670.7,21.3z"/>
	</g>
	<g>
		<path class="st9" d="M668.6,24.9c0.3,0.3,0.5,0.8,0.5,1.4c0,1.7-1.7,2.3-3,2.5c-0.1-1.6-0.3-3.1-0.4-4.4h0l0.2,4.8l0.5-0.1
			c2.2-0.3,2.9-1.1,2.9-2.6C669.3,25.8,669.1,25.4,668.6,24.9z"/>
	</g>
	<path class="st6" d="M664.1,41.1c0,0.1,0.2,0.2,0.5,0.3c0.2,0.1,0.4,0.1,0.6,0.2c0.2,0.1,0.5,0.1,0.7,0.2c0.5,0.1,1.1,0.2,1.7,0.2
		c0.3,0,0.6,0,0.8,0c0.3,0,0.5,0,0.7,0c0.9,0,2.8-0.2,4.6-0.8c0.5-0.2,0.9-0.4,1.4-0.7c0.4-0.3,0.8-0.6,1.1-1c0.6-0.7,0.9-1.5,1-2.1
		c0.1-0.6,0.2-1,0.1-1.4c0-0.3-0.1-0.6-0.1-0.8c-0.1-0.3-0.2-0.4-0.3-0.4c-0.1,0-0.2,0-0.2,0.2c0,0.2,0,0.4-0.1,0.7
		c0,0.3-0.1,0.8-0.2,1.4c-0.1,0.6-0.4,1.3-0.9,1.9c-0.2,0.3-0.6,0.5-0.9,0.8c-0.3,0.2-0.7,0.4-1.1,0.5c-1.6,0.6-3.3,0.8-4.5,0.8
		c-0.3,0-0.8,0-1.3,0c-0.3,0-0.5,0-0.8,0c-0.3,0-0.6,0-0.8,0c-0.5,0-1-0.1-1.4-0.1C664.3,41,664.1,41,664.1,41.1z M676,32.2
		c0.1-0.1,0.6,0.1,1,1.1c0.1,0.5,0.1,0.7,0,0.8c-0.1,0.1-0.3,0-0.4-0.2c-0.3-0.5-0.5-0.9-0.6-1.1C676,32.5,676,32.3,676,32.2z"/>
</g>
<g>
	<path class="st0" d="M684.7,17.9c-0.3,0.3-0.2,0.8-0.2,1.1c0,0.6,0,1.2,0,1.8c0,1.1,0,2.2,0.1,3.3c0,0.3,0.1,0.5,0.3,0.7
		c0.3,0.4,0.6,1.1,1,1.4c0.5,0.4,1.3,0.2,1.8,0.2c0.3,0,0.3,0,0.3,0.3c0,0.4,0,0.9,0.1,1.4c0.1,2.3,0.2,4.6,0.3,6.9
		c0,0.2-0.6,0.1-0.8,0.1c-0.5,0-1.1,0.1-1.6,0.1c-0.7,0-0.7,0.6-0.7,1.2c0.1,0.5,0.1,1.1,0.2,1.6c0.1,1.1,0.3,2.3,0.4,3.4
		c0,0.3,0.2,0.4,0.3,0.7c0.2,0.2,0.3,0.5,0.5,0.7c0.2,0.2,0.3,0.5,0.5,0.7c0.4,0.3,0.8,0.2,1.2,0.2c2.4-0.3,4.8-0.6,7.2-1
		c0.6-0.1,1.3-0.1,1.9-0.3c0.9-0.4,0.6-1.9,0.6-2.7c0-1,0-2-0.1-2.9c0-0.8-0.8-1-1.3-1.5c-0.2-0.2-0.7-0.6-1-0.5c-0.2,0-0.4,0-0.6,0
		c0.1-2.1,0.1-4.2,0.2-6.4c0-0.5,0-1,0.1-1.5c0-0.1-0.1-0.5,0.1-0.5c0.6,0,1.1,0,1.7,0c0.7,0,1.1-0.6,1.1-1.3c0-1.1,0-2.2-0.1-3.3
		c0-0.6,0-1.2,0-1.8c0-0.4,0-0.8-0.2-1.1c-0.1-0.2-1.6-1.3-2-1.4c-0.2,0-0.4,0-0.6,0c-1.1,0-2.2,0-3.2,0c-1.6,0-3.1,0-4.7,0
		c-0.5,0-1.1,0-1.6,0C685.4,17.7,685,17.6,684.7,17.9C684.6,18,684.9,17.7,684.7,17.9z"/>
	<path class="st1" d="M684.7,17.9c-0.1,0.1-0.2,0.3-0.2,0.5l0.1,5.7c0,0.4,0.3,0.8,0.8,0.8h2.6l0.4,10.2l-2.4,0.1
		c-0.2,0-0.4,0.1-0.5,0.3c-0.1,0.2-0.2,0.4-0.2,0.6l0.6,5.4c0,0.2,0.1,0.4,0.3,0.5c0.1,0.1,0.3,0.2,0.5,0.2c0,0,0.1,0,0.1,0l9.1-1.2
		c0.4,0,0.7-0.4,0.7-0.8l-0.1-4.7c0-0.2-0.1-0.4-0.2-0.5c-0.2-0.1-0.4-0.2-0.6-0.2l-2.2,0.1l0.3-9.9h2.1h0c0.4,0,0.8-0.3,0.8-0.8
		c0,0,0-0.1,0-0.1l-0.1-5.7c0-0.4-0.3-0.8-0.8-0.8l-10.5,0.1C685.1,17.7,684.9,17.7,684.7,17.9z"/>
	<polygon class="st2" points="692.7,35.7 693.1,24.2 695.9,24.2 695.8,18.3 685.3,18.4 685.4,24.2 688.7,24.2 689.2,35.8 686.1,36 
		686.7,41.4 695.8,40.2 695.7,35.5 	"/>
	<g class="st3">
		<path class="st2" d="M688.7,24.2l0.2,4.6c1.3,0.1,2.6,0.2,4,0.3l0.2-4.9h2.8l-0.1-5.8l-10.5,0.1l0.1,5.7H688.7z"/>
	</g>
	<g>
		<polygon class="st4" points="685.8,19.2 695.7,19.1 695.9,21.2 695.8,18.3 685.3,18.4 685.4,22.4 		"/>
	</g>
	<polygon class="st4" points="689.2,35 689.4,36.2 686.5,36.5 686.6,40.1 686.1,36 689.2,35.8 	"/>
	<polygon class="st4" points="692.7,35 692.6,35.9 695.6,35.9 695.8,39.9 695.7,35.5 692.7,35.6 	"/>
	<path class="st5" d="M687.1,40.7c0,0.3,1.8,0.2,2.7,0c0.9-0.1,3.9-0.6,5-0.8c0.2,0,0.5-0.1,0.7-0.1c0-0.2,0-0.4,0-0.6
		c0-0.1,0-0.1,0-0.2c0,0,0-0.1,0-0.1c0-0.1-0.1-0.2-0.1-0.3c-0.1-0.1-0.2-0.2-0.3-0.2c-0.1,0-0.1,0-0.2,0.1c0,0.1-0.1,0.1-0.1,0.3
		c0,0.1,0,0.2,0,0.3c0,0,0,0,0,0c0,0,0,0,0,0c-1.4,0.2-3.8,0.6-5,0.8C689,40,687,40.4,687.1,40.7z M695,37c0.1,0,0.5,0.2,0.5,0.7
		c0,0.5-0.4,0.4-0.5,0.2C694.7,37.3,694.9,37,695,37z"/>
</g>
<g>
	<path class="st0" d="M706.5,40.7c0.1,0.2,0.3,0.5,0.5,0.7c0.1,0.2,0.3,0.5,0.5,0.7c0.2,0.3,0.5,0.4,0.9,0.4c0.2,0,0.5,0,0.7,0
		c1.2,0,2.3,0,3.5,0c2.4,0,4.8,0,7.3,0c0.4,0,0.8,0,1.1-0.4c0.4-0.4,0.3-0.9,0.3-1.4c0-1.3,0.1-2.5,0.1-3.8c0-0.2,0-0.4-0.1-0.5
		c-0.2-0.5-0.7-0.7-1.1-1c-0.5-0.4-1-0.7-1.6-0.7c-0.7,0-1.3,0-2,0c-0.2,0-0.5,0-0.7,0c-0.2,0-0.1-0.3-0.1-0.5c0-0.1,0-0.3,0-0.4
		c1.1,0,2.2,0.1,3.3,0.1c0.4,0,0.9,0.1,1.2,0c0.6-0.2,0.7-0.8,0.8-1.4c0.1-1.3,0.2-2.5,0.4-3.8c0-0.2,0-0.3,0-0.5
		c-0.1-0.6-0.5-0.7-0.9-1c-0.3-0.3-0.7-0.5-1-0.7c-0.2-0.2-0.5-0.2-0.7-0.2c-0.6,0-1.3,0-1.9-0.1c-0.2,0-1.1,0.1-1.1-0.1
		c0-0.1,0-0.6,0-0.6c0.1,0,0.3,0,0.4,0c0.6,0,1.2,0,1.8,0c1,0,2.1,0.1,3.2,0c1.4-0.2,1-2,1-2.9c0-1.3,0-2.6-0.1-3.8
		c0-0.6-0.2-1-0.7-1.4c-0.3-0.2-0.7-0.5-1-0.7c-0.3-0.2-0.5-0.3-0.8-0.3c-1.9,0.2-3.8,0.3-5.7,0.5c-2.6,0.2-5.3,0.4-7.9,0.7
		c-0.5,0-1.5,0-1.8,0.5c-0.2,0.4-0.1,1,0,1.4c0.5,5.1,1,10.2,1.5,15.3c0.1,1.3,0.3,2.6,0.4,3.9C706.2,39.3,706.1,40.3,706.5,40.7
		C706.6,40.8,706.4,40.6,706.5,40.7z"/>
	<path class="st1" d="M707.1,41h11.7c0.4,0,0.8-0.3,0.8-0.8l0.1-4.6c0-0.2-0.1-0.4-0.2-0.6c-0.1-0.2-0.3-0.2-0.6-0.2l-4.7-0.1
		l-0.1-2.4l4.5,0.2c0.4,0,0.8-0.3,0.8-0.7l0.4-4.4c0-0.2,0-0.4-0.2-0.6c-0.1-0.2-0.4-0.3-0.6-0.3l-4.9-0.2V24h5.6
		c0.2,0,0.4-0.1,0.6-0.2c0.1-0.2,0.2-0.4,0.2-0.6l-0.1-6c0-0.2-0.1-0.4-0.3-0.6c-0.2-0.2-0.4-0.2-0.6-0.2l-14.8,1.3
		c-0.2,0-0.4,0.1-0.5,0.3c-0.1,0.2-0.2,0.4-0.2,0.6l2.1,21.7C706.3,40.6,706.7,41,707.1,41z"/>
	<polygon class="st2" points="719.8,17.2 719.9,23.2 713.5,23.2 713.5,27 719.2,27.2 718.7,31.6 713.4,31.4 713.5,35.5 719,35.6 
		718.9,40.2 707.1,40.2 705,18.5 	"/>
	<path class="st6" d="M707,31.4c1.8,0.2,3.5,0.3,5.4,0c1.3-0.2,2.7-0.5,4.4-1.1c0.7-0.2,1.5-0.5,2.1-0.7l0.2-2.4l-5.7-0.2v-3.8h6.4
		l-0.1-6L705,18.5l1.3,12.9C706.5,31.4,706.7,31.4,707,31.4z"/>
	<path class="st4" d="M713.3,27.3l5.6,0.3c0,0,0,0.7,0.1,2l0.2-2.4l-5.7-0.2v-3.7L713.3,27.3z"/>
	<polygon class="st4" points="705.6,19.3 719.3,18 719.9,23.2 719.8,17.2 705,18.5 705.8,26.6 	"/>
	<polygon class="st4" points="713.4,31.4 713.5,35.5 719,35.6 718.9,37.4 718.6,36 713.1,35.8 	"/>
	<path class="st6" d="M717.8,39.9c0-0.3-2.7-0.6-4.1-0.7l-5.3-0.3l-0.1-1.8c-0.1-1.8-0.5-2-0.6-2c-0.2,0-0.4-0.1-0.2,2l0.2,2.5
		l6,0.4C714.7,40.1,717.8,40.2,717.8,39.9z M707.5,32.8c0.1-0.1,0.6,0.2,0.6,1c0,0.8-0.4,0.7-0.5,0.4
		C707.1,33.3,707.3,32.8,707.5,32.8z"/>
</g>
</svg>
