<?xml version="1.0" encoding="utf-8"?>
<!-- Generator: Adobe Illustrator 24.0.2, SVG Export Plug-In . SVG Version: 6.00 Build 0)  -->
<svg version="1.1" id="Capa_1" xmlns="http://www.w3.org/2000/svg" xmlns:xlink="http://www.w3.org/1999/xlink" x="0px" y="0px"
	 viewBox="0 0 544.9 500.2" style="enable-background:new 0 0 544.9 500.2;" xml:space="preserve">
<style type="text/css">
	.st0{fill:#F7EC6A;}
	.st1{fill:#362E17;}
	.st2{fill:#964515;}
	.st3{fill:#F2B006;}
	.st4{fill:#FFFFFF;}
	.st5{opacity:0.8;fill:#F2B006;}
	.st6{fill:none;stroke:#362E17;stroke-width:15;stroke-miterlimit:10;}
	.st7{fill:none;stroke:#964515;stroke-width:12;stroke-miterlimit:10;}
	.st8{fill:none;stroke:#F2B006;stroke-width:9;stroke-miterlimit:10;}
</style>
<path class="st0" d="M258.9,429c-1.6,1.3-4.8,4-5.4,8.9c-0.5,4.1,1.2,7.3,1.7,8.3c82.1-4.8,164.1-9.6,246.2-14.4
	c-0.7-23.6-1.5-47.1-2.2-70.7c-3.9,18.5-7.8,37.1-11.8,55.6c-149.3,7.6-200.6,9.2-207,8.4c-5.1-0.7-7.8-0.2-13.1,0.6
	C263.4,426.3,261.2,427.1,258.9,429z"/>
<path class="st0" d="M236.3,436.4c0.5,0.2,1,0.4,1.5,0.6c7.4,3.3,5.6,9.3-2.2,10.7c-11.8,2.2-14.1-9-10.6-11.5
	C227.5,434.6,232.1,434.8,236.3,436.4z"/>
<path class="st1" d="M505.6,271.8c-5.3,1.9-176.7,5.6-407.6,9.1c-9.3,1.4-23.5,1.6-39.4-6.4c-2.1-1-3.7-2-4.9-2.7
	c-12.3-7.5-34.1-27.4-34.3-46.3c-0.1-11.6,9.7-27,10.1-35.3c0-0.3,0.1-2.3,0.3-5c0.3-3.9,0.8-6.3,1.6-15.8c1.9-23,0.6-28.5,2.8-35.4
	c1.6-5,5-10.5,12.8-11.5c282.4,104.6,386.3,67.3,422.8,0.2c19-34.9,28.3-93.8,39.2-91.1c17.1,4.3,9.3,153.1,12,193
	c0.2,2.5,0.6,11-0.9,21.8c-0.5,3.9-1.6,11.5-4.4,17.2C515.7,263.5,512.7,269.3,505.6,271.8z"/>
<path class="st1" d="M511.4,483.6c-128.7,1.8-257.3,3.6-386,5.4c-2.2-0.2-5.6-1-8.7-3.9c-5.8-5.3-7.2-14.5-7.8-18.9
	c-5.7-40.7-7.3-79.6-7.3-79.7c0,0,0,0,0,0c-4-82.3-5.9-126.1,6.5-172.7c1.3-5,3.7-13.4,7.5-23.7c235.5,50,336,39.2,365,0.3
	c4.4-5.9,25.4-36.8,35.5,13.8c5.4,26.7,6.5,80,8.7,186.5c0.1,6.6,0.4,23.3-0.8,42.9c-0.5,7.6-1.4,22.5-3.8,33.7
	C520.1,467.3,517,483.5,511.4,483.6z"/>
<path class="st2" d="M124.6,471.1c-3.6-3.9-4.1-10.4-4.4-13.3c-5.4-75.1-5.7-157.2-5.7-157.2c0-12.2-0.4-31.5-2.2-55.5
	c-24.3-0.3-48.5-0.6-72.8-0.9c-1-0.4-2.4-0.9-4.1-1.7c-3-1.5-8.5-4.1-12-8.4c-5.4-6.7-5.7-17.4-5.7-21.4
	c-1.1-94.6-2.3-161.9-3.6-172.5c-0.2-1.4-1-7.2,1.4-11.2c0.5-0.8,2.5-3.9,7.8-4.4c15.1-1.4,227.7,1.6,245.3,1.8
	c6.5,0.1,208,1.5,229.6,0.9c1.6-0.1,7-0.3,10.7,4.3c3.7,4.7,4.2,12.4,3.7,19.4c-0.9,119.4-0.2,187.2,0.7,227.8
	c0.2,7,0.8,32.1,1.4,66.8c0.6,32.7,1,65.1,1.3,97.2c-0.9,5.2-2.8,12.3-7.4,17.3c-5,5.6-11,6.2-13.1,6.4
	c-12.4,1.3-159.6,4.4-360.6,7.7C132.2,474.6,127.8,474.6,124.6,471.1z"/>
<path class="st2" d="M504.5,458.9c-6,7.6-15.1,7.3-17.9,7.2c-14.1-0.2-160.4,2.1-362,5c-2-16.9-4.5-42.7-5.7-75.1
	c-0.2-5.2-0.3-8.9-0.4-16c-0.5-21-0.8-42.7-1.9-104.9c-1.1-62-1.3-75.2-0.9-89.7c0.7-24.8,2.6-28.1,3.5-28.6
	c127.3,0,388.6,57.9,388.5,72.4c-0.7,59.5,2.6,215.7,1.7,218.4C508.7,450.8,507.4,455.2,504.5,458.9z"/>
<path class="st3" d="M133.5,457.5c124.4-5.6,248.8-11.3,373.2-16.9c-1-130.8-2-261.7-3-392.5c-126.3,0.4-252.7,0.9-379,1.3
	C127.5,185.4,130.5,321.5,133.5,457.5z"/>
<path class="st4" d="M30.9,222.4c30.7,0.1,61.3,0.1,92,0.2c3.5,78.1,7.1,156.2,10.6,234.3c1.2-83.7,2.5-167.4,3.7-251.1
	c119.7-29,239.4-58.1,359.1-87.1C340,94.2,183.7,69.8,27.4,45.4C28.6,104.4,29.7,163.4,30.9,222.4z"/>
<path class="st3" d="M38.1,204.7c155.1,4.1,310.3,8.2,465.4,12.2c-2.4-32.8-4.7-65.5-7.1-98.3c-154.4,2.3-308.7,4.6-463.1,7
	C34.8,152,36.5,178.4,38.1,204.7z"/>
<path class="st3" d="M33.3,144.9c156.6,27.6,313.3,55.2,469.9,82.7c-1.5-58.5-3.1-117-4.6-175.5c-157.1-2.3-314.1-4.5-471.2-6.8
	C29.4,78.6,31.4,111.7,33.3,144.9z"/>
<path class="st5" d="M35,207c34.2,1.7,68.4,3.5,102.6,5.2c-1.4,81.5-2.7,163.1-4.1,244.6c27.7-1.4,55.5-2.8,83.2-4.2
	c-3.9-62.7-3.5-164.6,29-277.5C260.4,124,278.4,82,295.3,48.8c-89.3-1.2-178.6-2.3-267.9-3.5C29.9,99.3,32.5,153.2,35,207z"/>
<g>
	<path class="st1" d="M369.1,131.9c-0.5-0.6-1.4-1.4-2.4-2.4c-2.2-2-3.8-2.7-3.3-3.4c0.8-0.9,1.5-1.8,2.3-2.7c3-3.6,6-7.2,9-10.8
		c1.1-1.3,2.2-2.7,3.4-4c0.2-0.3,0.4-0.5,0.7-0.8c0.8-1,0.2-2.5-0.1-3.7c-0.2-0.7-0.2-1.5-0.9-2c-0.1-0.1-0.2-0.2-0.3-0.2
		c-0.7-0.5-1.4-1-2.2-1.5c-2.2-1.5-4.3-3-6.4-4.5c-1-0.7-3.3-2.9-4.3-1.3c-0.4,0.6-0.8,1.2-1.1,1.8c-2.1,3.4-4.2,6.8-6.2,10.2
		c-3.9,6.4-7.8,12.9-11.8,19.3c0,0.1-0.1,0.2-0.1,0.3C345.2,126.7,364.8,135.6,369.1,131.9z"/>
	<path class="st6" d="M363.6,128.2c33.5,0.3,66.9,0.6,100.4,0.8c-0.1-12-0.3-23.9-0.4-35.9"/>
	<path class="st1" d="M356.1,110.7c3.7,3.3,9.4,2.6,9.6,4.4c0,0.2-0.2,0.3-2,2.7c-0.3,0.4-2.9,3.7-2.7,3.9c1,0.8,2,1.7,3,2.5
		c4,3.3,7.9,6.7,11.9,10c1.5,1.2,2.9,2.5,4.4,3.7c0.3,0.2,0.6,0.5,0.9,0.7c1.1,0.9,0.8,2.6,0.7,3.8c0,0.7,0.1,1.6-0.5,2.2
		c-0.1,0.1-0.2,0.2-0.3,0.3c-0.6,0.6-1.3,1.2-1.9,1.8c-1.9,1.8-3.8,3.6-5.7,5.4c-0.9,0.9-2.8,3.3-4.2,1.8c-0.5-0.6-1.1-1.2-1.6-1.8
		c-1.2-1.3-6-6.6-8.8-9.7c-2.4-2.7-6.2-7.3-11.7-15.7c3-8,6.7-16.7,8.7-16.2C356,110.6,356,110.6,356.1,110.7z"/>
	<path class="st7" d="M360.7,125c34.4,0.3,68.9,0.5,103.3,0.8c-0.1-10.9-0.3-21.7-0.4-32.6"/>
	<path class="st2" d="M364,95.6c0.1,5.7-1.6,8.6-3.1,10.2c-1.2,1.2-2.9,2.3-2.7,3.3c0.2,0.9,2,1.2,3.5,1.4c0,0,4.2,1.4,4.6,3
		c0,0.2,0,0.4,0,0.4c0,0.3-0.1,0.5-0.3,0.7l-6.6,9.1l22.1,18.5c0.3,0.3,0.5,0.7,0.5,1.1c0,0.4-0.2,0.8-0.5,1.1l-10,9.4
		c-0.3,0.3-0.7,0.4-1.1,0.4c-0.4,0-0.8-0.2-1-0.5c-8.5-8.9-16.9-17.8-25.4-26.7C350.7,116.7,357.4,106.1,364,95.6z"/>
	<path class="st3" d="M370.5,152.9l10-9.4l-23.2-19.4l7.5-10.3c-6.1,4.4-12.1,8.8-18.2,13.1C354.6,135.6,362.5,144.3,370.5,152.9z"
		/>
	<path class="st5" d="M364.7,130.2l15.9,13.3l-10,9.4c-4.3-4.6-8.5-9.3-12.8-13.9c0.5-1.3,1.4-3.2,2.9-5.1
		C362.1,132.2,363.5,131,364.7,130.2z"/>
	<path class="st4" d="M380.5,143.5l-10,9.4c-5.2-5.6-7.8-8.5-7.7-8.6c0.1-0.1,2.3,2.1,6.8,6.6l9.2-8l-21.8-19l6.5-10.3l-4.2-3.5
		l5.5,3.5c0,0-7.6,10.4-7.5,10.3L380.5,143.5z"/>
	<path class="st2" d="M361.4,124.3l16.8-20c0.2-0.3,0.3-0.7,0.3-1.1c-0.1-0.4-0.3-0.8-0.7-1l-11.3-7.8c-0.3-0.2-0.7-0.3-1.1-0.3
		c-0.4,0.1-0.7,0.3-0.9,0.6l-19.2,31.5c-0.3,0.5-0.2,1.2,0.2,1.7l13,14.2c0,0,0,0,0,0c0,0,3.5-3.4,10.5-10.1
		C366.5,129.4,364,126.8,361.4,124.3z"/>
	<polygon class="st3" points="365.8,95.5 377.1,103.3 359.5,124.3 368.5,133.2 359.6,141.1 346.6,126.9 	"/>
	<path class="st5" d="M365,117.7l12-14.4l-11.3-7.8l-10,16.5C359,113.5,362.2,115.5,365,117.7z"/>
	<path class="st4" d="M377.1,103.3l-11.3-7.8l-3.5,5.8l3.1-3.8l10.1,6.5l-16.4,20.4c6.6,6.8,13.2,13.6,19.8,20.4
		c0.5-0.4,1.1-0.9,1.6-1.3c-14.1-12.8-21.1-19.2-21.1-19.2c0,0,0,0,0,0L377.1,103.3z"/>
	<path class="st5" d="M356.1,135.9c0.4-0.3-2.4-3.9-4-5.7l-3-3.4l3.6-5.8c1.5-2.3,1.2-2.9,0.9-3.1c-0.2-0.2-0.4-0.6-2.2,2.2
		l-4.2,6.7l3.8,4.3C352.1,132.4,355.7,136.2,356.1,135.9z M355.4,114.9c0.3,0.1,0.6,1-0.1,2c-0.7,1-1.2,0.4-1.1-0.1
		C354.5,115.1,355.2,114.8,355.4,114.9z"/>
	<path class="st8" d="M358.1,124.8c35.2,0.3,70.4,0.5,105.7,0.8c-0.1-10.2-0.2-20.4-0.4-30.6"/>
</g>
</svg>
