<?xml version="1.0" encoding="utf-8"?>
<!-- Generator: Adobe Illustrator 24.0.2, SVG Export Plug-In . SVG Version: 6.00 Build 0)  -->
<svg version="1.1" id="Capa_1" xmlns="http://www.w3.org/2000/svg" xmlns:xlink="http://www.w3.org/1999/xlink" x="0px" y="0px"
	 viewBox="0 0 239.1 85" style="enable-background:new 0 0 239.1 85;" xml:space="preserve">
<style type="text/css">
	.st0{fill:#352E16;}
	.st1{fill:#954415;}
	.st2{fill:#F1AF02;}
	.st3{opacity:0.8;fill:#F1AF02;}
	.st4{fill:#FFFFFF;}
</style>
<g>
	<path class="st0" d="M116.2,77.7c1.2,2.1,5,1.6,7.1,1.7c3.8,0.2,7.7,0.4,11.5,0.6c1.4,0.1,2.8,0.2,4.2,0.2c1.2,0.1,2.3,0.2,3.3-0.7
		c1-0.9,1-2.1,1-3.3c0.1-1.5,0.1-3.1,0.2-4.6c0.2-4.3,0.4-8.6,0.5-12.8c0.3,0,1-0.1,1.1,0.2c0.1,0.4,0.1,0.9,0.2,1.3
		c0.2,1.7,0.4,3.4,0.6,5.1c0.2,1.9,0.4,3.7,0.6,5.6c0.1,0.9,0.1,1.9,0.3,2.8c0.2,0.6,0.6,1,0.9,1.5c0.7,1,1.5,2,1.8,2.4
		c1.3,1.6,2.1,2.1,3.6,2c3.3-0.2,6.6-0.4,9.8-0.6c2.6-0.2,5.2-0.3,7.8-0.5c1.9-0.1,3.2-2,2.7-3.9c-0.1-0.4-0.2-0.8-0.3-1.1
		c-1.3-4.9-2.5-9.8-3.8-14.7c-3.7-14.1-7.3-28.3-11-42.4c-0.5-1.8-0.9-3.6-1.4-5.3c-0.1-0.3-0.2-0.6-0.2-0.9c-0.4-1.4-1.6-2-2.7-2.8
		c-1-0.7-2.4-2.1-3.7-2.1c-0.8,0-1.5,0-2.3-0.1c-3.5-0.1-7-0.2-10.5-0.2c-3.5-0.1-7.1-0.2-10.6-0.2c-1.7,0-4.4-0.5-4.7,1.9
		c-0.5,3.8-1,7.6-1.5,11.3c-2,14.7-4,29.5-6,44.2c-0.4,2.9-0.8,5.9-1.2,8.8c-0.1,0.5-0.1,0.9-0.2,1.4c-0.2,1.1,0.7,2.1,1.3,2.9
		C115.1,76.1,115.6,76.9,116.2,77.7z"/>
	<path class="st1" d="M115.2,74.8l21.4,1.2c0,0,0.1,0,0.1,0c0.5,0,1.1-0.2,1.5-0.6c0.4-0.4,0.7-0.9,0.7-1.5l0.8-19.5l4.9,0.4
		l2.1,18.7c0.1,1.1,1.1,2,2.3,1.9l18.2-1.2c0.7,0,1.2-0.4,1.6-0.9c0.4-0.5,0.5-1.2,0.3-1.8L152.4,6.9c-0.2-0.9-1.1-1.6-2-1.6
		l-26-0.6c-1.1,0-2,0.8-2.2,1.9l-9,65.8c-0.1,0.6,0.1,1.2,0.5,1.7C114,74.5,114.6,74.8,115.2,74.8z M142.4,35.8l-1.9,0l0.4-8.5h0.6
		L142.4,35.8z"/>
	<path class="st2" d="M148.8,73.2l18.2-1.2L150.3,7.5l-26-0.6l-9,65.8l21.4,1.2l0.9-21.8l8.9,0.7L148.8,73.2z M138.2,37.8l0.5-12.8
		h4.6l1.5,12.9L138.2,37.8z"/>
	<path class="st3" d="M123.2,46.6c2.2,0.8,8.2,2.3,12.2,3.1c2.3,0.4,4.5,0.8,6.8,1c0.9,0.1,1.8,0.2,2.7,0.3c0.3,0,0.4,0,0.6,0.1
		c0.2,0,0.4,0,0.7,0c5.1,0.2,10.2-0.1,15.2-0.6L150.3,7.5l-26-0.6L119.1,45C120.4,45.5,121.8,46.1,123.2,46.6z M138.7,25.1h4.6
		l1.5,12.9l-6.6-0.1L138.7,25.1z"/>
	<polygon class="st4" points="143.4,25.5 144.8,38 138.2,37.8 138.7,25.5 137.7,39.1 145.4,39.3 	"/>
	<path class="st4" d="M125.4,10l23.9,0.5c0,0,7.6,24.8,8.2,24.8l-7.2-27.8l-26-0.6l-3.9,28.6C120.8,35.7,125.4,10,125.4,10z"/>
	<path class="st3" d="M121.3,70.7c-0.1,0.9,5.3,1.5,8.1,1.6c0.7,0,1.8,0,3.1,0.1c0.3,0,0.7,0,1,0c0.2,0,0.4,0,0.5,0h0.3
		c0.1,0,0.2,0,0.4,0l0.1,0l0.1,0c0.1,0,0.3-0.1,0.4-0.2c0-0.1,0.1,0.1,0.4-0.6c-0.1-0.4-0.1-2.3-1.1-0.3l0.1,0l0.1-0.1
		c0.1-0.1,0.1-0.1,0.4-0.2c0.2-0.1,0.5-0.2,0.5-0.1c0,0.1,0.1,0.2,0.1,0.3v-0.1v-0.2l0-0.5c0-0.4,0-0.7,0.1-1.1
		c0.2-3,0.4-6.1,0.5-7.9c0.2-3.6-0.6-4-1.1-4.1c-0.4-0.1-1-0.3-1.2,3.9c-0.1,2.1-0.3,5-0.5,7.8c0,0.7-0.1,1.4-0.1,2.2v0
		c0,0,0,0.1,0,0.2c0,0.1,0.1,0.3,0.1,0.4c0.1,0.2,0.1,0.1,0.1,0.2c0.4-0.3-0.9,0.6,0.9-0.6l0,0c0,0,0,0,0,0c0,0,0-0.1,0-0.2
		l-0.1-0.6c0-0.3,0-0.2,0-0.2h0h0l-0.1,0h-0.5c-0.3,0-0.7,0-1,0c-1.3,0-2.5-0.1-3.4-0.1C127.4,70,121.4,69.9,121.3,70.7z
		 M135.3,52.6c0.4-0.1,1.5,0.6,1.4,2.2c-0.1,1.6-1.2,1.3-1.5,0.6C134.3,53.4,134.9,52.7,135.3,52.6z"/>
	<path class="st3" d="M150,71.6c0,0.9,5.6,0.8,8.6,0.6c0.8-0.1,1.9-0.2,3.3-0.3c0.8-0.1,1.7-0.1,2.6-0.2c0.4,0,0.8-0.1,1.1-0.1
		l0.6,0c0-0.1-0.1-0.4-0.1-0.5c-0.2-0.7-0.4-1.5-0.5-2.2c-0.8-3.1-1.6-6.3-2.1-8.1c-1-3.6-1.9-3.8-2.3-3.7c-0.4,0.1-1,0,0.1,4.3
		c0.6,2.1,1.3,5.1,2,8l0.1,0.2c0,0,0,0,0,0c-0.5,0-0.9,0.1-1.4,0.1c-1.4,0.1-2.6,0.2-3.6,0.3C156.3,70,149.9,70.7,150,71.6z
		 M159.9,52.5c0.4-0.2,1.6,0.2,2,1.8c0.4,1.6-0.7,1.7-1.2,1.1C159.1,53.7,159.5,52.7,159.9,52.5z"/>
</g>
<g>
	<path class="st0" d="M112,78.1c3.6,0,3.1-4.5,3.2-6.9c0.2-3.8,0.3-7.6,0.5-11.4c0.1-1.1,0.1-2.2,0.2-3.4c0.1-2.3-1.6-2.9-3.1-4.1
		c-1.2-1-2.5-1.9-4.1-1.9c-1.6,0-3.3,0.1-4.9,0.1c-0.6,0-6.8,0.4-6.8-0.1c-0.2-1.9-0.3-3.8-0.5-5.7c-0.7-7.5-1.3-15-1.9-22.5
		c-0.2-2.8-0.5-5.6-0.7-8.4c0-0.5-0.1-1.1-0.1-1.6c-0.2-2-2.4-3.1-4-4.1c-0.9-0.6-1.8-1.5-3-1.3c-0.2,0-0.4,0.1-0.6,0.1
		c-1.3,0.3-2.5,0.5-3.8,0.8c-3.7,0.8-7.5,1.5-11.2,2.3c-1.8,0.4-6.3,0.5-5.7,3.4c0.3,1.1,0.5,2.2,0.8,3.4c1.4,6.2,2.8,12.4,4.2,18.6
		c2.7,11.7,5.3,23.5,8,35.2c0,0.1,0.1,0.3,0.1,0.4c0.2,0.6,0.8,1.2,1.2,1.8c0.5,0.7,1,1.6,1.6,2.3c0.7,1.3,1.9,1.6,3.2,1.7
		c2.8,0.1,5.6,0.2,8.4,0.3c6.3,0.3,12.6,0.5,18.8,0.8C111.8,78.1,111.9,78.1,112,78.1z"/>
	<path class="st1" d="M108.6,73.8c1.2,0,2.1-0.9,2.2-2.1l0.9-19c0-0.6-0.2-1.2-0.6-1.6c-0.4-0.4-1-0.7-1.6-0.7l-16.5,0.3L89.3,8.9
		c-0.1-0.6-0.4-1.2-0.9-1.5c-0.5-0.4-1.1-0.5-1.7-0.4l-19.7,4c-0.6,0.1-1.1,0.5-1.4,1c-0.3,0.5-0.4,1.1-0.3,1.7l13,57.4
		c0.2,1,1,1.7,2,1.7L108.6,73.8C108.5,73.8,108.5,73.8,108.6,73.8z"/>
	<polygon class="st2" points="67.5,13.1 87.2,9.1 90.9,52.9 109.4,52.6 108.6,71.6 80.5,70.5 	"/>
	<path class="st3" d="M89.7,39l-2.6-30l-19.7,4l6.8,30C79.3,41.1,84.6,39.9,89.7,39z"/>
	<path class="st4" d="M87.2,9.1l-19.7,4l2.4,10.5l-0.8-7.8l17.2-4.2l4.4,41.8l17.7,0.9l0.7,7.9l0.4-9.5c0,0-18.7,0.3-18.5,0.3
		L87.2,9.1z"/>
	<path class="st3" d="M99.5,69.8c0.1-0.9-6.5-1.6-10.1-1.9l-6.5-0.4l-2.2-10.7c-0.9-4.3-1.9-4.6-2.3-4.6c-0.4,0-1-0.1,0.1,5.1
		L81,69.7l8.3,0.5C91.8,70.3,99.4,70.6,99.5,69.8z M77,46.8c0.4-0.2,1.6,0.4,2,2.3c0.4,1.9-0.7,1.8-1.3,1.1
		C76.3,48.1,76.6,47,77,46.8z"/>
</g>
<g>
	<path class="st0" d="M52.4,12.1c-2.6-1.8-5.2-3.7-8.1-5c-3-1.3-6.2-2.1-9.4-2.5c-7.3-0.9-14.8,0.2-21.6,3c-2.1,0.9-1.7,2.5-1.5,4.3
		c0.2,2.2,0.5,4.3,0.7,6.5c1.6,14.7,3.3,29.3,4.9,44c0.4,4,0.9,8,1.3,12c0,0.1,0,0.1,0,0.2c0.1,0.7,0.6,1.5,1.1,1.9
		c0.4,0.8,1.1,1.6,1.6,2.3c1.2,1.7,2.4,2.2,4.4,1.7c3.4-0.8,6.7-1.5,10.1-2.3c1.6-0.4,3.9-0.5,5.4-1.4c2.1-1.3,1.2-3.9,0.9-5.9
		c-0.8-4.5-1.7-9-2.5-13.5c5.6-0.4,11.1-2.1,15.7-5.4c4.1-2.9,6.9-7.4,8.1-12.2C66.2,29.4,61.3,18.1,52.4,12.1
		C52.1,12,57.7,15.7,52.4,12.1z M35.9,33.7c-0.1,0.2-0.2,0.5-0.4,0.7c-0.3-1.4-0.5-2.8-0.8-4.2c0.6,0.2,1.7,0.3,1.7,1
		C36.5,32,36.3,32.9,35.9,33.7C35.8,33.9,36.4,32.7,35.9,33.7z"/>
	<path class="st1" d="M29.8,4.3c-1.8,0-3.7,0.1-5.5,0.4c-3.9,0.5-7.8,1.6-11.4,3.1C12,8.1,11.5,9,11.6,10l7.2,64.6
		c0.1,0.6,0.4,1.2,0.9,1.5c0.4,0.3,0.8,0.4,1.2,0.4c0.2,0,0.3,0,0.5-0.1L36.8,73c1.1-0.3,1.9-1.4,1.7-2.5l-3.2-17.2
		c0.2,0,0.4,0,0.6,0c6.2-0.3,11.4-2.1,16-5.5c6.8-5,9.8-14.8,7.2-23.7C55.5,11.7,44.6,4.3,29.8,4.3z M32.2,36.3l-2-10.7
		c2.9,0.3,4.9,1.5,5.8,3.6c0.6,1.3,0.6,3-0.1,4.4c-0.6,1.3-1.7,2.3-3,2.6C32.7,36.3,32.5,36.3,32.2,36.3z"/>
	<path class="st2" d="M57,24.7C52.8,10.1,38.3,5,24.5,6.8c-3.7,0.5-7.4,1.5-10.8,2.9l1.8,15.7L21,74.3l15.3-3.5l-3.6-19.7
		c1.1,0,2.1,0,3.1-0.1c5.5-0.3,10.4-1.8,14.8-5.1C57.1,41.2,59.1,32.2,57,24.7z M33.4,38.4c-1,0.2-2,0.1-3.1-0.2l-2.7-14.8
		c4.2-0.1,8.5,0.8,10.4,5C39.8,32.2,37.7,37.3,33.4,38.4z"/>
	<path class="st3" d="M16.1,30.8c4.2-0.6,8.4-0.9,12.6-1l-1.2-6.4c4.2-0.1,8.5,0.8,10.4,5c0.3,0.5,0.4,1.1,0.5,1.7
		c6.5,0.4,12.9,1.3,19.1,2.7c0.3-2.7,0-5.5-0.7-8.1C52.8,10.1,38.3,5,24.5,6.8c-3.7,0.5-7.4,1.5-10.8,2.9l1.8,15.7L16.1,30.8z"/>
	<path class="st4" d="M24.5,6.8c-3.7,0.5-7.4,1.5-10.8,2.9l1.8,15.7l-0.4-13.2c3-1.2,6.2-2,9.5-2.5c1.7-0.2,3.4-0.3,5.1-0.3
		c13.1,0,23.5,5.8,26.6,16.6c0.5,1.8,0.9,2.9,1.3,6.7c0.3-2.7,0-5.5-0.7-8.1C52.8,10.1,38.3,5,24.5,6.8z"/>
	<path class="st4" d="M27.9,25l2.4,13.1c0,0,3.2,1.3,6.1-1.4c2.9-2.7,2.1-7.1,2.1-7.1s2.7,7.7-4.5,9.6c-1.6,0.4-4.2,0-4.2,0L27.9,25
		z"/>
	<path class="st3" d="M34.8,49c0,0.4,1.1,0.7,2.5,0.7c1.4,0,3-0.3,4.1-0.7c1.1-0.3,3.4-1.1,5.5-2.4c2.2-1.2,4.2-2.9,5.1-4.1
		c0.5-0.5,0.8-1.1,0.9-1.5c0.2-0.4,0.2-0.8,0.2-1c0-0.5-0.3-0.7-0.5-0.8c-0.2-0.1-0.4-0.2-0.7,0c-0.3,0.2-0.7,0.8-1.6,2
		c-0.9,1.2-2.6,2.5-4.4,3.5c-1.8,1-3.8,1.8-5.2,2.2c-0.7,0.2-2.2,0.7-3.5,1C35.9,48.3,34.8,48.6,34.8,49z M53.1,35.9
		c0.2,0,0.6,0.1,0.9,0.4c0.3,0.3,0.5,0.8,0.4,1.5c-0.4,1.3-1.3,0.8-1.6,0.2c-0.3-0.8-0.4-1.2-0.3-1.6C52.7,36.1,52.9,36,53.1,35.9z"
		/>
	<path class="st3" d="M22.7,71.9c0.2,0.8,4.3,0.2,6.5-0.3l5.9-1.5l-1.1-7.9c-0.4-2.8-1.3-2.9-1.7-2.9c-0.4,0-1-0.1-0.5,3.2l0.8,5.8
		l-4,1C27.1,69.8,22.5,71.1,22.7,71.9z M31.7,55.9c0.4-0.1,1.6,0.2,1.7,1.4c0.1,1.2-1,1.2-1.4,0.7C30.8,56.8,31.3,56.1,31.7,55.9z"
		/>
</g>
<g>
	<path class="st0" d="M228.2,20.8c0.9-1.3,1.9-2.6,1-4.3c-0.5-0.9-1.4-1.3-2.3-1.8c-0.3-0.2-0.7-0.4-1-0.6c-0.6-0.4-0.9-0.9-1.4-1.3
		c-0.6-0.5-1.7-0.8-2.4-1.1c-3.4-1.4-6.8-2.8-10.2-4.3c-1.8-0.8-5.3-3-6.6-0.5c-2.9,5.5-5.7,11-8.6,16.6c-0.2,0.3-0.3,0.7-0.5,1
		c-3-5.1-6-10.1-8.9-15.2c-0.8-1.4-2-2.1-3.3-3c-1.6-1.1-2.8-2.2-4.7-1.3c-3,1.4-6.1,2.8-9.1,4.2c-1.5,0.7-3.1,1.4-4.6,2.1
		c-0.9,0.4-2.1,0.7-2.6,1.6c-1,1.8,1.5,4.2,2.4,5.6c0.4,0.6,0.9,1.2,1.4,1.7c4.6,5,9.2,10,13.9,15c1.8,2,3.7,4,5.5,5.9
		c0.7,0.8,0.4,1.7,0.4,2.8c-0.2,7.1-0.4,14.3-0.6,21.4c-0.1,2.6-0.1,5.2-0.2,7.8c0,1.1,0.3,2.1,1.1,2.9c1.1,1.6,2.3,4.4,4.7,4.3
		c6.2-0.3,12.4-0.5,18.6-0.8c1.3,0,2.6-0.2,3.4-1.4c0.7-1,0.5-2.1,0.3-3.2c-0.4-3.3-0.8-6.6-1.3-9.9c-0.4-3.3-0.8-6.5-1.2-9.8
		c-0.3-2.2-0.7-9.4-0.7-9.4S227.2,22.2,228.2,20.8z"/>
	<path class="st1" d="M225.1,14c-0.2-0.6-0.6-1.2-1.2-1.4L208,5.9c-1-0.4-2.2,0-2.8,1l-10.3,19.9L182.4,5.6c-0.6-1-1.8-1.3-2.8-0.9
		L163.8,12c-0.6,0.3-1.1,0.9-1.2,1.6c-0.1,0.7,0.1,1.4,0.5,1.9l23.4,25.3l-0.8,33.2c0,0.6,0.2,1.2,0.7,1.6c0.4,0.4,1,0.6,1.5,0.6
		c0,0,0.1,0,0.1,0l19.7-0.9c0.6,0,1.2-0.3,1.6-0.8c0.4-0.5,0.6-1.1,0.5-1.7l-3.9-30.9l19.1-26.1C225.2,15.3,225.3,14.6,225.1,14z"/>
	<polygon class="st2" points="164.7,14 188.7,39.9 187.8,74 207.4,73.1 203.4,41.4 223.1,14.5 207.2,7.9 195,31.3 180.6,6.7 	"/>
	<path class="st3" d="M188.4,50.2c5.3-0.6,10.6-1.6,15.8-3l-0.7-5.9l19.7-26.8l-15.9-6.6L195,31.3L180.6,6.7L164.7,14l24,26
		L188.4,50.2z"/>
	<polygon class="st4" points="195,31.3 180.6,6.7 164.7,14 188.7,39.9 166.4,14.7 179.2,9.3 195.1,33.9 207.8,11.3 221,16.8 
		203.4,41.4 223.1,14.5 207.2,7.9 	"/>
	<path class="st3" d="M190.4,71.8c0.1,0.9,5.7,0.8,8.7,0.5l6.9-0.6l-1.4-11.5c-0.5-3.7-1.4-4-1.8-4c-0.4,0-1-0.2-0.5,4.3l1.1,9.1
		l-4.6,0.4C196.7,70.2,190.3,70.9,190.4,71.8z M202,51.6c0.4-0.2,1.6,0.4,1.7,2c0.2,1.6-0.9,1.5-1.4,0.9
		C201.1,52.6,201.6,51.7,202,51.6z"/>
</g>
</svg>
