<?xml version="1.0" encoding="utf-8"?>
<!-- Generator: Adobe Illustrator 24.0.2, SVG Export Plug-In . SVG Version: 6.00 Build 0)  -->
<svg version="1.1" id="Capa_1" xmlns="http://www.w3.org/2000/svg" xmlns:xlink="http://www.w3.org/1999/xlink" x="0px" y="0px"
	 viewBox="0 0 668.4 128.8" style="enable-background:new 0 0 668.4 128.8;" xml:space="preserve">
<style type="text/css">
	.st0{fill:#362E17;}
	.st1{fill:#964515;}
	.st2{fill:#FFFFFF;}
	.st3{fill:#F2B006;}
	.st4{opacity:0.8;fill:#F2B006;}
	.st5{fill:#F7EC6A;}
</style>
<path class="st0" d="M632.2,112.2c-190.2,0.5-380.4,1-570.5,1.6c-1.6-0.3-3.8-0.8-6.3-1.6c-0.9-0.3-6.4-2.1-11.8-5.7
	c-12.5-8.4-17-21.7-17.3-22.6c-2.5-8.3-2.1-15.2-1.8-18.4c0.4-4.6,1.1-4.5,2.5-11.9c2.4-13.2,0.8-16.3,3.6-20.3
	c2.1-2.9,6.4-6,16.4-6.6C395,41.4,543.5,38.2,586.5,26.9c6.5-1.7,37.5-10.7,52.5,4c7.9,7.8,9.6,23.3,12.8,54.2
	c0.2,1.9,0.7,6.8-1.1,12.5c-0.7,2.2-2.1,6.6-5.6,9.8C645,107.4,640.4,112.2,632.2,112.2z"/>
<path class="st1" d="M628,93.4c-194.6,0.7-389.3,1.5-583.9,2.2c-3.4-0.7-13.8,2.3-15.7-1.5c-1.4-2.7-2-6.9-3.4-15.3
	c-1.3-7.9-1.6-12-3.6-33.3c-1.6-17.1-2.1-20.7-1.4-24.7c1.1-6.8,4.1-7.7,5.4-7.9c197.3,0,394.6,0,591.9,0c0.9-0.1,2.2,0,3.8,1.3
	c1.1,1,2.8,2.4,4.2,6.7c1.2,3.8,1.6,8.1,2.1,12c1,8.7,2.2,16.4,4.5,32c2.4,15.7,4.1,22.3,3.4,25.3C634.8,91.9,628.8,92.7,628,93.4z"
	/>
<path class="st2" d="M30.4,80.8c199.6,0,399.3,0,598.9,0c-3-18.7-6.1-37.5-9.1-56.2c-198.7,0-397.4,0-596.1,0
	C26.3,43.4,28.4,62.1,30.4,80.8z"/>
<path class="st3" d="M35.4,73.8c198,2.3,395.9,4.7,593.9,7c-3-18.7-6.1-37.5-9.1-56.2c-197,1.3-394,2.7-591,4
	C31.3,43.7,33.4,58.8,35.4,73.8z"/>
<path class="st4" d="M31.6,75.2c82.7,1.9,165.5,3.8,248.2,5.7c4.5-17.3,7.3-23.3,9.1-25.3c0.5-0.6,11.6-23.7,12.8-28.7
	c-90.9,1.1-181.9,2.1-272.8,3.2C29.8,45,30.7,60.1,31.6,75.2z"/>
<path class="st5" d="M325.4,70.1c0,1.7,3,2.7,5.7,3.3c98.5,0.8,196.9,1.7,295.4,2.5c-2.9-14.2-5.9-28.5-8.8-42.7
	c-0.2,10.4-0.4,20.8-0.6,31.1c-177.6,2.6-274.2-1.7-282-0.2C330.4,64.9,325.3,67.9,325.4,70.1z"/>
<path class="st5" d="M310.1,64c0-0.4,0.1-0.8,0.2-1.2c1.6-5.9,7.9-5.2,11,0.5c4.8,8.6-5.6,11.5-8.9,9.1
	C310.3,70.7,309.5,67.2,310.1,64z"/>
</svg>
