<?xml version="1.0" encoding="utf-8"?>
<!-- Generator: Adobe Illustrator 24.0.2, SVG Export Plug-In . SVG Version: 6.00 Build 0)  -->
<svg version="1.1" id="Capa_1" xmlns="http://www.w3.org/2000/svg" xmlns:xlink="http://www.w3.org/1999/xlink" x="0px" y="0px"
	 viewBox="0 0 285.2 85" style="enable-background:new 0 0 285.2 85;" xml:space="preserve">
<style type="text/css">
	.st0{fill:#352E16;}
	.st1{fill:#954415;}
	.st2{fill:#F1AF02;}
	.st3{opacity:0.8;fill:#F1AF02;}
	.st4{fill:#FFFFFF;}
	.st5{fill:#F6EB69;}
	.st6{opacity:0.8;}
</style>
<g>
	<path class="st0" d="M19.1,64.6c3.2,4.7,7.6,8.5,13.2,9.9c5.1,1.2,10.6,0.4,15-2.4c4.3-2.7,7.1-7,7.4-12.1c0.3-5-1.6-9.4-4.7-13.2
		c-3-3.7-7-6.1-10.3-9.4c-1.2-1.2-3.4-3.4-2.5-5.3c0.5-1.1,1.7-1.8,2.9-1.9c0.4,0,0.7-0.2,0.7,0.3c0,0.4,0,0.7,0,1
		c0,0.8-0.1,1.6-0.1,2.4c-0.1,1.1,0.5,1.9,1.2,2.8c0.6,0.7,1,1.8,1.8,2.5c1.1,1,2.4,0.5,3.7,0.1c1.5-0.5,2.9-1,4.4-1.7
		c2.8-1.3,5.5-2.7,8.2-4c2.6-1.2,1.8-4.2,1.3-6.6c-1.1-4.8-3.9-9.2-8-12c-2.2-1.6-4.4-3.2-6.9-4.2c-2.6-1-5.4-1.3-8.2-0.9
		c-5.4,0.7-10,4-13,8.5c-3,4.5-4.6,9.7-3.1,15c1,3.6,3.4,6.9,5.7,9.8c1.3,1.6,2.9,2.9,4.5,4.1c0.8,0.6,1.7,1.2,2.5,1.9
		c0.4,0.3,0.8,0.5,0.8,1c0.1,0.4-0.1,0.9-0.3,1.3c0.3-1.7-1-2.9-2.4-3.6c-0.9-0.8-2.2-1.7-3.4-1.6c-4.1,0.5-8.3-0.4-12.4-0.3
		c-0.8,0-1.7-0.1-2.3,0.4c-0.7,0.6-0.8,1.6-1,2.4c-0.3,1.8-0.3,3.6,0.1,5.4C14.7,58.2,16.8,61.4,19.1,64.6
		C19.2,64.8,19,64.4,19.1,64.6z"/>
	<path class="st1" d="M23.2,68c3.1,2.2,7,3.4,10.9,3.4l0,0c5.9,0,11.2-2.6,14.5-7.2c3.6-4.8,3-11.9,0.7-16
		c-2.7-4.7-5.7-7.4-9.5-10.3c-2.2-1.7-6.2-4.9-6.4-7.7c-0.1-0.9,0.2-1.6,1-2.5c0.8-0.8,1.9-1.3,3.1-1.3c0.8,0,1.6,0.2,2.1,0.7
		c1.5,1.3,1.3,4.6,1.1,7c-0.1,0.6,0.2,1.2,0.6,1.5c0.4,0.4,1,0.5,1.6,0.4c3.5-0.9,6.7-2.5,9.8-4c1.5-0.7,3-1.5,4.5-2.1
		c0.7-0.3,1.1-1,1.1-1.8c0-0.4-0.1-0.7-0.1-1.1c-0.8-9.8-8.4-17.2-17.7-17.2c-4.3,0-8.4,1.6-11.9,4.7c-3.1,2.7-6,7.7-6.8,11.6
		c-1,5,0.6,10.3,4.4,14.6c1.3,1.4,2.8,2.5,4.2,3.6c2.2,1.6,4.2,3.1,5.1,5.4c0.3,0.9,0.1,1.5-0.2,1.9c-0.4,0.6-1.1,1-1.8,1
		c-0.5,0-1-0.2-1.4-0.7c-0.6-0.7-0.6-1.7-0.3-3.6c0.1-0.6-0.1-1.1-0.5-1.5c-0.4-0.4-1-0.6-1.5-0.5c-0.8,0.1-1.7,0.2-2.7,0.2
		c-1.5,0-3-0.1-4.6-0.2C21,46.1,19.4,46,17.8,46c-0.8,0-1.4,0-2.1,0.1c-0.7,0.1-1.3,0.6-1.6,1.2C11.8,54.9,17,63.7,23.2,68z"/>
	<path class="st2" d="M38.7,39.4c-3.5-2.7-10-7.9-5.6-12.7c2.1-2.3,5.8-2.5,7.7-0.8c2.1,1.8,2,5.4,1.7,8.5c5-1.3,9.3-4.1,14-6.1
		c0-0.4-0.1-0.8-0.1-1.1C55.2,13.5,40.2,6.6,29.7,15.8c-2.7,2.4-5.5,7-6.2,10.6c-1,4.8,0.9,9.5,4,13.1c3,3.4,7.9,5,9.6,9.5
		c1.5,3.9-3.4,7.2-6.3,4.1c-1.3-1.4-1.1-3.3-0.8-5c-4.5,0.6-9.7-0.5-14.2-0.2c-2.1,6.8,2.9,14.9,8.3,18.7c7.1,5,17.6,4,23-3.3
		c2.9-3.9,2.7-10.2,0.5-14.1C45.3,44.8,42.5,42.3,38.7,39.4z"/>
	<path class="st3" d="M34.6,35.7c-2.6-2.7-4.4-6-1.5-9.1c2.1-2.3,5.8-2.5,7.7-0.8c2.1,1.8,2,5.4,1.7,8.5c5-1.3,9.3-4.1,14-6.1
		c0-0.4-0.1-0.8-0.1-1.1C55.2,13.5,40.2,6.6,29.7,15.8c-2.7,2.4-5.5,7-6.2,10.6c-0.7,3.4,0,6.8,1.6,9.7
		C28.3,35.9,31.5,35.8,34.6,35.7z"/>
	<g>
		<path class="st4" d="M29.7,18c10.2-9,24.8-2.6,26.5,10.4c0.1,0,0.1-0.1,0.2-0.1c0-0.4-0.1-0.8-0.1-1.1
			C55.2,13.5,40.2,6.6,29.7,15.8c-2.7,2.4-5.5,7-6.2,10.6c-0.3,1.3-0.3,2.5-0.2,3.8c0-0.5,0.1-1.1,0.2-1.6
			C24.3,24.9,27.1,20.3,29.7,18z"/>
	</g>
	<path class="st4" d="M38.7,40.8c3.8,3,6.5,5.4,9,9.8c0.9,1.7,1.5,3.8,1.6,6c0.1-2.7-0.5-5.4-1.6-7.4c-2.5-4.4-5.3-6.8-9-9.8
		c-2.5-1.9-6.5-5.2-7.1-8.6C31.1,34.7,35.9,38.6,38.7,40.8z"/>
	<path class="st4" d="M30.9,54.5c2.7,2.9,7.2,0.2,6.5-3.4c-0.5,2.8-4.2,4.5-6.5,1.9c-0.6-0.7-0.9-1.4-1-2.3
		C29.8,52.2,29.9,53.5,30.9,54.5z"/>
	<path class="st4" d="M29.9,49.5c0-0.5,0.1-1,0.2-1.4c-4.5,0.6-9.7-0.5-14.2-0.2c-0.4,1.3-0.6,2.7-0.5,4.1c0.1-0.9,0.2-1.8,0.5-2.7
		C20.3,48.9,25.5,50,29.9,49.5z"/>
	<path class="st3" d="M17,55.7c-0.2,0.1-0.1,0.5,0.2,1.1c0.1,0.3,0.3,0.7,0.5,1.1c0.2,0.4,0.4,0.9,0.7,1.3c0.6,0.9,1.1,1.9,1.9,2.8
		c0.4,0.4,0.7,0.9,1.1,1.3c0.4,0.4,0.8,0.7,1.1,1c0.2,0.2,0.4,0.3,0.6,0.5c0.2,0.2,0.5,0.4,0.7,0.6c0.5,0.4,1.1,0.9,1.9,1.3
		c1.4,0.9,3.3,1.6,5.2,2c1.9,0.4,4,0.3,5.7-0.1c1.7-0.4,3.2-0.9,4.3-1.3c0.5-0.2,1-0.5,1.4-0.7c0.1-0.1,0.2-0.1,0.2-0.1
		c0.1-0.1,0.2-0.1,0.3-0.2c0.2-0.1,0.4-0.2,0.5-0.3c0.6-0.4,0.9-0.9,1.1-1.1c0.4-0.7,0.3-0.9,0.2-1.1c-0.1-0.1-0.2-0.3-0.7-0.1
		c-0.2,0.1-0.6,0.3-1.2,0.7c-0.1,0.1-0.3,0.2-0.5,0.2c-0.2,0.1-0.3,0.2-0.6,0.2c-0.2,0.1-0.5,0.2-0.7,0.3c-0.2,0.1-0.5,0.2-0.8,0.4
		c-1.1,0.5-2.5,1-4,1.3c-0.4,0.1-0.8,0.2-1.2,0.2c-0.4,0-0.8,0-1.2,0.1c-0.8,0-1.6,0-2.4-0.2l-0.6-0.1c-0.2,0-0.4-0.1-0.6-0.2
		c-0.4-0.1-0.8-0.2-1.1-0.3c-0.7-0.3-1.5-0.6-2.1-1c-0.3-0.2-0.6-0.4-0.9-0.6c-0.3-0.2-0.6-0.4-0.8-0.6c-0.3-0.2-0.5-0.4-0.8-0.6
		c-0.2-0.2-0.4-0.4-0.7-0.6c-0.2-0.2-0.5-0.4-0.8-0.7c-0.3-0.3-0.6-0.7-1-1c-0.3-0.4-0.7-0.7-1.1-1.2c-0.3-0.4-0.7-0.9-1-1.3
		c-0.7-0.8-1.2-1.6-1.7-2.2C17.5,56,17.2,55.6,17,55.7z M47.1,59.2c0.2,0,0.4,0.3,0.5,0.8c0,0.2,0,0.6,0,0.9c0,0.2-0.1,0.4-0.2,0.6
		c-0.1,0.2-0.2,0.4-0.3,0.6c-0.3,0.4-0.5,0.7-0.7,0.9c-0.2,0.1-0.4,0.2-0.5,0.1c-0.2-0.1-0.3-0.5-0.2-0.9c0.1-0.6,0.3-1.1,0.4-1.4
		c0.1-0.4,0.2-0.7,0.4-0.9C46.6,59.3,47,59.2,47.1,59.2z"/>
</g>
<g>
	<path class="st0" d="M87.2,65.5c0.1,1,1.2,2.1,1.7,2.9c0.7,1.1,1.4,2.2,2.9,2c0.6-0.1,1.3-0.3,1.9-0.4c2.8-0.6,5.6-1.3,8.4-1.9
		c1.8-0.4,5.3-0.6,5.5-3c0.1-1.1-0.3-2.4-0.5-3.4c-1.5-9.6-3-19.2-4.5-28.8c0,0,0-0.1,0-0.1c4.5,0.2,9.1,0.5,13.6,0.7
		c0.9,0,1.8-0.1,2.4-1c0.6-0.8,0.4-1.8,0.4-2.7c-0.2-2.8-0.4-5.5-0.5-8.3c-0.1-1.2-0.2-2.4-0.2-3.6c-0.1-1-0.1-2-1.1-2.7
		c-1-0.7-2-1.4-3-2.1c-0.3-0.3-0.8-0.4-1.2-0.3c-0.4,0-0.8,0-1.1,0.1c-4.6,0.3-9.1,0.5-13.7,0.7c-6,0.3-12,0.7-18.1,1
		c-2.1,0.1-4.2,0.2-6.3,0.3c-0.9,0.1-2.3-0.1-3.1,0.4C69.6,16,69.9,17,70,18c0.2,1.2,0.4,2.5,0.6,3.7c0.4,2.6,0.8,5.3,1.2,8
		c0.2,1.3,1.1,2.3,1.8,3.4c0.7,1,1.3,2.1,2.7,2c0.3,0,0.7-0.1,1-0.2c2.6-0.4,5.2-0.9,7.7-1.3c0.1,0,0.3,0,0.4-0.1
		c0.5,9.4,1,18.8,1.5,28.2C87.1,63,87.1,64.2,87.2,65.5z"/>
	<path class="st1" d="M87.2,65.5c0,0.5,0.3,1,0.7,1.3c0.3,0.2,0.7,0.3,1,0.3c0.1,0,0.3,0,0.4,0l13.7-3.1c0.9-0.2,1.4-1,1.3-1.9
		l-5.1-32.6l14.8,0.8c0,0,0.1,0,0.1,0h0c0.9,0,1.7-0.8,1.7-1.7c0-0.1,0-0.2,0-0.3l-0.9-13.7c-0.1-0.9-0.8-1.6-1.8-1.6l-41.6,2.2
		c-0.5,0-0.9,0.3-1.2,0.6c-0.3,0.4-0.4,0.9-0.4,1.3l2,13.3c0.1,0.4,0.3,0.8,0.7,1.1c0.4,0.3,0.8,0.4,1.3,0.3l11.4-1.9L87.2,65.5z"/>
	<polygon class="st2" points="71.6,16.7 73.6,30 86.9,27.8 88.9,65.4 102.6,62.2 97.2,27.6 114.1,28.5 113.2,14.5 	"/>
	<path class="st3" d="M86.9,27.8l0.6,11.3c3.8,0.1,7.7-0.1,11.5-0.6l-1.7-11l16.9,0.9l-0.9-14l-41.6,2.2l2,13.3L86.9,27.8z"/>
	<polygon class="st4" points="113.2,14.5 71.6,16.7 72.5,23 72.7,19.1 112.2,16.9 113.9,25.9 	"/>
	<path class="st5" d="M100.6,61.7c-0.1-0.7-5.4-0.3-8.3,0.1L91.2,62l-0.9-12.4c-0.3-3.6-1-3.9-1.3-3.9c-0.3,0-0.8-0.2-0.5,4.1
		l1,14.3l3.1-0.4C94.6,63.3,100.7,62.4,100.6,61.7z M88.5,41.2c0.3-0.1,1.2,0.5,1.3,2.1c0.1,1.6-0.8,1.4-1.1,0.7
		C87.8,42.2,88.2,41.3,88.5,41.2z"/>
</g>
<g>
	<path class="st0" d="M127.2,70.6c0.9,1.6,3.8,1.2,5.4,1.3c2.9,0.2,5.8,0.3,8.8,0.5c1.1,0.1,2.1,0.1,3.2,0.2c0.9,0,1.8,0.1,2.5-0.6
		c0.8-0.7,0.8-1.6,0.8-2.5c0-1.2,0.1-2.3,0.1-3.5c0.1-3.3,0.3-6.6,0.4-9.8c0.2,0,0.8-0.1,0.8,0.2c0,0.3,0.1,0.7,0.1,1
		c0.1,1.3,0.3,2.6,0.4,3.9c0.2,1.4,0.3,2.8,0.5,4.2c0.1,0.7,0.1,1.4,0.3,2.1c0.1,0.4,0.4,0.8,0.7,1.2c0.5,0.8,1.1,1.5,1.4,1.8
		c1,1.2,1.6,1.6,2.8,1.5c2.5-0.2,5-0.3,7.5-0.5c2-0.1,4-0.2,5.9-0.4c1.5-0.1,2.4-1.5,2.1-3c-0.1-0.3-0.2-0.6-0.2-0.9
		c-1-3.7-1.9-7.5-2.9-11.2c-2.8-10.8-5.6-21.6-8.4-32.4c-0.3-1.4-0.7-2.7-1.1-4.1c-0.1-0.2-0.1-0.5-0.2-0.7
		c-0.3-1.1-1.2-1.6-2.1-2.1c-0.8-0.5-1.9-1.6-2.8-1.6c-0.6,0-1.2,0-1.8,0c-2.7-0.1-5.3-0.1-8-0.2c-2.7-0.1-5.4-0.1-8.1-0.2
		c-1.3,0-3.4-0.4-3.6,1.5c-0.4,2.9-0.8,5.8-1.2,8.7c-1.5,11.3-3.1,22.5-4.6,33.8c-0.3,2.2-0.6,4.5-0.9,6.7c0,0.4-0.1,0.7-0.1,1
		c-0.1,0.8,0.6,1.6,1,2.2C126.3,69.3,126.7,70,127.2,70.6z"/>
	<path class="st1" d="M126.4,68.4l16.3,0.9c0,0,0.1,0,0.1,0c0.4,0,0.8-0.2,1.1-0.4c0.3-0.3,0.5-0.7,0.5-1.2l0.6-14.9l3.7,0.3
		l1.6,14.3c0.1,0.9,0.9,1.5,1.7,1.5l13.9-0.9c0.5,0,0.9-0.3,1.2-0.7c0.3-0.4,0.4-0.9,0.3-1.4l-12.8-49.4c-0.2-0.7-0.8-1.2-1.6-1.2
		l-19.9-0.4c-0.8,0-1.6,0.6-1.7,1.4l-6.8,50.3c-0.1,0.5,0.1,0.9,0.4,1.3C125.5,68.1,126,68.4,126.4,68.4z M147.2,38.5l-1.5,0L146,32
		h0.5L147.2,38.5z"/>
	<path class="st2" d="M152.1,67.2l13.9-0.9l-12.8-49.4l-19.8-0.4l-6.8,50.3l16.3,0.9l0.7-16.6l6.8,0.6L152.1,67.2z M144,40.1
		l0.4-9.8h3.5l1.1,9.9L144,40.1z"/>
	<path class="st3" d="M132.6,46.8c1.7,0.6,6.2,1.8,9.3,2.4c1.7,0.3,3.5,0.6,5.2,0.8c0.7,0.1,1.3,0.1,2,0.2c0.2,0,0.3,0,0.4,0
		c0.2,0,0.3,0,0.5,0c3.9,0.1,7.8-0.1,11.6-0.4l-8.5-32.8l-19.8-0.4l-4,29.1C130.4,46,131.5,46.4,132.6,46.8z M144.4,30.4h3.5
		l1.1,9.9l-5.1-0.1L144.4,30.4z"/>
	<polygon class="st4" points="147.9,30.7 149,40.2 144,40.1 144.4,30.7 143.6,41.1 149.5,41.2 	"/>
	<path class="st4" d="M134.2,18.8l18.2,0.4c0,0,5.8,19,6.3,18.9l-5.5-21.2l-19.8-0.4l-3,21.9C130.7,38.5,134.2,18.8,134.2,18.8z"/>
	<path class="st3" d="M131.1,65.2c0,0.7,4,1.2,6.2,1.2c0.6,0,1.4,0,2.4,0c0.2,0,0.5,0,0.8,0c0.1,0,0.3,0,0.4,0h0.2
		c0.1,0,0.1,0,0.3,0l0.1,0l0.1,0c0.1,0,0.2-0.1,0.3-0.2c0-0.1,0.1,0,0.3-0.5c0-0.3-0.1-1.8-0.8-0.2l0.1,0l0.1-0.1
		c0.1,0,0.1-0.1,0.3-0.2c0.1-0.1,0.4-0.1,0.4-0.1c0,0.1,0.1,0.2,0.1,0.2v0v-0.2l0-0.4c0-0.3,0-0.6,0-0.9c0.1-2.3,0.3-4.7,0.4-6.1
		c0.2-2.7-0.5-3.1-0.8-3.1c-0.3,0-0.7-0.3-0.9,3c-0.1,1.6-0.2,3.8-0.4,6c0,0.6-0.1,1.1-0.1,1.7v0c0,0,0,0.1,0,0.1
		c0,0.1,0.1,0.2,0.1,0.3c0.1,0.1,0,0.1,0.1,0.1c0.3-0.2-0.7,0.5,0.7-0.5l0,0c0,0,0,0,0,0c0,0,0-0.1,0-0.2l-0.1-0.5
		c0-0.3,0-0.2,0-0.2h0h0l-0.1,0h-0.4c-0.3,0-0.5,0-0.7,0c-1,0-1.9,0-2.6-0.1C135.8,64.7,131.1,64.6,131.1,65.2z M141.8,51.4
		c0.3-0.1,1.1,0.5,1,1.7c-0.1,1.2-0.9,1-1.1,0.4C141,52,141.5,51.5,141.8,51.4z"/>
	<path class="st3" d="M153,65.9c0,0.7,4.3,0.6,6.6,0.4c0.6,0,1.5-0.1,2.5-0.2c0.6-0.1,1.3-0.1,2-0.2c0.3,0,0.6-0.1,0.9-0.1l0.4,0
		c0-0.1-0.1-0.3-0.1-0.4c-0.1-0.6-0.3-1.1-0.4-1.7c-0.6-2.4-1.2-4.8-1.6-6.2c-0.7-2.8-1.4-2.9-1.8-2.8c-0.3,0.1-0.8,0,0.1,3.3
		c0.4,1.6,1,3.9,1.5,6.1l0,0.2c0,0,0,0,0,0c-0.4,0-0.7,0.1-1.1,0.1c-1,0.1-2,0.2-2.8,0.2C157.8,64.7,152.9,65.2,153,65.9z
		 M160.5,51.3c0.3-0.2,1.2,0.1,1.5,1.3c0.3,1.2-0.5,1.3-0.9,0.8C159.9,52.2,160.2,51.5,160.5,51.3z"/>
</g>
<g>
	<path class="st0" d="M178.5,16.8c0.4,9,0.7,17.9,1.1,26.9c0.2,5.9,0.5,11.8,0.7,17.7c0.1,1.8,0.1,3.5,0.2,5.3c0,0.4,0,0.8,0,1.2
		c0,0,0,0.1,0,0.1c0,0.6,0.4,1,0.7,1.5c0.4,0.6,0.8,1.3,1.3,1.8c0.7,1.4,1.7,2,3.2,1.9c1.2,0,2.4-0.1,3.6-0.1
		c2.9-0.1,5.7-0.2,8.6-0.3c1.3-0.1,2.6-0.3,3-1.7c0.3-0.9,0-2.1-0.2-3c-0.4-2.8-0.9-5.5-1.3-8.3c0-0.1,0-0.2,0-0.4
		c3.8,2.9,7.6,5.8,11.4,8.7c1,0.7,2.1,1.2,3.3,0.4c0.6-0.4,1.1-1.1,1.6-1.7c1.9-2.3,3.8-4.6,5.7-6.9c0.8-1,2.1-2.1,2.5-3.3
		c0.2-0.7,0.1-1.4-0.2-2.1c-0.2-0.5-0.7-1.5-1.2-1.7c-0.8-0.4-1.6-0.7-2.4-1.1c-2.8-1.3-5.6-2.7-8.5-4c4.3-2.4,7.4-6.4,8.5-11.3
		c1.1-4.8,0-9.9-3.2-13.7c-1.7-2-3.9-3.5-6.1-5c-2.3-1.6-4.6-2.9-7.3-3.8c-5.5-1.9-11.3-1.8-17-0.8c-1.8,0.3-3.6,0.7-5.3,1.3
		C180.2,14.8,178.4,15.3,178.5,16.8z M196.8,34.1c0.4,0.1,0.8,0.2,1.3,0.3c-0.3,0.4-0.8,0.4-1.2,0.5
		C196.9,34.6,196.9,34.3,196.8,34.1z"/>
	<path class="st1" d="M178.5,16.8l2.1,51.1c0,1,0.8,1.7,1.8,1.7c0,0,0,0,0.1,0l13.5-0.5c0.5,0,1-0.2,1.3-0.6
		c0.3-0.4,0.5-0.9,0.4-1.4L195.7,55L209,65.1c0.7,0.6,1.8,0.5,2.4-0.3l8.8-10.6c0.4-0.4,0.5-1,0.4-1.5c-0.1-0.5-0.5-1-1-1.2l-13-6.2
		c1.3-0.5,2.5-1.2,3.6-2c6.2-4.2,8.6-12.7,5.7-19.5c-2.9-6.6-11.2-10.4-18.1-11.2c-2.1-0.2-4.5-0.2-7,0c-1.6,0.1-3.2,0.4-4.7,0.7
		c-3.4,0.6-5.3,1.3-6.4,1.8C178.9,15.4,178.5,16.1,178.5,16.8z M198.3,33.9c-0.1,0.5-0.3,1-1.9,1c-0.9,0-2-0.2-3-0.4l-0.2-4.1
		c1.8,0.1,3.9,0.9,4.8,2.1C198.4,32.9,198.5,33.4,198.3,33.9z"/>
	<path class="st2" d="M218.8,53l-17-8.1c2.6-0.6,5.1-1.6,7.4-3.1c5.6-3.8,7.6-11.4,5-17.3c-2.7-6.1-10.4-9.4-16.7-10.1
		c-2.1-0.2-4.4-0.2-6.7,0c-1.6,0.1-3.1,0.4-4.6,0.6c-3.1,0.6-4.8,1.2-6,1.7l0.1,2.5l2,48.6l13.5-0.5l-2.6-16.6l16.8,12.8L218.8,53z
		 M192.1,28.6c3.1-0.3,9.1,1.7,8,5.7c-0.9,3.3-5,2.3-8.4,1.6l-0.3-7.2C191.6,28.7,191.9,28.7,192.1,28.6z"/>
	<g class="st6">
		<path class="st2" d="M181.2,39.1c5.3,2,10.8,3.8,16.4,3.9c3.8,0,7.6-0.4,11.4-1.1c0.1,0,0.1-0.1,0.2-0.1c5.6-3.8,7.6-11.4,5-17.3
			c-2.7-6.1-10.4-9.4-16.7-10.1c-2.1-0.2-4.4-0.2-6.7,0c-1.6,0.1-3.1,0.4-4.6,0.6c-3.1,0.6-4.8,1.2-6,1.7l0.1,2.5L181.2,39.1z
			 M192.1,28.6c3.1-0.3,9.1,1.7,8,5.7c-0.9,3.3-5,2.3-8.4,1.6l-0.3-7.2C191.6,28.7,191.9,28.7,192.1,28.6z"/>
	</g>
	<path class="st4" d="M199.1,31.1c0.8,0.9,1.3,2,0.9,3.3c-0.9,3.3-5,2.3-8.4,1.6l-0.3-6.9c0,0-0.1,0-0.1,0l0.1,7.8l1.2,0.2
		c1.5,0.3,3.1,0.7,4.6,0.7c3.1,0,3.5-1,3.9-2.4c0.4-1.4,0.1-2-0.8-3.2C200,31.8,199.6,31.4,199.1,31.1z"/>
	<path class="st4" d="M181.4,18.8c1-0.4,2.6-0.9,5.1-1.3c1.4-0.3,2.9-0.5,4.5-0.6c1.2-0.1,2.4-0.2,3.5-0.2c1.1,0,2.1,0,2.9,0.1
		c6.1,0.7,13.4,3.9,15.8,9.5c2.2,5,0.8,11.1-3.2,14.8c4.9-4,6.6-11.1,4.2-16.6c-2.7-6.1-10.4-9.4-16.7-10.1c-2.1-0.2-4.4-0.2-6.7,0
		c-1.6,0.1-3.1,0.4-4.6,0.6c-3.1,0.6-4.8,1.2-6,1.7l0.1,2.5l0.2,5.6L181.4,18.8z"/>
	<polygon class="st4" points="201.8,44.9 218.8,53 214.1,58.7 216.8,53.2 199.5,44.9 	"/>
	<path class="st3" d="M184.1,66.3c0.1,0.7,4.2,0.6,6.4,0.4l4.2-0.4l-1.3-9.5c-0.4-2.7-1.1-2.9-1.5-2.9c-0.4,0-0.8-0.1-0.4,3.2l1,7.6
		l-2.3,0.2C188.7,65,184,65.6,184.1,66.3z M191.3,50.4c0.3-0.1,1.3,0.3,1.4,1.5c0.1,1.2-0.7,1.1-1.1,0.7
		C190.6,51.2,191,50.6,191.3,50.4z"/>
</g>
<g>
	<path class="st0" d="M241.7,64.6c0.1,1,1.2,2.1,1.7,2.9c0.7,1.1,1.4,2.2,2.9,2c0.6-0.1,1.3-0.3,1.9-0.4c2.8-0.6,5.6-1.3,8.4-1.9
		c1.8-0.4,5.3-0.6,5.5-3c0.1-1.1-0.3-2.4-0.5-3.4c-1.5-9.6-3-19.2-4.5-28.8c0,0,0-0.1,0-0.1c4.5,0.2,9.1,0.5,13.6,0.7
		c0.9,0,1.8-0.1,2.4-1c0.6-0.8,0.4-1.8,0.4-2.7c-0.2-2.8-0.4-5.5-0.5-8.3c-0.1-1.2-0.2-2.4-0.2-3.6c-0.1-1-0.1-2-1.1-2.7
		c-1-0.7-2-1.4-3-2.1c-0.3-0.3-0.8-0.4-1.2-0.3c-0.4,0-0.8,0-1.1,0.1c-4.6,0.3-9.1,0.5-13.7,0.7c-6,0.3-12,0.7-18.1,1
		c-2.1,0.1-4.2,0.2-6.3,0.3c-0.9,0.1-2.3-0.1-3.1,0.4c-1,0.6-0.8,1.7-0.6,2.7c0.2,1.2,0.4,2.5,0.6,3.7c0.4,2.6,0.8,5.3,1.2,8
		c0.2,1.3,1.1,2.3,1.8,3.4c0.7,1,1.3,2.1,2.7,2c0.3,0,0.7-0.1,1-0.2c2.6-0.4,5.2-0.9,7.7-1.3c0.1,0,0.3,0,0.4-0.1
		c0.5,9.4,1,18.8,1.5,28.2C241.5,62.1,241.6,63.3,241.7,64.6z"/>
	<path class="st1" d="M241.7,64.6c0,0.5,0.3,1,0.7,1.3c0.3,0.2,0.7,0.3,1,0.3c0.1,0,0.3,0,0.4,0l13.7-3.1c0.9-0.2,1.4-1,1.3-1.9
		l-5.1-32.6l14.8,0.8c0,0,0.1,0,0.1,0h0c0.9,0,1.7-0.8,1.7-1.7c0-0.1,0-0.2,0-0.3l-0.9-13.7c-0.1-0.9-0.8-1.6-1.8-1.6l-41.6,2.2
		c-0.5,0-0.9,0.3-1.2,0.6c-0.3,0.4-0.4,0.9-0.4,1.3l2,13.3c0.1,0.4,0.3,0.8,0.7,1.1c0.4,0.3,0.8,0.4,1.3,0.3l11.4-1.9L241.7,64.6z"
		/>
	<polygon class="st2" points="226,15.9 228,29.1 241.3,26.9 243.3,64.5 257.1,61.3 251.7,26.7 268.6,27.6 267.7,13.6 	"/>
	<path class="st3" d="M241.3,26.9l0.6,11.3c3.8,0.1,7.7-0.1,11.5-0.6l-1.7-11l16.9,0.9l-0.9-14L226,15.9l2,13.3L241.3,26.9z"/>
	<polygon class="st4" points="267.7,13.6 226,15.9 227,22.1 227.2,18.2 266.7,16 268.4,25 	"/>
	<path class="st5" d="M255.1,60.8c-0.1-0.7-5.4-0.3-8.3,0.1l-1.1,0.1l-0.9-12.4c-0.3-3.6-1-3.9-1.3-3.9c-0.3,0-0.8-0.2-0.5,4.1
		l1,14.3l3.1-0.4C249.1,62.5,255.2,61.5,255.1,60.8z M243,40.3c0.3-0.1,1.2,0.5,1.3,2.1c0.1,1.6-0.8,1.4-1.1,0.7
		C242.3,41.3,242.7,40.4,243,40.3z"/>
</g>
</svg>
