<?xml version="1.0" encoding="utf-8"?>
<!-- Generator: Adobe Illustrator 24.0.2, SVG Export Plug-In . SVG Version: 6.00 Build 0)  -->
<svg version="1.1" id="Capa_1" xmlns="http://www.w3.org/2000/svg" xmlns:xlink="http://www.w3.org/1999/xlink" x="0px" y="0px"
	 viewBox="0 0 582.4 73" style="enable-background:new 0 0 582.4 73;" xml:space="preserve">
<style type="text/css">
	.st0{fill:#362E17;}
	.st1{fill:#964515;}
	.st2{fill:#F2B006;}
	.st3{opacity:0.7;}
	.st4{fill:#FFFFFF;}
	.st5{fill:#FABA4B;}
	.st6{opacity:0.8;}
	.st7{opacity:0.8;fill:#F2B006;enable-background:new    ;}
	.st8{fill:#F5F5F5;}
	.st9{fill:#F7EC6A;}
</style>
<g>
	<path class="st0" d="M75.4,23.2c-4.8,0-9.6,2.3-12.3,6.4c-1.3,1.9-2.1,4.2-2.2,6.5c-0.2,3,0.8,5.7,2.5,8.1c0.7,1.1,1.4,2.1,2.4,3
		c0.9,0.9,1.9,1.6,3,2.2c2.4,1.3,5,2,7.7,2.1c4.9,0.1,9.9-1.7,13-5.5c3.2-3.8,3.8-9.4,1.7-13.9c-0.6-1.2-1.4-2.3-2.3-3.3
		c-1.1-1.1-2.4-1.9-3.7-2.8c-2.4-1.7-5.3-2.5-8.2-2.8C76.4,23.2,75.9,23.2,75.4,23.2z M73.8,42.1c-0.7,0-1.4-0.1-2-0.4
		c-0.6-0.2-1-0.9-1.3-1.5c-0.5-1.1-0.6-2.4-0.2-3.5c0.8-2.2,3-3.6,5.3-3.4c0.6,0,1.2,0.2,1.8,0.4c0.5,0.2,1.4,0.6,1.6,1.2
		c0.5,1.2,0.5,2.5,0,3.7C78.3,40.7,76.1,42.1,73.8,42.1z"/>
	<path class="st1" d="M60.8,36.8c0,7.3,6.3,12.9,14.6,12.9s15-5.7,15.1-13c0.1-3.6-1.1-6.7-3.5-9.1c-2.7-2.8-7-4.4-11.6-4.4
		C67.4,23.2,60.8,29.3,60.8,36.8z M73.8,31.4c3.1,0,5.6,2.4,5.6,5.3S76.9,42,73.8,42s-5.6-2.4-5.6-5.3S70.7,31.4,73.8,31.4z"/>
	<path class="st2" d="M75.4,24.1c-7.5,0-13.6,5.7-13.6,12.7s6.1,11.9,13.6,11.9s14-5.1,14.1-12.1C89.6,28.4,82.9,24.1,75.4,24.1z
		 M73.8,43.1c-3.6,0-6.5-2.8-6.5-6.3s2.9-6.3,6.5-6.3s6.6,2.8,6.6,6.3C80.4,40.2,77.4,43.1,73.8,43.1z"/>
	<g class="st3">
		<path class="st2" d="M62.6,39.4c2,0.6,4.1,1.1,6.2,1.4c-1-1.1-1.5-2.5-1.5-4.1c0-3.5,2.9-6.3,6.5-6.3s6.6,2.8,6.6,6.3
			c0,1.1-0.3,2.2-0.9,3.1c3.4-1.2,6.7-2.6,10-3.9C89.3,28.1,82.7,24,75.4,24c-7.5,0-13.6,5.7-13.6,12.7c0,0.9,0.1,1.7,0.3,2.5
			C62.2,39.3,62.4,39.3,62.6,39.4z"/>
	</g>
	<g>
		<path class="st4" d="M75.4,25.2c7,0,13.3,3.7,14,10.8c0,0,0,0,0.1,0c-0.2-7.8-6.8-11.9-14.1-11.9c-7.5,0-13.6,5.7-13.6,12.7
			c0,0.2,0,0.4,0,0.6C62.1,30.6,68.1,25.2,75.4,25.2z"/>
	</g>
	<path class="st4" d="M67.8,39.2c0,0,1.7,3.8,6,3.8c4.3,0.1,5.9-3.7,6.4-5.1c0,0-0.4,5.9-6.8,5.5C68.7,43.2,67.8,39.2,67.8,39.2z"/>
	<path class="st5" d="M71,46.8c-0.1,0.2,0.7,0.6,1.8,0.9s2.5,0.4,3.5,0.4s3-0.3,4.9-1.1c1-0.4,1.9-0.9,2.7-1.4s1.4-1.1,1.9-1.5
		c0.9-0.8,1.2-1.4,1.3-1.8s0-0.5,0-0.6c-0.1-0.1-0.1-0.2-0.4,0c-0.1,0.1-0.3,0.3-0.5,0.5c-0.1,0.1-0.3,0.3-0.5,0.5s-0.4,0.4-0.6,0.6
		c-0.2,0.2-0.5,0.5-0.8,0.7s-0.6,0.5-1,0.7c-0.7,0.5-1.5,0.9-2.3,1.2c-1.7,0.7-3.4,1-4.7,1c-0.3,0-0.8,0-1.4,0c-0.3,0-0.6,0-0.8,0
		c-0.3,0-0.6-0.1-0.9-0.1C72,46.9,71.1,46.7,71,46.8z M88.2,39.2c0.1,0,0.2,0.1,0.3,0.4c0,0.1,0,0.2,0,0.2c0,0.1,0,0.2,0,0.3
		c0,0.2-0.1,0.4-0.2,0.7c-0.5,0.9-0.9,0.5-0.8,0.1c0.1-0.3,0.1-0.6,0.2-0.8c0-0.2,0.1-0.4,0.2-0.5C88,39.3,88.1,39.2,88.2,39.2z"/>
</g>
<g>
	<path class="st0" d="M117.8,25.8c-0.1-0.7-0.7-0.9-1.2-1.2c-0.2-0.2-0.5-0.3-0.7-0.5c-0.3-0.3-0.5-0.5-1-0.5
		c-1.3,0-2.6,0.2-3.9,0.3c-0.5,0-1,0.1-1.5,0.1c-0.7,0.1-0.9,0.7-0.9,1.3c0.1,1.5,0.1,3,0,4.4c0.1,0.8,0.1,1.6,0,2.4
		c0,0.2,0,0.3,0,0.5c0.1,2.2-0.6,4.5-2.8,5.1c-0.4,0.2-0.8,0.1-1.1,0c-0.3,0-0.5-0.1-0.7-0.5c0-0.1-0.1-0.2-0.1-0.2
		c-0.2-0.4-0.4-0.8-0.5-1.3s-0.2-1.1-0.3-1.6c-0.2-1.4-0.3-2.8-0.2-4.2c0.1-1.7,0.2-3.4,0.5-5.1c0.1-0.4,0-0.9-0.3-1.2
		c-0.2-0.2-0.6-0.4-0.8-0.6c-0.3-0.2-0.7-0.5-1-0.7c-0.4-0.4-0.9-0.3-1.4-0.2c-1.6,0.1-3.2,0.3-4.8,0.4c-0.6,0.1-1.2,0.1-1.9,0.2
		c-0.8,0.1-1.2,0.5-1.2,1.4c-0.1,5.7-0.3,11.6,0.8,17.2c0.4,2.2,1.1,4.4,2.4,6.2c0.9,1.2,1.6,2.5,2.8,3.5c1.1,0.9,2.5,1.5,3.9,1.8
		c-0.4-0.1-2-0.4,0,0c0.1,0,0.1,0,0,0c3,0.6,6-0.3,8.2-2.5c0.1,0.3,0.4,0.6,0.6,0.8c0.1,0.2,0.3,0.5,0.5,0.7c0.3,0.2,0.7,0.3,1,0.3
		c0.7,0,1.5-0.1,2.2-0.1s1.6,0,2-0.8c0.1-0.3,0.1-0.5,0.2-0.8c0.1-2.2,0.2-4.5,0.3-6.7c0.3-5.7,0.6-11.5,0.9-17.2
		C117.8,26.2,117.8,26,117.8,25.8z"/>
	<path class="st1" d="M100.4,50.7c0.6,0.1,1.3,0.2,1.9,0.2c3.4,0,5.7-1.9,7.1-3.9l0.1,2.2c0,0.5,0.5,0.9,1,0.9l3.2-0.1
		c0.5,0,0.9-0.4,0.9-0.9l1.3-24.4c0-0.3-0.1-0.5-0.3-0.7s-0.5-0.3-0.7-0.3l-5.5,0.4c-0.3,0-0.5,0.1-0.7,0.4
		c-0.2,0.2-0.2,0.5-0.2,0.7c0,0,0.4,2.6-0.3,8.5c-0.3,2.8-1.9,4-3.3,4l0,0c-1.2,0-2.7-0.8-3.3-3c-1.4-5-0.1-11.4-0.1-11.5
		c0.1-0.3,0-0.6-0.2-0.8c-0.2-0.2-0.5-0.3-0.8-0.3l-7.6,0.6c-0.5,0-0.9,0.4-0.9,0.9C91.7,38.4,92.2,49.1,100.4,50.7z"/>
	<path class="st2" d="M109.5,24.9l5.5-0.4l-1.3,24.4l-3.2,0.1l-0.4-5.7c0,0-2.2,7.8-9.5,6.4c-7.4-1.4-7.9-11.5-7.6-26.2l7.6-0.6
		c0,0-1.4,6.6,0.1,12c1.5,5.3,7.9,5,8.5-1.1C109.9,27.6,109.5,24.9,109.5,24.9z"/>
	<g class="st3">
		<path class="st2" d="M93.5,32.7c2.3-0.4,4.5-0.5,6.7-0.5c-0.6-4.7,0.4-9.3,0.4-9.3L93,23.5c-0.1,3.3-0.1,6.4,0,9.2
			C93.1,32.7,93.3,32.7,93.5,32.7z"/>
	</g>
	<g class="st3">
		<path class="st2" d="M109.2,33.8c0.4,0.1,0.8,0.3,1.1,0.4c1.4,0.5,2.7,1.1,4,1.7l0.6-11.3l-5.5,0.4
			C109.5,24.9,109.9,27.6,109.2,33.8C109.2,33.7,109.2,33.7,109.2,33.8z"/>
	</g>
	<g>
		<path class="st4" d="M92.9,23.5c0,1.2,0,2.3,0,3.4l0.2-2.5l6.8-0.2c-0.2,1.4,0.1,7.9,0.3,7.9c-0.6-4.7,0.4-9.3,0.4-9.3L92.9,23.5z
			"/>
	</g>
	<g>
		<path class="st4" d="M110.1,25.8l4.2-0.3c0,0-0.2,10.2,0,10.3l0.6-11.3l-5.5,0.4c0,0,0.2,1.3,0.1,4.2
			C109.5,30.4,110.2,26.9,110.1,25.8z"/>
	</g>
	<path class="st4" d="M100.4,33.6c0,0,0.6,3.9,3.5,4.8c2.9,0.8,4.7-1.8,5-3.1c0,0-1.6,4.1-4.6,3.8C100.6,38.6,100.4,33.6,100.4,33.6
		z"/>
	<path class="st5" d="M103.2,48.9c0-0.1-0.2-0.2-0.5-0.2c-0.1,0-0.3,0-0.5-0.1c-0.2,0-0.4-0.1-0.6-0.1c-0.8-0.1-1.8-0.4-2.4-0.7
		c-0.6-0.3-1.8-1.1-2.6-2.4c-0.8-1.2-1.2-2.7-1.4-3.6c-0.1-0.2-0.1-0.4-0.1-0.6S95,40.9,95,40.7c-0.1-0.3-0.1-0.4-0.2-0.6
		c-0.2-0.3-0.3-0.3-0.4-0.3c-0.1,0-0.2,0-0.3,0.2c0,0.1,0,0.3,0,0.6c0,0.3,0,0.7,0.2,1.3c0.2,1.1,0.7,2.6,1.5,3.9s2.1,2.3,3,2.8
		c0.1,0.1,0.3,0.1,0.5,0.2s0.4,0.2,0.6,0.2c0.5,0.1,1,0.2,1.5,0.2s0.9,0,1.2-0.1C103.1,49.1,103.3,49,103.2,48.9z M94.2,37.6
		c0.2-0.1,0.7,0.2,0.7,1s-0.4,0.7-0.6,0.4C93.8,38.1,94,37.7,94.2,37.6z"/>
	<path class="st5" d="M111.3,48.6c0,0.1,0.2,0.1,0.5,0.1c0.2,0,0.3,0,0.5,0c0.1,0,0.2,0,0.3,0c0.2,0,0.4,0,0.5,0
		c0-0.3,0.1-0.6,0.1-0.9c0-0.2,0-0.5,0.1-0.6c0.1-1,0.3-4.3,0.4-5.6c0.1-1.3-0.2-1.5-0.3-1.5s-0.3-0.1-0.4,1.4
		c-0.1,1.5-0.3,4.2-0.4,5.6c0,0.1,0,0.3,0,0.6c0,0.1,0,0.2,0,0.4v0.1l0,0l0,0c0,0,0,0-0.1,0s-0.2,0-0.3,0.1c-0.2,0-0.4,0.1-0.5,0.1
		C111.5,48.4,111.3,48.5,111.3,48.6z M113.5,38.3c0.1,0,0.4,0.2,0.4,0.8c0,0.6-0.4,0.5-0.4,0.2C113.2,38.6,113.4,38.4,113.5,38.3z"
		/>
</g>
<g>
	<path class="st0" d="M63.7,27.8c0.4-0.6,0.8-1.2,0.4-1.9c-0.2-0.4-0.6-0.6-1-0.8c-0.1-0.1-0.3-0.2-0.4-0.3
		c-0.2-0.2-0.4-0.4-0.6-0.6c-0.3-0.2-0.7-0.4-1.1-0.5c-1.5-0.6-3-1.3-4.5-1.9c-0.8-0.3-2.3-1.3-2.9-0.2c-1.3,2.4-2.5,4.9-3.8,7.3
		c-0.1,0.2-0.2,0.3-0.2,0.4c-1.3-2.2-2.6-4.5-3.9-6.7c-0.4-0.6-0.9-0.9-1.5-1.3c-0.7-0.5-1.2-1-2-0.6c-1.3,0.6-2.7,1.2-4,1.8
		c-0.7,0.3-1.4,0.6-2,0.9c-0.4,0.2-0.9,0.3-1.1,0.7c-0.4,0.8,0.6,1.9,1.1,2.5c0.2,0.3,0.4,0.5,0.6,0.8c2,2.2,4.1,4.4,6.1,6.6
		c0.8,0.9,1.6,1.8,2.4,2.6c0.3,0.4,0.2,0.8,0.2,1.3c-0.1,3.2-0.2,6.3-0.2,9.5c0,1.1-0.1,2.3-0.1,3.4c0,0.5,0.1,0.9,0.5,1.3
		c0.5,0.7,1,1.9,2,1.9c2.7-0.1,5.5-0.2,8.2-0.4c0.6,0,1.2-0.1,1.5-0.6c0.3-0.4,0.2-0.9,0.1-1.4c-0.2-1.5-0.4-2.9-0.6-4.4
		c-0.2-1.4-0.4-2.9-0.6-4.3c-0.1-1-0.3-4.1-0.3-4.1S63.2,28.4,63.7,27.8z"/>
	<path class="st1" d="M62.3,24.7c-0.1-0.3-0.3-0.5-0.5-0.6l-7-2.9c-0.5-0.2-1,0-1.2,0.4l-4.5,8.8l-5.5-9.3c-0.2-0.4-0.8-0.6-1.2-0.4
		l-7,3.2c-0.3,0.1-0.5,0.4-0.5,0.7c-0.1,0.3,0,0.6,0.2,0.8l10.3,11.2L45,51.2c0,0.3,0.1,0.5,0.3,0.7s0.4,0.3,0.7,0.3l0,0l8.7-0.4
		c0.3,0,0.5-0.1,0.7-0.3c0.2-0.2,0.3-0.5,0.2-0.7l-1.7-13.6l8.4-11.5C62.4,25.3,62.4,25,62.3,24.7z"/>
	<polygon class="st2" points="35.7,24.7 46.3,36.2 45.9,51.2 54.5,50.8 52.8,36.8 61.4,25 54.4,22.1 49.1,32.4 42.7,21.6 	"/>
	<g class="st3">
		<path class="st2" d="M46.2,40.8c2.3-0.3,4.6-0.7,6.9-1.3l-0.3-2.6l8.6-11.8l-7-2.9l-5.3,10.3l-6.4-10.8l-7,3.2l10.6,11.5
			L46.2,40.8z"/>
	</g>
	<g>
		<polygon class="st4" points="49.1,32.4 42.7,21.6 35.7,24.7 46.3,36.2 36.5,25.1 42.1,22.7 49.1,33.6 54.7,23.6 60.5,26 
			52.8,36.8 61.4,25 54.4,22.1 		"/>
	</g>
	<path class="st5" d="M47,50.2c0,0.4,2.5,0.3,3.8,0.2l3.1-0.3l-0.6-5c-0.2-1.6-0.6-1.8-0.8-1.8s-0.4-0.1-0.2,1.9l0.5,4l-2,0.2
		C49.8,49.5,47,49.9,47,50.2z M52.1,41.3c0.2-0.1,0.7,0.2,0.8,0.9c0.1,0.7-0.4,0.7-0.6,0.4C51.7,41.8,52,41.4,52.1,41.3z"/>
</g>
<g>
	<path class="st0" d="M138.5,46.9c1.5,2.2,3.2,4.1,5.7,5.3c2.7,1.1,5.6,1.2,8.4,0.5c2.1-0.5,4.2-1.3,6.1-2.3
		c0.4-0.3,0.9-0.5,1.2-0.9c0.4-0.5,0.2-1.1,0-1.6c-0.5-1.4-1.1-2.7-1.6-4.1c-0.4-1-0.7-2.5-1.8-3.1c-0.2-0.2-0.5-0.3-0.7-0.5
		c-0.3-0.2-0.6-0.5-0.8-0.5c-0.7-0.2-1.5,0.6-2.1,1c-1.1,0.6-2.3,1-3.6,1c-0.5,0-1.5-0.1-1.9-0.5c-0.5-0.5-0.8-1.1-1-1.7
		c-0.2-1.1-0.2-2.3,0-3.5c0.2-1.1,0.7-2.5,1.6-3.3c0.7-0.6,2.4-1,3,0c0.5,0.8,1,1.5,2.1,1c0.6-0.2,1.1-0.5,1.7-0.7
		c0.8-0.3,1.5-0.6,2.2-1c0.4-0.2,1-0.3,1.3-0.6c0.6-0.7,0.4-1.8,0.2-2.6c-0.3-1.1-0.8-2.1-1.6-2.9c-0.9-1-2.1-1.7-3.2-2.4
		c-1.2-0.8-2.7-1.1-4.1-1.1c-2.3-0.1-4.5,0.7-6.4,1.9c-4.5,2.9-6.8,8.1-7.2,13.3C135.8,40.9,136.6,44.2,138.5,46.9
		C138.5,47,138.4,46.8,138.5,46.9z"/>
	<path class="st1" d="M143.6,50.7c1.2,0.4,2.6,0.6,4,0.6l0,0c5.3,0,10.1-3,10.2-3.2c0.4-0.2,0.5-0.7,0.4-1.1l-2.7-6.7
		c-0.1-0.3-0.3-0.5-0.6-0.5c-0.3-0.1-0.6,0-0.8,0.1c-1.7,1.2-3.3,1.8-4.7,1.8l0,0c-2.7,0-4.4-2.1-4.8-3.4c-0.5-1.6-0.2-4.5,0.9-6.4
		c0.5-0.9,1.2-1.4,1.9-1.6c0.4-0.1,0.7-0.1,1-0.1c1.4,0,1.8,1,1.8,1.1c0.1,0.2,0.2,0.4,0.5,0.5c0.2,0.1,0.5,0.1,0.8,0l4.9-2
		c0.3-0.1,0.4-0.3,0.5-0.6V29c0.1-0.1,0.1-0.2,0.1-0.3c-0.1-1.8-1.3-5.5-5.7-6.2c-0.5-0.2-1.1-0.2-1.7-0.2c-5.6,0-11,4.7-12.7,11.3
		C134.6,41.7,137.3,48.4,143.6,50.7z"/>
	<path class="st2" d="M154.7,40.6c-6,4.4-10.1,0.6-10.9-2.1c-0.8-2.6,0.2-8.3,3.4-9.1c3.3-0.8,3.9,1.6,3.9,1.6l4.8-2.1l0.1-0.2
		c0,0-0.2-4.6-5-5.4c-5.4-1-11.5,3.3-13.4,10.4s0,13.7,6.2,16c6.2,2.2,13.4-2.4,13.4-2.4L154.7,40.6z"/>
	<g class="st6">
		<path class="st2" d="M143.4,40.4c0.4-0.1,0.9-0.1,1.3-0.1c-0.5-0.6-0.8-1.2-0.9-1.7c-0.8-2.6,0.2-8.3,3.4-9.1
			c3.3-0.8,3.9,1.6,3.9,1.6l4.8-2.1l0.1-0.2c0,0-0.2-4.6-5-5.4c-5.4-1-11.5,3.3-13.4,10.4c-0.6,2.4-0.8,4.7-0.6,6.8
			C139.2,40.7,141.3,40.6,143.4,40.4z"/>
	</g>
	<g>
		<path class="st4" d="M156,28.8c0,0-0.2-4.6-5-5.4c-5.4-1-11.5,3.3-13.4,10.4c-0.1,0.3-0.2,0.6-0.2,0.9c1.8-5.2,5.3-10.2,11.3-10.7
			c0.5,0,0.9-0.1,2.1,0.2c3.7,0.5,4.9,2.9,5,3.9l0.1,0.9L156,28.8z"/>
	</g>
	<g>
		<path class="st4" d="M144.7,40.3c-0.5-0.6-0.8-1.2-0.9-1.7c-0.2-0.8-0.3-1.9-0.2-3c-0.1,1.1-0.2,2,0,3.1c0.2,0.8,0.8,1.9,1.3,2.5
			c0.6,0.6,1.6,1.4,2.4,1.6c1.6,0.4,3.4,0.2,5-0.4c0.8-0.3,1.8-0.9,2.4-1.6C151.4,43.1,146.9,42.9,144.7,40.3z"/>
	</g>
	<path class="st7" d="M154.7,48c-0.1-0.1-0.9,0.1-1.9,0.3c-1,0.3-2.2,0.5-3.1,0.6c-0.2,0-0.5,0.1-0.8,0.1s-0.7,0.1-1,0.1
		c-0.8,0-1.7-0.1-2.6-0.3c-0.9-0.2-1.7-0.6-2.4-1c-0.7-0.5-1.2-1-1.6-1.4c-0.2-0.2-0.3-0.4-0.5-0.5c-0.1-0.2-0.2-0.3-0.3-0.4
		c-0.2-0.2-0.4-0.4-0.5-0.5c-0.2-0.3-0.4-0.3-0.5-0.2c-0.1,0-0.2,0-0.1,0.3c0,0.2,0.1,0.4,0.3,0.7c0.2,0.3,0.4,0.8,0.9,1.3
		c0.5,0.6,1.1,1.1,1.9,1.5c0.8,0.4,1.6,0.8,2.5,1.1c1.8,0.4,3.6,0.3,4.9,0.2c0.6-0.1,1.9-0.4,3-0.8C154,48.7,154.8,48.2,154.7,48z
		 M138.6,42.2c0.1-0.1,0.7,0.2,0.9,1.1c0.3,0.9-0.2,1-0.4,0.6c-0.4-0.5-0.6-0.9-0.6-1.2C138.4,42.4,138.5,42.3,138.6,42.2z"/>
</g>
<g>
	<path class="st1" d="M182.4,31.9c-0.4,0-0.7,0.4-0.7,0.8c0,1.2-0.1,2.4-0.1,3.7c-3.2,0.1-6.5,0.2-9.7,0.3c0-1,0-2.1,0-3.1
		c0-0.2-0.1-0.4-0.3-0.6c-0.2-0.1-0.4-0.2-0.6-0.2c-1.2,0.2-2.4,0.3-3.6,0.5c-0.1,1.5,0,3.2,0.2,5.2c0.2,2.4,0.7,4.5,1.1,6.2
		c1,0,2-0.1,3-0.1c0.2,0,0.4-0.1,0.5-0.3c0.1-0.2,0-2.9,0-2.9l9.5,0.2v2.2l0,0c0,0.4,0.3,0.8,0.7,0.8h0.1L182.4,31.9z"/>
	<g>
		<polygon class="st4" points="187.2,33 187.4,43.4 185.4,43.7 188.2,43.6 187.9,32.5 184.2,32.7 		"/>
	</g>
	<path class="st5" d="M166.7,34.8c-0.3,0.1-0.1,1.9,0,2.9c0.2,1,0.6,4,0.8,5.3c0,0.3,0.1,0.5,0.1,0.7c0.2,0,0.4,0,0.6,0
		c0.1,0,0.1,0,0.2,0h0.1c0.1,0,0.2-0.1,0.3-0.1c0.1-0.1,0.2-0.2,0.2-0.3c0-0.1,0-0.2-0.1-0.2s-0.1-0.1-0.3-0.1c-0.1,0-0.2,0-0.2,0
		l0,0l0,0c-0.2-1.5-0.6-3.9-0.8-5.3C167.3,36.8,166.9,34.7,166.7,34.8z M170.3,43.1c0,0.2-0.2,0.6-0.7,0.5c-0.5,0-0.4-0.4-0.2-0.5
		C170,42.7,170.3,42.9,170.3,43.1z"/>
	<path class="st0" d="M162.3,24.1c-0.2,0.3-0.2,0.6-0.2,1.3c0,0.7,0,1.4,0,2c0,1.2,0,2.4,0.1,3.7c0,0.3,0.1,0.5,0.3,0.8
		c0.3,0.5,0.6,1.2,1,1.6c0.5,0.4,1.2,0.3,1.8,0.3c0.3,0,0.2,0,0.3,0.4c0,0.5,0,1,0.1,1.5c0.1,2.6,0.2,5.1,0.3,7.7
		c0,0.2-0.6,0.1-0.7,0.1c-0.5,0-1,0.1-1.5,0.1c-0.6,0-0.7,0.7-0.7,1.3c0.1,0.6,0.1,1.2,0.2,1.8c0.1,1.3,0.2,2.5,0.4,3.8
		c0,0.3,0.2,0.5,0.3,0.7c0.2,0.3,0.3,0.5,0.5,0.8s0.3,0.6,0.5,0.8c0.3,0.3,0.7,0.3,1.1,0.2c2.3-0.4,4.6-0.7,6.9-1.1
		c0.5-0.1,1.3-0.1,1.8-0.3c0.9-0.5,0.6-2.1,0.5-3c0-1.1,0-2.2-0.1-3.3c0-0.7-0.5-0.7-1.2-1.6s-1.1-1.6-1.4-2.1
		c3.2,0.1,6.3,0.1,9.5,0.2c0.2-0.1,0.5-0.1,0.7-0.2c-3.4-1.2-6.8-2.4-10.3-3.6c0-0.5,0.1-1.2,0.1-2c0-0.1,0-0.6,0.1-1.7
		c0-0.1-0.1-0.5,0.1-0.5c0.5,0,1.1,0,1.6,0c0.7,0,1.1-0.7,1.1-1.4c0-1.2,0-2.5-0.1-3.7c0-0.7,0-1.4,0-2c0-0.4,0-0.9-0.2-1.3
		c-0.1-0.2-1.5-1.5-1.9-1.5c-0.2,0-0.4,0-0.6,0c-1,0-2.1,0-3.1,0c-1.5,0-3,0-4.5,0c-0.3,0-0.7,0-1.6,0
		C162.7,23.8,162.5,23.9,162.3,24.1z"/>
	<path class="st1" d="M162.3,24.1c-0.1,0.2-0.2,0.4-0.2,0.6l0.1,6.4c0,0.5,0.3,0.8,0.7,0.8h2.5l0.4,11.4l-2.3,0.1
		c-0.2,0-0.4,0.1-0.5,0.3c-0.1,0.2-0.2,0.4-0.2,0.7l0.6,6.1c0,0.2,0.1,0.4,0.3,0.6c0.1,0.1,0.3,0.2,0.5,0.2h0.1l8.7-1.4
		c0.4-0.1,0.6-0.4,0.6-0.9l-0.1-5.3c0-0.2-0.1-0.4-0.2-0.6c-0.1-0.2-0.3-0.2-0.5-0.2l-2.1,0.1l0.3-11.1h2l0,0c0.4,0,0.7-0.4,0.7-0.9
		v-0.1l-0.1-6.4c0-0.5-0.3-0.9-0.7-0.8l-10.1,0.1C162.6,23.8,162.4,23.9,162.3,24.1z"/>
	<polygon class="st2" points="169.9,44 170.2,31.1 173,31.1 172.9,24.6 162.8,24.7 162.9,31.1 166.1,31.1 166.6,44.2 163.6,44.4 
		164.2,50.4 172.9,49 172.8,43.8 	"/>
	<g class="st3">
		<path class="st2" d="M166.1,31.1l0.2,5.1c1.3,0.1,2.5,0.2,3.8,0.3l0.2-5.5h2.7l-0.1-6.5l-10.1,0.1l0.1,6.4h3.2V31.1z"/>
	</g>
	<g>
		<polygon class="st4" points="163.2,25.5 172.7,25.4 172.9,27.8 172.9,24.6 162.8,24.7 162.9,29.1 		"/>
	</g>
	<polygon class="st4" points="166.5,43.2 166.7,44.6 164,45 164,48.9 163.6,44.4 166.5,44.1 	"/>
	<polygon class="st4" points="169.9,43.2 169.8,44.3 172.6,44.2 172.9,48.7 172.8,43.8 169.9,43.9 	"/>
	<path class="st5" d="M164.5,49.6c0,0.3,1.7,0.2,2.6,0c0.9-0.2,3.7-0.7,4.8-0.9c0.2,0,0.5-0.1,0.6-0.1c0-0.2,0-0.5,0-0.6
		s0-0.1,0-0.2v-0.1c0-0.1-0.1-0.2-0.1-0.3c-0.1-0.2-0.2-0.2-0.2-0.2c-0.1,0-0.1,0-0.2,0.1c0,0.1-0.1,0.2-0.1,0.3c0,0.1,0,0.2,0,0.3
		l0,0l0,0c-1.3,0.2-3.6,0.7-4.8,0.9C166.3,48.8,164.5,49.3,164.5,49.6z M172.1,45.4c0.1,0,0.5,0.2,0.5,0.8c0,0.6-0.4,0.5-0.5,0.2
		C171.8,45.8,172,45.5,172.1,45.4z"/>
	<path class="st0" d="M178.3,24.1c-0.3,0.3-0.2,0.8-0.2,1.3c0,0.7,0,1.4,0,2c0,1.2,0,2.4,0.1,3.7c0,0.3,0.1,0.5,0.3,0.8
		c0.3,0.5,0.6,1.2,1,1.6c0.5,0.4,1.2,0.3,1.8,0.3c0.3,0,0.2,0,0.3,0.4c0,0.5,0,1,0.1,1.5c0.1,2.6,0.2,5.1,0.3,7.7
		c0,0.2-0.6,0.1-0.7,0.1c-0.5,0-1,0.1-1.5,0.1c-0.6,0-0.7,0.7-0.7,1.3c0.1,0.6,0.1,1.2,0.2,1.8c0.1,1.3,0.2,2.5,0.4,3.8
		c0,0.3,0.2,0.5,0.3,0.7c0.2,0.3,0.3,0.5,0.5,0.8s0.3,0.6,0.5,0.8c0.3,0.3,0.7,0.3,1.1,0.2c2.3-0.4,4.6-0.7,6.9-1.1
		c0.5-0.1,1.3-0.1,1.8-0.3c0.9-0.5,0.6-2.1,0.5-3c0-1.1,0-2.2-0.1-3.3c0-0.9-0.8-1.1-1.2-1.6c-0.2-0.3-0.7-0.6-1-0.6
		c-0.2,0-0.4,0-0.6,0c0.1-2.4,0.1-4.7,0.2-7.1c0-0.6,0-1.1,0.1-1.7c0-0.1-0.1-0.5,0.1-0.5c0.5,0,1.1,0,1.6,0c0.7,0,1.1-0.7,1.1-1.4
		c0-1.2,0-2.5-0.1-3.7c0-0.7,0-1.4,0-2c0-0.4,0-0.9-0.2-1.3c-0.1-0.2-1.5-1.5-1.9-1.5c-0.2,0-0.4,0-0.6,0c-1,0-2.1,0-3.1,0
		c-1.5,0-3,0-4.5,0c-0.5,0-1,0-1.6,0C179,23.8,178.6,23.8,178.3,24.1C178.2,24.2,178.5,23.9,178.3,24.1z"/>
	<path class="st1" d="M178.3,24.1c-0.1,0.2-0.2,0.4-0.2,0.6l0.1,6.4c0,0.5,0.3,0.8,0.7,0.8h2.5c0.1,1.8,0.1,3.6,0.2,5.4
		c-0.1,1.2-0.2,2.4-0.3,3.6c0.4,0.2,0.8,0.5,1.2,0.7c-0.2,0-0.5-0.1-0.7-0.1c0,0.6,0,1.2,0.1,1.8c-0.8,0-1.5,0.1-2.3,0.1
		c-0.2,0-0.4,0.1-0.5,0.3c-0.1,0.2-0.2,0.4-0.2,0.7l0.6,6.1c0,0.2,0.1,0.4,0.3,0.6c0.1,0.1,0.3,0.2,0.5,0.2h0.1l8.7-1.4
		c0.4-0.1,0.6-0.4,0.6-0.9l-0.1-5.3c0-0.2-0.1-0.4-0.2-0.6c-0.1-0.2-0.3-0.2-0.5-0.2l-2.1,0.1l0.3-11.1h2l0,0c0.4,0,0.7-0.4,0.7-0.9
		v-0.1l-0.1-6.4c0-0.5-0.3-0.9-0.7-0.8l-10.1,0.1C178.7,23.8,178.5,23.9,178.3,24.1z"/>
	<polygon class="st2" points="185.9,44 186.3,31.1 189,31.1 188.9,24.6 178.9,24.7 179,31.1 182.2,31.1 182.7,44.2 179.7,44.4 
		180.2,50.4 188.9,49 188.8,43.8 	"/>
	<g class="st3">
		<path class="st2" d="M182.2,31.1l0.2,5.1c1.3,0.1,2.5,0.2,3.8,0.3l0.2-5.5h2.7l-0.1-6.5l-10.1,0.1L179,31h3.2V31.1z"/>
	</g>
	<g>
		<polygon class="st4" points="179.3,25.5 188.8,25.4 189,27.8 188.9,24.6 178.9,24.7 178.9,29.1 		"/>
	</g>
	<polygon class="st4" points="182.6,43.2 182.8,44.6 180,45 180.1,48.9 179.7,44.4 182.6,44.1 	"/>
	<polygon class="st4" points="186,43.2 185.9,44.3 188.7,44.2 188.9,48.7 188.8,43.8 186,43.9 	"/>
	<path class="st5" d="M180.6,49.6c0,0.3,1.7,0.2,2.6,0c0.9-0.2,3.7-0.7,4.8-0.9c0.2,0,0.5-0.1,0.6-0.1c0-0.2,0-0.5,0-0.6
		s0-0.1,0-0.2v-0.1c0-0.1-0.1-0.2-0.1-0.3c-0.1-0.2-0.2-0.2-0.2-0.2c-0.1,0-0.1,0-0.2,0.1c0,0.1-0.1,0.2-0.1,0.3c0,0.1,0,0.2,0,0.3
		l0,0l0,0c-1.3,0.2-3.6,0.7-4.8,0.9C182.4,48.8,180.5,49.3,180.6,49.6z M188.2,45.4c0.1,0,0.5,0.2,0.5,0.8c0,0.6-0.4,0.5-0.5,0.2
		C187.8,45.8,188.1,45.5,188.2,45.4z"/>
	<path class="st2" d="M170.3,40.6c4.1,0.1,8.2,0.1,12.3,0.2c0,1,0,2,0,3c1.1,0.1,2.2,0.1,3.3,0.2c0.1-3.8,0.2-7.6,0.3-11.4
		c0,1.3,0,2.7-0.1,4c-1.2-0.1-2.4-0.2-3.7-0.3c-0.1,0.4-0.1,0.7-0.2,1.1c-4.1,0-8.2,0-12.3,0.1c0-0.3,0.1-0.5,0.1-0.8
		c-1.3-0.4-2.5-0.8-3.8-1.2c0,1,0,2,0,3c0.1,1.6,0.2,3.3,0.3,4.9c1.1,0.2,2.2,0.5,3.3,0.7C170,42.8,170.1,41.7,170.3,40.6z"/>
</g>
<g>
	<path class="st0" d="M207.8,23.3c-4.8,0-9.6,2.3-12.3,6.4c-1.3,1.9-2.1,4.2-2.2,6.5c-0.2,3,0.8,5.7,2.5,8.1c0.7,1.1,1.4,2.1,2.4,3
		c0.9,0.9,1.9,1.6,3,2.2c2.4,1.3,5,2,7.7,2.1c4.9,0.1,9.9-1.7,13-5.5c3.2-3.8,3.8-9.4,1.7-13.9c-0.6-1.2-1.4-2.3-2.3-3.3
		c-1.1-1.1-2.4-1.9-3.7-2.8c-2.4-1.7-5.3-2.5-8.2-2.8C208.8,23.3,208.3,23.3,207.8,23.3z M206.2,42.3c-0.7,0-1.4-0.1-2-0.4
		c-0.6-0.2-1-0.9-1.3-1.5c-0.5-1.1-0.6-2.4-0.2-3.5c0.8-2.2,3-3.6,5.3-3.4c0.6,0,1.2,0.2,1.8,0.4c0.5,0.2,1.4,0.6,1.6,1.2
		c0.5,1.2,0.5,2.5,0,3.7C210.7,40.9,208.5,42.3,206.2,42.3z"/>
	<path class="st1" d="M193.2,36.9c0,7.3,6.3,12.9,14.6,12.9s15-5.7,15.1-13c0.1-3.6-1.1-6.7-3.5-9.1c-2.7-2.8-7-4.4-11.6-4.4
		C199.8,23.3,193.2,29.4,193.2,36.9z M206.2,31.6c3.1,0,5.6,2.4,5.6,5.3s-2.5,5.3-5.6,5.3s-5.6-2.4-5.6-5.3S203.1,31.6,206.2,31.6z"
		/>
	<path class="st2" d="M207.8,24.3c-7.5,0-13.6,5.7-13.6,12.7s6.1,11.9,13.6,11.9s14-5.1,14.1-12.1C222.1,28.6,215.3,24.3,207.8,24.3
		z M206.2,43.2c-3.6,0-6.5-2.8-6.5-6.3s2.9-6.3,6.5-6.3s6.6,2.8,6.6,6.3C212.8,40.4,209.8,43.2,206.2,43.2z"/>
	<g class="st3">
		<path class="st2" d="M195,39.5c2,0.6,4.1,1.1,6.2,1.4c-1-1.1-1.5-2.5-1.5-4.1c0-3.5,2.9-6.3,6.5-6.3s6.6,2.8,6.6,6.3
			c0,1.1-0.3,2.2-0.9,3.1c3.4-1.2,6.7-2.6,10-3.9c-0.2-7.8-6.8-11.9-14.1-11.9c-7.5,0-13.6,5.7-13.6,12.7c0,0.9,0.1,1.7,0.3,2.5
			C194.7,39.4,194.8,39.5,195,39.5z"/>
	</g>
	<g>
		<path class="st4" d="M207.8,25.4c7,0,13.3,3.7,14,10.8c0,0,0,0,0.1,0c-0.2-7.8-6.8-11.9-14.1-11.9c-7.5,0-13.6,5.7-13.6,12.7
			c0,0.2,0,0.4,0,0.6C194.5,30.7,200.5,25.4,207.8,25.4z"/>
	</g>
	<path class="st4" d="M200.2,39.4c0,0,1.7,3.8,6,3.8c4.3,0.1,5.9-3.7,6.4-5.1c0,0-0.4,5.9-6.8,5.5C201.1,43.4,200.2,39.4,200.2,39.4
		z"/>
	<path class="st5" d="M203.4,47c-0.1,0.2,0.7,0.6,1.8,0.9s2.5,0.4,3.5,0.4s3-0.3,4.9-1.1c1-0.4,1.9-0.9,2.7-1.4s1.4-1.1,1.9-1.5
		c0.9-0.8,1.2-1.4,1.3-1.8s0-0.5,0-0.6c-0.1-0.1-0.1-0.2-0.4,0c-0.1,0.1-0.3,0.3-0.5,0.5c-0.1,0.1-0.3,0.3-0.5,0.5s-0.4,0.4-0.6,0.6
		c-0.2,0.2-0.5,0.5-0.8,0.7s-0.6,0.5-1,0.7c-0.7,0.5-1.5,0.9-2.3,1.2c-1.7,0.7-3.4,1-4.7,1c-0.3,0-0.8,0-1.4,0c-0.3,0-0.6,0-0.8,0
		c-0.3,0-0.6-0.1-0.9-0.1C204.4,47,203.5,46.8,203.4,47z M220.6,39.3c0.1,0,0.2,0.1,0.3,0.4c0,0.1,0,0.2,0,0.2c0,0.1,0,0.2,0,0.3
		c0,0.2-0.1,0.4-0.2,0.7c-0.5,0.9-0.9,0.5-0.8,0.1c0.1-0.3,0.1-0.6,0.2-0.8c0-0.2,0.1-0.4,0.2-0.5C220.4,39.4,220.5,39.3,220.6,39.3
		z"/>
</g>
<g>
	<path class="st0" d="M241.9,24.2c-4.8,0-9.6,2.3-12.3,6.4c-1.3,1.9-2.1,4.2-2.2,6.5c-0.2,3,0.8,5.7,2.5,8.1c0.7,1.1,1.4,2.1,2.4,3
		c0.9,0.9,1.9,1.6,3,2.2c2.4,1.3,5,2,7.7,2.1c4.9,0.1,9.9-1.7,13-5.5c3.2-3.8,3.8-9.4,1.7-13.9c-0.6-1.2-1.4-2.3-2.3-3.3
		c-1.1-1.1-2.4-1.9-3.7-2.8c-2.4-1.7-5.3-2.5-8.2-2.8C242.9,24.2,242.4,24.2,241.9,24.2z M240.3,43.1c-0.7,0-1.4-0.1-2-0.4
		c-0.6-0.2-1-0.9-1.3-1.5c-0.5-1.1-0.6-2.4-0.2-3.5c0.8-2.2,3-3.6,5.3-3.4c0.6,0,1.2,0.2,1.8,0.4c0.5,0.2,1.4,0.6,1.6,1.2
		c0.5,1.2,0.5,2.5,0,3.7C244.8,41.7,242.6,43.1,240.3,43.1z"/>
	<path class="st1" d="M227.3,37.8c0,7.3,6.3,12.9,14.6,12.9s15-5.7,15.1-13c0.1-3.6-1.1-6.7-3.5-9.1c-2.7-2.8-7-4.4-11.6-4.4
		C233.9,24.2,227.3,30.3,227.3,37.8z M240.3,32.4c3.1,0,5.6,2.4,5.6,5.3s-2.5,5.3-5.6,5.3s-5.6-2.4-5.6-5.3S237.2,32.4,240.3,32.4z"
		/>
	<path class="st2" d="M241.9,25.1c-7.5,0-13.6,5.7-13.6,12.7s6.1,11.9,13.6,11.9s14-5.1,14.1-12.1C256.2,29.4,249.4,25.1,241.9,25.1
		z M240.3,44.1c-3.6,0-6.5-2.8-6.5-6.3s2.9-6.3,6.5-6.3s6.6,2.8,6.6,6.3C246.9,41.2,243.9,44.1,240.3,44.1z"/>
	<g class="st3">
		<path class="st2" d="M229.1,40.4c2,0.6,4.1,1.1,6.2,1.4c-1-1.1-1.5-2.5-1.5-4.1c0-3.5,2.9-6.3,6.5-6.3s6.6,2.8,6.6,6.3
			c0,1.1-0.3,2.2-0.9,3.1c3.4-1.2,6.7-2.6,10-3.9c-0.2-7.8-6.8-11.9-14.1-11.9c-7.5,0-13.6,5.7-13.6,12.7c0,0.9,0.1,1.7,0.3,2.5
			C228.8,40.3,228.9,40.3,229.1,40.4z"/>
	</g>
	<g>
		<path class="st4" d="M241.9,26.2c7,0,13.3,3.7,14,10.8c0,0,0,0,0.1,0c-0.2-7.8-6.8-11.9-14.1-11.9c-7.5,0-13.6,5.7-13.6,12.7
			c0,0.2,0,0.4,0,0.6C228.6,31.6,234.6,26.2,241.9,26.2z"/>
	</g>
	<path class="st4" d="M234.3,40.2c0,0,1.7,3.8,6,3.8c4.3,0.1,5.9-3.7,6.4-5.1c0,0-0.4,5.9-6.8,5.5C235.2,44.2,234.3,40.2,234.3,40.2
		z"/>
	<path class="st5" d="M237.5,47.8c-0.1,0.2,0.7,0.6,1.8,0.9s2.5,0.4,3.5,0.4s3-0.3,4.9-1.1c1-0.4,1.9-0.9,2.7-1.4s1.4-1.1,1.9-1.5
		c0.9-0.8,1.2-1.4,1.3-1.8s0-0.5,0-0.6c-0.1-0.1-0.1-0.2-0.4,0c-0.1,0.1-0.3,0.3-0.5,0.5c-0.1,0.1-0.3,0.3-0.5,0.5s-0.4,0.4-0.6,0.6
		c-0.2,0.2-0.5,0.5-0.8,0.7s-0.6,0.5-1,0.7c-0.7,0.5-1.5,0.9-2.3,1.2c-1.7,0.7-3.4,1-4.7,1c-0.3,0-0.8,0-1.4,0c-0.3,0-0.6,0-0.8,0
		c-0.3,0-0.6-0.1-0.9-0.1C238.5,47.9,237.6,47.7,237.5,47.8z M254.7,40.2c0.1,0,0.2,0.1,0.3,0.4c0,0.1,0,0.2,0,0.2
		c0,0.1,0,0.2,0,0.3c0,0.2-0.1,0.4-0.2,0.7c-0.5,0.9-0.9,0.5-0.8,0.1c0.1-0.3,0.1-0.6,0.2-0.8c0-0.2,0.1-0.4,0.2-0.5
		C254.5,40.3,254.6,40.2,254.7,40.2z"/>
</g>
<g>
	<path class="st0" d="M263.8,48.9c1.6,2.4,3.9,4.4,6.8,5.1c2.6,0.6,5.4,0.2,7.7-1.2c2.2-1.4,3.6-3.6,3.8-6.2s-0.8-4.8-2.4-6.8
		c-1.5-1.9-3.6-3.1-5.3-4.8c-0.6-0.6-1.8-1.7-1.3-2.7c0.3-0.6,0.9-0.9,1.5-1c0.2,0,0.3-0.1,0.4,0.2c0,0.2,0,0.4,0,0.5
		c0,0.4,0,0.8-0.1,1.2c-0.1,0.6,0.3,1,0.6,1.4s0.5,0.9,0.9,1.3c0.6,0.5,1.2,0.3,1.9,0.1c0.8-0.2,1.5-0.5,2.2-0.9
		c1.4-0.6,2.8-1.4,4.2-2s0.9-2.2,0.7-3.4c-0.5-2.5-2-4.7-4.1-6.1c-1.1-0.8-2.3-1.6-3.6-2.1s-2.8-0.7-4.2-0.5
		c-2.8,0.4-5.1,2.1-6.7,4.3c-1.5,2.3-2.4,5-1.6,7.7c0.5,1.8,1.7,3.5,2.9,5c0.7,0.8,1.5,1.5,2.3,2.1c0.4,0.3,0.9,0.6,1.3,1
		c0.2,0.2,0.4,0.3,0.4,0.5s0,0.5-0.1,0.7c0.1-0.9-0.5-1.5-1.3-1.8c-0.4-0.4-1.1-0.9-1.7-0.8c-2.1,0.2-4.3-0.2-6.4-0.2
		c-0.4,0-0.9,0-1.2,0.2c-0.4,0.3-0.4,0.8-0.5,1.2c-0.2,0.9-0.1,1.9,0.1,2.8C261.6,45.6,262.7,47.2,263.8,48.9
		C263.9,49,263.8,48.8,263.8,48.9z"/>
	<path class="st1" d="M265.9,50.6c1.6,1.1,3.6,1.8,5.6,1.8l0,0c3,0,5.7-1.3,7.4-3.7c1.8-2.5,1.5-6.1,0.3-8.2
		c-1.4-2.4-2.9-3.8-4.9-5.3c-1.1-0.9-3.2-2.5-3.3-3.9c0-0.4,0.1-0.8,0.5-1.3c0.4-0.4,1-0.7,1.6-0.7c0.4,0,0.8,0.1,1.1,0.3
		c0.8,0.7,0.7,2.4,0.5,3.6c0,0.3,0.1,0.6,0.3,0.8c0.2,0.2,0.5,0.3,0.8,0.2c1.8-0.5,3.4-1.3,5-2.1c0.8-0.4,1.5-0.8,2.3-1.1
		c0.4-0.2,0.6-0.5,0.5-0.9c0-0.2,0-0.4,0-0.5c-0.4-5-4.3-8.8-9.1-8.8c-2.2,0-4.3,0.8-6.1,2.4c-1.6,1.4-3.1,3.9-3.5,5.9
		c-0.5,2.6,0.3,5.3,2.3,7.5c0.7,0.7,1.4,1.3,2.2,1.8c1.1,0.8,2.2,1.6,2.6,2.8c0.2,0.4,0,0.8-0.1,1c-0.2,0.3-0.6,0.5-0.9,0.5
		c-0.3,0-0.5-0.1-0.7-0.3c-0.3-0.4-0.3-0.9-0.2-1.8c0-0.3,0-0.6-0.2-0.8c-0.2-0.2-0.5-0.3-0.8-0.3c-0.4,0.1-0.9,0.1-1.4,0.1
		c-0.8,0-1.6-0.1-2.3-0.1c-0.8-0.1-1.6-0.1-2.4-0.1c-0.4,0-0.7,0-1.1,0c-0.4,0-0.7,0.3-0.8,0.6C260.1,43.9,262.8,48.4,265.9,50.6z"
		/>
	<path class="st2" d="M273.9,35.9c-1.8-1.4-5.1-4.1-2.9-6.5c1.1-1.2,3-1.3,3.9-0.4c1.1,0.9,1,2.8,0.9,4.4c2.5-0.7,4.8-2.1,7.2-3.1
		c0-0.2,0-0.4-0.1-0.6c-0.6-7-8.3-10.5-13.7-5.8c-1.4,1.2-2.8,3.6-3.2,5.4c-0.5,2.5,0.4,4.9,2.1,6.7c1.6,1.7,4.1,2.6,4.9,4.9
		c0.8,2-1.8,3.7-3.2,2.1c-0.7-0.7-0.5-1.7-0.4-2.6c-2.3,0.3-5-0.3-7.3-0.1c-1.1,3.5,1.5,7.6,4.3,9.6c3.6,2.6,9,2.1,11.8-1.7
		c1.5-2,1.4-5.2,0.3-7.2C277.3,38.7,275.8,37.4,273.9,35.9z"/>
	<path class="st7" d="M271.8,34.1c-1.3-1.4-2.2-3.1-0.8-4.7c1.1-1.2,3-1.3,3.9-0.4c1.1,0.9,1,2.8,0.9,4.4c2.5-0.7,4.8-2.1,7.2-3.1
		c0-0.2,0-0.4-0.1-0.6c-0.6-7-8.3-10.5-13.7-5.8c-1.4,1.2-2.8,3.6-3.2,5.4c-0.4,1.7,0,3.5,0.8,5C268.5,34.1,270.2,34.1,271.8,34.1z"
		/>
	<g>
		<path class="st4" d="M269.3,24.9c5.3-4.6,12.7-1.3,13.6,5.3h0.1c0-0.2,0-0.4-0.1-0.6c-0.6-7-8.3-10.5-13.7-5.8
			c-1.4,1.2-2.8,3.6-3.2,5.4c-0.1,0.6-0.2,1.3-0.1,1.9c0-0.3,0.1-0.6,0.1-0.8C266.5,28.5,267.9,26.1,269.3,24.9z"/>
	</g>
	<path class="st4" d="M273.9,36.6c1.9,1.5,3.4,2.8,4.6,5c0.5,0.9,0.8,2,0.8,3.1c0.1-1.4-0.2-2.8-0.8-3.8c-1.3-2.3-2.7-3.5-4.6-5
		c-1.3-1-3.3-2.6-3.6-4.4C270,33.5,272.5,35.5,273.9,36.6z"/>
	<path class="st4" d="M269.9,43.7c1.4,1.5,3.7,0.1,3.3-1.7c-0.3,1.4-2.2,2.3-3.3,1c-0.3-0.3-0.4-0.7-0.5-1.2
		C269.3,42.5,269.4,43.2,269.9,43.7z"/>
	<path class="st4" d="M269.4,41.1c0-0.2,0.1-0.5,0.1-0.7c-2.3,0.3-5-0.3-7.3-0.1c-0.2,0.7-0.3,1.4-0.2,2.1c0-0.5,0.1-0.9,0.2-1.4
		C264.5,40.8,267.1,41.4,269.4,41.1z"/>
	<path class="st7" d="M262.8,44.3c-0.1,0,0,0.3,0.1,0.6c0.1,0.2,0.1,0.4,0.2,0.6c0.1,0.2,0.2,0.4,0.4,0.7c0.3,0.5,0.6,1,1,1.4
		c0.2,0.2,0.4,0.4,0.5,0.6c0.2,0.2,0.4,0.4,0.6,0.5c0.1,0.1,0.2,0.2,0.3,0.3c0.1,0.1,0.2,0.2,0.4,0.3c0.3,0.2,0.6,0.5,1,0.7
		c0.7,0.5,1.7,0.8,2.7,1s2,0.2,2.9,0s1.7-0.5,2.2-0.7c0.3-0.1,0.5-0.2,0.7-0.3c0.1,0,0.1-0.1,0.1-0.1c0.1,0,0.1-0.1,0.2-0.1
		c0.1-0.1,0.2-0.1,0.3-0.2c0.3-0.2,0.5-0.4,0.6-0.6c0.2-0.3,0.1-0.5,0.1-0.5c-0.1-0.1-0.1-0.2-0.4,0c-0.1,0.1-0.3,0.2-0.6,0.3
		c-0.1,0-0.2,0.1-0.2,0.1c-0.1,0-0.2,0.1-0.3,0.1c-0.1,0.1-0.2,0.1-0.4,0.2c-0.1,0.1-0.3,0.1-0.4,0.2c-0.6,0.3-1.3,0.5-2.1,0.6
		c-0.2,0-0.4,0.1-0.6,0.1c-0.2,0-0.4,0-0.6,0c-0.4,0-0.8,0-1.2-0.1H270c-0.1,0-0.2-0.1-0.3-0.1c-0.2-0.1-0.4-0.1-0.6-0.2
		c-0.4-0.2-0.7-0.3-1.1-0.5c-0.2-0.1-0.3-0.2-0.5-0.3c-0.2-0.1-0.3-0.2-0.4-0.3c-0.1-0.1-0.3-0.2-0.4-0.3c-0.1-0.1-0.2-0.2-0.3-0.3
		c-0.1-0.1-0.3-0.2-0.4-0.4c-0.2-0.1-0.3-0.3-0.5-0.5s-0.4-0.4-0.5-0.6c-0.2-0.2-0.3-0.4-0.5-0.6c-0.4-0.4-0.6-0.8-0.9-1.1
		C263,44.4,262.8,44.3,262.8,44.3z M278.2,46.1c0.1,0,0.2,0.1,0.2,0.4c0,0.1,0,0.3,0,0.5c0,0.1,0,0.2-0.1,0.3c0,0.1-0.1,0.2-0.2,0.3
		c-0.1,0.2-0.3,0.4-0.4,0.4c-0.1,0.1-0.2,0.1-0.3,0.1c-0.1-0.1-0.1-0.3-0.1-0.5c0.1-0.3,0.1-0.5,0.2-0.7c0.1-0.2,0.1-0.4,0.2-0.5
		C278,46.2,278.1,46.1,278.2,46.1z"/>
</g>
<g>
	<path class="st0" d="M290,53.1c0.1,0.3,0.4,0.7,0.7,0.9c0.1,0.3,0.4,0.6,0.6,0.9c0.3,0.3,0.7,0.5,1.1,0.5c0.3,0,0.6,0,0.9,0
		c1.5,0,3,0,4.5,0c3.1,0,6.2,0,9.3,0c0.5,0,1-0.1,1.4-0.5c0.5-0.5,0.4-1.1,0.4-1.7c0-1.6,0.1-3.2,0.1-4.8c0-0.2,0-0.5-0.1-0.7
		c-0.2-0.7-0.9-0.9-1.4-1.3c-0.6-0.5-1.3-0.9-2.1-0.9c-0.9,0-1.7,0-2.6-0.1c-0.3,0-0.6,0-0.9,0c-0.2,0-0.1-0.4-0.1-0.6s0-0.3,0-0.5
		c1.4,0.1,2.8,0.1,4.2,0.2c0.5,0,1.1,0.1,1.6,0c0.8-0.3,1-1,1-1.7c0.2-1.6,0.3-3.2,0.5-4.8c0-0.2,0-0.4,0-0.6
		c-0.1-0.7-0.6-0.9-1.1-1.3c-0.4-0.4-0.9-0.6-1.3-1c-0.3-0.2-0.6-0.2-0.9-0.2c-0.8,0-1.7-0.1-2.5-0.1c-0.2,0-1.4,0.1-1.4-0.2
		c0-0.1,0-0.8,0-0.8c0.2,0,0.3,0,0.5,0c0.8,0,1.6,0,2.4,0c1.3,0,2.7,0.1,4.1,0c1.7-0.2,1.3-2.6,1.2-3.8c0-1.6-0.1-3.3-0.1-4.9
		c0-0.8-0.2-1.3-0.9-1.8c-0.4-0.3-0.8-0.6-1.3-0.9c-0.3-0.2-0.6-0.4-1-0.4c-2.4,0.2-4.9,0.4-7.3,0.6c-3.4,0.3-6.7,0.6-10.1,0.9
		c-0.7,0.1-1.9,0-2.4,0.6c-0.3,0.5-0.1,1.3,0,1.8c0.6,6.5,1.3,13.1,1.9,19.6c0.2,1.7,0.3,3.4,0.5,5C289.6,51.3,289.5,52.6,290,53.1
		C290.1,53.2,289.8,52.9,290,53.1z"/>
	<path class="st1" d="M290.7,53.4h15c0.6,0,1-0.4,1-1l0.1-5.9c0-0.3-0.1-0.5-0.3-0.7s-0.4-0.3-0.7-0.3l-6-0.1l-0.1-3.1l5.7,0.2
		c0.5,0,1-0.4,1.1-0.9L307,36c0-0.3-0.1-0.6-0.2-0.8c-0.2-0.2-0.5-0.3-0.7-0.4l-6.3-0.2v-2.9h7.2c0.3,0,0.5-0.1,0.7-0.3
		c0.2-0.2,0.3-0.5,0.3-0.7l-0.1-7.6c0-0.3-0.1-0.6-0.3-0.7c-0.2-0.2-0.5-0.3-0.8-0.3l-19,1.6c-0.3,0-0.5,0.2-0.7,0.4
		c-0.2,0.2-0.3,0.5-0.2,0.8l2.7,27.7C289.7,53,290.2,53.4,290.7,53.4z"/>
	<polygon class="st2" points="307,23 307.1,30.7 298.9,30.7 298.9,35.6 306.1,35.8 305.6,41.4 298.8,41.2 298.9,46.4 305.9,46.5 
		305.7,52.4 290.7,52.4 288,24.6 	"/>
	<path class="st7" d="M290.6,41.2c2.3,0.3,4.5,0.4,6.9,0c1.7-0.3,3.5-0.7,5.6-1.4c0.9-0.3,1.9-0.6,2.7-0.9l0.3-3.1l-7.2-0.3v-4.9
		h8.2l-0.1-7.7l-19,1.6l1.6,16.4C289.9,41.1,290.2,41.2,290.6,41.2z"/>
	<path class="st4" d="M298.6,36l7.2,0.4c0,0,0,0.9,0.1,2.6l0.3-3.1l-7.2-0.3v-4.7L298.6,36z"/>
	<polygon class="st4" points="288.8,25.7 306.3,24 307.1,30.7 307,23 288,24.6 289,35 	"/>
	<polygon class="st4" points="298.8,41.2 298.9,46.4 305.9,46.5 305.8,48.8 305.4,47.1 298.4,46.7 	"/>
	<path class="st7" d="M304.4,52c0-0.4-3.4-0.8-5.3-0.9l-6.7-0.4l-0.2-2.3c-0.2-2.3-0.6-2.5-0.8-2.6c-0.2,0-0.5-0.2-0.3,2.6l0.2,3.3
		l7.7,0.5C300.4,52.3,304.3,52.4,304.4,52z M291.2,42.9c0.2-0.1,0.7,0.3,0.8,1.3c0,1-0.5,0.9-0.7,0.5C290.7,43.5,291,43,291.2,42.9z
		"/>
</g>
<g>
	<path class="st0" d="M350.8,50.8c0.1,0.3,0.4,0.6,0.6,0.9c0.1,0.3,0.4,0.6,0.6,0.8c0.6,0.5,1.7,0.5,2.4,0.6
		c1.6,0.3,3.2,0.4,4.9,0.5c2.8,0.2,5.7,0.1,8.5-0.7c3.2-1,5.8-3.1,6.5-6.5c0.4-1.9,0.2-3.9-0.5-5.7c-0.5-1.2-1.2-2.4-2.1-3.3
		c-1-1.1-2.3-1.9-3.5-2.7c1.5-2.3,1.8-5.1,0.5-7.6c-1.3-2.3-3.5-3.7-5.5-5.2c-2.3-1.7-5.4-1.9-8.1-1.5c-0.8,0.1-1.5,0.3-2.3,0.5
		c-0.7,0.2-1.8,0.3-2.2,1c-0.1,0.2-0.1,0.5-0.1,0.7c0,2.1,0,4.3,0,6.4c0,6.4-0.1,12.7-0.1,19.1C350.3,49,350.1,50.1,350.8,50.8
		C350.9,50.9,350.7,50.7,350.8,50.8z M359,31c0-0.2,0-0.4-0.1-0.6c0.2,0,0.3,0,0.2,0.2C359.1,30.7,359.1,30.8,359,31z M361.5,43.1
		c-0.2,0.6-0.9,1-1.4,1.2c0-0.7-0.1-1.3-0.2-2c0.4,0,0.7,0.1,1.1,0.2C361.4,42.6,361.6,42.6,361.5,43.1
		C361.4,43.6,361.5,43,361.5,43.1z"/>
	<path class="st1" d="M351.1,50.8c2.3,0.5,4.6,0.7,6.7,0.9c0.7,0,1.5,0.1,2.1,0.1c10.2,0,12.5-4.7,12.6-8.6s-2.5-8.3-6.6-9.6
		c0.8-1.1,1.8-2.9,1.7-5c-0.1-2.5-1.7-4.7-4.5-6.7c-2.1-1.4-4.7-1.9-7.8-1.4c-1.3,0.2-2.6,0.5-4.1,1c-0.4,0.1-0.6,0.5-0.6,0.9
		l-0.2,27.5C350.3,50.3,350.6,50.7,351.1,50.8z M356.9,28.4c2.3,0.2,2.3,1.3,2.3,1.8c0,0.9-0.7,1.6-2,2L356.9,28.4z M361.5,43.1
		c-0.2,0.8-1.4,1.4-3.2,1.7c-0.1-1.4-0.2-2.9-0.4-4.4c1.1,0,2,0.2,2.6,0.6C361.2,41.5,361.7,42.4,361.5,43.1z"/>
	<path class="st2" d="M364.1,34.1c0,0,6.7-5.8-1.5-11.5c-2-1.4-4.5-1.7-7.1-1.3c-1.3,0.2-2.6,0.5-3.9,1c0,6.5-0.1,20-0.2,27.5
		c1.8,0.3,4.1,0.7,6.5,0.8c6.4,0.4,13.6-0.8,13.8-7.6C371.7,38.9,368.6,34.5,364.1,34.1z M360.2,30.1c0,2.2-2.2,2.9-3.8,3.1
		c-0.2-2-0.3-4-0.5-5.9C357.7,27.3,360.2,27.6,360.2,30.1z M357.4,45.8c-0.2-2-0.4-4.2-0.5-6.4c1.4-0.1,3.1-0.1,4.2,0.8
		C363,41.7,364,45.3,357.4,45.8z"/>
	<g class="st6">
		<path class="st2" d="M359.7,35.6c3.1-0.2,6.1,0,9.1,0.8h0.1c-1.3-1.3-2.9-2.1-4.8-2.3c0,0,6.7-5.8-1.5-11.5
			c-2-1.4-4.5-1.7-7.1-1.3c-1.3,0.2-2.6,0.5-3.9,1c0,3.5-0.1,8.9-0.1,14.3C354.1,36.1,356.9,35.7,359.7,35.6z M360.2,30.1
			c0,2.2-2.2,2.9-3.8,3.1c-0.2-2-0.3-4-0.5-5.9C357.7,27.3,360.2,27.6,360.2,30.1z"/>
	</g>
	<g>
		<path class="st8" d="M362.2,23.9c2.5,1.7,3.8,3.5,3.9,5.5c0.2,2.9-2.3,5.1-2.4,5.1l0,0c0.7,0,1.4,0.1,2,0.3
			c0.7,0.2,1.4,0.4,2.1,0.7c-1.1-0.7-2.3-1.2-3.7-1.4c0,0,6.7-5.8-1.5-11.5c-2-1.4-4.5-1.7-7.1-1.3c-1.3,0.2-2.6,0.5-3.9,1
			c0,2.3,0,5.5-0.1,9c0,1.7,0.6-7.8,0.6-7.8c1.2-0.4,2.3-0.7,3.4-0.8c0.7-0.1,1.4-0.1,2-0.1C359.3,22.5,360.9,23,362.2,23.9z"/>
	</g>
	<g>
		<path class="st8" d="M359.6,28.4c0.4,0.4,0.6,1,0.6,1.7c0,2.2-2.2,2.9-3.8,3.1c-0.2-2-0.3-3.9-0.5-5.7l0,0l0.2,6.2l0.6-0.1
			c2.8-0.4,3.7-1.4,3.7-3.4C360.4,29.6,360.2,29.1,359.6,28.4z"/>
	</g>
	<path class="st7" d="M353.7,49.1c0,0.1,0.2,0.2,0.6,0.4c0.2,0.1,0.5,0.1,0.7,0.2c0.3,0.1,0.6,0.1,0.9,0.2c0.7,0.1,1.4,0.2,2.1,0.3
		c0.4,0,0.7,0,1.1,0c0.3,0,0.7,0,1,0c1.2,0,3.6-0.2,5.9-1c0.6-0.2,1.2-0.5,1.7-0.8c0.5-0.4,1-0.8,1.4-1.3c0.8-0.9,1.1-2,1.3-2.7
		s0.2-1.3,0.2-1.8c0-0.4-0.1-0.8-0.2-1c-0.1-0.4-0.3-0.5-0.4-0.5c-0.1,0-0.2,0-0.3,0.3c0,0.2,0,0.5-0.1,0.9c0,0.4-0.1,1-0.3,1.8
		s-0.5,1.6-1.2,2.4c-0.3,0.4-0.7,0.7-1.1,1c-0.4,0.3-0.9,0.5-1.4,0.7c-2.1,0.7-4.2,1-5.7,1c-0.4,0-1,0-1.7,0c-0.3,0-0.7,0-1,0
		c-0.4,0-0.7,0-1.1-0.1c-0.7,0-1.3-0.1-1.8-0.1C354.1,49,353.8,49,353.7,49.1z M369.1,37.8c0.1-0.1,0.8,0.1,1.2,1.4
		c0.2,0.6,0.1,0.9,0,1s-0.3-0.1-0.5-0.3c-0.4-0.7-0.7-1.1-0.8-1.5C369,38.1,369,37.9,369.1,37.8z"/>
</g>
<g>
	<path class="st0" d="M378.6,49.9c0.1,0.3,0.4,0.7,0.7,0.9c0.1,0.3,0.4,0.6,0.6,0.9c0.3,0.3,0.7,0.5,1.1,0.5c0.3,0,0.6,0,0.9,0
		c1.5,0,3,0,4.5,0c3.1,0,6.2,0,9.3,0c0.5,0,1-0.1,1.4-0.5c0.5-0.5,0.4-1.1,0.4-1.7c0-1.6,0.1-3.2,0.1-4.8c0-0.2,0-0.5-0.1-0.7
		c-0.2-0.7-0.9-0.9-1.4-1.3c-0.6-0.5-1.3-0.9-2.1-0.9c-0.9,0-1.7,0-2.6-0.1c-0.3,0-0.6,0-0.9,0c-0.2,0-0.1-0.4-0.1-0.6s0-0.3,0-0.5
		c1.4,0.1,2.8,0.1,4.2,0.2c0.5,0,1.1,0.1,1.6,0c0.8-0.3,1-1,1-1.7c0.2-1.6,0.3-3.2,0.5-4.8c0-0.2,0-0.4,0-0.6
		c-0.1-0.7-0.6-0.9-1.1-1.3c-0.4-0.4-0.9-0.6-1.3-1c-0.3-0.2-0.6-0.2-0.9-0.2c-0.8,0-1.7-0.1-2.5-0.1c-0.2,0-1.4,0.1-1.4-0.2
		c0-0.1,0-0.8,0-0.8c0.2,0,0.3,0,0.5,0c0.8,0,1.6,0,2.4,0c1.3,0,2.7,0.1,4.1,0c1.7-0.2,1.3-2.6,1.2-3.8c0-1.6-0.1-3.3-0.1-4.9
		c0-0.8-0.2-1.3-0.9-1.8c-0.4-0.3-0.8-0.6-1.3-0.9c-0.3-0.2-0.6-0.4-1-0.4c-2.4,0.2-4.9,0.4-7.3,0.6c-3.4,0.3-6.7,0.6-10.1,0.9
		c-0.7,0.1-1.9,0-2.4,0.6c-0.3,0.5-0.1,1.3,0,1.8c0.6,6.5,1.3,13.1,1.9,19.6c0.2,1.7,0.3,3.4,0.5,5
		C378.2,48.1,378.1,49.4,378.6,49.9C378.7,50,378.4,49.7,378.6,49.9z"/>
	<path class="st1" d="M379.3,50.2h15c0.6,0,1-0.4,1-1l0.1-5.9c0-0.3-0.1-0.5-0.3-0.7s-0.4-0.3-0.7-0.3l-6-0.1l-0.1-3.1l5.7,0.2
		c0.5,0,1-0.4,1.1-0.9l0.5-5.6c0-0.3-0.1-0.6-0.2-0.8c-0.2-0.2-0.5-0.3-0.7-0.4l-6.3-0.2v-2.9h7.2c0.3,0,0.5-0.1,0.7-0.3
		c0.2-0.2,0.3-0.5,0.3-0.7l-0.1-7.6c0-0.3-0.1-0.6-0.3-0.7c-0.2-0.2-0.5-0.3-0.8-0.3l-19,1.6c-0.3,0-0.5,0.2-0.7,0.4
		c-0.2,0.2-0.3,0.5-0.2,0.8l2.7,27.7C378.3,49.8,378.8,50.2,379.3,50.2z"/>
	<polygon class="st2" points="395.6,19.8 395.7,27.5 387.5,27.5 387.5,32.4 394.8,32.7 394.2,38.3 387.4,38 387.5,43.2 394.5,43.3 
		394.3,49.2 379.3,49.2 376.6,21.5 	"/>
	<path class="st7" d="M379.2,38c2.3,0.3,4.5,0.4,6.9,0c1.7-0.3,3.5-0.7,5.6-1.4c0.9-0.3,1.9-0.6,2.7-0.9l0.3-3.1l-7.2-0.3v-4.9h8.2
		l-0.1-7.7l-19,1.6l1.6,16.4C378.5,38,378.8,38,379.2,38z"/>
	<path class="st4" d="M387.2,32.8l7.2,0.4c0,0,0,0.9,0.1,2.6l0.3-3.1l-7.2-0.3v-4.7L387.2,32.8z"/>
	<polygon class="st4" points="377.4,22.5 394.9,20.8 395.7,27.5 395.6,19.8 376.6,21.5 377.6,31.8 	"/>
	<polygon class="st4" points="387.4,38 387.5,43.2 394.5,43.3 394.4,45.6 394,43.9 387,43.5 	"/>
	<path class="st7" d="M393,48.8c0-0.4-3.4-0.8-5.3-0.9l-6.7-0.4l-0.2-2.3c-0.2-2.3-0.6-2.5-0.8-2.6c-0.2,0-0.5-0.2-0.3,2.6l0.2,3.3
		l7.7,0.5C389,49.1,392.9,49.2,393,48.8z M379.8,39.7c0.2-0.1,0.7,0.3,0.8,1.3c0,1-0.5,0.9-0.7,0.5
		C379.3,40.4,379.6,39.8,379.8,39.7z"/>
</g>
<g>
	<path class="st0" d="M411.9,49.8c0,0.6,0.7,1.2,1,1.7c0.4,0.6,0.8,1.3,1.7,1.2c0.4,0,0.7-0.2,1.1-0.2c1.6-0.4,3.3-0.7,4.9-1.1
		c1-0.2,3.1-0.3,3.2-1.7c0-0.6-0.2-1.4-0.3-2c-0.9-5.6-1.7-11.1-2.6-16.7c0,0,0,0,0-0.1c2.6,0.1,5.3,0.3,7.9,0.4
		c0.5,0,1.1-0.1,1.4-0.6s0.2-1,0.2-1.6c-0.1-1.6-0.2-3.2-0.3-4.8c0-0.7-0.1-1.4-0.1-2.1c0-0.6-0.1-1.2-0.6-1.6
		c-0.6-0.4-1.2-0.8-1.7-1.2c-0.2-0.2-0.4-0.2-0.7-0.2c-0.2,0-0.4,0-0.7,0c-2.7,0.1-5.3,0.3-8,0.4c-3.5,0.2-7,0.4-10.5,0.6
		c-1.2,0.1-2.5,0.1-3.7,0.2c-0.5,0-1.3-0.1-1.8,0.2c-0.6,0.4-0.4,1-0.4,1.6c0.1,0.7,0.2,1.4,0.3,2.2c0.2,1.5,0.5,3.1,0.7,4.6
		c0.1,0.8,0.6,1.3,1.1,2c0.4,0.6,0.8,1.2,1.6,1.2c0.2,0,0.4-0.1,0.6-0.1c1.5-0.3,3-0.5,4.5-0.8c0.1,0,0.2,0,0.2,0
		c0.3,5.4,0.6,10.9,0.9,16.4C411.8,48.3,411.8,49.1,411.9,49.8z"/>
	<path class="st1" d="M411.9,49.8c0,0.3,0.2,0.6,0.4,0.7s0.4,0.2,0.6,0.2c0.1,0,0.1,0,0.2,0l8-1.8c0.5-0.1,0.8-0.6,0.7-1.1l-3-18.9
		l8.6,0.5l0,0l0,0c0.5,0,1-0.4,1-1c0-0.1,0-0.1,0-0.2l-0.5-8c0-0.5-0.5-0.9-1-0.9l-24.2,1.3c-0.3,0-0.5,0.2-0.7,0.4
		c-0.2,0.2-0.3,0.5-0.2,0.8l1.2,7.7c0,0.3,0.2,0.5,0.4,0.6c0.2,0.2,0.5,0.2,0.7,0.2l6.6-1.1L411.9,49.8z"/>
	<polygon class="st2" points="402.8,21.5 404,29.2 411.7,27.9 412.9,49.7 420.8,47.9 417.7,27.8 427.5,28.3 427,20.2 	"/>
	<path class="st7" d="M411.7,27.9l0.4,6.6c2.2,0.1,4.5-0.1,6.7-0.3l-1-6.4l9.8,0.5l-0.5-8.1l-24.2,1.3l1.2,7.7L411.7,27.9z"/>
	<polygon class="st4" points="427,20.2 402.8,21.5 403.3,25.1 403.5,22.8 426.4,21.6 427.4,26.8 	"/>
	<path class="st9" d="M419.7,47.6c-0.1-0.4-3.1-0.2-4.8,0.1l-0.7,0.1l-0.5-7.2c-0.2-2.1-0.6-2.3-0.8-2.3s-0.5-0.1-0.3,2.4l0.6,8.3
		l1.8-0.2C416.2,48.6,419.7,48,419.7,47.6z M412.6,35.7c0.2-0.1,0.7,0.3,0.8,1.2c0,0.9-0.4,0.8-0.6,0.4
		C412.2,36.3,412.5,35.8,412.6,35.7z"/>
</g>
<g>
	<path class="st0" d="M432.9,20.4c-0.3,0.5,0,1.3,0.1,1.9c0.3,1.1,0.5,2.2,0.8,3.3c0.8,3.4,1.6,6.7,2.4,10.1
		c0.8,3.3,1.6,6.6,2.3,9.9c0.2,1,0.5,2,0.7,3c0.1,0.2,0.1,0.5,0.2,0.7c0.1,0.6,0.7,1.2,1,1.7c0.4,0.5,0.7,1.1,1.4,1.2
		c0.2,0,0.4,0,0.5,0c0.8,0,1.6-0.1,2.4-0.1s1.6-0.1,2.4-0.1c0.7,0,1.5-0.2,1.7-1c0.9-2.5,1.5-5.1,2.2-7.7v-0.1
		c0.5,1.3,1,2.6,1.5,3.9c0.1,0.2,0.1,0.4,0.2,0.5c0.1,0.2,0.4,0.5,0.6,0.7c0.1,0.3,0.3,0.6,0.5,0.9c0.4,0.7,0.9,1,1.7,1
		c1.6-0.1,3.2-0.1,4.9-0.2c0.5,0,1.1,0,1.6-0.3c0.4-0.3,0.6-0.7,0.7-1.1c1.2-5.9,2.4-11.9,3.6-17.8c0.2-1.2,0.5-2.4,0.7-3.6
		c0.2-0.9,0.5-2-0.5-2.5c-0.2-0.2-0.6-0.5-0.9-0.6c-0.2-0.2-0.6-0.5-0.9-0.6c-0.1-0.1-0.3-0.1-0.5-0.1c-0.6-0.2-1.3-0.4-1.9-0.6
		c-1.6-0.5-3.1-0.9-4.7-1.4c-0.7-0.2-1.5-0.1-1.7,0.8c-0.1,0.7-0.2,1.5-0.4,2.2c-0.3,1.7-0.5,3.4-0.8,5.1c-0.5-1.1-1-2.1-1.5-3.2
		c-0.1-0.3-0.3-0.6-0.6-0.7c-0.5-0.3-1.1-0.8-1.6-1.1c-0.6-0.6-1.4-0.2-1.7,0.4c-1.1,2.1-2.1,4.2-3.2,6.3c-0.7-2.8-1.3-5.5-2-8.3
		c-0.1-0.5-0.2-1-0.4-1.5c-0.2-0.9-1.1-1.3-1.9-1.8c-0.4-0.3-0.8-0.7-1.4-0.6c-0.2,0-0.3,0.1-0.5,0.1c-0.8,0.1-1.5,0.3-2.3,0.4
		c-1.1,0.2-2.1,0.4-3.2,0.5C434.1,19.9,433.2,19.9,432.9,20.4C432.7,20.7,433,20.2,432.9,20.4z"/>
	<path class="st1" d="M432.9,20.4c-0.2,0.2-0.2,0.5-0.1,0.8l6.6,28.2c0.1,0.5,0.5,0.8,1,0.8l0,0l5.5-0.3c0.4,0,0.8-0.3,0.9-0.7
		l2.8-9.8l3.1,8c0.2,0.4,0.5,0.7,1,0.6l6.1-0.3c0.5,0,0.8-0.4,0.9-0.8l4.6-22.5c0.1-0.5-0.2-1-0.7-1.2l-7.3-2.2
		c-0.3-0.1-0.6,0-0.8,0.1c-0.2,0.2-0.4,0.4-0.5,0.7l-1.5,9.5l-3.2-6.9c-0.2-0.4-0.5-0.6-0.9-0.6s-0.8,0.2-0.9,0.6l-4.4,8.7
		l-3.3-13.6c-0.1-0.5-0.6-0.8-1.2-0.8l-7.2,1.2C433.2,20,433,20.2,432.9,20.4z"/>
	<polygon class="st2" points="433.7,21 440.8,19.8 444.8,36.1 450.4,24.9 455,34.9 457,22.1 464.3,24.2 459.7,46.7 453.7,47 
		449.5,36.2 445.8,48.9 440.3,49.2 	"/>
	<g class="st3">
		<path class="st2" d="M444.7,39.3c0.7,0.1,1.3,0.2,2,0.2c0.2,0,0.7,0,0.8,0c0.3,0,0.7,0,1,0l0.9-3.3l1.2,3.2
			c1.5-0.1,2.9-0.3,4.4-0.5c2.2-0.4,4.4-0.9,6.6-1.4l2.7-13.3L457,22l-2,12.8l-4.6-10L444.7,36l-3.9-16.3l-7.1,1.2l3.9,16.5
			C439.8,38.4,441.9,38.9,444.7,39.3z"/>
	</g>
	<g>
		<polygon class="st4" points="434.4,22.3 440.4,21.3 444.6,37.8 450.4,27.1 455.3,37.8 457.5,23.7 463.6,25.5 462.6,32.8 
			464.3,24.2 457,22.1 455,34.9 450.4,24.9 444.8,36.1 440.8,19.8 433.7,21 435.2,27.3 		"/>
	</g>
	<path class="st5" d="M441.1,48.3c0,0.4,2,0.4,3,0.3l1.3-0.1l1.5-4.8c0.4-1.2,0.1-1.5-0.1-1.6s-0.4-0.2-0.9,1.3l-1.3,4.1l-0.6,0.1
		C443.3,47.5,441.1,47.9,441.1,48.3z M447.2,40.4c0.2,0,0.6,0.4,0.4,1c-0.2,0.5-0.6,0.3-0.7,0C446.7,40.6,447,40.4,447.2,40.4z"/>
	<path class="st5" d="M454.6,46.1c0,0.4,2,0.4,3,0.3l1.8-0.2l0.8-4.6c0.2-1.3-0.2-1.5-0.4-1.5c-0.2-0.1-0.4-0.2-0.7,1.4l-0.6,3.8
		l-1,0.1C456.7,45.5,454.5,45.7,454.6,46.1z M460,38.6c0.2,0,0.7,0.3,0.5,0.9c-0.1,0.6-0.6,0.4-0.7,0.1
		C459.5,38.8,459.8,38.6,460,38.6z"/>
</g>
<g>
	<path class="st0" d="M476.5,50.7c0.1,0.3,0.4,0.7,0.7,0.9c0.1,0.3,0.4,0.6,0.6,0.9c0.3,0.3,0.7,0.5,1.1,0.5c0.3,0,0.6,0,0.9,0
		c1.5,0,3,0,4.5,0c3.1,0,6.2,0,9.3,0c0.5,0,1-0.1,1.4-0.5c0.5-0.5,0.4-1.1,0.4-1.7c0-1.6,0.1-3.2,0.1-4.8c0-0.2,0-0.5-0.1-0.7
		c-0.2-0.7-0.9-0.9-1.4-1.3c-0.6-0.5-1.3-0.9-2.1-0.9c-0.9,0-1.7,0-2.6-0.1c-0.3,0-0.6,0-0.9,0c-0.2,0-0.1-0.4-0.1-0.6s0-0.3,0-0.5
		c1.4,0.1,2.8,0.1,4.2,0.2c0.5,0,1.1,0.1,1.6,0c0.8-0.3,1-1,1-1.7c0.2-1.6,0.3-3.2,0.5-4.8c0-0.2,0-0.4,0-0.6
		c-0.1-0.7-0.6-0.9-1.1-1.3c-0.4-0.4-0.9-0.6-1.3-1c-0.3-0.2-0.6-0.2-0.9-0.2c-0.8,0-1.7-0.1-2.5-0.1c-0.2,0-1.4,0.1-1.4-0.2
		c0-0.1,0-0.8,0-0.8c0.2,0,0.3,0,0.5,0c0.8,0,1.6,0,2.4,0c1.3,0,2.7,0.1,4.1,0c1.7-0.2,1.3-2.6,1.2-3.8c0-1.6-0.1-3.3-0.1-4.9
		c0-0.8-0.2-1.3-0.9-1.8c-0.4-0.3-0.8-0.6-1.3-0.9c-0.3-0.2-0.6-0.4-1-0.4c-2.4,0.2-4.9,0.4-7.3,0.6c-3.4,0.3-6.7,0.6-10.1,0.9
		c-0.7,0.1-1.9,0-2.4,0.6c-0.3,0.5-0.1,1.3,0,1.8c0.6,6.5,1.3,13.1,1.9,19.6c0.2,1.7,0.3,3.4,0.5,5C476,48.9,475.9,50.2,476.5,50.7
		C476.5,50.8,476.3,50.5,476.5,50.7z"/>
	<path class="st1" d="M477.2,51h15c0.6,0,1-0.4,1-1l0.1-5.9c0-0.3-0.1-0.5-0.3-0.7s-0.4-0.3-0.7-0.3l-6-0.1l-0.1-3.1l5.7,0.2
		c0.5,0,1-0.4,1.1-0.9l0.5-5.6c0-0.3-0.1-0.6-0.2-0.8c-0.2-0.2-0.5-0.3-0.7-0.4l-6.3-0.2v-2.9h7.2c0.3,0,0.5-0.1,0.7-0.3
		c0.2-0.2,0.3-0.5,0.3-0.7l-0.1-7.6c0-0.3-0.1-0.6-0.3-0.7c-0.2-0.2-0.5-0.3-0.8-0.3l-19,1.6c-0.3,0-0.5,0.2-0.7,0.4
		c-0.2,0.2-0.3,0.5-0.2,0.8l2.7,27.7C476.2,50.6,476.6,51,477.2,51z"/>
	<polygon class="st2" points="493.4,20.6 493.6,28.3 485.4,28.3 485.4,33.2 492.6,33.4 492.1,39.1 485.2,38.8 485.4,44 492.3,44.1 
		492.2,50 477.2,50 474.4,22.2 	"/>
	<path class="st7" d="M477,38.8c2.3,0.3,4.5,0.4,6.9,0c1.7-0.3,3.5-0.7,5.6-1.4c0.9-0.3,1.9-0.6,2.7-0.9l0.3-3.1l-7.2-0.3v-4.9h8.2
		l-0.1-7.7l-19,1.6l1.6,16.4C476.4,38.8,476.7,38.8,477,38.8z"/>
	<path class="st4" d="M485,33.6l7.2,0.4c0,0,0,0.9,0.1,2.6l0.3-3.1l-7.2-0.3v-4.7L485,33.6z"/>
	<polygon class="st4" points="475.3,23.3 492.8,21.6 493.6,28.3 493.4,20.6 474.4,22.2 475.5,32.6 	"/>
	<polygon class="st4" points="485.2,38.8 485.4,44 492.3,44.1 492.3,46.4 491.9,44.7 484.9,44.3 	"/>
	<path class="st7" d="M490.8,49.6c0-0.4-3.4-0.8-5.3-0.9l-6.7-0.4l-0.2-2.3c-0.2-2.3-0.6-2.5-0.8-2.6c-0.2,0-0.5-0.2-0.3,2.6
		l0.2,3.3l7.7,0.5C486.9,49.9,490.8,50,490.8,49.6z M477.6,40.5c0.2-0.1,0.7,0.3,0.8,1.3c0,1-0.5,0.9-0.7,0.5
		C477.2,41.1,477.4,40.6,477.6,40.5z"/>
</g>
<g>
	<path class="st0" d="M501.6,48.6c0.1,0.3,0.4,0.7,0.7,0.9c0.1,0.3,0.4,0.6,0.6,0.9c0.3,0.3,0.7,0.5,1.1,0.5c0.3,0,0.6,0,0.9,0
		c1.5,0,3,0,4.5,0c3.1,0,6.2,0,9.3,0c0.5,0,1-0.1,1.4-0.5c0.5-0.5,0.4-1.1,0.4-1.7c0-1.6,0.1-3.2,0.1-4.8c0-0.2,0-0.5-0.1-0.7
		c-0.2-0.7-0.9-0.9-1.4-1.3c-0.6-0.5-1.3-0.9-2.1-0.9c-0.9,0-1.7,0-2.6-0.1c-0.3,0-0.6,0-0.9,0c-0.2,0-0.1-0.4-0.1-0.6s0-0.3,0-0.5
		c1.4,0.1,2.8,0.1,4.2,0.2c0.5,0,1.1,0.1,1.6,0c0.8-0.3,1-1,1-1.7c0.2-1.6,0.3-3.2,0.5-4.8c0-0.2,0-0.4,0-0.6
		c-0.1-0.7-0.6-0.9-1.1-1.3c-0.4-0.4-0.9-0.6-1.3-1c-0.3-0.2-0.6-0.2-0.9-0.2c-0.8,0-1.7-0.1-2.5-0.1c-0.2,0-1.4,0.1-1.4-0.2
		c0-0.1,0-0.8,0-0.8c0.2,0,0.3,0,0.5,0c0.8,0,1.6,0,2.4,0c1.3,0,2.7,0.1,4.1,0c1.7-0.2,1.3-2.6,1.2-3.8c0-1.6-0.1-3.3-0.1-4.9
		c0-0.8-0.2-1.3-0.9-1.8c-0.4-0.3-0.8-0.6-1.3-0.9c-0.3-0.2-0.6-0.4-1-0.4c-2.4,0.2-4.9,0.4-7.3,0.6c-3.4,0.3-6.7,0.6-10.1,0.9
		c-0.7,0.1-1.9,0-2.4,0.6c-0.3,0.5-0.1,1.3,0,1.8c0.6,6.5,1.3,13.1,1.9,19.6c0.2,1.7,0.3,3.4,0.5,5
		C501.2,46.8,501.1,48.1,501.6,48.6C501.6,48.7,501.4,48.5,501.6,48.6z"/>
	<path class="st1" d="M502.3,48.9h15c0.6,0,1-0.4,1-1l0.1-5.9c0-0.3-0.1-0.5-0.3-0.7c-0.2-0.2-0.4-0.3-0.7-0.3l-6-0.1l-0.1-3.1
		L517,38c0.5,0,1-0.4,1.1-0.9l0.5-5.6c0-0.3-0.1-0.6-0.2-0.8c-0.2-0.2-0.5-0.3-0.7-0.4l-6.3-0.2v-2.9h7.2c0.3,0,0.5-0.1,0.7-0.3
		c0.2-0.2,0.3-0.5,0.3-0.7l-0.1-7.6c0-0.3-0.1-0.6-0.3-0.7c-0.2-0.2-0.5-0.3-0.8-0.3l-19,1.6c-0.3,0-0.5,0.2-0.7,0.4
		c-0.2,0.2-0.3,0.5-0.2,0.8l2.7,27.7C501.3,48.5,501.8,48.9,502.3,48.9z"/>
	<polygon class="st2" points="518.6,18.5 518.7,26.2 510.5,26.2 510.5,31.1 517.7,31.4 517.2,37 510.4,36.7 510.5,41.9 517.5,42 
		517.3,47.9 502.3,47.9 499.6,20.2 	"/>
	<path class="st7" d="M502.1,36.7c2.3,0.3,4.5,0.4,6.9,0c1.7-0.3,3.5-0.7,5.6-1.4c0.9-0.3,1.9-0.6,2.7-0.9l0.3-3.1l-7.2-0.3v-4.9
		h8.2l-0.1-7.7l-19,1.6l1.6,16.4C501.5,36.7,501.8,36.7,502.1,36.7z"/>
	<path class="st4" d="M510.2,31.5l7.2,0.4c0,0,0,0.9,0.1,2.6l0.3-3.1l-7.2-0.3v-4.7L510.2,31.5z"/>
	<polygon class="st4" points="500.4,21.2 517.9,19.5 518.7,26.2 518.6,18.5 499.6,20.2 500.6,30.5 	"/>
	<polygon class="st4" points="510.4,36.7 510.5,41.9 517.5,42 517.4,44.3 517,42.6 510,42.3 	"/>
	<path class="st7" d="M516,47.5c0-0.4-3.4-0.8-5.3-0.9l-6.7-0.4l-0.2-2.3c-0.2-2.3-0.6-2.5-0.8-2.6c-0.2,0-0.5-0.2-0.3,2.6l0.2,3.3
		l7.7,0.5C512,47.8,515.9,47.9,516,47.5z M502.8,38.5c0.2-0.1,0.7,0.3,0.8,1.3c0,1-0.5,0.9-0.7,0.5
		C502.3,39.1,502.6,38.5,502.8,38.5z"/>
</g>
<g>
	<path class="st0" d="M540.5,21.3c-0.3-0.2-0.6-0.5-0.9-0.7c-0.2-0.2-0.6-0.5-0.9-0.6c-0.2-0.1-0.4-0.1-0.6-0.1
		c-0.7-0.1-1.4-0.2-2.2-0.3c-1.4-0.2-2.7-0.3-4.1-0.5c-1.1-0.1-1.2,1-1.2,1.8c-0.1,1.1-0.2,2.1-0.3,3.2c-0.7,6.9-1.3,13.8-2,20.7
		c-0.1,1.1-0.2,2.1-0.3,3.2c0,0.3-0.1,0.5-0.1,0.8c-0.1,0.6,0.3,0.9,0.6,1.4c0.5,0.7,1.1,1.8,2,1.9c0.4,0,0.8,0,1.3,0.1
		c1.8,0.1,3.5,0.2,5.3,0.3c1.1,0.1,2.3,0.1,3.4,0.2c0.6,0,1.2-0.2,1.5-0.8c0.2-0.4,0.1-0.9,0-1.4c-0.3-2.5-0.5-4.9-0.8-7.4
		c1.4,2.1,2.8,4.3,4.2,6.4c0.4,0.5,0.8,1.4,1.3,1.7c0.5,0.3,1.2,0.2,1.8,0.2c1.4,0,2.9,0.1,4.3,0c1.3,0,1.4-1.1,1.5-2.1
		c0.1-1.1,0.2-2.2,0.3-3.2c0.4-3.5,0.8-7,1.1-10.5c0.3-3.2,0.7-6.5,1-9.7c0.1-0.8,0.2-1.5,0.2-2.3c0.1-0.6-0.2-1.3-0.8-1.6
		c-0.3-0.2-0.6-0.5-0.9-0.7c-0.2-0.2-0.6-0.5-0.9-0.6c-0.2-0.1-0.4-0.1-0.6-0.1c-2.5-0.1-5-0.1-7.6-0.2c-1,0-2,0-2.9-0.1
		c-0.8,0-1.3,0.6-1.1,1.4c0.3,1.4,0.5,2.7,0.6,4.1c-0.3-0.7-0.7-1.5-1-2.2C541.6,22.9,541.3,21.7,540.5,21.3
		C540.4,21.2,540.8,21.4,540.5,21.3z"/>
	<path class="st1" d="M538.4,19.9l-6.6-0.8c-0.3,0-0.6,0-0.8,0.2c-0.2,0.2-0.4,0.4-0.4,0.7l-2.7,28.8c0,0.3,0.1,0.5,0.2,0.8
		c0.2,0.2,0.4,0.3,0.7,0.4l10.1,0.5c0,0,0,0,0.1,0l0,0c0.6,0,1-0.5,1-1c0-0.1,0-0.2,0-0.2l-1-9.8l6,9.3c0.2,0.3,0.5,0.5,0.9,0.5h5.3
		c0.5,0,1-0.4,1-0.9l2.9-26.6c0-0.3-0.1-0.6-0.2-0.8c-0.2-0.2-0.5-0.3-0.7-0.3l-10.8-0.3c-0.3,0-0.6,0.1-0.8,0.4
		c-0.2,0.2-0.3,0.6-0.2,0.9c0.5,2,0.8,5.2,1.1,8l-4.2-9.1C539,20.2,538.7,20,538.4,19.9z"/>
	<path class="st2" d="M539.1,49.5L529,49l2.7-28.8l6.6,0.8l6.6,14.2c0,0-0.5-9.6-1.5-13.8l10.8,0.3l-2.9,26.6H546l-8.3-13
		L539.1,49.5z"/>
	<g class="st3">
		<path class="st2" d="M532.7,32c3.4-0.5,6.9-0.8,10.3-0.6L538.2,21l-6.6-0.8l-1.2,12.2C531.2,32.2,532,32.1,532.7,32z"/>
	</g>
	<g class="st3">
		<path class="st2" d="M546.6,31.6c2.1,0.2,4.2,0.6,6.3,1.1l1.2-11.1l-10.8-0.3c0.6,2.5,1,6.9,1.2,10.1
			C545.2,31.5,545.9,31.5,546.6,31.6z"/>
	</g>
	<g>
		<path class="st4" d="M538.2,20.9l-6.6-0.8l-1.2,12.2c0.2,0,1.7-11.3,1.7-11.3l5.6,1.2l7.2,13.1L538.2,20.9z"/>
	</g>
	<g>
		<path class="st4" d="M543.9,22.3l9.4,0.7l-0.1,5.5l0.7-6.9l-10.8-0.3c0.2,0.9,0.4,2,0.5,3.2L543.9,22.3z"/>
	</g>
	<path class="st5" d="M529.9,48c0,0.4,3.3,0.8,5.1,1l3.6,0.3l-0.9-7.4c-0.3-2.2-0.7-2.4-0.9-2.4c-0.2,0-0.5-0.1-0.1,2.6l0.8,6.1
		l-2.3-0.2C533.7,47.8,529.9,47.6,529.9,48z M536.3,36.6c0.2-0.1,0.7,0.3,0.9,1.2c0.1,1-0.4,0.9-0.6,0.5
		C535.9,37.2,536.1,36.6,536.3,36.6z"/>
	<path class="st5" d="M546.8,47.5c0,0.2,0.5,0.3,1.2,0.4c0.4,0,0.8,0.1,1.2,0.1c0.2,0,0.4,0,0.6,0c0.4,0,0.7,0,1,0
		c0-0.3,0.1-0.5,0.1-0.8c0.2-1.4,0.7-5.8,0.9-7.5c0.2-1.7-0.2-2-0.4-2c-0.2,0-0.4-0.2-0.7,1.9c-0.2,2-0.7,5.5-0.9,7.3l0,0l0,0
		c-0.2,0-0.4,0-0.6,0c-0.4,0-0.8,0-1.2,0.1C547.4,47.2,546.8,47.3,546.8,47.5z M551.6,35.6c0.2,0,0.7,0.4,0.6,1.1s-0.6,0.6-0.7,0.2
		C551.1,36,551.4,35.6,551.6,35.6z"/>
</g>
</svg>
