<?xml version="1.0" encoding="utf-8"?>
<!-- Generator: Adobe Illustrator 24.0.2, SVG Export Plug-In . SVG Version: 6.00 Build 0)  -->
<svg version="1.1" id="Capa_1" xmlns="http://www.w3.org/2000/svg" xmlns:xlink="http://www.w3.org/1999/xlink" x="0px" y="0px"
	 viewBox="0 0 1260.7 78.4" style="enable-background:new 0 0 1260.7 78.4;" xml:space="preserve">
<style type="text/css">
	.st0{fill:#362E17;}
	.st1{fill:#964515;}
	.st2{fill:#F2B006;}
	.st3{opacity:0.7;}
	.st4{fill:#FFFFFF;}
	.st5{fill:#FABA4B;}
	.st6{opacity:0.8;fill:#F2B006;enable-background:new    ;}
	.st7{fill:#F7EC6A;}
	.st8{opacity:0.8;}
	.st9{opacity:0.59;fill:#F2B006;enable-background:new    ;}
</style>
<g>
	<path class="st0" d="M79.6,20.8c-6,0-11.9,2.9-15.3,7.9c-1.6,2.4-2.6,5.2-2.8,8.1c-0.2,3.7,1,7.1,3.1,10.1c0.9,1.3,1.8,2.6,2.9,3.8
		c1.1,1.1,2.3,2,3.7,2.8c2.9,1.7,6.3,2.5,9.6,2.6c6.1,0.2,12.3-2.1,16.2-6.9c4-4.8,4.8-11.7,2.1-17.3c-0.7-1.5-1.7-2.9-2.9-4.1
		c-1.3-1.4-3-2.4-4.6-3.5c-3-2.1-6.6-3.2-10.2-3.4C80.8,20.9,80.2,20.8,79.6,20.8z M77.6,44.4c-0.8,0-1.7-0.1-2.5-0.4
		s-1.2-1.1-1.6-1.9c-0.6-1.4-0.7-2.9-0.2-4.4c0.9-2.7,3.8-4.4,6.6-4.2c0.8,0.1,1.5,0.2,2.3,0.5c0.6,0.3,1.7,0.8,2,1.4
		c0.6,1.5,0.6,3.1,0,4.5C83.1,42.7,80.4,44.4,77.6,44.4z"/>
	<path class="st1" d="M61.4,37.8c0,9.1,7.8,16,18.1,16c10.4,0,18.6-7.1,18.8-16.2c0.1-4.4-1.4-8.3-4.3-11.3
		c-3.4-3.5-8.7-5.4-14.4-5.4C69.6,20.8,61.4,28.4,61.4,37.8z M77.6,31.1c3.8,0,7,3,7,6.6c0,3.7-3.1,6.6-7,6.6c-3.8,0-7-3-7-6.6
		S73.7,31.1,77.6,31.1z"/>
	<path class="st2" d="M79.6,22c-9.4,0-16.9,7.1-16.9,15.7c0,8.7,7.6,14.8,16.9,14.8c9.4,0,17.4-6.3,17.6-15
		C97.3,27.4,88.9,22,79.6,22z M77.6,45.6c-4.5,0-8.2-3.5-8.2-7.8s3.7-7.8,8.2-7.8s8.2,3.5,8.2,7.8C85.7,42.1,82.1,45.6,77.6,45.6z"
		/>
	<g class="st3">
		<path class="st2" d="M63.7,41c2.5,0.7,5.1,1.4,7.7,1.8c-1.2-1.4-1.9-3.1-1.9-5c0-4.3,3.7-7.8,8.2-7.8s8.2,3.5,8.2,7.8
			c0,1.4-0.4,2.7-1.1,3.9c4.2-1.4,8.3-3.2,12.5-4.8c-0.2-9.7-8.4-14.8-17.6-14.8c-9.4,0-16.9,7.1-16.9,15.7c0,1.1,0.1,2.1,0.3,3.1
			C63.2,40.9,63.4,41,63.7,41z"/>
	</g>
	<g>
		<path class="st4" d="M79.6,23.4c8.7,0,16.6,4.7,17.5,13.5h0.1c-0.2-9.7-8.4-14.8-17.6-14.8c-9.4,0-16.9,7.1-16.9,15.7
			c0,0.2,0,0.5,0,0.7C63,30.1,70.4,23.4,79.6,23.4z"/>
	</g>
	<path class="st4" d="M70.1,40.9c0,0,2.2,4.7,7.5,4.8s7.4-4.5,8-6.3c0,0-0.5,7.3-8.4,6.9C71.2,45.8,70.1,40.9,70.1,40.9z"/>
	<path class="st5" d="M74.1,50.3c-0.1,0.2,0.9,0.8,2.3,1.2s3.1,0.5,4.3,0.5c1.2,0,3.7-0.4,6.1-1.4c1.2-0.5,2.3-1.1,3.3-1.8
		s1.8-1.3,2.3-1.9c1.1-1,1.5-1.8,1.7-2.2c0.2-0.5,0.1-0.6,0-0.7s-0.2-0.2-0.5,0c-0.1,0.1-0.4,0.3-0.7,0.7c-0.2,0.2-0.3,0.3-0.6,0.6
		c-0.2,0.2-0.5,0.5-0.8,0.8s-0.7,0.6-1,0.9c-0.4,0.3-0.8,0.6-1.2,0.9c-0.9,0.6-1.9,1.1-2.9,1.5c-2.1,0.9-4.3,1.2-5.8,1.3
		c-0.4,0-1,0-1.7,0c-0.3,0-0.7,0-1.1-0.1c-0.4,0-0.7-0.1-1.1-0.1C75.3,50.4,74.2,50.1,74.1,50.3z M95.5,40.8c0.1,0,0.3,0.1,0.4,0.5
		c0,0.1,0.1,0.2,0.1,0.3s0,0.2,0,0.3c0,0.3-0.1,0.5-0.3,0.8c-0.7,1.2-1.1,0.6-1,0.1c0.1-0.4,0.1-0.7,0.2-1c0.1-0.2,0.1-0.5,0.2-0.6
		C95.2,40.9,95.4,40.8,95.5,40.8z"/>
</g>
<g>
	<path class="st0" d="M132.3,24.1c-0.2-0.9-0.9-1.1-1.5-1.5c-0.2-0.2-0.6-0.4-0.9-0.6c-0.4-0.3-0.7-0.7-1.2-0.6
		c-1.6,0-3.3,0.2-4.9,0.3c-0.6,0-1.3,0.1-1.9,0.1c-0.9,0.1-1.2,0.9-1.1,1.6c0.2,1.8,0.1,3.7,0,5.5c0.1,1,0.1,2,0,3
		c0,0.2,0,0.4-0.1,0.6c0.1,2.8-0.7,5.7-3.5,6.4c-0.5,0.2-1,0.2-1.4,0c-0.4,0-0.6-0.2-0.8-0.6c-0.1-0.1-0.1-0.2-0.1-0.3
		c-0.3-0.5-0.5-1-0.6-1.6c-0.2-0.7-0.3-1.4-0.4-2c-0.3-1.7-0.3-3.5-0.3-5.2c0.1-2.1,0.3-4.2,0.7-6.3c0.1-0.5,0-1.1-0.4-1.5
		c-0.3-0.3-0.7-0.5-1-0.8c-0.4-0.3-0.8-0.7-1.3-0.9c-0.5-0.5-1.2-0.3-1.8-0.3c-2,0.2-4,0.3-5.9,0.5c-0.8,0.1-1.5,0.1-2.3,0.2
		c-1,0.1-1.5,0.6-1.5,1.7c-0.1,7.1-0.3,14.4,1,21.4c0.5,2.7,1.3,5.5,3,7.8c1.1,1.5,2,3.1,3.5,4.3c1.4,1.1,3.1,1.9,4.8,2.2
		c-0.5-0.1-2.4-0.5,0,0c0.2,0,0.1,0,0,0c3.8,0.7,7.5-0.3,10.2-3.1c0.2,0.3,0.4,0.7,0.7,1c0.1,0.3,0.4,0.7,0.7,0.9
		c0.4,0.3,0.8,0.4,1.3,0.4c0.9,0,1.9-0.1,2.8-0.1s1.9,0,2.4-0.9c0.2-0.3,0.2-0.7,0.2-1c0.1-2.8,0.3-5.5,0.4-8.3
		c0.4-7.1,0.7-14.3,1.1-21.4C132.3,24.7,132.4,24.4,132.3,24.1z"/>
	<path class="st1" d="M110.7,55.1c0.8,0.2,1.6,0.2,2.4,0.2c4.2,0,7.1-2.3,8.8-4.8l0.2,2.7c0,0.6,0.6,1.1,1.2,1.1l4-0.2
		c0.6,0,1.1-0.5,1.1-1.1l1.6-30.4c0-0.3-0.1-0.7-0.4-0.9c-0.2-0.2-0.6-0.4-0.9-0.3l-6.8,0.5c-0.3,0-0.6,0.2-0.8,0.4
		c-0.2,0.3-0.3,0.6-0.2,0.9c0,0,0.4,3.3-0.3,10.6c-0.4,3.5-2.4,5-4.2,5l0,0c-1.5,0-3.3-1-4.1-3.8c-1.8-6.3-0.2-14.2-0.1-14.3
		c0.1-0.4,0-0.8-0.3-1c-0.2-0.3-0.6-0.4-1-0.4l-9.5,0.8c-0.6,0.1-1.1,0.6-1.1,1.2C99.9,39.8,100.4,53.1,110.7,55.1z"/>
	<path class="st2" d="M122,23l6.8-0.5l-1.6,30.4l-4,0.2l-0.5-7.1c0,0-2.7,9.7-11.9,7.9c-9.2-1.7-9.8-14.3-9.5-32.6l9.5-0.8
		c0,0-1.7,8.2,0.2,14.9c1.9,6.6,9.8,6.2,10.6-1.4C122.4,26.4,122,23,122,23z"/>
	<g class="st3">
		<path class="st2" d="M102,32.7c2.8-0.5,5.6-0.7,8.4-0.6c-0.7-5.8,0.5-11.6,0.5-11.6l-9.5,0.8c-0.1,4.2-0.1,8,0,11.5
			C101.6,32.8,101.8,32.7,102,32.7z"/>
	</g>
	<g class="st3">
		<path class="st2" d="M121.6,34c0.5,0.2,0.9,0.3,1.4,0.5c1.7,0.6,3.4,1.3,5,2.1l0.7-14l-6.8,0.5C122,23,122.4,26.4,121.6,34
			L121.6,34z"/>
	</g>
	<g>
		<path class="st4" d="M101.4,21.3c0,1.4,0,2.8-0.1,4.2l0.3-3.1l8.4-0.2c-0.3,1.7,0.1,9.8,0.4,9.9c-0.7-5.8,0.5-11.6,0.5-11.6
			L101.4,21.3z"/>
	</g>
	<g>
		<path class="st4" d="M122.7,24.2l5.3-0.4c0,0-0.2,12.7,0,12.8l0.7-14l-6.8,0.5c0,0,0.2,1.7,0.1,5.3
			C122,29.8,122.8,25.5,122.7,24.2z"/>
	</g>
	<path class="st4" d="M110.7,33.8c0,0,0.8,4.9,4.4,5.9s5.8-2.3,6.2-3.8c0,0-2,5.2-5.7,4.7C110.9,40,110.7,33.8,110.7,33.8z"/>
	<path class="st5" d="M114.2,52.8c0-0.1-0.2-0.2-0.6-0.3c-0.2,0-0.4-0.1-0.6-0.1s-0.5-0.1-0.7-0.1c-1-0.2-2.2-0.6-2.9-0.9
		c-0.8-0.3-2.3-1.4-3.2-2.9c-1-1.5-1.6-3.4-1.8-4.5c-0.1-0.3-0.1-0.5-0.2-0.7c0-0.2-0.1-0.4-0.1-0.6c-0.1-0.3-0.2-0.6-0.3-0.7
		c-0.2-0.3-0.4-0.4-0.5-0.4s-0.3,0-0.3,0.3c0,0.2,0,0.4,0,0.8s0,0.9,0.2,1.6c0.3,1.4,0.9,3.2,1.9,4.8s2.6,2.9,3.8,3.4
		c0.2,0.1,0.4,0.2,0.6,0.2c0.2,0.1,0.5,0.2,0.8,0.2c0.6,0.2,1.2,0.2,1.8,0.3c0.6,0,1.1,0,1.5-0.1C114,53.1,114.2,53,114.2,52.8z
		 M103,38.8c0.2-0.1,0.8,0.3,0.9,1.3c0,1-0.5,0.9-0.8,0.5C102.5,39.4,102.8,38.9,103,38.8z"/>
	<path class="st5" d="M124.3,52.4c0,0.1,0.3,0.2,0.6,0.2c0.2,0,0.4,0,0.6,0c0.1,0,0.2,0,0.4,0c0.2,0,0.5,0,0.7-0.1
		c0-0.4,0.1-0.8,0.1-1.2c0-0.3,0.1-0.6,0.1-0.8c0.1-1.3,0.4-5.3,0.5-7c0.1-1.6-0.2-1.8-0.4-1.8c-0.2,0-0.3-0.2-0.5,1.8
		c-0.1,1.9-0.4,5.2-0.5,7c0,0.2,0,0.4,0,0.7c0,0.1,0,0.3,0,0.5v0.1l0,0l0,0c0,0,0,0-0.1,0s-0.2,0-0.4,0.1c-0.2,0-0.4,0.1-0.6,0.1
		C124.5,52.3,124.2,52.4,124.3,52.4z M127,39.7c0.1,0,0.5,0.3,0.5,1c-0.1,0.7-0.4,0.6-0.6,0.3C126.6,40.1,126.8,39.8,127,39.7z"/>
</g>
<g>
	<path class="st0" d="M65,26.6c0.5-0.7,1-1.4,0.5-2.4c-0.3-0.5-0.8-0.7-1.3-1c-0.2-0.1-0.4-0.2-0.6-0.3c-0.3-0.2-0.5-0.5-0.8-0.7
		c-0.4-0.3-0.9-0.4-1.3-0.6c-1.9-0.8-3.7-1.6-5.6-2.3c-1-0.4-2.9-1.7-3.6-0.3c-1.6,3-3.1,6.1-4.7,9.1c-0.1,0.2-0.2,0.4-0.3,0.6
		c-1.6-2.8-3.3-5.6-4.9-8.3c-0.4-0.8-1.1-1.2-1.8-1.7c-0.9-0.6-1.5-1.2-2.5-0.7c-1.7,0.8-3.3,1.5-5,2.3c-0.8,0.4-1.7,0.8-2.5,1.2
		c-0.5,0.2-1.1,0.4-1.4,0.9c-0.6,1,0.8,2.3,1.3,3.1c0.2,0.4,0.5,0.6,0.8,1c2.5,2.7,5.1,5.5,7.6,8.2c1,1.1,2,2.2,3,3.3
		c0.4,0.5,0.2,1,0.2,1.6c-0.1,3.9-0.2,7.9-0.3,11.8c0,1.4-0.1,2.8-0.1,4.3c0,0.6,0.1,1.2,0.6,1.6c0.6,0.9,1.2,2.4,2.5,2.3
		c3.4-0.2,6.8-0.3,10.2-0.5c0.7,0,1.4-0.1,1.9-0.8c0.4-0.6,0.3-1.1,0.2-1.8c-0.2-1.8-0.5-3.6-0.7-5.4s-0.5-3.6-0.7-5.4
		c-0.2-1.2-0.4-5.2-0.4-5.2S64.4,27.4,65,26.6z"/>
	<path class="st1" d="M63.3,22.8c-0.1-0.3-0.4-0.6-0.7-0.8l-8.7-3.6c-0.6-0.2-1.2,0-1.5,0.5l-5.7,10.9l-6.8-11.6
		c-0.3-0.5-1-0.7-1.5-0.5l-8.7,4c-0.3,0.2-0.6,0.5-0.7,0.9s0,0.8,0.3,1l12.8,13.9l-0.5,18.2c0,0.3,0.1,0.6,0.4,0.9
		c0.2,0.2,0.5,0.3,0.8,0.3c0,0,0,0,0.1,0l10.8-0.5c0.3,0,0.6-0.2,0.9-0.4c0.2-0.3,0.3-0.6,0.3-0.9l-2.2-17l10.5-14.3
		C63.3,23.5,63.4,23.2,63.3,22.8z"/>
	<polygon class="st2" points="30.2,22.8 43.3,37.1 42.8,55.7 53.6,55.3 51.4,37.9 62.2,23.1 53.4,19.5 46.8,32.3 38.9,18.9 	"/>
	<g class="st3">
		<path class="st2" d="M43.2,42.7c2.9-0.3,5.8-0.9,8.6-1.6l-0.4-3.2l10.8-14.7l-8.7-3.6l-6.7,12.8l-7.9-13.5l-8.7,4l13.1,14.3
			L43.2,42.7z"/>
	</g>
	<g>
		<polygon class="st4" points="46.8,32.3 38.9,18.9 30.2,22.8 43.3,37.1 31.1,23.2 38.1,20.2 46.8,33.8 53.8,21.3 61,24.4 
			51.4,37.9 62.2,23.1 53.4,19.5 		"/>
	</g>
	<path class="st5" d="M44.3,54.5c0,0.5,3.1,0.4,4.8,0.3l3.8-0.3l-0.8-6.3c-0.3-2-0.8-2.2-1-2.2s-0.6-0.1-0.3,2.3l0.6,5l-2.5,0.2
		C47.7,53.7,44.2,54.1,44.3,54.5z M50.6,43.5c0.2-0.1,0.9,0.2,0.9,1.1c0.1,0.9-0.5,0.8-0.8,0.5C50.1,44,50.4,43.5,50.6,43.5z"/>
</g>
<g>
	<path class="st0" d="M196.2,53.5c0.2,0.4,0.5,0.9,0.8,1.2c0.2,0.3,0.5,0.8,0.8,1s0.6,0.3,1,0.4c0.8,0.1,1.6,0.3,2.4,0.4
		c2,0.4,4.1,0.8,6.1,1.2c1,0.2,2.1,0,2.5-1.1c0.2-0.5,0.2-1,0.2-1.5c0.3-2.2,0.5-4.3,0.8-6.5c0.1-1.2,0.3-2.4,0.4-3.7
		c0.3,0.8,0.7,1.5,1,2.3c0.5,1.1,1.3,2.3,2.1,3.3c0.9,1.1,2.6,0.7,3.1-0.6c0.3-0.8,0.7-1.6,1-2.3c0.2,0.6,0.2,1.4,0.2,2
		c0.1,1.1,0.2,2.2,0.4,3.3c0,0.2,0,0.4,0.1,0.6c0,0.4,0.3,0.9,0.6,1.3c0.1,0.2,1.5,2,1.8,2.2c0.4,0.2,0.7,0.3,1.2,0.2
		c3.8-0.3,7.6-0.6,11.4-0.9c1.4-0.1,3.3-0.2,3.1-2.2c-0.1-0.8-0.2-1.6-0.3-2.4c-0.5-3.9-0.9-7.8-1.4-11.8c-0.5-4.5-1-9.1-1.6-13.6
		c-0.2-1.5-0.4-3.1-0.5-4.6c-0.1-0.7-0.1-1.5-0.3-2.1c-0.3-0.8-1.2-1.2-1.9-1.7c-0.5-0.4-1.2-1-1.9-1.1c-0.5,0-1.1-0.1-1.6-0.1
		c-2.2-0.1-4.5-0.3-6.7-0.4c-1.1-0.1-3.7-0.7-4.2,0.7c-0.6,1.8-1.3,3.5-1.9,5.3c-0.1,0.4-0.3,0.8-0.4,1.1c-0.2-0.8-0.5-1.6-0.7-2.3
		c-0.2-0.8-0.4-1.8-0.9-2.5c-0.2-0.3-0.7-0.6-1-0.8c-0.3-0.3-0.8-0.6-1.2-0.8c-0.4-0.4-0.9-0.7-1.4-0.7c-0.9,0-1.7,0-2.6,0
		c-1.1,0-2.2,0-3.3,0c-0.8,0-1.8-0.1-2.1,0.9c-0.2,0.6-0.2,1.3-0.3,1.9c-1.4,8.2-2.7,16.5-4.1,24.7c-0.3,2-0.7,4.1-1,6.1
		C195.7,51.2,195.2,52.5,196.2,53.5C196.3,53.7,196.1,53.4,196.2,53.5z"/>
	<path class="st1" d="M196.6,53.5l9.1,1.7c0.1,0,0.2,0,0.2,0c0.3,0,0.5-0.1,0.8-0.3s0.5-0.5,0.5-0.9l1.7-14.3l3.4,8
		c0.2,0.5,0.7,0.8,1.2,0.8l0,0c0.5,0,1-0.3,1.2-0.8l2.9-6.8l1.4,12.5c0.1,0.7,0.7,1.2,1.4,1.1l12.9-1c0.3,0,0.7-0.2,0.9-0.5
		c0.2-0.3,0.3-0.6,0.3-1l-4-34.1c-0.1-0.6-0.6-1.1-1.2-1.1l-11.2-0.7c-0.6,0-1.1,0.3-1.3,0.9l-3.3,9.4l-2.8-9.2
		c-0.2-0.5-0.7-0.9-1.2-0.9h-6.9c-0.6,0-1.2,0.5-1.3,1.1L195.6,52C195.5,52.7,195.9,53.3,196.6,53.5z"/>
	<polygon class="st2" points="206,53.9 196.8,52.2 202.5,17.6 209.4,17.6 213.4,30.5 218,17.4 229.2,18.1 233.2,52.2 220.3,53.2 
		218.4,35.8 213.6,47.2 208.2,34.8 	"/>
	<path class="st6" d="M201.6,32.8c5.4,1.2,10.8,2.8,16.3,3.3c0.1,0,0.2,0,0.4,0l0.1-0.3v0.3c4.3,0.3,8.6-0.2,12.8-1.1l-2-16.9
		L218,17.4l-4.6,13.1l-4-12.9h-6.9l-2.4,14.9C200.6,32.6,201.1,32.7,201.6,32.8z"/>
	<path class="st4" d="M229.2,18.1L218,17.4l-4.6,13.1l-4-12.9h-6.9l-1.6,9.9l2.3-8.6h5.7l4.4,13.3l5.3-13.4l10,1.1
		c0,0,2.4,15.2,2.7,15.2L229.2,18.1z"/>
	<path class="st7" d="M199.7,51.7c0,0.2,0.7,0.6,1.6,0.8c0.5,0.1,1,0.3,1.5,0.4c0.3,0.1,0.5,0.1,0.8,0.2s0.4,0.1,0.9,0.2l1,0.2
		l0.8-9.2c0.2-2.1-0.3-2.4-0.6-2.4c-0.3,0-0.6-0.2-0.8,2.3l-0.7,7.7c-0.3,0-0.6-0.1-1.1-0.2s-1.1-0.1-1.6-0.2
		C200.6,51.4,199.7,51.4,199.7,51.7z M205.9,39.2c0.2,0,0.9,0.4,0.8,1.3s-0.7,0.7-0.9,0.3C205.3,39.7,205.7,39.2,205.9,39.2z"/>
	<path class="st7" d="M222.6,51.8c0.1,0.5,3.6,0.3,5.5,0l4.1-0.6l-0.6-7.3c-0.2-2.4-0.7-2.6-1-2.6s-0.6-0.1-0.4,2.7l0.5,6l-2.9,0.4
		C226.5,50.7,222.6,51.3,222.6,51.8z M230.3,38.4c0.2-0.1,0.9,0.3,1,1.3s-0.6,0.9-0.8,0.5C229.8,39.1,230.1,38.5,230.3,38.4z"/>
</g>
<g>
	<path class="st0" d="M270.2,51c2,3,4.8,5.4,8.4,6.3c3.2,0.8,6.8,0.3,9.6-1.5c2.7-1.7,4.5-4.5,4.7-7.7s-1-6-3-8.4
		c-1.9-2.3-4.5-3.9-6.6-6c-0.8-0.8-2.2-2.2-1.6-3.4c0.3-0.7,1.1-1.2,1.8-1.2c0.3,0,0.4-0.1,0.5,0.2c0,0.2,0,0.4,0,0.7
		c0,0.5,0,1-0.1,1.5c-0.1,0.7,0.3,1.2,0.8,1.8c0.4,0.5,0.6,1.2,1.1,1.6c0.7,0.6,1.6,0.3,2.3,0.1c1-0.3,1.9-0.7,2.8-1.1
		c1.8-0.8,3.5-1.8,5.3-2.5c1.7-0.8,1.2-2.7,0.8-4.2c-0.7-3.1-2.5-5.9-5.1-7.6c-1.4-1-2.8-2.1-4.4-2.7c-1.7-0.6-3.5-0.8-5.2-0.6
		c-3.4,0.5-6.4,2.6-8.3,5.4c-1.9,2.9-2.9,6.2-2,9.6c0.7,2.3,2.2,4.4,3.7,6.2c0.8,1,1.8,1.9,2.9,2.6c0.5,0.4,1.1,0.8,1.6,1.2
		c0.2,0.2,0.5,0.3,0.5,0.6s0,0.6-0.2,0.8c0.2-1.1-0.6-1.8-1.6-2.3c-0.6-0.5-1.4-1.1-2.2-1c-2.6,0.3-5.3-0.3-8-0.2
		c-0.5,0-1.1,0-1.5,0.3c-0.4,0.4-0.5,1-0.6,1.5c-0.2,1.1-0.2,2.3,0.1,3.5C267.3,46.9,268.7,48.9,270.2,51
		C270.2,51.1,270.1,50.8,270.2,51z"/>
	<path class="st1" d="M272.8,53.1c2,1.4,4.5,2.2,7,2.2l0,0c3.7,0,7.1-1.7,9.3-4.6c2.3-3.1,1.9-7.6,0.4-10.2c-1.7-3-3.7-4.7-6.1-6.6
		c-1.4-1.1-3.9-3.1-4.1-4.9c0-0.6,0.2-1,0.6-1.6c0.5-0.5,1.2-0.9,2-0.9c0.5,0,1,0.2,1.3,0.4c0.9,0.8,0.8,2.9,0.7,4.5
		c0,0.4,0.1,0.7,0.4,1c0.3,0.2,0.7,0.3,1,0.2c2.2-0.6,4.3-1.6,6.2-2.6c0.9-0.5,1.9-1,2.9-1.4c0.5-0.2,0.7-0.7,0.7-1.2
		c0-0.2,0-0.5-0.1-0.7c-0.5-6.3-5.4-11-11.3-11c-2.7,0-5.4,1-7.6,3c-1.9,1.7-3.8,4.9-4.3,7.4c-0.7,3.2,0.4,6.6,2.8,9.3
		c0.8,0.9,1.8,1.6,2.7,2.3c1.4,1,2.7,2,3.2,3.4c0.2,0.5,0,1-0.1,1.2c-0.3,0.4-0.7,0.6-1.1,0.6c-0.3,0-0.6-0.1-0.9-0.4
		c-0.4-0.4-0.4-1.1-0.2-2.3c0.1-0.4-0.1-0.7-0.3-1c-0.3-0.3-0.6-0.4-1-0.3c-0.5,0.1-1.1,0.1-1.7,0.1c-0.9,0-1.9-0.1-2.9-0.1
		c-1-0.1-2-0.1-3-0.1c-0.5,0-0.9,0-1.3,0c-0.5,0-0.9,0.4-1,0.8C265.5,44.8,268.8,50.4,272.8,53.1z"/>
	<path class="st2" d="M282.7,34.8c-2.2-1.7-6.4-5.1-3.6-8.1c1.4-1.5,3.7-1.6,4.9-0.5c1.3,1.1,1.3,3.4,1.1,5.5c3.2-0.8,6-2.6,8.9-3.9
		c0-0.2,0-0.5-0.1-0.7c-0.7-8.7-10.3-13.1-17-7.2c-1.7,1.5-3.5,4.5-4,6.8c-0.6,3.1,0.5,6.1,2.6,8.4c1.9,2.2,5,3.2,6.2,6.1
		c1,2.5-2.2,4.6-4,2.6c-0.8-0.9-0.7-2.1-0.5-3.2c-2.9,0.4-6.2-0.3-9.1-0.1c-1.4,4.3,1.9,9.5,5.3,11.9c4.5,3.2,11.2,2.6,14.7-2.1
		c1.9-2.5,1.7-6.5,0.3-9C286.9,38.3,285.1,36.7,282.7,34.8z"/>
	<path class="st6" d="M280.1,32.5c-1.6-1.7-2.8-3.8-1-5.8c1.4-1.5,3.7-1.6,4.9-0.5c1.3,1.1,1.3,3.4,1.1,5.5c3.2-0.8,6-2.6,8.9-3.9
		c0-0.2,0-0.5-0.1-0.7c-0.7-8.7-10.3-13.1-17-7.2c-1.7,1.5-3.5,4.5-4,6.8c-0.4,2.2,0,4.3,1,6.2C276,32.6,278.1,32.5,280.1,32.5z"/>
	<g>
		<path class="st4" d="M277,21.2c6.5-5.8,15.8-1.7,16.9,6.6c0,0,0.1,0,0.1-0.1c0-0.2,0-0.5-0.1-0.7c-0.7-8.7-10.3-13.1-17-7.2
			c-1.7,1.5-3.5,4.5-4,6.8c-0.2,0.8-0.2,1.6-0.1,2.4c0-0.3,0.1-0.7,0.1-1C273.5,25.6,275.2,22.7,277,21.2z"/>
	</g>
	<path class="st4" d="M282.7,35.8c2.4,1.9,4.2,3.5,5.8,6.3c0.6,1.1,1,2.4,1,3.8c0.1-1.7-0.3-3.4-1-4.7c-1.6-2.8-3.4-4.4-5.8-6.3
		c-1.6-1.2-4.2-3.3-4.5-5.5C277.8,31.9,280.9,34.3,282.7,35.8z"/>
	<path class="st4" d="M277.7,44.5c1.7,1.9,4.6,0.1,4.2-2.2c-0.3,1.8-2.7,2.9-4.2,1.2c-0.4-0.4-0.6-0.9-0.6-1.4
		C277,43,277.1,43.9,277.7,44.5z"/>
	<path class="st4" d="M277.1,41.3c0-0.3,0.1-0.6,0.1-0.9c-2.9,0.4-6.2-0.3-9.1-0.1c-0.3,0.8-0.4,1.7-0.3,2.6c0-0.6,0.1-1.1,0.3-1.7
		C271,41,274.2,41.7,277.1,41.3z"/>
	<path class="st6" d="M268.8,45.3c-0.1,0.1,0,0.3,0.1,0.7c0.1,0.2,0.2,0.4,0.3,0.7s0.2,0.6,0.4,0.8c0.4,0.6,0.7,1.2,1.2,1.8
		c0.2,0.3,0.5,0.6,0.7,0.8s0.5,0.5,0.7,0.7c0.1,0.1,0.2,0.2,0.4,0.3c0.1,0.1,0.3,0.2,0.5,0.4c0.3,0.3,0.7,0.6,1.2,0.8
		c0.9,0.6,2.1,1,3.3,1.3c1.2,0.2,2.5,0.2,3.7,0c1.1-0.2,2.1-0.6,2.7-0.9c0.3-0.1,0.6-0.3,0.9-0.4c0.1,0,0.1-0.1,0.1-0.1
		c0.1,0,0.1-0.1,0.2-0.1c0.1-0.1,0.2-0.1,0.3-0.2c0.4-0.3,0.6-0.5,0.7-0.7c0.2-0.4,0.2-0.6,0.1-0.7c-0.1-0.1-0.1-0.2-0.4-0.1
		c-0.1,0.1-0.4,0.2-0.7,0.4c-0.1,0-0.2,0.1-0.3,0.2c-0.1,0-0.2,0.1-0.4,0.2c-0.1,0.1-0.3,0.1-0.5,0.2s-0.3,0.2-0.5,0.2
		c-0.7,0.3-1.6,0.6-2.6,0.8c-0.2,0-0.5,0.1-0.7,0.1s-0.5,0-0.8,0c-0.5,0-1,0-1.5-0.1l-0.4-0.1c-0.1,0-0.2-0.1-0.4-0.1
		c-0.2-0.1-0.5-0.1-0.7-0.2c-0.5-0.2-0.9-0.4-1.3-0.6c-0.2-0.1-0.4-0.2-0.6-0.4c-0.2-0.1-0.4-0.3-0.5-0.4c-0.2-0.1-0.3-0.2-0.5-0.4
		c-0.1-0.1-0.3-0.3-0.4-0.4c-0.1-0.1-0.3-0.3-0.5-0.5s-0.4-0.4-0.6-0.7c-0.2-0.2-0.5-0.5-0.7-0.7c-0.2-0.3-0.4-0.5-0.6-0.8
		c-0.5-0.5-0.8-1.1-1.1-1.4C269.2,45.5,268.9,45.2,268.8,45.3z M288.1,47.5c0.1,0,0.3,0.2,0.3,0.5c0,0.2,0,0.4,0,0.6
		c0,0.1-0.1,0.2-0.1,0.4c-0.1,0.1-0.1,0.3-0.2,0.4c-0.2,0.3-0.3,0.5-0.5,0.5c-0.1,0.1-0.3,0.1-0.3,0.1c-0.2-0.1-0.2-0.3-0.1-0.6
		c0.1-0.4,0.2-0.7,0.3-0.9c0.1-0.3,0.1-0.4,0.2-0.6C287.8,47.6,288,47.5,288.1,47.5z"/>
</g>
<g>
	<path class="st0" d="M299,51.8c2,3,4.8,5.4,8.4,6.3c3.2,0.8,6.8,0.3,9.6-1.5c2.7-1.7,4.5-4.5,4.7-7.7s-1-6-3-8.4
		c-1.9-2.3-4.5-3.9-6.6-6c-0.8-0.8-2.2-2.2-1.6-3.4c0.3-0.7,1.1-1.2,1.8-1.2c0.3,0,0.4-0.1,0.5,0.2c0,0.2,0,0.4,0,0.7
		c0,0.5,0,1-0.1,1.5c-0.1,0.7,0.3,1.2,0.8,1.8c0.4,0.5,0.6,1.2,1.1,1.6c0.7,0.6,1.6,0.3,2.3,0.1c1-0.3,1.9-0.7,2.8-1.1
		c1.8-0.8,3.5-1.8,5.3-2.5c1.7-0.8,1.2-2.7,0.8-4.2c-0.7-3.1-2.5-5.9-5.1-7.6c-1.4-1-2.8-2.1-4.4-2.7c-1.7-0.6-3.5-0.8-5.2-0.6
		c-3.4,0.5-6.4,2.6-8.3,5.4c-1.9,2.9-2.9,6.2-2,9.6c0.7,2.3,2.2,4.4,3.7,6.2c0.8,1,1.8,1.9,2.9,2.6c0.5,0.4,1.1,0.8,1.6,1.2
		c0.2,0.2,0.5,0.3,0.5,0.6s0,0.6-0.2,0.8c0.2-1.1-0.6-1.8-1.6-2.3c-0.6-0.5-1.4-1.1-2.2-1c-2.6,0.3-5.3-0.3-8-0.2
		c-0.5,0-1.1,0-1.5,0.3c-0.4,0.4-0.5,1-0.6,1.5c-0.2,1.1-0.2,2.3,0.1,3.5C296.2,47.7,297.5,49.8,299,51.8
		C299.1,52,298.9,51.7,299,51.8z"/>
	<path class="st1" d="M301.6,54c2,1.4,4.5,2.2,7,2.2l0,0c3.7,0,7.1-1.7,9.3-4.6c2.3-3.1,1.9-7.6,0.4-10.2c-1.7-3-3.7-4.7-6.1-6.6
		c-1.4-1.1-3.9-3.1-4.1-4.9c0-0.6,0.2-1,0.6-1.6c0.5-0.5,1.2-0.9,2-0.9c0.5,0,1,0.2,1.3,0.4c0.9,0.8,0.8,2.9,0.7,4.5
		c0,0.4,0.1,0.7,0.4,1c0.3,0.2,0.7,0.3,1,0.2c2.2-0.6,4.3-1.6,6.2-2.6c0.9-0.5,1.9-1,2.9-1.4c0.5-0.2,0.7-0.7,0.7-1.2
		c0-0.2,0-0.5-0.1-0.7c-0.5-6.3-5.4-11-11.3-11c-2.7,0-5.4,1-7.6,3c-1.9,1.7-3.8,4.9-4.3,7.4c-0.7,3.2,0.4,6.6,2.8,9.3
		c0.8,0.9,1.8,1.6,2.7,2.3c1.4,1,2.7,2,3.2,3.4c0.2,0.5,0,1-0.1,1.2c-0.3,0.4-0.7,0.6-1.1,0.6c-0.3,0-0.6-0.1-0.9-0.4
		c-0.4-0.4-0.4-1.1-0.2-2.3c0.1-0.4-0.1-0.7-0.3-1c-0.3-0.3-0.6-0.4-1-0.3c-0.5,0.1-1.1,0.1-1.7,0.1c-0.9,0-1.9-0.1-2.9-0.1
		c-1-0.1-2-0.1-3-0.1c-0.5,0-0.9,0-1.3,0c-0.5,0-0.9,0.4-1,0.8C294.3,45.7,297.7,51.3,301.6,54z"/>
	<path class="st2" d="M311.5,35.7c-2.2-1.7-6.4-5.1-3.6-8.1c1.4-1.5,3.7-1.6,4.9-0.5c1.3,1.1,1.3,3.4,1.1,5.5c3.2-0.8,6-2.6,8.9-3.9
		c0-0.2,0-0.5-0.1-0.7c-0.7-8.7-10.3-13.1-17-7.2c-1.7,1.5-3.5,4.5-4,6.8c-0.6,3.1,0.5,6.1,2.6,8.4c1.9,2.2,5,3.2,6.2,6.1
		c1,2.5-2.2,4.6-4,2.6c-0.8-0.9-0.7-2.1-0.5-3.2c-2.9,0.4-6.2-0.3-9.1-0.1c-1.4,4.3,1.9,9.5,5.3,11.9c4.5,3.2,11.2,2.6,14.7-2.1
		c1.9-2.5,1.7-6.5,0.3-9C315.7,39.2,313.9,37.6,311.5,35.7z"/>
	<path class="st6" d="M308.9,33.4c-1.6-1.7-2.8-3.8-1-5.8c1.4-1.5,3.7-1.6,4.9-0.5c1.3,1.1,1.3,3.4,1.1,5.5c3.2-0.8,6-2.6,8.9-3.9
		c0-0.2,0-0.5-0.1-0.7c-0.7-8.7-10.3-13.1-17-7.2c-1.7,1.5-3.5,4.5-4,6.8c-0.4,2.2,0,4.3,1,6.2C304.9,33.5,306.9,33.4,308.9,33.4z"
		/>
	<g>
		<path class="st4" d="M305.8,22.1c6.5-5.8,15.8-1.7,16.9,6.6c0,0,0.1,0,0.1-0.1c0-0.2,0-0.5-0.1-0.7c-0.7-8.7-10.3-13.1-17-7.2
			c-1.7,1.5-3.5,4.5-4,6.8c-0.2,0.8-0.2,1.6-0.1,2.4c0-0.3,0.1-0.7,0.1-1C302.3,26.5,304.1,23.6,305.8,22.1z"/>
	</g>
	<path class="st4" d="M311.5,36.6c2.4,1.9,4.2,3.5,5.8,6.3c0.6,1.1,1,2.4,1,3.8c0.1-1.7-0.3-3.4-1-4.7c-1.6-2.8-3.4-4.4-5.8-6.3
		c-1.6-1.2-4.2-3.3-4.5-5.5C306.6,32.8,309.7,35.2,311.5,36.6z"/>
	<path class="st4" d="M306.5,45.4c1.7,1.9,4.6,0.1,4.2-2.2c-0.3,1.8-2.7,2.9-4.2,1.2c-0.4-0.4-0.6-0.9-0.6-1.4
		C305.8,43.9,305.9,44.7,306.5,45.4z"/>
	<path class="st4" d="M305.9,42.2c0-0.3,0.1-0.6,0.1-0.9c-2.9,0.4-6.2-0.3-9.1-0.1c-0.3,0.8-0.4,1.7-0.3,2.6c0-0.6,0.1-1.1,0.3-1.7
		C299.8,41.8,303.1,42.5,305.9,42.2z"/>
	<path class="st6" d="M297.7,46.2c-0.1,0.1,0,0.3,0.1,0.7c0.1,0.2,0.2,0.4,0.3,0.7s0.2,0.6,0.4,0.8c0.4,0.6,0.7,1.2,1.2,1.8
		c0.2,0.3,0.5,0.6,0.7,0.8s0.5,0.5,0.7,0.7c0.1,0.1,0.2,0.2,0.4,0.3c0.1,0.1,0.3,0.2,0.5,0.4c0.3,0.3,0.7,0.6,1.2,0.8
		c0.9,0.6,2.1,1,3.3,1.3c1.2,0.2,2.5,0.2,3.7,0c1.1-0.2,2.1-0.6,2.7-0.9c0.3-0.1,0.6-0.3,0.9-0.4c0.1,0,0.1-0.1,0.1-0.1
		c0.1,0,0.1-0.1,0.2-0.1c0.1-0.1,0.2-0.1,0.3-0.2c0.4-0.3,0.6-0.5,0.7-0.7c0.2-0.4,0.2-0.6,0.1-0.7c-0.1-0.1-0.1-0.2-0.4-0.1
		c-0.1,0.1-0.4,0.2-0.7,0.4c-0.1,0-0.2,0.1-0.3,0.2c-0.1,0-0.2,0.1-0.4,0.2c-0.1,0.1-0.3,0.1-0.5,0.2s-0.3,0.2-0.5,0.2
		c-0.7,0.3-1.6,0.6-2.6,0.8c-0.2,0-0.5,0.1-0.7,0.1s-0.5,0-0.8,0c-0.5,0-1,0-1.5-0.1l-0.4-0.1c-0.1,0-0.2-0.1-0.4-0.1
		c-0.2-0.1-0.5-0.1-0.7-0.2c-0.5-0.2-0.9-0.4-1.3-0.6c-0.2-0.1-0.4-0.2-0.6-0.4c-0.2-0.1-0.4-0.3-0.5-0.4c-0.2-0.1-0.3-0.2-0.5-0.4
		c-0.1-0.1-0.3-0.3-0.4-0.4c-0.1-0.1-0.3-0.3-0.5-0.5s-0.4-0.4-0.6-0.7c-0.2-0.2-0.5-0.5-0.7-0.7c-0.2-0.3-0.4-0.5-0.6-0.8
		c-0.5-0.5-0.8-1.1-1.1-1.4C298,46.3,297.8,46.1,297.7,46.2z M316.9,48.4c0.1,0,0.3,0.2,0.3,0.5c0,0.2,0,0.4,0,0.6
		c0,0.1-0.1,0.2-0.1,0.4c-0.1,0.1-0.1,0.3-0.2,0.4c-0.2,0.3-0.3,0.5-0.5,0.5c-0.1,0.1-0.3,0.1-0.3,0.1c-0.2-0.1-0.2-0.3-0.1-0.6
		c0.1-0.4,0.2-0.7,0.3-0.9c0.1-0.3,0.1-0.4,0.2-0.6C316.6,48.5,316.8,48.4,316.9,48.4z"/>
</g>
<g>
	<path class="st0" d="M330.2,17.2c-0.5,0.5-0.3,1.2-0.3,1.8c0,1,0,1.9,0.1,2.9c0,1.7,0.1,3.5,0.1,5.2c0,0.5,0.2,0.8,0.5,1.1
		c0.5,0.7,1,1.7,1.6,2.2c0.8,0.6,2,0.4,2.9,0.4c0.5,0,0.4,0,0.4,0.5c0,0.7,0.1,1.4,0.1,2.1c0.2,3.7,0.3,7.3,0.5,11
		c0,0.3-1,0.2-1.2,0.2c-0.8,0-1.7,0.1-2.5,0.1c-1.1,0.1-1.2,1-1.1,1.9c0.1,0.9,0.2,1.7,0.3,2.6c0.2,1.8,0.4,3.6,0.6,5.4
		c0,0.4,0.3,0.7,0.5,1.1c0.3,0.4,0.5,0.7,0.8,1.1s0.5,0.8,0.9,1.1c0.6,0.4,1.2,0.4,1.8,0.3c3.8-0.5,7.7-1,11.5-1.5
		c0.9-0.1,2.1-0.1,3-0.5c1.4-0.7,0.9-3,0.9-4.3c0-1.6-0.1-3.1-0.1-4.7c0-1.3-1.3-1.6-2.1-2.3c-0.4-0.4-1.1-0.9-1.7-0.9
		c-0.3,0-0.7,0-1,0.1c0.1-3.4,0.2-6.7,0.3-10.1c0-0.8,0.1-1.6,0.1-2.4c0-0.2-0.1-0.7,0.2-0.7c0.9,0,1.8,0,2.7,0c1.2,0,1.8-0.9,1.8-2
		c0-1.8-0.1-3.5-0.1-5.3c0-1,0-1.9-0.1-2.9c0-0.6,0.1-1.3-0.3-1.8c-0.2-0.3-2.6-2.1-3.2-2.2c-0.3,0-0.7,0-1,0c-1.7,0-3.4,0-5.2,0
		c-2.5,0-5,0.1-7.4,0.1c-0.9,0-1.7,0-2.6,0C331.2,16.9,330.6,16.8,330.2,17.2C329.9,17.5,330.4,17,330.2,17.2z"/>
	<path class="st1" d="M330.2,17.2c-0.2,0.2-0.4,0.5-0.4,0.9l0.2,9.1c0,0.7,0.6,1.2,1.2,1.2h4.2l0.7,16.2l-3.8,0.2
		c-0.3,0-0.6,0.2-0.9,0.4c-0.2,0.3-0.3,0.6-0.3,0.9l1,8.6c0,0.3,0.2,0.6,0.5,0.8c0.2,0.2,0.5,0.3,0.8,0.3c0.1,0,0.1,0,0.2,0l14.5-2
		c0.6-0.1,1.1-0.6,1.1-1.2l-0.2-7.5c0-0.3-0.2-0.6-0.4-0.9c-0.2-0.2-0.6-0.3-0.9-0.3l-3.5,0.2l0.5-15.8h3.4l0,0
		c0.7,0,1.2-0.5,1.2-1.2c0-0.1,0-0.1,0-0.2l-0.2-9.1c0-0.7-0.6-1.2-1.2-1.2l-16.8,0.2C330.7,16.9,330.4,17,330.2,17.2z"/>
	<polygon class="st2" points="342.8,45.5 343.4,27.2 348,27.2 347.8,17.9 331,18.1 331.2,27.2 336.5,27.2 337.3,45.8 332.3,46.1 
		333.3,54.7 347.8,52.8 347.6,45.3 	"/>
	<g class="st3">
		<path class="st2" d="M336.5,27.2l0.3,7.3c2.1,0.1,4.2,0.3,6.3,0.5l0.3-7.8h4.5l-0.2-9.3l-16.8,0.2l0.2,9.1L336.5,27.2L336.5,27.2z
			"/>
	</g>
	<g>
		<polygon class="st4" points="331.8,19.3 347.6,19.2 347.9,22.6 347.8,17.9 331,18.1 331.1,24.4 		"/>
	</g>
	<polygon class="st4" points="337.3,44.5 337.5,46.4 333,46.9 333.1,52.5 332.3,46.1 337.3,45.7 	"/>
	<polygon class="st4" points="342.8,44.5 342.7,46 347.4,45.8 347.8,52.3 347.6,45.3 342.9,45.4 	"/>
	<path class="st5" d="M333.9,53.5c0.1,0.5,2.9,0.2,4.4,0s6.1-1,8-1.3c0.4-0.1,0.8-0.1,1.1-0.2c0-0.3,0-0.7,0-0.9s0-0.2,0-0.3
		s0-0.1,0-0.2c0-0.2-0.1-0.4-0.2-0.5c-0.1-0.2-0.3-0.3-0.4-0.3c-0.1,0-0.2,0-0.3,0.1s-0.1,0.2-0.1,0.5c0,0.1,0,0.2-0.1,0.4l0,0l0,0
		c-2.2,0.4-6,1-8,1.3C336.9,52.4,333.8,53,333.9,53.5z M346.6,47.6c0.2,0,0.8,0.3,0.8,1.1s-0.6,0.7-0.8,0.3
		C346,48.1,346.3,47.7,346.6,47.6z"/>
</g>
<g>
	<path class="st0" d="M411,18.4c-0.3-0.3-0.8-0.6-1.2-0.8c-0.3-0.3-0.7-0.6-1.1-0.8c-0.2-0.1-0.5-0.1-0.8-0.2
		c-0.9-0.1-1.8-0.2-2.7-0.3c-1.7-0.2-3.4-0.4-5.1-0.6c-1.4-0.2-1.4,1.3-1.5,2.2c-0.1,1.3-0.2,2.6-0.4,3.9
		c-0.8,8.6-1.6,17.2-2.4,25.8c-0.1,1.3-0.2,2.7-0.4,4c0,0.3-0.1,0.6-0.1,1c-0.1,0.7,0.4,1.2,0.7,1.8c0.6,0.9,1.3,2.3,2.5,2.4
		c0.5,0,1.1,0.1,1.6,0.1c2.2,0.1,4.4,0.2,6.5,0.3c1.4,0.1,2.8,0.2,4.2,0.2c0.8,0,1.5-0.3,1.9-1c0.3-0.6,0.1-1.2,0.1-1.7
		c-0.3-3.1-0.7-6.1-1-9.1c1.7,2.7,3.5,5.3,5.2,8c0.4,0.7,1,1.7,1.7,2.1c0.6,0.4,1.5,0.3,2.3,0.3c1.8,0,3.6,0.1,5.3,0
		c1.6,0,1.8-1.4,1.9-2.6c0.1-1.3,0.3-2.7,0.4-4c0.5-4.4,0.9-8.7,1.4-13.1c0.4-4,0.9-8.1,1.3-12.1c0.1-0.9,0.2-1.9,0.3-2.8
		c0.1-0.8-0.2-1.6-1-2c-0.3-0.3-0.8-0.6-1.2-0.8c-0.3-0.3-0.7-0.6-1.1-0.8c-0.2-0.1-0.5-0.1-0.7-0.2c-3.1-0.1-6.3-0.2-9.4-0.2
		c-1.2,0-2.4-0.1-3.7-0.1c-1,0-1.6,0.7-1.4,1.7c0.4,1.7,0.6,3.4,0.8,5.1c-0.4-0.9-0.9-1.9-1.3-2.8C412.3,20.4,411.9,18.9,411,18.4
		C410.8,18.3,411.3,18.6,411,18.4z"/>
	<path class="st1" d="M408.3,16.7l-8.2-1c-0.3,0-0.7,0.1-1,0.3c-0.3,0.2-0.4,0.5-0.5,0.9l-3.4,35.9c0,0.3,0.1,0.7,0.3,0.9
		c0.2,0.3,0.5,0.4,0.9,0.4l12.6,0.7c0,0,0,0,0.1,0l0,0c0.7,0,1.3-0.6,1.3-1.3c0-0.1,0-0.2,0-0.3L409.1,41l7.5,11.6
		c0.2,0.4,0.6,0.6,1.1,0.6h6.6c0.7,0,1.2-0.5,1.3-1.1l3.6-33.2c0-0.4-0.1-0.7-0.3-1s-0.6-0.4-0.9-0.4l-13.4-0.3
		c-0.4,0-0.8,0.2-1,0.5s-0.3,0.7-0.3,1.1c0.6,2.5,1,6.5,1.3,9.9l-5.2-11.3C409.1,17,408.7,16.7,408.3,16.7z"/>
	<path class="st2" d="M409.1,53.5l-12.6-0.7l3.4-35.9l8.2,1l8.2,17.7c0,0-0.7-11.9-1.9-17.2l13.4,0.3l-3.6,33.1h-6.6l-10.4-16.1
		L409.1,53.5z"/>
	<g class="st3">
		<path class="st2" d="M401.2,31.7c4.3-0.7,8.6-0.9,12.9-0.8l-6-13l-8.2-1l-1.4,15.2C399.4,32,400.3,31.8,401.2,31.7z"/>
	</g>
	<g class="st3">
		<path class="st2" d="M418.6,31.2c2.7,0.3,5.2,0.8,7.8,1.4l1.5-13.8l-13.4-0.3c0.7,3.1,1.2,8.6,1.5,12.5
			C416.8,31.1,417.7,31.1,418.6,31.2z"/>
	</g>
	<g>
		<path class="st4" d="M408.1,18l-8.2-1l-1.4,15.2c0.3-0.1,2.1-14.1,2.1-14.1l7,1.6l8.9,16.3L408.1,18z"/>
	</g>
	<g>
		<path class="st4" d="M415.2,19.7l11.8,0.9l-0.1,6.8l0.9-8.6l-13.4-0.3c0.2,1.1,0.5,2.5,0.7,3.9L415.2,19.7z"/>
	</g>
	<path class="st5" d="M397.7,51.6c0,0.5,4.1,1,6.4,1.2l4.5,0.3l-1.2-9.2c-0.4-2.8-0.9-3-1.2-3s-0.6-0.1-0.2,3.2l1,7.6l-2.9-0.2
		C402.5,51.3,397.7,51.1,397.7,51.6z M405.7,37.4c0.2-0.1,0.9,0.3,1.1,1.6c0.1,1.2-0.5,1.1-0.8,0.6
		C405.2,38.2,405.5,37.5,405.7,37.4z"/>
	<path class="st5" d="M418.7,51c0,0.2,0.7,0.4,1.5,0.5c0.4,0.1,0.9,0.1,1.4,0.1c0.3,0,0.5,0,0.7,0c0.4,0,0.9,0,1.3,0
		c0-0.3,0.1-0.7,0.1-1c0.2-1.7,0.8-7.2,1.1-9.3s-0.2-2.4-0.5-2.5s-0.6-0.2-0.9,2.3c-0.3,2.5-0.8,6.8-1.1,9.1l0,0l0,0
		c-0.2,0-0.5,0-0.7,0c-0.5,0-1,0-1.5,0.1C419.5,50.6,418.7,50.7,418.7,51z M424.7,36.2c0.2,0,0.8,0.4,0.7,1.4
		c-0.1,0.9-0.7,0.7-0.9,0.3C424.1,36.7,424.5,36.2,424.7,36.2z"/>
</g>
<g>
	<path class="st0" d="M136.1,18.7c0.2,6.1,0.5,12.3,0.8,18.4c0.2,4,0.3,8.1,0.5,12.1c0,1.2,0.1,2.4,0.2,3.6c0,0.3,0,0.5,0,0.8v0.1
		c0,0.4,0.3,0.7,0.5,1c0.3,0.4,0.6,0.9,0.9,1.3c0.5,0.9,1.2,1.3,2.2,1.3c0.8,0,1.6-0.1,2.5-0.1c2-0.1,3.9-0.1,5.9-0.2
		c0.9,0,1.8-0.2,2.1-1.2c0.2-0.6,0-1.4-0.1-2c-0.3-1.9-0.6-3.8-0.9-5.7c0-0.1,0-0.2,0-0.3c2.6,2,5.2,4,7.8,6
		c0.7,0.5,1.5,0.8,2.3,0.3c0.4-0.3,0.8-0.8,1.1-1.2c1.3-1.6,2.6-3.2,3.9-4.8c0.5-0.7,1.4-1.4,1.7-2.2c0.2-0.5,0.1-1-0.2-1.4
		c-0.2-0.3-0.5-1-0.8-1.2c-0.5-0.3-1.1-0.5-1.6-0.8c-1.9-0.9-3.9-1.8-5.8-2.7c3-1.6,5.1-4.4,5.8-7.7c0.7-3.3,0-6.8-2.2-9.4
		c-1.2-1.4-2.7-2.4-4.2-3.4c-1.6-1.1-3.2-2-5-2.6c-3.8-1.3-7.7-1.2-11.6-0.5c-1.2,0.2-2.5,0.5-3.7,0.9
		C137.3,17.3,136.1,17.6,136.1,18.7z M148.7,30.5c0.3,0.1,0.6,0.1,0.9,0.2c-0.2,0.2-0.6,0.3-0.8,0.3
		C148.7,30.9,148.7,30.7,148.7,30.5z"/>
	<path class="st1" d="M136.1,18.7l1.5,35.1c0,0.7,0.6,1.2,1.2,1.2l0,0l9.2-0.3c0.3,0,0.7-0.2,0.9-0.4c0.2-0.3,0.3-0.6,0.3-1
		l-1.3-8.4l9.1,6.9c0.5,0.4,1.3,0.3,1.7-0.2l6-7.3c0.2-0.3,0.3-0.7,0.3-1c-0.1-0.4-0.3-0.7-0.7-0.8l-8.9-4.2
		c0.9-0.4,1.7-0.8,2.5-1.3c4.2-2.9,5.9-8.7,3.9-13.4c-2-4.5-7.7-7.1-12.4-7.7c-1.4-0.2-3.1-0.1-4.8,0c-1.1,0.1-2.2,0.3-3.2,0.5
		c-2.4,0.4-3.6,0.9-4.4,1.2C136.4,17.7,136.1,18.2,136.1,18.7z M149.7,30.4c-0.1,0.3-0.2,0.7-1.3,0.7c-0.6,0-1.3-0.1-2.1-0.3
		l-0.1-2.8c1.2,0.1,2.7,0.6,3.3,1.4C149.8,29.7,149.8,30,149.7,30.4z"/>
	<path class="st2" d="M163.8,43.5L152.1,38c1.8-0.4,3.5-1.1,5.1-2.2c3.8-2.6,5.2-7.8,3.5-11.9c-1.8-4.2-7.1-6.5-11.4-6.9
		c-1.4-0.2-3-0.1-4.6,0c-1.1,0.1-2.1,0.2-3.1,0.4c-2.1,0.4-3.3,0.8-4.1,1.2l0.1,1.7l1.2,33.4l9.2-0.3l-1.8-11.3l11.5,8.8L163.8,43.5
		z M145.4,26.8c2.1-0.2,6.2,1.2,5.5,3.9c-0.6,2.3-3.4,1.6-5.7,1.1l-0.2-5C145.1,26.8,145.3,26.8,145.4,26.8z"/>
	<g class="st8">
		<path class="st2" d="M138,34c3.6,1.4,7.4,2.6,11.2,2.6c2.6,0,5.2-0.3,7.8-0.7l0.1-0.1c3.8-2.6,5.2-7.8,3.5-11.9
			c-1.8-4.2-7.1-6.5-11.4-6.9c-1.4-0.2-3-0.1-4.6,0c-1.1,0.1-2.1,0.2-3.1,0.4c-2.1,0.4-3.3,0.8-4.1,1.2l0.1,1.7L138,34z M145.4,26.8
			c2.1-0.2,6.2,1.2,5.5,3.9c-0.6,2.3-3.4,1.6-5.7,1.1l-0.2-5C145.1,26.8,145.3,26.8,145.4,26.8z"/>
	</g>
	<path class="st4" d="M150.3,28.4c0.6,0.6,0.9,1.4,0.6,2.3c-0.6,2.3-3.4,1.6-5.7,1.1l-0.2-4.7h-0.1v5.3l0.8,0.2
		c1,0.2,2.1,0.5,3.2,0.5c2.2,0,2.4-0.7,2.7-1.6c0.2-1,0.1-1.4-0.5-2.2C150.9,28.9,150.6,28.7,150.3,28.4z"/>
	<path class="st4" d="M138.1,20.1c0.7-0.3,1.8-0.6,3.5-0.9c1-0.2,2-0.3,3.1-0.4c0.8-0.1,1.6-0.1,2.4-0.1c0.7,0,1.4,0,2,0.1
		c4.2,0.5,9.2,2.7,10.9,6.5c1.5,3.4,0.5,7.6-2.2,10.1c3.4-2.7,4.5-7.6,2.9-11.4c-1.8-4.2-7.1-6.5-11.4-6.9c-1.4-0.2-3-0.1-4.6,0
		c-1.1,0.1-2.1,0.2-3.1,0.4c-2.1,0.4-3.3,0.8-4.1,1.2l0.1,1.7l0.1,3.8L138.1,20.1z"/>
	<polygon class="st4" points="152.1,38 163.8,43.5 160.6,47.4 162.4,43.6 150.6,38 	"/>
	<path class="st6" d="M140,52.6c0,0.5,2.9,0.4,4.4,0.3l2.9-0.3l-0.9-6.5c-0.3-1.9-0.8-2-1-2s-0.6-0.1-0.3,2.2l0.7,5.2l-1.6,0.2
		C143.1,51.7,139.9,52.1,140,52.6z M144.9,41.7c0.2-0.1,0.9,0.2,1,1s-0.5,0.8-0.8,0.5C144.4,42.3,144.7,41.8,144.9,41.7z"/>
</g>
<g>
	<path class="st0" d="M372.5,19.8c-6,0-11.9,2.9-15.3,7.9c-1.6,2.4-2.6,5.2-2.8,8.1c-0.2,3.7,1,7.1,3.1,10.1
		c0.9,1.3,1.8,2.6,2.9,3.8c1.1,1.1,2.3,2,3.7,2.8c2.9,1.7,6.3,2.5,9.6,2.6c6.1,0.2,12.3-2.1,16.2-6.9c4-4.8,4.8-11.7,2.1-17.3
		c-0.7-1.5-1.7-2.9-2.9-4.1c-1.3-1.4-3-2.4-4.6-3.5c-3-2.1-6.6-3.2-10.2-3.4C373.8,19.8,373.2,19.8,372.5,19.8z M370.6,43.3
		c-0.8,0-1.7-0.1-2.5-0.4s-1.2-1.1-1.6-1.9c-0.6-1.4-0.7-2.9-0.2-4.4c0.9-2.7,3.8-4.4,6.6-4.2c0.8,0.1,1.5,0.2,2.3,0.5
		c0.6,0.3,1.7,0.8,2,1.4c0.6,1.5,0.6,3.1,0,4.5C376.1,41.6,373.4,43.3,370.6,43.3z"/>
	<path class="st1" d="M354.4,36.7c0,9.1,7.8,16,18.1,16c10.4,0,18.6-7.1,18.8-16.2c0.1-4.4-1.4-8.3-4.3-11.3
		c-3.4-3.5-8.7-5.4-14.4-5.4C362.5,19.8,354.4,27.4,354.4,36.7z M370.6,30.1c3.8,0,7,3,7,6.6c0,3.7-3.1,6.6-7,6.6c-3.8,0-7-3-7-6.6
		C363.6,33,366.7,30.1,370.6,30.1z"/>
	<path class="st2" d="M372.5,20.9c-9.4,0-16.9,7.1-16.9,15.7c0,8.7,7.6,14.8,16.9,14.8c9.4,0,17.4-6.3,17.6-15
		C390.3,26.3,381.9,20.9,372.5,20.9z M370.6,44.5c-4.5,0-8.2-3.5-8.2-7.8s3.7-7.8,8.2-7.8s8.2,3.5,8.2,7.8
		C378.7,41,375.1,44.5,370.6,44.5z"/>
	<g class="st3">
		<path class="st2" d="M356.6,40c2.5,0.7,5.1,1.4,7.7,1.8c-1.2-1.4-1.9-3.1-1.9-5c0-4.3,3.7-7.8,8.2-7.8s8.2,3.5,8.2,7.8
			c0,1.4-0.4,2.7-1.1,3.9c4.2-1.4,8.3-3.2,12.5-4.8c-0.2-9.7-8.4-14.8-17.6-14.8c-9.4,0-16.9,7.1-16.9,15.7c0,1.1,0.1,2.1,0.3,3.1
			C356.2,39.8,356.4,39.9,356.6,40z"/>
	</g>
	<g>
		<path class="st4" d="M372.5,22.3c8.7,0,16.6,4.7,17.5,13.5h0.1c-0.2-9.7-8.4-14.8-17.6-14.8c-9.4,0-16.9,7.1-16.9,15.7
			c0,0.2,0,0.5,0,0.7C356,29,363.4,22.3,372.5,22.3z"/>
	</g>
	<path class="st4" d="M363.1,39.8c0,0,2.2,4.7,7.5,4.8s7.4-4.5,8-6.3c0,0-0.5,7.3-8.4,6.9C364.2,44.7,363.1,39.8,363.1,39.8z"/>
	<path class="st5" d="M367.1,49.2c-0.1,0.2,0.9,0.8,2.3,1.2c1.4,0.4,3.1,0.5,4.3,0.5s3.7-0.4,6.1-1.4c1.2-0.5,2.3-1.1,3.3-1.8
		s1.8-1.3,2.3-1.9c1.1-1,1.5-1.8,1.7-2.2c0.2-0.5,0.1-0.6,0-0.7s-0.2-0.2-0.5,0c-0.1,0.1-0.4,0.3-0.7,0.7c-0.2,0.2-0.3,0.3-0.6,0.6
		c-0.2,0.2-0.5,0.5-0.8,0.8s-0.7,0.6-1,0.9c-0.4,0.3-0.8,0.6-1.2,0.9c-0.9,0.6-1.9,1.1-2.9,1.5c-2.1,0.9-4.3,1.2-5.8,1.3
		c-0.4,0-1,0-1.7,0c-0.3,0-0.7,0-1.1-0.1c-0.4,0-0.7-0.1-1.1-0.1C368.3,49.3,367.1,49,367.1,49.2z M388.5,39.7
		c0.1,0,0.3,0.1,0.4,0.5c0,0.1,0.1,0.2,0.1,0.3s0,0.2,0,0.3c0,0.3-0.1,0.5-0.3,0.8c-0.7,1.2-1.1,0.6-1,0.1c0.1-0.4,0.1-0.7,0.2-1
		c0.1-0.2,0.1-0.5,0.2-0.6C388.2,39.8,388.4,39.7,388.5,39.7z"/>
</g>
<g>
	<path class="st0" d="M563.4,52.5c0,0.7,0.9,1.5,1.3,2.1c0.5,0.8,1,1.6,2.1,1.5c0.5,0,0.9-0.2,1.4-0.3c2-0.5,4.1-0.9,6.1-1.4
		c1.3-0.3,3.9-0.4,4-2.2c0-0.8-0.2-1.7-0.4-2.5c-1.1-6.9-2.2-13.9-3.2-20.8c0,0,0,0,0-0.1c3.3,0.2,6.5,0.4,9.8,0.5
		c0.7,0,1.3-0.1,1.8-0.7c0.4-0.6,0.3-1.3,0.3-1.9c-0.1-2-0.3-4-0.4-6c-0.1-0.9-0.1-1.8-0.2-2.6c-0.1-0.8-0.1-1.5-0.8-2
		s-1.5-1-2.2-1.5c-0.3-0.2-0.6-0.3-0.9-0.2c-0.3,0-0.6,0-0.8,0c-3.3,0.2-6.6,0.4-9.9,0.5c-4.4,0.2-8.7,0.5-13.1,0.7
		c-1.5,0.1-3.1,0.2-4.6,0.2c-0.6,0-1.7-0.1-2.2,0.3c-0.7,0.5-0.6,1.2-0.5,1.9c0.1,0.9,0.3,1.8,0.4,2.7c0.3,1.9,0.6,3.8,0.9,5.7
		c0.2,1,0.8,1.7,1.3,2.4c0.5,0.7,1,1.5,2,1.5c0.2,0,0.5-0.1,0.7-0.1c1.9-0.3,3.7-0.6,5.6-0.9c0.1,0,0.2,0,0.3,0
		c0.4,6.8,0.7,13.6,1.1,20.4C563.3,50.7,563.3,51.6,563.4,52.5z"/>
	<path class="st1" d="M563.4,52.5c0,0.4,0.2,0.7,0.5,0.9c0.2,0.2,0.5,0.2,0.7,0.2c0.1,0,0.2,0,0.3,0l9.9-2.3c0.6-0.1,1-0.7,0.9-1.4
		L572,26.3l10.7,0.6c0,0,0,0,0.1,0l0,0c0.7,0,1.2-0.5,1.2-1.2c0-0.1,0-0.2,0-0.2l-0.6-9.9c0-0.7-0.6-1.2-1.3-1.1L552,16.1
		c-0.3,0-0.7,0.2-0.9,0.5s-0.3,0.6-0.3,1l1.5,9.6c0,0.3,0.2,0.6,0.5,0.8c0.3,0.2,0.6,0.3,0.9,0.2l8.3-1.4L563.4,52.5z"/>
	<polygon class="st2" points="552.1,17.3 553.6,26.9 563.1,25.3 564.6,52.5 574.5,50.2 570.6,25.1 582.8,25.8 582.2,15.7 	"/>
	<path class="st6" d="M563.1,25.3l0.4,8.2c2.8,0.1,5.5-0.1,8.3-0.4l-1.2-8l12.2,0.7l-0.6-10.1l-30.1,1.6l1.5,9.6L563.1,25.3z"/>
	<polygon class="st4" points="582.2,15.7 552.1,17.3 552.8,21.8 552.9,19 581.5,17.4 582.7,23.9 	"/>
	<path class="st7" d="M573.1,49.8c-0.1-0.5-3.9-0.2-6,0.1l-0.8,0.1l-0.6-9c-0.2-2.6-0.7-2.8-0.9-2.8s-0.6-0.2-0.3,2.9l0.7,10.3
		l2.2-0.3C568.8,51,573.1,50.3,573.1,49.8z M564.3,35c0.2-0.1,0.9,0.4,0.9,1.5c0.1,1.1-0.6,1-0.8,0.5
		C563.8,35.7,564.1,35.1,564.3,35z"/>
</g>
<g>
	<path class="st0" d="M604.6,18.1c-6,0-11.9,2.9-15.3,7.9c-1.6,2.4-2.6,5.2-2.8,8.1c-0.2,3.7,1,7.1,3.1,10.1
		c0.9,1.3,1.8,2.6,2.9,3.8c1.1,1.1,2.3,2,3.7,2.8c2.9,1.7,6.3,2.5,9.6,2.6c6.1,0.2,12.3-2.1,16.2-6.9c4-4.8,4.8-11.7,2.1-17.3
		c-0.7-1.5-1.7-2.9-2.9-4.1c-1.3-1.4-3-2.4-4.6-3.5c-3-2.1-6.6-3.2-10.2-3.4C605.9,18.1,605.2,18.1,604.6,18.1z M602.6,41.7
		c-0.8,0-1.7-0.1-2.5-0.4s-1.2-1.1-1.6-1.9c-0.6-1.4-0.7-2.9-0.2-4.4c0.9-2.7,3.8-4.4,6.6-4.2c0.8,0.1,1.5,0.2,2.3,0.5
		c0.6,0.3,1.7,0.8,2,1.4c0.6,1.5,0.6,3.1,0,4.5C608.2,40,605.5,41.7,602.6,41.7z"/>
	<path class="st1" d="M586.5,35c0,9.1,7.8,16,18.1,16c10.4,0,18.6-7.1,18.8-16.2c0.1-4.4-1.4-8.3-4.3-11.3
		c-3.4-3.5-8.7-5.4-14.4-5.4C594.6,18.1,586.5,25.7,586.5,35z M602.6,28.4c3.8,0,7,3,7,6.6c0,3.7-3.1,6.6-7,6.6c-3.8,0-7-3-7-6.6
		C595.7,31.4,598.8,28.4,602.6,28.4z"/>
	<path class="st2" d="M604.6,19.3c-9.4,0-16.9,7.1-16.9,15.7c0,8.7,7.6,14.8,16.9,14.8c9.4,0,17.4-6.3,17.6-15
		C622.3,24.7,614,19.3,604.6,19.3z M602.6,42.9c-4.5,0-8.2-3.5-8.2-7.8s3.7-7.8,8.2-7.8s8.2,3.5,8.2,7.8S607.1,42.9,602.6,42.9z"/>
	<g class="st3">
		<path class="st2" d="M588.7,38.3c2.5,0.7,5.1,1.4,7.7,1.8c-1.2-1.4-1.9-3.1-1.9-5c0-4.3,3.7-7.8,8.2-7.8s8.2,3.5,8.2,7.8
			c0,1.4-0.4,2.7-1.1,3.9c4.2-1.4,8.3-3.2,12.5-4.8c-0.2-9.7-8.4-14.8-17.6-14.8c-9.4,0-16.9,7.1-16.9,15.7c0,1.1,0.1,2.1,0.3,3.1
			C588.2,38.2,588.5,38.3,588.7,38.3z"/>
	</g>
	<g>
		<path class="st4" d="M604.6,20.7c8.7,0,16.6,4.7,17.5,13.5h0.1c-0.2-9.7-8.4-14.8-17.6-14.8c-9.4,0-16.9,7.1-16.9,15.7
			c0,0.2,0,0.5,0,0.7C588.1,27.4,595.5,20.7,604.6,20.7z"/>
	</g>
	<path class="st4" d="M595.1,38.1c0,0,2.2,4.7,7.5,4.8s7.4-4.5,8-6.3c0,0-0.5,7.3-8.4,6.9C596.2,43.1,595.1,38.1,595.1,38.1z"/>
	<path class="st5" d="M599.1,47.6c-0.1,0.2,0.9,0.8,2.3,1.2c1.4,0.4,3.1,0.5,4.3,0.5s3.7-0.4,6.1-1.4c1.2-0.5,2.3-1.1,3.3-1.8
		s1.8-1.3,2.3-1.9c1.1-1,1.5-1.8,1.7-2.2c0.2-0.5,0.1-0.6,0-0.7s-0.2-0.2-0.5,0c-0.1,0.1-0.4,0.3-0.7,0.7c-0.2,0.2-0.3,0.3-0.6,0.6
		c-0.2,0.2-0.5,0.5-0.8,0.8s-0.7,0.6-1,0.9c-0.4,0.3-0.8,0.6-1.2,0.9c-0.9,0.6-1.9,1.1-2.9,1.5c-2.1,0.9-4.3,1.2-5.8,1.3
		c-0.4,0-1,0-1.7,0c-0.3,0-0.7,0-1.1-0.1c-0.4,0-0.7-0.1-1.1-0.1C600.4,47.7,599.2,47.4,599.1,47.6z M620.6,38
		c0.1,0,0.3,0.1,0.4,0.5c0,0.1,0.1,0.2,0.1,0.3s0,0.2,0,0.3c0,0.3-0.1,0.5-0.3,0.8c-0.7,1.2-1.1,0.6-1,0.1c0.1-0.4,0.1-0.7,0.2-1
		c0.1-0.2,0.1-0.5,0.2-0.6C620.3,38.2,620.5,38.1,620.6,38z"/>
</g>
<g>
	<path class="st0" d="M868.6,55.4c0.2,0.4,0.5,0.9,0.8,1.2c0.2,0.4,0.5,0.8,0.7,1.1c0.3,0.4,0.9,0.7,1.4,0.7c0.4,0,0.8,0,1.1,0
		c1.9,0,3.7,0,5.6,0c3.9,0,7.7,0,11.6,0c0.6,0,1.2-0.1,1.7-0.6c0.6-0.6,0.5-1.4,0.5-2.2c0-2,0.1-4,0.1-6c0-0.3,0-0.6-0.1-0.9
		c-0.3-0.8-1.1-1.1-1.7-1.6c-0.8-0.7-1.6-1.2-2.6-1.2c-1.1,0-2.1,0-3.2-0.1c-0.4,0-0.7,0-1.1,0c-0.3,0-0.1-0.5-0.1-0.7s0-0.4,0-0.6
		c1.8,0.1,3.5,0.1,5.3,0.2c0.6,0,1.4,0.2,1.9,0c1-0.3,1.2-1.3,1.3-2.2c0.2-2,0.4-4,0.6-6c0-0.2,0.1-0.5,0-0.8
		c-0.1-0.9-0.8-1.1-1.4-1.6c-0.5-0.4-1.1-0.8-1.6-1.2c-0.3-0.3-0.7-0.3-1.1-0.3c-1,0-2.1-0.1-3.1-0.1c-0.3,0-1.8,0.1-1.8-0.2
		c0-0.1,0-1,0-1c0.2,0,0.4,0,0.6,0c1,0,2,0,2.9,0c1.7,0,3.4,0.2,5,0c2.2-0.2,1.6-3.2,1.5-4.7c0-2-0.1-4.1-0.1-6.1
		c0-1-0.3-1.6-1.2-2.2c-0.5-0.3-1-0.8-1.6-1.1c-0.4-0.2-0.7-0.5-1.2-0.5c-3,0.3-6.1,0.5-9.1,0.8c-4.2,0.4-8.4,0.7-12.5,1.1
		c-0.8,0.1-2.4-0.1-2.9,0.8c-0.4,0.6-0.1,1.6,0,2.3c0.8,8.1,1.6,16.3,2.4,24.4c0.2,2.1,0.4,4.2,0.6,6.3
		C868.1,53.1,868,54.7,868.6,55.4C868.7,55.5,868.4,55.2,868.6,55.4z"/>
	<path class="st1" d="M869.5,55.7h18.7c0.7,0,1.3-0.6,1.3-1.2l0.2-7.3c0-0.3-0.1-0.7-0.4-0.9c-0.2-0.2-0.6-0.4-0.9-0.4l-7.5-0.1
		l-0.1-3.9l7.1,0.3c0.7,0,1.3-0.5,1.3-1.1l0.7-7c0-0.3-0.1-0.7-0.3-1c-0.2-0.3-0.6-0.4-0.9-0.4l-7.8-0.3v-3.7h8.9
		c0.3,0,0.7-0.1,0.9-0.4c0.2-0.2,0.4-0.6,0.4-0.9l-0.2-9.5c0-0.4-0.2-0.7-0.4-0.9c-0.3-0.2-0.6-0.4-1-0.3l-23.6,2
		c-0.3,0-0.7,0.2-0.9,0.4c-0.2,0.3-0.3,0.6-0.3,1l3.4,34.5C868.3,55.2,868.9,55.7,869.5,55.7z"/>
	<polygon class="st2" points="889.7,17.9 889.9,27.4 879.7,27.4 879.7,33.5 888.7,33.9 888,40.9 879.5,40.5 879.7,47 888.4,47.1 
		888.2,54.4 869.5,54.4 866.1,19.9 	"/>
	<path class="st6" d="M869.3,40.6c2.9,0.4,5.6,0.5,8.6,0c2.1-0.3,4.3-0.8,7-1.7c1.2-0.4,2.3-0.7,3.4-1.1l0.4-3.9l-9-0.3v-6.1h10.2
		l-0.2-9.5l-23.6,2l2,20.5C868.5,40.5,868.9,40.5,869.3,40.6z"/>
	<path class="st4" d="M879.3,34l8.9,0.5c0,0,0,1.1,0.1,3.3l0.4-3.9l-9-0.3v-5.9L879.3,34z"/>
	<polygon class="st4" points="867.2,21.3 888.9,19.1 889.9,27.4 889.7,17.9 866.1,19.9 867.4,32.8 	"/>
	<polygon class="st4" points="879.5,40.5 879.7,47 888.4,47.1 888.3,50 887.8,47.9 879.1,47.4 	"/>
	<path class="st6" d="M886.5,54c0-0.5-4.2-1-6.6-1.1l-8.4-0.5l-0.2-2.9c-0.2-2.9-0.7-3.2-1-3.2s-0.6-0.2-0.4,3.3l0.3,4l9.6,0.6
		C881.6,54.3,886.5,54.5,886.5,54z M870.1,42.7c0.2-0.1,0.9,0.4,1,1.7s-0.6,1.1-0.8,0.6C869.5,43.5,869.8,42.8,870.1,42.7z"/>
</g>
<g>
	<path class="st0" d="M797.5,24.7c-0.7-0.4-1.4-0.9-2.1-1.3c-2.3-1.4-4.7-2.1-7.2-2.9c-0.7-0.2-3.2-1.6-3.6-0.3
		c-0.5,0.8-0.7,2.2-0.9,3.1c-0.9,2.9-1.8,5.8-2.7,8.8c-1.3-3.4-2.6-6.8-3.9-10.3c-0.5-1.4-0.8-3.4-2.2-4.2c-0.7-0.4-1.4-0.9-2.1-1.3
		c-0.4-0.3-1.1-0.9-1.6-0.8c-1.4-0.1-3.1,0.5-4.6,0.8c-2,0.3-4,0.7-6,1c-1.2,0.2-1.1,1-0.8,1.9c0.5,1.1,0.9,2.2,1.4,3.2
		c1.7,3.9,3.4,7.8,5.1,11.7c2.9,6.6,5.8,13.2,8.7,19.8c0.3,0.7,1.6,1.3,2.3,1.7c0.3,0.2,0.7,0.4,1,0.7c1.3,0.9,2.8,0.6,4.3,0.6
		c1.6,0,3.6,0.4,5.2,0.1c0.9,0,1.1-1.4,1.3-2c1.1-3.7,2.2-7.3,3.3-11c1.2-4.2,2.5-8.4,3.7-12.6c0.4-1.4,0.9-2.9,1.3-4.3
		C797.7,26.5,798.3,25.2,797.5,24.7C797.5,24.7,797.8,24.9,797.5,24.7z"/>
	<polygon class="st2" points="785.4,20.5 793.4,23.2 784.3,53.8 776,53.6 760.5,18.2 771.3,16.4 779.7,38.8 	"/>
	<path class="st9" d="M791.2,30.6l2.2-7.4l-8-2.7L781.5,33C784.9,32.6,788.1,31.6,791.2,30.6z"/>
	<path class="st9" d="M777.6,33.2l-6.3-16.8l-10.9,1.8l5.9,13.6C770.1,32.5,773.9,33.1,777.6,33.2z"/>
	<path class="st1" d="M793.7,22.3l-8-2.7c-0.2-0.1-0.5-0.1-0.7,0s-0.4,0.3-0.4,0.5l-4.9,15.8L772.2,16c-0.1-0.4-0.6-0.6-1-0.6
		l-10.9,1.8c-0.3,0-0.5,0.2-0.6,0.4c-0.1,0.2-0.1,0.5,0,0.8l15.5,35.4c0.1,0.3,0.4,0.5,0.8,0.5l8.4,0.2l0,0c0.4,0,0.7-0.3,0.8-0.6
		l9.1-30.7C794.4,23,794.2,22.5,793.7,22.3z M783.7,52.9l-7.2-0.2l-14.8-33.9l9-1.5l8.2,21.7c0.1,0.4,0.5,0.6,0.8,0.6
		c0.4,0,0.7-0.3,0.8-0.6l5.4-17.4l6.4,2.1L783.7,52.9z"/>
	<path class="st4" d="M786,21.6L780.6,39c-0.1,0.4-0.4,0.6-0.8,0.6s-0.7-0.2-0.8-0.6l-8.2-21.7l-9,1.5l0.4,1l8.4-1.4l8.1,21.7
		c0.1,0.4,0.5,0.6,0.8,0.6c0.4,0,0.7-0.3,0.8-0.6l5.4-17.4l6.3,2.1l0.3-1.1L786,21.6z"/>
	<path class="st6" d="M786.9,38.5c0.1-0.3-0.5-1.7-1.4,0.9c-0.6,2-3,9.5-3.3,11.4c0,0.1-1.5,0.1-1.7,0.1c-0.9,0.1-1.8,0.1-2.8,0
		c-0.8-0.1-1,1.1-0.3,1.3c0.7,0.3,4.2,0.4,5.2,0.1c0.7-0.3,0.6-0.9,0.8-1.4c0.1-0.4,0.3-0.9,0.4-1.4c0.3-1,0.6-2.1,0.8-3.1
		c0.1-0.2,0.1-0.5,0.2-0.7C785.7,43.8,786.6,40.2,786.9,38.5z"/>
	<path class="st6" d="M787.9,34.6C787.9,34.6,787.9,34.5,787.9,34.6c-0.3-0.1-0.6,0-0.7,0.2c-0.1,0.1-0.1,0.2-0.1,0.3
		c-0.3,0.5-0.6,1.4,0,1.8c0.1,0.1,0.3,0.1,0.5,0c0.6-0.4,0.6-1,0.8-1.6C788.4,35,788.2,34.7,787.9,34.6z"/>
</g>
<g>
	<path class="st0" d="M466.9,17.2c-0.5,0.5-0.3,1.2-0.3,1.8c0,1,0,1.9,0.1,2.9c0,1.7,0.1,3.5,0.1,5.2c0,0.5,0.2,0.8,0.5,1.1
		c0.5,0.7,1,1.7,1.6,2.2c0.8,0.6,2,0.4,2.9,0.4c0.5,0,0.4,0,0.4,0.5c0,0.7,0.1,1.4,0.1,2.1c0.2,3.7,0.3,7.3,0.5,11
		c0,0.3-1,0.2-1.2,0.2c-0.8,0-1.7,0.1-2.5,0.1c-1.1,0.1-1.2,1-1.1,1.9c0.1,0.9,0.2,1.7,0.3,2.6c0.2,1.8,0.4,3.6,0.6,5.4
		c0,0.4,0.3,0.7,0.5,1.1c0.3,0.4,0.5,0.7,0.8,1.1s0.5,0.8,0.9,1.1c0.6,0.4,1.2,0.4,1.8,0.3c3.8-0.5,7.7-1,11.5-1.5
		c0.9-0.1,2.1-0.1,3-0.5c1.4-0.7,0.9-3,0.9-4.3c0-1.6-0.1-3.1-0.1-4.7c0-1.3-1.3-1.6-2.1-2.3c-0.4-0.4-1.1-0.9-1.7-0.9
		c-0.3,0-0.7,0-1,0.1c0.1-3.4,0.2-6.7,0.3-10.1c0-0.8,0.1-1.6,0.1-2.4c0-0.2-0.1-0.7,0.2-0.7c0.9,0,1.8,0,2.7,0c1.2,0,1.8-0.9,1.8-2
		c0-1.8-0.1-3.5-0.1-5.3c0-1,0-1.9-0.1-2.9c0-0.6,0.1-1.3-0.3-1.8c-0.2-0.3-2.6-2.1-3.2-2.2c-0.3,0-0.7,0-1,0c-1.7,0-3.4,0-5.2,0
		c-2.5,0-5,0.1-7.4,0.1c-0.9,0-1.7,0-2.6,0C468,16.8,467.3,16.7,466.9,17.2C466.7,17.4,467.1,16.9,466.9,17.2z"/>
	<path class="st1" d="M466.9,17.2c-0.2,0.2-0.4,0.5-0.4,0.9l0.2,9.1c0,0.7,0.6,1.2,1.2,1.2h4.2l0.7,16.2l-3.8,0.2
		c-0.3,0-0.6,0.2-0.9,0.4c-0.2,0.3-0.3,0.6-0.3,0.9l1,8.6c0,0.3,0.2,0.6,0.5,0.8c0.2,0.2,0.5,0.3,0.8,0.3c0.1,0,0.1,0,0.2,0l14.5-2
		c0.6-0.1,1.1-0.6,1.1-1.2l-0.2-7.5c0-0.3-0.2-0.6-0.4-0.9c-0.2-0.2-0.6-0.3-0.9-0.3l-3.5,0.2l0.5-15.8h3.4l0,0
		c0.7,0,1.2-0.5,1.2-1.2c0-0.1,0-0.1,0-0.2l-0.2-9.1c0-0.7-0.6-1.2-1.2-1.2l-16.8,0.2C467.5,16.8,467.1,16.9,466.9,17.2z"/>
	<polygon class="st2" points="479.5,45.5 480.2,27.1 484.7,27.1 484.5,17.9 467.8,18 468,27.1 473.3,27.1 474.1,45.7 469.1,46 
		470.1,54.6 484.5,52.7 484.4,45.2 	"/>
	<g class="st3">
		<path class="st2" d="M473.3,27.1l0.3,7.3c2.1,0.1,4.2,0.3,6.3,0.5l0.3-7.8h4.5l-0.2-9.3L467.7,18l0.2,9.1H473.3L473.3,27.1z"/>
	</g>
	<g>
		<polygon class="st4" points="468.5,19.2 484.3,19.1 484.6,22.5 484.5,17.9 467.8,18 467.9,24.3 		"/>
	</g>
	<polygon class="st4" points="474,44.4 474.3,46.3 469.7,46.9 469.8,52.5 469.1,46 474,45.7 	"/>
	<polygon class="st4" points="479.6,44.4 479.5,45.9 484.1,45.8 484.5,52.2 484.4,45.2 479.6,45.3 	"/>
	<path class="st5" d="M470.6,53.4c0.1,0.5,2.9,0.2,4.4,0s6.1-1,8-1.3c0.4-0.1,0.8-0.1,1.1-0.2c0-0.3,0-0.7,0-0.9s0-0.2,0-0.3
		s0-0.1,0-0.2c0-0.2-0.1-0.4-0.2-0.5c-0.1-0.2-0.3-0.3-0.4-0.3c-0.1,0-0.2,0-0.3,0.1s-0.1,0.2-0.1,0.5c0,0.1,0,0.2-0.1,0.4l0,0l0,0
		c-2.2,0.4-6,1-8,1.3C473.7,52.4,470.5,53,470.6,53.4z M483.3,47.6c0.2,0,0.8,0.3,0.8,1.1s-0.6,0.7-0.8,0.3
		C482.7,48,483.1,47.6,483.3,47.6z"/>
</g>
<g>
	<path class="st0" d="M493.5,52.5c2,3,4.8,5.4,8.4,6.3c3.2,0.8,6.8,0.3,9.6-1.5c2.7-1.7,4.5-4.5,4.7-7.7s-1-6-3-8.4
		c-1.9-2.3-4.5-3.9-6.6-6c-0.8-0.8-2.2-2.2-1.6-3.4c0.3-0.7,1.1-1.2,1.8-1.2c0.3,0,0.4-0.1,0.5,0.2c0,0.2,0,0.4,0,0.7
		c0,0.5,0,1-0.1,1.5c-0.1,0.7,0.3,1.2,0.8,1.8c0.4,0.5,0.6,1.2,1.1,1.6c0.7,0.6,1.6,0.3,2.3,0.1c1-0.3,1.9-0.7,2.8-1.1
		c1.8-0.8,3.5-1.8,5.3-2.5c1.7-0.8,1.2-2.7,0.8-4.2c-0.7-3.1-2.5-5.9-5.1-7.6c-1.4-1-2.8-2.1-4.4-2.7c-1.7-0.6-3.5-0.8-5.2-0.6
		c-3.4,0.5-6.4,2.6-8.3,5.4c-1.9,2.9-2.9,6.2-2,9.6c0.7,2.3,2.2,4.4,3.7,6.2c0.8,1,1.8,1.9,2.9,2.6c0.5,0.4,1.1,0.8,1.6,1.2
		c0.2,0.2,0.5,0.3,0.5,0.6s0,0.6-0.2,0.8c0.2-1.1-0.6-1.8-1.6-2.3c-0.6-0.5-1.4-1.1-2.2-1c-2.6,0.3-5.3-0.3-8-0.2
		c-0.5,0-1.1,0-1.5,0.3c-0.4,0.4-0.5,1-0.6,1.5c-0.2,1.1-0.2,2.3,0.1,3.5C490.7,48.4,492.1,50.4,493.5,52.5
		C493.6,52.6,493.5,52.4,493.5,52.5z"/>
	<path class="st1" d="M496.2,54.7c2,1.4,4.5,2.2,7,2.2l0,0c3.7,0,7.1-1.7,9.3-4.6c2.3-3.1,1.9-7.6,0.4-10.2c-1.7-3-3.7-4.7-6.1-6.6
		c-1.4-1.1-3.9-3.1-4.1-4.9c0-0.6,0.2-1,0.6-1.6c0.5-0.5,1.2-0.9,2-0.9c0.5,0,1,0.2,1.3,0.4c0.9,0.8,0.8,2.9,0.7,4.5
		c0,0.4,0.1,0.7,0.4,1c0.3,0.2,0.7,0.3,1,0.2c2.2-0.6,4.3-1.6,6.2-2.6c0.9-0.5,1.9-1,2.9-1.4c0.5-0.2,0.7-0.7,0.7-1.2
		c0-0.2,0-0.5-0.1-0.7c-0.5-6.3-5.4-11-11.3-11c-2.7,0-5.4,1-7.6,3c-1.9,1.7-3.8,4.9-4.3,7.4c-0.7,3.2,0.4,6.6,2.8,9.3
		c0.8,0.9,1.8,1.6,2.7,2.3c1.4,1,2.7,2,3.2,3.4c0.2,0.5,0,1-0.1,1.2c-0.3,0.4-0.7,0.6-1.1,0.6c-0.3,0-0.6-0.1-0.9-0.4
		c-0.4-0.4-0.4-1.1-0.2-2.3c0.1-0.4-0.1-0.7-0.3-1c-0.3-0.3-0.6-0.4-1-0.3c-0.5,0.1-1.1,0.1-1.7,0.1c-0.9,0-1.9-0.1-2.9-0.1
		c-1-0.1-2-0.1-3-0.1c-0.5,0-0.9,0-1.3,0c-0.5,0-0.9,0.4-1,0.8C488.9,46.3,492.2,51.9,496.2,54.7z"/>
	<path class="st2" d="M506.1,36.4c-2.2-1.7-6.4-5.1-3.6-8.1c1.4-1.5,3.7-1.6,4.9-0.5c1.3,1.1,1.3,3.4,1.1,5.5c3.2-0.8,6-2.6,8.9-3.9
		c0-0.2,0-0.5-0.1-0.7c-0.7-8.7-10.3-13.1-17-7.2c-1.7,1.5-3.5,4.5-4,6.8c-0.6,3.1,0.5,6.1,2.6,8.4c1.9,2.2,5,3.2,6.2,6.1
		c1,2.5-2.2,4.6-4,2.6c-0.8-0.9-0.7-2.1-0.5-3.2c-2.9,0.4-6.2-0.3-9.1-0.1c-1.4,4.3,1.9,9.5,5.3,11.9c4.5,3.2,11.2,2.6,14.7-2.1
		c1.9-2.5,1.7-6.5,0.3-9C510.3,39.8,508.5,38.3,506.1,36.4z"/>
	<path class="st6" d="M503.4,34.1c-1.6-1.7-2.8-3.8-1-5.8c1.4-1.5,3.7-1.6,4.9-0.5c1.3,1.1,1.3,3.4,1.1,5.5c3.2-0.8,6-2.6,8.9-3.9
		c0-0.2,0-0.5-0.1-0.7c-0.7-8.7-10.3-13.1-17-7.2c-1.7,1.5-3.5,4.5-4,6.8c-0.4,2.2,0,4.3,1,6.2C499.4,34.1,501.4,34.1,503.4,34.1z"
		/>
	<g>
		<path class="st4" d="M500.3,22.7c6.5-5.8,15.8-1.7,16.9,6.6c0,0,0.1,0,0.1-0.1c0-0.2,0-0.5-0.1-0.7c-0.7-8.7-10.3-13.1-17-7.2
			c-1.7,1.5-3.5,4.5-4,6.8c-0.2,0.8-0.2,1.6-0.1,2.4c0-0.3,0.1-0.7,0.1-1C496.8,27.2,498.6,24.2,500.3,22.7z"/>
	</g>
	<path class="st4" d="M506.1,37.3c2.4,1.9,4.2,3.5,5.8,6.3c0.6,1.1,1,2.4,1,3.8c0.1-1.7-0.3-3.4-1-4.7c-1.6-2.8-3.4-4.4-5.8-6.3
		c-1.6-1.2-4.2-3.3-4.5-5.5C501.2,33.4,504.3,35.9,506.1,37.3z"/>
	<path class="st4" d="M501.1,46c1.7,1.9,4.6,0.1,4.2-2.2c-0.3,1.8-2.7,2.9-4.2,1.2c-0.4-0.4-0.6-0.9-0.6-1.4
		C500.4,44.5,500.4,45.4,501.1,46z"/>
	<path class="st4" d="M500.4,42.8c0-0.3,0.1-0.6,0.1-0.9c-2.9,0.4-6.2-0.3-9.1-0.1c-0.3,0.8-0.4,1.7-0.3,2.6c0-0.6,0.1-1.1,0.3-1.7
		C494.3,42.5,497.6,43.2,500.4,42.8z"/>
	<path class="st6" d="M492.2,46.8c-0.1,0.1,0,0.3,0.1,0.7c0.1,0.2,0.2,0.4,0.3,0.7s0.2,0.6,0.4,0.8c0.4,0.6,0.7,1.2,1.2,1.8
		c0.2,0.3,0.5,0.6,0.7,0.8s0.5,0.5,0.7,0.7c0.1,0.1,0.2,0.2,0.4,0.3c0.1,0.1,0.3,0.2,0.5,0.4c0.3,0.3,0.7,0.6,1.2,0.8
		c0.9,0.6,2.1,1,3.3,1.3c1.2,0.2,2.5,0.2,3.7,0c1.1-0.2,2.1-0.6,2.7-0.9c0.3-0.1,0.6-0.3,0.9-0.4c0.1,0,0.1-0.1,0.1-0.1
		c0.1,0,0.1-0.1,0.2-0.1c0.1-0.1,0.2-0.1,0.3-0.2c0.4-0.3,0.6-0.5,0.7-0.7c0.2-0.4,0.2-0.6,0.1-0.7c-0.1-0.1-0.1-0.2-0.4-0.1
		c-0.1,0.1-0.4,0.2-0.7,0.4c-0.1,0-0.2,0.1-0.3,0.2c-0.1,0-0.2,0.1-0.4,0.2c-0.1,0.1-0.3,0.1-0.5,0.2s-0.3,0.2-0.5,0.2
		c-0.7,0.3-1.6,0.6-2.6,0.8c-0.2,0-0.5,0.1-0.7,0.1s-0.5,0-0.8,0c-0.5,0-1,0-1.5-0.1l-0.4-0.1c-0.1,0-0.2-0.1-0.4-0.1
		c-0.2-0.1-0.5-0.1-0.7-0.2c-0.5-0.2-0.9-0.4-1.3-0.6c-0.2-0.1-0.4-0.2-0.6-0.4c-0.2-0.1-0.4-0.3-0.5-0.4c-0.2-0.1-0.3-0.2-0.5-0.4
		c-0.1-0.1-0.3-0.3-0.4-0.4c-0.1-0.1-0.3-0.3-0.5-0.5s-0.4-0.4-0.6-0.7c-0.2-0.2-0.5-0.5-0.7-0.7c-0.2-0.3-0.4-0.5-0.6-0.8
		c-0.5-0.5-0.8-1.1-1.1-1.4C492.5,47,492.3,46.8,492.2,46.8z M511.4,49c0.1,0,0.3,0.2,0.3,0.5c0,0.2,0,0.4,0,0.6
		c0,0.1-0.1,0.2-0.1,0.4c-0.1,0.1-0.1,0.3-0.2,0.4c-0.2,0.3-0.3,0.5-0.5,0.5c-0.1,0.1-0.3,0.1-0.3,0.1c-0.2-0.1-0.2-0.3-0.1-0.6
		c0.1-0.4,0.2-0.7,0.3-0.9c0.1-0.3,0.1-0.4,0.2-0.6C511.1,49.1,511.3,49,511.4,49z"/>
</g>
<g>
	<path class="st0" d="M667.1,49c2,3,4.8,5.4,8.4,6.3c3.2,0.8,6.8,0.3,9.6-1.5c2.7-1.7,4.5-4.5,4.7-7.7s-1-6-3-8.4
		c-1.9-2.3-4.5-3.9-6.6-6c-0.8-0.8-2.2-2.2-1.6-3.4c0.3-0.7,1.1-1.2,1.8-1.2c0.3,0,0.4-0.1,0.5,0.2c0,0.2,0,0.4,0,0.7
		c0,0.5,0,1-0.1,1.5c-0.1,0.7,0.3,1.2,0.8,1.8c0.4,0.5,0.6,1.2,1.1,1.6c0.7,0.6,1.6,0.3,2.3,0.1c1-0.3,1.9-0.7,2.8-1.1
		c1.8-0.8,3.5-1.8,5.3-2.5c1.7-0.8,1.2-2.7,0.8-4.2c-0.7-3.1-2.5-5.9-5.1-7.6c-1.4-1-2.8-2.1-4.4-2.7c-1.7-0.6-3.5-0.8-5.2-0.6
		c-3.4,0.5-6.4,2.6-8.3,5.4c-1.9,2.9-2.9,6.2-2,9.6c0.7,2.3,2.2,4.4,3.7,6.2c0.8,1,1.8,1.9,2.9,2.6c0.5,0.4,1.1,0.8,1.6,1.2
		c0.2,0.2,0.5,0.3,0.5,0.6s0,0.6-0.2,0.8c0.2-1.1-0.6-1.8-1.6-2.3c-0.6-0.5-1.4-1.1-2.2-1c-2.6,0.3-5.3-0.3-8-0.2
		c-0.5,0-1.1,0-1.5,0.3c-0.4,0.4-0.5,1-0.6,1.5c-0.2,1.1-0.2,2.3,0.1,3.5C664.3,44.9,665.7,47,667.1,49
		C667.2,49.1,667,48.9,667.1,49z"/>
	<path class="st1" d="M669.7,51.2c2,1.4,4.5,2.2,7,2.2l0,0c3.7,0,7.1-1.7,9.3-4.6c2.3-3.1,1.9-7.6,0.4-10.2c-1.7-3-3.7-4.7-6.1-6.6
		c-1.4-1.1-3.9-3.1-4.1-4.9c0-0.6,0.2-1,0.6-1.6c0.5-0.5,1.2-0.9,2-0.9c0.5,0,1,0.2,1.3,0.4c0.9,0.8,0.8,2.9,0.7,4.5
		c0,0.4,0.1,0.7,0.4,1c0.3,0.2,0.7,0.3,1,0.2c2.2-0.6,4.3-1.6,6.2-2.6c0.9-0.5,1.9-1,2.9-1.4c0.5-0.2,0.7-0.7,0.7-1.2
		c0-0.2,0-0.5-0.1-0.7c-0.5-6.3-5.4-11-11.3-11c-2.7,0-5.4,1-7.6,3c-1.9,1.7-3.8,4.9-4.3,7.4c-0.7,3.2,0.4,6.6,2.8,9.3
		c0.8,0.9,1.8,1.6,2.7,2.3c1.4,1,2.7,2,3.2,3.4c0.2,0.5,0,1-0.1,1.2c-0.3,0.4-0.7,0.6-1.1,0.6c-0.3,0-0.6-0.1-0.9-0.4
		c-0.4-0.4-0.4-1.1-0.2-2.3c0.1-0.4-0.1-0.7-0.3-1c-0.3-0.3-0.6-0.4-1-0.3c-0.5,0.1-1.1,0.1-1.7,0.1c-0.9,0-1.9-0.1-2.9-0.1
		c-1-0.1-2-0.1-3-0.1c-0.5,0-0.9,0-1.3,0c-0.5,0-0.9,0.4-1,0.8C662.5,42.8,665.8,48.4,669.7,51.2z"/>
	<path class="st2" d="M679.7,32.9c-2.2-1.7-6.4-5.1-3.6-8.1c1.4-1.5,3.7-1.6,4.9-0.5c1.3,1.1,1.3,3.4,1.1,5.5c3.2-0.8,6-2.6,8.9-3.9
		c0-0.2,0-0.5-0.1-0.7c-0.7-8.7-10.3-13.1-17-7.2c-1.7,1.5-3.5,4.5-4,6.8c-0.6,3.1,0.5,6.1,2.6,8.4c1.9,2.2,5,3.2,6.2,6.1
		c1,2.5-2.2,4.6-4,2.6c-0.8-0.9-0.7-2.1-0.5-3.2c-2.9,0.4-6.2-0.3-9.1-0.1c-1.4,4.3,1.9,9.5,5.3,11.9c4.5,3.2,11.2,2.6,14.7-2.1
		c1.9-2.5,1.7-6.5,0.3-9C683.8,36.3,682.1,34.8,679.7,32.9z"/>
	<path class="st6" d="M677,30.6c-1.6-1.7-2.8-3.8-1-5.8c1.4-1.5,3.7-1.6,4.9-0.5c1.3,1.1,1.3,3.4,1.1,5.5c3.2-0.8,6-2.6,8.9-3.9
		c0-0.2,0-0.5-0.1-0.7c-0.7-8.7-10.3-13.1-17-7.2c-1.7,1.5-3.5,4.5-4,6.8c-0.4,2.2,0,4.3,1,6.2C673,30.7,675,30.6,677,30.6z"/>
	<g>
		<path class="st4" d="M673.9,19.2c6.5-5.8,15.8-1.7,16.9,6.6c0,0,0.1,0,0.1-0.1c0-0.2,0-0.5-0.1-0.7c-0.7-8.7-10.3-13.1-17-7.2
			c-1.7,1.5-3.5,4.5-4,6.8c-0.2,0.8-0.2,1.6-0.1,2.4c0-0.3,0.1-0.7,0.1-1C670.4,23.7,672.2,20.7,673.9,19.2z"/>
	</g>
	<path class="st4" d="M679.7,33.8c2.4,1.9,4.2,3.5,5.8,6.3c0.6,1.1,1,2.4,1,3.8c0.1-1.7-0.3-3.4-1-4.7c-1.6-2.8-3.4-4.4-5.8-6.3
		c-1.6-1.2-4.2-3.3-4.5-5.5C674.8,29.9,677.9,32.4,679.7,33.8z"/>
	<path class="st4" d="M674.6,42.6c1.7,1.9,4.6,0.1,4.2-2.2c-0.3,1.8-2.7,2.9-4.2,1.2c-0.4-0.4-0.6-0.9-0.6-1.4
		C674,41.1,674,41.9,674.6,42.6z"/>
	<path class="st4" d="M674,39.3c0-0.3,0.1-0.6,0.1-0.9c-2.9,0.4-6.2-0.3-9.1-0.1c-0.3,0.8-0.4,1.7-0.3,2.6c0-0.6,0.1-1.1,0.3-1.7
		C667.9,39,671.2,39.7,674,39.3z"/>
	<path class="st6" d="M665.8,43.3c-0.1,0.1,0,0.3,0.1,0.7c0.1,0.2,0.2,0.4,0.3,0.7s0.2,0.6,0.4,0.8c0.4,0.6,0.7,1.2,1.2,1.8
		c0.2,0.3,0.5,0.6,0.7,0.8s0.5,0.5,0.7,0.7c0.1,0.1,0.2,0.2,0.4,0.3c0.1,0.1,0.3,0.2,0.5,0.4c0.3,0.3,0.7,0.6,1.2,0.8
		c0.9,0.6,2.1,1,3.3,1.3c1.2,0.2,2.5,0.2,3.7,0c1.1-0.2,2.1-0.6,2.7-0.9c0.3-0.1,0.6-0.3,0.9-0.4c0.1,0,0.1-0.1,0.1-0.1
		c0.1,0,0.1-0.1,0.2-0.1c0.1-0.1,0.2-0.1,0.3-0.2c0.4-0.3,0.6-0.5,0.7-0.7c0.2-0.4,0.2-0.6,0.1-0.7c-0.1-0.1-0.1-0.2-0.4-0.1
		c-0.1,0.1-0.4,0.2-0.7,0.4c-0.1,0-0.2,0.1-0.3,0.2c-0.1,0-0.2,0.1-0.4,0.2c-0.1,0.1-0.3,0.1-0.5,0.2s-0.3,0.2-0.5,0.2
		c-0.7,0.3-1.6,0.6-2.6,0.8c-0.2,0-0.5,0.1-0.7,0.1s-0.5,0-0.8,0c-0.5,0-1,0-1.5-0.1l-0.4-0.1c-0.1,0-0.2-0.1-0.4-0.1
		c-0.2-0.1-0.5-0.1-0.7-0.2c-0.5-0.2-0.9-0.4-1.3-0.6c-0.2-0.1-0.4-0.2-0.6-0.4c-0.2-0.1-0.4-0.3-0.5-0.4c-0.2-0.1-0.3-0.2-0.5-0.4
		c-0.1-0.1-0.3-0.3-0.4-0.4c-0.1-0.1-0.3-0.3-0.5-0.5s-0.4-0.4-0.6-0.7c-0.2-0.2-0.5-0.5-0.7-0.7c-0.2-0.3-0.4-0.5-0.6-0.8
		c-0.5-0.5-0.8-1.1-1.1-1.4C666.1,43.5,665.9,43.3,665.8,43.3z M685,45.5c0.1,0,0.3,0.2,0.3,0.5c0,0.2,0,0.4,0,0.6
		c0,0.1-0.1,0.2-0.1,0.4c-0.1,0.1-0.1,0.3-0.2,0.4c-0.2,0.3-0.3,0.5-0.5,0.5c-0.1,0.1-0.3,0.1-0.3,0.1c-0.2-0.1-0.2-0.3-0.1-0.6
		c0.1-0.4,0.2-0.7,0.3-0.9c0.1-0.3,0.1-0.4,0.2-0.6C684.7,45.6,684.9,45.5,685,45.5z"/>
</g>
<g>
	<path class="st0" d="M728.6,22.4c-0.2-0.9-0.9-1.1-1.5-1.5c-0.2-0.2-0.6-0.4-0.9-0.6c-0.4-0.3-0.7-0.7-1.2-0.6
		c-1.6,0-3.3,0.2-4.9,0.3c-0.6,0-1.3,0.1-1.9,0.1c-0.9,0.1-1.2,0.9-1.1,1.6c0.2,1.8,0.1,3.7,0,5.5c0.1,1,0.1,2,0,3
		c0,0.2,0,0.4-0.1,0.6c0.1,2.8-0.7,5.7-3.5,6.4c-0.5,0.2-1,0.2-1.4,0c-0.4,0-0.6-0.2-0.8-0.6c-0.1-0.1-0.1-0.2-0.1-0.3
		c-0.3-0.5-0.5-1-0.6-1.6c-0.2-0.7-0.3-1.4-0.4-2c-0.3-1.7-0.3-3.5-0.3-5.2c0.1-2.1,0.3-4.2,0.7-6.3c0.1-0.5,0-1.1-0.4-1.5
		c-0.3-0.3-0.7-0.5-1-0.8c-0.4-0.3-0.8-0.7-1.3-0.9c-0.5-0.5-1.2-0.3-1.8-0.3c-2,0.2-4,0.3-5.9,0.5c-0.8,0.1-1.5,0.1-2.3,0.2
		c-1,0.1-1.5,0.6-1.5,1.7c-0.1,7.1-0.3,14.4,1,21.4c0.5,2.7,1.3,5.5,3,7.8c1.1,1.5,2,3.1,3.5,4.3c1.4,1.1,3.1,1.9,4.8,2.2
		c-0.5-0.1-2.4-0.5,0,0c0.2,0,0.1,0,0,0c3.8,0.7,7.5-0.3,10.2-3.1c0.2,0.3,0.4,0.7,0.7,1c0.1,0.3,0.4,0.7,0.7,0.9
		c0.4,0.3,0.8,0.4,1.3,0.4c0.9,0,1.9-0.1,2.8-0.1c0.9,0,1.9,0,2.4-0.9c0.2-0.3,0.2-0.7,0.2-1c0.1-2.8,0.3-5.5,0.4-8.3
		c0.4-7.1,0.7-14.3,1.1-21.4C728.6,23,728.6,22.7,728.6,22.4z"/>
	<path class="st1" d="M706.9,53.4c0.8,0.2,1.6,0.2,2.4,0.2c4.2,0,7.1-2.3,8.8-4.8l0.2,2.7c0,0.6,0.6,1.1,1.2,1.1l4-0.2
		c0.6,0,1.1-0.5,1.1-1.1l1.6-30.4c0-0.3-0.1-0.7-0.4-0.9c-0.2-0.2-0.6-0.4-0.9-0.3l-6.8,0.5c-0.3,0-0.6,0.2-0.8,0.4
		c-0.2,0.3-0.3,0.6-0.2,0.9c0,0,0.4,3.3-0.3,10.6c-0.4,3.5-2.4,5-4.2,5l0,0c-1.5,0-3.3-1-4.1-3.8c-1.8-6.3-0.2-14.2-0.1-14.3
		c0.1-0.4,0-0.8-0.3-1c-0.2-0.3-0.6-0.4-1-0.4l-9.5,0.8c-0.6,0.1-1.1,0.6-1.1,1.2C696.2,38.1,696.7,51.4,706.9,53.4z"/>
	<path class="st2" d="M718.3,21.3l6.8-0.5l-1.6,30.4l-4,0.2l-0.5-7.1c0,0-2.7,9.7-11.9,7.9c-9.2-1.7-9.8-14.3-9.5-32.6l9.5-0.8
		c0,0-1.7,8.2,0.2,14.9c1.9,6.6,9.8,6.2,10.6-1.4C718.7,24.7,718.3,21.3,718.3,21.3z"/>
	<g class="st3">
		<path class="st2" d="M698.3,31c2.8-0.5,5.6-0.7,8.4-0.6c-0.7-5.8,0.5-11.6,0.5-11.6l-9.5,0.8c-0.1,4.2-0.1,8,0,11.5
			C697.9,31.1,698.1,31,698.3,31z"/>
	</g>
	<g class="st3">
		<path class="st2" d="M717.9,32.3c0.5,0.2,0.9,0.3,1.4,0.5c1.7,0.6,3.4,1.3,5,2.1l0.7-14l-6.8,0.5
			C718.3,21.3,718.7,24.7,717.9,32.3L717.9,32.3z"/>
	</g>
	<g>
		<path class="st4" d="M697.7,19.6c0,1.4,0,2.8-0.1,4.2l0.3-3.1l8.4-0.2c-0.3,1.7,0.1,9.8,0.4,9.9c-0.7-5.8,0.5-11.6,0.5-11.6
			L697.7,19.6z"/>
	</g>
	<g>
		<path class="st4" d="M719,22.5l5.3-0.4c0,0-0.2,12.7,0,12.8l0.7-14l-6.8,0.5c0,0,0.2,1.7,0.1,5.3C718.3,28.1,719.1,23.8,719,22.5z
			"/>
	</g>
	<path class="st4" d="M706.9,32.1c0,0,0.8,4.9,4.4,5.9c3.6,1,5.8-2.3,6.2-3.8c0,0-2,5.2-5.7,4.7C707.2,38.3,706.9,32.1,706.9,32.1z"
		/>
	<path class="st5" d="M710.5,51.1c0-0.1-0.2-0.2-0.6-0.3c-0.2,0-0.4-0.1-0.6-0.1c-0.2,0-0.5-0.1-0.7-0.1c-1-0.2-2.2-0.6-2.9-0.9
		c-0.8-0.3-2.3-1.4-3.2-2.9c-1-1.5-1.6-3.4-1.8-4.5c-0.1-0.3-0.1-0.5-0.2-0.7c0-0.2-0.1-0.4-0.1-0.6c-0.1-0.3-0.2-0.6-0.3-0.7
		c-0.2-0.3-0.4-0.4-0.5-0.4s-0.3,0-0.3,0.3c0,0.2,0,0.4,0,0.8s0,0.9,0.2,1.6c0.3,1.4,0.9,3.2,1.9,4.8s2.6,2.9,3.8,3.4
		c0.2,0.1,0.4,0.2,0.6,0.2c0.2,0.1,0.5,0.2,0.8,0.2c0.6,0.2,1.2,0.2,1.8,0.3c0.6,0,1.1,0,1.5-0.1C710.3,51.4,710.5,51.3,710.5,51.1z
		 M699.3,37.1c0.2-0.1,0.8,0.3,0.9,1.3c0,1-0.5,0.9-0.8,0.5C698.8,37.7,699.1,37.2,699.3,37.1z"/>
	<path class="st5" d="M720.5,50.7c0,0.1,0.3,0.2,0.6,0.2c0.2,0,0.4,0,0.6,0c0.1,0,0.2,0,0.4,0s0.5,0,0.7-0.1c0-0.4,0.1-0.8,0.1-1.2
		c0-0.3,0.1-0.6,0.1-0.8c0.1-1.3,0.4-5.3,0.5-7c0.1-1.6-0.2-1.8-0.4-1.8s-0.3-0.2-0.5,1.8c-0.1,1.9-0.4,5.2-0.5,7c0,0.2,0,0.4,0,0.7
		c0,0.1,0,0.3,0,0.5v0.1l0,0l0,0c0,0,0,0-0.1,0s-0.2,0-0.4,0.1c-0.2,0-0.4,0.1-0.6,0.1C720.8,50.5,720.5,50.7,720.5,50.7z M723.3,38
		c0.1,0,0.5,0.3,0.5,1c-0.1,0.7-0.4,0.6-0.6,0.3C722.9,38.4,723.1,38.1,723.3,38z"/>
</g>
<g>
	<path class="st0" d="M732,19.7c0.2,6.1,0.5,12.3,0.8,18.4c0.2,4,0.3,8.1,0.5,12.1c0,1.2,0.1,2.4,0.2,3.6c0,0.3,0,0.5,0,0.8v0.1
		c0,0.4,0.3,0.7,0.5,1c0.3,0.4,0.6,0.9,0.9,1.3c0.5,0.9,1.2,1.3,2.2,1.3c0.8,0,1.6-0.1,2.5-0.1c2-0.1,3.9-0.1,5.9-0.2
		c0.9,0,1.8-0.2,2.1-1.2c0.2-0.6,0-1.4-0.1-2c-0.3-1.9-0.6-3.8-0.9-5.7c0-0.1,0-0.2,0-0.3c2.6,2,5.2,4,7.8,6
		c0.7,0.5,1.5,0.8,2.3,0.3c0.4-0.3,0.8-0.8,1.1-1.2c1.3-1.6,2.6-3.2,3.9-4.8c0.5-0.7,1.4-1.4,1.7-2.2c0.2-0.5,0.1-1-0.2-1.4
		c-0.2-0.3-0.5-1-0.8-1.2c-0.5-0.3-1.1-0.5-1.6-0.8c-1.9-0.9-3.9-1.8-5.8-2.7c3-1.6,5.1-4.4,5.8-7.7s0-6.8-2.2-9.4
		c-1.2-1.4-2.7-2.4-4.2-3.4c-1.6-1.1-3.2-2-5-2.6c-3.8-1.3-7.7-1.2-11.6-0.5c-1.2,0.2-2.5,0.5-3.7,0.9C733.2,18.3,732,18.6,732,19.7
		z M744.6,31.5c0.3,0.1,0.6,0.1,0.9,0.2c-0.2,0.2-0.6,0.3-0.8,0.3C744.6,31.9,744.6,31.7,744.6,31.5z"/>
	<path class="st1" d="M732,19.7l1.5,35.1c0,0.7,0.6,1.2,1.2,1.2l0,0l9.2-0.3c0.3,0,0.7-0.2,0.9-0.4c0.2-0.3,0.3-0.6,0.3-1l-1.3-8.4
		l9.1,6.9c0.5,0.4,1.3,0.3,1.7-0.2l6-7.3c0.2-0.3,0.3-0.7,0.3-1c-0.1-0.4-0.3-0.7-0.7-0.8l-8.9-4.2c0.9-0.4,1.7-0.8,2.5-1.3
		c4.2-2.9,5.9-8.7,3.9-13.4c-2-4.5-7.7-7.1-12.4-7.7c-1.4-0.2-3.1-0.1-4.8,0c-1.1,0.1-2.2,0.3-3.2,0.5c-2.4,0.4-3.6,0.9-4.4,1.2
		C732.3,18.7,732,19.2,732,19.7z M745.6,31.4c-0.1,0.3-0.2,0.7-1.3,0.7c-0.6,0-1.3-0.1-2.1-0.3l-0.1-2.8c1.2,0.1,2.7,0.6,3.3,1.4
		C745.6,30.8,745.7,31,745.6,31.4z"/>
	<path class="st2" d="M759.7,44.5L748,39c1.8-0.4,3.5-1.1,5.1-2.2c3.8-2.6,5.2-7.8,3.5-11.9c-1.8-4.2-7.1-6.5-11.4-6.9
		c-1.4-0.2-3-0.1-4.6,0c-1.1,0.1-2.1,0.2-3.1,0.4c-2.1,0.4-3.3,0.8-4.1,1.2l0.1,1.7l1.4,33.3l9.2-0.3L742.3,43l11.5,8.8L759.7,44.5z
		 M741.3,27.8c2.1-0.2,6.2,1.2,5.5,3.9c-0.6,2.3-3.4,1.6-5.7,1.1l-0.2-5C741,27.8,741.2,27.8,741.3,27.8z"/>
	<g class="st8">
		<path class="st2" d="M733.9,35c3.6,1.4,7.4,2.6,11.2,2.6c2.6,0,5.2-0.3,7.8-0.7l0.1-0.1c3.8-2.6,5.2-7.8,3.5-11.9
			c-1.8-4.2-7.1-6.5-11.4-6.9c-1.4-0.2-3-0.1-4.6,0c-1.1,0.1-2.1,0.2-3.1,0.4c-2.1,0.4-3.3,0.8-4.1,1.2l0.1,1.7L733.9,35z
			 M741.3,27.8c2.1-0.2,6.2,1.2,5.5,3.9c-0.6,2.3-3.4,1.6-5.7,1.1l-0.2-5C741,27.8,741.2,27.8,741.3,27.8z"/>
	</g>
	<path class="st4" d="M746.2,29.5c0.6,0.6,0.9,1.4,0.6,2.3c-0.6,2.3-3.4,1.6-5.7,1.1l-0.2-4.7h-0.1v5.3l0.8,0.2
		c1,0.2,2.1,0.5,3.2,0.5c2.2,0,2.4-0.7,2.7-1.6c0.2-1,0.1-1.4-0.5-2.2C746.7,30,746.5,29.7,746.2,29.5z"/>
	<path class="st4" d="M734,21.1c0.7-0.3,1.8-0.6,3.5-0.9c1-0.2,2-0.3,3.1-0.4c0.8-0.1,1.6-0.1,2.4-0.1c0.7,0,1.4,0,2,0.1
		c4.2,0.5,9.2,2.7,10.9,6.5c1.5,3.4,0.5,7.6-2.2,10.1c3.4-2.7,4.5-7.6,2.9-11.4c-1.8-4.2-7.1-6.5-11.4-6.9c-1.4-0.2-3-0.1-4.6,0
		c-1.1,0.1-2.1,0.2-3.1,0.4c-2.1,0.4-3.3,0.8-4.1,1.2l0.1,1.7l0.1,3.8L734,21.1z"/>
	<polygon class="st4" points="748,39 759.7,44.5 756.4,48.4 758.3,44.7 746.4,39 	"/>
	<path class="st6" d="M735.9,53.6c0,0.5,2.9,0.4,4.4,0.3l2.9-0.3l-0.9-6.5c-0.3-1.9-0.8-2-1-2s-0.6-0.1-0.3,2.2l0.7,5.2l-1.6,0.2
		C739,52.7,735.8,53.1,735.9,53.6z M740.8,42.8c0.2-0.1,0.9,0.2,1,1s-0.5,0.8-0.8,0.5C740.3,43.3,740.6,42.8,740.8,42.8z"/>
</g>
<g>
	<path class="st0" d="M801.4,15.2c-0.5,0.5-0.3,1.2-0.3,1.8c0,1,0,1.9,0.1,2.9c0,1.7,0.1,3.5,0.1,5.2c0,0.5,0.2,0.8,0.5,1.1
		c0.5,0.7,1,1.7,1.6,2.2c0.8,0.6,2,0.4,2.9,0.4c0.5,0,0.4,0,0.4,0.5c0,0.7,0.1,1.4,0.1,2.1c0.2,3.7,0.3,7.3,0.5,11
		c0,0.3-1,0.2-1.2,0.2c-0.8,0-1.7,0.1-2.5,0.1c-1.1,0.1-1.2,1-1.1,1.9s0.2,1.7,0.3,2.6c0.2,1.8,0.4,3.6,0.6,5.4
		c0,0.4,0.3,0.7,0.5,1.1c0.3,0.4,0.5,0.7,0.8,1.1s0.5,0.8,0.9,1.1c0.6,0.4,1.2,0.4,1.8,0.3c3.8-0.5,7.7-1,11.5-1.5
		c0.9-0.1,2.1-0.1,3-0.5c1.4-0.7,0.9-3,0.9-4.3c0-1.6-0.1-3.1-0.1-4.7c0-1.3-1.3-1.6-2.1-2.3c-0.4-0.4-1.1-0.9-1.7-0.9
		c-0.3,0-0.7,0-1,0.1c0.1-3.4,0.2-6.7,0.3-10.1c0-0.8,0.1-1.6,0.1-2.4c0-0.2-0.1-0.7,0.2-0.7c0.9,0,1.8,0,2.7,0c1.2,0,1.8-0.9,1.8-2
		c0-1.8-0.1-3.5-0.1-5.3c0-1,0-1.9-0.1-2.9c0-0.6,0.1-1.3-0.3-1.8c-0.2-0.3-2.6-2.1-3.2-2.2c-0.3,0-0.7,0-1,0c-1.7,0-3.4,0-5.2,0
		c-2.5,0-5,0.1-7.4,0.1c-0.9,0-1.7,0-2.6,0C802.5,14.8,801.9,14.7,801.4,15.2C801.2,15.4,801.7,15,801.4,15.2z"/>
	<path class="st1" d="M801.4,15.2c-0.2,0.2-0.4,0.5-0.4,0.9l0.2,9.1c0,0.7,0.6,1.2,1.2,1.2h4.2l0.7,16.2l-3.8,0.2
		c-0.3,0-0.6,0.2-0.9,0.4c-0.2,0.3-0.3,0.6-0.3,0.9l1,8.6c0,0.3,0.2,0.6,0.5,0.8c0.2,0.2,0.5,0.3,0.8,0.3c0.1,0,0.1,0,0.2,0l14.5-2
		c0.6-0.1,1.1-0.6,1.1-1.2l-0.2-7.5c0-0.3-0.2-0.6-0.4-0.9c-0.2-0.2-0.6-0.3-0.9-0.3l-3.5,0.2l0.5-15.8h3.4l0,0
		c0.7,0,1.2-0.5,1.2-1.2c0-0.1,0-0.1,0-0.2l-0.2-9.1c0-0.7-0.6-1.2-1.2-1.2l-16.8,0.2C802,14.8,801.7,15,801.4,15.2z"/>
	<polygon class="st2" points="814.1,43.5 814.7,25.2 819.2,25.2 819.1,15.9 802.3,16 802.5,25.2 807.8,25.2 808.6,43.8 803.6,44 
		804.6,52.7 819.1,50.7 818.9,43.2 	"/>
	<g class="st3">
		<path class="st2" d="M807.8,25.2l0.3,7.3c2.1,0.1,4.2,0.3,6.3,0.5l0.3-7.8h4.5l-0.2-9.3l-16.8,0.2l0.2,9.1H807.8L807.8,25.2z"/>
	</g>
	<g>
		<polygon class="st4" points="803.1,17.3 818.9,17.1 819.2,20.5 819.1,15.9 802.3,16 802.4,22.3 		"/>
	</g>
	<polygon class="st4" points="808.5,42.4 808.8,44.3 804.3,44.9 804.3,50.5 803.6,44 808.6,43.7 	"/>
	<polygon class="st4" points="814.1,42.4 814,43.9 818.7,43.8 819.1,50.3 818.9,43.2 814.2,43.4 	"/>
	<path class="st5" d="M805.2,51.5c0.1,0.5,2.9,0.2,4.4,0s6.1-1,8-1.3c0.4-0.1,0.8-0.1,1.1-0.2c0-0.3,0-0.7,0-0.9s0-0.2,0-0.3
		s0-0.1,0-0.2c0-0.2-0.1-0.4-0.2-0.5c-0.1-0.2-0.3-0.3-0.4-0.3s-0.2,0-0.3,0.1c-0.1,0.1-0.1,0.2-0.1,0.5c0,0.1,0,0.2-0.1,0.4l0,0
		l0,0c-2.2,0.4-6,1-8,1.3C808.2,50.4,805.1,51,805.2,51.5z M817.8,45.6c0.2,0,0.8,0.3,0.8,1.1s-0.6,0.7-0.8,0.3
		C817.3,46,817.6,45.6,817.8,45.6z"/>
</g>
<g>
	<path class="st0" d="M862.5,24.5c-0.7-0.4-1.4-0.9-2.1-1.3c-2.3-1.4-4.7-2.1-7.2-2.9c-0.7-0.2-3.2-1.6-3.6-0.3
		c-0.5,0.8-0.7,2.2-0.9,3.1c-0.9,2.9-1.8,5.8-2.7,8.8c-1.3-3.4-2.6-6.8-3.9-10.3c-0.5-1.4-0.8-3.4-2.2-4.2c-0.7-0.4-1.4-0.9-2.1-1.3
		c-0.4-0.3-1.1-0.9-1.6-0.8c-1.4-0.1-3.1,0.5-4.6,0.8c-2,0.3-4,0.7-6,1c-1.2,0.2-1.1,1-0.8,1.9c0.5,1.1,0.9,2.2,1.4,3.2
		c1.7,3.9,3.4,7.8,5.1,11.7c2.9,6.6,5.8,13.2,8.7,19.8c0.3,0.7,1.6,1.3,2.3,1.7c0.3,0.2,0.7,0.4,1,0.7c1.3,0.9,2.8,0.6,4.3,0.6
		c1.6,0,3.6,0.4,5.2,0.1c0.9,0,1.1-1.4,1.3-2c1.1-3.7,2.2-7.3,3.3-11c1.2-4.2,2.5-8.4,3.7-12.6c0.4-1.4,0.9-2.9,1.3-4.3
		C862.7,26.3,863.4,25,862.5,24.5C862.5,24.5,862.9,24.7,862.5,24.5z"/>
	<polygon class="st2" points="850.4,20.2 858.5,22.9 849.4,53.6 841,53.4 825.5,18 836.4,16.2 844.8,38.5 	"/>
	<path class="st9" d="M856.3,30.3l2.2-7.4l-8-2.7l-3.9,12.5C849.9,32.4,853.1,31.4,856.3,30.3z"/>
	<path class="st9" d="M842.7,33l-6.3-16.8L825.5,18l5.9,13.6C835.2,32.2,838.9,32.9,842.7,33z"/>
	<path class="st1" d="M858.8,22.1l-8-2.7c-0.2-0.1-0.5-0.1-0.7,0s-0.4,0.3-0.4,0.5l-4.9,15.8l-7.5-19.9c-0.1-0.4-0.6-0.6-1-0.6
		L825.4,17c-0.3,0-0.5,0.2-0.6,0.4c-0.1,0.2-0.1,0.5,0,0.8l15.5,35.4c0.1,0.3,0.4,0.5,0.8,0.5l8.4,0.2l0,0c0.4,0,0.7-0.3,0.8-0.6
		l9.1-30.7C859.5,22.7,859.2,22.2,858.8,22.1z M848.7,52.7l-7.2-0.2l-14.8-33.9l9-1.5l8.2,21.7c0.1,0.4,0.5,0.6,0.8,0.6
		c0.4,0,0.7-0.3,0.8-0.6l5.4-17.4l6.4,2.1L848.7,52.7z"/>
	<path class="st4" d="M851,21.4l-5.4,17.4c-0.1,0.4-0.4,0.6-0.8,0.6s-0.7-0.2-0.8-0.6l-8.2-21.7l-9,1.5l0.4,1l8.4-1.4l8.1,21.7
		c0.1,0.4,0.5,0.6,0.8,0.6c0.4,0,0.7-0.3,0.8-0.6l5.4-17.4l6.3,2.1l0.3-1.1L851,21.4z"/>
	<path class="st6" d="M852,38.3c0.1-0.3-0.5-1.7-1.4,0.9c-0.6,2-3,9.5-3.3,11.4c0,0.1-1.5,0.1-1.7,0.1c-0.9,0.1-1.8,0.1-2.8,0
		c-0.8-0.1-1,1.1-0.3,1.3c0.7,0.3,4.2,0.4,5.2,0.1c0.7-0.3,0.6-0.9,0.8-1.4c0.1-0.4,0.3-0.9,0.4-1.4c0.3-1,0.6-2.1,0.8-3.1
		c0.1-0.2,0.1-0.5,0.2-0.7C850.7,43.6,851.7,40,852,38.3z"/>
	<path class="st6" d="M852.9,34.3L852.9,34.3c-0.3-0.1-0.6,0-0.7,0.2c-0.1,0.1-0.1,0.2-0.1,0.3c-0.3,0.5-0.6,1.4,0,1.8
		c0.1,0.1,0.3,0.1,0.5,0c0.6-0.4,0.6-1,0.8-1.6C853.4,34.7,853.2,34.4,852.9,34.3z"/>
</g>
<g>
	<path class="st0" d="M991.3,53.3c0.2,0.4,0.5,0.9,0.8,1.2c0.2,0.3,0.5,0.8,0.8,1s0.6,0.3,1,0.4c0.8,0.1,1.6,0.3,2.4,0.4
		c2,0.4,4.1,0.8,6.1,1.2c1,0.2,2.1,0,2.5-1.1c0.2-0.5,0.2-1,0.2-1.5c0.3-2.2,0.5-4.3,0.8-6.5c0.1-1.2,0.3-2.4,0.4-3.7
		c0.3,0.8,0.7,1.5,1,2.3c0.5,1.1,1.3,2.3,2.1,3.3c0.9,1.1,2.6,0.7,3.1-0.6c0.3-0.8,0.7-1.6,1-2.3c0.2,0.6,0.2,1.4,0.2,2
		c0.1,1.1,0.2,2.2,0.4,3.3c0,0.2,0,0.4,0.1,0.6c0,0.4,0.3,0.9,0.6,1.3c0.1,0.2,1.5,2,1.8,2.2c0.4,0.2,0.7,0.3,1.2,0.2
		c3.8-0.3,7.6-0.6,11.4-0.9c1.4-0.1,3.3-0.2,3.1-2.2c-0.1-0.8-0.2-1.6-0.3-2.4c-0.5-3.9-0.9-7.8-1.4-11.8c-0.5-4.5-1-9.1-1.6-13.6
		c-0.2-1.5-0.4-3.1-0.5-4.6c-0.1-0.7-0.1-1.5-0.3-2.1c-0.3-0.8-1.2-1.2-1.9-1.7c-0.5-0.4-1.2-1-1.9-1.1c-0.5,0-1.1-0.1-1.6-0.1
		c-2.2-0.1-4.5-0.3-6.7-0.4c-1.1-0.1-3.7-0.7-4.2,0.7c-0.6,1.8-1.3,3.5-1.9,5.3c-0.1,0.4-0.3,0.8-0.4,1.1c-0.2-0.8-0.5-1.6-0.7-2.3
		c-0.2-0.8-0.4-1.8-0.9-2.5c-0.2-0.3-0.7-0.6-1-0.8c-0.3-0.3-0.8-0.6-1.2-0.8c-0.4-0.4-0.9-0.7-1.4-0.7c-0.9,0-1.7,0-2.6,0
		c-1.1,0-2.2,0-3.3,0c-0.8,0-1.8-0.1-2.1,0.9c-0.2,0.6-0.2,1.3-0.3,1.9c-1.4,8.2-2.7,16.5-4.1,24.7c-0.3,2-0.7,4.1-1,6.1
		C990.8,50.9,990.3,52.2,991.3,53.3C991.3,53.4,991.2,53.2,991.3,53.3z"/>
	<path class="st1" d="M991.7,53.2l9.1,1.7c0.1,0,0.2,0,0.2,0c0.3,0,0.5-0.1,0.8-0.3s0.5-0.5,0.5-0.9l1.7-14.3l3.4,8
		c0.2,0.5,0.7,0.8,1.2,0.8l0,0c0.5,0,1-0.3,1.2-0.8l2.9-6.8l1.4,12.5c0.1,0.7,0.7,1.2,1.4,1.1l12.9-1c0.3,0,0.7-0.2,0.9-0.5
		c0.2-0.3,0.3-0.6,0.3-1l-4-34.1c-0.1-0.6-0.6-1.1-1.2-1.1l-11.2-0.7c-0.6,0-1.1,0.3-1.3,0.9l-3.3,9.4l-2.8-9.2
		c-0.2-0.5-0.7-0.9-1.2-0.9h-6.9c-0.6,0-1.2,0.5-1.3,1.1l-5.7,34.6C990.5,52.4,991,53.1,991.7,53.2z"/>
	<polygon class="st2" points="1001,53.7 991.9,51.9 997.6,17.3 1004.5,17.3 1008.4,30.3 1013.1,17.2 1024.3,17.9 1028.2,51.9 
		1015.3,53 1013.4,35.6 1008.6,47 1003.3,34.6 	"/>
	<path class="st6" d="M996.6,32.6c5.4,1.2,10.8,2.8,16.3,3.3c0.1,0,0.2,0,0.4,0l0.1-0.3v0.3c4.3,0.3,8.6-0.2,12.8-1.1l-2-16.9
		l-11.2-0.7l-4.6,13.1l-4-12.9h-6.9l-2.4,14.9C995.6,32.4,996.1,32.5,996.6,32.6z"/>
	<path class="st4" d="M1024.3,17.9l-11.2-0.7l-4.6,13.1l-4-12.9h-6.9l-1.6,9.9l2.3-8.6h5.7l4.4,13.3l5.3-13.4l10,1.1
		c0,0,2.4,15.2,2.7,15.2L1024.3,17.9z"/>
	<path class="st7" d="M994.7,51.4c0,0.2,0.7,0.6,1.6,0.8c0.5,0.1,1,0.3,1.5,0.4c0.3,0.1,0.5,0.1,0.8,0.2s0.4,0.1,0.9,0.2l1,0.2
		l0.8-9.2c0.2-2.1-0.3-2.4-0.6-2.4c-0.3,0-0.6-0.2-0.8,2.3l-0.7,7.7c-0.3,0-0.6-0.1-1.1-0.2s-1.1-0.1-1.6-0.2
		C995.7,51.2,994.8,51.2,994.7,51.4z M1001,38.9c0.2,0,0.9,0.4,0.8,1.3s-0.7,0.7-0.9,0.3C1000.3,39.4,1000.7,39,1001,38.9z"/>
	<path class="st7" d="M1017.7,51.5c0.1,0.5,3.6,0.3,5.5,0l4.1-0.6l-0.6-7.3c-0.2-2.4-0.7-2.6-1-2.6s-0.6-0.1-0.4,2.7l0.5,6l-2.9,0.4
		C1021.6,50.4,1017.6,51,1017.7,51.5z M1025.4,38.2c0.2-0.1,0.9,0.3,1,1.3s-0.6,0.9-0.8,0.5C1024.8,38.8,1025.1,38.3,1025.4,38.2z"
		/>
</g>
<g>
	<path class="st0" d="M1036,17.9c-0.5,0.5-0.3,1.2-0.3,1.8c0,1,0,1.9,0.1,2.9c0,1.7,0.1,3.5,0.1,5.2c0,0.5,0.2,0.8,0.5,1.1
		c0.5,0.7,1,1.7,1.6,2.2c0.8,0.6,2,0.4,2.9,0.4c0.5,0,0.4,0,0.4,0.5c0,0.7,0.1,1.4,0.1,2.1c0.2,3.7,0.3,7.3,0.5,11
		c0,0.3-1,0.2-1.2,0.2c-0.8,0-1.7,0.1-2.5,0.1c-1.1,0.1-1.2,1-1.1,1.9s0.2,1.7,0.3,2.6c0.2,1.8,0.4,3.6,0.6,5.4
		c0,0.4,0.3,0.7,0.5,1.1c0.3,0.4,0.5,0.7,0.8,1.1s0.5,0.8,0.9,1.1c0.6,0.4,1.2,0.4,1.8,0.3c3.8-0.5,7.7-1,11.5-1.5
		c0.9-0.1,2.1-0.1,3-0.5c1.4-0.7,0.9-3,0.9-4.3c0-1.6-0.1-3.1-0.1-4.7c0-1.3-1.3-1.6-2.1-2.3c-0.4-0.4-1.1-0.9-1.7-0.9
		c-0.3,0-0.7,0-1,0.1c0.1-3.4,0.2-6.7,0.3-10.1c0-0.8,0.1-1.6,0.1-2.4c0-0.2-0.1-0.7,0.2-0.7c0.9,0,1.8,0,2.7,0c1.2,0,1.8-0.9,1.8-2
		c0-1.8-0.1-3.5-0.1-5.3c0-1,0-1.9-0.1-2.9c0-0.6,0.1-1.3-0.3-1.8c-0.2-0.3-2.6-2.1-3.2-2.2c-0.3,0-0.7,0-1,0c-1.7,0-3.4,0-5.2,0
		c-2.5,0-5,0.1-7.4,0.1c-0.9,0-1.7,0-2.6,0C1037.1,17.5,1036.4,17.4,1036,17.9C1035.8,18.1,1036.2,17.7,1036,17.9z"/>
	<path class="st1" d="M1036,17.9c-0.2,0.2-0.4,0.5-0.4,0.9l0.2,9.1c0,0.7,0.6,1.2,1.2,1.2h4.2l0.7,16.2l-3.8,0.2
		c-0.3,0-0.6,0.2-0.9,0.4c-0.2,0.3-0.3,0.6-0.3,0.9l1,8.6c0,0.3,0.2,0.6,0.5,0.8c0.2,0.2,0.5,0.3,0.8,0.3c0.1,0,0.1,0,0.2,0l14.5-2
		c0.6-0.1,1.1-0.6,1.1-1.2l-0.2-7.5c0-0.3-0.2-0.6-0.4-0.9c-0.2-0.2-0.6-0.3-0.9-0.3l-3.5,0.2l0.5-15.8h3.4l0,0
		c0.7,0,1.2-0.5,1.2-1.2c0-0.1,0-0.1,0-0.2l-0.2-9.1c0-0.7-0.6-1.2-1.2-1.2l-16.8,0.2C1036.5,17.5,1036.2,17.7,1036,17.9z"/>
	<polygon class="st2" points="1048.6,46.2 1049.3,27.9 1053.8,27.9 1053.6,18.6 1036.9,18.8 1037,27.9 1042.4,27.9 1043.2,46.5 
		1038.2,46.7 1039.1,55.4 1053.6,53.4 1053.5,45.9 	"/>
	<g class="st3">
		<path class="st2" d="M1042.4,27.9l0.3,7.3c2.1,0.1,4.2,0.3,6.3,0.5l0.3-7.8h4.5l-0.2-9.3l-16.8,0.2l0.2,9.1L1042.4,27.9
			L1042.4,27.9z"/>
	</g>
	<g>
		<polygon class="st4" points="1037.6,20 1053.4,19.8 1053.7,23.2 1053.6,18.6 1036.9,18.8 1037,25 		"/>
	</g>
	<polygon class="st4" points="1043.1,45.2 1043.4,47 1038.8,47.6 1038.9,53.2 1038.2,46.7 1043.1,46.4 	"/>
	<polygon class="st4" points="1048.7,45.2 1048.5,46.6 1053.2,46.5 1053.6,53 1053.5,45.9 1048.7,46.1 	"/>
	<path class="st5" d="M1039.7,54.2c0.1,0.5,2.9,0.2,4.4,0s6.1-1,8-1.3c0.4-0.1,0.8-0.1,1.1-0.2c0-0.3,0-0.7,0-0.9s0-0.2,0-0.3
		s0-0.1,0-0.2c0-0.2-0.1-0.4-0.2-0.5c-0.1-0.2-0.3-0.3-0.4-0.3s-0.2,0-0.3,0.1c-0.1,0.1-0.1,0.2-0.1,0.5c0,0.1,0,0.2-0.1,0.4l0,0
		l0,0c-2.2,0.4-6,1-8,1.3C1042.8,53.1,1039.6,53.7,1039.7,54.2z M1052.4,48.3c0.2,0,0.8,0.3,0.8,1.1s-0.6,0.7-0.8,0.3
		C1051.8,48.8,1052.2,48.3,1052.4,48.3z"/>
</g>
<g>
	<path class="st0" d="M1078.5,18.6c-0.3-0.3-0.8-0.6-1.2-0.8c-0.3-0.3-0.7-0.6-1.1-0.8c-0.2-0.1-0.5-0.1-0.8-0.2
		c-0.9-0.1-1.8-0.2-2.7-0.3c-1.7-0.2-3.4-0.4-5.1-0.6c-1.4-0.2-1.4,1.3-1.5,2.2c-0.1,1.3-0.2,2.6-0.4,3.9
		c-0.8,8.6-1.6,17.2-2.4,25.8c-0.1,1.3-0.2,2.7-0.4,4c0,0.3-0.1,0.6-0.1,1c-0.1,0.7,0.4,1.2,0.7,1.8c0.6,0.9,1.3,2.3,2.5,2.4
		c0.5,0,1.1,0.1,1.6,0.1c2.2,0.1,4.4,0.2,6.5,0.3c1.4,0.1,2.8,0.2,4.2,0.2c0.8,0,1.5-0.3,1.9-1c0.3-0.6,0.1-1.2,0.1-1.7
		c-0.3-3.1-0.7-6.1-1-9.1c1.7,2.7,3.5,5.3,5.2,8c0.4,0.7,1,1.7,1.7,2.1c0.6,0.4,1.5,0.3,2.3,0.3c1.8,0,3.6,0.1,5.3,0
		c1.6,0,1.8-1.4,1.9-2.6c0.1-1.3,0.3-2.7,0.4-4c0.5-4.4,0.9-8.7,1.4-13.1c0.4-4,0.9-8.1,1.3-12.1c0.1-0.9,0.2-1.9,0.3-2.8
		c0.1-0.8-0.2-1.6-1-2c-0.3-0.3-0.8-0.6-1.2-0.8c-0.3-0.3-0.7-0.6-1.1-0.8c-0.2-0.1-0.5-0.1-0.7-0.2c-3.1-0.1-6.3-0.2-9.4-0.2
		c-1.2,0-2.4-0.1-3.7-0.1c-1,0-1.6,0.7-1.4,1.7c0.4,1.7,0.6,3.4,0.8,5.1c-0.4-0.9-0.9-1.9-1.3-2.8
		C1079.8,20.6,1079.4,19.1,1078.5,18.6C1078.4,18.5,1078.8,18.8,1078.5,18.6z"/>
	<path class="st1" d="M1075.8,16.9l-8.2-1c-0.3,0-0.7,0.1-1,0.3c-0.3,0.2-0.4,0.5-0.5,0.9l-3.4,35.9c0,0.3,0.1,0.7,0.3,0.9
		c0.2,0.3,0.5,0.4,0.9,0.4l12.6,0.7c0,0,0,0,0.1,0l0,0c0.7,0,1.3-0.6,1.3-1.3c0-0.1,0-0.2,0-0.3l-1.3-12.2l7.5,11.6
		c0.2,0.4,0.6,0.6,1.1,0.6h6.6c0.7,0,1.2-0.5,1.3-1.1l3.6-33.2c0-0.4-0.1-0.7-0.3-1c-0.2-0.3-0.6-0.4-0.9-0.4l-13.4-0.3
		c-0.4,0-0.8,0.2-1,0.5s-0.3,0.7-0.3,1.1c0.6,2.5,1,6.5,1.3,9.9l-5.2-11.3C1076.6,17.2,1076.2,16.9,1075.8,16.9z"/>
	<path class="st2" d="M1076.7,53.7l-12.6-0.7l3.4-35.9l8.2,1l8.2,17.7c0,0-0.7-11.9-1.9-17.2l13.4,0.3l-3.6,33.1h-6.6l-10.4-16.1
		L1076.7,53.7z"/>
	<g class="st3">
		<path class="st2" d="M1068.7,31.9c4.3-0.7,8.6-0.9,12.9-0.8l-6-13l-8.2-1l-1.4,15.2C1066.9,32.2,1067.8,32,1068.7,31.9z"/>
	</g>
	<g class="st3">
		<path class="st2" d="M1086.1,31.4c2.7,0.3,5.2,0.8,7.8,1.4l1.5-13.8l-13.4-0.3c0.7,3.1,1.2,8.6,1.5,12.5
			C1084.3,31.3,1085.2,31.3,1086.1,31.4z"/>
	</g>
	<g>
		<path class="st4" d="M1075.6,18.2l-8.2-1l-1.4,15.2c0.3-0.1,2.1-14.1,2.1-14.1l7,1.6l8.9,16.3L1075.6,18.2z"/>
	</g>
	<g>
		<path class="st4" d="M1082.8,19.9l11.8,0.9l-0.1,6.8l0.9-8.6l-13.4-0.3c0.2,1.1,0.5,2.5,0.7,3.9L1082.8,19.9z"/>
	</g>
	<path class="st5" d="M1065.2,51.8c0,0.5,4.1,1,6.4,1.2l4.5,0.3l-1.2-9.2c-0.4-2.8-0.9-3-1.2-3c-0.3,0-0.6-0.1-0.2,3.2l1,7.6
		l-2.9-0.2C1070.1,51.5,1065.3,51.3,1065.2,51.8z M1073.2,37.6c0.2-0.1,0.9,0.3,1.1,1.6c0.1,1.2-0.5,1.1-0.8,0.6
		C1072.7,38.4,1073,37.7,1073.2,37.6z"/>
	<path class="st5" d="M1086.3,51.2c0,0.2,0.7,0.4,1.5,0.5c0.4,0.1,0.9,0.1,1.4,0.1c0.3,0,0.5,0,0.7,0c0.4,0,0.9,0,1.3,0
		c0-0.3,0.1-0.7,0.1-1c0.2-1.7,0.8-7.2,1.1-9.3c0.3-2.1-0.2-2.4-0.5-2.5s-0.6-0.2-0.9,2.3s-0.8,6.8-1.1,9.1l0,0l0,0
		c-0.2,0-0.5,0-0.7,0c-0.5,0-1,0-1.5,0.1C1087,50.8,1086.3,50.9,1086.3,51.2z M1092.3,36.4c0.2,0,0.8,0.4,0.7,1.4
		c-0.1,0.9-0.7,0.7-0.9,0.3C1091.6,36.9,1092,36.4,1092.3,36.4z"/>
</g>
<g>
	<path class="st0" d="M1135.4,24.9c-0.2-0.9-0.9-1.1-1.5-1.5c-0.2-0.2-0.6-0.4-0.9-0.6c-0.4-0.3-0.7-0.7-1.2-0.6
		c-1.6,0-3.3,0.2-4.9,0.3c-0.6,0-1.3,0.1-1.9,0.1c-0.9,0.1-1.2,0.9-1.1,1.6c0.2,1.8,0.1,3.7,0,5.5c0.1,1,0.1,2,0,3
		c0,0.2,0,0.4-0.1,0.6c0.1,2.8-0.7,5.7-3.5,6.4c-0.5,0.2-1,0.2-1.4,0c-0.4,0-0.6-0.2-0.8-0.6c-0.1-0.1-0.1-0.2-0.1-0.3
		c-0.3-0.5-0.5-1-0.6-1.6c-0.2-0.7-0.3-1.4-0.4-2c-0.3-1.7-0.3-3.5-0.3-5.2c0.1-2.1,0.3-4.2,0.7-6.3c0.1-0.5,0-1.1-0.4-1.5
		c-0.3-0.3-0.7-0.5-1-0.8c-0.4-0.3-0.8-0.7-1.3-0.9c-0.5-0.5-1.2-0.3-1.8-0.3c-2,0.2-4,0.3-5.9,0.5c-0.8,0.1-1.5,0.1-2.3,0.2
		c-1,0.1-1.5,0.6-1.5,1.7c-0.1,7.1-0.3,14.4,1,21.4c0.5,2.7,1.3,5.5,3,7.8c1.1,1.5,2,3.1,3.5,4.3c1.4,1.1,3.1,1.9,4.8,2.2
		c-0.5-0.1-2.4-0.5,0,0c0.2,0,0.1,0,0,0c3.8,0.7,7.5-0.3,10.2-3.1c0.2,0.3,0.4,0.7,0.7,1c0.1,0.3,0.4,0.7,0.7,0.9
		c0.4,0.3,0.8,0.4,1.3,0.4c0.9,0,1.9-0.1,2.8-0.1s1.9,0,2.4-0.9c0.2-0.3,0.2-0.7,0.2-1c0.1-2.8,0.3-5.5,0.4-8.3
		c0.4-7.1,0.7-14.3,1.1-21.4C1135.4,25.4,1135.5,25.2,1135.4,24.9z"/>
	<path class="st1" d="M1113.8,55.8c0.8,0.2,1.6,0.2,2.4,0.2c4.2,0,7.1-2.3,8.8-4.8l0.2,2.7c0,0.6,0.6,1.1,1.2,1.1l4-0.2
		c0.6,0,1.1-0.5,1.1-1.1l1.6-30.4c0-0.3-0.1-0.7-0.4-0.9c-0.2-0.2-0.6-0.4-0.9-0.3l-6.8,0.5c-0.3,0-0.6,0.2-0.8,0.4
		c-0.2,0.3-0.3,0.6-0.2,0.9c0,0,0.4,3.3-0.3,10.6c-0.4,3.5-2.4,5-4.2,5l0,0c-1.5,0-3.3-1-4.1-3.8c-1.8-6.3-0.2-14.2-0.1-14.3
		c0.1-0.4,0-0.8-0.3-1c-0.2-0.3-0.6-0.4-1-0.4l-9.5,0.8c-0.6,0.1-1.1,0.6-1.1,1.2C1103,40.6,1103.5,53.9,1113.8,55.8z"/>
	<path class="st2" d="M1125.1,23.8l6.8-0.5l-1.6,30.4l-4,0.2l-0.5-7.1c0,0-2.7,9.7-11.9,7.9c-9.2-1.7-9.8-14.3-9.5-32.6l9.5-0.8
		c0,0-1.7,8.2,0.2,14.9c1.9,6.6,9.8,6.2,10.6-1.4C1125.5,27.1,1125.1,23.8,1125.1,23.8z"/>
	<g class="st3">
		<path class="st2" d="M1105.1,33.5c2.8-0.5,5.6-0.7,8.4-0.6c-0.7-5.8,0.5-11.6,0.5-11.6l-9.5,0.8c-0.1,4.2-0.1,8,0,11.5
			C1104.7,33.5,1104.9,33.5,1105.1,33.5z"/>
	</g>
	<g class="st3">
		<path class="st2" d="M1124.8,34.8c0.5,0.2,0.9,0.3,1.4,0.5c1.7,0.6,3.4,1.3,5,2.1l0.7-14l-6.8,0.5
			C1125.1,23.8,1125.5,27.1,1124.8,34.8L1124.8,34.8z"/>
	</g>
	<g>
		<path class="st4" d="M1104.5,22.1c0,1.4,0,2.8-0.1,4.2l0.3-3.1l8.4-0.2c-0.3,1.7,0.1,9.8,0.4,9.9c-0.7-5.8,0.5-11.6,0.5-11.6
			L1104.5,22.1z"/>
	</g>
	<g>
		<path class="st4" d="M1125.9,25l5.3-0.4c0,0-0.2,12.7,0,12.8l0.7-14l-6.8,0.5c0,0,0.2,1.7,0.1,5.3
			C1125.1,30.6,1125.9,26.3,1125.9,25z"/>
	</g>
	<path class="st4" d="M1113.8,34.6c0,0,0.8,4.9,4.4,5.9s5.8-2.3,6.2-3.8c0,0-2,5.2-5.7,4.7C1114,40.8,1113.8,34.6,1113.8,34.6z"/>
	<path class="st5" d="M1117.3,53.6c0-0.1-0.2-0.2-0.6-0.3c-0.2,0-0.4-0.1-0.6-0.1s-0.5-0.1-0.7-0.1c-1-0.2-2.2-0.6-2.9-0.9
		c-0.8-0.3-2.3-1.4-3.2-2.9c-1-1.5-1.6-3.4-1.8-4.5c-0.1-0.3-0.1-0.5-0.2-0.7c0-0.2-0.1-0.4-0.1-0.6c-0.1-0.3-0.2-0.6-0.3-0.7
		c-0.2-0.3-0.4-0.4-0.5-0.4s-0.3,0-0.3,0.3c0,0.2,0,0.4,0,0.8s0,0.9,0.2,1.6c0.3,1.4,0.9,3.2,1.9,4.8s2.6,2.9,3.8,3.4
		c0.2,0.1,0.4,0.2,0.6,0.2c0.2,0.1,0.5,0.2,0.8,0.2c0.6,0.2,1.2,0.2,1.8,0.3c0.6,0,1.1,0,1.5-0.1
		C1117.1,53.8,1117.3,53.7,1117.3,53.6z M1106.1,39.6c0.2-0.1,0.8,0.3,0.9,1.3c0,1-0.5,0.9-0.8,0.5
		C1105.6,40.2,1105.9,39.7,1106.1,39.6z"/>
	<path class="st5" d="M1127.4,53.2c0,0.1,0.3,0.2,0.6,0.2c0.2,0,0.4,0,0.6,0c0.1,0,0.2,0,0.4,0c0.2,0,0.5,0,0.7-0.1
		c0-0.4,0.1-0.8,0.1-1.2c0-0.3,0.1-0.6,0.1-0.8c0.1-1.3,0.4-5.3,0.5-7c0.1-1.6-0.2-1.8-0.4-1.8c-0.2,0-0.3-0.2-0.5,1.8
		c-0.1,1.9-0.4,5.2-0.5,7c0,0.2,0,0.4,0,0.7c0,0.1,0,0.3,0,0.5v0.1l0,0l0,0c0,0,0,0-0.1,0s-0.2,0-0.4,0.1c-0.2,0-0.4,0.1-0.6,0.1
		C1127.6,53,1127.4,53.1,1127.4,53.2z M1130.1,40.5c0.1,0,0.5,0.3,0.5,1c-0.1,0.7-0.4,0.6-0.6,0.3
		C1129.7,40.9,1130,40.5,1130.1,40.5z"/>
</g>
<g>
	<path class="st0" d="M1151.3,55.9c0,0.7,0.9,1.5,1.3,2.1c0.5,0.8,1,1.6,2.1,1.5c0.5,0,0.9-0.2,1.4-0.3c2-0.5,4.1-0.9,6.1-1.4
		c1.3-0.3,3.9-0.4,4-2.2c0-0.8-0.2-1.7-0.4-2.5c-1.1-6.9-2.2-13.9-3.2-20.8c0,0,0,0,0-0.1c3.3,0.2,6.5,0.4,9.8,0.5
		c0.7,0,1.3-0.1,1.8-0.7c0.4-0.6,0.3-1.3,0.3-1.9c-0.1-2-0.3-4-0.4-6c-0.1-0.9-0.1-1.8-0.2-2.6c-0.1-0.8-0.1-1.5-0.8-2
		c-0.7-0.5-1.5-1-2.2-1.5c-0.3-0.2-0.6-0.3-0.9-0.2c-0.3,0-0.6,0-0.8,0c-3.3,0.2-6.6,0.4-9.9,0.5c-4.4,0.2-8.7,0.5-13.1,0.7
		c-1.5,0.1-3.1,0.2-4.6,0.2c-0.6,0-1.7-0.1-2.2,0.3c-0.7,0.5-0.6,1.2-0.5,1.9c0.1,0.9,0.3,1.8,0.4,2.7c0.3,1.9,0.6,3.8,0.9,5.7
		c0.2,1,0.8,1.7,1.3,2.4s1,1.5,2,1.5c0.2,0,0.5-0.1,0.7-0.1c1.9-0.3,3.7-0.6,5.6-0.9c0.1,0,0.2,0,0.3,0c0.4,6.8,0.7,13.6,1.1,20.4
		C1151.2,54.2,1151.3,55.1,1151.3,55.9z"/>
	<path class="st1" d="M1151.3,55.9c0,0.4,0.2,0.7,0.5,0.9c0.2,0.2,0.5,0.2,0.7,0.2c0.1,0,0.2,0,0.3,0l9.9-2.3c0.6-0.1,1-0.7,0.9-1.4
		l-3.7-23.6l10.7,0.6c0,0,0,0,0.1,0l0,0c0.7,0,1.2-0.5,1.2-1.2c0-0.1,0-0.2,0-0.2l-0.6-9.9c0-0.7-0.6-1.2-1.3-1.1l-30.1,1.6
		c-0.3,0-0.7,0.2-0.9,0.5c-0.2,0.3-0.3,0.6-0.3,1l1.5,9.6c0,0.3,0.2,0.6,0.5,0.8c0.3,0.2,0.6,0.3,0.9,0.2l8.3-1.4L1151.3,55.9z"/>
	<polygon class="st2" points="1140,20.7 1141.5,30.3 1151.1,28.7 1152.5,55.9 1162.4,53.6 1158.5,28.6 1170.7,29.2 1170.1,19.1 	"/>
	<path class="st6" d="M1151.1,28.7l0.4,8.2c2.8,0.1,5.5-0.1,8.3-0.4l-1.2-8l12.2,0.7l-0.6-10.1l-30.1,1.6l1.5,9.6L1151.1,28.7z"/>
	<polygon class="st4" points="1170.1,19.1 1140,20.7 1140.7,25.2 1140.8,22.4 1169.4,20.9 1170.6,27.3 	"/>
	<path class="st7" d="M1161,53.3c-0.1-0.5-3.9-0.2-6,0.1l-0.8,0.1l-0.6-9c-0.2-2.6-0.7-2.8-0.9-2.8c-0.2,0-0.6-0.2-0.3,2.9l0.7,10.3
		l2.2-0.3C1156.7,54.4,1161.1,53.7,1161,53.3z M1152.3,38.4c0.2-0.1,0.9,0.4,0.9,1.5c0.1,1.1-0.6,1-0.8,0.5
		C1151.7,39.1,1152,38.5,1152.3,38.4z"/>
</g>
<g>
	<path class="st0" d="M1181,55.7c0.2,0.4,0.5,0.9,0.8,1.2c0.2,0.4,0.5,0.8,0.7,1.1c0.3,0.4,0.9,0.7,1.4,0.7c0.4,0,0.8,0,1.1,0
		c1.9,0,3.7,0,5.6,0c3.9,0,7.7,0,11.6,0c0.6,0,1.2-0.1,1.7-0.6c0.6-0.6,0.5-1.4,0.5-2.2c0-2,0.1-4,0.1-6c0-0.3,0-0.6-0.1-0.9
		c-0.3-0.8-1.1-1.1-1.7-1.6c-0.8-0.7-1.6-1.2-2.6-1.2c-1.1,0-2.1,0-3.2-0.1c-0.4,0-0.7,0-1.1,0c-0.3,0-0.1-0.5-0.1-0.7s0-0.4,0-0.6
		c1.8,0.1,3.5,0.1,5.3,0.2c0.6,0,1.4,0.2,1.9,0c1-0.3,1.2-1.3,1.3-2.2c0.2-2,0.4-4,0.6-6c0-0.2,0.1-0.5,0-0.8
		c-0.1-0.9-0.8-1.1-1.4-1.6c-0.5-0.4-1.1-0.8-1.6-1.2c-0.3-0.3-0.7-0.3-1.1-0.3c-1,0-2.1-0.1-3.1-0.1c-0.3,0-1.8,0.1-1.8-0.2
		c0-0.1,0-1,0-1c0.2,0,0.4,0,0.6,0c1,0,2,0,2.9,0c1.7,0,3.4,0.2,5,0c2.2-0.2,1.6-3.2,1.5-4.7c0-2-0.1-4.1-0.1-6.1
		c0-1-0.3-1.6-1.2-2.2c-0.5-0.3-1-0.8-1.6-1.1c-0.4-0.2-0.7-0.5-1.2-0.5c-3,0.3-6.1,0.5-9.1,0.8c-4.2,0.4-8.4,0.7-12.5,1.1
		c-0.8,0.1-2.4-0.1-2.9,0.8c-0.4,0.6-0.1,1.6,0,2.3c0.8,8.1,1.6,16.3,2.4,24.4c0.2,2.1,0.4,4.2,0.6,6.3
		C1180.5,53.4,1180.4,55,1181,55.7C1181.1,55.8,1180.8,55.5,1181,55.7z"/>
	<path class="st1" d="M1181.9,56h18.7c0.7,0,1.3-0.6,1.3-1.2l0.2-7.3c0-0.3-0.1-0.7-0.4-0.9c-0.2-0.2-0.6-0.4-0.9-0.4l-7.5-0.1
		l-0.1-3.9l7.1,0.3c0.7,0,1.3-0.5,1.3-1.1l0.7-7c0-0.3-0.1-0.7-0.3-1c-0.2-0.3-0.6-0.4-0.9-0.4l-7.8-0.3v-3.6h8.9
		c0.3,0,0.7-0.1,0.9-0.4c0.2-0.2,0.4-0.6,0.4-0.9l-0.2-9.5c0-0.4-0.2-0.7-0.4-0.9c-0.3-0.2-0.6-0.4-1-0.3l-23.6,2
		c-0.3,0-0.7,0.2-0.9,0.4c-0.2,0.3-0.3,0.6-0.3,1l3.4,34.5C1180.7,55.5,1181.3,56,1181.9,56z"/>
	<polygon class="st2" points="1202.1,18.2 1202.3,27.7 1192.1,27.7 1192.1,33.9 1201.1,34.2 1200.5,41.2 1192,40.8 1192.1,47.3 
		1200.8,47.5 1200.6,54.8 1181.9,54.8 1178.5,20.3 	"/>
	<path class="st6" d="M1181.7,40.9c2.9,0.4,5.6,0.5,8.6,0c2.1-0.3,4.3-0.8,7-1.7c1.2-0.4,2.3-0.7,3.4-1.1l0.4-3.9l-9-0.3v-6.2h10.2
		l-0.2-9.5l-23.6,2l2,20.5C1180.9,40.8,1181.3,40.8,1181.7,40.9z"/>
	<path class="st4" d="M1191.7,34.4l8.9,0.5c0,0,0,1.1,0.1,3.3l0.4-3.9l-9-0.3v-5.9L1191.7,34.4z"/>
	<polygon class="st4" points="1179.6,21.6 1201.3,19.5 1202.3,27.7 1202.1,18.2 1178.5,20.3 1179.8,33.2 	"/>
	<polygon class="st4" points="1192,40.8 1192.1,47.3 1200.8,47.5 1200.7,50.4 1200.2,48.2 1191.5,47.8 	"/>
	<path class="st6" d="M1198.9,54.3c0-0.5-4.2-1-6.6-1.1l-8.4-0.5l-0.2-2.9c-0.2-2.9-0.7-3.2-1-3.2s-0.6-0.2-0.4,3.3l0.3,4l9.6,0.6
		C1194,54.6,1198.9,54.8,1198.9,54.3z M1182.5,43c0.2-0.1,0.9,0.4,1,1.7s-0.6,1.1-0.8,0.6C1181.9,43.8,1182.3,43.1,1182.5,43z"/>
</g>
<g>
	<path class="st0" d="M1212.5,53.3c2,3,4.8,5.4,8.4,6.3c3.2,0.8,6.8,0.3,9.6-1.5c2.7-1.7,4.5-4.5,4.7-7.7s-1-6-3-8.4
		c-1.9-2.3-4.5-3.9-6.6-6c-0.8-0.8-2.2-2.2-1.6-3.4c0.3-0.7,1.1-1.2,1.8-1.2c0.3,0,0.4-0.1,0.5,0.2c0,0.2,0,0.4,0,0.7
		c0,0.5,0,1-0.1,1.5c-0.1,0.7,0.3,1.2,0.8,1.8c0.4,0.5,0.6,1.2,1.1,1.6c0.7,0.6,1.6,0.3,2.3,0.1c1-0.3,1.9-0.7,2.8-1.1
		c1.8-0.8,3.5-1.8,5.3-2.5c1.7-0.8,1.2-2.7,0.8-4.2c-0.7-3.1-2.5-5.9-5.1-7.6c-1.4-1-2.8-2.1-4.4-2.7c-1.7-0.6-3.5-0.8-5.2-0.6
		c-3.4,0.5-6.4,2.6-8.3,5.4c-1.9,2.9-2.9,6.2-2,9.6c0.7,2.3,2.2,4.4,3.7,6.2c0.8,1,1.8,1.9,2.9,2.6c0.5,0.4,1.1,0.8,1.6,1.2
		c0.2,0.2,0.5,0.3,0.5,0.6s0,0.6-0.2,0.8c0.2-1.1-0.6-1.8-1.6-2.3c-0.6-0.5-1.4-1.1-2.2-1c-2.6,0.3-5.3-0.3-8-0.2
		c-0.5,0-1.1,0-1.5,0.3c-0.4,0.4-0.5,1-0.6,1.5c-0.2,1.1-0.2,2.3,0.1,3.5C1209.7,49.2,1211,51.3,1212.5,53.3
		C1212.6,53.4,1212.4,53.2,1212.5,53.3z"/>
	<path class="st1" d="M1215.1,55.5c2,1.4,4.5,2.2,7,2.2l0,0c3.7,0,7.1-1.7,9.3-4.6c2.3-3.1,1.9-7.6,0.4-10.2c-1.7-3-3.7-4.7-6.1-6.6
		c-1.4-1.1-3.9-3.1-4.1-4.9c0-0.6,0.2-1,0.6-1.6c0.5-0.5,1.2-0.9,2-0.9c0.5,0,1,0.2,1.3,0.4c0.9,0.8,0.8,2.9,0.7,4.5
		c0,0.4,0.1,0.7,0.4,1c0.3,0.2,0.7,0.3,1,0.2c2.2-0.6,4.3-1.6,6.2-2.6c0.9-0.5,1.9-1,2.9-1.4c0.5-0.2,0.7-0.7,0.7-1.2
		c0-0.2,0-0.5-0.1-0.7c-0.5-6.3-5.4-11-11.3-11c-2.7,0-5.4,1-7.6,3c-1.9,1.7-3.8,4.9-4.3,7.4c-0.7,3.2,0.4,6.6,2.8,9.3
		c0.8,0.9,1.8,1.6,2.7,2.3c1.4,1,2.7,2,3.2,3.4c0.2,0.5,0,1-0.1,1.2c-0.3,0.4-0.7,0.6-1.1,0.6c-0.3,0-0.6-0.1-0.9-0.4
		c-0.4-0.4-0.4-1.1-0.2-2.3c0.1-0.4-0.1-0.7-0.3-1c-0.3-0.3-0.6-0.4-1-0.3c-0.5,0.1-1.1,0.1-1.7,0.1c-0.9,0-1.9-0.1-2.9-0.1
		c-1-0.1-2-0.1-3-0.1c-0.5,0-0.9,0-1.3,0c-0.5,0-0.9,0.4-1,0.8C1207.8,47.1,1211.2,52.7,1215.1,55.5z"/>
	<path class="st2" d="M1225,37.2c-2.2-1.7-6.4-5.1-3.6-8.1c1.4-1.5,3.7-1.6,4.9-0.5c1.3,1.1,1.3,3.4,1.1,5.5c3.2-0.8,6-2.6,8.9-3.9
		c0-0.2,0-0.5-0.1-0.7c-0.7-8.7-10.3-13.1-17-7.2c-1.7,1.5-3.5,4.5-4,6.8c-0.6,3.1,0.5,6.1,2.6,8.4c1.9,2.2,5,3.2,6.2,6.1
		c1,2.5-2.2,4.6-4,2.6c-0.8-0.9-0.7-2.1-0.5-3.2c-2.9,0.4-6.2-0.3-9.1-0.1c-1.4,4.3,1.9,9.5,5.3,11.9c4.5,3.2,11.2,2.6,14.7-2.1
		c1.9-2.5,1.7-6.5,0.3-9C1229.2,40.6,1227.4,39.1,1225,37.2z"/>
	<path class="st6" d="M1222.4,34.9c-1.6-1.7-2.8-3.8-1-5.8c1.4-1.5,3.7-1.6,4.9-0.5c1.3,1.1,1.3,3.4,1.1,5.5c3.2-0.8,6-2.6,8.9-3.9
		c0-0.2,0-0.5-0.1-0.7c-0.7-8.7-10.3-13.1-17-7.2c-1.7,1.5-3.5,4.5-4,6.8c-0.4,2.2,0,4.3,1,6.2C1218.4,34.9,1220.4,34.9,1222.4,34.9
		z"/>
	<g>
		<path class="st4" d="M1219.3,23.5c6.5-5.8,15.8-1.7,16.9,6.6c0,0,0.1,0,0.1-0.1c0-0.2,0-0.5-0.1-0.7c-0.7-8.7-10.3-13.1-17-7.2
			c-1.7,1.5-3.5,4.5-4,6.8c-0.2,0.8-0.2,1.6-0.1,2.4c0-0.3,0.1-0.7,0.1-1C1215.8,28,1217.6,25,1219.3,23.5z"/>
	</g>
	<path class="st4" d="M1225,38.1c2.4,1.9,4.2,3.5,5.8,6.3c0.6,1.1,1,2.4,1,3.8c0.1-1.7-0.3-3.4-1-4.7c-1.6-2.8-3.4-4.4-5.8-6.3
		c-1.6-1.2-4.2-3.3-4.5-5.5C1220.1,34.2,1223.2,36.7,1225,38.1z"/>
	<path class="st4" d="M1220,46.8c1.7,1.9,4.6,0.1,4.2-2.2c-0.3,1.8-2.7,2.9-4.2,1.2c-0.4-0.4-0.6-0.9-0.6-1.4
		C1219.3,45.3,1219.4,46.2,1220,46.8z"/>
	<path class="st4" d="M1219.4,43.6c0-0.3,0.1-0.6,0.1-0.9c-2.9,0.4-6.2-0.3-9.1-0.1c-0.3,0.8-0.4,1.7-0.3,2.6c0-0.6,0.1-1.1,0.3-1.7
		C1213.3,43.3,1216.6,44,1219.4,43.6z"/>
	<path class="st6" d="M1211.1,47.6c-0.1,0.1,0,0.3,0.1,0.7c0.1,0.2,0.2,0.4,0.3,0.7c0.1,0.3,0.2,0.6,0.4,0.8
		c0.4,0.6,0.7,1.2,1.2,1.8c0.2,0.3,0.5,0.6,0.7,0.8s0.5,0.5,0.7,0.7c0.1,0.1,0.2,0.2,0.4,0.3c0.1,0.1,0.3,0.2,0.5,0.4
		c0.3,0.3,0.7,0.6,1.2,0.8c0.9,0.6,2.1,1,3.3,1.3c1.2,0.2,2.5,0.2,3.7,0c1.1-0.2,2.1-0.6,2.7-0.9c0.3-0.1,0.6-0.3,0.9-0.4
		c0.1,0,0.1-0.1,0.1-0.1c0.1,0,0.1-0.1,0.2-0.1c0.1-0.1,0.2-0.1,0.3-0.2c0.4-0.3,0.6-0.5,0.7-0.7c0.2-0.4,0.2-0.6,0.1-0.7
		s-0.1-0.2-0.4-0.1c-0.1,0.1-0.4,0.2-0.7,0.4c-0.1,0-0.2,0.1-0.3,0.2c-0.1,0-0.2,0.1-0.4,0.2c-0.1,0.1-0.3,0.1-0.5,0.2
		s-0.3,0.2-0.5,0.2c-0.7,0.3-1.6,0.6-2.6,0.8c-0.2,0-0.5,0.1-0.7,0.1s-0.5,0-0.8,0c-0.5,0-1,0-1.5-0.1l-0.4-0.1
		c-0.1,0-0.2-0.1-0.4-0.1c-0.2-0.1-0.5-0.1-0.7-0.2c-0.5-0.2-0.9-0.4-1.3-0.6c-0.2-0.1-0.4-0.2-0.6-0.4c-0.2-0.1-0.4-0.3-0.5-0.4
		s-0.3-0.2-0.5-0.4c-0.1-0.1-0.3-0.3-0.4-0.4s-0.3-0.3-0.5-0.5s-0.4-0.4-0.6-0.7c-0.2-0.2-0.5-0.5-0.7-0.7c-0.2-0.3-0.4-0.5-0.6-0.8
		c-0.5-0.5-0.8-1.1-1.1-1.4C1211.5,47.8,1211.3,47.6,1211.1,47.6z M1230.4,49.8c0.1,0,0.3,0.2,0.3,0.5c0,0.2,0,0.4,0,0.6
		c0,0.1-0.1,0.2-0.1,0.4c-0.1,0.1-0.1,0.3-0.2,0.4c-0.2,0.3-0.3,0.5-0.5,0.5c-0.1,0.1-0.3,0.1-0.3,0.1c-0.2-0.1-0.2-0.3-0.1-0.6
		c0.1-0.4,0.2-0.7,0.3-0.9c0.1-0.3,0.1-0.4,0.2-0.6C1230.1,49.9,1230.3,49.8,1230.4,49.8z"/>
</g>
<g>
	<path class="st0" d="M240.4,17.9c-0.5,0.5-0.3,1.2-0.3,1.8c0,1,0,1.9,0.1,2.9c0,1.7,0.1,3.5,0.1,5.2c0,0.5,0.2,0.8,0.5,1.1
		c0.5,0.7,1,1.7,1.6,2.2c0.8,0.6,2,0.4,2.9,0.4c0.5,0,0.4,0,0.4,0.5c0,0.7,0.1,1.4,0.1,2.1c0.2,3.7,0.3,7.3,0.5,11
		c0,0.3-1,0.2-1.2,0.2c-0.8,0-1.7,0.1-2.5,0.1c-1.1,0.1-1.2,1-1.1,1.9s0.2,1.7,0.3,2.6c0.2,1.8,0.4,3.6,0.6,5.4
		c0,0.4,0.3,0.7,0.5,1.1c0.3,0.4,0.5,0.7,0.8,1.1s0.5,0.8,0.9,1.1c0.6,0.4,1.2,0.4,1.8,0.3c3.8-0.5,7.7-1,11.5-1.5
		c0.9-0.1,2.1-0.1,3-0.5c1.4-0.7,0.9-3,0.9-4.3c0-1.6-0.1-3.1-0.1-4.7c0-1.3-1.3-1.6-2.1-2.3c-0.4-0.4-1.1-0.9-1.7-0.9
		c-0.3,0-0.7,0-1,0.1c0.1-3.4,0.2-6.7,0.3-10.1c0-0.8,0.1-1.6,0.1-2.4c0-0.2-0.1-0.7,0.2-0.7c0.9,0,1.8,0,2.7,0c1.2,0,1.8-0.9,1.8-2
		c0-1.8-0.1-3.5-0.1-5.3c0-1,0-1.9-0.1-2.9c0-0.6,0.1-1.3-0.3-1.8c-0.2-0.3-2.6-2.1-3.2-2.2c-0.3,0-0.7,0-1,0c-1.7,0-3.4,0-5.2,0
		c-2.5,0-5,0.1-7.4,0.1c-0.9,0-1.7,0-2.6,0C241.5,17.5,240.8,17.4,240.4,17.9C240.2,18.1,240.6,17.6,240.4,17.9z"/>
	<path class="st1" d="M240.4,17.9c-0.2,0.2-0.4,0.5-0.4,0.9l0.2,9.1c0,0.7,0.6,1.2,1.2,1.2h4.2l0.7,16.2l-3.8,0.2
		c-0.3,0-0.6,0.2-0.9,0.4c-0.2,0.3-0.3,0.6-0.3,0.9l1,8.6c0,0.3,0.2,0.6,0.5,0.8c0.2,0.2,0.5,0.3,0.8,0.3c0.1,0,0.1,0,0.2,0l14.5-2
		c0.6-0.1,1.1-0.6,1.1-1.2l-0.2-7.5c0-0.3-0.2-0.6-0.4-0.9c-0.2-0.2-0.6-0.3-0.9-0.3l-3.5,0.2l0.5-15.8h3.4l0,0
		c0.7,0,1.2-0.5,1.2-1.2c0-0.1,0-0.1,0-0.2l-0.2-9.1c0-0.7-0.6-1.2-1.2-1.2l-16.8,0.2C240.9,17.5,240.6,17.6,240.4,17.9z"/>
	<polygon class="st2" points="253,46.1 253.6,27.8 258.2,27.8 258,18.5 241.3,18.7 241.4,27.8 246.7,27.8 247.5,46.4 242.6,46.7 
		243.5,55.3 258,53.4 257.9,45.9 	"/>
	<g class="st3">
		<path class="st2" d="M246.7,27.8l0.3,7.3c2.1,0.1,4.2,0.3,6.3,0.5l0.3-7.8h4.5l-0.2-9.3l-16.8,0.2l0.2,9.1L246.7,27.8L246.7,27.8z
			"/>
	</g>
	<g>
		<polygon class="st4" points="242,19.9 257.8,19.8 258.1,23.2 258,18.5 241.3,18.7 241.4,25 		"/>
	</g>
	<polygon class="st4" points="247.5,45.1 247.8,47 243.2,47.5 243.3,53.1 242.6,46.7 247.5,46.3 	"/>
	<polygon class="st4" points="253,45.1 252.9,46.6 257.6,46.4 258,52.9 257.9,45.9 253.1,46 	"/>
	<path class="st5" d="M244.1,54.1c0.1,0.5,2.9,0.2,4.4,0s6.1-1,8-1.3c0.4-0.1,0.8-0.1,1.1-0.2c0-0.3,0-0.7,0-0.9s0-0.2,0-0.3
		s0-0.1,0-0.2c0-0.2-0.1-0.4-0.2-0.5c-0.1-0.2-0.3-0.3-0.4-0.3c-0.1,0-0.2,0-0.3,0.1s-0.1,0.2-0.1,0.5c0,0.1,0,0.2-0.1,0.4l0,0l0,0
		c-2.2,0.4-6,1-8,1.3C247.2,53,244,53.7,244.1,54.1z M256.8,48.2c0.2,0,0.8,0.3,0.8,1.1s-0.6,0.7-0.8,0.3
		C256.2,48.7,256.5,48.3,256.8,48.2z"/>
</g>
<g>
	<path class="st0" d="M937.9,32c0.5,0.5,1.1,1.1,1.7,1.5c0.3,0.4,0.7,0.5,1.2,0.6c0.6,0,1.2,0.1,1.8,0.2c2.2,0.2,4.3,0.5,6.5,0.7
		c1.4,0.2,4,0.9,4.5-1c0.3-0.9,0.1-1.8,0.8-2.6c0.4-0.5,0.9-0.7,1.5-0.8c0.4-0.1,0.8,0,1.2,0c0.4,0,0.3,0.6,0.3,0.9
		c-0.2,4.2-4.2,7.5-7.5,9.5c-1.4,0.8-3,1.5-4.5,2.1c-0.9,0.3-1.7,0.6-2.6,0.8c-0.8,0.2-1.9,0.3-2.4,1c-0.4,0.6-0.3,1.2-0.2,1.9
		c0.1,0.9,0.2,1.8,0.3,2.7c0.2,2,0.4,4,0.7,6.1c0.1,0.7,0.1,1.4,0.8,1.9c0.5,0.5,1.1,1.1,1.7,1.5c0.7,0.7,1.3,0.8,2.2,0.8
		c6.9-0.6,13.9-0.3,20.9,0c1.4,0.1,2-1,2.1-2.2c0.2-1.6,0.3-3.1,0.4-4.6c0.1-1.3,0.2-2.6,0.4-3.9c0.1-1-0.4-1.5-1.1-2.1
		c-0.5-0.4-0.9-0.8-1.4-1.2c-0.6-0.5-1-0.7-1.8-0.7c2.5-2.5,4.5-5.5,5.5-8.9c1-3.5,0.7-7.4-0.8-10.7c-1.3-2.8-3.6-4.8-5.9-6.7
		c-2.6-2.1-6-3.3-9.4-3.6c-4.2-0.4-8.7,0.9-12,3.6c-1.8,1.5-3.3,3.4-4.3,5.6c-0.5,1.2-0.9,2.5-1.1,3.8C936.9,29.4,936.5,31,937.9,32
		C938,32.1,937.8,31.9,937.9,32z"/>
	<path class="st1" d="M949,32.3c0.3,0,0.7-0.1,0.9-0.3c0.3-0.2,0.4-0.5,0.4-0.9s0.2-3.6,3.4-3.6c0.4,0,0.9,0.1,1.5,0.2
		c1.8,0.4,2.1,2.1,2.1,3c0,3.9-4.3,10.6-16.4,13.4c-0.6,0.1-1,0.7-1,1.3l1.1,10.2c0.1,0.6,0.6,1.1,1.2,1.1h0.1
		c2.2-0.2,5.2-0.3,9-0.3c6.4,0,12.6,0.3,12.7,0.3c0.7,0,1.2-0.5,1.3-1.1l0.9-9.3c0-0.3-0.1-0.7-0.3-0.9c-0.2-0.3-0.5-0.4-0.9-0.4
		c-1.6-0.1-3.7-0.1-5.9-0.2c4.2-3.3,8.9-8.5,8.8-15.4C967.8,18,957.9,15,952.7,15c-0.1,0-0.3,0-0.4,0c-6.7,0.2-14.8,4.2-15.5,14.9
		c0,0.7,0.4,1.2,1.1,1.3L949,32.3z"/>
	<path class="st2" d="M966.8,29.3c-0.1-11.2-10.2-13.3-14.3-13.1c-4.2,0.1-13.6,2.2-14.3,13.7l11,1.2c0,0,0.1-6,6.3-4.6
		c6.2,1.4,3.8,14.6-14.3,18.9l1.1,10.2c7.7-0.7,21.8,0,21.8,0l0.9-9.3c-2.5-0.1-6-0.2-9.6-0.3C959.4,43.4,966.9,37.6,966.8,29.3z"/>
	<path class="st6" d="M955.5,26.5c3,0.7,4,4,2.2,7.9c2.5,0.5,5.1,0.9,7.6,1.3c0.9-1.9,1.5-4,1.4-6.3c-0.1-11.2-10.2-13.3-14.3-13.1
		c-4.2,0.1-13.6,2.2-14.3,13.7l11,1.2C949.2,31.1,949.3,25.1,955.5,26.5z"/>
	<g>
		<path class="st4" d="M952.5,17.7c4.1-0.1,13.8,1.9,14.3,12.6c0-0.3,0-0.6,0-0.9c-0.1-11.2-10.2-13.3-14.3-13.1
			c-4.2,0.1-13.6,2.2-14.3,13.7h0.2C939.7,19.7,948.5,17.8,952.5,17.7z"/>
	</g>
	<g>
		<path class="st4" d="M964.4,53.4l0.7-7.3c-2-0.1-6.8-0.2-9.6-0.3c-0.9,0.4-1.3,0.6-1.7,0.6c3.2,0.1,8.2,0.1,10.9,0.2
			C964.9,46.6,964.2,53.4,964.4,53.4z"/>
	</g>
	<g>
		<path class="st4" d="M958.5,31.5c-0.5,4.6-5.6,11.1-17.3,13.9l1,9c0.2-0.1-0.4-7.6-0.1-7.7s0.7-0.2,1-0.3
			C954.7,43,959.1,35.9,958.5,31.5z"/>
	</g>
	<path class="st7" d="M943.7,54.3c0.1,0.5,4.2,0.2,6.4,0.2c1.1-0.1,3.4-0.1,5.7-0.1c1.2,0,2.4,0.1,3.4,0.1c1.1,0.1,2,0.1,2.7,0.1
		c0.5,0,1,0,1.4,0c0.1,0,0.3,0,0.4,0c0,0,0,0,0-0.1v-0.1c0-0.1,0-0.1,0-0.2c0-0.2,0-0.5,0-0.7c0-0.1,0-0.2,0-0.3s0-0.1,0-0.2
		s0-0.2,0-0.2c0-0.2-0.1-0.3-0.1-0.4c-0.1-0.4-0.3-0.5-0.4-0.5s-0.3-0.1-0.4,0.3c-0.1,0.2-0.1,0.5-0.2,0.9v0.1l0,0l0,0l0,0l0,0
		c-0.2,0-0.3,0-0.5,0c-0.8,0-1.8-0.1-2.8-0.1c-1.1,0-2.2-0.1-3.3-0.1c-1.1,0-2.2,0-3.2,0s-1.9,0.1-2.7,0.1
		C948.4,53.2,943.6,53.8,943.7,54.3z M963.2,48.6c0.2-0.1,0.8,0.4,0.8,1.7c-0.1,1.2-0.7,1-0.9,0.5C962.6,49.2,963,48.6,963.2,48.6z"
		/>
</g>
</svg>
