<?xml version="1.0" encoding="utf-8"?>
<!-- Generator: Adobe Illustrator 24.0.2, SVG Export Plug-In . SVG Version: 6.00 Build 0)  -->
<svg version="1.1" id="Capa_1" xmlns="http://www.w3.org/2000/svg" xmlns:xlink="http://www.w3.org/1999/xlink" x="0px" y="0px"
	 viewBox="0 0 355.3 67.2" style="enable-background:new 0 0 355.3 67.2;" xml:space="preserve">
<style type="text/css">
	.st0{fill:#352E16;}
	.st1{fill:#954415;}
	.st2{fill:#F1AF02;}
	.st3{opacity:0.7;}
	.st4{fill:#FFFFFF;}
	.st5{fill:#F9B84A;}
	.st6{opacity:0.8;fill:#F1AF02;}
	.st7{fill:#F6EB69;}
	.st8{opacity:0.8;}
	.st9{fill:#F4F4F4;}
</style>
<g>
	<path class="st0" d="M23.2,22c-0.3,0.4,0,1,0.1,1.5c0.2,0.8,0.4,1.7,0.6,2.5c0.6,2.6,1.2,5.3,1.9,7.9c0.6,2.6,1.2,5.2,1.8,7.8
		c0.2,0.8,0.4,1.6,0.6,2.4c0,0.2,0.1,0.4,0.1,0.5c0.1,0.5,0.5,0.9,0.8,1.3c0.3,0.4,0.6,0.9,1.1,1c0.1,0,0.3,0,0.4,0
		c0.6,0,1.2-0.1,1.8-0.1c0.6,0,1.3-0.1,1.9-0.1c0.6,0,1.2-0.2,1.4-0.8c0.7-2,1.2-4,1.7-6c0,0,0-0.1,0-0.1c0.4,1,0.8,2,1.2,3.1
		c0,0.1,0.1,0.3,0.2,0.4c0.1,0.2,0.3,0.4,0.5,0.5c0.1,0.2,0.2,0.5,0.4,0.7c0.3,0.6,0.7,0.8,1.3,0.7c1.3-0.1,2.5-0.1,3.8-0.2
		c0.4,0,0.9,0,1.3-0.2c0.3-0.2,0.5-0.5,0.5-0.9c0.9-4.6,1.9-9.3,2.8-13.9c0.2-0.9,0.4-1.9,0.6-2.8c0.1-0.7,0.4-1.5-0.4-2
		c-0.2-0.2-0.5-0.4-0.7-0.5c-0.2-0.2-0.5-0.4-0.7-0.5c-0.1-0.1-0.2-0.1-0.4-0.1c-0.5-0.1-1-0.3-1.5-0.4c-1.2-0.4-2.4-0.7-3.7-1.1
		c-0.6-0.2-1.2-0.1-1.3,0.6c-0.1,0.6-0.2,1.2-0.3,1.8c-0.2,1.3-0.4,2.6-0.6,4c-0.4-0.8-0.8-1.7-1.2-2.5c-0.1-0.2-0.2-0.4-0.5-0.6
		c-0.4-0.3-0.8-0.6-1.3-0.9c-0.5-0.5-1.1-0.2-1.4,0.3c-0.8,1.7-1.7,3.3-2.5,5c-0.5-2.2-1-4.3-1.5-6.5c-0.1-0.4-0.2-0.8-0.3-1.2
		c-0.2-0.7-0.9-1-1.5-1.4c-0.3-0.2-0.6-0.5-1.1-0.5c-0.1,0-0.3,0-0.4,0.1c-0.6,0.1-1.2,0.2-1.8,0.3c-0.8,0.1-1.6,0.3-2.5,0.4
		C24.2,21.6,23.4,21.6,23.2,22C23,22.2,23.3,21.8,23.2,22z"/>
	<path class="st1" d="M23.2,22c-0.1,0.2-0.2,0.4-0.1,0.6l5.2,22c0.1,0.4,0.4,0.6,0.8,0.6c0,0,0,0,0,0l4.3-0.2c0.3,0,0.6-0.2,0.7-0.6
		l2.2-7.7l2.4,6.2c0.1,0.3,0.4,0.5,0.8,0.5l4.8-0.2c0.4,0,0.7-0.3,0.7-0.6l3.6-17.6c0.1-0.4-0.2-0.8-0.6-0.9l-5.7-1.7
		c-0.2-0.1-0.5,0-0.6,0.1c-0.2,0.1-0.3,0.3-0.4,0.5l-1.2,7.4l-2.5-5.4c-0.1-0.3-0.4-0.5-0.7-0.5c-0.3,0-0.6,0.2-0.7,0.4L32.7,32
		l-2.6-10.7c-0.1-0.4-0.5-0.7-0.9-0.6l-5.6,0.9C23.5,21.7,23.3,21.8,23.2,22z"/>
	<polygon class="st2" points="23.8,22.5 29.4,21.5 32.5,34.3 36.9,25.5 40.5,33.3 42.1,23.3 47.8,25 44.2,42.6 39.4,42.8 36.2,34.4 
		33.3,44.3 29,44.5 	"/>
	<g class="st3">
		<path class="st2" d="M32.5,36.8c0.5,0.1,1,0.1,1.5,0.2c0.1,0,0.5,0,0.6,0c0.3,0,0.5,0,0.8,0l0.7-2.6l1,2.5
			c1.1-0.1,2.3-0.2,3.4-0.4c1.7-0.3,3.4-0.7,5.1-1.1L47.8,25l-5.7-1.7l-1.6,10l-3.6-7.8l-4.4,8.8l-3.1-12.8l-5.6,0.9l3,12.9
			C28.6,36.1,30.3,36.5,32.5,36.8z"/>
	</g>
	<g>
		<polygon class="st4" points="24.4,23.5 29.1,22.7 32.3,35.6 36.9,27.2 40.7,35.6 42.5,24.5 47.2,26 46.4,31.7 47.8,25 42.1,23.3 
			40.5,33.3 36.9,25.5 32.5,34.3 29.4,21.5 23.8,22.5 25,27.4 		"/>
	</g>
	<path class="st5" d="M29.6,43.8c0,0.3,1.6,0.3,2.4,0.2l1-0.1l1.2-3.8c0.3-1,0-1.2-0.1-1.2c-0.1-0.1-0.3-0.2-0.7,1l-1,3.2l-0.5,0
		C31.3,43.2,29.6,43.5,29.6,43.8z M34.4,37.7c0.1,0,0.5,0.3,0.3,0.7c-0.2,0.4-0.5,0.2-0.6,0C34,37.8,34.3,37.6,34.4,37.7z"/>
	<path class="st5" d="M40.1,42.1c0,0.3,1.5,0.3,2.4,0.3l1.4-0.1l0.6-3.6c0.2-1-0.1-1.2-0.3-1.2c-0.2,0-0.3-0.1-0.5,1.1l-0.5,2.9
		l-0.8,0.1C41.8,41.6,40.1,41.8,40.1,42.1z M44.4,36.2c0.2,0,0.5,0.3,0.4,0.7c-0.1,0.4-0.5,0.3-0.6,0.1C44,36.4,44.2,36.2,44.4,36.2
		z"/>
</g>
<g>
	<path class="st0" d="M53.8,47.7c0.5,0.8,1.9,0.6,2.6,0.6c1.4,0.1,2.8,0.2,4.3,0.2c0.5,0,1,0.1,1.6,0.1c0.4,0,0.9,0.1,1.2-0.3
		c0.4-0.3,0.4-0.8,0.4-1.2c0-0.6,0-1.1,0.1-1.7c0.1-1.6,0.1-3.2,0.2-4.8c0.1,0,0.4,0,0.4,0.1c0,0.2,0,0.3,0.1,0.5
		c0.1,0.6,0.1,1.3,0.2,1.9c0.1,0.7,0.2,1.4,0.2,2.1c0,0.3,0,0.7,0.1,1c0.1,0.2,0.2,0.4,0.3,0.6c0.3,0.4,0.5,0.7,0.7,0.9
		c0.5,0.6,0.8,0.8,1.4,0.8c1.2-0.1,2.4-0.2,3.7-0.2c1-0.1,1.9-0.1,2.9-0.2c0.7,0,1.2-0.7,1-1.4c0-0.1-0.1-0.3-0.1-0.4
		c-0.5-1.8-0.9-3.6-1.4-5.5c-1.4-5.3-2.7-10.5-4.1-15.8c-0.2-0.7-0.3-1.3-0.5-2c0-0.1-0.1-0.2-0.1-0.4c-0.1-0.5-0.6-0.8-1-1
		c-0.4-0.3-0.9-0.8-1.4-0.8c-0.3,0-0.6,0-0.9,0c-1.3,0-2.6-0.1-3.9-0.1c-1.3,0-2.6-0.1-3.9-0.1c-0.6,0-1.6-0.2-1.8,0.7
		c-0.2,1.4-0.4,2.8-0.6,4.2c-0.7,5.5-1.5,11-2.2,16.4c-0.1,1.1-0.3,2.2-0.4,3.3c0,0.2,0,0.3-0.1,0.5c-0.1,0.4,0.3,0.8,0.5,1.1
		C53.4,47.1,53.6,47.4,53.8,47.7z"/>
	<path class="st1" d="M53.5,46.6l7.9,0.4c0,0,0,0,0,0c0.2,0,0.4-0.1,0.5-0.2c0.2-0.1,0.3-0.3,0.3-0.6l0.3-7.3l1.8,0.1l0.8,7
		c0,0.4,0.4,0.7,0.8,0.7l6.8-0.4c0.2,0,0.5-0.1,0.6-0.3c0.1-0.2,0.2-0.4,0.1-0.7l-6.2-24c-0.1-0.4-0.4-0.6-0.8-0.6l-9.7-0.2
		c-0.4,0-0.8,0.3-0.8,0.7l-3.3,24.5c0,0.2,0,0.4,0.2,0.6C53,46.5,53.2,46.6,53.5,46.6z M63.6,32.1l-0.7,0l0.1-3.2h0.2L63.6,32.1z"/>
	<path class="st2" d="M66,46l6.8-0.4l-6.2-24l-9.7-0.2l-3.3,24.5l7.9,0.4l0.3-8.1l3.3,0.3L66,46z M62,32.9l0.2-4.8h1.7l0.5,4.8
		L62,32.9z"/>
	<path class="st6" d="M56.5,36.1c0.8,0.3,3,0.9,4.5,1.1c0.8,0.2,1.7,0.3,2.5,0.4c0.3,0,0.7,0.1,1,0.1c0.1,0,0.2,0,0.2,0
		c0.1,0,0.2,0,0.3,0c1.9,0.1,3.8,0,5.7-0.2l-4.1-16l-9.7-0.2l-1.9,14.2C55.4,35.7,55.9,35.9,56.5,36.1z M62.2,28.1h1.7l0.5,4.8
		l-2.5,0L62.2,28.1z"/>
	<polygon class="st4" points="63.9,28.3 64.5,32.9 62,32.9 62.2,28.3 61.8,33.3 64.7,33.4 	"/>
	<path class="st4" d="M57.3,22.5l8.9,0.2c0,0,2.8,9.2,3.1,9.2l-2.7-10.3l-9.7-0.2L55.4,32C55.6,32.1,57.3,22.5,57.3,22.5z"/>
	<path class="st6" d="M55.7,45.1c0,0.3,2,0.6,3,0.6c0.3,0,0.7,0,1.2,0c0.1,0,0.3,0,0.4,0c0.1,0,0.1,0,0.2,0h0.1c0,0,0.1,0,0.1,0l0,0
		l0,0c0.1,0,0.1,0,0.2-0.1c0,0,0,0,0.1-0.2c0-0.1,0-0.9-0.4-0.1l0,0l0,0c0,0,0,0,0.1-0.1c0.1,0,0.2-0.1,0.2,0c0,0,0,0.1,0,0.1v0
		v-0.1l0-0.2c0-0.1,0-0.3,0-0.4c0.1-1.1,0.1-2.3,0.2-2.9c0.1-1.3-0.2-1.5-0.4-1.5c-0.2,0-0.4-0.1-0.5,1.5c0,0.8-0.1,1.9-0.2,2.9
		c0,0.3,0,0.5,0,0.8v0c0,0,0,0,0,0.1c0,0.1,0,0.1,0,0.1c0,0.1,0,0,0,0.1c0.2-0.1-0.3,0.2,0.3-0.2l0,0c0,0,0,0,0,0c0,0,0-0.1,0-0.1
		l0-0.2c0-0.1,0-0.1,0-0.1h0h0l0,0h-0.2c-0.1,0-0.2,0-0.4,0c-0.5,0-0.9,0-1.3,0C58,44.8,55.8,44.8,55.7,45.1z M61,38.3
		c0.1,0,0.6,0.2,0.5,0.8c0,0.6-0.4,0.5-0.6,0.2C60.6,38.7,60.8,38.4,61,38.3z"/>
	<path class="st6" d="M66.4,45.4c0,0.3,2.1,0.3,3.2,0.2c0.3,0,0.7-0.1,1.2-0.1c0.3,0,0.6,0,1-0.1c0.1,0,0.3,0,0.4,0l0.2,0
		c0,0,0-0.1,0-0.2c-0.1-0.3-0.1-0.5-0.2-0.8c-0.3-1.2-0.6-2.3-0.8-3C71.1,40,70.7,40,70.6,40c-0.2,0-0.4,0,0,1.6
		c0.2,0.8,0.5,1.9,0.7,3l0,0.1c0,0,0,0,0,0c-0.2,0-0.4,0-0.5,0c-0.5,0-1,0.1-1.3,0.1C68.7,44.8,66.4,45.1,66.4,45.4z M70.1,38.3
		c0.1-0.1,0.6,0.1,0.7,0.7c0.1,0.6-0.3,0.6-0.5,0.4C69.8,38.8,69.9,38.4,70.1,38.3z"/>
</g>
<g>
	<path class="st0" d="M96.1,50.6c1.5,0,1.3-1.9,1.4-2.9c0.1-1.6,0.1-3.2,0.2-4.8c0-0.5,0-1,0.1-1.4c0-1-0.7-1.2-1.3-1.7
		c-0.5-0.4-1.1-0.8-1.7-0.8c-0.7,0-1.4,0-2.1,0c-0.3,0-2.9,0.2-2.9,0c-0.1-0.8-0.1-1.6-0.2-2.4c-0.3-3.2-0.5-6.4-0.8-9.5
		c-0.1-1.2-0.2-2.4-0.3-3.5c0-0.2,0-0.5-0.1-0.7c-0.1-0.9-1-1.3-1.7-1.7c-0.4-0.3-0.8-0.6-1.3-0.5c-0.1,0-0.2,0-0.3,0.1
		c-0.5,0.1-1.1,0.2-1.6,0.3c-1.6,0.3-3.2,0.7-4.8,1c-0.8,0.2-2.7,0.2-2.4,1.5c0.1,0.5,0.2,1,0.3,1.4c0.6,2.6,1.2,5.3,1.8,7.9
		c1.1,5,2.3,10,3.4,14.9c0,0.1,0,0.1,0.1,0.2c0.1,0.3,0.3,0.5,0.5,0.7c0.2,0.3,0.4,0.7,0.7,1c0.3,0.5,0.8,0.7,1.4,0.7
		c1.2,0.1,2.4,0.1,3.5,0.1c2.7,0.1,5.3,0.2,8,0.3C96,50.6,96.1,50.6,96.1,50.6z"/>
	<path class="st1" d="M94.6,48.8c0.5,0,0.9-0.4,0.9-0.9l0.4-8.1c0-0.3-0.1-0.5-0.3-0.7c-0.2-0.2-0.4-0.3-0.7-0.3L88,39l-1.5-17.8
		c0-0.3-0.2-0.5-0.4-0.7c-0.2-0.2-0.5-0.2-0.7-0.2l-8.3,1.7c-0.2,0.1-0.5,0.2-0.6,0.4c-0.1,0.2-0.2,0.5-0.1,0.7l5.5,24.4
		c0.1,0.4,0.4,0.7,0.9,0.7L94.6,48.8C94.6,48.8,94.6,48.8,94.6,48.8z"/>
	<polygon class="st2" points="77.2,23 85.6,21.3 87.2,39.9 95,39.8 94.6,47.9 82.8,47.4 	"/>
	<path class="st6" d="M86.7,34l-1.1-12.7L77.2,23l2.9,12.7C82.2,34.9,84.5,34.4,86.7,34z"/>
	<path class="st4" d="M85.6,21.3L77.2,23l1,4.5l-0.3-3.3l7.3-1.8L87,40.1l7.5,0.4l0.3,3.3l0.2-4c0,0-7.9,0.1-7.8,0.1L85.6,21.3z"/>
	<path class="st6" d="M90.8,47.1c0-0.4-2.8-0.7-4.3-0.8l-2.8-0.2l-0.9-4.5c-0.4-1.8-0.8-2-1-1.9c-0.2,0-0.4-0.1,0,2.1L83,47l3.5,0.2
		C87.5,47.3,90.8,47.5,90.8,47.1z M81.3,37.4c0.2-0.1,0.7,0.2,0.8,1c0.2,0.8-0.3,0.8-0.5,0.5C81,37.9,81.1,37.4,81.3,37.4z"/>
</g>
<g>
	<path class="st0" d="M109.1,21.6c-0.1-0.6-0.5-0.9-1-1.1c-0.2-0.1-0.4-0.3-0.7-0.4c-0.2-0.2-0.4-0.4-0.6-0.5
		c-0.3-0.2-0.9-0.1-1.2-0.1c-1.5,0-3,0.1-4.5,0.1c-0.8,0-2.2-0.2-2.2,1c0,0.5,0,1.1,0.1,1.6c0.2,5.8,0.5,11.6,0.7,17.4
		c0.1,2.3,0.2,4.5,0.3,6.8c0,0.7,0,1.2,0.6,1.7c0.1,0.2,0.3,0.5,0.4,0.6c0.1,0.2,0.2,0.5,0.4,0.7c0.3,0.3,0.7,0.4,1,0.4
		c0.4,0,0.7,0,1.1-0.1c2.5-0.2,5-0.3,7.6-0.5c0.7,0,1.2-0.4,1.3-1.1c0-0.4-0.1-0.9-0.1-1.4c-0.1-1.2-0.3-2.3-0.4-3.5
		c0.8,0.9,1.6,1.8,2.4,2.7c0.5,0.6,1.4,0.8,2,0.1c0.3-0.3,0.5-0.6,0.8-0.9c1-1.1,2-2.3,3-3.4c0.2-0.3,0.5-0.5,0.7-0.8
		c0.6-0.6,0.3-1.4-0.3-1.9c-2-1.5-3.9-3-5.9-4.5c-0.1-0.1,3.2-4.8,3.5-5.2c0.8-1.2,1.7-2.5,2.5-3.7c0.4-0.6,1.2-1.5,1.2-2.2
		c0-0.7-0.6-1-1.1-1.3c-0.4-0.3-1-0.8-1.5-0.9c-0.4-0.1-0.7-0.1-1.1-0.2c-1.5-0.2-3-0.4-4.5-0.6c-0.4-0.1-0.9-0.1-1.3-0.2
		c-0.7-0.1-0.9,0.5-1.2,1c-0.5,1.2-1.1,2.3-1.6,3.5C109.3,23.6,109.2,22.6,109.1,21.6z"/>
	<path class="st1" d="M107.3,20.3c-0.1-0.4-0.4-0.8-0.9-0.8l-6.6,0.1c-0.2,0-0.5,0.1-0.6,0.3c-0.2,0.2-0.3,0.4-0.2,0.6l1.1,26.6
		c0,0.2,0.1,0.5,0.3,0.6c0.2,0.1,0.4,0.2,0.6,0.2c0,0,0,0,0.1,0l8.9-0.6c0.2,0,0.5-0.1,0.6-0.3c0.2-0.2,0.2-0.4,0.2-0.7l-0.7-5.7
		l3.3,3.7c0.2,0.2,0.4,0.3,0.7,0.3c0.3,0,0.5-0.1,0.7-0.3l4.5-5.1c0.2-0.2,0.2-0.4,0.2-0.7c0-0.2-0.1-0.5-0.3-0.6l-6.3-4.8l7.2-10.6
		c0.2-0.3,0.2-0.6,0.1-0.9c-0.1-0.3-0.4-0.5-0.7-0.5l-7-0.9c-0.4-0.1-0.8,0.2-0.9,0.5l-3.1,6.6L107.3,20.3z"/>
	<polygon class="st2" points="119.1,22 112.1,21.1 107.7,30.5 106.4,20.4 99.8,20.5 100.9,47.1 109.8,46.5 108.7,38 113.9,43.8 
		118.4,38.7 111.4,33.4 	"/>
	<path class="st6" d="M108.2,30.5c1.4,0.3,2.8,0.8,4.3,1.2l6.6-9.7l-7-0.9l-4.3,9.3C107.9,30.4,108.1,30.5,108.2,30.5z"/>
	<path class="st6" d="M107.7,30.4l-1.3-10l-6.6,0.1l0.4,9C102.7,29.5,105.3,29.8,107.7,30.4z"/>
	<path class="st4" d="M112.6,21.9l5.7,1c0,0-5.8,8.9-5.8,8.9l6.6-9.7l-7-0.9l-3.8,8.2L112.6,21.9z"/>
	<polygon class="st4" points="106.4,20.4 99.8,20.5 100.1,26.7 100,21.4 105.9,21.1 107.2,26.4 	"/>
	<path class="st6" d="M117.4,39.1c0.2-0.3-0.7-1.2-1.3-1.6c-0.5-0.4-2.3-1.8-2.9-2.3c-0.7-0.5-1-0.3-1.1-0.2
		c-0.1,0.1-0.3,0.3,0.5,0.9c0.8,0.6,2.2,1.7,2.9,2.3C116,38.6,117.2,39.4,117.4,39.1z M111.2,34.4c0.1-0.1,0.5-0.4,0.8-0.2
		c0.3,0.2,0,0.6-0.2,0.6C111.1,34.9,111.1,34.6,111.2,34.4z"/>
	<path class="st6" d="M106.2,45.9c0-0.2-0.7-0.3-1.6-0.4c-0.4-0.1-0.9-0.1-1.4-0.1c-0.2,0-0.5,0-0.7,0c-0.1,0-0.2,0-0.3,0h0h0l0,0
		l0,0l-0.2-7.4c-0.1-1.9-0.4-2.1-0.6-2.1c-0.2,0-0.4-0.1-0.3,2.1l0.2,8.3l0.4,0c0.2,0,0.4,0,0.7,0c0.2,0,0.4,0,0.6,0
		c0.4,0,0.9,0,1.4,0C105.4,46.2,106.2,46.1,106.2,45.9z M101.3,33.5c0.2-0.1,0.6,0.3,0.6,1.1c0,0.8-0.4,0.7-0.6,0.4
		C100.9,34,101.1,33.5,101.3,33.5z"/>
</g>
<g>
	<path class="st0" d="M128.9,22.6c-0.3,0.3-0.2,0.8-0.2,1.1c0,0.6,0,1.2,0,1.8c0,1.1,0,2.2,0.1,3.3c0,0.3,0.1,0.5,0.3,0.7
		c0.3,0.4,0.6,1.1,1,1.4c0.5,0.4,1.3,0.2,1.8,0.2c0.3,0,0.3,0,0.3,0.3c0,0.4,0,0.9,0.1,1.4c0.1,2.3,0.2,4.6,0.3,6.9
		c0,0.2-0.6,0.1-0.8,0.1c-0.5,0-1.1,0.1-1.6,0.1c-0.7,0-0.7,0.6-0.7,1.2c0.1,0.5,0.1,1.1,0.2,1.6c0.1,1.1,0.3,2.3,0.4,3.4
		c0,0.3,0.2,0.4,0.3,0.7c0.2,0.2,0.3,0.5,0.5,0.7c0.2,0.2,0.3,0.5,0.5,0.7c0.4,0.3,0.8,0.2,1.2,0.2c2.4-0.3,4.8-0.6,7.2-1
		c0.6-0.1,1.3-0.1,1.9-0.3c0.9-0.4,0.6-1.9,0.6-2.7c0-1,0-2-0.1-2.9c0-0.8-0.8-1-1.3-1.5c-0.2-0.2-0.7-0.6-1-0.5c-0.2,0-0.4,0-0.6,0
		c0.1-2.1,0.1-4.2,0.2-6.4c0-0.5,0-1,0.1-1.5c0-0.1-0.1-0.5,0.1-0.5c0.6,0,1.1,0,1.7,0c0.7,0,1.1-0.6,1.1-1.3c0-1.1,0-2.2-0.1-3.3
		c0-0.6,0-1.2,0-1.8c0-0.4,0-0.8-0.2-1.1c-0.1-0.2-1.6-1.3-2-1.4c-0.2,0-0.4,0-0.6,0c-1.1,0-2.2,0-3.2,0c-1.6,0-3.1,0-4.7,0
		c-0.5,0-1.1,0-1.6,0C129.5,22.4,129.1,22.3,128.9,22.6C128.7,22.7,129,22.5,128.9,22.6z"/>
	<path class="st1" d="M128.9,22.6c-0.1,0.1-0.2,0.3-0.2,0.5l0.1,5.7c0,0.4,0.3,0.8,0.8,0.8h2.6l0.4,10.2l-2.4,0.1
		c-0.2,0-0.4,0.1-0.5,0.3c-0.1,0.2-0.2,0.4-0.2,0.6l0.6,5.4c0,0.2,0.1,0.4,0.3,0.5c0.1,0.1,0.3,0.2,0.5,0.2c0,0,0.1,0,0.1,0l9.1-1.2
		c0.4,0,0.7-0.4,0.7-0.8l-0.1-4.7c0-0.2-0.1-0.4-0.2-0.5c-0.2-0.1-0.4-0.2-0.6-0.2l-2.2,0.1l0.3-9.9h2.1h0c0.4,0,0.8-0.3,0.8-0.8
		c0,0,0-0.1,0-0.1l-0.1-5.7c0-0.4-0.3-0.8-0.8-0.8l-10.5,0.1C129.2,22.4,129,22.5,128.9,22.6z"/>
	<polygon class="st2" points="136.8,40.4 137.2,28.9 140,28.9 139.9,23 129.4,23.1 129.5,28.9 132.9,28.9 133.4,40.5 130.2,40.7 
		130.8,46.1 139.9,44.9 139.8,40.2 	"/>
	<g class="st3">
		<path class="st2" d="M132.9,28.9l0.2,4.6c1.3,0.1,2.6,0.2,4,0.3l0.2-4.9h2.8l-0.1-5.8l-10.5,0.1l0.1,5.7H132.9z"/>
	</g>
	<g>
		<polygon class="st4" points="129.9,23.9 139.8,23.8 140,25.9 139.9,23 129.4,23.1 129.5,27.1 		"/>
	</g>
	<polygon class="st4" points="133.3,39.7 133.5,40.9 130.6,41.2 130.7,44.8 130.2,40.7 133.3,40.5 	"/>
	<polygon class="st4" points="136.8,39.7 136.7,40.6 139.7,40.6 139.9,44.6 139.8,40.2 136.9,40.3 	"/>
	<path class="st5" d="M131.2,45.4c0,0.3,1.8,0.2,2.7,0c0.9-0.1,3.9-0.6,5-0.8c0.2,0,0.5-0.1,0.7-0.1c0-0.2,0-0.4,0-0.6
		c0-0.1,0-0.1,0-0.2c0,0,0-0.1,0-0.1c0-0.1-0.1-0.2-0.1-0.3c-0.1-0.1-0.2-0.2-0.3-0.2c-0.1,0-0.1,0-0.2,0.1c0,0.1-0.1,0.1-0.1,0.3
		c0,0.1,0,0.2,0,0.3c0,0,0,0,0,0c0,0,0,0,0,0c-1.4,0.2-3.8,0.6-5,0.8C133.1,44.7,131.1,45.1,131.2,45.4z M139.2,41.7
		c0.1,0,0.5,0.2,0.5,0.7c0,0.5-0.4,0.4-0.5,0.2C138.8,42,139,41.7,139.2,41.7z"/>
</g>
<g>
	<path class="st0" d="M157.4,23.1c-0.2-0.2-0.5-0.4-0.7-0.5c-0.2-0.2-0.5-0.4-0.7-0.5c-0.2-0.1-0.3-0.1-0.5-0.1
		c-0.6-0.1-1.1-0.1-1.7-0.2c-1.1-0.1-2.1-0.3-3.2-0.4c-0.9-0.1-0.9,0.8-1,1.4c-0.1,0.8-0.2,1.7-0.2,2.5c-0.5,5.4-1,10.8-1.5,16.2
		c-0.1,0.8-0.2,1.7-0.2,2.5c0,0.2,0,0.4-0.1,0.6c0,0.5,0.2,0.7,0.5,1.1c0.4,0.6,0.8,1.4,1.6,1.5c0.3,0,0.7,0,1,0.1
		c1.4,0.1,2.7,0.1,4.1,0.2c0.9,0.1,1.8,0.1,2.7,0.1c0.5,0,1-0.2,1.2-0.6c0.2-0.3,0.1-0.7,0-1.1c-0.2-1.9-0.4-3.8-0.6-5.7
		c1.1,1.7,2.2,3.3,3.2,5c0.3,0.4,0.6,1.1,1,1.3c0.4,0.2,1,0.2,1.4,0.2c1.1,0,2.2,0.1,3.3,0c1,0,1.1-0.9,1.2-1.6
		c0.1-0.8,0.2-1.7,0.3-2.5c0.3-2.7,0.6-5.5,0.9-8.2c0.3-2.5,0.5-5.1,0.8-7.6c0.1-0.6,0.1-1.2,0.2-1.8c0.1-0.5-0.1-1-0.6-1.2
		c-0.2-0.2-0.5-0.4-0.7-0.5c-0.2-0.2-0.5-0.4-0.7-0.5c-0.1-0.1-0.3-0.1-0.5-0.1c-2,0-3.9-0.1-5.9-0.2c-0.8,0-1.5,0-2.3-0.1
		c-0.6,0-1,0.5-0.9,1.1c0.2,1.1,0.4,2.1,0.5,3.2c-0.3-0.6-0.5-1.2-0.8-1.8C158.3,24.3,158,23.4,157.4,23.1
		C157.4,23,157.6,23.2,157.4,23.1z"/>
	<path class="st1" d="M155.7,22l-5.1-0.6c-0.2,0-0.4,0-0.6,0.2c-0.2,0.1-0.3,0.3-0.3,0.6l-2.1,22.5c0,0.2,0,0.4,0.2,0.6
		c0.1,0.2,0.3,0.3,0.6,0.3l7.9,0.4c0,0,0,0,0,0h0c0.4,0,0.8-0.4,0.8-0.8c0-0.1,0-0.1,0-0.2l-0.8-7.6l4.7,7.3
		c0.1,0.2,0.4,0.4,0.7,0.4h4.2c0.4,0,0.8-0.3,0.8-0.7l2.2-20.8c0-0.2,0-0.4-0.2-0.6c-0.1-0.2-0.4-0.3-0.6-0.3l-8.4-0.2
		c-0.2,0-0.5,0.1-0.6,0.3c-0.2,0.2-0.2,0.4-0.2,0.7c0.4,1.5,0.6,4.1,0.8,6.2l-3.3-7.1C156.3,22.2,156,22.1,155.7,22z"/>
	<path class="st2" d="M156.3,45.2l-7.9-0.4l2.1-22.5l5.1,0.6l5.1,11.1c0,0-0.4-7.5-1.2-10.8l8.4,0.2l-2.2,20.8h-4.2L155.1,34
		L156.3,45.2z"/>
	<g class="st3">
		<path class="st2" d="M151.3,31.5c2.7-0.4,5.4-0.6,8.1-0.5l-3.8-8.1l-5.1-0.6l-0.9,9.6C150.2,31.7,150.7,31.5,151.3,31.5z"/>
	</g>
	<g class="st3">
		<path class="st2" d="M162.2,31.2c1.7,0.2,3.3,0.5,4.9,0.9l0.9-8.7l-8.4-0.2c0.4,2,0.8,5.4,1,7.9C161.1,31.1,161.7,31.1,162.2,31.2
			z"/>
	</g>
	<g>
		<path class="st4" d="M155.6,22.8l-5.1-0.6l-0.9,9.6c0.2,0,1.3-8.8,1.3-8.8l4.4,1l5.6,10.2L155.6,22.8z"/>
	</g>
	<g>
		<path class="st4" d="M160.1,23.9l7.4,0.6l0,4.3l0.6-5.4l-8.4-0.2c0.2,0.7,0.3,1.5,0.4,2.5L160.1,23.9z"/>
	</g>
	<path class="st5" d="M149.1,44c0,0.3,2.6,0.6,4,0.8l2.8,0.2l-0.7-5.8c-0.2-1.8-0.6-1.9-0.7-1.9c-0.2,0-0.4-0.1-0.1,2L155,44
		l-1.8-0.1C152.1,43.8,149.1,43.6,149.1,44z M154.1,35c0.1-0.1,0.6,0.2,0.7,1c0.1,0.8-0.3,0.7-0.5,0.4C153.8,35.5,154,35.1,154.1,35
		z"/>
	<path class="st5" d="M162.3,43.6c0,0.1,0.4,0.3,1,0.3c0.3,0,0.6,0.1,0.9,0.1c0.2,0,0.3,0,0.5,0c0.3,0,0.6,0,0.8,0
		c0-0.2,0.1-0.4,0.1-0.6c0.1-1.1,0.5-4.5,0.7-5.9c0.2-1.3-0.1-1.5-0.3-1.6c-0.2,0-0.3-0.2-0.5,1.5c-0.2,1.6-0.5,4.3-0.7,5.7
		c0,0,0,0,0,0c0,0,0,0,0,0c-0.1,0-0.3,0-0.4,0c-0.3,0-0.6,0-0.9,0.1C162.8,43.3,162.3,43.4,162.3,43.6z M166.1,34.3
		c0.2,0,0.5,0.3,0.4,0.9c-0.1,0.6-0.5,0.4-0.6,0.2C165.7,34.6,165.9,34.3,166.1,34.3z"/>
</g>
<g>
	<path class="st0" d="M175.9,33.2c0.1,2.3,0.7,4.6,1.8,6.6c0.5,1,1.2,1.9,1.9,2.8c0.7,1,1.5,1.9,2.5,2.6c1.9,1.3,4.4,1.7,6.6,0.9
		c1-0.4,2-1,2.8-1.7c0.4-0.3,0.7-0.7,1-1.1c0.2-0.2,0.3-0.4,0.4-0.6c0.1-0.2,0.2-0.5,0.4-0.4c0.4,0.2,0.7,0.3,1.1,0.2
		c0.4-0.1,0.6-0.4,0.7-0.8c0.1-0.5,0.2-0.9,0.2-1.4c0.1-0.6,0.2-1.2,0.3-1.9c0.1-0.5,0.2-1-0.1-1.4c-0.3-0.3-0.7-0.5-1.1-0.7
		c-0.2-0.2-0.4-0.4-0.7-0.5c-0.3-0.1-0.7-0.2-1-0.3c-1.2-0.4-2.4-0.7-3.7-1.1c-0.7-0.2-2.1-0.9-2.3,0.2c-0.1,0.5-0.2,1-0.3,1.6
		c-0.1,0.4-0.2,0.9-0.3,1.3c0,0.4,0.3,0.6,0.6,0.8c0.1,0.1,0.2,0.3,0.2,0.4c0,0.1-0.4,0.4-0.5,0.5c-0.4,0.3-0.9,0.3-1.3,0.2
		c-0.5-0.1-0.7-0.8-0.8-1.2c-0.4-1.3-0.2-3,0.2-4.3c0.3-0.8,0.7-1.5,1.3-2c0.3-0.3,0.8-0.5,1.2-0.5c0.3,0,0.5,0.1,0.7,0.2
		c0.2,0.2,0.3,0.3,0.5,0.5c0.2,0.4,0.5,0.9,0.9,1c0.2,0.1,1.3,0.1,1.8,0.1c1,0,1.8,0,2.8,0.1c0.4,0,0.7,0.1,1.1-0.2
		c0.4-0.3,0.5-1,0.6-1.5c0.3-1.1,0.5-2.2,0.7-3.3c0.1-0.4,0.1-0.7-0.1-1c-0.2-0.4-0.9-0.8-1.3-1c-0.3-0.2-0.2-0.2-0.7-0.3
		c-0.2,0-0.2,0-0.3-0.2c0-0.1-0.1-0.2-0.1-0.4c-0.1-0.3-0.3-0.5-0.4-0.8c-0.6-0.9-1.4-1.6-2.2-2.2c-0.9-0.7-1.8-1.3-2.9-1.7
		c-2.1-0.7-4.3-0.4-6.3,0.6c-2.8,1.4-4.6,4-5.4,6.9C176,29.9,175.8,31.6,175.9,33.2C176,36.1,175.8,30.9,175.9,33.2z"/>
	<path class="st1" d="M175.9,33.2c0.1,3.8,2.1,8,4.7,10.2c1.3,1,2.8,1.6,4.4,1.6c1.1,0,2.1-0.2,3.1-0.7c1.6-0.8,2.9-2.1,3.7-3.7
		l0.7,0.3c0.2,0.1,0.4,0.1,0.6,0c0.2-0.1,0.3-0.3,0.4-0.5l0.7-3.8c0.1-0.4-0.2-0.7-0.5-0.8l-6.1-1.8c-0.2-0.1-0.4,0-0.6,0.1
		c-0.2,0.1-0.3,0.3-0.3,0.5l-0.6,2.8c-0.1,0.3,0.1,0.7,0.4,0.8l0.6,0.3c-0.4,0.7-1,1.2-1.8,1c-1.6-0.4-2.7-1.7-2.7-3.6
		c0-1,0-4.4,2.4-5.7c0.3-0.1,0.6-0.2,0.9-0.2c0.7,0,1.4,0.5,1.8,1.4c0.1,0.3,0.4,0.5,0.8,0.4c0.3,0,0.7-0.1,1.2-0.1
		c1.3,0,2.8,0.1,3.3,0.2c0.1,0,0.2,0,0.2,0c0.3,0,0.6-0.2,0.7-0.5c0.2-0.6,0.3-1.2,0.5-1.9c0.2-0.7,0.3-1.5,0.4-2.2l0.1-0.5
		c0.1-0.4-0.1-0.7-0.5-0.8c-0.1-0.1-0.4-0.1-1.7-0.3c0-0.1,0-0.1,0-0.1c0,0,0,0,0,0c-0.6-3.3-4.1-5.1-7-5.1c-0.7,0-1.4,0.1-2,0.3
		C176.1,23,175.8,30.9,175.9,33.2z"/>
	<path class="st2" d="M184.7,29.6c1.6-0.8,3.1,0.1,3.7,1.5c1.5-0.2,4.7,0.1,4.8,0.1c0.2-0.6,0.3-1.2,0.5-1.9
		c0.2-0.9,0.4-1.7,0.5-2.6c-0.2-0.1-2-0.3-2-0.3c0,0-0.2-0.7-0.2-0.7c-0.7-3.4-4.9-5.3-8.1-4.3c-5.7,1.8-7.3,7.4-7.2,11.8
		c0.1,3.4,1.8,7.5,4.5,9.7c1.8,1.5,4.4,2,6.7,0.8c1.8-0.9,3-2.3,3.7-4l1.4,0.6l0.7-3.8l-1.5-0.4l-4.6-1.3l-0.6,2.8l0.2,0.1l1,0.5
		c-0.5,1.3-1.5,2.4-2.9,2.1c-2.1-0.5-3.2-2.2-3.3-4.3C181.8,33.6,182.4,30.8,184.7,29.6z"/>
	<path class="st6" d="M176.6,33.3c1.8,0.1,3.6,0.3,5.4,0.5c0.3-1.7,1.1-3.4,2.6-4.2c1.6-0.8,3.1,0.1,3.7,1.5
		c1.5-0.2,4.7,0.1,4.8,0.1c0.2-0.6,0.3-1.2,0.5-1.9c0.2-0.9,0.4-1.7,0.5-2.6c-0.2-0.1-2-0.3-2-0.3c0,0-0.2-0.7-0.2-0.7
		c-0.7-3.4-4.9-5.3-8.1-4.3c-5.7,1.8-7.3,7.4-7.2,11.8C176.6,33.3,176.6,33.3,176.6,33.3z"/>
	<path class="st4" d="M183.9,22.1c0.5-0.2,1.1-0.2,1.7-0.2c2.4,0,5.3,1.7,5.9,4.4l0,0c0.1,0.8,0.3,0.9,0.4,1c0.1,0,0.1,0,0.4,0.1
		c0.2,0,0.8,0.1,1.2,0.2l0,0.1c-0.1,0.7-0.5,3.5-0.5,3.5c0.2-0.6,0.3-1.2,0.5-1.9c0.2-0.9,0.4-1.7,0.5-2.6c-0.2-0.1-2-0.3-2-0.3
		c0,0-0.2-0.7-0.2-0.7c-0.7-3.4-4.9-5.3-8.1-4.3c-4.8,1.5-6.7,5.7-7.1,9.7C176.6,31.8,177.7,24,183.9,22.1z"/>
	<polygon class="st4" points="186.9,37.2 187.4,34.8 193.5,36.5 187.8,35.3 	"/>
	<path class="st4" d="M182.1,33.3c0,0-1.2,4.8,2,6.6c2.9,1.6,4-1.7,4-1.7s-0.5,3.6-3.9,2.2C180.9,39,181.7,34.5,182.1,33.3z"/>
	<path class="st6" d="M187.7,43.2c-0.1-0.1-0.6,0.1-1.4,0.2c-0.7,0.1-1.6,0-2.2-0.1c-0.1,0-0.3-0.1-0.5-0.2c-0.1,0-0.2-0.1-0.3-0.1
		c-0.1-0.1-0.2-0.1-0.4-0.2c-0.5-0.3-1-0.6-1.5-1.1c-0.5-0.4-0.9-1-1.3-1.5c-0.1-0.1-0.2-0.2-0.3-0.4c-0.1-0.1-0.1-0.2-0.2-0.4
		c-0.1-0.2-0.2-0.4-0.3-0.6c-0.7-1.4-1-1.5-1.2-1.4c-0.1,0-0.4,0,0.5,1.8c0.2,0.4,0.5,1,0.9,1.5c0.4,0.5,0.8,1,1.3,1.5
		c1,0.9,2.2,1.5,3.2,1.7c0.5,0.1,1.5,0.2,2.4,0C187.2,43.8,187.8,43.3,187.7,43.2z M177.3,35.6c0.1-0.1,0.6,0.1,0.8,0.8
		c0.2,0.7-0.1,0.7-0.4,0.5c-0.3-0.4-0.4-0.7-0.5-0.9C177.2,35.7,177.2,35.6,177.3,35.6z"/>
</g>
<g>
	<path class="st0" d="M250.9,26.4c-1.3-0.9-2.5-1.8-3.9-2.4c-1.5-0.6-3-1-4.6-1.2c-3.5-0.4-7.2,0.1-10.5,1.5c-1,0.4-0.8,1.2-0.7,2.1
		c0.1,1.1,0.1,2.1,0.4,3.2c0.3,1.2,0.8,5.3,1.9,17.4c0.9,0.6,2.3,1.3,4.2,1.7c1.1,0.2,2.2,0.3,3.6,0.1c3.6-0.3,6.5-0.5,9.4-2.5
		c0.7-0.5,3.3-2.4,4.5-5.9C257.7,32.8,250.9,26.4,250.9,26.4C250.9,26.4,250.9,26.4,250.9,26.4z M242.9,36.9
		c-0.1,0.1-0.1,0.2-0.2,0.3c-0.1-0.7-0.2-1.4-0.4-2.1c0.3,0.1,0.8,0.1,0.8,0.5C243.2,36.1,243.1,36.5,242.9,36.9
		C242.8,37,243.1,36.4,242.9,36.9z"/>
	<path class="st1" d="M239.9,22.6c-0.9,0-1.8,0.1-2.7,0.2c-1.9,0.3-3.8,0.8-5.5,1.5c-0.4,0.2-0.7,0.6-0.6,1.1
		c0.8,7.2,1.6,14.3,2.4,21.5c0.8,0,6.8,0.2,11-0.5c1.7-0.3,2.9-0.7,3.9-1.2c1.1-0.5,1.9-1.1,2.2-1.3c3.3-2.5,4.8-7.2,3.5-11.5
		C252.4,26.2,247.1,22.6,239.9,22.6z M241.1,38.2l-1-5.2c1.4,0.2,2.4,0.8,2.8,1.8c0.3,0.6,0.3,1.4-0.1,2.1c-0.3,0.7-0.8,1.1-1.5,1.3
		C241.3,38.2,241.2,38.2,241.1,38.2z"/>
	<path class="st2" d="M253.1,32.5c-2-7.1-9.1-9.6-15.8-8.7c-1.8,0.2-3.6,0.7-5.2,1.4l0.9,7.7c0.5,4.2,1,8.5,1.6,12.7
		c3.5,0.1,6.3,0,8.3-0.2c1.8-0.2,3.4-0.4,5.2-1.3c0.7-0.3,1.4-0.7,2-1.2C253.2,40.6,254.2,36.2,253.1,32.5z M241.7,39.2
		c-0.5,0.1-1,0-1.5-0.1l-1.3-7.2c2-0.1,4.1,0.4,5.1,2.4C244.8,36.2,243.7,38.7,241.7,39.2z"/>
	<path class="st6" d="M233.3,35.5c2-0.3,4.1-0.4,6.2-0.5l-0.6-3.1c2-0.1,4.1,0.4,5.1,2.4c0.1,0.3,0.2,0.5,0.3,0.8
		c3.2,0.2,6.3,0.7,9.3,1.3c0.1-1.3,0-2.7-0.3-3.9c-2-7.1-9.1-9.6-15.8-8.7c-1.8,0.2-3.6,0.7-5.2,1.4l0.9,7.7L233.3,35.5z"/>
	<path class="st4" d="M237.4,23.8c-1.8,0.2-3.6,0.7-5.2,1.4l0.9,7.7l-0.2-6.4c1.5-0.6,3-1,4.6-1.2c0.8-0.1,1.7-0.2,2.5-0.2
		c6.4,0,11.4,2.8,12.9,8.1c0.3,0.9,0.4,1.4,0.6,3.3c0.1-1.3,0-2.7-0.3-3.9C251.1,25.4,244.1,22.9,237.4,23.8z"/>
	<path class="st4" d="M239,32.7l1.2,6.4c0,0,1.5,0.6,2.9-0.7c1.4-1.3,1-3.4,1-3.4s1.3,3.8-2.2,4.7c-0.8,0.2-2.1,0-2.1,0L239,32.7z"
		/>
	<path class="st6" d="M242.4,44.4c0,0.2,0.5,0.4,1.2,0.3c0.7,0,1.5-0.2,2-0.3c0.5-0.2,1.6-0.6,2.7-1.1c1.1-0.6,2-1.4,2.5-2
		c0.2-0.3,0.4-0.5,0.5-0.7c0.1-0.2,0.1-0.4,0.1-0.5c0-0.3-0.2-0.3-0.2-0.4c-0.1-0.1-0.2-0.1-0.4,0c-0.1,0.1-0.3,0.4-0.8,1
		c-0.5,0.6-1.3,1.2-2.1,1.7c-0.9,0.5-1.8,0.9-2.5,1.1c-0.4,0.1-1.1,0.3-1.7,0.5C242.9,44,242.4,44.2,242.4,44.4z M251.3,38
		c0.1,0,0.3,0,0.4,0.2c0.1,0.1,0.3,0.4,0.2,0.7c-0.2,0.7-0.7,0.4-0.8,0.1c-0.1-0.4-0.2-0.6-0.1-0.8C251,38.1,251.2,38,251.3,38z"/>
</g>
<g>
	<path class="st0" d="M263,46.4c0.1,0.2,0.3,0.5,0.5,0.7c0.1,0.2,0.3,0.5,0.5,0.7c0.2,0.3,0.5,0.4,0.9,0.4c0.2,0,0.5,0,0.7,0
		c1.2,0,2.3,0,3.5,0c2.4,0,4.8,0,7.3,0c0.4,0,0.8,0,1.1-0.4c0.4-0.4,0.3-0.9,0.3-1.4c0-1.3,0.1-2.5,0.1-3.8c0-0.2,0-0.4-0.1-0.5
		c-0.2-0.5-0.7-0.7-1.1-1c-0.5-0.4-1-0.7-1.6-0.7c-0.7,0-1.3,0-2,0c-0.2,0-0.5,0-0.7,0c-0.2,0-0.1-0.3-0.1-0.5c0-0.1,0-0.3,0-0.4
		c1.1,0,2.2,0.1,3.3,0.1c0.4,0,0.9,0.1,1.2,0c0.6-0.2,0.7-0.8,0.8-1.4c0.1-1.3,0.2-2.5,0.4-3.8c0-0.2,0-0.3,0-0.5
		c-0.1-0.6-0.5-0.7-0.9-1c-0.3-0.3-0.7-0.5-1-0.7c-0.2-0.2-0.5-0.2-0.7-0.2c-0.6,0-1.3,0-1.9-0.1c-0.2,0-1.1,0.1-1.1-0.1
		c0-0.1,0-0.6,0-0.6c0.1,0,0.3,0,0.4,0c0.6,0,1.2,0,1.8,0c1,0,2.1,0.1,3.2,0c1.4-0.2,1-2,1-2.9c0-1.3,0-2.6-0.1-3.8
		c0-0.6-0.2-1-0.7-1.4c-0.3-0.2-0.7-0.5-1-0.7c-0.3-0.2-0.5-0.3-0.8-0.3c-1.9,0.2-3.8,0.3-5.7,0.5c-2.6,0.2-5.3,0.4-7.9,0.7
		c-0.5,0-1.5,0-1.8,0.5c-0.2,0.4-0.1,1,0,1.4c0.5,5.1,1,10.2,1.5,15.3c0.1,1.3,0.3,2.6,0.4,3.9C262.7,44.9,262.6,45.9,263,46.4
		C263.1,46.4,262.9,46.2,263,46.4z"/>
	<path class="st1" d="M263.6,46.6h11.7c0.4,0,0.8-0.3,0.8-0.8l0.1-4.6c0-0.2-0.1-0.4-0.2-0.6c-0.1-0.2-0.3-0.2-0.6-0.2l-4.7-0.1
		l-0.1-2.4l4.5,0.2c0.4,0,0.8-0.3,0.8-0.7l0.4-4.4c0-0.2,0-0.4-0.2-0.6c-0.1-0.2-0.4-0.3-0.6-0.3l-4.9-0.2v-2.3h5.6
		c0.2,0,0.4-0.1,0.6-0.2c0.1-0.2,0.2-0.4,0.2-0.6l-0.1-6c0-0.2-0.1-0.4-0.3-0.6c-0.2-0.2-0.4-0.2-0.6-0.2l-14.8,1.3
		c-0.2,0-0.4,0.1-0.5,0.3c-0.1,0.2-0.2,0.4-0.2,0.6l2.1,21.7C262.8,46.3,263.2,46.6,263.6,46.6z"/>
	<polygon class="st2" points="276.3,22.8 276.4,28.8 270,28.8 270,32.6 275.7,32.9 275.2,37.2 269.9,37 270,41.1 275.4,41.2 
		275.3,45.8 263.6,45.8 261.5,24.1 	"/>
	<path class="st6" d="M263.5,37.1c1.8,0.2,3.5,0.3,5.4,0c1.3-0.2,2.7-0.5,4.4-1.1c0.7-0.2,1.5-0.5,2.1-0.7l0.2-2.4l-5.7-0.2v-3.8
		h6.4l-0.1-6l-14.8,1.3l1.3,12.9C263,37,263.2,37,263.5,37.1z"/>
	<path class="st4" d="M269.7,33l5.6,0.3c0,0,0,0.7,0.1,2l0.2-2.4l-5.7-0.2V29L269.7,33z"/>
	<polygon class="st4" points="262.1,24.9 275.8,23.6 276.4,28.8 276.3,22.8 261.5,24.1 262.3,32.2 	"/>
	<polygon class="st4" points="269.9,37 270,41.1 275.4,41.2 275.4,43 275.1,41.6 269.6,41.4 	"/>
	<path class="st6" d="M274.3,45.5c0-0.3-2.7-0.6-4.1-0.7l-5.3-0.3l-0.1-1.8c-0.1-1.8-0.5-2-0.6-2c-0.2,0-0.4-0.1-0.2,2l0.2,2.5
		l6,0.4C271.2,45.7,274.3,45.8,274.3,45.5z M264,38.4c0.1-0.1,0.6,0.2,0.6,1c0,0.8-0.4,0.7-0.5,0.4C263.6,38.9,263.8,38.5,264,38.4z
		"/>
</g>
<g>
	<path class="st0" d="M285.3,47.4c0.5,0.8,1.9,0.6,2.6,0.6c1.4,0.1,2.8,0.2,4.3,0.2c0.5,0,1,0.1,1.6,0.1c0.4,0,0.9,0.1,1.2-0.3
		c0.4-0.3,0.4-0.8,0.4-1.2c0-0.6,0-1.1,0.1-1.7c0.1-1.6,0.1-3.2,0.2-4.8c0.1,0,0.4,0,0.4,0.1c0,0.2,0,0.3,0.1,0.5
		c0.1,0.6,0.1,1.3,0.2,1.9c0.1,0.7,0.2,1.4,0.2,2.1c0,0.3,0,0.7,0.1,1c0.1,0.2,0.2,0.4,0.3,0.6c0.3,0.4,0.5,0.7,0.7,0.9
		c0.5,0.6,0.8,0.8,1.4,0.8c1.2-0.1,2.4-0.2,3.7-0.2c1-0.1,1.9-0.1,2.9-0.2c0.7,0,1.2-0.7,1-1.4c0-0.1-0.1-0.3-0.1-0.4
		c-0.5-1.8-0.9-3.6-1.4-5.5c-1.4-5.3-2.7-10.5-4.1-15.8c-0.2-0.7-0.3-1.3-0.5-2c0-0.1-0.1-0.2-0.1-0.4c-0.1-0.5-0.6-0.8-1-1
		c-0.4-0.3-0.9-0.8-1.4-0.8c-0.3,0-0.6,0-0.9,0c-1.3,0-2.6-0.1-3.9-0.1c-1.3,0-2.6-0.1-3.9-0.1c-0.6,0-1.6-0.2-1.8,0.7
		c-0.2,1.4-0.4,2.8-0.6,4.2c-0.7,5.5-1.5,11-2.2,16.4c-0.1,1.1-0.3,2.2-0.4,3.3c0,0.2,0,0.3-0.1,0.5c-0.1,0.4,0.3,0.8,0.5,1.1
		C284.8,46.8,285,47.1,285.3,47.4z"/>
	<path class="st1" d="M284.9,46.3l7.9,0.4c0,0,0,0,0,0c0.2,0,0.4-0.1,0.5-0.2c0.2-0.1,0.3-0.3,0.3-0.6l0.3-7.3l1.8,0.1l0.8,7
		c0,0.4,0.4,0.7,0.8,0.7l6.8-0.4c0.2,0,0.5-0.1,0.6-0.3c0.1-0.2,0.2-0.4,0.1-0.7l-6.2-24c-0.1-0.4-0.4-0.6-0.8-0.6l-9.7-0.2
		c-0.4,0-0.8,0.3-0.8,0.7l-3.3,24.5c0,0.2,0,0.4,0.2,0.6C284.5,46.2,284.7,46.3,284.9,46.3z M295,31.8l-0.7,0l0.1-3.2h0.2L295,31.8z
		"/>
	<path class="st2" d="M297.4,45.7l6.8-0.4l-6.2-24l-9.7-0.2l-3.3,24.5l7.9,0.4l0.3-8.1l3.3,0.3L297.4,45.7z M293.4,32.6l0.2-4.8h1.7
		l0.5,4.8L293.4,32.6z"/>
	<path class="st6" d="M287.9,35.8c0.8,0.3,3,0.9,4.5,1.1c0.8,0.2,1.7,0.3,2.5,0.4c0.3,0,0.7,0.1,1,0.1c0.1,0,0.2,0,0.2,0
		c0.1,0,0.2,0,0.3,0c1.9,0.1,3.8,0,5.7-0.2l-4.1-16l-9.7-0.2l-1.9,14.2C286.8,35.4,287.3,35.6,287.9,35.8z M293.6,27.8h1.7l0.5,4.8
		l-2.5,0L293.6,27.8z"/>
	<polygon class="st4" points="295.4,28 295.9,32.6 293.4,32.6 293.6,28 293.3,33 296.1,33.1 	"/>
	<path class="st4" d="M288.7,22.2l8.9,0.2c0,0,2.8,9.2,3.1,9.2l-2.7-10.3l-9.7-0.2l-1.4,10.7C287,31.8,288.7,22.2,288.7,22.2z"/>
	<path class="st6" d="M287.2,44.8c0,0.3,2,0.6,3,0.6c0.3,0,0.7,0,1.2,0c0.1,0,0.3,0,0.4,0c0.1,0,0.1,0,0.2,0h0.1c0,0,0.1,0,0.1,0
		l0,0l0,0c0.1,0,0.1,0,0.2-0.1c0,0,0,0,0.1-0.2c0-0.1,0-0.9-0.4-0.1l0,0l0,0c0,0,0,0,0.1-0.1c0.1,0,0.2-0.1,0.2,0c0,0,0,0.1,0,0.1v0
		v-0.1l0-0.2c0-0.1,0-0.3,0-0.4c0.1-1.1,0.1-2.3,0.2-2.9c0.1-1.3-0.2-1.5-0.4-1.5c-0.2,0-0.4-0.1-0.5,1.5c0,0.8-0.1,1.9-0.2,2.9
		c0,0.3,0,0.5,0,0.8v0c0,0,0,0,0,0.1c0,0.1,0,0.1,0,0.1c0,0.1,0,0,0,0.1c0.2-0.1-0.3,0.2,0.3-0.2l0,0c0,0,0,0,0,0c0,0,0-0.1,0-0.1
		l0-0.2c0-0.1,0-0.1,0-0.1h0h0l0,0h-0.2c-0.1,0-0.2,0-0.4,0c-0.5,0-0.9,0-1.3,0C289.4,44.5,287.2,44.5,287.2,44.8z M292.4,38.1
		c0.1,0,0.6,0.2,0.5,0.8c0,0.6-0.4,0.5-0.6,0.2C292,38.4,292.2,38.1,292.4,38.1z"/>
	<path class="st6" d="M297.8,45.1c0,0.3,2.1,0.3,3.2,0.2c0.3,0,0.7-0.1,1.2-0.1c0.3,0,0.6,0,1-0.1c0.1,0,0.3,0,0.4,0l0.2,0
		c0,0,0-0.1,0-0.2c-0.1-0.3-0.1-0.5-0.2-0.8c-0.3-1.2-0.6-2.3-0.8-3c-0.4-1.4-0.7-1.4-0.9-1.4c-0.2,0-0.4,0,0,1.6
		c0.2,0.8,0.5,1.9,0.7,3l0,0.1c0,0,0,0,0,0c-0.2,0-0.4,0-0.5,0c-0.5,0-1,0.1-1.3,0.1C300.2,44.5,297.8,44.8,297.8,45.1z M301.5,38
		c0.1-0.1,0.6,0.1,0.7,0.7c0.1,0.6-0.3,0.6-0.5,0.4C301.2,38.5,301.3,38.1,301.5,38z"/>
</g>
<g>
	<path class="st0" d="M332,24.7c-1.3-0.9-2.5-1.8-3.9-2.4c-1.5-0.6-3-1-4.6-1.2c-3.5-0.4-7.2,0.1-10.5,1.5c-1,0.4-0.8,1.2-0.7,2.1
		c0.1,1.1,0.1,2.1,0.4,3.2c0.3,1.2,0.8,5.3,1.9,17.4c0.9,0.6,2.3,1.3,4.2,1.7c1.1,0.2,2.2,0.3,3.6,0.1c3.6-0.3,6.5-0.5,9.4-2.5
		c0.7-0.5,3.3-2.4,4.5-5.9C338.8,31.1,332,24.7,332,24.7C332,24.7,332,24.7,332,24.7z M324,35.2c-0.1,0.1-0.1,0.2-0.2,0.3
		c-0.1-0.7-0.2-1.4-0.4-2.1c0.3,0.1,0.8,0.1,0.8,0.5C324.3,34.4,324.2,34.8,324,35.2C323.9,35.3,324.2,34.8,324,35.2z"/>
	<path class="st1" d="M321,20.9c-0.9,0-1.8,0.1-2.7,0.2c-1.9,0.3-3.8,0.8-5.5,1.5c-0.4,0.2-0.7,0.6-0.6,1.1
		c0.8,7.2,1.6,14.3,2.4,21.5c0.8,0,6.8,0.2,11-0.5c1.7-0.3,2.9-0.7,3.9-1.2c1.1-0.5,1.9-1.1,2.2-1.3c3.3-2.5,4.8-7.2,3.5-11.5
		C333.5,24.5,328.2,20.9,321,20.9z M322.2,36.5l-1-5.2c1.4,0.2,2.4,0.8,2.8,1.8c0.3,0.6,0.3,1.4-0.1,2.1c-0.3,0.7-0.8,1.1-1.5,1.3
		C322.4,36.5,322.3,36.5,322.2,36.5z"/>
	<path class="st2" d="M334.2,30.8c-2-7.1-9.1-9.6-15.8-8.7c-1.8,0.2-3.6,0.7-5.2,1.4l0.9,7.7c0.5,4.2,1,8.5,1.6,12.7
		c3.5,0.1,6.3,0,8.3-0.2c1.8-0.2,3.4-0.4,5.2-1.3c0.7-0.3,1.4-0.7,2-1.2C334.3,38.9,335.3,34.5,334.2,30.8z M322.8,37.5
		c-0.5,0.1-1,0-1.5-0.1l-1.3-7.2c2-0.1,4.1,0.4,5.1,2.4C325.9,34.5,324.8,37,322.8,37.5z"/>
	<path class="st6" d="M314.3,33.8c2-0.3,4.1-0.4,6.2-0.5l-0.6-3.1c2-0.1,4.1,0.4,5.1,2.4c0.1,0.3,0.2,0.5,0.3,0.8
		c3.2,0.2,6.3,0.7,9.3,1.3c0.1-1.3,0-2.7-0.3-3.9c-2-7.1-9.1-9.6-15.8-8.7c-1.8,0.2-3.6,0.7-5.2,1.4l0.9,7.7L314.3,33.8z"/>
	<path class="st4" d="M318.4,22.1c-1.8,0.2-3.6,0.7-5.2,1.4l0.9,7.7l-0.2-6.4c1.5-0.6,3-1,4.6-1.2c0.8-0.1,1.7-0.2,2.5-0.2
		c6.4,0,11.4,2.8,12.9,8.1c0.3,0.9,0.4,1.4,0.6,3.3c0.1-1.3,0-2.7-0.3-3.9C332.2,23.7,325.1,21.2,318.4,22.1z"/>
	<path class="st4" d="M320.1,31l1.2,6.4c0,0,1.5,0.6,2.9-0.7c1.4-1.3,1-3.4,1-3.4s1.3,3.8-2.2,4.7c-0.8,0.2-2.1,0-2.1,0L320.1,31z"
		/>
	<path class="st6" d="M323.4,42.7c0,0.2,0.5,0.4,1.2,0.3c0.7,0,1.5-0.2,2-0.3c0.5-0.2,1.6-0.6,2.7-1.1c1.1-0.6,2-1.4,2.5-2
		c0.2-0.3,0.4-0.5,0.5-0.7c0.1-0.2,0.1-0.4,0.1-0.5c0-0.3-0.2-0.3-0.2-0.4c-0.1-0.1-0.2-0.1-0.4,0c-0.1,0.1-0.3,0.4-0.8,1
		c-0.5,0.6-1.3,1.2-2.1,1.7c-0.9,0.5-1.8,0.9-2.5,1.1c-0.4,0.1-1.1,0.3-1.7,0.5C324,42.4,323.4,42.5,323.4,42.7z M332.4,36.3
		c0.1,0,0.3,0,0.4,0.2c0.1,0.1,0.3,0.4,0.2,0.7c-0.2,0.7-0.7,0.4-0.8,0.1c-0.1-0.4-0.2-0.6-0.1-0.8
		C332.1,36.4,332.3,36.3,332.4,36.3z"/>
</g>
<g>
	<path class="st0" d="M734.5,37.6c1.2-0.5,1.8-0.2,2-0.1c0.9,0.5,0.9,1.9,0.9,3.3c0,1.3,0,2.2-0.4,3c0,0-0.1,0.1-0.1,0.1
		c-1,1.3-4.6,1.5-10.4,1.1c-2.8-0.2-1.3-0.2-3.7-0.3c-1.4-0.1-2-0.1-2.9-0.4c-0.8-0.3-1.6-0.5-2.2-1.2c-1.4-1.5-1-3.8-0.9-4.3
		c0.2-0.9,0.5-1.9,2.4-4.3c1-1.2,2.3-2.9,4.2-4.7c0.4-0.4,1.1-1.1,1.9-1.9c1-1,1.3-1.3,1.3-1.5c-0.2-0.5-2.4-0.1-3.2,0.1
		c-6.2,1.2-6.7,1-7.1,0.9c-2-1-2.3-5.8-0.8-7c1-0.7,3.1-0.3,4.6-0.6c0.1,0,0.6-0.2,1.3-0.3c0.2,0,0.4-0.1,0.6-0.1
		c1.6-0.2,2.4-0.4,3.3-0.2c2.1,0.4,3.9,1.8,5,3.6c1.1,1.8,1.7,4,0.9,6.1c-0.5,1.4-1.2,2.3-2.5,3.8c-2,2.3-3.6,3.2-3.4,4.2
		c0.1,0.3,0.4,0.6,1.2,1C729.5,39,732.9,38.1,734.5,37.6z"/>
	<path class="st1" d="M727,44.4c-2.1,0-4.2,0.1-6.3-0.4c-0.4-0.1-1.4-0.3-2.4-1.2c-0.4-0.3-0.8-0.7-1.1-1.4c-0.2-0.7-0.1-1.3,0-1.8
		c0.5-1.8,1.5-3.3,2.6-4.8c0.7-0.9,1.6-2,2.7-3.2c1-0.9,1.8-1.6,2.3-2.2c0.5-0.5,0.7-0.8,0.8-0.9c0.7-0.8,1.8-2.3,1.4-2.8
		c-0.2-0.3-1.3-0.1-3.5,0.3c-2.4,0.5-3.7,0.7-3.8,0.8c-0.7,0.2-1.3,0.5-2,0.3c-0.6-0.2-1-0.6-1.3-0.9c-0.1-0.1-0.5-0.5-0.9-1.2
		c-0.6-1.1-1.1-3.4-0.1-4.6c0.4-0.5,0.9-0.6,3.4-0.9c3.1-0.4,4.7-0.6,5.8-0.6c2.4-0.1,3.6-0.1,5.2,0.3c1.8,0.4,3.9,1,4.7,2.7
		c0.5,1.2,0.1,2.3-0.2,3.5c0,0-0.7,2.1-4.8,6.3c-0.1,0.1-0.1,0.1-0.1,0.1c-0.2,0.1-0.3,0.2-1.6,1.2c-1.7,1.4-2.6,2-2.9,2.6
		c-0.2,0.4-0.8,1.4-0.4,2.2c0.5,1.2,2.7,1.3,3.5,1.4c4.8,0.2,7-2.7,8.5-1.7c1.3,0.9,1.4,4.2-0.1,5.9c-0.2,0.2-0.4,0.3-0.5,0.4
		C733.7,45.2,731.1,44.5,727,44.4z"/>
	<path class="st2" d="M724.6,30.8c0.2-0.1,0.3-0.2,0.4-0.3c0.3-0.3,1.8-1.9,2.6-3c0.4-0.6,1.1-1.4,0.8-2c-0.3-0.7-2-0.5-4.3-0.2
		c-0.6,0.1-1.3,0.2-2.9,0.4c-1,0.2-1.5,0.2-1.6,0.3c-0.5,0.2-0.8,0.3-1.2,0.2c-0.3-0.1-0.6-0.3-0.8-0.5c-0.1-0.1-0.6-0.6-1-1.6
		c-0.3-0.8-0.5-1.2-0.3-1.7c0.2-0.5,0.8-0.6,1.5-0.9c2-0.7,1.7-1,3.1-1.4c1.3-0.4,2.3-0.5,3.8-0.5c2.8-0.1,4.6-0.2,6.4,0.8
		c0.8,0.4,2.2,1.1,2.6,2.6c0.3,1-0.1,1.9-0.4,2.9c-0.6,1.5-1.5,2.5-1.9,2.9c-0.4,0.4-0.5,0.4-1.3,1c-1.2,0.9-2,1.8-3.8,3.6
		c-0.7,0.7-1.1,1.1-1.3,1.4c-1,1.2-2,2.4-1.7,3.4c0.4,1.3,3.2,1.9,6.9,1.6c0.5,0,1.4,0,2.3-0.2c1.6-0.4,2.3-1,3-0.6
		c0.5,0.3,0.6,0.9,0.8,1.8c0.1,0.4,0.3,1.4,0.1,2c-0.5,1.3-2.9,0.7-9,1.2c0,0-1.3,0.1-3.9,0.1c-1.4,0-2.1-0.1-2.9-0.4
		c-0.6-0.2-1.5-0.6-2.1-1.5c-0.8-1.2-0.5-2.7-0.4-3c0.2-0.9,0.7-1.5,1.1-2.1c0.6-0.7,1.2-1.3,1.7-2.4
		C720.9,34.4,720.3,33.9,724.6,30.8z"/>
	<path class="st6" d="M725.3,29.7c0.6-0.4,1.5-1,2.2-2.2c0.5-0.8,1-1.5,0.8-2c-0.2-0.5-1.1-0.6-4.3-0.2c-1.4,0.2-3.3,0.5-5.6,1
		c-0.2-0.1-1.5-0.7-1.8-2.1c-0.4-1.8,1.2-3.2,1.3-3.2c0.2-0.2,0.8-0.5,4-1c0.7-0.1,1.6-0.2,2.8-0.3c3-0.1,7.5-0.3,8.8,2
		c0.4,0.7,0.3,1.3,0.3,2.1c-0.2,3.3-2.9,5.4-3.7,6c-0.6-0.1-1.2-0.2-1.9-0.2C727.1,29.5,726.2,29.6,725.3,29.7z"/>
	<g>
		<path class="st4" d="M733.7,23c-0.3-0.4-0.8-0.9-1.5-1.4c-2.4-1.7-5-1.5-9-1.1c-4.6,0.5-5.6,1.5-6,2.1c-0.4,0.6-0.6,1.2-0.7,1.6
			c-0.7-1.5-0.5-2.3-0.3-2.6c0.2-0.3,0.7-1.2,6.5-1.8c2.1-0.2,3.1-0.3,4.6-0.2c2.2,0.2,5.2,0.4,6.1,2.2
			C733.7,22.2,733.8,22.7,733.7,23z"/>
	</g>
	<path class="st4" d="M726.7,29c-0.8,1-1.2,1.3-2.7,2.7c-1.5,1.4-2.5,2.7-3.2,3.4c-1.5,1.8-2.3,3.1-2.4,3c-0.1-0.1,0.5-1.1,1-1.9
		c0.8-1.2,1.5-2.1,2.2-2.8c1.5-1.7,2.2-2.2,3.8-3.8c0.7-0.6,1.6-1.6,2.7-2.9C727.8,27.3,727.3,28.1,726.7,29z"/>
	<path class="st4" d="M723.7,38.8c-0.2-0.3-0.3-0.7-0.3-0.7c-0.3-1.2,0.8-2.4,1-2.6c-0.6,0.7-0.8,1.7-0.5,2.4
		c0.2,0.4,0.5,0.7,0.7,0.8c0.4,0.2,0.9,0.3,1.5,0.5c1.3,0.3,2.4,0.4,3.3,0.4C729,39.8,724.8,40.3,723.7,38.8z"/>
	<path class="st6" d="M728,43.2c-0.3,0-1.2,0.1-3.1,0.1c-1.7,0-2,0.1-2.6,0c-1.2-0.1-1.9-0.2-2.6-0.7c-0.7-0.5-1-1.3-1.2-1.7
		c0.8,0.7,1.5,1.1,2.1,1.3c0.1,0,0.3,0.1,1.2,0.2c0.6,0.1,1.3,0.2,2.4,0.3c0.7,0.1,1.9,0.2,3.6,0.1c0.9,0,2-0.1,3.4-0.2
		C730.4,42.7,729.3,43,728,43.2z M718.4,39.4C718.4,39.4,718.4,39.4,718.4,39.4c-0.1,0.4,0,0.9,0.1,0.9c0.1,0,0.3-0.2,0.3-0.2
		c0.2-0.2,0.1-0.4,0.1-0.7c0-0.7,0.1-1,0-1C718.8,38.3,718.5,38.8,718.4,39.4z"/>
</g>
<g>
	<path class="st0" d="M750.6,19.7c-3.8,0-7.5,1.8-9.6,5c-1,1.5-1.6,3.3-1.7,5.1c-0.1,2.3,0.6,4.5,1.9,6.4c0.6,0.8,1.1,1.7,1.8,2.4
		c0.7,0.7,1.5,1.3,2.3,1.7c1.8,1,3.9,1.6,6.1,1.6c3.8,0.1,7.7-1.3,10.2-4.3c2.5-3,3-7.3,1.3-10.9c-0.5-1-1.1-1.8-1.8-2.6
		c-0.8-0.9-1.9-1.5-2.9-2.2c-1.9-1.3-4.2-2-6.4-2.2C751.4,19.7,751,19.7,750.6,19.7z M749.3,34.5c-0.5,0-1.1-0.1-1.6-0.3
		c-0.5-0.2-0.8-0.7-1-1.2c-0.4-0.9-0.4-1.8-0.1-2.7c0.6-1.7,2.4-2.8,4.2-2.7c0.5,0,1,0.1,1.4,0.3c0.4,0.2,1.1,0.5,1.2,0.9
		c0.4,0.9,0.4,1.9,0,2.9C752.8,33.4,751.1,34.5,749.3,34.5z"/>
	<path class="st1" d="M739.2,30.3c0,5.7,4.9,10,11.4,10c6.5,0,11.7-4.5,11.8-10.2c0-2.8-0.9-5.2-2.7-7.1c-2.1-2.2-5.4-3.4-9.1-3.4
		C744.3,19.7,739.2,24.5,739.2,30.3z M749.3,26.2c2.4,0,4.4,1.9,4.4,4.2c0,2.3-2,4.2-4.4,4.2c-2.4,0-4.4-1.9-4.4-4.2
		C744.9,28,746.9,26.2,749.3,26.2z"/>
	<path class="st2" d="M750.6,20.4c-5.9,0-10.6,4.4-10.6,9.9c0,5.5,4.8,9.3,10.6,9.3c5.9,0,11-4,11-9.4
		C761.7,23.8,756.4,20.4,750.6,20.4z M749.3,35.3c-2.8,0-5.1-2.2-5.1-4.9c0-2.7,2.3-4.9,5.1-4.9c2.8,0,5.1,2.2,5.1,4.9
		C754.4,33.1,752.2,35.3,749.3,35.3z"/>
	<g class="st3">
		<path class="st2" d="M740.6,32.4c1.6,0.4,3.2,0.9,4.8,1.1c-0.8-0.9-1.2-2-1.2-3.2c0-2.7,2.3-4.9,5.1-4.9c2.8,0,5.1,2.2,5.1,4.9
			c0,0.9-0.2,1.7-0.7,2.4c2.6-0.9,5.2-2,7.8-3c-0.1-6.1-5.3-9.3-11-9.3c-5.9,0-10.6,4.4-10.6,9.9c0,0.7,0.1,1.3,0.2,1.9
			C740.3,32.3,740.4,32.4,740.6,32.4z"/>
	</g>
	<g>
		<path class="st4" d="M750.6,21.3c5.5,0,10.4,2.9,11,8.5c0,0,0,0,0.1,0c-0.1-6.1-5.3-9.3-11-9.3c-5.9,0-10.6,4.4-10.6,9.9
			c0,0.1,0,0.3,0,0.4C740.2,25.5,744.8,21.3,750.6,21.3z"/>
	</g>
	<path class="st4" d="M744.6,32.3c0,0,1.4,3,4.7,3c3.3,0,4.6-2.9,5-4c0,0-0.3,4.6-5.3,4.3C745.3,35.4,744.6,32.3,744.6,32.3z"/>
	<path class="st5" d="M747.1,38.2c-0.1,0.1,0.6,0.5,1.4,0.7c0.9,0.2,2,0.3,2.7,0.3c0.8,0,2.3-0.2,3.8-0.9c0.8-0.3,1.5-0.7,2.1-1.1
		c0.6-0.4,1.1-0.8,1.5-1.2c0.7-0.6,0.9-1.1,1.1-1.4c0.1-0.3,0-0.4,0-0.4c-0.1-0.1-0.1-0.1-0.3,0c-0.1,0.1-0.2,0.2-0.4,0.4
		c-0.1,0.1-0.2,0.2-0.4,0.4c-0.1,0.1-0.3,0.3-0.5,0.5c-0.2,0.2-0.4,0.4-0.6,0.6c-0.2,0.2-0.5,0.4-0.8,0.6c-0.6,0.4-1.2,0.7-1.8,1
		c-1.3,0.6-2.7,0.8-3.6,0.8c-0.3,0-0.6,0-1.1,0c-0.2,0-0.4,0-0.7,0c-0.2,0-0.5,0-0.7-0.1C747.9,38.3,747.2,38.1,747.1,38.2z
		 M760.6,32.2c0.1,0,0.2,0.1,0.2,0.3c0,0.1,0,0.1,0,0.2c0,0.1,0,0.1,0,0.2c0,0.2-0.1,0.3-0.2,0.5c-0.4,0.7-0.7,0.4-0.6,0.1
		c0.1-0.2,0.1-0.5,0.1-0.6c0-0.2,0.1-0.3,0.1-0.4C760.4,32.3,760.5,32.2,760.6,32.2z"/>
</g>
<g>
	<path class="st0" d="M767,42.5c0.1,0.2,0.3,0.5,0.5,0.7c0.1,0.2,0.3,0.5,0.5,0.6c0.2,0.1,0.4,0.2,0.6,0.2c0.5,0.1,1,0.2,1.5,0.3
		c1.3,0.2,2.6,0.5,3.8,0.7c0.6,0.1,1.3,0,1.6-0.7c0.1-0.3,0.1-0.7,0.1-1c0.2-1.4,0.3-2.7,0.5-4.1c0.1-0.8,0.2-1.5,0.3-2.3
		c0.2,0.5,0.4,0.9,0.6,1.4c0.3,0.7,0.8,1.4,1.3,2c0.6,0.7,1.6,0.4,2-0.4c0.2-0.5,0.4-1,0.6-1.5c0.1,0.4,0.1,0.9,0.2,1.3
		c0.1,0.7,0.1,1.4,0.2,2c0,0.1,0,0.2,0,0.4c0,0.3,0.2,0.5,0.4,0.8c0.1,0.1,0.9,1.3,1.1,1.4c0.2,0.1,0.5,0.2,0.7,0.1
		c2.4-0.2,4.8-0.4,7.1-0.6c0.9-0.1,2.1-0.1,1.9-1.4c-0.1-0.5-0.1-1-0.2-1.5c-0.3-2.5-0.6-4.9-0.9-7.4c-0.3-2.8-0.7-5.7-1-8.5
		c-0.1-1-0.2-1.9-0.3-2.9c0-0.4,0-0.9-0.2-1.3c-0.2-0.5-0.7-0.8-1.2-1.1c-0.3-0.2-0.7-0.6-1.2-0.7c-0.3,0-0.7,0-1-0.1
		c-1.4-0.1-2.8-0.2-4.2-0.3c-0.7,0-2.3-0.5-2.6,0.4c-0.4,1.1-0.8,2.2-1.2,3.3c-0.1,0.2-0.2,0.5-0.3,0.7c-0.1-0.5-0.3-1-0.5-1.5
		c-0.1-0.5-0.2-1.2-0.6-1.6c-0.2-0.2-0.4-0.4-0.6-0.5c-0.2-0.2-0.5-0.4-0.7-0.5c-0.2-0.2-0.6-0.4-0.9-0.4c-0.5,0-1.1,0-1.6,0
		c-0.7,0-1.4,0-2.1,0c-0.5,0-1.1,0-1.3,0.6c-0.1,0.4-0.1,0.8-0.2,1.2c-0.9,5.2-1.7,10.4-2.5,15.5c-0.2,1.3-0.4,2.6-0.6,3.8
		C766.7,41,766.4,41.8,767,42.5C767.1,42.6,766.9,42.4,767,42.5z"/>
	<path class="st1" d="M767.3,42.4l5.7,1.1c0,0,0.1,0,0.1,0c0.2,0,0.3-0.1,0.5-0.2c0.2-0.1,0.3-0.3,0.3-0.6l1.1-9l2.2,5
		c0.1,0.3,0.4,0.5,0.7,0.5h0c0.3,0,0.6-0.2,0.7-0.5l1.8-4.3l0.9,7.8c0,0.4,0.4,0.7,0.9,0.7l8.1-0.6c0.2,0,0.4-0.1,0.6-0.3
		c0.1-0.2,0.2-0.4,0.2-0.6l-2.5-21.4c0-0.4-0.4-0.7-0.8-0.7l-7-0.4c-0.4,0-0.7,0.2-0.8,0.5l-2.1,5.9l-1.8-5.8
		c-0.1-0.3-0.4-0.6-0.8-0.6H771c-0.4,0-0.7,0.3-0.8,0.7l-3.6,21.7C766.5,41.9,766.8,42.4,767.3,42.4z"/>
	<polygon class="st2" points="773.1,42.7 767.4,41.6 771,19.9 775.3,19.9 777.8,28 780.7,19.8 787.7,20.2 790.2,41.6 782.1,42.3 
		780.9,31.4 777.9,38.5 774.5,30.7 	"/>
	<path class="st6" d="M770.4,29.5c3.4,0.8,6.8,1.8,10.2,2.1c0.1,0,0.2,0,0.2,0l0.1-0.2l0,0.2c2.7,0.2,5.4-0.1,8-0.7l-1.2-10.6
		l-7-0.4l-2.9,8.2l-2.5-8.1H771l-1.5,9.4C769.7,29.3,770.1,29.4,770.4,29.5z"/>
	<path class="st4" d="M787.7,20.2l-7-0.4l-2.9,8.2l-2.5-8.1H771l-1,6.2l1.4-5.4h3.6l2.8,8.3l3.3-8.4l6.3,0.7c0,0,1.5,9.6,1.7,9.5
		L787.7,20.2z"/>
	<path class="st7" d="M769.2,41.3c0,0.2,0.4,0.4,1,0.5c0.3,0.1,0.6,0.2,1,0.2c0.2,0,0.3,0.1,0.5,0.1c0.2,0,0.2,0,0.6,0.1l0.7,0.1
		l0.5-5.8c0.1-1.3-0.2-1.5-0.4-1.5c-0.2,0-0.4-0.1-0.5,1.4l-0.4,4.9c-0.2,0-0.4-0.1-0.7-0.1c-0.3,0-0.7-0.1-1-0.1
		C769.8,41.2,769.2,41.2,769.2,41.3z M773.1,33.5c0.2,0,0.5,0.3,0.5,0.8c-0.1,0.6-0.5,0.4-0.6,0.2C772.7,33.8,772.9,33.5,773.1,33.5
		z"/>
	<path class="st7" d="M783.6,41.4c0,0.3,2.2,0.2,3.4,0l2.6-0.4l-0.4-4.6c-0.1-1.5-0.4-1.6-0.6-1.6c-0.2,0-0.4-0.1-0.2,1.7l0.3,3.8
		l-1.8,0.2C786,40.7,783.6,41.1,783.6,41.4z M788.4,33c0.1,0,0.6,0.2,0.6,0.8c0,0.6-0.4,0.6-0.5,0.3C788.1,33.4,788.3,33.1,788.4,33
		z"/>
</g>
<g>
	<path class="st0" d="M796.2,43.4c0.1,0.2,0.3,0.5,0.5,0.7c0.1,0.2,0.3,0.5,0.5,0.6c0.5,0.4,1.3,0.4,1.9,0.5
		c1.3,0.2,2.5,0.3,3.8,0.4c2.2,0.1,4.5,0.1,6.6-0.6c2.5-0.7,4.6-2.4,5.1-5.1c0.3-1.5,0.1-3-0.4-4.5c-0.4-1-0.9-1.8-1.6-2.6
		c-0.8-0.9-1.8-1.5-2.7-2.1c1.1-1.8,1.4-4,0.4-5.9c-1-1.8-2.7-2.9-4.3-4c-1.8-1.3-4.2-1.5-6.4-1.2c-0.6,0.1-1.2,0.2-1.8,0.4
		c-0.5,0.1-1.4,0.3-1.7,0.8c-0.1,0.2-0.1,0.4-0.1,0.5c0,1.7,0,3.3,0,5c0,5-0.1,10-0.1,14.9C795.8,42,795.6,42.8,796.2,43.4
		C796.2,43.5,796.1,43.3,796.2,43.4z M802.6,27.9c0-0.2,0-0.3,0-0.5c0.2,0,0.2,0,0.2,0.2C802.7,27.7,802.6,27.8,802.6,27.9z
		 M804.5,37.3c-0.1,0.5-0.7,0.8-1.1,1c0-0.5-0.1-1-0.1-1.6c0.3,0,0.6,0,0.8,0.1C804.4,36.9,804.7,37,804.5,37.3
		C804.4,37.7,804.6,37.2,804.5,37.3z"/>
	<path class="st1" d="M796.4,43.3c1.8,0.4,3.6,0.6,5.2,0.7c0.6,0,1.1,0.1,1.7,0.1c8,0,9.8-3.7,9.9-6.7c0.1-3.1-1.9-6.5-5.2-7.5
		c0.7-0.9,1.4-2.3,1.3-3.9c-0.1-1.9-1.3-3.7-3.6-5.2c-1.6-1.1-3.7-1.5-6.1-1.1c-1,0.1-2.1,0.4-3.2,0.8c-0.3,0.1-0.5,0.4-0.5,0.7
		l-0.2,21.5C795.8,43,796,43.3,796.4,43.3z M801,25.8c1.8,0.1,1.8,1,1.8,1.4c0,0.7-0.5,1.3-1.5,1.5L801,25.8z M804.5,37.3
		c-0.2,0.6-1.1,1.1-2.5,1.3c-0.1-1.1-0.2-2.2-0.3-3.4c0.9,0,1.6,0.2,2,0.5C804.3,36.1,804.7,36.8,804.5,37.3z"/>
	<path class="st2" d="M806.6,30.3c0,0,5.3-4.6-1.2-9c-1.6-1.1-3.5-1.3-5.6-1c-1,0.2-2,0.4-3,0.8c0,5.1-0.1,15.6-0.2,21.5
		c1.4,0.3,3.2,0.5,5.1,0.7c5,0.3,10.6-0.6,10.8-5.9C812.5,34.1,810.1,30.6,806.6,30.3z M803.5,27.2c0,1.7-1.7,2.3-3,2.5
		c-0.1-1.6-0.3-3.2-0.4-4.6C801.6,25,803.5,25.3,803.5,27.2z M801.3,39.5c-0.1-1.6-0.3-3.3-0.4-5c1.1-0.1,2.4,0,3.3,0.6
		C805.7,36.2,806.5,39.1,801.3,39.5z"/>
	<g class="st8">
		<path class="st2" d="M803.1,31.5c2.4-0.1,4.8,0,7.1,0.7c0,0,0,0,0.1,0c-1-1-2.3-1.7-3.8-1.8c0,0,5.3-4.6-1.2-9
			c-1.6-1.1-3.5-1.3-5.6-1c-1,0.2-2,0.4-3,0.8c0,2.7-0.1,6.9-0.1,11.2C798.8,31.9,800.9,31.6,803.1,31.5z M803.5,27.2
			c0,1.7-1.7,2.3-3,2.5c-0.1-1.6-0.3-3.2-0.4-4.6C801.6,25,803.5,25.3,803.5,27.2z"/>
	</g>
	<g>
		<path class="st9" d="M805.1,22.3c1.9,1.3,2.9,2.8,3,4.3c0.1,2.3-1.8,4-1.9,4l0,0c0.5,0,1.1,0.1,1.6,0.2c0.6,0.1,1.1,0.3,1.7,0.5
			c-0.8-0.6-1.8-1-2.9-1.1c0,0,5.3-4.6-1.2-9c-1.6-1.1-3.5-1.3-5.6-1c-1,0.2-2,0.4-3,0.8c0,1.8,0,4.3-0.1,7c0,1.3,0.5-6.1,0.5-6.1
			c0.9-0.3,1.8-0.5,2.7-0.7c0.5-0.1,1.1-0.1,1.6-0.1C802.8,21.3,804.1,21.6,805.1,22.3z"/>
	</g>
	<g>
		<path class="st9" d="M803,25.8c0.3,0.3,0.5,0.8,0.5,1.4c0,1.7-1.7,2.3-3,2.5c-0.1-1.6-0.3-3.1-0.4-4.4h0l0.2,4.8l0.5-0.1
			c2.2-0.3,2.9-1.1,2.9-2.6C803.7,26.8,803.5,26.4,803,25.8z"/>
	</g>
	<path class="st6" d="M798.5,42c0,0.1,0.2,0.2,0.5,0.3c0.2,0.1,0.4,0.1,0.6,0.2c0.2,0.1,0.5,0.1,0.7,0.2c0.5,0.1,1.1,0.2,1.7,0.2
		c0.3,0,0.6,0,0.8,0c0.3,0,0.5,0,0.7,0c0.9,0,2.8-0.2,4.6-0.8c0.5-0.2,0.9-0.4,1.4-0.7c0.4-0.3,0.8-0.6,1.1-1c0.6-0.7,0.9-1.5,1-2.1
		c0.1-0.6,0.2-1,0.1-1.4c0-0.3-0.1-0.6-0.1-0.8c-0.1-0.3-0.2-0.4-0.3-0.4c-0.1,0-0.2,0-0.2,0.2c0,0.2,0,0.4-0.1,0.7
		c0,0.3-0.1,0.8-0.2,1.4c-0.1,0.6-0.4,1.3-0.9,1.9c-0.2,0.3-0.6,0.5-0.9,0.8c-0.3,0.2-0.7,0.4-1.1,0.5c-1.6,0.6-3.3,0.8-4.5,0.8
		c-0.3,0-0.8,0-1.3,0c-0.3,0-0.5,0-0.8,0c-0.3,0-0.6,0-0.8,0c-0.5,0-1-0.1-1.4-0.1C798.7,41.9,798.5,42,798.5,42z M810.5,33.2
		c0.1-0.1,0.6,0.1,1,1.1c0.1,0.5,0.1,0.7,0,0.8c-0.1,0.1-0.3,0-0.4-0.2c-0.3-0.5-0.5-0.9-0.6-1.1C810.4,33.4,810.4,33.3,810.5,33.2z
		"/>
</g>
<g>
	<path class="st0" d="M819.1,18.9c-0.3,0.3-0.2,0.8-0.2,1.1c0,0.6,0,1.2,0,1.8c0,1.1,0,2.2,0.1,3.3c0,0.3,0.1,0.5,0.3,0.7
		c0.3,0.4,0.6,1.1,1,1.4c0.5,0.4,1.3,0.2,1.8,0.2c0.3,0,0.3,0,0.3,0.3c0,0.4,0,0.9,0.1,1.4c0.1,2.3,0.2,4.6,0.3,6.9
		c0,0.2-0.6,0.1-0.8,0.1c-0.5,0-1.1,0.1-1.6,0.1c-0.7,0-0.7,0.6-0.7,1.2c0.1,0.5,0.1,1.1,0.2,1.6c0.1,1.1,0.3,2.3,0.4,3.4
		c0,0.3,0.2,0.4,0.3,0.7c0.2,0.2,0.3,0.5,0.5,0.7c0.2,0.2,0.3,0.5,0.5,0.7c0.4,0.3,0.8,0.2,1.2,0.2c2.4-0.3,4.8-0.6,7.2-1
		c0.6-0.1,1.3-0.1,1.9-0.3c0.9-0.4,0.6-1.9,0.6-2.7c0-1,0-2-0.1-2.9c0-0.8-0.8-1-1.3-1.5c-0.2-0.2-0.7-0.6-1-0.5c-0.2,0-0.4,0-0.6,0
		c0.1-2.1,0.1-4.2,0.2-6.4c0-0.5,0-1,0.1-1.5c0-0.1-0.1-0.5,0.1-0.5c0.6,0,1.1,0,1.7,0c0.7,0,1.1-0.6,1.1-1.3c0-1.1,0-2.2-0.1-3.3
		c0-0.6,0-1.2,0-1.8c0-0.4,0-0.8-0.2-1.1c-0.1-0.2-1.6-1.3-2-1.4c-0.2,0-0.4,0-0.6,0c-1.1,0-2.2,0-3.2,0c-1.6,0-3.1,0-4.7,0
		c-0.5,0-1.1,0-1.6,0C819.8,18.6,819.4,18.6,819.1,18.9C819,19,819.3,18.7,819.1,18.9z"/>
	<path class="st1" d="M819.1,18.9c-0.1,0.1-0.2,0.3-0.2,0.5l0.1,5.7c0,0.4,0.3,0.8,0.8,0.8h2.6l0.4,10.2l-2.4,0.1
		c-0.2,0-0.4,0.1-0.5,0.3c-0.1,0.2-0.2,0.4-0.2,0.6l0.6,5.4c0,0.2,0.1,0.4,0.3,0.5c0.1,0.1,0.3,0.2,0.5,0.2c0,0,0.1,0,0.1,0l9.1-1.2
		c0.4,0,0.7-0.4,0.7-0.8l-0.1-4.7c0-0.2-0.1-0.4-0.2-0.5c-0.2-0.1-0.4-0.2-0.6-0.2l-2.2,0.1l0.3-9.9h2.1h0c0.4,0,0.8-0.3,0.8-0.8
		c0,0,0-0.1,0-0.1l-0.1-5.7c0-0.4-0.3-0.8-0.8-0.8l-10.5,0.1C819.5,18.6,819.3,18.7,819.1,18.9z"/>
	<polygon class="st2" points="827.1,36.6 827.5,25.1 830.3,25.1 830.2,19.3 819.7,19.4 819.8,25.1 823.1,25.1 823.6,36.8 820.5,37 
		821.1,42.4 830.2,41.2 830.1,36.5 	"/>
	<g class="st3">
		<path class="st2" d="M823.1,25.1l0.2,4.6c1.3,0.1,2.6,0.2,4,0.3l0.2-4.9h2.8l-0.1-5.8l-10.5,0.1l0.1,5.7H823.1z"/>
	</g>
	<g>
		<polygon class="st4" points="820.2,20.2 830.1,20.1 830.3,22.2 830.2,19.3 819.7,19.4 819.8,23.3 		"/>
	</g>
	<polygon class="st4" points="823.6,36 823.8,37.2 820.9,37.5 821,41 820.5,37 823.6,36.8 	"/>
	<polygon class="st4" points="827.1,36 827,36.9 830,36.8 830.2,40.9 830.1,36.5 827.1,36.6 	"/>
	<path class="st5" d="M821.5,41.6c0,0.3,1.8,0.2,2.7,0c0.9-0.1,3.9-0.6,5-0.8c0.2,0,0.5-0.1,0.7-0.1c0-0.2,0-0.4,0-0.6
		c0-0.1,0-0.1,0-0.2c0,0,0-0.1,0-0.1c0-0.1-0.1-0.2-0.1-0.3c-0.1-0.1-0.2-0.2-0.3-0.2c-0.1,0-0.1,0-0.2,0.1c0,0.1-0.1,0.1-0.1,0.3
		c0,0.1,0,0.2,0,0.3c0,0,0,0,0,0c0,0,0,0,0,0c-1.4,0.2-3.8,0.6-5,0.8C823.4,41,821.4,41.3,821.5,41.6z M829.4,37.9
		c0.1,0,0.5,0.2,0.5,0.7c0,0.5-0.4,0.4-0.5,0.2C829.1,38.2,829.3,38,829.4,37.9z"/>
</g>
<g>
	<path class="st0" d="M840.9,41.7c0.1,0.2,0.3,0.5,0.5,0.7c0.1,0.2,0.3,0.5,0.5,0.7c0.2,0.3,0.5,0.4,0.9,0.4c0.2,0,0.5,0,0.7,0
		c1.2,0,2.3,0,3.5,0c2.4,0,4.8,0,7.3,0c0.4,0,0.8,0,1.1-0.4c0.4-0.4,0.3-0.9,0.3-1.4c0-1.3,0.1-2.5,0.1-3.8c0-0.2,0-0.4-0.1-0.5
		c-0.2-0.5-0.7-0.7-1.1-1c-0.5-0.4-1-0.7-1.6-0.7c-0.7,0-1.3,0-2,0c-0.2,0-0.5,0-0.7,0c-0.2,0-0.1-0.3-0.1-0.5c0-0.1,0-0.3,0-0.4
		c1.1,0,2.2,0.1,3.3,0.1c0.4,0,0.9,0.1,1.2,0c0.6-0.2,0.7-0.8,0.8-1.4c0.1-1.3,0.2-2.5,0.4-3.8c0-0.2,0-0.3,0-0.5
		c-0.1-0.6-0.5-0.7-0.9-1c-0.3-0.3-0.7-0.5-1-0.7c-0.2-0.2-0.5-0.2-0.7-0.2c-0.6,0-1.3,0-1.9-0.1c-0.2,0-1.1,0.1-1.1-0.1
		c0-0.1,0-0.6,0-0.6c0.1,0,0.3,0,0.4,0c0.6,0,1.2,0,1.8,0c1,0,2.1,0.1,3.2,0c1.4-0.2,1-2,1-2.9c0-1.3,0-2.6-0.1-3.8
		c0-0.6-0.2-1-0.7-1.4c-0.3-0.2-0.7-0.5-1-0.7c-0.3-0.2-0.5-0.3-0.8-0.3c-1.9,0.2-3.8,0.3-5.7,0.5c-2.6,0.2-5.3,0.4-7.9,0.7
		c-0.5,0-1.5,0-1.8,0.5c-0.2,0.4-0.1,1,0,1.4c0.5,5.1,1,10.2,1.5,15.3c0.1,1.3,0.3,2.6,0.4,3.9C840.6,40.3,840.5,41.3,840.9,41.7
		C841,41.8,840.8,41.6,840.9,41.7z"/>
	<path class="st1" d="M841.5,41.9h11.7c0.4,0,0.8-0.3,0.8-0.8l0.1-4.6c0-0.2-0.1-0.4-0.2-0.6c-0.1-0.2-0.3-0.2-0.6-0.2l-4.7-0.1
		l-0.1-2.4l4.5,0.2c0.4,0,0.8-0.3,0.8-0.7l0.4-4.4c0-0.2,0-0.4-0.2-0.6c-0.1-0.2-0.4-0.3-0.6-0.3l-4.9-0.2v-2.3h5.6
		c0.2,0,0.4-0.1,0.6-0.2c0.1-0.2,0.2-0.4,0.2-0.6l-0.1-6c0-0.2-0.1-0.4-0.3-0.6c-0.2-0.2-0.4-0.2-0.6-0.2l-14.8,1.3
		c-0.2,0-0.4,0.1-0.5,0.3c-0.1,0.2-0.2,0.4-0.2,0.6l2.1,21.7C840.8,41.6,841.1,41.9,841.5,41.9z"/>
	<polygon class="st2" points="854.2,18.2 854.3,24.1 847.9,24.1 847.9,28 853.6,28.2 853.2,32.6 847.8,32.4 847.9,36.4 853.4,36.5 
		853.3,41.1 841.5,41.1 839.4,19.4 	"/>
	<path class="st6" d="M841.4,32.4c1.8,0.2,3.5,0.3,5.4,0c1.3-0.2,2.7-0.5,4.4-1.1c0.7-0.2,1.5-0.5,2.1-0.7l0.2-2.4l-5.7-0.2v-3.8
		h6.4l-0.1-6l-14.8,1.3l1.3,12.9C840.9,32.4,841.1,32.4,841.4,32.4z"/>
	<path class="st4" d="M847.7,28.3l5.6,0.3c0,0,0,0.7,0.1,2l0.2-2.4l-5.7-0.2v-3.7L847.7,28.3z"/>
	<polygon class="st4" points="840,20.3 853.7,18.9 854.3,24.1 854.2,18.2 839.4,19.4 840.2,27.6 	"/>
	<polygon class="st4" points="847.8,32.4 847.9,36.4 853.4,36.5 853.3,38.4 853,37 847.5,36.7 	"/>
	<path class="st6" d="M852.2,40.8c0-0.3-2.7-0.6-4.1-0.7l-5.3-0.3l-0.1-1.8c-0.1-1.8-0.5-2-0.6-2c-0.2,0-0.4-0.1-0.2,2l0.2,2.5
		l6,0.4C849.1,41,852.2,41.2,852.2,40.8z M841.9,33.7c0.1-0.1,0.6,0.2,0.6,1c0,0.8-0.4,0.7-0.5,0.4
		C841.5,34.2,841.7,33.8,841.9,33.7z"/>
</g>
<g>
	<path class="st0" d="M634.1,24.7c-1.3-0.9-2.5-1.8-3.9-2.4c-1.5-0.6-3-1-4.6-1.2c-3.5-0.4-7.2,0.1-10.5,1.5c-1,0.4-0.8,1.2-0.7,2.1
		c0.1,1.1,0.1,2.1,0.4,3.2c0.3,1.2,0.8,5.3,1.9,17.4c0.9,0.6,2.3,1.3,4.2,1.7c1.1,0.2,2.2,0.3,3.6,0.1c3.6-0.3,6.5-0.5,9.4-2.5
		c0.7-0.5,3.3-2.4,4.5-5.9C640.9,31,634.1,24.7,634.1,24.7C634.1,24.7,634.1,24.7,634.1,24.7z M626.1,35.2c-0.1,0.1-0.1,0.2-0.2,0.3
		c-0.1-0.7-0.2-1.4-0.4-2.1c0.3,0.1,0.8,0.1,0.8,0.5C626.4,34.4,626.3,34.8,626.1,35.2C626,35.3,626.3,34.7,626.1,35.2z"/>
	<path class="st1" d="M623.1,20.8c-0.9,0-1.8,0.1-2.7,0.2c-1.9,0.3-3.8,0.8-5.5,1.5c-0.4,0.2-0.7,0.6-0.6,1.1
		c0.8,7.2,1.6,14.3,2.4,21.5c0.8,0,6.8,0.2,11-0.5c1.7-0.3,2.9-0.7,3.9-1.2c1.1-0.5,1.9-1.1,2.2-1.3c3.3-2.5,4.8-7.2,3.5-11.5
		C635.6,24.5,630.3,20.8,623.1,20.8z M624.3,36.5l-1-5.2c1.4,0.2,2.4,0.8,2.8,1.8c0.3,0.6,0.3,1.4-0.1,2.1c-0.3,0.7-0.8,1.1-1.5,1.3
		C624.5,36.5,624.4,36.5,624.3,36.5z"/>
	<path class="st2" d="M636.3,30.8c-2-7.1-9.1-9.6-15.8-8.7c-1.8,0.2-3.6,0.7-5.2,1.4l0.9,7.7c0.5,4.2,1,8.5,1.6,12.7
		c3.5,0.1,6.3,0,8.3-0.2c1.8-0.2,3.4-0.4,5.2-1.3c0.7-0.3,1.4-0.7,2-1.2C636.4,38.9,637.4,34.5,636.3,30.8z M624.9,37.5
		c-0.5,0.1-1,0-1.5-0.1l-1.3-7.2c2-0.1,4.1,0.4,5.1,2.4C628,34.5,626.9,37,624.9,37.5z"/>
	<path class="st6" d="M616.5,33.8c2-0.3,4.1-0.4,6.2-0.5l-0.6-3.1c2-0.1,4.1,0.4,5.1,2.4c0.1,0.3,0.2,0.5,0.3,0.8
		c3.2,0.2,6.3,0.7,9.3,1.3c0.1-1.3,0-2.7-0.3-3.9c-2-7.1-9.1-9.6-15.8-8.7c-1.8,0.2-3.6,0.7-5.2,1.4l0.9,7.7L616.5,33.8z"/>
	<path class="st4" d="M620.6,22.1c-1.8,0.2-3.6,0.7-5.2,1.4l0.9,7.7l-0.2-6.4c1.5-0.6,3-1,4.6-1.2c0.8-0.1,1.7-0.2,2.5-0.2
		c6.4,0,11.4,2.8,12.9,8.1c0.3,0.9,0.4,1.4,0.6,3.3c0.1-1.3,0-2.7-0.3-3.9C634.3,23.7,627.3,21.2,620.6,22.1z"/>
	<path class="st4" d="M622.2,30.9l1.2,6.4c0,0,1.5,0.6,2.9-0.7c1.4-1.3,1-3.4,1-3.4s1.3,3.8-2.2,4.7c-0.8,0.2-2.1,0-2.1,0
		L622.2,30.9z"/>
	<path class="st6" d="M625.6,42.7c0,0.2,0.5,0.4,1.2,0.3c0.7,0,1.5-0.2,2-0.3c0.5-0.2,1.6-0.6,2.7-1.1c1.1-0.6,2-1.4,2.5-2
		c0.2-0.3,0.4-0.5,0.5-0.7c0.1-0.2,0.1-0.4,0.1-0.5c0-0.3-0.2-0.3-0.2-0.4c-0.1-0.1-0.2-0.1-0.4,0c-0.1,0.1-0.3,0.4-0.8,1
		c-0.5,0.6-1.3,1.2-2.1,1.7c-0.9,0.5-1.8,0.9-2.5,1.1c-0.4,0.1-1.1,0.3-1.7,0.5C626.1,42.3,625.6,42.4,625.6,42.7z M634.5,36.3
		c0.1,0,0.3,0,0.4,0.2c0.1,0.1,0.3,0.4,0.2,0.7c-0.2,0.7-0.7,0.4-0.8,0.1c-0.1-0.4-0.2-0.6-0.1-0.8
		C634.2,36.4,634.4,36.3,634.5,36.3z"/>
</g>
<g>
	<path class="st0" d="M651.6,21.7c-3.8,0-7.5,1.8-9.6,5c-1,1.5-1.6,3.3-1.7,5.1c-0.1,2.3,0.6,4.5,1.9,6.4c0.6,0.8,1.1,1.7,1.8,2.4
		c0.7,0.7,1.5,1.3,2.3,1.7c1.8,1,3.9,1.6,6.1,1.6c3.8,0.1,7.7-1.3,10.2-4.3c2.5-3,3-7.3,1.3-10.9c-0.5-1-1.1-1.8-1.8-2.6
		c-0.8-0.9-1.9-1.5-2.9-2.2c-1.9-1.3-4.2-2-6.4-2.2C652.4,21.7,652,21.7,651.6,21.7z M650.4,36.5c-0.5,0-1.1-0.1-1.6-0.3
		c-0.5-0.2-0.8-0.7-1-1.2c-0.4-0.9-0.4-1.8-0.1-2.7c0.6-1.7,2.4-2.8,4.2-2.7c0.5,0,1,0.1,1.4,0.3c0.4,0.2,1.1,0.5,1.2,0.9
		c0.4,0.9,0.4,1.9,0,2.9C653.9,35.5,652.2,36.5,650.4,36.5z"/>
	<path class="st1" d="M640.2,32.4c0,5.7,4.9,10,11.4,10c6.5,0,11.7-4.5,11.8-10.2c0-2.8-0.9-5.2-2.7-7.1c-2.1-2.2-5.4-3.4-9.1-3.4
		C645.3,21.7,640.2,26.5,640.2,32.4z M650.4,28.2c2.4,0,4.4,1.9,4.4,4.2c0,2.3-2,4.2-4.4,4.2c-2.4,0-4.4-1.9-4.4-4.2
		C646,30.1,648,28.2,650.4,28.2z"/>
	<path class="st2" d="M651.6,22.5c-5.9,0-10.6,4.4-10.6,9.9c0,5.5,4.8,9.3,10.6,9.3c5.9,0,11-4,11-9.4
		C662.8,25.8,657.5,22.5,651.6,22.5z M650.4,37.3c-2.8,0-5.1-2.2-5.1-4.9c0-2.7,2.3-4.9,5.1-4.9c2.8,0,5.1,2.2,5.1,4.9
		C655.5,35.1,653.2,37.3,650.4,37.3z"/>
	<g class="st3">
		<path class="st2" d="M641.6,34.4c1.6,0.4,3.2,0.9,4.8,1.1c-0.8-0.9-1.2-2-1.2-3.2c0-2.7,2.3-4.9,5.1-4.9c2.8,0,5.1,2.2,5.1,4.9
			c0,0.9-0.2,1.7-0.7,2.4c2.6-0.9,5.2-2,7.8-3c-0.1-6.1-5.3-9.3-11-9.3c-5.9,0-10.6,4.4-10.6,9.9c0,0.7,0.1,1.3,0.2,1.9
			C641.3,34.3,641.5,34.4,641.6,34.4z"/>
	</g>
	<g>
		<path class="st4" d="M651.6,23.3c5.5,0,10.4,2.9,11,8.5c0,0,0,0,0.1,0c-0.1-6.1-5.3-9.3-11-9.3c-5.9,0-10.6,4.4-10.6,9.9
			c0,0.1,0,0.3,0,0.4C641.2,27.5,645.9,23.3,651.6,23.3z"/>
	</g>
	<path class="st4" d="M645.7,34.3c0,0,1.4,3,4.7,3c3.3,0,4.6-2.9,5-4c0,0-0.3,4.6-5.3,4.3C646.4,37.4,645.7,34.3,645.7,34.3z"/>
	<path class="st5" d="M648.2,40.2c-0.1,0.1,0.6,0.5,1.4,0.7c0.9,0.2,2,0.3,2.7,0.3c0.8,0,2.3-0.2,3.8-0.9c0.8-0.3,1.5-0.7,2.1-1.1
		c0.6-0.4,1.1-0.8,1.5-1.2c0.7-0.6,0.9-1.1,1.1-1.4c0.1-0.3,0-0.4,0-0.4c-0.1-0.1-0.1-0.1-0.3,0c-0.1,0.1-0.2,0.2-0.4,0.4
		c-0.1,0.1-0.2,0.2-0.4,0.4c-0.1,0.1-0.3,0.3-0.5,0.5c-0.2,0.2-0.4,0.4-0.6,0.6c-0.2,0.2-0.5,0.4-0.8,0.6c-0.6,0.4-1.2,0.7-1.8,1
		c-1.3,0.6-2.7,0.8-3.6,0.8c-0.3,0-0.6,0-1.1,0c-0.2,0-0.4,0-0.7,0c-0.2,0-0.5,0-0.7-0.1C649,40.3,648.2,40.1,648.2,40.2z
		 M661.7,34.2c0.1,0,0.2,0.1,0.2,0.3c0,0.1,0,0.1,0,0.2c0,0.1,0,0.1,0,0.2c0,0.2-0.1,0.3-0.2,0.5c-0.4,0.7-0.7,0.4-0.6,0.1
		c0.1-0.2,0.1-0.5,0.1-0.6c0-0.2,0.1-0.3,0.1-0.4C661.5,34.3,661.6,34.2,661.7,34.2z"/>
</g>
<g>
	<path class="st0" d="M666.9,32.7c0.1,2.3,0.7,4.6,1.8,6.6c0.5,1,1.2,1.9,1.9,2.8c0.7,1,1.5,1.9,2.5,2.6c1.9,1.3,4.4,1.7,6.6,0.9
		c1-0.4,2-1,2.8-1.7c0.4-0.3,0.7-0.7,1-1.1c0.2-0.2,0.3-0.4,0.4-0.6c0.1-0.2,0.2-0.5,0.4-0.4c0.4,0.2,0.7,0.3,1.1,0.2
		c0.4-0.1,0.6-0.4,0.7-0.8c0.1-0.5,0.2-0.9,0.2-1.4c0.1-0.6,0.2-1.2,0.3-1.9c0.1-0.5,0.2-1-0.1-1.4c-0.3-0.3-0.7-0.5-1.1-0.7
		c-0.2-0.2-0.4-0.4-0.7-0.5c-0.3-0.1-0.7-0.2-1-0.3c-1.2-0.4-2.4-0.7-3.7-1.1c-0.7-0.2-2.1-0.9-2.3,0.2c-0.1,0.5-0.2,1-0.3,1.6
		c-0.1,0.4-0.2,0.9-0.3,1.3c0,0.4,0.3,0.6,0.6,0.8c0.1,0.1,0.2,0.3,0.2,0.4c0,0.1-0.4,0.4-0.5,0.5c-0.4,0.3-0.9,0.3-1.3,0.2
		c-0.5-0.1-0.7-0.8-0.8-1.2c-0.4-1.3-0.2-3,0.2-4.3c0.3-0.8,0.7-1.5,1.3-2c0.3-0.3,0.8-0.5,1.2-0.5c0.3,0,0.5,0.1,0.7,0.2
		c0.2,0.2,0.3,0.3,0.5,0.5c0.2,0.4,0.5,0.9,0.9,1c0.2,0.1,1.3,0.1,1.8,0.1c1,0,1.8,0,2.8,0.1c0.4,0,0.7,0.1,1.1-0.2
		c0.4-0.3,0.5-1,0.6-1.5c0.3-1.1,0.5-2.2,0.7-3.3c0.1-0.4,0.1-0.7-0.1-1c-0.2-0.4-0.9-0.8-1.3-1c-0.3-0.2-0.2-0.2-0.7-0.3
		c-0.2,0-0.2,0-0.3-0.2c0-0.1-0.1-0.2-0.1-0.4c-0.1-0.3-0.3-0.5-0.4-0.8c-0.6-0.9-1.4-1.6-2.2-2.2c-0.9-0.7-1.8-1.3-2.9-1.7
		c-2.1-0.7-4.3-0.4-6.3,0.6c-2.8,1.4-4.6,4-5.4,6.9C667,29.4,666.8,31,666.9,32.7C666.9,35.6,666.8,30.3,666.9,32.7z"/>
	<path class="st1" d="M666.9,32.7c0.1,3.8,2.1,8,4.7,10.2c1.3,1,2.8,1.6,4.4,1.6c1.1,0,2.1-0.2,3.1-0.7c1.6-0.8,2.9-2.1,3.7-3.7
		l0.7,0.3c0.2,0.1,0.4,0.1,0.6,0c0.2-0.1,0.3-0.3,0.4-0.5l0.7-3.8c0.1-0.4-0.2-0.7-0.5-0.8l-6.1-1.8c-0.2-0.1-0.4,0-0.6,0.1
		c-0.2,0.1-0.3,0.3-0.3,0.5l-0.6,2.8c-0.1,0.3,0.1,0.7,0.4,0.8l0.6,0.3c-0.4,0.7-1,1.2-1.8,1c-1.6-0.4-2.7-1.7-2.7-3.6
		c0-1,0-4.4,2.4-5.7c0.3-0.1,0.6-0.2,0.9-0.2c0.7,0,1.4,0.5,1.8,1.4c0.1,0.3,0.4,0.5,0.8,0.4c0.3,0,0.7-0.1,1.2-0.1
		c1.3,0,2.8,0.1,3.3,0.2c0.1,0,0.2,0,0.2,0c0.3,0,0.6-0.2,0.7-0.5c0.2-0.6,0.3-1.2,0.5-1.9c0.2-0.7,0.3-1.5,0.4-2.2l0.1-0.5
		c0.1-0.4-0.1-0.7-0.5-0.8c-0.1-0.1-0.4-0.1-1.7-0.3c0-0.1,0-0.1,0-0.1c0,0,0,0,0,0c-0.6-3.3-4.1-5.1-7-5.1c-0.7,0-1.4,0.1-2,0.3
		C667.1,22.4,666.8,30.3,666.9,32.7z"/>
	<path class="st2" d="M675.6,29c1.6-0.8,3.1,0.1,3.7,1.5c1.5-0.2,4.7,0.1,4.8,0.1c0.2-0.6,0.3-1.2,0.5-1.9c0.2-0.9,0.4-1.7,0.5-2.6
		c-0.2-0.1-2-0.3-2-0.3c0,0-0.2-0.7-0.2-0.7c-0.7-3.4-4.9-5.3-8.1-4.3c-5.7,1.8-7.3,7.4-7.2,11.8c0.1,3.4,1.8,7.5,4.5,9.7
		c1.8,1.5,4.4,2,6.7,0.8c1.8-0.9,3-2.3,3.7-4l1.4,0.6l0.7-3.8l-1.5-0.4l-4.6-1.3l-0.6,2.8l0.2,0.1l1,0.5c-0.5,1.3-1.5,2.4-2.9,2.1
		c-2.1-0.5-3.2-2.2-3.3-4.3C672.8,33.1,673.4,30.2,675.6,29z"/>
	<path class="st6" d="M667.6,32.8c1.8,0.1,3.6,0.3,5.4,0.5c0.3-1.7,1.1-3.4,2.6-4.2c1.6-0.8,3.1,0.1,3.7,1.5
		c1.5-0.2,4.7,0.1,4.8,0.1c0.2-0.6,0.3-1.2,0.5-1.9c0.2-0.9,0.4-1.7,0.5-2.6c-0.2-0.1-2-0.3-2-0.3c0,0-0.2-0.7-0.2-0.7
		c-0.7-3.4-4.9-5.3-8.1-4.3c-5.7,1.8-7.3,7.4-7.2,11.8C667.6,32.7,667.6,32.7,667.6,32.8z"/>
	<path class="st4" d="M674.9,21.6c0.5-0.2,1.1-0.2,1.7-0.2c2.4,0,5.3,1.7,5.9,4.4l0,0c0.1,0.8,0.3,0.9,0.4,1c0.1,0,0.1,0,0.4,0.1
		c0.2,0,0.8,0.1,1.2,0.2l0,0.1c-0.1,0.7-0.5,3.5-0.5,3.5c0.2-0.6,0.3-1.2,0.5-1.9c0.2-0.9,0.4-1.7,0.5-2.6c-0.2-0.1-2-0.3-2-0.3
		c0,0-0.2-0.7-0.2-0.7c-0.7-3.4-4.9-5.3-8.1-4.3c-4.8,1.5-6.7,5.7-7.1,9.7C667.6,31.3,668.7,23.5,674.9,21.6z"/>
	<polygon class="st4" points="677.9,36.7 678.4,34.2 684.5,36 678.7,34.7 	"/>
	<path class="st4" d="M673.1,32.7c0,0-1.2,4.8,2,6.6c2.9,1.6,4-1.7,4-1.7s-0.5,3.6-3.9,2.2C671.9,38.4,672.7,34,673.1,32.7z"/>
	<path class="st6" d="M678.7,42.6c-0.1-0.1-0.6,0.1-1.4,0.2c-0.7,0.1-1.6,0-2.2-0.1c-0.1,0-0.3-0.1-0.5-0.2c-0.1,0-0.2-0.1-0.3-0.1
		c-0.1-0.1-0.2-0.1-0.4-0.2c-0.5-0.3-1-0.6-1.5-1.1c-0.5-0.4-0.9-1-1.3-1.5c-0.1-0.1-0.2-0.2-0.3-0.4c-0.1-0.1-0.1-0.2-0.2-0.4
		c-0.1-0.2-0.2-0.4-0.3-0.6c-0.7-1.4-1-1.5-1.2-1.4c-0.1,0-0.4,0,0.5,1.8c0.2,0.4,0.5,1,0.9,1.5c0.4,0.5,0.8,1,1.3,1.5
		c1,0.9,2.2,1.5,3.2,1.7c0.5,0.1,1.5,0.2,2.4,0C678.1,43.2,678.7,42.8,678.7,42.6z M668.3,35c0.1-0.1,0.6,0.1,0.8,0.8
		c0.2,0.7-0.1,0.7-0.4,0.5c-0.3-0.4-0.4-0.7-0.5-0.9C668.1,35.2,668.2,35,668.3,35z"/>
</g>
<g>
	<path class="st0" d="M1081.2,42.7c0.1,0.2,0.3,0.5,0.5,0.7c0.1,0.2,0.3,0.5,0.5,0.6c0.5,0.4,1.3,0.4,1.9,0.5
		c1.3,0.2,2.5,0.3,3.8,0.4c2.2,0.1,4.5,0.1,6.6-0.6c2.5-0.7,4.6-2.4,5.1-5.1c0.3-1.5,0.1-3-0.4-4.5c-0.4-1-0.9-1.8-1.6-2.6
		c-0.8-0.9-1.8-1.5-2.7-2.1c1.1-1.8,1.4-4,0.4-5.9c-1-1.8-2.7-2.9-4.3-4c-1.8-1.3-4.2-1.5-6.4-1.2c-0.6,0.1-1.2,0.2-1.8,0.4
		c-0.5,0.1-1.4,0.3-1.7,0.8c-0.1,0.2-0.1,0.4-0.1,0.5c0,1.7,0,3.3,0,5c0,5-0.1,10-0.1,14.9C1080.8,41.2,1080.6,42.1,1081.2,42.7
		C1081.2,42.7,1081.1,42.6,1081.2,42.7z M1087.6,27.2c0-0.2,0-0.3,0-0.5c0.2,0,0.2,0,0.2,0.2C1087.7,26.9,1087.6,27,1087.6,27.2z
		 M1089.6,36.6c-0.1,0.5-0.7,0.8-1.1,1c0-0.5-0.1-1-0.1-1.6c0.3,0,0.6,0,0.8,0.1C1089.4,36.2,1089.7,36.3,1089.6,36.6
		C1089.4,37,1089.6,36.5,1089.6,36.6z"/>
	<path class="st1" d="M1081.4,42.6c1.8,0.4,3.6,0.6,5.2,0.7c0.6,0,1.1,0.1,1.7,0.1c8,0,9.8-3.7,9.9-6.7c0.1-3.1-1.9-6.5-5.2-7.5
		c0.7-0.9,1.4-2.3,1.3-3.9c-0.1-1.9-1.3-3.7-3.6-5.2c-1.6-1.1-3.7-1.5-6.1-1.1c-1,0.1-2.1,0.4-3.2,0.8c-0.3,0.1-0.5,0.4-0.5,0.7
		l-0.2,21.5C1080.8,42.2,1081.1,42.6,1081.4,42.6z M1086,25.1c1.8,0.1,1.8,1,1.8,1.4c0,0.7-0.5,1.3-1.5,1.5L1086,25.1z M1089.6,36.6
		c-0.2,0.6-1.1,1.1-2.5,1.3c-0.1-1.1-0.2-2.2-0.3-3.4c0.9,0,1.6,0.2,2,0.5C1089.3,35.4,1089.7,36,1089.6,36.6z"/>
	<path class="st2" d="M1091.6,29.6c0,0,5.3-4.6-1.2-9c-1.6-1.1-3.5-1.3-5.6-1c-1,0.2-2,0.4-3,0.8c0,5.1-0.1,15.6-0.2,21.5
		c1.4,0.3,3.2,0.5,5.1,0.7c5,0.3,10.6-0.6,10.8-5.9C1097.5,33.4,1095.1,29.9,1091.6,29.6z M1088.5,26.5c0,1.7-1.7,2.3-3,2.5
		c-0.1-1.6-0.3-3.2-0.4-4.6C1086.6,24.3,1088.5,24.5,1088.5,26.5z M1086.3,38.8c-0.1-1.6-0.3-3.3-0.4-5c1.1-0.1,2.4,0,3.3,0.6
		C1090.7,35.5,1091.5,38.3,1086.3,38.8z"/>
	<g class="st8">
		<path class="st2" d="M1088.1,30.7c2.4-0.1,4.8,0,7.1,0.7c0,0,0,0,0.1,0c-1-1-2.3-1.7-3.8-1.8c0,0,5.3-4.6-1.2-9
			c-1.6-1.1-3.5-1.3-5.6-1c-1,0.2-2,0.4-3,0.8c0,2.7-0.1,6.9-0.1,11.2C1083.8,31.2,1086,30.9,1088.1,30.7z M1088.5,26.5
			c0,1.7-1.7,2.3-3,2.5c-0.1-1.6-0.3-3.2-0.4-4.6C1086.6,24.3,1088.5,24.5,1088.5,26.5z"/>
	</g>
	<g>
		<path class="st9" d="M1090.1,21.6c1.9,1.3,2.9,2.8,3,4.3c0.1,2.3-1.8,4-1.9,4l0,0c0.5,0,1.1,0.1,1.6,0.2c0.6,0.1,1.1,0.3,1.7,0.5
			c-0.8-0.6-1.8-1-2.9-1.1c0,0,5.3-4.6-1.2-9c-1.6-1.1-3.5-1.3-5.6-1c-1,0.2-2,0.4-3,0.8c0,1.8,0,4.3-0.1,7c0,1.3,0.5-6.1,0.5-6.1
			c0.9-0.3,1.8-0.5,2.7-0.7c0.5-0.1,1.1-0.1,1.6-0.1C1087.8,20.5,1089.1,20.9,1090.1,21.6z"/>
	</g>
	<g>
		<path class="st9" d="M1088,25.1c0.3,0.3,0.5,0.8,0.5,1.4c0,1.7-1.7,2.3-3,2.5c-0.1-1.6-0.3-3.1-0.4-4.4h0l0.2,4.8l0.5-0.1
			c2.2-0.3,2.9-1.1,2.9-2.6C1088.7,26,1088.6,25.6,1088,25.1z"/>
	</g>
	<path class="st6" d="M1083.5,41.3c0,0.1,0.2,0.2,0.5,0.3c0.2,0.1,0.4,0.1,0.6,0.2c0.2,0.1,0.5,0.1,0.7,0.2c0.5,0.1,1.1,0.2,1.7,0.2
		c0.3,0,0.6,0,0.8,0c0.3,0,0.5,0,0.7,0c0.9,0,2.8-0.2,4.6-0.8c0.5-0.2,0.9-0.4,1.4-0.7c0.4-0.3,0.8-0.6,1.1-1c0.6-0.7,0.9-1.5,1-2.1
		c0.1-0.6,0.2-1,0.1-1.4c0-0.3-0.1-0.6-0.1-0.8c-0.1-0.3-0.2-0.4-0.3-0.4c-0.1,0-0.2,0-0.2,0.2c0,0.2,0,0.4-0.1,0.7
		c0,0.3-0.1,0.8-0.2,1.4c-0.1,0.6-0.4,1.3-0.9,1.9c-0.2,0.3-0.6,0.5-0.9,0.8c-0.3,0.2-0.7,0.4-1.1,0.5c-1.6,0.6-3.3,0.8-4.5,0.8
		c-0.3,0-0.8,0-1.3,0c-0.3,0-0.5,0-0.8,0c-0.3,0-0.6,0-0.8,0c-0.5,0-1-0.1-1.4-0.1C1083.7,41.2,1083.5,41.2,1083.5,41.3z
		 M1095.5,32.5c0.1-0.1,0.6,0.1,1,1.1c0.1,0.5,0.1,0.7,0,0.8c-0.1,0.1-0.3,0-0.4-0.2c-0.3-0.5-0.5-0.9-0.6-1.1
		C1095.4,32.7,1095.4,32.5,1095.5,32.5z"/>
</g>
<g>
	<path class="st0" d="M1102.6,19.4c-0.3,0.3-0.2,0.8-0.2,1.1c0,0.6,0,1.2,0,1.8c0,1.1,0,2.2,0.1,3.3c0,0.3,0.1,0.5,0.3,0.7
		c0.3,0.4,0.6,1.1,1,1.4c0.5,0.4,1.3,0.2,1.8,0.2c0.3,0,0.3,0,0.3,0.3c0,0.4,0,0.9,0.1,1.4c0.1,2.3,0.2,4.6,0.3,6.9
		c0,0.2-0.6,0.1-0.8,0.1c-0.5,0-1.1,0.1-1.6,0.1c-0.7,0-0.7,0.6-0.7,1.2c0.1,0.5,0.1,1.1,0.2,1.6c0.1,1.1,0.3,2.3,0.4,3.4
		c0,0.3,0.2,0.4,0.3,0.7c0.2,0.2,0.3,0.5,0.5,0.7c0.2,0.2,0.3,0.5,0.5,0.7c0.4,0.3,0.8,0.2,1.2,0.2c2.4-0.3,4.8-0.6,7.2-1
		c0.6-0.1,1.3-0.1,1.9-0.3c0.9-0.4,0.6-1.9,0.6-2.7c0-1,0-2-0.1-2.9c0-0.8-0.8-1-1.3-1.5c-0.2-0.2-0.7-0.6-1-0.5c-0.2,0-0.4,0-0.6,0
		c0.1-2.1,0.1-4.2,0.2-6.4c0-0.5,0-1,0.1-1.5c0-0.1-0.1-0.5,0.1-0.5c0.6,0,1.1,0,1.7,0c0.7,0,1.1-0.6,1.1-1.3c0-1.1,0-2.2-0.1-3.3
		c0-0.6,0-1.2,0-1.8c0-0.4,0-0.8-0.2-1.1c-0.1-0.2-1.6-1.3-2-1.4c-0.2,0-0.4,0-0.6,0c-1.1,0-2.2,0-3.2,0c-1.6,0-3.1,0-4.7,0
		c-0.5,0-1.1,0-1.6,0C1103.2,19.2,1102.8,19.1,1102.6,19.4C1102.4,19.6,1102.7,19.3,1102.6,19.4z"/>
	<path class="st1" d="M1102.6,19.4c-0.1,0.1-0.2,0.3-0.2,0.5l0.1,5.7c0,0.4,0.3,0.8,0.8,0.8h2.6l0.4,10.2l-2.4,0.1
		c-0.2,0-0.4,0.1-0.5,0.3c-0.1,0.2-0.2,0.4-0.2,0.6l0.6,5.4c0,0.2,0.1,0.4,0.3,0.5c0.1,0.1,0.3,0.2,0.5,0.2c0,0,0.1,0,0.1,0l9.1-1.2
		c0.4,0,0.7-0.4,0.7-0.8l-0.1-4.7c0-0.2-0.1-0.4-0.2-0.5c-0.2-0.1-0.4-0.2-0.6-0.2l-2.2,0.1l0.3-9.9h2.1h0c0.4,0,0.8-0.3,0.8-0.8
		c0,0,0-0.1,0-0.1l-0.1-5.7c0-0.4-0.3-0.8-0.8-0.8l-10.5,0.1C1102.9,19.2,1102.7,19.3,1102.6,19.4z"/>
	<polygon class="st2" points="1110.5,37.2 1110.9,25.7 1113.7,25.7 1113.6,19.8 1103.1,20 1103.2,25.7 1106.6,25.7 1107.1,37.4 
		1103.9,37.5 1104.5,42.9 1113.6,41.7 1113.5,37 	"/>
	<g class="st3">
		<path class="st2" d="M1106.6,25.7l0.2,4.6c1.3,0.1,2.6,0.2,4,0.3l0.2-4.9h2.8l-0.1-5.8l-10.5,0.1l0.1,5.7H1106.6z"/>
	</g>
	<g>
		<polygon class="st4" points="1103.6,20.7 1113.5,20.6 1113.7,22.8 1113.6,19.8 1103.1,20 1103.2,23.9 		"/>
	</g>
	<polygon class="st4" points="1107,36.5 1107.2,37.7 1104.3,38.1 1104.4,41.6 1103.9,37.5 1107,37.3 	"/>
	<polygon class="st4" points="1110.5,36.5 1110.4,37.5 1113.4,37.4 1113.6,41.4 1113.5,37 1110.6,37.1 	"/>
	<path class="st5" d="M1104.9,42.2c0,0.3,1.8,0.2,2.7,0c0.9-0.1,3.9-0.6,5-0.8c0.2,0,0.5-0.1,0.7-0.1c0-0.2,0-0.4,0-0.6
		c0-0.1,0-0.1,0-0.2c0,0,0-0.1,0-0.1c0-0.1-0.1-0.2-0.1-0.3c-0.1-0.1-0.2-0.2-0.3-0.2c-0.1,0-0.1,0-0.2,0.1c0,0.1-0.1,0.1-0.1,0.3
		c0,0.1,0,0.2,0,0.3c0,0,0,0,0,0c0,0,0,0,0,0c-1.4,0.2-3.8,0.6-5,0.8C1106.8,41.5,1104.8,41.9,1104.9,42.2z M1112.9,38.5
		c0.1,0,0.5,0.2,0.5,0.7c0,0.5-0.4,0.4-0.5,0.2C1112.5,38.8,1112.7,38.5,1112.9,38.5z"/>
</g>
<g>
	<path class="st0" d="M1120,30.8c0.1,2.3,0.7,4.6,1.8,6.6c0.5,1,1.2,1.9,1.9,2.8c0.7,1,1.5,1.9,2.5,2.6c1.9,1.3,4.4,1.7,6.6,0.9
		c1-0.4,2-1,2.8-1.7c0.4-0.3,0.7-0.7,1-1.1c0.2-0.2,0.3-0.4,0.4-0.6c0.1-0.2,0.2-0.5,0.4-0.4c0.4,0.2,0.7,0.3,1.1,0.2
		c0.4-0.1,0.6-0.4,0.7-0.8c0.1-0.5,0.2-0.9,0.2-1.4c0.1-0.6,0.2-1.2,0.3-1.9c0.1-0.5,0.2-1-0.1-1.4c-0.3-0.3-0.7-0.5-1.1-0.7
		c-0.2-0.2-0.4-0.4-0.7-0.5c-0.3-0.1-0.7-0.2-1-0.3c-1.2-0.4-2.4-0.7-3.7-1.1c-0.7-0.2-2.1-0.9-2.3,0.2c-0.1,0.5-0.2,1-0.3,1.6
		c-0.1,0.4-0.2,0.9-0.3,1.3c0,0.4,0.3,0.6,0.6,0.8c0.1,0.1,0.2,0.3,0.2,0.4c0,0.1-0.4,0.4-0.5,0.5c-0.4,0.3-0.9,0.3-1.3,0.2
		c-0.5-0.1-0.7-0.8-0.8-1.2c-0.4-1.3-0.2-3,0.2-4.3c0.3-0.8,0.7-1.5,1.3-2c0.3-0.3,0.8-0.5,1.2-0.5c0.3,0,0.5,0.1,0.7,0.2
		c0.2,0.2,0.3,0.3,0.5,0.5c0.2,0.4,0.5,0.9,0.9,1c0.2,0.1,1.3,0.1,1.8,0.1c1,0,1.8,0,2.8,0.1c0.4,0,0.7,0.1,1.1-0.2
		c0.4-0.3,0.5-1,0.6-1.5c0.3-1.1,0.5-2.2,0.7-3.3c0.1-0.4,0.1-0.7-0.1-1c-0.2-0.4-0.9-0.8-1.3-1c-0.3-0.2-0.2-0.2-0.7-0.3
		c-0.2,0-0.2,0-0.3-0.2c0-0.1-0.1-0.2-0.1-0.4c-0.1-0.3-0.3-0.5-0.4-0.8c-0.6-0.9-1.4-1.6-2.2-2.2c-0.9-0.7-1.8-1.3-2.9-1.7
		c-2.1-0.7-4.3-0.4-6.3,0.6c-2.8,1.4-4.6,4-5.4,6.9C1120.1,27.5,1119.9,29.1,1120,30.8C1120.1,33.7,1119.9,28.4,1120,30.8z"/>
	<path class="st1" d="M1120,30.8c0.1,3.8,2.1,8,4.7,10.2c1.3,1,2.8,1.6,4.4,1.6c1.1,0,2.1-0.2,3.1-0.7c1.6-0.8,2.9-2.1,3.7-3.7
		l0.7,0.3c0.2,0.1,0.4,0.1,0.6,0c0.2-0.1,0.3-0.3,0.4-0.5l0.7-3.8c0.1-0.4-0.2-0.7-0.5-0.8l-6.1-1.8c-0.2-0.1-0.4,0-0.6,0.1
		c-0.2,0.1-0.3,0.3-0.3,0.5l-0.6,2.8c-0.1,0.3,0.1,0.7,0.4,0.8l0.6,0.3c-0.4,0.7-1,1.2-1.8,1c-1.6-0.4-2.7-1.7-2.7-3.6
		c0-1,0-4.4,2.4-5.7c0.3-0.1,0.6-0.2,0.9-0.2c0.7,0,1.4,0.5,1.8,1.4c0.1,0.3,0.4,0.5,0.8,0.4c0.3,0,0.7-0.1,1.2-0.1
		c1.3,0,2.8,0.1,3.3,0.2c0.1,0,0.2,0,0.2,0c0.3,0,0.6-0.2,0.7-0.5c0.2-0.6,0.3-1.2,0.5-1.9c0.2-0.7,0.3-1.5,0.4-2.2l0.1-0.5
		c0.1-0.4-0.1-0.7-0.5-0.8c-0.1-0.1-0.4-0.1-1.7-0.3c0-0.1,0-0.1,0-0.1c0,0,0,0,0,0c-0.6-3.3-4.1-5.1-7-5.1c-0.7,0-1.4,0.1-2,0.3
		C1120.2,20.5,1119.9,28.4,1120,30.8z"/>
	<path class="st2" d="M1128.7,27.1c1.6-0.8,3.1,0.1,3.7,1.5c1.5-0.2,4.7,0.1,4.8,0.1c0.2-0.6,0.3-1.2,0.5-1.9
		c0.2-0.9,0.4-1.7,0.5-2.6c-0.2-0.1-2-0.3-2-0.3c0,0-0.2-0.7-0.2-0.7c-0.7-3.4-4.9-5.3-8.1-4.3c-5.7,1.8-7.3,7.4-7.2,11.8
		c0.1,3.4,1.8,7.5,4.5,9.7c1.8,1.5,4.4,2,6.7,0.8c1.8-0.9,3-2.3,3.7-4l1.4,0.6l0.7-3.8l-1.5-0.4l-4.6-1.3l-0.6,2.8l0.2,0.1l1,0.5
		c-0.5,1.3-1.5,2.4-2.9,2.1c-2.1-0.5-3.2-2.2-3.3-4.3C1125.9,31.2,1126.5,28.3,1128.7,27.1z"/>
	<path class="st6" d="M1120.7,30.9c1.8,0.1,3.6,0.3,5.4,0.5c0.3-1.7,1.1-3.4,2.6-4.2c1.6-0.8,3.1,0.1,3.7,1.5
		c1.5-0.2,4.7,0.1,4.8,0.1c0.2-0.6,0.3-1.2,0.5-1.9c0.2-0.9,0.4-1.7,0.5-2.6c-0.2-0.1-2-0.3-2-0.3c0,0-0.2-0.7-0.2-0.7
		c-0.7-3.4-4.9-5.3-8.1-4.3c-5.7,1.8-7.3,7.4-7.2,11.8C1120.7,30.8,1120.7,30.8,1120.7,30.9z"/>
	<path class="st4" d="M1128,19.7c0.5-0.2,1.1-0.2,1.7-0.2c2.4,0,5.3,1.7,5.9,4.4l0,0c0.1,0.8,0.3,0.9,0.4,1c0.1,0,0.1,0,0.4,0.1
		c0.2,0,0.8,0.1,1.2,0.2l0,0.1c-0.1,0.7-0.5,3.5-0.5,3.5c0.2-0.6,0.3-1.2,0.5-1.9c0.2-0.9,0.4-1.7,0.5-2.6c-0.2-0.1-2-0.3-2-0.3
		c0,0-0.2-0.7-0.2-0.7c-0.7-3.4-4.9-5.3-8.1-4.3c-4.8,1.5-6.7,5.7-7.1,9.7C1120.7,29.4,1121.8,21.6,1128,19.7z"/>
	<polygon class="st4" points="1131,34.8 1131.5,32.3 1137.6,34.1 1131.9,32.8 	"/>
	<path class="st4" d="M1126.2,30.8c0,0-1.2,4.8,2,6.6c2.9,1.6,4-1.7,4-1.7s-0.5,3.6-3.9,2.2C1125,36.5,1125.8,32.1,1126.2,30.8z"/>
	<path class="st6" d="M1131.8,40.8c-0.1-0.1-0.6,0.1-1.4,0.2c-0.7,0.1-1.6,0-2.2-0.1c-0.1,0-0.3-0.1-0.5-0.2c-0.1,0-0.2-0.1-0.3-0.1
		c-0.1-0.1-0.2-0.1-0.4-0.2c-0.5-0.3-1-0.6-1.5-1.1c-0.5-0.4-0.9-1-1.3-1.5c-0.1-0.1-0.2-0.2-0.3-0.4c-0.1-0.1-0.1-0.2-0.2-0.4
		c-0.1-0.2-0.2-0.4-0.3-0.6c-0.7-1.4-1-1.5-1.2-1.4c-0.1,0-0.4,0,0.5,1.8c0.2,0.4,0.5,1,0.9,1.5c0.4,0.5,0.8,1,1.3,1.5
		c1,0.9,2.2,1.5,3.2,1.7c0.5,0.1,1.5,0.2,2.4,0C1131.2,41.3,1131.8,40.9,1131.8,40.8z M1121.4,33.1c0.1-0.1,0.6,0.1,0.8,0.8
		c0.2,0.7-0.1,0.7-0.4,0.5c-0.3-0.4-0.4-0.7-0.5-0.9C1121.3,33.3,1121.3,33.2,1121.4,33.1z"/>
</g>
<g>
	<path class="st0" d="M1195.6,36.6c1.2-0.5,1.8-0.2,2-0.1c0.9,0.5,0.9,1.9,0.9,3.3c0,1.3,0,2.2-0.4,3c0,0-0.1,0.1-0.1,0.1
		c-1,1.3-4.6,1.5-10.4,1.1c-2.8-0.2-1.3-0.2-3.7-0.3c-1.4-0.1-2-0.1-2.9-0.4c-0.8-0.3-1.6-0.5-2.2-1.2c-1.4-1.5-1-3.8-0.9-4.3
		c0.2-0.9,0.5-1.9,2.4-4.3c1-1.2,2.3-2.9,4.2-4.7c0.4-0.4,1.1-1.1,1.9-1.9c1-1,1.3-1.3,1.3-1.5c-0.2-0.5-2.4-0.1-3.2,0.1
		c-6.2,1.2-6.7,1-7.1,0.9c-2-1-2.3-5.8-0.8-7c1-0.7,3.1-0.3,4.6-0.6c0.1,0,0.6-0.2,1.3-0.3c0.2,0,0.4-0.1,0.6-0.1
		c1.6-0.2,2.4-0.4,3.3-0.2c2.1,0.4,3.9,1.8,5,3.6c1.1,1.8,1.7,4,0.9,6.1c-0.5,1.4-1.2,2.3-2.5,3.8c-2,2.3-3.6,3.2-3.4,4.2
		c0.1,0.3,0.4,0.6,1.2,1C1190.5,38,1194,37.2,1195.6,36.6z"/>
	<path class="st1" d="M1188,43.4c-2.1,0-4.2,0.1-6.3-0.4c-0.4-0.1-1.4-0.3-2.4-1.2c-0.4-0.3-0.8-0.7-1.1-1.4c-0.2-0.7-0.1-1.3,0-1.8
		c0.5-1.8,1.5-3.3,2.6-4.8c0.7-0.9,1.6-2,2.7-3.2c1-0.9,1.8-1.6,2.3-2.2c0.5-0.5,0.7-0.8,0.8-0.9c0.7-0.8,1.8-2.3,1.4-2.8
		c-0.2-0.3-1.3-0.1-3.5,0.3c-2.4,0.5-3.7,0.7-3.8,0.8c-0.7,0.2-1.3,0.5-2,0.3c-0.6-0.2-1-0.6-1.3-0.9c-0.1-0.1-0.5-0.5-0.9-1.2
		c-0.6-1.1-1.1-3.4-0.1-4.6c0.4-0.5,0.9-0.6,3.4-0.9c3.1-0.4,4.7-0.6,5.8-0.6c2.4-0.1,3.6-0.1,5.2,0.3c1.8,0.4,3.9,1,4.7,2.7
		c0.5,1.2,0.1,2.3-0.2,3.5c0,0-0.7,2.1-4.8,6.3c-0.1,0.1-0.1,0.1-0.1,0.1c-0.2,0.1-0.3,0.2-1.6,1.2c-1.7,1.4-2.6,2-2.9,2.6
		c-0.2,0.4-0.8,1.4-0.4,2.2c0.5,1.2,2.7,1.3,3.5,1.4c4.8,0.2,7-2.7,8.5-1.7c1.3,0.9,1.4,4.2-0.1,5.9c-0.2,0.2-0.4,0.3-0.5,0.4
		C1194.8,44.2,1192.2,43.5,1188,43.4z"/>
	<path class="st2" d="M1185.6,29.9c0.2-0.1,0.3-0.2,0.4-0.3c0.3-0.3,1.8-1.9,2.6-3c0.4-0.6,1.1-1.4,0.8-2c-0.3-0.7-2-0.5-4.3-0.2
		c-0.6,0.1-1.3,0.2-2.9,0.4c-1,0.2-1.5,0.2-1.6,0.3c-0.5,0.2-0.8,0.3-1.2,0.2c-0.3-0.1-0.6-0.3-0.8-0.5c-0.1-0.1-0.6-0.6-1-1.6
		c-0.3-0.8-0.5-1.2-0.3-1.7c0.2-0.5,0.8-0.6,1.5-0.9c2-0.7,1.7-1,3.1-1.4c1.3-0.4,2.3-0.5,3.8-0.5c2.8-0.1,4.6-0.2,6.4,0.8
		c0.8,0.4,2.2,1.1,2.6,2.6c0.3,1-0.1,1.9-0.4,2.9c-0.6,1.5-1.5,2.5-1.9,2.9c-0.4,0.4-0.5,0.4-1.3,1c-1.2,0.9-2,1.8-3.8,3.6
		c-0.7,0.7-1.1,1.1-1.3,1.4c-1,1.2-2,2.4-1.7,3.4c0.4,1.3,3.2,1.9,6.9,1.6c0.5,0,1.4,0,2.3-0.2c1.6-0.4,2.3-1,3-0.6
		c0.5,0.3,0.6,0.9,0.8,1.8c0.1,0.4,0.3,1.4,0.1,2c-0.5,1.3-2.9,0.7-9,1.2c0,0-1.3,0.1-3.9,0.1c-1.4,0-2.1-0.1-2.9-0.4
		c-0.6-0.2-1.5-0.6-2.1-1.5c-0.8-1.2-0.5-2.7-0.4-3c0.2-0.9,0.7-1.5,1.1-2.1c0.6-0.7,1.2-1.3,1.7-2.4
		C1181.9,33.5,1181.4,32.9,1185.6,29.9z"/>
	<path class="st6" d="M1186.4,28.7c0.6-0.4,1.5-1,2.2-2.2c0.5-0.8,1-1.5,0.8-2c-0.2-0.5-1.1-0.6-4.3-0.2c-1.4,0.2-3.3,0.5-5.6,1
		c-0.2-0.1-1.5-0.7-1.8-2.1c-0.4-1.8,1.2-3.2,1.3-3.2c0.2-0.2,0.8-0.5,4-1c0.7-0.1,1.6-0.2,2.8-0.3c3-0.1,7.5-0.3,8.8,2
		c0.4,0.7,0.3,1.3,0.3,2.1c-0.2,3.3-2.9,5.4-3.7,6c-0.6-0.1-1.2-0.2-1.9-0.2C1188.2,28.6,1187.2,28.6,1186.4,28.7z"/>
	<g>
		<path class="st4" d="M1194.8,22.1c-0.3-0.4-0.8-0.9-1.5-1.4c-2.4-1.7-5-1.5-9-1.1c-4.6,0.5-5.6,1.5-6,2.1
			c-0.4,0.6-0.6,1.2-0.7,1.6c-0.7-1.5-0.5-2.3-0.3-2.6c0.2-0.3,0.7-1.2,6.5-1.8c2.1-0.2,3.1-0.3,4.6-0.2c2.2,0.2,5.2,0.4,6.1,2.2
			C1194.8,21.3,1194.8,21.8,1194.8,22.1z"/>
	</g>
	<path class="st4" d="M1187.7,28c-0.8,1-1.2,1.3-2.7,2.7c-1.5,1.4-2.5,2.7-3.2,3.4c-1.5,1.8-2.3,3.1-2.4,3c-0.1-0.1,0.5-1.1,1-1.9
		c0.8-1.2,1.5-2.1,2.2-2.8c1.5-1.7,2.2-2.2,3.8-3.8c0.7-0.6,1.6-1.6,2.7-2.9C1188.8,26.4,1188.4,27.1,1187.7,28z"/>
	<path class="st4" d="M1184.7,37.8c-0.2-0.3-0.3-0.7-0.3-0.7c-0.3-1.2,0.8-2.4,1-2.6c-0.6,0.7-0.8,1.7-0.5,2.4
		c0.2,0.4,0.5,0.7,0.7,0.8c0.4,0.2,0.9,0.3,1.5,0.5c1.3,0.3,2.4,0.4,3.3,0.4C1190.1,38.8,1185.9,39.4,1184.7,37.8z"/>
	<path class="st6" d="M1189,42.2c-0.3,0-1.2,0.1-3.1,0.1c-1.7,0-2,0.1-2.6,0c-1.2-0.1-1.9-0.2-2.6-0.7c-0.7-0.5-1-1.3-1.2-1.7
		c0.8,0.7,1.5,1.1,2.1,1.3c0.1,0,0.3,0.1,1.2,0.2c0.6,0.1,1.3,0.2,2.4,0.3c0.7,0.1,1.9,0.2,3.6,0.1c0.9,0,2-0.1,3.4-0.2
		C1191.4,41.8,1190.3,42,1189,42.2z M1179.5,38.4C1179.5,38.4,1179.5,38.4,1179.5,38.4c-0.1,0.4,0,0.9,0.1,0.9
		c0.1,0,0.3-0.2,0.3-0.2c0.2-0.2,0.1-0.4,0.1-0.7c0-0.7,0.1-1,0-1C1179.9,37.3,1179.6,37.9,1179.5,38.4z"/>
</g>
<g>
	<path class="st0" d="M1211.6,18.7c-3.8,0-7.5,1.8-9.6,5c-1,1.5-1.6,3.3-1.7,5.1c-0.1,2.3,0.6,4.5,1.9,6.4c0.6,0.8,1.1,1.7,1.8,2.4
		c0.7,0.7,1.5,1.3,2.3,1.7c1.8,1,3.9,1.6,6.1,1.6c3.8,0.1,7.7-1.3,10.2-4.3c2.5-3,3-7.3,1.3-10.9c-0.5-1-1.1-1.8-1.8-2.6
		c-0.8-0.9-1.9-1.5-2.9-2.2c-1.9-1.3-4.2-2-6.4-2.2C1212.4,18.7,1212,18.7,1211.6,18.7z M1210.4,33.5c-0.5,0-1.1-0.1-1.6-0.3
		c-0.5-0.2-0.8-0.7-1-1.2c-0.4-0.9-0.4-1.8-0.1-2.7c0.6-1.7,2.4-2.8,4.2-2.7c0.5,0,1,0.1,1.4,0.3c0.4,0.2,1.1,0.5,1.2,0.9
		c0.4,0.9,0.4,1.9,0,2.9C1213.9,32.5,1212.2,33.5,1210.4,33.5z"/>
	<path class="st1" d="M1200.2,29.4c0,5.7,4.9,10,11.4,10c6.5,0,11.7-4.5,11.8-10.2c0-2.8-0.9-5.2-2.7-7.1c-2.1-2.2-5.4-3.4-9.1-3.4
		C1205.3,18.7,1200.2,23.5,1200.2,29.4z M1210.4,25.2c2.4,0,4.4,1.9,4.4,4.2c0,2.3-2,4.2-4.4,4.2c-2.4,0-4.4-1.9-4.4-4.2
		C1206,27.1,1208,25.2,1210.4,25.2z"/>
	<path class="st2" d="M1211.6,19.5c-5.9,0-10.6,4.4-10.6,9.9c0,5.5,4.8,9.3,10.6,9.3c5.9,0,11-4,11-9.4
		C1222.8,22.9,1217.5,19.5,1211.6,19.5z M1210.4,34.3c-2.8,0-5.1-2.2-5.1-4.9c0-2.7,2.3-4.9,5.1-4.9c2.8,0,5.1,2.2,5.1,4.9
		C1215.5,32.1,1213.2,34.3,1210.4,34.3z"/>
	<g class="st3">
		<path class="st2" d="M1201.6,31.4c1.6,0.4,3.2,0.9,4.8,1.1c-0.8-0.9-1.2-2-1.2-3.2c0-2.7,2.3-4.9,5.1-4.9c2.8,0,5.1,2.2,5.1,4.9
			c0,0.9-0.2,1.7-0.7,2.4c2.6-0.9,5.2-2,7.8-3c-0.1-6.1-5.3-9.3-11-9.3c-5.9,0-10.6,4.4-10.6,9.9c0,0.7,0.1,1.3,0.2,1.9
			C1201.3,31.4,1201.5,31.4,1201.6,31.4z"/>
	</g>
	<g>
		<path class="st4" d="M1211.6,20.3c5.5,0,10.4,2.9,11,8.5c0,0,0,0,0.1,0c-0.1-6.1-5.3-9.3-11-9.3c-5.9,0-10.6,4.4-10.6,9.9
			c0,0.1,0,0.3,0,0.4C1201.2,24.5,1205.9,20.3,1211.6,20.3z"/>
	</g>
	<path class="st4" d="M1205.7,31.3c0,0,1.4,3,4.7,3c3.3,0,4.6-2.9,5-4c0,0-0.3,4.6-5.3,4.3C1206.4,34.4,1205.7,31.3,1205.7,31.3z"/>
	<path class="st5" d="M1208.2,37.3c-0.1,0.1,0.6,0.5,1.4,0.7c0.9,0.2,2,0.3,2.7,0.3c0.8,0,2.3-0.2,3.8-0.9c0.8-0.3,1.5-0.7,2.1-1.1
		c0.6-0.4,1.1-0.8,1.5-1.2c0.7-0.6,0.9-1.1,1.1-1.4c0.1-0.3,0-0.4,0-0.4c-0.1-0.1-0.1-0.1-0.3,0c-0.1,0.1-0.2,0.2-0.4,0.4
		c-0.1,0.1-0.2,0.2-0.4,0.4c-0.1,0.1-0.3,0.3-0.5,0.5c-0.2,0.2-0.4,0.4-0.6,0.6c-0.2,0.2-0.5,0.4-0.8,0.6c-0.6,0.4-1.2,0.7-1.8,1
		c-1.3,0.6-2.7,0.8-3.6,0.8c-0.3,0-0.6,0-1.1,0c-0.2,0-0.4,0-0.7,0c-0.2,0-0.5,0-0.7-0.1C1209,37.3,1208.2,37.1,1208.2,37.3z
		 M1221.7,31.3c0.1,0,0.2,0.1,0.2,0.3c0,0.1,0,0.1,0,0.2c0,0.1,0,0.1,0,0.2c0,0.2-0.1,0.3-0.2,0.5c-0.4,0.7-0.7,0.4-0.6,0.1
		c0.1-0.2,0.1-0.5,0.1-0.6c0-0.2,0.1-0.3,0.1-0.4C1221.5,31.4,1221.6,31.3,1221.7,31.3z"/>
</g>
<g>
	<path class="st0" d="M1228.1,41.5c0.1,0.2,0.3,0.5,0.5,0.7c0.1,0.2,0.3,0.5,0.5,0.6c0.2,0.1,0.4,0.2,0.6,0.2c0.5,0.1,1,0.2,1.5,0.3
		c1.3,0.2,2.6,0.5,3.8,0.7c0.6,0.1,1.3,0,1.6-0.7c0.1-0.3,0.1-0.7,0.1-1c0.2-1.4,0.3-2.7,0.5-4.1c0.1-0.8,0.2-1.5,0.3-2.3
		c0.2,0.5,0.4,0.9,0.6,1.4c0.3,0.7,0.8,1.4,1.3,2c0.6,0.7,1.6,0.4,2-0.4c0.2-0.5,0.4-1,0.6-1.5c0.1,0.4,0.1,0.9,0.2,1.3
		c0.1,0.7,0.1,1.4,0.2,2c0,0.1,0,0.2,0,0.4c0,0.3,0.2,0.5,0.4,0.8c0.1,0.1,0.9,1.3,1.1,1.4c0.2,0.1,0.5,0.2,0.7,0.1
		c2.4-0.2,4.8-0.4,7.1-0.6c0.9-0.1,2.1-0.1,1.9-1.4c-0.1-0.5-0.1-1-0.2-1.5c-0.3-2.5-0.6-4.9-0.9-7.4c-0.3-2.8-0.7-5.7-1-8.5
		c-0.1-1-0.2-1.9-0.3-2.9c0-0.4,0-0.9-0.2-1.3c-0.2-0.5-0.7-0.8-1.2-1.1c-0.3-0.2-0.7-0.6-1.2-0.7c-0.3,0-0.7,0-1-0.1
		c-1.4-0.1-2.8-0.2-4.2-0.3c-0.7,0-2.3-0.5-2.6,0.4c-0.4,1.1-0.8,2.2-1.2,3.3c-0.1,0.2-0.2,0.5-0.3,0.7c-0.1-0.5-0.3-1-0.5-1.5
		c-0.1-0.5-0.2-1.2-0.6-1.6c-0.2-0.2-0.4-0.4-0.6-0.5c-0.2-0.2-0.5-0.4-0.7-0.5c-0.2-0.2-0.6-0.4-0.9-0.4c-0.5,0-1.1,0-1.6,0
		c-0.7,0-1.4,0-2.1,0c-0.5,0-1.1,0-1.3,0.6c-0.1,0.4-0.1,0.8-0.2,1.2c-0.9,5.2-1.7,10.4-2.5,15.5c-0.2,1.3-0.4,2.6-0.6,3.8
		C1227.7,40,1227.4,40.9,1228.1,41.5C1228.1,41.6,1228,41.4,1228.1,41.5z"/>
	<path class="st1" d="M1228.3,41.5l5.7,1.1c0,0,0.1,0,0.1,0c0.2,0,0.3-0.1,0.5-0.2c0.2-0.1,0.3-0.3,0.3-0.6l1.1-9l2.2,5
		c0.1,0.3,0.4,0.5,0.7,0.5h0c0.3,0,0.6-0.2,0.7-0.5l1.8-4.3l0.9,7.8c0,0.4,0.4,0.7,0.9,0.7l8.1-0.6c0.2,0,0.4-0.1,0.6-0.3
		c0.1-0.2,0.2-0.4,0.2-0.6l-2.5-21.4c0-0.4-0.4-0.7-0.8-0.7l-7-0.4c-0.4,0-0.7,0.2-0.8,0.5l-2.1,5.9l-1.8-5.8
		c-0.1-0.3-0.4-0.6-0.8-0.6h-4.3c-0.4,0-0.7,0.3-0.8,0.7l-3.6,21.7C1227.6,41,1227.9,41.4,1228.3,41.5z"/>
	<polygon class="st2" points="1234.2,41.8 1228.5,40.7 1232,18.9 1236.4,18.9 1238.8,27 1241.8,18.8 1248.8,19.3 1251.3,40.7 
		1243.2,41.3 1242,30.4 1239,37.5 1235.6,29.8 	"/>
	<path class="st6" d="M1231.4,28.5c3.4,0.8,6.8,1.8,10.2,2.1c0.1,0,0.2,0,0.2,0l0.1-0.2l0,0.2c2.7,0.2,5.4-0.1,8-0.7l-1.2-10.6
		l-7-0.4l-2.9,8.2l-2.5-8.1h-4.3l-1.5,9.4C1230.8,28.4,1231.1,28.4,1231.4,28.5z"/>
	<path class="st4" d="M1248.8,19.3l-7-0.4l-2.9,8.2l-2.5-8.1h-4.3l-1,6.2l1.4-5.4h3.6l2.8,8.3l3.3-8.4l6.3,0.7c0,0,1.5,9.6,1.7,9.5
		L1248.8,19.3z"/>
	<path class="st7" d="M1230.2,40.3c0,0.2,0.4,0.4,1,0.5c0.3,0.1,0.6,0.2,1,0.2c0.2,0,0.3,0.1,0.5,0.1c0.2,0,0.2,0,0.6,0.1l0.7,0.1
		l0.5-5.8c0.1-1.3-0.2-1.5-0.4-1.5c-0.2,0-0.4-0.1-0.5,1.4l-0.4,4.9c-0.2,0-0.4-0.1-0.7-0.1c-0.3,0-0.7-0.1-1-0.1
		C1230.8,40.2,1230.3,40.2,1230.2,40.3z M1234.2,32.5c0.2,0,0.5,0.3,0.5,0.8c-0.1,0.6-0.5,0.4-0.6,0.2
		C1233.7,32.8,1234,32.5,1234.2,32.5z"/>
	<path class="st7" d="M1244.7,40.4c0,0.3,2.2,0.2,3.4,0l2.6-0.4l-0.4-4.6c-0.1-1.5-0.4-1.6-0.6-1.6c-0.2,0-0.4-0.1-0.2,1.7l0.3,3.8
		l-1.8,0.2C1247.1,39.7,1244.6,40.1,1244.7,40.4z M1249.5,32c0.1,0,0.6,0.2,0.6,0.8c0,0.6-0.4,0.6-0.5,0.3
		C1249.1,32.4,1249.3,32.1,1249.5,32z"/>
</g>
<g>
	<path class="st0" d="M1257.2,42.4c0.1,0.2,0.3,0.5,0.5,0.7c0.1,0.2,0.3,0.5,0.5,0.6c0.5,0.4,1.3,0.4,1.9,0.5
		c1.3,0.2,2.5,0.3,3.8,0.4c2.2,0.1,4.5,0.1,6.6-0.6c2.5-0.7,4.6-2.4,5.1-5.1c0.3-1.5,0.1-3-0.4-4.5c-0.4-1-0.9-1.8-1.6-2.6
		c-0.8-0.9-1.8-1.5-2.7-2.1c1.1-1.8,1.4-4,0.4-5.9c-1-1.8-2.7-2.9-4.3-4c-1.8-1.3-4.2-1.5-6.4-1.2c-0.6,0.1-1.2,0.2-1.8,0.4
		c-0.5,0.1-1.4,0.3-1.7,0.8c-0.1,0.2-0.1,0.4-0.1,0.5c0,1.7,0,3.3,0,5c0,5-0.1,10-0.1,14.9C1256.9,41,1256.7,41.8,1257.2,42.4
		C1257.3,42.5,1257.2,42.3,1257.2,42.4z M1263.6,26.9c0-0.2,0-0.3,0-0.5c0.2,0,0.2,0,0.2,0.2C1263.7,26.7,1263.7,26.8,1263.6,26.9z
		 M1265.6,36.4c-0.1,0.5-0.7,0.8-1.1,1c0-0.5-0.1-1-0.1-1.6c0.3,0,0.6,0,0.8,0.1C1265.5,36,1265.7,36,1265.6,36.4
		C1265.5,36.8,1265.6,36.3,1265.6,36.4z"/>
	<path class="st1" d="M1257.5,42.4c1.8,0.4,3.6,0.6,5.2,0.7c0.6,0,1.1,0.1,1.7,0.1c8,0,9.8-3.7,9.9-6.7c0.1-3.1-1.9-6.5-5.2-7.5
		c0.7-0.9,1.4-2.3,1.3-3.9c-0.1-1.9-1.3-3.7-3.6-5.2c-1.6-1.1-3.7-1.5-6.1-1.1c-1,0.1-2.1,0.4-3.2,0.8c-0.3,0.1-0.5,0.4-0.5,0.7
		l-0.2,21.5C1256.8,42,1257.1,42.3,1257.5,42.4z M1262,24.8c1.8,0.1,1.8,1,1.8,1.4c0,0.7-0.5,1.3-1.5,1.5L1262,24.8z M1265.6,36.4
		c-0.2,0.6-1.1,1.1-2.5,1.3c-0.1-1.1-0.2-2.2-0.3-3.4c0.9,0,1.6,0.2,2,0.5C1265.3,35.1,1265.8,35.8,1265.6,36.4z"/>
	<path class="st2" d="M1267.6,29.4c0,0,5.3-4.6-1.2-9c-1.6-1.1-3.5-1.3-5.6-1c-1,0.2-2,0.4-3,0.8c0,5.1-0.1,15.6-0.2,21.5
		c1.4,0.3,3.2,0.5,5.1,0.7c5,0.3,10.6-0.6,10.8-5.9C1273.6,33.1,1271.2,29.7,1267.6,29.4z M1264.6,26.2c0,1.7-1.7,2.3-3,2.5
		c-0.1-1.6-0.3-3.2-0.4-4.6C1262.7,24,1264.6,24.3,1264.6,26.2z M1262.4,38.5c-0.1-1.6-0.3-3.3-0.4-5c1.1-0.1,2.4,0,3.3,0.6
		C1266.8,35.3,1267.5,38.1,1262.4,38.5z"/>
	<g class="st8">
		<path class="st2" d="M1264.2,30.5c2.4-0.1,4.8,0,7.1,0.7c0,0,0,0,0.1,0c-1-1-2.3-1.7-3.8-1.8c0,0,5.3-4.6-1.2-9
			c-1.6-1.1-3.5-1.3-5.6-1c-1,0.2-2,0.4-3,0.8c0,2.7-0.1,6.9-0.1,11.2C1259.8,30.9,1262,30.6,1264.2,30.5z M1264.6,26.2
			c0,1.7-1.7,2.3-3,2.5c-0.1-1.6-0.3-3.2-0.4-4.6C1262.7,24,1264.6,24.3,1264.6,26.2z"/>
	</g>
	<g>
		<path class="st9" d="M1266.1,21.3c1.9,1.3,2.9,2.8,3,4.3c0.1,2.3-1.8,4-1.9,4l0,0c0.5,0,1.1,0.1,1.6,0.2c0.6,0.1,1.1,0.3,1.7,0.5
			c-0.8-0.6-1.8-1-2.9-1.1c0,0,5.3-4.6-1.2-9c-1.6-1.1-3.5-1.3-5.6-1c-1,0.2-2,0.4-3,0.8c0,1.8,0,4.3-0.1,7c0,1.3,0.5-6.1,0.5-6.1
			c0.9-0.3,1.8-0.5,2.7-0.7c0.5-0.1,1.1-0.1,1.6-0.1C1263.9,20.3,1265.1,20.6,1266.1,21.3z"/>
	</g>
	<g>
		<path class="st9" d="M1264.1,24.9c0.3,0.3,0.5,0.8,0.5,1.4c0,1.7-1.7,2.3-3,2.5c-0.1-1.6-0.3-3.1-0.4-4.4h0l0.2,4.8l0.5-0.1
			c2.2-0.3,2.9-1.1,2.9-2.6C1264.7,25.8,1264.6,25.4,1264.1,24.9z"/>
	</g>
	<path class="st6" d="M1259.5,41.1c0,0.1,0.2,0.2,0.5,0.3c0.2,0.1,0.4,0.1,0.6,0.2c0.2,0.1,0.5,0.1,0.7,0.2c0.5,0.1,1.1,0.2,1.7,0.2
		c0.3,0,0.6,0,0.8,0c0.3,0,0.5,0,0.7,0c0.9,0,2.8-0.2,4.6-0.8c0.5-0.2,0.9-0.4,1.4-0.7c0.4-0.3,0.8-0.6,1.1-1c0.6-0.7,0.9-1.5,1-2.1
		c0.1-0.6,0.2-1,0.1-1.4c0-0.3-0.1-0.6-0.1-0.8c-0.1-0.3-0.2-0.4-0.3-0.4c-0.1,0-0.2,0-0.2,0.2c0,0.2,0,0.4-0.1,0.7
		c0,0.3-0.1,0.8-0.2,1.4c-0.1,0.6-0.4,1.3-0.9,1.9c-0.2,0.3-0.6,0.5-0.9,0.8c-0.3,0.2-0.7,0.4-1.1,0.5c-1.6,0.6-3.3,0.8-4.5,0.8
		c-0.3,0-0.8,0-1.3,0c-0.3,0-0.5,0-0.8,0c-0.3,0-0.6,0-0.8,0c-0.5,0-1-0.1-1.4-0.1C1259.8,41,1259.6,41,1259.5,41.1z M1271.5,32.2
		c0.1-0.1,0.6,0.1,1,1.1c0.1,0.5,0.1,0.7,0,0.8c-0.1,0.1-0.3,0-0.4-0.2c-0.3-0.5-0.5-0.9-0.6-1.1
		C1271.4,32.5,1271.4,32.3,1271.5,32.2z"/>
</g>
<g>
	<path class="st0" d="M1280.2,17.9c-0.3,0.3-0.2,0.8-0.2,1.1c0,0.6,0,1.2,0,1.8c0,1.1,0,2.2,0.1,3.3c0,0.3,0.1,0.5,0.3,0.7
		c0.3,0.4,0.6,1.1,1,1.4c0.5,0.4,1.3,0.2,1.8,0.2c0.3,0,0.3,0,0.3,0.3c0,0.4,0,0.9,0.1,1.4c0.1,2.3,0.2,4.6,0.3,6.9
		c0,0.2-0.6,0.1-0.8,0.1c-0.5,0-1.1,0.1-1.6,0.1c-0.7,0-0.7,0.6-0.7,1.2c0.1,0.5,0.1,1.1,0.2,1.6c0.1,1.1,0.3,2.3,0.4,3.4
		c0,0.3,0.2,0.4,0.3,0.7c0.2,0.2,0.3,0.5,0.5,0.7c0.2,0.2,0.3,0.5,0.5,0.7c0.4,0.3,0.8,0.2,1.2,0.2c2.4-0.3,4.8-0.6,7.2-1
		c0.6-0.1,1.3-0.1,1.9-0.3c0.9-0.4,0.6-1.9,0.6-2.7c0-1,0-2-0.1-2.9c0-0.8-0.8-1-1.3-1.5c-0.2-0.2-0.7-0.6-1-0.5c-0.2,0-0.4,0-0.6,0
		c0.1-2.1,0.1-4.2,0.2-6.4c0-0.5,0-1,0.1-1.5c0-0.1-0.1-0.5,0.1-0.5c0.6,0,1.1,0,1.7,0c0.7,0,1.1-0.6,1.1-1.3c0-1.1,0-2.2-0.1-3.3
		c0-0.6,0-1.2,0-1.8c0-0.4,0-0.8-0.2-1.1c-0.1-0.2-1.6-1.3-2-1.4c-0.2,0-0.4,0-0.6,0c-1.1,0-2.2,0-3.2,0c-1.6,0-3.1,0-4.7,0
		c-0.5,0-1.1,0-1.6,0C1280.9,17.7,1280.5,17.6,1280.2,17.9C1280.1,18,1280.3,17.7,1280.2,17.9z"/>
	<path class="st1" d="M1280.2,17.9c-0.1,0.1-0.2,0.3-0.2,0.5l0.1,5.7c0,0.4,0.3,0.8,0.8,0.8h2.6l0.4,10.2l-2.4,0.1
		c-0.2,0-0.4,0.1-0.5,0.3c-0.1,0.2-0.2,0.4-0.2,0.6l0.6,5.4c0,0.2,0.1,0.4,0.3,0.5c0.1,0.1,0.3,0.2,0.5,0.2c0,0,0.1,0,0.1,0l9.1-1.2
		c0.4,0,0.7-0.4,0.7-0.8l-0.1-4.7c0-0.2-0.1-0.4-0.2-0.5c-0.2-0.1-0.4-0.2-0.6-0.2l-2.2,0.1l0.3-9.9h2.1h0c0.4,0,0.8-0.3,0.8-0.8
		c0,0,0-0.1,0-0.1l-0.1-5.7c0-0.4-0.3-0.8-0.8-0.8l-10.5,0.1C1280.5,17.7,1280.3,17.7,1280.2,17.9z"/>
	<polygon class="st2" points="1288.1,35.7 1288.5,24.2 1291.4,24.2 1291.3,18.3 1280.7,18.4 1280.8,24.2 1284.2,24.2 1284.7,35.8 
		1281.6,36 1282.2,41.4 1291.3,40.2 1291.2,35.5 	"/>
	<g class="st3">
		<path class="st2" d="M1284.2,24.2l0.2,4.6c1.3,0.1,2.6,0.2,4,0.3l0.2-4.9h2.8l-0.1-5.8l-10.5,0.1l0.1,5.7H1284.2z"/>
	</g>
	<g>
		<polygon class="st4" points="1281.2,19.2 1291.1,19.1 1291.3,21.2 1291.3,18.3 1280.7,18.4 1280.8,22.4 		"/>
	</g>
	<polygon class="st4" points="1284.7,35 1284.8,36.2 1282,36.5 1282,40.1 1281.6,36 1284.7,35.8 	"/>
	<polygon class="st4" points="1288.1,35 1288.1,35.9 1291,35.9 1291.3,39.9 1291.2,35.5 1288.2,35.6 	"/>
	<path class="st5" d="M1282.5,40.7c0,0.3,1.8,0.2,2.7,0c0.9-0.1,3.9-0.6,5-0.8c0.2,0,0.5-0.1,0.7-0.1c0-0.2,0-0.4,0-0.6
		c0-0.1,0-0.1,0-0.2c0,0,0-0.1,0-0.1c0-0.1-0.1-0.2-0.1-0.3c-0.1-0.1-0.2-0.2-0.3-0.2c-0.1,0-0.1,0-0.2,0.1c0,0.1-0.1,0.1-0.1,0.3
		c0,0.1,0,0.2,0,0.3c0,0,0,0,0,0c0,0,0,0,0,0c-1.4,0.2-3.8,0.6-5,0.8C1284.5,40,1282.5,40.4,1282.5,40.7z M1290.5,37
		c0.1,0,0.5,0.2,0.5,0.7c0,0.5-0.4,0.4-0.5,0.2C1290.1,37.3,1290.3,37,1290.5,37z"/>
</g>
<g>
	<path class="st0" d="M1302,40.7c0.1,0.2,0.3,0.5,0.5,0.7c0.1,0.2,0.3,0.5,0.5,0.7c0.2,0.3,0.5,0.4,0.9,0.4c0.2,0,0.5,0,0.7,0
		c1.2,0,2.3,0,3.5,0c2.4,0,4.8,0,7.3,0c0.4,0,0.8,0,1.1-0.4c0.4-0.4,0.3-0.9,0.3-1.4c0-1.3,0.1-2.5,0.1-3.8c0-0.2,0-0.4-0.1-0.5
		c-0.2-0.5-0.7-0.7-1.1-1c-0.5-0.4-1-0.7-1.6-0.7c-0.7,0-1.3,0-2,0c-0.2,0-0.5,0-0.7,0c-0.2,0-0.1-0.3-0.1-0.5c0-0.1,0-0.3,0-0.4
		c1.1,0,2.2,0.1,3.3,0.1c0.4,0,0.9,0.1,1.2,0c0.6-0.2,0.7-0.8,0.8-1.4c0.1-1.3,0.2-2.5,0.4-3.8c0-0.2,0-0.3,0-0.5
		c-0.1-0.6-0.5-0.7-0.9-1c-0.3-0.3-0.7-0.5-1-0.7c-0.2-0.2-0.5-0.2-0.7-0.2c-0.6,0-1.3,0-1.9-0.1c-0.2,0-1.1,0.1-1.1-0.1
		c0-0.1,0-0.6,0-0.6c0.1,0,0.3,0,0.4,0c0.6,0,1.2,0,1.8,0c1,0,2.1,0.1,3.2,0c1.4-0.2,1-2,1-2.9c0-1.3,0-2.6-0.1-3.8
		c0-0.6-0.2-1-0.7-1.4c-0.3-0.2-0.7-0.5-1-0.7c-0.3-0.2-0.5-0.3-0.8-0.3c-1.9,0.2-3.8,0.3-5.7,0.5c-2.6,0.2-5.3,0.4-7.9,0.7
		c-0.5,0-1.5,0-1.8,0.5c-0.2,0.4-0.1,1,0,1.4c0.5,5.1,1,10.2,1.5,15.3c0.1,1.3,0.3,2.6,0.4,3.9C1301.7,39.3,1301.6,40.3,1302,40.7
		C1302,40.8,1301.9,40.6,1302,40.7z"/>
	<path class="st1" d="M1302.6,41h11.7c0.4,0,0.8-0.3,0.8-0.8l0.1-4.6c0-0.2-0.1-0.4-0.2-0.6c-0.1-0.2-0.3-0.2-0.6-0.2l-4.7-0.1
		l-0.1-2.4l4.5,0.2c0.4,0,0.8-0.3,0.8-0.7l0.4-4.4c0-0.2,0-0.4-0.2-0.6c-0.1-0.2-0.4-0.3-0.6-0.3l-4.9-0.2V24h5.6
		c0.2,0,0.4-0.1,0.6-0.2c0.1-0.2,0.2-0.4,0.2-0.6l-0.1-6c0-0.2-0.1-0.4-0.3-0.6c-0.2-0.2-0.4-0.2-0.6-0.2l-14.8,1.3
		c-0.2,0-0.4,0.1-0.5,0.3c-0.1,0.2-0.2,0.4-0.2,0.6l2.1,21.7C1301.8,40.6,1302.2,41,1302.6,41z"/>
	<polygon class="st2" points="1315.3,17.2 1315.4,23.2 1309,23.2 1309,27 1314.6,27.2 1314.2,31.6 1308.9,31.4 1309,35.5 
		1314.4,35.6 1314.3,40.2 1302.6,40.2 1300.4,18.5 	"/>
	<path class="st6" d="M1302.4,31.4c1.8,0.2,3.5,0.3,5.4,0c1.3-0.2,2.7-0.5,4.4-1.1c0.7-0.2,1.5-0.5,2.1-0.7l0.2-2.4L1309,27v-3.8
		h6.4l-0.1-6l-14.8,1.3l1.3,12.9C1301.9,31.4,1302.2,31.4,1302.4,31.4z"/>
	<path class="st4" d="M1308.7,27.3l5.6,0.3c0,0,0,0.7,0.1,2l0.2-2.4L1309,27v-3.7L1308.7,27.3z"/>
	<polygon class="st4" points="1301.1,19.3 1314.8,18 1315.4,23.2 1315.3,17.2 1300.4,18.5 1301.2,26.6 	"/>
	<polygon class="st4" points="1308.9,31.4 1309,35.5 1314.4,35.6 1314.4,37.4 1314.1,36 1308.6,35.8 	"/>
	<path class="st6" d="M1313.2,39.9c0-0.3-2.7-0.6-4.1-0.7l-5.3-0.3l-0.1-1.8c-0.1-1.8-0.5-2-0.6-2c-0.2,0-0.4-0.1-0.2,2l0.2,2.5
		l6,0.4C1310.1,40.1,1313.2,40.2,1313.2,39.9z M1302.9,32.8c0.1-0.1,0.6,0.2,0.6,1c0,0.8-0.4,0.7-0.5,0.4
		C1302.6,33.3,1302.8,32.8,1302.9,32.8z"/>
</g>
</svg>
