<?xml version="1.0" encoding="utf-8"?>
<!-- Generator: Adobe Illustrator 24.0.2, SVG Export Plug-In . SVG Version: 6.00 Build 0)  -->
<svg version="1.1" id="Capa_1" xmlns="http://www.w3.org/2000/svg" xmlns:xlink="http://www.w3.org/1999/xlink" x="0px" y="0px"
	 viewBox="0 0 233 39" style="enable-background:new 0 0 233 39;" xml:space="preserve">
<style type="text/css">
	.st0{fill:#362E17;}
	.st1{fill:#964515;}
	.st2{fill:#F2B006;}
	.st3{opacity:0.8;fill:#F2B006;enable-background:new    ;}
	.st4{fill:#FFFFFF;}
	.st5{fill:#F7EC6A;}
	.st6{opacity:0.59;fill:#F2B006;enable-background:new    ;}
	.st7{opacity:0.8;}
	.st8{opacity:0.7;}
	.st9{fill:#FABA4B;}
</style>
<g>
	<path class="st0" d="M-941.5,14.9c0.3,0.4,0.8,0.8,1.2,1.1c0.2,0.3,0.5,0.4,0.9,0.4c0.5,0,0.9,0.1,1.3,0.1c1.6,0.2,3.1,0.3,4.7,0.5
		c1,0.1,2.9,0.7,3.2-0.7c0.2-0.7,0.1-1.3,0.6-1.9c0.3-0.3,0.7-0.5,1.1-0.6c0.3-0.1,0.6,0,0.8,0c0.3,0,0.2,0.4,0.2,0.7
		c-0.1,3-3,5.5-5.4,6.9c-1,0.6-2.1,1.1-3.3,1.5c-0.6,0.2-1.3,0.4-1.9,0.6c-0.6,0.2-1.4,0.2-1.8,0.8c-0.3,0.4-0.2,0.9-0.2,1.4
		c0.1,0.6,0.1,1.3,0.2,1.9c0.2,1.5,0.3,2.9,0.5,4.4c0.1,0.5,0.1,1.1,0.6,1.4c0.3,0.4,0.8,0.8,1.2,1.1c0.5,0.5,1,0.6,1.6,0.6
		c5-0.4,10.1-0.2,15.2,0c1.1,0.1,1.4-0.7,1.5-1.6c0.1-1.1,0.2-2.2,0.3-3.4c0.1-0.9,0.2-1.9,0.3-2.8c0.1-0.7-0.3-1.1-0.8-1.5
		c-0.3-0.3-0.7-0.6-1-0.9c-0.4-0.4-0.7-0.5-1.3-0.5c1.8-1.8,3.3-4,4-6.5s0.5-5.4-0.6-7.8c-0.9-2-2.6-3.5-4.3-4.9
		c-1.9-1.6-4.4-2.4-6.8-2.6c-3.1-0.3-6.3,0.7-8.7,2.6c-1.3,1.1-2.4,2.5-3.1,4.1c-0.4,0.9-0.7,1.8-0.8,2.8
		C-942.2,13-942.5,14.2-941.5,14.9C-941.5,15-941.6,14.9-941.5,14.9z"/>
	<path class="st1" d="M-933.4,15.1c0.2,0,0.5-0.1,0.7-0.2c0.2-0.2,0.3-0.4,0.3-0.7s0.2-2.6,2.4-2.6c0.3,0,0.7,0,1.1,0.1
		c1.3,0.3,1.5,1.5,1.5,2.2c0,2.8-3.1,7.7-11.9,9.7c-0.4,0.1-0.7,0.5-0.7,1l0.8,7.4c0.1,0.5,0.4,0.8,0.9,0.8h0.1
		c1.6-0.2,3.8-0.2,6.5-0.2c4.6,0,9.2,0.2,9.2,0.2c0.5,0,0.9-0.3,0.9-0.8l0.6-6.8c0-0.2-0.1-0.5-0.2-0.7c-0.2-0.2-0.4-0.3-0.7-0.3
		c-1.2,0-2.7-0.1-4.3-0.1c3-2.4,6.5-6.2,6.4-11.2c-0.1-8.3-7.3-10.4-11.1-10.4c-0.1,0-0.2,0-0.3,0c-4.9,0.2-10.8,3.1-11.3,10.8
		c0,0.5,0.3,0.9,0.8,1L-933.4,15.1z"/>
	<path class="st2" d="M-920.5,12.9c-0.1-8.1-7.4-9.6-10.4-9.5s-9.9,1.6-10.4,9.9l8,0.9c0,0,0.1-4.3,4.6-3.3s2.8,10.6-10.4,13.7
		l0.8,7.4c5.6-0.5,15.9,0,15.9,0l0.6-6.8c-1.8-0.1-4.4-0.2-7-0.2C-925.9,23.2-920.5,18.9-920.5,12.9z"/>
	<path class="st3" d="M-928.7,10.9c2.2,0.5,2.9,2.9,1.6,5.7c1.8,0.3,3.7,0.7,5.5,0.9c0.7-1.4,1.1-2.9,1.1-4.6
		c-0.1-8.1-7.4-9.6-10.4-9.5s-9.9,1.6-10.4,9.9l8,0.9C-933.3,14.2-933.2,9.9-928.7,10.9z"/>
	<g>
		<path class="st4" d="M-930.9,4.5c3-0.1,10,1.4,10.4,9.1c0-0.2,0-0.4,0-0.7c-0.1-8.1-7.4-9.6-10.4-9.5s-9.9,1.6-10.4,9.9h0.1
			C-940.2,6-933.8,4.6-930.9,4.5z"/>
	</g>
	<g>
		<path class="st4" d="M-922.3,30.5l0.5-5.3c-1.5,0-4.9-0.2-7-0.2c-0.6,0.3-1,0.5-1.2,0.4c2.3,0.1,5.9,0.1,7.9,0.1
			C-921.9,25.5-922.4,30.5-922.3,30.5z"/>
	</g>
	<g>
		<path class="st4" d="M-926.5,14.5c-0.4,3.4-4.1,8.1-12.6,10.1l0.7,6.5c0.2,0-0.3-5.6-0.1-5.6c0.2-0.1,0.5-0.1,0.7-0.2
			C-929.3,22.9-926.1,17.7-926.5,14.5z"/>
	</g>
	<path class="st5" d="M-937.3,31.1c0,0.4,3,0.2,4.6,0.1c0.8-0.1,2.5-0.1,4.2-0.1c0.8,0,1.7,0.1,2.5,0.1s1.5,0.1,2,0.1
		c0.4,0,0.7,0,1,0c0.1,0,0.2,0,0.3,0l0,0v-0.1c0-0.1,0-0.1,0-0.1c0-0.2,0-0.3,0-0.5c0-0.1,0-0.1,0-0.2v-0.1c0-0.1,0-0.1,0-0.2
		s0-0.2-0.1-0.3c-0.1-0.3-0.2-0.4-0.3-0.4c-0.1,0-0.2-0.1-0.3,0.2c0,0.1-0.1,0.3-0.1,0.7v0.1l0,0l0,0l0,0l0,0c-0.1,0-0.2,0-0.4,0
		c-0.6,0-1.3-0.1-2.1-0.1s-1.6-0.1-2.4-0.1c-0.8,0-1.6,0-2.3,0s-1.4,0-2,0.1C-933.9,30.3-937.3,30.8-937.3,31.1z M-923.1,26.9
		c0.2-0.1,0.6,0.3,0.6,1.2s-0.5,0.7-0.6,0.4C-923.6,27.4-923.3,27-923.1,26.9z"/>
</g>
<g>
	<path class="st0" d="M-888.9,32.8c0.5,0.9,2.1,0.7,3,0.7c1.6,0.1,3.3,0.2,4.9,0.3c0.6,0,1.2,0.1,1.8,0.1c0.5,0,1,0.1,1.4-0.3
		c0.4-0.4,0.4-0.9,0.4-1.4c0-0.7,0.1-1.3,0.1-2c0.1-1.8,0.2-3.7,0.2-5.5c0.1,0,0.4,0,0.5,0.1c0,0.2,0,0.4,0.1,0.6
		c0.1,0.7,0.2,1.5,0.3,2.2c0.1,0.8,0.2,1.6,0.3,2.4c0,0.4,0,0.8,0.1,1.2c0.1,0.2,0.2,0.4,0.4,0.7c0.3,0.4,0.6,0.8,0.8,1
		c0.6,0.7,0.9,0.9,1.6,0.9c1.4-0.1,2.8-0.2,4.2-0.3c1.1-0.1,2.2-0.1,3.3-0.2c0.8,0,1.4-0.9,1.2-1.7c0-0.2-0.1-0.3-0.1-0.5
		c-0.5-2.1-1.1-4.2-1.6-6.3c-1.6-6.1-3.1-12.2-4.7-18.2c-0.2-0.8-0.4-1.5-0.6-2.3c0-0.1-0.1-0.3-0.1-0.4c-0.2-0.6-0.7-0.9-1.2-1.2
		c-0.4-0.3-1.1-0.9-1.6-0.9c-0.3,0-0.7,0-1,0c-1.5,0-3-0.1-4.5-0.1s-3-0.1-4.6-0.1c-0.7,0-1.9-0.2-2,0.8c-0.2,1.6-0.4,3.2-0.7,4.9
		c-0.9,6.3-1.7,12.7-2.6,19c-0.2,1.3-0.3,2.5-0.5,3.8c0,0.2-0.1,0.4-0.1,0.6c-0.1,0.5,0.3,0.9,0.6,1.2
		C-889.4,32.1-889.1,32.5-888.9,32.8z"/>
	<path class="st1" d="M-889.3,31.6l9.2,0.5l0,0c0.2,0,0.5-0.1,0.6-0.2c0.2-0.2,0.3-0.4,0.3-0.6l0.3-8.4l2.1,0.2l0.9,8
		c0.1,0.5,0.5,0.9,1,0.8l7.8-0.5c0.3,0,0.5-0.2,0.7-0.4c0.2-0.2,0.2-0.5,0.1-0.8l-7.2-27.8c-0.1-0.4-0.5-0.7-0.9-0.7l-11.2-0.2
		c-0.5,0-0.9,0.3-0.9,0.8l-3.8,28.3c0,0.3,0,0.5,0.2,0.7C-889.8,31.5-889.6,31.6-889.3,31.6z M-877.6,14.8h-0.8l0.1-3.6h0.3
		L-877.6,14.8z"/>
	<path class="st2" d="M-874.9,30.9l7.8-0.5l-7.2-27.8l-11.2-0.2l-3.8,28.3l9.2,0.5l0.4-9.4l3.8,0.3L-874.9,30.9z M-879.4,15.7
		l0.2-5.5h2l0.6,5.5H-879.4z"/>
	<path class="st3" d="M-885.9,19.4c1,0.3,3.5,1,5.2,1.3c1,0.2,1.9,0.3,2.9,0.4c0.4,0,0.8,0.1,1.1,0.1c0.1,0,0.2,0,0.2,0
		c0.1,0,0.2,0,0.3,0c2.2,0.1,4.4,0,6.5-0.3l-4.8-18.5l-11.2-0.2l-2.2,16.4C-887.1,19-886.5,19.2-885.9,19.4z M-879.2,10.2h2l0.6,5.5
		l-2.8-0.1L-879.2,10.2z"/>
	<polygon class="st4" points="-877.2,10.4 -876.6,15.7 -879.4,15.7 -879.2,10.4 -879.6,16.2 -876.3,16.3 	"/>
	<path class="st4" d="M-884.9,3.7l10.2,0.2c0,0,3.3,10.7,3.5,10.6l-3.1-11.9l-11.2-0.2l-1.7,12.3C-886.9,14.8-884.9,3.7-884.9,3.7z"
		/>
	<path class="st3" d="M-886.7,29.8c0,0.4,2.3,0.7,3.5,0.7c0.3,0,0.8,0,1.3,0c0.1,0,0.3,0,0.4,0s0.2,0,0.2,0h0.1c0,0,0.1,0,0.2,0l0,0
		l0,0c0.1,0,0.1,0,0.2-0.1c0,0,0,0,0.2-0.3c0-0.2,0-1-0.5-0.1l0,0h0.1c0,0,0.1-0.1,0.2-0.1c0.1,0,0.2-0.1,0.2,0V30l0,0v-0.2v-0.2
		c0-0.2,0-0.3,0-0.5c0.1-1.3,0.2-2.6,0.2-3.4c0.1-1.5-0.3-1.7-0.5-1.7c-0.2,0-0.4-0.1-0.5,1.7c-0.1,0.9-0.1,2.2-0.2,3.4
		c0,0.3,0,0.6,0,0.9l0,0v0.1c0,0.1,0,0.1,0.1,0.2c0,0.1,0,0.1,0,0.1c0.2-0.1-0.4,0.3,0.4-0.3l0,0l0,0V30v-0.3c0-0.1,0-0.1,0-0.1l0,0
		l0,0l0,0h-0.2c-0.1,0-0.3,0-0.4,0c-0.6,0-1.1,0-1.5,0C-884.1,29.5-886.7,29.5-886.7,29.8z M-880.7,22c0.2,0,0.6,0.3,0.6,0.9
		c-0.1,0.7-0.5,0.5-0.6,0.3C-881.1,22.4-880.8,22.1-880.7,22z"/>
	<path class="st3" d="M-874.4,30.2c0,0.4,2.4,0.3,3.7,0.2c0.3,0,0.8-0.1,1.4-0.1c0.4,0,0.7-0.1,1.1-0.1c0.2,0,0.3,0,0.5,0h0.3
		c0-0.1,0-0.2,0-0.2c-0.1-0.3-0.2-0.6-0.2-0.9c-0.3-1.3-0.7-2.7-0.9-3.5c-0.4-1.6-0.8-1.6-1-1.6s-0.4,0,0.1,1.8
		c0.3,0.9,0.6,2.2,0.9,3.4v0.1l0,0c-0.2,0-0.4,0-0.6,0c-0.6,0-1.1,0.1-1.5,0.1C-871.7,29.5-874.4,29.8-874.4,30.2z M-870.1,22
		c0.2-0.1,0.7,0.1,0.8,0.8c0.2,0.7-0.3,0.7-0.5,0.5C-870.5,22.5-870.3,22.1-870.1,22z"/>
</g>
<g>
	<path class="st0" d="M-840.2,9.1c-0.5-0.3-1-0.7-1.5-1c-1.6-1-3.4-1.5-5.2-2.1c-0.5-0.2-2.3-1.1-2.6-0.2c-0.4,0.6-0.5,1.6-0.7,2.2
		c-0.7,2.1-1.3,4.2-2,6.4c-0.9-2.5-1.9-5-2.8-7.4c-0.4-1-0.6-2.5-1.6-3c-0.5-0.3-1-0.7-1.5-1c-0.3-0.2-0.8-0.6-1.2-0.6
		c-1,0-2.3,0.4-3.3,0.6c-1.4,0.2-2.9,0.5-4.3,0.7c-0.8,0.1-0.8,0.7-0.5,1.4c0.3,0.8,0.7,1.6,1,2.3c1.2,2.8,2.5,5.7,3.7,8.5
		c2.1,4.8,4.2,9.6,6.3,14.4c0.2,0.5,1.2,0.9,1.7,1.3c0.2,0.2,0.5,0.3,0.8,0.5c0.9,0.6,2,0.4,3.1,0.5c1.2,0,2.6,0.3,3.8,0.1
		c0.7,0,0.8-1,0.9-1.5c0.8-2.7,1.6-5.3,2.4-8c0.9-3,1.8-6.1,2.7-9.1c0.3-1,0.6-2.1,0.9-3.1C-840,10.3-839.5,9.4-840.2,9.1
		C-840.2,9.1-839.9,9.2-840.2,9.1z"/>
	<polygon class="st2" points="-848.9,6 -843.1,7.9 -849.7,30.2 -855.8,30 -867,4.3 -859.2,3 -853,19.2 	"/>
	<path class="st6" d="M-844.7,13.3l1.6-5.4l-5.8-2l-2.8,9.1C-849.3,14.8-847,14.1-844.7,13.3z"/>
	<path class="st6" d="M-854.6,15.2L-859.2,3l-7.9,1.3l4.3,9.8C-860,14.7-857.3,15.2-854.6,15.2z"/>
	<path class="st1" d="M-842.9,7.3l-5.8-2c-0.2-0.1-0.3,0-0.5,0c-0.2,0.1-0.3,0.2-0.3,0.4l-3.6,11.5l-5.5-14.5
		c-0.1-0.3-0.4-0.5-0.7-0.4l-7.9,1.3c-0.2,0-0.4,0.2-0.5,0.3c-0.1,0.2-0.1,0.4,0,0.6l11.3,25.7c0.1,0.2,0.3,0.4,0.6,0.4l6.1,0.2l0,0
		c0.3,0,0.5-0.2,0.6-0.5l6.6-22.3C-842.4,7.8-842.6,7.4-842.9,7.3z M-850.2,29.5l-5.2-0.1l-10.7-24.6l6.6-1.1l5.9,15.7
		c0.1,0.3,0.3,0.4,0.6,0.4s0.5-0.2,0.6-0.4l3.9-12.7l4.6,1.6L-850.2,29.5z"/>
	<path class="st4" d="M-848.5,6.8l-3.9,12.7c-0.1,0.3-0.3,0.4-0.6,0.4s-0.5-0.2-0.6-0.4l-5.9-15.7l-6.6,1.1l0.3,0.7l6.1-1l5.9,15.7
		c0.1,0.3,0.3,0.4,0.6,0.4s0.5-0.2,0.6-0.5l3.9-12.7l4.6,1.6l0.2-0.8L-848.5,6.8z"/>
	<path class="st3" d="M-847.8,19.1c0-0.2-0.4-1.2-1,0.6c-0.5,1.4-2.2,6.9-2.4,8.3c0,0.1-1.1,0.1-1.2,0.1c-0.7,0-1.3,0.1-2,0
		c-0.6-0.1-0.7,0.8-0.2,1s3.1,0.3,3.7,0c0.5-0.2,0.5-0.6,0.6-1c0.1-0.3,0.2-0.7,0.3-1c0.2-0.8,0.4-1.5,0.6-2.3
		c0-0.2,0.1-0.4,0.1-0.5C-848.7,22.9-848,20.3-847.8,19.1z"/>
	<path class="st3" d="M-847.1,16.2L-847.1,16.2c-0.2-0.1-0.4,0-0.5,0.2c0,0.1-0.1,0.1-0.1,0.2c-0.2,0.4-0.5,1,0,1.3
		c0.1,0.1,0.2,0.1,0.3,0c0.4-0.3,0.4-0.8,0.6-1.2C-846.8,16.5-846.9,16.3-847.1,16.2z"/>
</g>
<g>
	<path class="st0" d="M-836.6,33.7c0.5,0.9,2.1,0.7,3,0.7c1.6,0.1,3.3,0.2,4.9,0.3c0.6,0,1.2,0.1,1.8,0.1c0.5,0,1,0.1,1.4-0.3
		s0.4-0.9,0.4-1.4c0-0.7,0.1-1.3,0.1-2c0.1-1.8,0.2-3.7,0.2-5.5c0.1,0,0.4,0,0.5,0.1c0,0.2,0,0.4,0.1,0.6c0.1,0.7,0.2,1.5,0.3,2.2
		c0.1,0.8,0.2,1.6,0.3,2.4c0,0.4,0,0.8,0.1,1.2c0.1,0.2,0.2,0.4,0.4,0.7c0.3,0.4,0.6,0.8,0.8,1c0.6,0.7,0.9,0.9,1.6,0.9
		c1.4-0.1,2.8-0.2,4.2-0.3c1.1-0.1,2.2-0.1,3.3-0.2c0.8,0,1.4-0.9,1.2-1.7c0-0.2-0.1-0.3-0.1-0.5c-0.5-2.1-1.1-4.2-1.6-6.3
		c-1.6-6.1-3.1-12.2-4.7-18.2c-0.2-0.8-0.4-1.5-0.6-2.3c0-0.1-0.1-0.3-0.1-0.4c-0.2-0.6-0.7-0.9-1.2-1.2c-0.4-0.3-1.1-0.9-1.6-0.9
		c-0.3,0-0.7,0-1,0c-1.5,0-3-0.1-4.5-0.1s-3-0.1-4.6-0.1c-0.7,0-1.9-0.2-2,0.8c-0.2,1.6-0.4,3.2-0.7,4.9c-0.9,6.3-1.7,12.7-2.6,19
		c-0.2,1.3-0.3,2.5-0.5,3.8c0,0.2-0.1,0.4-0.1,0.6c-0.1,0.5,0.3,0.9,0.6,1.2C-837.1,33-836.9,33.4-836.6,33.7z"/>
	<path class="st1" d="M-837,32.5l9.2,0.5l0,0c0.2,0,0.5-0.1,0.6-0.2c0.2-0.2,0.3-0.4,0.3-0.6l0.3-8.4l2.1,0.2l0.9,8
		c0.1,0.5,0.5,0.9,1,0.8l7.8-0.5c0.3,0,0.5-0.2,0.7-0.4c0.2-0.2,0.2-0.5,0.1-0.8l-7.2-27.8c-0.1-0.4-0.5-0.7-0.9-0.7l-11.2-0.2
		c-0.5,0-0.9,0.3-0.9,0.8l-3.8,28.3c0,0.3,0,0.5,0.2,0.7C-837.5,32.3-837.3,32.5-837,32.5z M-825.4,15.7h-0.8l0.1-3.6h0.3
		L-825.4,15.7z"/>
	<path class="st2" d="M-822.6,31.8l7.8-0.5L-822,3.5l-11.2-0.2l-3.8,28.3l9.2,0.5l0.4-9.4l3.8,0.3L-822.6,31.8z M-827.2,16.6
		l0.2-5.5h2l0.6,5.5H-827.2z"/>
	<path class="st3" d="M-833.6,20.3c1,0.3,3.5,1,5.2,1.3c1,0.2,1.9,0.3,2.9,0.4c0.4,0,0.8,0.1,1.1,0.1c0.1,0,0.2,0,0.2,0
		c0.1,0,0.2,0,0.3,0c2.2,0.1,4.4,0,6.5-0.3l-4.8-18.5l-11.2-0.2l-2.2,16.4C-834.8,19.9-834.2,20.1-833.6,20.3z M-826.9,11.1h2
		l0.6,5.5l-2.8-0.1L-826.9,11.1z"/>
	<polygon class="st4" points="-824.9,11.3 -824.3,16.6 -827.2,16.6 -826.9,11.3 -827.4,17.1 -824.1,17.2 	"/>
	<path class="st4" d="M-832.7,4.6l10.2,0.2c0,0,3.3,10.7,3.5,10.6l-3.1-11.9l-11.2-0.2l-1.7,12.3C-834.6,15.7-832.7,4.6-832.7,4.6z"
		/>
	<path class="st3" d="M-834.4,30.7c0,0.4,2.3,0.7,3.5,0.7c0.3,0,0.8,0,1.3,0c0.1,0,0.3,0,0.4,0c0.1,0,0.2,0,0.2,0h0.1
		c0,0,0.1,0,0.2,0l0,0l0,0c0.1,0,0.1,0,0.2-0.1c0,0,0,0,0.2-0.3c0-0.2,0-1-0.5-0.1l0,0h0.1c0,0,0.1-0.1,0.2-0.1s0.2-0.1,0.2,0v0.1
		l0,0v-0.1v-0.2c0-0.2,0-0.3,0-0.5c0.1-1.3,0.2-2.6,0.2-3.4c0.1-1.5-0.3-1.7-0.5-1.7c-0.2,0-0.4-0.1-0.5,1.7
		c-0.1,0.9-0.1,2.2-0.2,3.4c0,0.3,0,0.6,0,0.9l0,0v0.1c0,0.1,0,0.1,0.1,0.2c0,0.1,0,0.1,0,0.1c0.2-0.1-0.4,0.3,0.4-0.3l0,0l0,0V31
		v-0.3c0-0.1,0-0.1,0-0.1l0,0l0,0l0,0h-0.2c-0.1,0-0.3,0-0.4,0c-0.6,0-1.1,0-1.5,0C-831.8,30.4-834.4,30.4-834.4,30.7z M-828.4,22.9
		c0.2,0,0.6,0.3,0.6,0.9c-0.1,0.7-0.5,0.5-0.6,0.3C-828.8,23.3-828.6,23-828.4,22.9z"/>
	<path class="st3" d="M-822.1,31.1c0,0.4,2.4,0.3,3.7,0.2c0.3,0,0.8-0.1,1.4-0.1c0.4,0,0.7-0.1,1.1-0.1c0.2,0,0.3,0,0.5,0h0.3
		c0-0.1,0-0.2,0-0.2c-0.1-0.3-0.2-0.6-0.2-0.9c-0.3-1.3-0.7-2.7-0.9-3.5c-0.4-1.6-0.8-1.6-1-1.6s-0.4,0,0.1,1.8
		c0.3,0.9,0.6,2.2,0.9,3.4v0.1l0,0c-0.2,0-0.4,0-0.6,0c-0.6,0-1.1,0.1-1.5,0.1C-819.4,30.4-822.1,30.7-822.1,31.1z M-817.9,22.9
		c0.2-0.1,0.7,0.1,0.8,0.8c0.2,0.7-0.3,0.7-0.5,0.5C-818.2,23.4-818,23-817.9,22.9z"/>
</g>
<g>
	<path class="st0" d="M-803.5,31.4c0,0.5,0.6,1.1,0.9,1.5c0.4,0.6,0.8,1.1,1.5,1.1c0.3,0,0.7-0.1,1-0.2c1.5-0.3,3-0.7,4.4-1
		c0.9-0.2,2.8-0.3,2.9-1.6c0-0.6-0.2-1.2-0.3-1.8c-0.8-5-1.6-10.1-2.4-15.1l0,0c2.4,0.1,4.8,0.3,7.1,0.4c0.5,0,1-0.1,1.3-0.5
		c0.3-0.4,0.2-0.9,0.2-1.4c-0.1-1.4-0.2-2.9-0.3-4.3c0-0.6-0.1-1.3-0.1-1.9c0-0.5-0.1-1.1-0.6-1.4c-0.5-0.4-1.1-0.7-1.6-1.1
		c-0.2-0.1-0.4-0.2-0.6-0.2s-0.4,0-0.6,0c-2.4,0.1-4.8,0.3-7.2,0.4c-3.2,0.2-6.3,0.3-9.5,0.5c-1.1,0.1-2.2,0.1-3.3,0.2
		c-0.5,0-1.2-0.1-1.6,0.2c-0.5,0.3-0.4,0.9-0.3,1.4c0.1,0.7,0.2,1.3,0.3,2c0.2,1.4,0.4,2.8,0.6,4.2c0.1,0.7,0.6,1.2,1,1.8
		c0.4,0.5,0.7,1.1,1.4,1.1c0.2,0,0.3-0.1,0.5-0.1c1.4-0.2,2.7-0.5,4.1-0.7c0.1,0,0.1,0,0.2,0c0.3,4.9,0.5,9.9,0.8,14.8
		C-803.6,30.1-803.5,30.7-803.5,31.4z"/>
	<path class="st1" d="M-803.5,31.4c0,0.3,0.1,0.5,0.4,0.7c0.2,0.1,0.3,0.2,0.5,0.2c0.1,0,0.1,0,0.2,0l7.2-1.7c0.5-0.1,0.7-0.5,0.7-1
		l-2.7-17.1l7.8,0.4l0,0l0,0c0.5,0,0.9-0.4,0.9-0.9c0-0.1,0-0.1,0-0.2l-0.5-7.2c0-0.5-0.4-0.9-0.9-0.8L-811.8,5
		c-0.2,0-0.5,0.1-0.6,0.3c-0.2,0.2-0.2,0.4-0.2,0.7l1.1,7c0,0.2,0.2,0.4,0.4,0.6c0.2,0.1,0.4,0.2,0.7,0.2l6-1L-803.5,31.4z"/>
	<polygon class="st2" points="-811.7,5.8 -810.6,12.8 -803.7,11.6 -802.6,31.3 -795.4,29.7 -798.2,11.5 -789.4,11.9 -789.8,4.6 	"/>
	<path class="st3" d="M-803.7,11.6l0.3,6c2,0.1,4,0,6-0.3l-0.9-5.8l8.9,0.5l-0.5-7.3l-21.9,1.2l1.1,7L-803.7,11.6z"/>
	<polygon class="st4" points="-789.8,4.6 -811.7,5.8 -811.2,9.1 -811.1,7 -790.3,5.9 -789.5,10.6 	"/>
	<path class="st5" d="M-796.5,29.4c0-0.3-2.8-0.1-4.3,0.1l-0.6,0.1l-0.5-6.5c-0.1-1.9-0.5-2.1-0.7-2.1c-0.2,0-0.4-0.1-0.3,2.1
		l0.5,7.5l1.6-0.2C-799.6,30.2-796.4,29.7-796.5,29.4z M-802.8,18.6c0.2-0.1,0.6,0.3,0.7,1.1c0,0.8-0.4,0.7-0.6,0.4
		C-803.2,19.1-803,18.7-802.8,18.6z"/>
</g>
<g>
	<path class="st0" d="M-783.8,34.6c0.5,0.9,2.1,0.7,3,0.7c1.6,0.1,3.3,0.2,4.9,0.3c0.6,0,1.2,0.1,1.8,0.1c0.5,0,1,0.1,1.4-0.3
		s0.4-0.9,0.4-1.4c0-0.7,0.1-1.3,0.1-2c0.1-1.8,0.2-3.7,0.2-5.5c0.1,0,0.4,0,0.5,0.1c0,0.2,0,0.4,0.1,0.6c0.1,0.7,0.2,1.5,0.3,2.2
		c0.1,0.8,0.2,1.6,0.3,2.4c0,0.4,0,0.8,0.1,1.2c0.1,0.2,0.2,0.4,0.4,0.7c0.3,0.4,0.6,0.8,0.8,1c0.6,0.7,0.9,0.9,1.6,0.9
		c1.4-0.1,2.8-0.2,4.2-0.3c1.1-0.1,2.2-0.1,3.3-0.2c0.8,0,1.4-0.9,1.2-1.7c0-0.2-0.1-0.3-0.1-0.5c-0.5-2.1-1.1-4.2-1.6-6.3
		c-1.6-6.1-3.1-12.2-4.7-18.2c-0.2-0.8-0.4-1.5-0.6-2.3c0-0.1-0.1-0.3-0.1-0.4c-0.2-0.6-0.7-0.9-1.2-1.2c-0.4-0.3-1.1-0.9-1.6-0.9
		c-0.3,0-0.7,0-1,0c-1.5,0-3-0.1-4.5-0.1s-3-0.1-4.6-0.1c-0.7,0-1.9-0.2-2,0.8c-0.2,1.6-0.4,3.2-0.7,4.9c-0.9,6.3-1.7,12.7-2.6,19
		c-0.2,1.3-0.3,2.5-0.5,3.8c0,0.2-0.1,0.4-0.1,0.6c-0.1,0.5,0.3,0.9,0.6,1.2C-784.3,33.9-784.1,34.3-783.8,34.6z"/>
	<path class="st1" d="M-784.3,33.4l9.2,0.5l0,0c0.2,0,0.5-0.1,0.6-0.2c0.2-0.2,0.3-0.4,0.3-0.6l0.3-8.4l2.1,0.2l0.9,8
		c0.1,0.5,0.5,0.9,1,0.8l7.8-0.5c0.3,0,0.5-0.2,0.7-0.4c0.2-0.2,0.2-0.5,0.1-0.8l-7.2-27.8c-0.1-0.4-0.5-0.7-0.9-0.7l-11.2-0.2
		c-0.5,0-0.9,0.3-0.9,0.8l-3.8,28.3c0,0.3,0,0.5,0.2,0.7C-784.8,33.2-784.5,33.4-784.3,33.4z M-772.6,16.6h-0.8l0.1-3.6h0.3
		L-772.6,16.6z"/>
	<path class="st2" d="M-769.8,32.7l7.8-0.5l-7.2-27.8l-11.2-0.2l-3.8,28.3l9.2,0.5l0.4-9.4l3.8,0.3L-769.8,32.7z M-774.4,17.5
		l0.2-5.5h2l0.6,5.5H-774.4z"/>
	<path class="st3" d="M-780.8,21.2c1,0.3,3.5,1,5.2,1.3c1,0.2,1.9,0.3,2.9,0.4c0.4,0,0.8,0.1,1.1,0.1c0.1,0,0.2,0,0.2,0
		c0.1,0,0.2,0,0.3,0c2.2,0.1,4.4,0,6.5-0.3l-4.8-18.5L-780.6,4l-2.2,16.4C-782,20.8-781.4,21-780.8,21.2z M-774.2,12h2l0.6,5.5
		l-2.8-0.1L-774.2,12z"/>
	<polygon class="st4" points="-772.2,12.2 -771.6,17.5 -774.4,17.5 -774.2,12.2 -774.6,18 -771.3,18.1 	"/>
	<path class="st4" d="M-779.9,5.5l10.2,0.2c0,0,3.3,10.7,3.5,10.6l-3.1-11.9l-11.2-0.2l-1.7,12.3C-781.8,16.6-779.9,5.5-779.9,5.5z"
		/>
	<path class="st3" d="M-781.6,31.6c0,0.4,2.3,0.7,3.5,0.7c0.3,0,0.8,0,1.3,0c0.1,0,0.3,0,0.4,0s0.2,0,0.2,0h0.1c0,0,0.1,0,0.2,0l0,0
		l0,0c0.1,0,0.1,0,0.2-0.1c0,0,0,0,0.2-0.3c0-0.2,0-1-0.5-0.1l0,0h0.1c0,0,0.1-0.1,0.2-0.1s0.2-0.1,0.2,0v0.1l0,0v-0.1v-0.2
		c0-0.2,0-0.3,0-0.5c0.1-1.3,0.2-2.6,0.2-3.4c0.1-1.5-0.3-1.7-0.5-1.7c-0.2,0-0.4-0.1-0.5,1.7c-0.1,0.9-0.1,2.2-0.2,3.4
		c0,0.3,0,0.6,0,0.9l0,0V32c0,0.1,0,0.1,0.1,0.2c0,0.1,0,0.1,0,0.1c0.2-0.1-0.4,0.3,0.4-0.3l0,0l0,0v-0.1v-0.3c0-0.1,0-0.1,0-0.1
		l0,0l0,0l0,0h-0.2c-0.1,0-0.3,0-0.4,0c-0.6,0-1.1,0-1.5,0C-779,31.3-781.6,31.2-781.6,31.6z M-775.6,23.8c0.2,0,0.6,0.3,0.6,0.9
		c-0.1,0.7-0.5,0.5-0.6,0.3C-776.1,24.2-775.8,23.8-775.6,23.8z"/>
	<path class="st3" d="M-769.3,32c0,0.4,2.4,0.3,3.7,0.2c0.3,0,0.8-0.1,1.4-0.1c0.4,0,0.7-0.1,1.1-0.1c0.2,0,0.3,0,0.5,0h0.3
		c0-0.1,0-0.2,0-0.2c-0.1-0.3-0.2-0.6-0.2-0.9c-0.3-1.3-0.7-2.7-0.9-3.5c-0.4-1.6-0.8-1.6-1-1.6c-0.2,0-0.4,0,0.1,1.8
		c0.3,0.9,0.6,2.2,0.9,3.4v0.1l0,0c-0.2,0-0.4,0-0.6,0c-0.6,0-1.1,0.1-1.5,0.1C-766.6,31.3-769.3,31.6-769.3,32z M-765.1,23.8
		c0.2-0.1,0.7,0.1,0.8,0.8c0.2,0.7-0.3,0.7-0.5,0.5C-765.4,24.3-765.3,23.9-765.1,23.8z"/>
</g>
<g>
	<path class="st0" d="M-756,6.5c0.2,4.5,0.4,8.9,0.5,13.4c0.1,2.9,0.2,5.9,0.4,8.8c0,0.9,0.1,1.7,0.1,2.6c0,0.2,0,0.4,0,0.6V32
		c0,0.3,0.2,0.5,0.3,0.7c0.2,0.3,0.4,0.7,0.7,0.9c0.3,0.7,0.9,1,1.6,0.9c0.6,0,1.2,0,1.8-0.1c1.4-0.1,2.9-0.1,4.3-0.1
		c0.6,0,1.3-0.2,1.5-0.9c0.2-0.5,0-1-0.1-1.5c-0.2-1.4-0.4-2.8-0.6-4.1c0-0.1,0-0.1,0-0.2c1.9,1.4,3.8,2.9,5.7,4.3
		c0.5,0.4,1.1,0.6,1.6,0.2c0.3-0.2,0.5-0.6,0.8-0.9c0.9-1.2,1.9-2.3,2.8-3.5c0.4-0.5,1-1,1.2-1.6c0.1-0.3,0.1-0.7-0.1-1
		c-0.1-0.2-0.3-0.7-0.6-0.9c-0.4-0.2-0.8-0.4-1.2-0.6c-1.4-0.7-2.8-1.3-4.2-2c2.1-1.2,3.7-3.2,4.2-5.6s0-4.9-1.6-6.8
		c-0.9-1-1.9-1.7-3-2.5c-1.2-0.8-2.3-1.4-3.6-1.9c-2.7-0.9-5.6-0.9-8.4-0.4c-0.9,0.2-1.8,0.3-2.7,0.6C-755.2,5.5-756,5.8-756,6.5z
		 M-746.9,15.1c0.2,0,0.4,0.1,0.6,0.2c-0.1,0.2-0.4,0.2-0.6,0.2C-746.9,15.4-746.9,15.3-746.9,15.1z"/>
	<path class="st1" d="M-756,6.5l1.1,25.5c0,0.5,0.4,0.9,0.9,0.9l0,0l6.7-0.2c0.2,0,0.5-0.1,0.6-0.3c0.2-0.2,0.2-0.5,0.2-0.7l-1-6.1
		l6.6,5c0.4,0.3,0.9,0.2,1.2-0.1l4.4-5.3c0.2-0.2,0.2-0.5,0.2-0.8c-0.1-0.3-0.2-0.5-0.5-0.6l-6.5-3.1c0.6-0.3,1.2-0.6,1.8-1
		c3.1-2.1,4.3-6.3,2.8-9.7c-1.4-3.3-5.6-5.2-9-5.6c-1-0.1-2.2-0.1-3.5,0c-0.8,0.1-1.6,0.2-2.4,0.3c-1.7,0.3-2.6,0.7-3.2,0.9
		C-755.8,5.8-756,6.2-756,6.5z M-746.1,15c-0.1,0.2-0.1,0.5-0.9,0.5c-0.4,0-1-0.1-1.5-0.2l-0.1-2c0.9,0.1,2,0.5,2.4,1
		C-746.1,14.6-746.1,14.8-746.1,15z"/>
	<path class="st2" d="M-735.9,24.5l-8.5-4c1.3-0.3,2.5-0.8,3.7-1.6c2.8-1.9,3.8-5.7,2.5-8.6c-1.3-3-5.2-4.7-8.3-5
		c-1-0.1-2.2-0.1-3.3,0c-0.8,0.1-1.6,0.2-2.3,0.3c-1.5,0.3-2.4,0.6-3,0.8l0.1,1.3l1,24.2l6.7-0.2l-1.3-8.2l8.4,6.4L-735.9,24.5z
		 M-749.3,12.4c1.5-0.1,4.5,0.9,4,2.8c-0.5,1.7-2.5,1.2-4.2,0.8l-0.1-3.6C-749.5,12.4-749.4,12.4-749.3,12.4z"/>
	<g class="st7">
		<path class="st2" d="M-754.7,17.6c2.6,1,5.4,1.9,8.1,1.9c1.9,0,3.8-0.2,5.7-0.5c0,0,0.1,0,0.1-0.1c2.8-1.9,3.8-5.7,2.5-8.6
			c-1.3-3-5.2-4.7-8.3-5c-1-0.1-2.2-0.1-3.3,0c-0.8,0.1-1.6,0.2-2.3,0.3c-1.5,0.3-2.4,0.6-3,0.8l0.1,1.3L-754.7,17.6z M-749.3,12.4
			c1.5-0.1,4.5,0.9,4,2.8c-0.5,1.7-2.5,1.2-4.2,0.8l-0.1-3.6C-749.5,12.4-749.4,12.4-749.3,12.4z"/>
	</g>
	<path class="st4" d="M-745.7,13.6c0.4,0.4,0.6,1,0.5,1.6c-0.5,1.7-2.5,1.2-4.2,0.8l-0.1-3.4c0,0,0,0-0.1,0v3.9l0.6,0.1
		c0.7,0.2,1.6,0.3,2.3,0.3c1.6,0,1.8-0.5,2-1.2s0.1-1-0.4-1.6C-745.3,14-745.5,13.8-745.7,13.6z"/>
	<path class="st4" d="M-754.6,7.5c0.5-0.2,1.3-0.4,2.6-0.7c0.7-0.1,1.5-0.2,2.2-0.3c0.6-0.1,1.2-0.1,1.7-0.1s1,0,1.5,0.1
		c3,0.4,6.6,1.9,7.9,4.7c1.1,2.5,0.4,5.5-1.6,7.4c2.5-2,3.3-5.5,2.1-8.3c-1.3-3-5.2-4.7-8.3-5c-1-0.1-2.2-0.1-3.3,0
		c-0.8,0.1-1.6,0.2-2.3,0.3c-1.5,0.3-2.4,0.6-3,0.8l0.1,1.3l0.1,2.8L-754.6,7.5z"/>
	<polygon class="st4" points="-744.4,20.5 -735.9,24.5 -738.3,27.4 -736.9,24.7 -745.5,20.5 	"/>
	<path class="st3" d="M-753.2,31.2c0,0.3,2.1,0.3,3.2,0.2l2.1-0.2l-0.6-4.7c-0.2-1.4-0.6-1.5-0.7-1.4c-0.2,0-0.4,0-0.2,1.6l0.5,3.8
		l-1.2,0.1C-750.9,30.5-753.3,30.8-753.2,31.2z M-749.6,23.3c0.2-0.1,0.6,0.1,0.7,0.7s-0.4,0.6-0.5,0.3
		C-750,23.7-749.8,23.3-749.6,23.3z"/>
</g>
<g>
	<path class="st0" d="M-731.6,31.9c1.5,2.2,3.6,4,6.2,4.7c2.4,0.6,5,0.2,7.1-1.1c2-1.3,3.4-3.3,3.5-5.7c0.1-2.4-0.8-4.5-2.2-6.3
		c-1.4-1.7-3.3-2.9-4.9-4.5c-0.6-0.6-1.6-1.6-1.2-2.5c0.3-0.5,0.8-0.9,1.4-0.9c0.2,0,0.3-0.1,0.3,0.2c0,0.2,0,0.3,0,0.5
		c0,0.4,0,0.8-0.1,1.1c-0.1,0.5,0.2,0.9,0.6,1.3c0.3,0.4,0.5,0.9,0.8,1.2c0.5,0.5,1.2,0.2,1.7,0.1c0.7-0.2,1.4-0.5,2.1-0.8
		c1.3-0.6,2.6-1.3,3.9-1.9c1.2-0.6,0.9-2,0.6-3.1c-0.5-2.3-1.8-4.4-3.8-5.7c-1-0.8-2.1-1.5-3.3-2c-1.2-0.5-2.6-0.6-3.9-0.4
		c-2.6,0.3-4.7,1.9-6.2,4c-1.4,2.1-2.2,4.6-1.5,7.1c0.5,1.7,1.6,3.3,2.7,4.6c0.6,0.8,1.4,1.4,2.1,2c0.4,0.3,0.8,0.6,1.2,0.9
		c0.2,0.1,0.4,0.2,0.4,0.5c0,0.2,0,0.4-0.1,0.6c0.1-0.8-0.5-1.4-1.2-1.7c-0.4-0.4-1-0.8-1.6-0.8c-2,0.2-3.9-0.2-5.9-0.1
		c-0.4,0-0.8,0-1.1,0.2c-0.3,0.3-0.4,0.8-0.5,1.1c-0.2,0.8-0.1,1.7,0,2.6C-733.7,28.8-732.7,30.4-731.6,31.9
		C-731.6,32-731.7,31.8-731.6,31.9z"/>
	<path class="st1" d="M-729.7,33.5c1.5,1.1,3.3,1.6,5.2,1.6l0,0c2.8,0,5.3-1.2,6.9-3.4c1.7-2.3,1.4-5.6,0.3-7.6
		c-1.3-2.2-2.7-3.5-4.5-4.9c-1-0.8-2.9-2.3-3-3.6c0-0.4,0.1-0.8,0.5-1.2c0.4-0.4,0.9-0.6,1.5-0.6c0.4,0,0.8,0.1,1,0.3
		c0.7,0.6,0.6,2.2,0.5,3.3c0,0.3,0.1,0.5,0.3,0.7s0.5,0.2,0.8,0.2c1.7-0.4,3.2-1.2,4.6-1.9c0.7-0.3,1.4-0.7,2.1-1
		c0.3-0.1,0.5-0.5,0.5-0.9c0-0.2,0-0.3,0-0.5c-0.4-4.6-4-8.1-8.4-8.1c-2,0-4,0.8-5.6,2.2c-1.4,1.3-2.8,3.6-3.2,5.5
		c-0.5,2.4,0.3,4.9,2.1,6.9c0.6,0.7,1.3,1.2,2,1.7c1,0.7,2,1.5,2.4,2.5c0.2,0.4,0,0.7-0.1,0.9c-0.2,0.3-0.5,0.5-0.8,0.5
		c-0.2,0-0.5-0.1-0.7-0.3c-0.3-0.3-0.3-0.8-0.2-1.7c0-0.3,0-0.5-0.2-0.7c-0.2-0.2-0.5-0.3-0.7-0.2c-0.4,0.1-0.8,0.1-1.3,0.1
		c-0.7,0-1.4,0-2.2-0.1c-0.7-0.1-1.5-0.1-2.3-0.1c-0.4,0-0.7,0-1,0c-0.3,0-0.6,0.3-0.7,0.6C-735.1,27.3-732.6,31.4-729.7,33.5z"/>
	<path class="st2" d="M-722.3,19.9c-1.6-1.3-4.8-3.8-2.7-6c1-1.1,2.7-1.2,3.7-0.4s0.9,2.6,0.8,4.1c2.4-0.6,4.4-1.9,6.6-2.9
		c0-0.2,0-0.4,0-0.5c-0.5-6.5-7.7-9.7-12.6-5.4c-1.3,1.1-2.6,3.3-2.9,5c-0.5,2.3,0.4,4.5,1.9,6.2c1.4,1.6,3.7,2.4,4.6,4.5
		c0.7,1.8-1.6,3.4-3,1.9c-0.6-0.7-0.5-1.5-0.4-2.4c-2.1,0.3-4.6-0.3-6.7-0.1c-1,3.2,1.4,7,3.9,8.9c3.4,2.4,8.3,1.9,10.9-1.6
		c1.4-1.9,1.3-4.8,0.3-6.7C-719.2,22.5-720.5,21.3-722.3,19.9z"/>
	<path class="st3" d="M-724.3,18.2c-1.2-1.3-2.1-2.8-0.7-4.3c1-1.1,2.7-1.2,3.7-0.4s0.9,2.6,0.8,4.1c2.4-0.6,4.4-1.9,6.6-2.9
		c0-0.2,0-0.4,0-0.5c-0.5-6.5-7.7-9.7-12.6-5.4c-1.3,1.1-2.6,3.3-2.9,5c-0.3,1.6,0,3.2,0.8,4.6C-727.3,18.3-725.8,18.2-724.3,18.2z"
		/>
	<g>
		<path class="st4" d="M-726.6,9.8c4.9-4.3,11.8-1.2,12.6,4.9h0.1c0-0.2,0-0.4,0-0.5c-0.5-6.5-7.7-9.7-12.6-5.4
			c-1.3,1.1-2.6,3.3-2.9,5c-0.1,0.6-0.2,1.2-0.1,1.8c0-0.3,0-0.5,0.1-0.8C-729.2,13.1-727.9,10.9-726.6,9.8z"/>
	</g>
	<path class="st4" d="M-722.3,20.6c1.8,1.4,3.1,2.6,4.3,4.7c0.4,0.8,0.7,1.8,0.8,2.8c0.1-1.3-0.2-2.6-0.8-3.5
		c-1.2-2.1-2.5-3.2-4.3-4.7c-1.2-0.9-3.1-2.4-3.3-4.1C-726,17.7-723.6,19.5-722.3,20.6z"/>
	<path class="st4" d="M-726,27.1c1.3,1.4,3.4,0.1,3.1-1.6c-0.3,1.3-2,2.1-3.1,0.9c-0.3-0.3-0.4-0.7-0.5-1.1
		C-726.5,26-726.5,26.6-726,27.1z"/>
	<path class="st4" d="M-726.5,24.7c0-0.2,0.1-0.5,0.1-0.7c-2.1,0.3-4.6-0.3-6.7-0.1c-0.2,0.6-0.3,1.3-0.2,1.9c0-0.4,0.1-0.8,0.2-1.3
		C-731,24.5-728.6,25-726.5,24.7z"/>
	<path class="st3" d="M-732.6,27.7c-0.1,0,0,0.2,0.1,0.5c0.1,0.2,0.1,0.3,0.2,0.5c0.1,0.2,0.2,0.4,0.3,0.6c0.3,0.4,0.5,0.9,0.9,1.3
		c0.2,0.2,0.3,0.4,0.5,0.6c0.2,0.2,0.4,0.3,0.5,0.5c0.1,0.1,0.2,0.2,0.3,0.3c0.1,0.1,0.2,0.2,0.4,0.3c0.3,0.2,0.5,0.4,0.9,0.6
		c0.7,0.4,1.6,0.8,2.5,0.9c0.9,0.2,1.9,0.1,2.7,0c0.8-0.2,1.5-0.4,2-0.6c0.3-0.1,0.5-0.2,0.6-0.3l0.1-0.1c0.1,0,0.1-0.1,0.1-0.1
		c0.1-0.1,0.2-0.1,0.2-0.2c0.3-0.2,0.4-0.4,0.5-0.5c0.2-0.3,0.1-0.4,0.1-0.5c-0.1-0.1-0.1-0.2-0.3,0c-0.1,0.1-0.3,0.2-0.5,0.3
		c-0.1,0-0.1,0.1-0.2,0.1c-0.1,0-0.2,0.1-0.3,0.1c-0.1,0.1-0.2,0.1-0.4,0.2c-0.1,0.1-0.2,0.1-0.4,0.2c-0.5,0.3-1.2,0.5-1.9,0.6
		c-0.2,0-0.4,0.1-0.6,0.1s-0.4,0-0.6,0c-0.4,0-0.8,0-1.1-0.1h-0.3c-0.1,0-0.2-0.1-0.3-0.1c-0.2-0.1-0.4-0.1-0.5-0.2
		c-0.3-0.2-0.7-0.3-1-0.5c-0.2-0.1-0.3-0.2-0.4-0.3c-0.1-0.1-0.3-0.2-0.4-0.3c-0.1-0.1-0.3-0.2-0.4-0.3c-0.1-0.1-0.2-0.2-0.3-0.3
		c-0.1-0.1-0.2-0.2-0.4-0.4c-0.2-0.1-0.3-0.3-0.5-0.5c-0.2-0.2-0.3-0.4-0.5-0.6c-0.2-0.2-0.3-0.4-0.5-0.6c-0.3-0.4-0.6-0.8-0.8-1
		C-732.4,27.8-732.5,27.6-732.6,27.7z M-718.3,29.3c0.1,0,0.2,0.1,0.2,0.4c0,0.1,0,0.3,0,0.4s0,0.2-0.1,0.3c0,0.1-0.1,0.2-0.2,0.3
		c-0.1,0.2-0.2,0.3-0.3,0.4s-0.2,0.1-0.3,0c-0.1-0.1-0.1-0.2-0.1-0.4c0.1-0.3,0.1-0.5,0.2-0.7c0-0.2,0.1-0.3,0.2-0.4
		C-718.6,29.4-718.4,29.3-718.3,29.3z"/>
</g>
<g>
	<path class="st0" d="M17.4,30.8c0.8,0.7,1.6,1.5,2.6,2.1c1,0.7,2.2,1.1,3.4,1.4c2.6,0.5,5.5,0.3,7.8-0.8c4.2-1.9,6.7-6.7,5.5-11.2
		c-0.7-2.6-2.5-4.6-4.6-6.2c-2.4-2.2-5.5-3.4-8.7-2.3c0.3-1.1,0.7-2.3,1.6-3c0.4-0.3,1-0.5,1.5-0.5c0.2,0,0.5-0.1,0.5,0.2
		c0.1,0.3,0.1,0.6,0.1,0.8c0,0.6,0.4,0.9,0.8,1.2c0.4,0.4,0.8,0.8,1.2,1.1c0.3,0.2,0.8,0.3,1.2,0.4c1.3,0.4,2.7,0.8,4,1.2
		c0.5,0.1,1,0.3,1.5,0s0.6-1,0.7-1.6c0.1-0.7,0.1-1.4,0-2c-0.2-1.3-0.6-2.5-1.3-3.6c-0.7-1-1.6-1.8-2.5-2.6c-1.9-1.7-4-2.7-6.5-3.2
		c-2-0.4-4-0.2-5.8,0.6c-2.3,1-4,2.9-5.2,5.1c-0.8,1.7-1.4,3.5-1.7,5.4c-0.5,2.5-0.6,5.1-0.5,7.6C13.2,24.6,14.5,28.3,17.4,30.8
		C17.4,30.8,17.1,30.6,17.4,30.8z M27.7,24.1c0,0.5-0.3,1-0.7,1.3c-0.2,0.1-0.4,0.3-0.7,0.3c-0.1,0-0.3,0-0.4,0
		c-0.3,0-0.3-0.1-0.3-0.3c0-0.5,0.3-1,0.7-1.3c0.2-0.1,0.4-0.2,0.7-0.3c0.1,0,0.2,0,0.4,0C27.7,23.7,27.7,23.8,27.7,24.1z"/>
	<path class="st1" d="M26.3,34.6c1.1,0,2.3-0.2,3.5-0.4c3.5-0.9,6.2-3.6,7-7c0.8-3.5-0.4-6.9-3.4-9.4c-1.8-1.5-3.7-2.3-5.6-2.3
		c-2,0-3.7,0.9-4.7,1.7c0-2.6,0.5-4.6,1.6-5.7c0.6-0.6,1.3-0.9,2.2-0.9H27c2.3,0.1,2.4,2.4,2.4,2.7c0,0.4,0.3,0.7,0.6,0.8l5.4,1.5
		c0.2,0.1,0.5,0,0.7-0.1s0.3-0.3,0.4-0.6c0.4-2.3,0.1-4.4-1.1-6.2c-1.4-2.2-4-3.6-7.3-4.3c-0.7-0.1-1.3-0.2-1.9-0.2l0,0
		c-2.4,0-10.4,1.1-10.8,15.8c-0.2,5.1,1,9,3.5,11.6C20.6,33.5,23.2,34.6,26.3,34.6z M25.7,25.8c0-1.1,0.9-2,2.1-2s2.1,0.9,2.1,2
		s-1,2-2.1,2C26.6,27.7,25.7,26.8,25.7,25.8z"/>
	<path class="st2" d="M29.5,33.3c6.5-1.7,9.2-9.9,3.3-14.9s-10.6,0.5-10.6,0.5c-0.5-6,1.4-9.5,4.6-9.4S30,13,30,13l5.4,1.5
		c0.9-4.7-2.1-8.3-7.8-9.4C22.1,4,16.4,8,16,19.9C15.6,31.9,23,35,29.5,33.3z M27.8,22.9c1.6,0,3,1.3,3,2.8c0,1.6-1.3,2.8-3,2.8
		c-1.6,0-3-1.3-3-2.8S26.1,22.9,27.8,22.9z"/>
	<path class="st3" d="M29.6,23.5c0.7,0.5,1.2,1.3,1.2,2.2c0,1.6-1.3,2.8-3,2.8c-1.6,0-3-1.3-3-2.8c0-1.3,0.9-2.4,2.1-2.7
		c-1-0.3-2.1-0.5-3.1-0.8c-2.6-0.8-5.2-1.6-7.9-2.2C15.6,31.9,23,35,29.5,33.3c4.6-1.2,7.2-5.6,6.4-9.8
		C33.8,23.8,31.7,23.8,29.6,23.5z"/>
	<path class="st4" d="M27.8,22.9c1.5,0,2.6,1,2.9,2.3c0-0.2,0.1-0.3,0.1-0.5c0-1.6-1.3-2.8-3-2.8c-1.6,0-3,1.3-3,2.8
		c0,0.2,0,0.3,0,0.5C25.1,23.9,26.3,22.9,27.8,22.9z"/>
	<path class="st4" d="M29.5,33.3c4.2-1.1,6.8-4.8,6.5-8.7c-0.2,3.5-2.7,6.7-6.5,7.7c-6.2,1.6-13.4-1.2-13.6-12
		C15.7,31.9,23.1,35,29.5,33.3z"/>
	<path class="st4" d="M30.7,12.5c0,0-0.5-3.6-3.8-3.7c-3-0.1-4.8,2.5-4.7,7.7c0.1-4.6,2-7.1,4.7-7.1c3.2,0.1,3.2,3.5,3.2,3.5
		l5.4,1.5c0.1-0.7,0.2-1.4,0.1-2.1c0,0.4-0.1,1.1-0.1,1.5L30.7,12.5z"/>
	<path class="st3" d="M29.5,6.3c0-0.1-0.2-0.2-0.5-0.3c-0.2-0.1-0.4-0.2-0.6-0.2c-0.2-0.1-0.5-0.1-0.7-0.2c-0.3-0.1-0.6-0.1-0.8-0.1
		s-0.3,0-0.5,0c-0.1,0-0.3,0-0.4,0c-0.2,0-0.3,0-0.5,0c-0.1,0-0.3,0-0.4,0c-0.3,0.1-0.5,0.1-0.8,0.2c-0.2,0-0.5,0.1-0.8,0.2
		s-0.7,0.2-1.1,0.4c-0.7,0.4-1.6,1-2.2,1.7c-0.4,0.4-0.7,0.8-0.9,1.2c-0.3,0.4-0.5,0.8-0.7,1.2c-0.1,0.2-0.2,0.4-0.3,0.6
		c-0.1,0.2-0.2,0.4-0.2,0.6c-0.1,0.4-0.3,0.7-0.3,1c-0.2,0.6-0.3,1-0.3,1.3c-0.1,0.3-0.1,0.6-0.1,0.8c0,0.4,0.1,0.5,0.2,0.5
		c0.2,0.1,0.3,0.2,1.1-2.3c0.1-0.2,0.1-0.3,0.1-0.5c0.1-0.2,0.1-0.3,0.2-0.5c0-0.2,0.1-0.3,0.2-0.5c0.1-0.2,0.2-0.4,0.3-0.5
		s0.1-0.2,0.2-0.3c0-0.1,0.1-0.2,0.2-0.3c0.1-0.2,0.2-0.3,0.3-0.5c0.3-0.3,0.5-0.7,0.8-1c1.1-1.3,2.7-2,3.8-2.2
		c0.1-0.1,0.3-0.1,0.5-0.1s0.4-0.1,0.7-0.1s0.5,0,0.8,0s0.6,0,0.8,0C28.6,6.3,29.5,6.5,29.5,6.3z M17.1,17.8c-0.1,0-0.2,0-0.4-0.3
		c-0.1-0.2-0.2-0.6-0.1-1.2c0.1-0.5,0.3-0.7,0.4-0.7c0.1,0,0.2,0.2,0.2,0.4c0.1,0.6,0.1,1,0,1.2C17.3,17.6,17.2,17.7,17.1,17.8z"/>
</g>
<g>
	<path class="st0" d="M49.3,4.7c-0.3,0.5,0,1.2,0.1,1.7c0.2,1,0.5,2,0.7,2.9c0.7,3,1.4,6.1,2.1,9.1c0.7,3,1.4,6,2.1,9
		c0.2,0.9,0.4,1.8,0.6,2.7c0.1,0.2,0.1,0.4,0.1,0.6c0.1,0.6,0.6,1.1,0.9,1.5c0.3,0.5,0.6,1,1.3,1.1c0.2,0,0.3,0,0.5,0
		c0.7,0,1.4-0.1,2.1-0.1s1.5-0.1,2.2-0.1s1.4-0.2,1.6-0.9c0.8-2.3,1.3-4.6,2-6.9v-0.1c0.5,1.2,0.9,2.4,1.4,3.5
		c0.1,0.2,0.1,0.3,0.2,0.5s0.4,0.4,0.6,0.6c0.1,0.3,0.3,0.6,0.5,0.8c0.4,0.7,0.8,0.9,1.5,0.9c1.5-0.1,2.9-0.1,4.4-0.2
		c0.5,0,1,0,1.5-0.2c0.4-0.2,0.5-0.6,0.6-1c1.2-5.4,2.2-10.8,3.3-16.1c0.2-1.1,0.4-2.2,0.7-3.2c0.2-0.8,0.5-1.8-0.5-2.3
		c-0.2-0.2-0.6-0.4-0.8-0.6c-0.2-0.2-0.5-0.4-0.8-0.6c-0.1-0.1-0.3-0.1-0.4-0.1c-0.6-0.2-1.2-0.3-1.7-0.5c-1.4-0.4-2.8-0.8-4.2-1.3
		c-0.7-0.2-1.4-0.1-1.5,0.7c-0.1,0.7-0.2,1.3-0.3,2c-0.2,1.5-0.5,3-0.7,4.6c-0.4-1-0.9-1.9-1.3-2.9c-0.1-0.3-0.3-0.5-0.5-0.7
		c-0.5-0.3-1-0.7-1.5-1c-0.5-0.6-1.3-0.2-1.6,0.4c-1,1.9-1.9,3.8-2.9,5.7c-0.6-2.5-1.2-5-1.8-7.5c-0.1-0.4-0.2-0.9-0.3-1.3
		c-0.2-0.8-1-1.2-1.7-1.7c-0.4-0.3-0.7-0.6-1.2-0.5c-0.2,0-0.3,0.1-0.5,0.1c-0.7,0.1-1.4,0.2-2,0.3c-1,0.2-1.9,0.3-2.8,0.5
		C50.5,4.2,49.6,4.2,49.3,4.7C49.2,4.9,49.5,4.5,49.3,4.7z"/>
	<path class="st1" d="M49.3,4.7c-0.1,0.2-0.2,0.5-0.1,0.7l6,25.5c0.1,0.4,0.5,0.7,0.9,0.7l0,0l5-0.2c0.4,0,0.7-0.3,0.8-0.7l2.5-8.8
		l2.8,7.2c0.1,0.4,0.5,0.6,0.9,0.6l5.5-0.2c0.4,0,0.8-0.3,0.8-0.7l4.2-20.4c0.1-0.5-0.2-0.9-0.6-1.1l-6.6-2c-0.3-0.1-0.5,0-0.8,0.1
		c-0.2,0.1-0.4,0.4-0.4,0.6l-1.4,8.6l-2.9-6.3c-0.1-0.3-0.5-0.5-0.8-0.5c-0.4,0-0.7,0.2-0.8,0.5l-4,7.9l-3-12.3
		c-0.1-0.5-0.6-0.8-1-0.7l-6.5,1.1C49.7,4.4,49.5,4.5,49.3,4.7z"/>
	<polygon class="st2" points="50.1,5.2 56.5,4.1 60.1,18.9 65.2,8.8 69.3,17.8 71.2,6.2 77.8,8.2 73.6,28.5 68.1,28.8 64.3,19 
		61.1,30.5 56.1,30.7 	"/>
	<g class="st8">
		<path class="st2" d="M60.1,21.8c0.6,0.1,1.2,0.1,1.8,0.2c0.2,0,0.6,0,0.7,0c0.3,0,0.6,0,0.9,0l0.9-3l1.1,2.9
			c1.3-0.1,2.6-0.3,3.9-0.5c2-0.3,4-0.8,5.9-1.3l2.4-12l-6.6-2l-1.8,11.6l-4.1-9l-5.1,10.1L56.5,4.1L50,5.2l3.5,15
			C55.6,21,57.5,21.4,60.1,21.8z"/>
	</g>
	<g>
		<polygon class="st4" points="50.7,6.4 56.1,5.5 59.9,20.5 65.2,10.8 69.6,20.4 71.6,7.6 77.1,9.3 76.2,15.9 77.8,8.2 71.2,6.2 
			69.3,17.8 65.2,8.8 60.1,18.9 56.5,4.1 50.1,5.2 51.4,11 		"/>
	</g>
	<path class="st9" d="M56.8,29.9c0,0.4,1.8,0.3,2.7,0.2l1.2-0.1l1.4-4.3c0.4-1.1,0-1.4-0.1-1.4c-0.2-0.1-0.4-0.2-0.8,1.1L60,29.1
		l-0.6,0.1C58.7,29.2,56.7,29.5,56.8,29.9z M62.3,22.8c0.2,0,0.5,0.4,0.4,0.9c-0.2,0.5-0.6,0.3-0.7,0C61.8,23,62.1,22.8,62.3,22.8z"
		/>
	<path class="st9" d="M68.9,28c0,0.4,1.8,0.4,2.7,0.3l1.6-0.1l0.7-4.1c0.2-1.2-0.1-1.3-0.3-1.4c-0.2,0-0.4-0.2-0.6,1.2l-0.5,3.3
		l-0.9,0.1C70.9,27.3,68.9,27.6,68.9,28z M73.8,21.1c0.2,0,0.6,0.3,0.5,0.8s-0.5,0.4-0.6,0.1C73.4,21.3,73.7,21.1,73.8,21.1z"/>
</g>
<g>
	<path class="st0" d="M95,7.3c-4.4,0-8.7,2.1-11.1,5.7c-1.2,1.8-1.9,3.8-2,5.9c-0.2,2.7,0.7,5.2,2.2,7.3c0.7,1,1.3,1.9,2.1,2.7
		c0.8,0.8,1.7,1.5,2.7,2c2.1,1.2,4.6,1.8,7,1.9c4.4,0.1,8.9-1.6,11.8-5c2.9-3.5,3.5-8.5,1.5-12.6c-0.5-1.1-1.2-2.1-2.1-3
		c-1-1-2.2-1.8-3.3-2.5c-2.2-1.5-4.8-2.3-7.4-2.5C95.9,7.3,95.5,7.3,95,7.3z M93.6,24.5c-0.6,0-1.2-0.1-1.8-0.3s-0.9-0.8-1.1-1.4
		c-0.5-1-0.5-2.1-0.2-3.2c0.7-2,2.7-3.2,4.8-3.1c0.6,0,1.1,0.2,1.6,0.4c0.5,0.2,1.2,0.6,1.4,1c0.4,1.1,0.4,2.2,0,3.3
		C97.6,23.2,95.6,24.5,93.6,24.5z"/>
	<path class="st1" d="M81.9,19.6c0,6.6,5.7,11.6,13.2,11.6s13.5-5.2,13.6-11.8c0.1-3.2-1-6.1-3.1-8.2c-2.5-2.5-6.3-3.9-10.5-3.9
		C87.8,7.3,81.9,12.9,81.9,19.6z M93.6,14.8c2.8,0,5.1,2.2,5.1,4.8c0,2.7-2.3,4.8-5.1,4.8c-2.8,0-5.1-2.2-5.1-4.8
		S90.8,14.8,93.6,14.8z"/>
	<path class="st2" d="M95,8.2c-6.8,0-12.3,5.1-12.3,11.4S88.2,30.4,95,30.4s12.7-4.6,12.8-10.9C107.9,12.1,101.8,8.2,95,8.2z
		 M93.6,25.3c-3.3,0-5.9-2.5-5.9-5.7c0-3.1,2.7-5.7,5.9-5.7c3.3,0,5.9,2.6,5.9,5.7C99.5,22.8,96.9,25.3,93.6,25.3z"/>
	<g class="st8">
		<path class="st2" d="M83.5,22c1.8,0.5,3.7,1,5.6,1.3c-0.9-1-1.4-2.3-1.4-3.7c0-3.1,2.7-5.7,5.9-5.7c3.3,0,5.9,2.6,5.9,5.7
			c0,1-0.3,2-0.8,2.8c3.1-1,6-2.3,9-3.5c-0.2-7-6.1-10.8-12.8-10.8c-6.8,0-12.3,5.1-12.3,11.4c0,0.8,0.1,1.5,0.2,2.2
			C83.1,21.9,83.3,22,83.5,22z"/>
	</g>
	<g>
		<path class="st4" d="M95,9.2c6.3,0,12,3.4,12.7,9.8c0,0,0,0,0.1,0c-0.2-7-6.1-10.8-12.8-10.8c-6.8,0-12.3,5.1-12.3,11.4
			c0,0.2,0,0.3,0,0.5C83,14.1,88.4,9.2,95,9.2z"/>
	</g>
	<path class="st4" d="M88.1,21.9c0,0,1.6,3.4,5.4,3.5c3.9,0,5.3-3.3,5.8-4.6c0,0-0.4,5.3-6.1,5C88.9,25.5,88.1,21.9,88.1,21.9z"/>
	<path class="st9" d="M91,28.7c-0.1,0.1,0.6,0.6,1.6,0.8c1,0.3,2.3,0.4,3.1,0.3c0.9,0,2.7-0.3,4.4-1c0.9-0.3,1.7-0.8,2.4-1.3
		c0.7-0.5,1.3-1,1.7-1.3c0.8-0.7,1.1-1.3,1.2-1.6s0-0.5,0-0.5c-0.1-0.1-0.1-0.1-0.3,0c-0.1,0.1-0.3,0.2-0.5,0.5
		c-0.1,0.1-0.3,0.3-0.4,0.4c-0.2,0.2-0.4,0.3-0.6,0.6c-0.2,0.2-0.5,0.4-0.7,0.6c-0.3,0.2-0.6,0.4-0.9,0.7c-0.6,0.4-1.4,0.8-2.1,1.1
		c-1.5,0.6-3.1,0.9-4.2,0.9c-0.3,0-0.7,0-1.2,0c-0.2,0-0.5,0-0.8,0s-0.5-0.1-0.8-0.1C92,28.8,91.1,28.6,91,28.7z M106.6,21.8
		c0.1,0,0.2,0.1,0.3,0.3c0,0.1,0,0.1,0,0.2s0,0.2,0,0.3c0,0.2-0.1,0.4-0.2,0.6c-0.5,0.9-0.8,0.5-0.7,0.1c0.1-0.3,0.1-0.5,0.2-0.7
		c0-0.2,0.1-0.3,0.1-0.4C106.4,21.9,106.5,21.8,106.6,21.8z"/>
</g>
<g>
	<path class="st0" d="M115.4,7.5c0.2,4.5,0.4,8.9,0.5,13.4c0.1,2.9,0.2,5.9,0.4,8.8c0,0.9,0.1,1.7,0.1,2.6c0,0.2,0,0.4,0,0.6V33
		c0,0.3,0.2,0.5,0.3,0.7c0.2,0.3,0.4,0.7,0.7,0.9c0.3,0.7,0.9,1,1.6,0.9c0.6,0,1.2,0,1.8-0.1c1.4-0.1,2.9-0.1,4.3-0.1
		c0.6,0,1.3-0.2,1.5-0.9c0.2-0.5,0-1-0.1-1.5c-0.2-1.4-0.4-2.8-0.6-4.1c0-0.1,0-0.1,0-0.2c1.9,1.4,3.8,2.9,5.7,4.3
		c0.5,0.4,1.1,0.6,1.6,0.2c0.3-0.2,0.5-0.6,0.8-0.9c0.9-1.2,1.9-2.3,2.8-3.5c0.4-0.5,1-1,1.2-1.6c0.1-0.3,0.1-0.7-0.1-1
		c-0.1-0.2-0.3-0.7-0.6-0.9c-0.4-0.2-0.8-0.4-1.2-0.6c-1.4-0.7-2.8-1.3-4.2-2c2.1-1.2,3.7-3.2,4.2-5.6s0-4.9-1.6-6.8
		c-0.9-1-1.9-1.7-3-2.5c-1.2-0.8-2.3-1.4-3.6-1.9c-2.7-0.9-5.6-0.9-8.4-0.4c-0.9,0.2-1.8,0.3-2.7,0.6C116.3,6.5,115.4,6.7,115.4,7.5
		z M124.6,16.1c0.2,0,0.4,0.1,0.6,0.2c-0.1,0.2-0.4,0.2-0.6,0.2C124.6,16.3,124.6,16.2,124.6,16.1z"/>
	<path class="st1" d="M115.4,7.5l1.1,25.5c0,0.5,0.4,0.9,0.9,0.9l0,0l6.7-0.2c0.2,0,0.5-0.1,0.6-0.3c0.2-0.2,0.2-0.5,0.2-0.7l-1-6.1
		l6.6,5c0.4,0.3,0.9,0.2,1.2-0.1l4.4-5.3c0.2-0.2,0.2-0.5,0.2-0.8c-0.1-0.3-0.2-0.5-0.5-0.6l-6.5-3.1c0.6-0.3,1.2-0.6,1.8-1
		c3.1-2.1,4.3-6.3,2.8-9.7c-1.4-3.3-5.6-5.2-9-5.6c-1-0.1-2.2-0.1-3.5,0c-0.8,0.1-1.6,0.2-2.4,0.3c-1.7,0.3-2.6,0.7-3.2,0.9
		C115.6,6.8,115.4,7.1,115.4,7.5z M125.3,16c-0.1,0.2-0.1,0.5-0.9,0.5c-0.4,0-1-0.1-1.5-0.2l-0.1-2c0.9,0.1,2,0.5,2.4,1
		C125.3,15.5,125.4,15.7,125.3,16z"/>
	<path class="st2" d="M135.5,25.5l-8.5-4c1.3-0.3,2.5-0.8,3.7-1.6c2.8-1.9,3.8-5.7,2.5-8.6c-1.3-3-5.2-4.7-8.3-5
		c-1-0.1-2.2-0.1-3.3,0c-0.8,0.1-1.6,0.2-2.3,0.3c-1.5,0.3-2.4,0.6-3,0.8l0.1,1.3l1,24.2l6.7-0.2l-1.3-8.2l8.4,6.4L135.5,25.5z
		 M122.2,13.4c1.5-0.1,4.5,0.9,4,2.8c-0.5,1.7-2.5,1.2-4.2,0.8l-0.1-3.6C122,13.4,122.1,13.4,122.2,13.4z"/>
	<g class="st7">
		<path class="st2" d="M116.8,18.6c2.6,1,5.4,1.9,8.1,1.9c1.9,0,3.8-0.2,5.7-0.5c0,0,0.1,0,0.1-0.1c2.8-1.9,3.8-5.7,2.5-8.6
			c-1.3-3-5.2-4.7-8.3-5c-1-0.1-2.2-0.1-3.3,0c-0.8,0.1-1.6,0.2-2.3,0.3c-1.5,0.3-2.4,0.6-3,0.8l0.1,1.3L116.8,18.6z M122.2,13.4
			c1.5-0.1,4.5,0.9,4,2.8c-0.5,1.7-2.5,1.2-4.2,0.8l-0.1-3.6C122,13.4,122.1,13.4,122.2,13.4z"/>
	</g>
	<path class="st4" d="M125.7,14.6c0.4,0.4,0.6,1,0.5,1.6c-0.5,1.7-2.5,1.2-4.2,0.8l-0.1-3.4c0,0,0,0-0.1,0v3.9l0.6,0.1
		c0.7,0.2,1.6,0.3,2.3,0.3c1.6,0,1.8-0.5,2-1.2c0.2-0.7,0.1-1-0.4-1.6C126.1,14.9,125.9,14.7,125.7,14.6z"/>
	<path class="st4" d="M116.9,8.5c0.5-0.2,1.3-0.4,2.6-0.7c0.7-0.1,1.5-0.2,2.2-0.3c0.6-0.1,1.2-0.1,1.7-0.1s1,0,1.5,0.1
		c3,0.4,6.6,1.9,7.9,4.7c1.1,2.5,0.4,5.5-1.6,7.4c2.5-2,3.3-5.5,2.1-8.3c-1.3-3-5.2-4.7-8.3-5c-1-0.1-2.2-0.1-3.3,0
		c-0.8,0.1-1.6,0.2-2.3,0.3c-1.5,0.3-2.4,0.6-3,0.8l0.1,1.3l0.1,2.8L116.9,8.5z"/>
	<polygon class="st4" points="127,21.5 135.5,25.5 133.2,28.3 134.5,25.6 125.9,21.5 	"/>
	<path class="st3" d="M118.2,32.1c0,0.3,2.1,0.3,3.2,0.2l2.1-0.2l-0.6-4.7c-0.2-1.4-0.6-1.5-0.7-1.4c-0.2,0-0.4,0-0.2,1.6l0.5,3.8
		l-1.2,0.1C120.5,31.5,118.2,31.8,118.2,32.1z M121.8,24.2c0.2-0.1,0.6,0.1,0.7,0.7s-0.4,0.6-0.5,0.3
		C121.5,24.6,121.7,24.3,121.8,24.2z"/>
</g>
<g>
	<path class="st0" d="M163,34.1c1.5,0,1.3-1.9,1.4-2.9c0.1-1.6,0.1-3.2,0.2-4.8c0-0.5,0-1,0.1-1.4c0-1-0.7-1.2-1.3-1.7
		c-0.5-0.4-1.1-0.8-1.7-0.8c-0.7,0-1.4,0-2.1,0c-0.3,0-2.9,0.2-2.9,0c-0.1-0.8-0.1-1.6-0.2-2.4c-0.3-3.2-0.5-6.4-0.8-9.5
		c-0.1-1.2-0.2-2.4-0.3-3.5c0-0.2,0-0.5-0.1-0.7c-0.1-0.9-1-1.3-1.7-1.7c-0.4-0.3-0.8-0.6-1.3-0.5c-0.1,0-0.2,0-0.3,0.1
		c-0.5,0.1-1.1,0.2-1.6,0.3c-1.6,0.3-3.2,0.7-4.8,1c-0.8,0.2-2.7,0.2-2.4,1.5c0.1,0.5,0.2,1,0.3,1.4c0.6,2.6,1.2,5.3,1.8,7.9
		c1.1,5,2.3,10,3.4,14.9c0,0.1,0,0.1,0.1,0.2c0.1,0.3,0.3,0.5,0.5,0.7c0.2,0.3,0.4,0.7,0.7,1c0.3,0.5,0.8,0.7,1.4,0.7
		c1.2,0.1,2.4,0.1,3.5,0.1c2.7,0.1,5.3,0.2,8,0.3C162.9,34.1,163,34.1,163,34.1z"/>
	<path class="st1" d="M161.5,32.3c0.5,0,0.9-0.4,0.9-0.9l0.4-8.1c0-0.3-0.1-0.5-0.3-0.7c-0.2-0.2-0.4-0.3-0.7-0.3l-7,0.1l-1.5-17.8
		c0-0.3-0.2-0.5-0.4-0.7c-0.2-0.2-0.5-0.2-0.7-0.2l-8.3,1.7c-0.2,0.1-0.5,0.2-0.6,0.4c-0.1,0.2-0.2,0.5-0.1,0.7l5.5,24.4
		c0.1,0.4,0.4,0.7,0.9,0.7L161.5,32.3L161.5,32.3z"/>
	<polygon class="st2" points="144.2,6.5 152.5,4.8 154.1,23.4 161.9,23.3 161.5,31.4 149.7,30.9 	"/>
	<path class="st3" d="M153.6,17.5l-1.1-12.7l-8.3,1.7l2.9,12.7C149.1,18.4,151.4,17.9,153.6,17.5z"/>
	<path class="st4" d="M152.5,4.8l-8.3,1.7l1,4.5l-0.3-3.3l7.3-1.8l1.9,17.8l7.5,0.4l0.3,3.3l0.2-4c0,0-7.9,0.1-7.8,0.1L152.5,4.8z"
		/>
	<path class="st3" d="M157.7,30.6c0-0.4-2.8-0.7-4.3-0.8l-2.8-0.2l-0.9-4.5c-0.4-1.8-0.8-2-1-1.9c-0.2,0-0.4-0.1,0,2.1l1.1,5.2
		l3.5,0.2C154.5,30.8,157.7,30.9,157.7,30.6z M148.2,20.8c0.2-0.1,0.7,0.2,0.8,1c0.2,0.8-0.3,0.8-0.5,0.5
		C147.9,21.4,148,20.9,148.2,20.8z"/>
</g>
<g>
	<path class="st0" d="M191,8.9c-1.5-1-2.9-2.1-4.5-2.8c-1.7-0.7-3.5-1.2-5.3-1.4c-4.1-0.5-8.3,0.1-12.1,1.7
		c-1.2,0.5-0.9,1.4-0.8,2.4c0.1,1.2,0.1,2.5,0.4,3.7c0.3,1.4,0.9,6.1,2.3,20.1c1,0.7,2.7,1.5,4.8,2c1.3,0.3,2.5,0.3,4.2,0.2
		c4.1-0.3,7.6-0.6,10.8-2.9c0.8-0.6,3.8-2.8,5.2-6.8C198.9,16.3,191,9,191,8.9L191,8.9z M181.7,21.1c-0.1,0.1-0.1,0.3-0.2,0.4
		c-0.1-0.8-0.3-1.6-0.4-2.4c0.4,0.1,1,0.2,1,0.6C182.1,20.2,182,20.6,181.7,21.1C181.7,21.2,182,20.6,181.7,21.1z"/>
	<path class="st1" d="M178.3,4.5c-1,0-2.1,0.1-3.1,0.2c-2.2,0.3-4.4,0.9-6.4,1.7c-0.5,0.2-0.8,0.7-0.7,1.3
		c0.9,8.3,1.9,16.5,2.8,24.8c0.9,0,7.9,0.2,12.7-0.6c2-0.3,3.3-0.8,4.6-1.4c1.2-0.6,2.2-1.2,2.6-1.6c3.8-2.8,5.5-8.3,4.1-13.3
		C192.8,8.7,186.6,4.5,178.3,4.5z M179.6,22.6l-1.1-6c1.7,0.2,2.7,0.9,3.3,2c0.3,0.7,0.3,1.7-0.1,2.5s-1,1.3-1.7,1.5
		C179.9,22.6,179.8,22.6,179.6,22.6z"/>
	<path class="st2" d="M193.6,16c-2.3-8.2-10.5-11.1-18.2-10.1c-2.1,0.3-4.2,0.8-6.1,1.7l1,8.9c0.6,4.9,1.2,9.8,1.8,14.7
		c4,0.1,7.2,0,9.6-0.2c2.1-0.2,3.9-0.5,6-1.5c0.8-0.4,1.6-0.8,2.3-1.4C193.6,25.3,194.8,20.3,193.6,16z M180.3,23.7
		c-0.5,0.1-1.1,0.1-1.8-0.1l-1.5-8.3c2.4-0.1,4.8,0.5,5.9,2.8C183.9,20.2,182.7,23.1,180.3,23.7z"/>
	<path class="st3" d="M170.6,19.4c2.4-0.3,4.7-0.5,7.1-0.5l-0.7-3.6c2.4-0.1,4.8,0.5,5.9,2.8c0.1,0.3,0.2,0.6,0.3,1
		c3.7,0.2,7.2,0.8,10.8,1.5c0.1-1.5,0-3.1-0.4-4.6c-2.3-8.2-10.5-11.1-18.2-10.1c-2.1,0.3-4.2,0.8-6.1,1.7l1,8.9L170.6,19.4z"/>
	<path class="st4" d="M175.3,5.9c-2.1,0.3-4.2,0.8-6.1,1.7l1,8.9L170,9.1c1.7-0.7,3.5-1.2,5.4-1.4c0.9-0.1,1.9-0.2,2.9-0.2
		c7.4,0,13.2,3.3,15,9.4c0.3,1,0.5,1.6,0.7,3.8c0.1-1.5,0-3.1-0.4-4.6C191.2,7.8,183.1,4.9,175.3,5.9z"/>
	<path class="st4" d="M177.2,16.2l1.4,7.4c0,0,1.8,0.7,3.4-0.8s1.2-4,1.2-4s1.5,4.4-2.5,5.4c-0.9,0.2-2.4,0-2.4,0L177.2,16.2z"/>
	<path class="st3" d="M181.1,29.7c0,0.2,0.6,0.4,1.4,0.4s1.7-0.2,2.3-0.4s1.9-0.6,3.1-1.3c1.2-0.7,2.3-1.6,2.9-2.3
		c0.3-0.3,0.4-0.6,0.5-0.9c0.1-0.2,0.1-0.4,0.1-0.6c0-0.3-0.2-0.4-0.3-0.5c-0.1-0.1-0.2-0.1-0.4,0c-0.2,0.1-0.4,0.4-0.9,1.1
		s-1.5,1.4-2.5,2s-2.1,1-2.9,1.2c-0.4,0.1-1.2,0.4-1.9,0.6C181.7,29.3,181.1,29.5,181.1,29.7z M191.4,22.3c0.1,0,0.3,0,0.5,0.2
		s0.3,0.5,0.2,0.8c-0.2,0.8-0.8,0.4-0.9,0.1c-0.2-0.4-0.2-0.7-0.2-0.9C191.2,22.5,191.3,22.4,191.4,22.3z"/>
</g>
<g>
	<path class="st0" d="M200.8,31.3c1.5,2.2,3.6,4,6.2,4.7c2.4,0.6,5,0.2,7.1-1.1c2-1.3,3.4-3.3,3.5-5.7s-0.8-4.5-2.2-6.3
		c-1.4-1.7-3.3-2.9-4.9-4.5c-0.6-0.6-1.6-1.6-1.2-2.5c0.3-0.5,0.8-0.9,1.4-0.9c0.2,0,0.3-0.1,0.3,0.2c0,0.2,0,0.3,0,0.5
		c0,0.4,0,0.8-0.1,1.1c-0.1,0.5,0.2,0.9,0.6,1.3c0.3,0.4,0.5,0.9,0.8,1.2c0.5,0.5,1.2,0.2,1.7,0.1c0.7-0.2,1.4-0.5,2.1-0.8
		c1.3-0.6,2.6-1.3,3.9-1.9c1.2-0.6,0.9-2,0.6-3.1c-0.5-2.3-1.8-4.4-3.8-5.7c-1-0.8-2.1-1.5-3.3-2c-1.2-0.5-2.6-0.6-3.9-0.4
		c-2.6,0.3-4.7,1.9-6.2,4c-1.4,2.1-2.2,4.6-1.5,7.1c0.5,1.7,1.6,3.3,2.7,4.6c0.6,0.8,1.4,1.4,2.1,2c0.4,0.3,0.8,0.6,1.2,0.9
		c0.2,0.1,0.4,0.2,0.4,0.5c0,0.2,0,0.4-0.1,0.6c0.1-0.8-0.5-1.4-1.2-1.7c-0.4-0.4-1-0.8-1.6-0.8c-2,0.2-3.9-0.2-5.9-0.1
		c-0.4,0-0.8,0-1.1,0.2c-0.3,0.3-0.4,0.8-0.5,1.1c-0.2,0.8-0.1,1.7,0,2.6C198.7,28.3,199.7,29.8,200.8,31.3
		C200.9,31.4,200.7,31.2,200.8,31.3z"/>
	<path class="st1" d="M202.7,32.9c1.5,1.1,3.3,1.6,5.2,1.6l0,0c2.8,0,5.3-1.2,6.9-3.4c1.7-2.3,1.4-5.6,0.3-7.6
		c-1.3-2.2-2.7-3.5-4.5-4.9c-1-0.8-2.9-2.3-3-3.6c0-0.4,0.1-0.8,0.5-1.2s0.9-0.6,1.5-0.6c0.4,0,0.8,0.1,1,0.3
		c0.7,0.6,0.6,2.2,0.5,3.3c0,0.3,0.1,0.5,0.3,0.7s0.5,0.2,0.8,0.2c1.7-0.4,3.2-1.2,4.6-1.9c0.7-0.3,1.4-0.7,2.1-1
		c0.3-0.1,0.5-0.5,0.5-0.9c0-0.2,0-0.3,0-0.5c-0.4-4.6-4-8.1-8.4-8.1c-2,0-4,0.8-5.6,2.2c-1.4,1.3-2.8,3.6-3.2,5.5
		c-0.5,2.4,0.3,4.9,2.1,6.9c0.6,0.7,1.3,1.2,2,1.7c1,0.7,2,1.5,2.4,2.5c0.2,0.4,0,0.7-0.1,0.9c-0.2,0.3-0.5,0.5-0.8,0.5
		c-0.2,0-0.5-0.1-0.7-0.3c-0.3-0.3-0.3-0.8-0.2-1.7c0-0.3,0-0.5-0.2-0.7s-0.5-0.3-0.7-0.2c-0.4,0.1-0.8,0.1-1.3,0.1
		c-0.7,0-1.4,0-2.2-0.1c-0.7-0.1-1.5-0.1-2.3-0.1c-0.4,0-0.7,0-1,0s-0.6,0.3-0.7,0.6C197.3,26.7,199.8,30.9,202.7,32.9z"/>
	<path class="st2" d="M210.1,19.3c-1.6-1.3-4.8-3.8-2.7-6c1-1.1,2.7-1.2,3.7-0.4s0.9,2.6,0.8,4.1c2.4-0.6,4.4-1.9,6.6-2.9
		c0-0.2,0-0.4,0-0.5c-0.5-6.5-7.7-9.7-12.6-5.4c-1.3,1.1-2.6,3.3-2.9,5c-0.5,2.3,0.4,4.5,1.9,6.2c1.4,1.6,3.7,2.4,4.6,4.5
		c0.7,1.8-1.6,3.4-3,1.9c-0.6-0.7-0.5-1.5-0.4-2.4c-2.1,0.3-4.6-0.3-6.7-0.1c-1,3.2,1.4,7,3.9,8.9c3.4,2.4,8.3,1.9,10.9-1.6
		c1.4-1.9,1.3-4.8,0.3-6.7C213.2,21.9,211.9,20.7,210.1,19.3z"/>
	<path class="st3" d="M208.1,17.6c-1.2-1.3-2.1-2.8-0.7-4.3c1-1.1,2.7-1.2,3.7-0.4s0.9,2.6,0.8,4.1c2.4-0.6,4.4-1.9,6.6-2.9
		c0-0.2,0-0.4,0-0.5c-0.5-6.5-7.7-9.7-12.6-5.4c-1.3,1.1-2.6,3.3-2.9,5c-0.3,1.6,0,3.2,0.8,4.6C205.2,17.7,206.6,17.6,208.1,17.6z"
		/>
	<g>
		<path class="st4" d="M205.8,9.2c4.9-4.3,11.8-1.2,12.6,4.9h0.1c0-0.2,0-0.4,0-0.5c-0.5-6.5-7.7-9.7-12.6-5.4
			c-1.3,1.1-2.6,3.3-2.9,5c-0.1,0.6-0.2,1.2-0.1,1.8c0-0.3,0-0.5,0.1-0.8C203.2,12.5,204.6,10.3,205.8,9.2z"/>
	</g>
	<path class="st4" d="M210.1,20c1.8,1.4,3.1,2.6,4.3,4.7c0.4,0.8,0.7,1.8,0.8,2.8c0.1-1.3-0.2-2.6-0.8-3.5c-1.2-2.1-2.5-3.2-4.3-4.7
		c-1.2-0.9-3.1-2.4-3.3-4.1C206.5,17.1,208.8,19,210.1,20z"/>
	<path class="st4" d="M206.4,26.5c1.3,1.4,3.4,0.1,3.1-1.6c-0.3,1.3-2,2.1-3.1,0.9c-0.3-0.3-0.4-0.7-0.5-1.1
		C205.9,25.4,205.9,26,206.4,26.5z"/>
	<path class="st4" d="M205.9,24.1c0-0.2,0.1-0.5,0.1-0.7c-2.1,0.3-4.6-0.3-6.7-0.1c-0.2,0.6-0.3,1.3-0.2,1.9c0-0.4,0.1-0.8,0.2-1.3
		C201.4,23.9,203.8,24.4,205.9,24.1z"/>
	<path class="st3" d="M199.8,27.1c-0.1,0,0,0.2,0.1,0.5c0.1,0.2,0.1,0.3,0.2,0.5s0.2,0.4,0.3,0.6c0.3,0.4,0.5,0.9,0.9,1.3
		c0.2,0.2,0.3,0.4,0.5,0.6s0.4,0.3,0.5,0.5c0.1,0.1,0.2,0.2,0.3,0.3c0.1,0.1,0.2,0.2,0.4,0.3c0.3,0.2,0.5,0.4,0.9,0.6
		c0.7,0.4,1.6,0.8,2.5,0.9c0.9,0.2,1.9,0.1,2.7,0c0.8-0.2,1.5-0.4,2-0.6c0.3-0.1,0.5-0.2,0.6-0.3l0.1-0.1c0.1,0,0.1-0.1,0.1-0.1
		c0.1-0.1,0.2-0.1,0.2-0.2c0.3-0.2,0.4-0.4,0.5-0.5c0.2-0.3,0.1-0.4,0.1-0.5c-0.1-0.1-0.1-0.2-0.3,0c-0.1,0.1-0.3,0.2-0.5,0.3
		c-0.1,0-0.1,0.1-0.2,0.1s-0.2,0.1-0.3,0.1c-0.1,0.1-0.2,0.1-0.4,0.2c-0.1,0.1-0.2,0.1-0.4,0.2c-0.5,0.3-1.2,0.5-1.9,0.6
		c-0.2,0-0.4,0.1-0.6,0.1s-0.4,0-0.6,0c-0.4,0-0.8,0-1.1-0.1h-0.3c-0.1,0-0.2-0.1-0.3-0.1c-0.2-0.1-0.4-0.1-0.5-0.2
		c-0.3-0.2-0.7-0.3-1-0.5c-0.2-0.1-0.3-0.2-0.4-0.3s-0.3-0.2-0.4-0.3c-0.1-0.1-0.3-0.2-0.4-0.3c-0.1-0.1-0.2-0.2-0.3-0.3
		s-0.2-0.2-0.4-0.4c-0.2-0.1-0.3-0.3-0.5-0.5s-0.3-0.4-0.5-0.6s-0.3-0.4-0.5-0.6c-0.3-0.4-0.6-0.8-0.8-1
		C200,27.2,199.9,27,199.8,27.1z M214.1,28.7c0.1,0,0.2,0.1,0.2,0.4c0,0.1,0,0.3,0,0.4s0,0.2-0.1,0.3c0,0.1-0.1,0.2-0.2,0.3
		c-0.1,0.2-0.2,0.3-0.3,0.4c-0.1,0.1-0.2,0.1-0.3,0s-0.1-0.2-0.1-0.4c0.1-0.3,0.1-0.5,0.2-0.7c0-0.2,0.1-0.3,0.2-0.4
		C213.9,28.8,214,28.7,214.1,28.7z"/>
</g>
</svg>
