<?xml version="1.0" encoding="utf-8"?>
<!-- Generator: Adobe Illustrator 24.0.2, SVG Export Plug-In . SVG Version: 6.00 Build 0)  -->
<svg version="1.1" id="Capa_1" xmlns="http://www.w3.org/2000/svg" xmlns:xlink="http://www.w3.org/1999/xlink" x="0px" y="0px"
	 viewBox="0 0 255.9 39" style="enable-background:new 0 0 255.9 39;" xml:space="preserve">
<style type="text/css">
	.st0{fill:#352E16;}
	.st1{fill:#954415;}
	.st2{fill:#F1AF02;}
	.st3{opacity:0.8;fill:#F1AF02;}
	.st4{fill:#FFFFFF;}
	.st5{opacity:0.7;}
	.st6{fill:#F9B84A;}
	.st7{fill:#F6EB69;}
	.st8{opacity:0.8;}
	.st9{fill:#F4F4F4;}
</style>
<path class="st0" d="M24.3,25c1.3-0.6,2-0.2,2.1-0.1c1,0.6,0.9,2.1,0.9,3.5c0,1.4,0,2.4-0.5,3.2c0,0-0.1,0.1-0.1,0.1
	c-1,1.4-4.9,1.6-11.2,1.2c-3.1-0.2-1.4-0.2-3.9-0.3c-1.5-0.1-2.2-0.1-3.2-0.5c-0.9-0.3-1.7-0.6-2.4-1.3c-1.5-1.6-1-4.1-0.9-4.7
	c0.2-1,0.6-2,2.6-4.6c1-1.3,2.5-3.1,4.5-5.1c0.4-0.4,1.2-1.2,2.1-2.1c1.1-1.1,1.5-1.4,1.4-1.6c-0.2-0.5-2.5-0.1-3.4,0.1
	c-6.6,1.3-7.2,1.1-7.6,0.9c-2.2-1.1-2.5-6.2-0.8-7.5C5,5.6,7.3,6.1,8.9,5.7c0.1,0,0.7-0.2,1.4-0.3c0.2,0,0.4-0.1,0.6-0.1
	c1.7-0.3,2.6-0.4,3.6-0.2C16.8,5.5,18.7,7,19.9,9c1.2,2,1.8,4.3,1,6.5c-0.5,1.5-1.3,2.5-2.7,4.1c-2.1,2.5-3.9,3.4-3.6,4.5
	c0.1,0.4,0.4,0.7,1.2,1.1C18.9,26.6,22.6,25.6,24.3,25z"/>
<path class="st1" d="M16.2,32.4c-2.3,0-4.5,0.1-6.8-0.4c-0.4-0.1-1.5-0.4-2.6-1.2c-0.4-0.3-0.9-0.8-1.2-1.5c-0.3-0.7-0.1-1.4,0-2
	c0.5-1.9,1.6-3.6,2.8-5.2c0.7-0.9,1.7-2.1,2.9-3.4c1.1-0.9,1.9-1.8,2.5-2.4c0.5-0.5,0.7-0.9,0.8-1c0.7-0.9,1.9-2.4,1.5-3.1
	c-0.3-0.4-1.4-0.1-3.7,0.3c-2.6,0.5-3.9,0.8-4.1,0.8c-0.7,0.2-1.4,0.5-2.1,0.3c-0.6-0.2-1.1-0.7-1.4-0.9c-0.1-0.1-0.6-0.6-0.9-1.3
	c-0.6-1.2-1.2-3.6-0.1-4.9c0.4-0.5,0.9-0.6,3.6-0.9c3.3-0.4,5-0.6,6.2-0.7c2.6-0.1,3.9-0.1,5.6,0.3c2,0.5,4.2,1,5.1,2.9
	c0.5,1.3,0.1,2.5-0.2,3.7c0,0-0.7,2.3-5.1,6.8c-0.1,0.1-0.1,0.1-0.1,0.1c-0.2,0.1-0.3,0.2-1.8,1.3c-1.9,1.5-2.8,2.2-3.1,2.8
	c-0.2,0.4-0.8,1.5-0.5,2.4c0.6,1.3,2.9,1.4,3.8,1.5c5.1,0.3,7.5-2.9,9.2-1.8c1.4,0.9,1.5,4.6-0.1,6.3c-0.2,0.2-0.4,0.4-0.6,0.5
	C23.5,33.2,20.7,32.5,16.2,32.4z"/>
<path class="st2" d="M13.7,17.8c0.2-0.1,0.3-0.2,0.4-0.3c0.3-0.3,2-2.1,2.8-3.2c0.5-0.6,1.1-1.5,0.8-2.1c-0.4-0.7-2.2-0.5-4.7-0.2
	c-0.6,0.1-1.4,0.2-3.1,0.5c-1,0.2-1.6,0.3-1.7,0.3C7.7,12.8,7.4,13,7,12.9c-0.4-0.1-0.6-0.3-0.9-0.5C6,12.3,5.4,11.8,5,10.6
	C4.7,9.8,4.5,9.3,4.7,8.8c0.2-0.5,0.8-0.7,1.6-1c2.2-0.8,1.8-1,3.4-1.5c1.4-0.4,2.5-0.5,4.1-0.6c3-0.1,4.9-0.2,6.9,0.8
	c0.9,0.4,2.4,1.2,2.8,2.8c0.3,1.1-0.1,2-0.5,3.1c-0.6,1.7-1.7,2.7-2.1,3.1c-0.4,0.4-0.5,0.4-1.4,1.1c-1.2,1-2.2,2-4.1,3.8
	c-0.8,0.8-1.2,1.2-1.4,1.5c-1,1.2-2.2,2.6-1.8,3.6c0.4,1.4,3.5,2.1,7.4,1.7c0.6,0,1.5,0,2.5-0.2c1.8-0.4,2.5-1,3.2-0.7
	c0.5,0.3,0.6,0.9,0.8,1.9c0.1,0.5,0.3,1.5,0.1,2.2c-0.5,1.4-3.1,0.8-9.7,1.3c0,0-1.4,0.1-4.2,0.1c-1.5,0-2.2-0.1-3.1-0.4
	c-0.7-0.3-1.6-0.6-2.2-1.6c-0.9-1.3-0.5-2.9-0.4-3.2c0.2-1,0.7-1.6,1.2-2.2c0.6-0.8,1.3-1.4,1.8-2.6C9.6,21.6,9.1,21,13.7,17.8z"/>
<path class="st3" d="M14.5,16.5c0.6-0.4,1.6-1.1,2.4-2.3c0.6-0.8,1.1-1.6,0.8-2.1c-0.2-0.5-1.2-0.7-4.7-0.2c-1.5,0.2-3.6,0.5-6.1,1
	c-0.2-0.1-1.6-0.8-2-2.3C4.6,8.7,6.3,7.2,6.4,7.1c0.3-0.2,0.8-0.6,4.3-1.1c0.8-0.1,1.7-0.2,3-0.3c3.2-0.1,8.1-0.3,9.5,2.2
	c0.4,0.7,0.4,1.4,0.3,2.2c-0.2,3.6-3.1,5.8-3.9,6.4c-0.6-0.1-1.3-0.2-2-0.2C16.4,16.4,15.4,16.4,14.5,16.5z"/>
<g>
	<path class="st4" d="M23.5,9.4c-0.3-0.4-0.8-1-1.6-1.5c-2.5-1.8-5.4-1.6-9.6-1.2c-4.9,0.5-6,1.6-6.5,2.2C5.3,9.5,5.1,10.2,5,10.6
		C4.3,9,4.5,8.2,4.7,7.8c0.2-0.3,0.8-1.3,7-2c2.2-0.2,3.4-0.3,5-0.2C19,5.8,22.2,6,23.2,8C23.5,8.5,23.5,9,23.5,9.4z"/>
</g>
<path class="st4" d="M15.9,15.8c-0.9,1.1-1.3,1.4-3,3c-1.6,1.5-2.7,2.9-3.4,3.7c-1.6,2-2.5,3.3-2.6,3.2c-0.1-0.1,0.5-1.1,1-2
	c0.8-1.3,1.7-2.3,2.4-3c1.7-1.8,2.4-2.3,4.1-4c0.7-0.7,1.7-1.7,2.9-3.1C17.1,14,16.6,14.8,15.9,15.8z"/>
<path class="st4" d="M12.7,26.3c-0.3-0.4-0.4-0.8-0.4-0.8c-0.3-1.3,0.8-2.5,1-2.8c-0.7,0.8-0.9,1.8-0.5,2.6c0.2,0.5,0.5,0.8,0.8,0.9
	c0.5,0.2,1,0.4,1.6,0.5c1.3,0.4,2.6,0.5,3.6,0.5C18.4,27.4,13.9,28,12.7,26.3z"/>
<path class="st3" d="M17.3,31c-0.3,0-1.3,0.1-3.3,0.1c-1.8,0.1-2.2,0.1-2.8,0c-1.3-0.1-2-0.2-2.8-0.8c-0.8-0.6-1.1-1.4-1.2-1.8
	c0.8,0.8,1.6,1.2,2.2,1.4c0.1,0,0.3,0.1,1.3,0.2c0.7,0.1,1.4,0.2,2.6,0.3c0.7,0.1,2.1,0.2,3.9,0.1c1,0,2.2-0.1,3.6-0.3
	C19.9,30.6,18.7,30.8,17.3,31z M7,26.9C7,26.9,7,27,7,26.9c-0.1,0.5,0,1,0.1,1c0.1,0,0.3-0.2,0.3-0.2c0.2-0.2,0.1-0.5,0.1-0.8
	c0-0.8,0.1-1.1,0-1.1C7.5,25.8,7.1,26.4,7,26.9z"/>
<g>
	<path class="st0" d="M40.2,6.2c-4.1,0-8.1,2-10.4,5.3c-1.1,1.6-1.8,3.5-1.9,5.5c-0.1,2.5,0.7,4.8,2.1,6.8c0.6,0.9,1.2,1.8,2,2.5
		c0.7,0.7,1.6,1.4,2.5,1.9c2,1.1,4.2,1.7,6.5,1.7c4.1,0.1,8.3-1.4,11-4.7c2.7-3.2,3.2-7.9,1.4-11.7c-0.5-1-1.2-2-2-2.8
		c-0.9-0.9-2-1.6-3.1-2.4c-2-1.4-4.5-2.1-6.9-2.3C41.1,6.2,40.7,6.2,40.2,6.2z M38.9,22.1c-0.6,0-1.1-0.1-1.7-0.3
		c-0.5-0.2-0.8-0.8-1.1-1.3c-0.4-0.9-0.5-2-0.1-2.9c0.6-1.9,2.5-3,4.5-2.9c0.5,0,1,0.2,1.5,0.4c0.4,0.2,1.1,0.5,1.3,1
		c0.4,1,0.4,2.1,0,3.1C42.7,21,40.8,22.1,38.9,22.1z"/>
	<path class="st1" d="M28,17.6c0,6.2,5.3,10.8,12.3,10.8c7,0,12.6-4.8,12.7-11c0-3-1-5.6-2.9-7.6c-2.3-2.3-5.9-3.7-9.8-3.7
		C33.5,6.2,28,11.3,28,17.6z M38.9,13.1c2.6,0,4.7,2,4.7,4.5c0,2.5-2.1,4.5-4.7,4.5c-2.6,0-4.7-2-4.7-4.5
		C34.2,15.2,36.3,13.1,38.9,13.1z"/>
	<path class="st2" d="M40.2,7c-6.3,0-11.4,4.8-11.4,10.6c0,5.9,5.1,10,11.4,10c6.3,0,11.8-4.3,11.9-10.2C52.2,10.6,46.6,7,40.2,7z
		 M38.9,22.9c-3,0-5.5-2.4-5.5-5.3c0-2.9,2.5-5.3,5.5-5.3c3,0,5.5,2.4,5.5,5.3C44.4,20.6,42,22.9,38.9,22.9z"/>
	<g class="st5">
		<path class="st2" d="M29.5,19.9c1.7,0.5,3.5,0.9,5.2,1.2c-0.8-0.9-1.3-2.1-1.3-3.4c0-2.9,2.5-5.3,5.5-5.3c3,0,5.5,2.4,5.5,5.3
			c0,1-0.3,1.8-0.7,2.6c2.8-1,5.6-2.2,8.4-3.2C52,10.5,46.4,7,40.2,7c-6.3,0-11.4,4.8-11.4,10.6c0,0.7,0.1,1.4,0.2,2.1
			C29.2,19.8,29.3,19.8,29.5,19.9z"/>
	</g>
	<g>
		<path class="st4" d="M40.2,7.9c5.9,0,11.2,3.2,11.8,9.1c0,0,0,0,0.1,0C52,10.5,46.4,7,40.2,7c-6.3,0-11.4,4.8-11.4,10.6
			c0,0.2,0,0.3,0,0.5C29.1,12.4,34.1,7.9,40.2,7.9z"/>
	</g>
	<path class="st4" d="M33.8,19.7c0,0,1.5,3.2,5.1,3.2c3.6,0,5-3.1,5.4-4.3c0,0-0.4,5-5.7,4.6C34.6,23.1,33.8,19.7,33.8,19.7z"/>
	<path class="st6" d="M36.5,26.1c-0.1,0.1,0.6,0.5,1.5,0.8c0.9,0.3,2.1,0.4,2.9,0.3c0.8,0,2.5-0.2,4.1-0.9c0.8-0.3,1.6-0.8,2.2-1.2
		c0.6-0.5,1.2-0.9,1.6-1.3c0.7-0.7,1-1.2,1.1-1.5c0.1-0.3,0-0.4,0-0.5c-0.1-0.1-0.1-0.1-0.3,0c-0.1,0.1-0.2,0.2-0.5,0.4
		c-0.1,0.1-0.2,0.2-0.4,0.4c-0.2,0.1-0.3,0.3-0.5,0.5c-0.2,0.2-0.4,0.4-0.7,0.6c-0.3,0.2-0.5,0.4-0.8,0.6c-0.6,0.4-1.3,0.8-2,1
		c-1.4,0.6-2.9,0.8-3.9,0.9c-0.3,0-0.7,0-1.1,0c-0.2,0-0.5,0-0.7,0c-0.2,0-0.5-0.1-0.7-0.1C37.4,26.2,36.6,26,36.5,26.1z M51,19.7
		c0.1,0,0.2,0.1,0.3,0.3c0,0.1,0,0.1,0,0.2c0,0.1,0,0.2,0,0.2c0,0.2-0.1,0.4-0.2,0.6c-0.5,0.8-0.7,0.4-0.7,0.1
		c0.1-0.3,0.1-0.5,0.1-0.7c0-0.2,0.1-0.3,0.1-0.4C50.8,19.8,51,19.7,51,19.7z"/>
</g>
<g>
	<path class="st0" d="M57.2,28.5c0.1,0.2,0.3,0.5,0.5,0.7c0.1,0.2,0.3,0.5,0.5,0.6c0.2,0.1,0.4,0.2,0.6,0.2c0.5,0.1,1,0.2,1.5,0.3
		c1.3,0.2,2.6,0.5,3.8,0.7c0.6,0.1,1.3,0,1.6-0.7c0.1-0.3,0.1-0.7,0.1-1c0.2-1.4,0.3-2.7,0.5-4.1c0.1-0.8,0.2-1.5,0.3-2.3
		c0.2,0.5,0.4,0.9,0.6,1.4c0.3,0.7,0.8,1.4,1.3,2c0.6,0.7,1.6,0.4,2-0.4c0.2-0.5,0.4-1,0.6-1.5c0.1,0.4,0.1,0.9,0.2,1.3
		c0.1,0.7,0.1,1.4,0.2,2c0,0.1,0,0.2,0,0.4c0,0.3,0.2,0.5,0.4,0.8c0.1,0.1,0.9,1.3,1.1,1.4c0.2,0.1,0.5,0.2,0.7,0.1
		c2.4-0.2,4.8-0.4,7.1-0.6c0.9-0.1,2.1-0.1,1.9-1.4c-0.1-0.5-0.1-1-0.2-1.5c-0.3-2.5-0.6-4.9-0.9-7.4c-0.3-2.8-0.7-5.7-1-8.5
		c-0.1-1-0.2-1.9-0.3-2.9c0-0.4,0-0.9-0.2-1.3c-0.2-0.5-0.7-0.8-1.2-1.1c-0.3-0.2-0.7-0.6-1.2-0.7c-0.3,0-0.7,0-1-0.1
		c-1.4-0.1-2.8-0.2-4.2-0.3c-0.7,0-2.3-0.5-2.6,0.4c-0.4,1.1-0.8,2.2-1.2,3.3c-0.1,0.2-0.2,0.5-0.3,0.7c-0.1-0.5-0.3-1-0.5-1.5
		c-0.1-0.5-0.2-1.2-0.6-1.6C67.5,6.3,67.3,6.1,67,6c-0.2-0.2-0.5-0.4-0.7-0.5c-0.2-0.2-0.6-0.4-0.9-0.4c-0.5,0-1.1,0-1.6,0
		c-0.7,0-1.4,0-2.1,0c-0.5,0-1.1,0-1.3,0.6c-0.1,0.4-0.1,0.8-0.2,1.2c-0.9,5.2-1.7,10.4-2.5,15.5c-0.2,1.3-0.4,2.6-0.6,3.8
		C56.9,27,56.6,27.8,57.2,28.5C57.2,28.6,57.1,28.4,57.2,28.5z"/>
	<path class="st1" d="M57.4,28.5l5.7,1.1c0,0,0.1,0,0.1,0c0.2,0,0.3-0.1,0.5-0.2c0.2-0.1,0.3-0.3,0.3-0.6l1.1-9l2.2,5
		c0.1,0.3,0.4,0.5,0.7,0.5h0c0.3,0,0.6-0.2,0.7-0.5l1.8-4.3l0.9,7.8c0,0.4,0.4,0.7,0.9,0.7l8.1-0.6c0.2,0,0.4-0.1,0.6-0.3
		c0.1-0.2,0.2-0.4,0.2-0.6L78.7,6.2c0-0.4-0.4-0.7-0.8-0.7l-7-0.4c-0.4,0-0.7,0.2-0.8,0.5L68,11.5l-1.8-5.8
		c-0.1-0.3-0.4-0.6-0.8-0.6h-4.3c-0.4,0-0.7,0.3-0.8,0.7l-3.6,21.7C56.7,28,57,28.4,57.4,28.5z"/>
	<polygon class="st2" points="63.3,28.7 57.6,27.7 61.2,5.9 65.5,5.9 68,14 70.9,5.8 77.9,6.3 80.4,27.7 72.3,28.3 71.1,17.4 
		68.1,24.5 64.7,16.7 	"/>
	<path class="st3" d="M60.5,15.5c3.4,0.8,6.8,1.8,10.2,2.1c0.1,0,0.2,0,0.2,0l0.1-0.2l0,0.2c2.7,0.2,5.4-0.1,8-0.7L77.9,6.3l-7-0.4
		L68,14l-2.5-8.1h-4.3l-1.5,9.4C59.9,15.4,60.2,15.4,60.5,15.5z"/>
	<path class="st4" d="M77.9,6.3l-7-0.4L68,14l-2.5-8.1h-4.3l-1,6.2l1.4-5.4h3.6l2.8,8.3l3.3-8.4l6.3,0.7c0,0,1.5,9.6,1.7,9.5
		L77.9,6.3z"/>
	<path class="st7" d="M59.3,27.3c0,0.2,0.4,0.4,1,0.5c0.3,0.1,0.6,0.2,1,0.2c0.2,0,0.3,0.1,0.5,0.1c0.2,0,0.2,0,0.6,0.1l0.7,0.1
		l0.5-5.8c0.1-1.3-0.2-1.5-0.4-1.5c-0.2,0-0.4-0.1-0.5,1.4l-0.4,4.9c-0.2,0-0.4-0.1-0.7-0.1c-0.3,0-0.7-0.1-1-0.1
		C59.9,27.2,59.4,27.2,59.3,27.3z M63.3,19.5c0.2,0,0.5,0.3,0.5,0.8c-0.1,0.6-0.5,0.4-0.6,0.2C62.9,19.8,63.1,19.5,63.3,19.5z"/>
	<path class="st7" d="M73.8,27.4c0,0.3,2.2,0.2,3.4,0l2.6-0.4l-0.4-4.6c-0.1-1.5-0.4-1.6-0.6-1.6c-0.2,0-0.4-0.1-0.2,1.7l0.3,3.8
		l-1.8,0.2C76.2,26.7,73.7,27.1,73.8,27.4z M78.6,19c0.1,0,0.6,0.2,0.6,0.8c0,0.6-0.4,0.6-0.5,0.3C78.3,19.4,78.5,19.1,78.6,19z"/>
</g>
<g>
	<path class="st0" d="M86.4,29.4c0.1,0.2,0.3,0.5,0.5,0.7c0.1,0.2,0.3,0.5,0.5,0.6c0.5,0.4,1.3,0.4,1.9,0.5c1.3,0.2,2.5,0.3,3.8,0.4
		c2.2,0.1,4.5,0.1,6.6-0.6c2.5-0.7,4.6-2.4,5.1-5.1c0.3-1.5,0.1-3-0.4-4.5c-0.4-1-0.9-1.8-1.6-2.6c-0.8-0.9-1.8-1.5-2.7-2.1
		c1.1-1.8,1.4-4,0.4-5.9c-1-1.8-2.7-2.9-4.3-4c-1.8-1.3-4.2-1.5-6.4-1.2c-0.6,0.1-1.2,0.2-1.8,0.4c-0.5,0.1-1.4,0.3-1.7,0.8
		c-0.1,0.2-0.1,0.4-0.1,0.5c0,1.7,0,3.3,0,5c0,5-0.1,10-0.1,14.9C86,28,85.8,28.8,86.4,29.4C86.4,29.5,86.3,29.3,86.4,29.4z
		 M92.7,13.9c0-0.2,0-0.3,0-0.5c0.2,0,0.2,0,0.2,0.2C92.9,13.7,92.8,13.8,92.7,13.9z M94.7,23.4c-0.1,0.5-0.7,0.8-1.1,1
		c0-0.5-0.1-1-0.1-1.6c0.3,0,0.6,0,0.8,0.1C94.6,23,94.8,23,94.7,23.4C94.6,23.7,94.8,23.2,94.7,23.4z"/>
	<path class="st1" d="M86.6,29.4c1.8,0.4,3.6,0.6,5.2,0.7c0.6,0,1.1,0.1,1.7,0.1c8,0,9.8-3.7,9.9-6.7c0.1-3.1-1.9-6.5-5.2-7.5
		c0.7-0.9,1.4-2.3,1.3-3.9c-0.1-1.9-1.3-3.7-3.6-5.2c-1.6-1.1-3.7-1.5-6.1-1.1c-1,0.1-2.1,0.4-3.2,0.8c-0.3,0.1-0.5,0.4-0.5,0.7
		L86,28.6C86,29,86.2,29.3,86.6,29.4z M91.1,11.8c1.8,0.1,1.8,1,1.8,1.4c0,0.7-0.5,1.3-1.5,1.5L91.1,11.8z M94.7,23.4
		c-0.2,0.6-1.1,1.1-2.5,1.3c-0.1-1.1-0.2-2.2-0.3-3.4c0.9,0,1.6,0.2,2,0.5C94.4,22.1,94.9,22.8,94.7,23.4z"/>
	<path class="st2" d="M96.7,16.3c0,0,5.3-4.6-1.2-9c-1.6-1.1-3.5-1.3-5.6-1c-1,0.2-2,0.4-3,0.8c0,5.1-0.1,15.6-0.2,21.5
		c1.4,0.3,3.2,0.5,5.1,0.7c5,0.3,10.6-0.6,10.8-5.9C102.7,20.1,100.3,16.7,96.7,16.3z M93.7,13.2c0,1.7-1.7,2.3-3,2.5
		c-0.1-1.6-0.3-3.2-0.4-4.6C91.8,11,93.7,11.3,93.7,13.2z M91.5,25.5c-0.1-1.6-0.3-3.3-0.4-5c1.1-0.1,2.4,0,3.3,0.6
		C95.9,22.2,96.6,25.1,91.5,25.5z"/>
	<g class="st8">
		<path class="st2" d="M93.3,17.5c2.4-0.1,4.8,0,7.1,0.7c0,0,0,0,0.1,0c-1-1-2.3-1.7-3.8-1.8c0,0,5.3-4.6-1.2-9
			c-1.6-1.1-3.5-1.3-5.6-1c-1,0.2-2,0.4-3,0.8c0,2.7-0.1,6.9-0.1,11.2C89,17.9,91.1,17.6,93.3,17.5z M93.7,13.2c0,1.7-1.7,2.3-3,2.5
			c-0.1-1.6-0.3-3.2-0.4-4.6C91.8,11,93.7,11.3,93.7,13.2z"/>
	</g>
	<g>
		<path class="st9" d="M95.3,8.3c1.9,1.3,2.9,2.8,3,4.3c0.1,2.3-1.8,4-1.9,4l0,0c0.5,0,1.1,0.1,1.6,0.2c0.6,0.1,1.1,0.3,1.7,0.5
			c-0.8-0.6-1.8-1-2.9-1.1c0,0,5.3-4.6-1.2-9c-1.6-1.1-3.5-1.3-5.6-1c-1,0.2-2,0.4-3,0.8c0,1.8,0,4.3-0.1,7c0,1.3,0.5-6.1,0.5-6.1
			c0.9-0.3,1.8-0.5,2.7-0.7c0.5-0.1,1.1-0.1,1.6-0.1C93,7.3,94.2,7.6,95.3,8.3z"/>
	</g>
	<g>
		<path class="st9" d="M93.2,11.9c0.3,0.3,0.5,0.8,0.5,1.4c0,1.7-1.7,2.3-3,2.5c-0.1-1.6-0.3-3.1-0.4-4.4h0l0.2,4.8l0.5-0.1
			c2.2-0.3,2.9-1.1,2.9-2.6C93.8,12.8,93.7,12.4,93.2,11.9z"/>
	</g>
	<path class="st3" d="M88.7,28c0,0.1,0.2,0.2,0.5,0.3c0.2,0.1,0.4,0.1,0.6,0.2c0.2,0.1,0.5,0.1,0.7,0.2c0.5,0.1,1.1,0.2,1.7,0.2
		c0.3,0,0.6,0,0.8,0c0.3,0,0.5,0,0.7,0c0.9,0,2.8-0.2,4.6-0.8c0.5-0.2,0.9-0.4,1.4-0.7c0.4-0.3,0.8-0.6,1.1-1c0.6-0.7,0.9-1.5,1-2.1
		c0.1-0.6,0.2-1,0.1-1.4c0-0.3-0.1-0.6-0.1-0.8c-0.1-0.3-0.2-0.4-0.3-0.4c-0.1,0-0.2,0-0.2,0.2c0,0.2,0,0.4-0.1,0.7
		c0,0.3-0.1,0.8-0.2,1.4c-0.1,0.6-0.4,1.3-0.9,1.9c-0.2,0.3-0.6,0.5-0.9,0.8c-0.3,0.2-0.7,0.4-1.1,0.5c-1.6,0.6-3.3,0.8-4.5,0.8
		c-0.3,0-0.8,0-1.3,0c-0.3,0-0.5,0-0.8,0c-0.3,0-0.6,0-0.8,0c-0.5,0-1-0.1-1.4-0.1C88.9,27.9,88.7,28,88.7,28z M100.6,19.2
		c0.1-0.1,0.6,0.1,1,1.1c0.1,0.5,0.1,0.7,0,0.8c-0.1,0.1-0.3,0-0.4-0.2c-0.3-0.5-0.5-0.9-0.6-1.1C100.5,19.5,100.6,19.3,100.6,19.2z
		"/>
</g>
<g>
	<path class="st0" d="M109.3,5.9c-0.3,0.3-0.2,0.8-0.2,1.1c0,0.6,0,1.2,0,1.8c0,1.1,0,2.2,0.1,3.3c0,0.3,0.1,0.5,0.3,0.7
		c0.3,0.4,0.6,1.1,1,1.4c0.5,0.4,1.3,0.2,1.8,0.2c0.3,0,0.3,0,0.3,0.3c0,0.4,0,0.9,0.1,1.4c0.1,2.3,0.2,4.6,0.3,6.9
		c0,0.2-0.6,0.1-0.8,0.1c-0.5,0-1.1,0.1-1.6,0.1c-0.7,0-0.7,0.6-0.7,1.2c0.1,0.5,0.1,1.1,0.2,1.6c0.1,1.1,0.3,2.3,0.4,3.4
		c0,0.3,0.2,0.4,0.3,0.7c0.2,0.2,0.3,0.5,0.5,0.7c0.2,0.2,0.3,0.5,0.5,0.7c0.4,0.3,0.8,0.2,1.2,0.2c2.4-0.3,4.8-0.6,7.2-1
		c0.6-0.1,1.3-0.1,1.9-0.3c0.9-0.4,0.6-1.9,0.6-2.7c0-1,0-2-0.1-2.9c0-0.8-0.8-1-1.3-1.5c-0.2-0.2-0.7-0.6-1-0.5c-0.2,0-0.4,0-0.6,0
		c0.1-2.1,0.1-4.2,0.2-6.4c0-0.5,0-1,0.1-1.5c0-0.1-0.1-0.5,0.1-0.5c0.6,0,1.1,0,1.7,0c0.7,0,1.1-0.6,1.1-1.3c0-1.1,0-2.2-0.1-3.3
		c0-0.6,0-1.2,0-1.8c0-0.4,0-0.8-0.2-1.1c-0.1-0.2-1.6-1.3-2-1.4c-0.2,0-0.4,0-0.6,0c-1.1,0-2.2,0-3.2,0c-1.6,0-3.1,0-4.7,0
		c-0.5,0-1.1,0-1.6,0C110,5.6,109.6,5.6,109.3,5.9C109.2,6,109.5,5.7,109.3,5.9z"/>
	<path class="st1" d="M109.3,5.9c-0.1,0.1-0.2,0.3-0.2,0.5l0.1,5.7c0,0.4,0.3,0.8,0.8,0.8h2.6l0.4,10.2l-2.4,0.1
		c-0.2,0-0.4,0.1-0.5,0.3c-0.1,0.2-0.2,0.4-0.2,0.6l0.6,5.4c0,0.2,0.1,0.4,0.3,0.5c0.1,0.1,0.3,0.2,0.5,0.2c0,0,0.1,0,0.1,0l9.1-1.2
		c0.4,0,0.7-0.4,0.7-0.8l-0.1-4.7c0-0.2-0.1-0.4-0.2-0.5c-0.2-0.1-0.4-0.2-0.6-0.2l-2.2,0.1l0.3-9.9h2.1h0c0.4,0,0.8-0.3,0.8-0.8
		c0,0,0-0.1,0-0.1l-0.1-5.7c0-0.4-0.3-0.8-0.8-0.8l-10.5,0.1C109.7,5.6,109.5,5.7,109.3,5.9z"/>
	<polygon class="st2" points="117.2,23.6 117.6,12.1 120.5,12.1 120.4,6.3 109.9,6.4 110,12.1 113.3,12.1 113.8,23.8 110.7,24 
		111.3,29.4 120.4,28.2 120.3,23.5 	"/>
	<g class="st5">
		<path class="st2" d="M113.3,12.1l0.2,4.6c1.3,0.1,2.6,0.2,4,0.3l0.2-4.9h2.8l-0.1-5.8l-10.5,0.1l0.1,5.7H113.3z"/>
	</g>
	<g>
		<polygon class="st4" points="110.3,7.2 120.2,7.1 120.4,9.2 120.4,6.3 109.9,6.4 109.9,10.3 		"/>
	</g>
	<polygon class="st4" points="113.8,23 114,24.2 111.1,24.5 111.1,28 110.7,24 113.8,23.8 	"/>
	<polygon class="st4" points="117.3,23 117.2,23.9 120.1,23.8 120.4,27.9 120.3,23.5 117.3,23.6 	"/>
	<path class="st6" d="M111.6,28.7c0,0.3,1.8,0.2,2.7,0c0.9-0.1,3.9-0.6,5-0.8c0.2,0,0.5-0.1,0.7-0.1c0-0.2,0-0.4,0-0.6
		c0-0.1,0-0.1,0-0.2c0,0,0-0.1,0-0.1c0-0.1-0.1-0.2-0.1-0.3c-0.1-0.1-0.2-0.2-0.3-0.2c-0.1,0-0.1,0-0.2,0.1c0,0.1-0.1,0.1-0.1,0.3
		c0,0.1,0,0.2,0,0.3c0,0,0,0,0,0c0,0,0,0,0,0c-1.4,0.2-3.8,0.6-5,0.8C113.6,28,111.6,28.4,111.6,28.7z M119.6,25
		c0.1,0,0.5,0.2,0.5,0.7c0,0.5-0.4,0.4-0.5,0.2C119.2,25.3,119.5,25,119.6,25z"/>
</g>
<g>
	<path class="st0" d="M131.1,29.7c0.1,0.2,0.3,0.5,0.5,0.7c0.1,0.2,0.3,0.5,0.5,0.7c0.2,0.3,0.5,0.4,0.9,0.4c0.2,0,0.5,0,0.7,0
		c1.2,0,2.3,0,3.5,0c2.4,0,4.8,0,7.3,0c0.4,0,0.8,0,1.1-0.4c0.4-0.4,0.3-0.9,0.3-1.4c0-1.3,0.1-2.5,0.1-3.8c0-0.2,0-0.4-0.1-0.5
		c-0.2-0.5-0.7-0.7-1.1-1c-0.5-0.4-1-0.7-1.6-0.7c-0.7,0-1.3,0-2,0c-0.2,0-0.5,0-0.7,0c-0.2,0-0.1-0.3-0.1-0.5c0-0.1,0-0.3,0-0.4
		c1.1,0,2.2,0.1,3.3,0.1c0.4,0,0.9,0.1,1.2,0c0.6-0.2,0.7-0.8,0.8-1.4c0.1-1.3,0.2-2.5,0.4-3.8c0-0.2,0-0.3,0-0.5
		c-0.1-0.6-0.5-0.7-0.9-1c-0.3-0.3-0.7-0.5-1-0.7c-0.2-0.2-0.5-0.2-0.7-0.2c-0.6,0-1.3,0-1.9-0.1c-0.2,0-1.1,0.1-1.1-0.1
		c0-0.1,0-0.6,0-0.6c0.1,0,0.3,0,0.4,0c0.6,0,1.2,0,1.8,0c1,0,2.1,0.1,3.2,0c1.4-0.2,1-2,1-2.9c0-1.3,0-2.6-0.1-3.8
		c0-0.6-0.2-1-0.7-1.4c-0.3-0.2-0.7-0.5-1-0.7c-0.3-0.2-0.5-0.3-0.8-0.3c-1.9,0.2-3.8,0.3-5.7,0.5c-2.6,0.2-5.3,0.4-7.9,0.7
		c-0.5,0-1.5,0-1.8,0.5c-0.2,0.4-0.1,1,0,1.4c0.5,5.1,1,10.2,1.5,15.3c0.1,1.3,0.3,2.6,0.4,3.9C130.8,28.3,130.7,29.3,131.1,29.7
		C131.2,29.8,131,29.6,131.1,29.7z"/>
	<path class="st1" d="M131.7,29.9h11.7c0.4,0,0.8-0.3,0.8-0.8l0.1-4.6c0-0.2-0.1-0.4-0.2-0.6c-0.1-0.2-0.3-0.2-0.6-0.2l-4.7-0.1
		l-0.1-2.4l4.5,0.2c0.4,0,0.8-0.3,0.8-0.7l0.4-4.4c0-0.2,0-0.4-0.2-0.6c-0.1-0.2-0.4-0.3-0.6-0.3l-4.9-0.2V13h5.6
		c0.2,0,0.4-0.1,0.6-0.2c0.1-0.2,0.2-0.4,0.2-0.6l-0.1-6c0-0.2-0.1-0.4-0.3-0.6c-0.2-0.2-0.4-0.2-0.6-0.2l-14.8,1.3
		c-0.2,0-0.4,0.1-0.5,0.3c-0.1,0.2-0.2,0.4-0.2,0.6l2.1,21.7C130.9,29.6,131.3,29.9,131.7,29.9z"/>
	<polygon class="st2" points="144.4,6.2 144.5,12.2 138.1,12.2 138.1,16 143.8,16.2 143.3,20.6 138,20.4 138.1,24.4 143.5,24.6 
		143.4,29.1 131.7,29.1 129.6,7.5 	"/>
	<path class="st3" d="M131.6,20.4c1.8,0.2,3.5,0.3,5.4,0c1.3-0.2,2.7-0.5,4.4-1.1c0.7-0.2,1.5-0.5,2.1-0.7l0.2-2.4l-5.7-0.2v-3.8
		h6.4l-0.1-6l-14.8,1.3l1.3,12.9C131.1,20.4,131.3,20.4,131.6,20.4z"/>
	<path class="st4" d="M137.8,16.3l5.6,0.3c0,0,0,0.7,0.1,2l0.2-2.4l-5.7-0.2v-3.7L137.8,16.3z"/>
	<polygon class="st4" points="130.2,8.3 143.9,7 144.5,12.2 144.4,6.2 129.6,7.5 130.4,15.6 	"/>
	<polygon class="st4" points="138,20.4 138.1,24.4 143.5,24.6 143.5,26.4 143.2,25 137.7,24.7 	"/>
	<path class="st3" d="M142.4,28.9c0-0.3-2.7-0.6-4.1-0.7l-5.3-0.3l-0.1-1.8c-0.1-1.8-0.5-2-0.6-2c-0.2,0-0.4-0.1-0.2,2l0.2,2.5
		l6,0.4C139.3,29.1,142.3,29.2,142.4,28.9z M132,21.8c0.1-0.1,0.6,0.2,0.6,1c0,0.8-0.4,0.7-0.5,0.4C131.7,22.2,131.9,21.8,132,21.8z
		"/>
</g>
<g>
	<path class="st0" d="M170.2,32.5c1.4,0,1.2-1.8,1.3-2.7c0.1-1.5,0.1-3,0.2-4.5c0-0.4,0-0.9,0.1-1.3c0-0.9-0.6-1.1-1.2-1.6
		c-0.5-0.4-1-0.8-1.6-0.7c-0.6,0-1.3,0-1.9,0c-0.3,0-2.7,0.1-2.7,0c-0.1-0.8-0.1-1.5-0.2-2.3c-0.3-3-0.5-5.9-0.8-8.9
		c-0.1-1.1-0.2-2.2-0.3-3.3c0-0.2,0-0.4-0.1-0.6c-0.1-0.8-1-1.2-1.6-1.6c-0.4-0.2-0.7-0.6-1.2-0.5c-0.1,0-0.2,0-0.2,0.1
		c-0.5,0.1-1,0.2-1.5,0.3c-1.5,0.3-3,0.6-4.4,0.9c-0.7,0.1-2.5,0.2-2.2,1.4c0.1,0.4,0.2,0.9,0.3,1.3c0.6,2.5,1.1,4.9,1.7,7.4
		c1.1,4.7,2.1,9.3,3.2,14c0,0.1,0,0.1,0.1,0.2c0.1,0.2,0.3,0.5,0.5,0.7c0.2,0.3,0.4,0.7,0.7,0.9c0.3,0.5,0.8,0.6,1.3,0.7
		c1.1,0,2.2,0.1,3.3,0.1c2.5,0.1,5,0.2,7.4,0.3C170.1,32.5,170.2,32.5,170.2,32.5z"/>
	<path class="st1" d="M168.8,30.8c0.5,0,0.8-0.4,0.9-0.8l0.3-7.5c0-0.2-0.1-0.5-0.2-0.6c-0.2-0.2-0.4-0.3-0.6-0.3l-6.5,0.1L161.2,5
		c0-0.2-0.1-0.5-0.3-0.6c-0.2-0.2-0.4-0.2-0.7-0.2l-7.8,1.6c-0.2,0-0.4,0.2-0.5,0.4c-0.1,0.2-0.2,0.4-0.1,0.7l5.1,22.7
		c0.1,0.4,0.4,0.7,0.8,0.7L168.8,30.8C168.8,30.8,168.8,30.8,168.8,30.8z"/>
	<polygon class="st2" points="152.6,6.7 160.4,5.1 161.9,22.5 169.2,22.4 168.8,29.9 157.8,29.4 	"/>
	<path class="st3" d="M161.4,17l-1-11.9l-7.8,1.6l2.7,11.9C157.3,17.8,159.4,17.3,161.4,17z"/>
	<path class="st4" d="M160.4,5.1l-7.8,1.6l0.9,4.2l-0.3-3.1l6.8-1.7l1.7,16.6l7,0.3l0.3,3.1l0.2-3.8c0,0-7.4,0.1-7.3,0.1L160.4,5.1z
		"/>
	<path class="st3" d="M165.2,29.2c0-0.3-2.6-0.7-4-0.7l-2.6-0.2l-0.9-4.2c-0.4-1.7-0.7-1.8-0.9-1.8c-0.2,0-0.4-0.1,0,2l1,4.9
		l3.3,0.2C162.2,29.4,165.2,29.5,165.2,29.2z M156.4,20.1c0.1-0.1,0.6,0.2,0.8,0.9c0.1,0.8-0.3,0.7-0.5,0.4
		C156.1,20.6,156.2,20.2,156.4,20.1z"/>
</g>
<g>
	<path class="st0" d="M175.3,31.9c0.4,0.7,1.8,0.6,2.5,0.6c1.4,0.1,2.7,0.1,4.1,0.2c0.5,0,1,0.1,1.5,0.1c0.4,0,0.8,0.1,1.2-0.3
		c0.4-0.3,0.4-0.7,0.4-1.2c0-0.5,0-1.1,0.1-1.6c0.1-1.5,0.1-3.1,0.2-4.6c0.1,0,0.4,0,0.4,0.1c0,0.2,0,0.3,0.1,0.5
		c0.1,0.6,0.1,1.2,0.2,1.8c0.1,0.7,0.2,1.3,0.2,2c0,0.3,0,0.7,0.1,1c0.1,0.2,0.2,0.4,0.3,0.5c0.2,0.4,0.5,0.7,0.6,0.8
		c0.5,0.6,0.7,0.8,1.3,0.7c1.2-0.1,2.3-0.2,3.5-0.2c0.9-0.1,1.9-0.1,2.8-0.2c0.7,0,1.1-0.7,1-1.4c0-0.1-0.1-0.3-0.1-0.4
		c-0.5-1.8-0.9-3.5-1.4-5.3c-1.3-5.1-2.6-10.1-3.9-15.2c-0.2-0.6-0.3-1.3-0.5-1.9c0-0.1-0.1-0.2-0.1-0.3c-0.1-0.5-0.6-0.7-1-1
		C188.5,6.5,188,6,187.5,6c-0.3,0-0.5,0-0.8,0c-1.3,0-2.5-0.1-3.8-0.1c-1.3,0-2.5-0.1-3.8-0.1c-0.6,0-1.6-0.2-1.7,0.7
		c-0.2,1.4-0.4,2.7-0.6,4.1c-0.7,5.3-1.4,10.6-2.2,15.8c-0.1,1.1-0.3,2.1-0.4,3.2c0,0.2,0,0.3-0.1,0.5c-0.1,0.4,0.3,0.7,0.5,1
		C174.9,31.4,175.1,31.6,175.3,31.9z"/>
	<path class="st1" d="M175,30.9l7.6,0.4c0,0,0,0,0,0c0.2,0,0.4-0.1,0.5-0.2c0.2-0.1,0.2-0.3,0.3-0.5l0.3-7l1.7,0.1l0.8,6.7
		c0,0.4,0.4,0.7,0.8,0.7l6.5-0.4c0.2,0,0.4-0.1,0.6-0.3c0.1-0.2,0.2-0.4,0.1-0.7l-6-23.2c-0.1-0.3-0.4-0.6-0.7-0.6l-9.3-0.2
		c-0.4,0-0.7,0.3-0.8,0.7L174.2,30c0,0.2,0,0.4,0.2,0.6C174.5,30.8,174.7,30.9,175,30.9z M184.7,16.9l-0.7,0l0.1-3h0.2L184.7,16.9z"
		/>
	<path class="st2" d="M187,30.3l6.5-0.4l-6-23.2l-9.3-0.2L175,30.1l7.6,0.4l0.3-7.8l3.2,0.3L187,30.3z M183.2,17.7l0.2-4.6h1.7
		l0.5,4.6L183.2,17.7z"/>
	<path class="st3" d="M177.8,20.8c0.8,0.3,2.9,0.8,4.4,1.1c0.8,0.1,1.6,0.3,2.4,0.4c0.3,0,0.6,0.1,1,0.1c0.1,0,0.2,0,0.2,0
		c0.1,0,0.2,0,0.2,0c1.8,0.1,3.6,0,5.4-0.2l-4-15.4l-9.3-0.2l-1.9,13.6C176.8,20.4,177.3,20.6,177.8,20.8z M183.4,13.1h1.7l0.5,4.6
		l-2.4,0L183.4,13.1z"/>
	<polygon class="st4" points="185,13.2 185.6,17.7 183.2,17.7 183.4,13.2 183,18.1 185.8,18.2 	"/>
	<path class="st4" d="M178.6,7.7l8.5,0.2c0,0,2.7,8.9,2.9,8.9l-2.6-9.9l-9.3-0.2l-1.4,10.3C177,16.9,178.6,7.7,178.6,7.7z"/>
	<path class="st3" d="M177.1,29.4c0,0.3,1.9,0.5,2.9,0.6c0.3,0,0.7,0,1.1,0c0.1,0,0.2,0,0.4,0c0.1,0,0.1,0,0.2,0h0.1
		c0,0,0.1,0,0.1,0l0,0l0,0c0.1,0,0.1,0,0.1-0.1c0,0,0,0,0.1-0.2c0-0.1,0-0.8-0.4-0.1l0,0l0,0c0,0,0,0,0.1-0.1c0.1,0,0.2-0.1,0.2,0
		c0,0,0,0.1,0,0.1v0v-0.1l0-0.2c0-0.1,0-0.3,0-0.4c0.1-1.1,0.1-2.2,0.2-2.8c0.1-1.3-0.2-1.4-0.4-1.5c-0.2,0-0.3-0.1-0.4,1.4
		c0,0.8-0.1,1.8-0.2,2.8c0,0.3,0,0.5,0,0.8v0c0,0,0,0,0,0.1c0,0.1,0,0.1,0,0.1c0,0.1,0,0,0,0.1c0.2-0.1-0.3,0.2,0.3-0.2l0,0
		c0,0,0,0,0,0c0,0,0-0.1,0-0.1l0-0.2c0-0.1,0-0.1,0-0.1h0h0l0,0h-0.2c-0.1,0-0.2,0-0.4,0c-0.5,0-0.9,0-1.2,0
		C179.3,29.2,177.2,29.1,177.1,29.4z M182.2,22.9c0.1,0,0.5,0.2,0.5,0.8c0,0.6-0.4,0.5-0.5,0.2C181.8,23.2,182,23,182.2,22.9z"/>
	<path class="st3" d="M187.4,29.7c0,0.3,2,0.3,3.1,0.2c0.3,0,0.7-0.1,1.2-0.1c0.3,0,0.6,0,0.9-0.1c0.1,0,0.3,0,0.4,0l0.2,0
		c0,0,0-0.1,0-0.2c-0.1-0.3-0.1-0.5-0.2-0.8c-0.3-1.1-0.6-2.3-0.7-2.9c-0.3-1.3-0.7-1.4-0.8-1.3c-0.2,0-0.4,0,0,1.5
		c0.2,0.8,0.5,1.8,0.7,2.9l0,0.1c0,0,0,0,0,0c-0.2,0-0.3,0-0.5,0c-0.5,0-0.9,0.1-1.3,0.1C189.7,29.2,187.4,29.4,187.4,29.7z
		 M190.9,22.9c0.1-0.1,0.6,0.1,0.7,0.6c0.1,0.6-0.2,0.6-0.4,0.4C190.7,23.3,190.8,23,190.9,22.9z"/>
</g>
<g>
	<path class="st0" d="M210.3,7.5c-0.2-0.2-0.5-0.4-0.8-0.5c-0.2-0.2-0.5-0.4-0.7-0.5c-0.2-0.1-0.3-0.1-0.5-0.1
		c-0.6-0.1-1.2-0.1-1.8-0.2c-1.1-0.1-2.3-0.3-3.4-0.4c-1-0.1-1,0.8-1,1.5c-0.1,0.9-0.2,1.8-0.3,2.6c-0.5,5.8-1.1,11.5-1.6,17.3
		c-0.1,0.9-0.2,1.8-0.2,2.7c0,0.2,0,0.4-0.1,0.6c0,0.5,0.2,0.8,0.5,1.2c0.4,0.6,0.9,1.5,1.7,1.6c0.4,0,0.7,0,1.1,0.1
		c1.5,0.1,2.9,0.2,4.4,0.2c1,0.1,1.9,0.1,2.9,0.2c0.5,0,1-0.2,1.3-0.7c0.2-0.4,0.1-0.8,0-1.2c-0.2-2.1-0.4-4.1-0.7-6.2
		c1.2,1.8,2.3,3.6,3.5,5.4c0.3,0.4,0.7,1.2,1.1,1.4c0.4,0.3,1,0.2,1.5,0.2c1.2,0,2.4,0.1,3.6,0c1,0,1.2-0.9,1.3-1.7
		c0.1-0.9,0.2-1.8,0.3-2.7c0.3-2.9,0.6-5.9,0.9-8.8c0.3-2.7,0.6-5.4,0.9-8.1c0.1-0.6,0.1-1.3,0.2-1.9c0.1-0.5-0.1-1.1-0.6-1.3
		c-0.2-0.2-0.5-0.4-0.8-0.5c-0.2-0.2-0.5-0.4-0.7-0.5c-0.2-0.1-0.3-0.1-0.5-0.1c-2.1-0.1-4.2-0.1-6.3-0.2c-0.8,0-1.6,0-2.5-0.1
		c-0.7,0-1.1,0.5-0.9,1.2c0.2,1.1,0.4,2.3,0.5,3.4c-0.3-0.6-0.6-1.3-0.9-1.9C211.2,8.8,210.9,7.8,210.3,7.5
		C210.2,7.4,210.5,7.6,210.3,7.5z"/>
	<path class="st1" d="M208.5,6.3L203,5.6c-0.2,0-0.5,0-0.6,0.2c-0.2,0.1-0.3,0.4-0.3,0.6l-2.3,24.1c0,0.2,0.1,0.5,0.2,0.6
		c0.2,0.2,0.4,0.3,0.6,0.3l8.5,0.5c0,0,0,0,0,0h0c0.5,0,0.9-0.4,0.9-0.9c0-0.1,0-0.1,0-0.2l-0.9-8.2l5,7.8c0.2,0.2,0.4,0.4,0.7,0.4
		h4.5c0.4,0,0.8-0.3,0.9-0.8l2.4-22.3c0-0.2,0-0.5-0.2-0.7c-0.2-0.2-0.4-0.3-0.6-0.3l-9-0.2c-0.3,0-0.5,0.1-0.7,0.3
		c-0.2,0.2-0.2,0.5-0.2,0.7c0.4,1.6,0.7,4.3,0.9,6.7l-3.5-7.6C209.1,6.5,208.8,6.3,208.5,6.3z"/>
	<path class="st2" d="M209.1,31.1l-8.5-0.5l2.3-24.1l5.5,0.7l5.5,11.9c0,0-0.5-8-1.3-11.5l9,0.2L219.3,30h-4.5l-7-10.9L209.1,31.1z"
		/>
	<g class="st5">
		<path class="st2" d="M203.8,16.4c2.9-0.4,5.8-0.6,8.7-0.5l-4-8.7l-5.5-0.7l-1,10.3C202.5,16.6,203.2,16.5,203.8,16.4z"/>
	</g>
	<g class="st5">
		<path class="st2" d="M215.4,16.1c1.8,0.2,3.5,0.5,5.2,0.9l1-9.3l-9-0.2c0.5,2.1,0.8,5.8,1,8.4C214.2,16,214.8,16,215.4,16.1z"/>
	</g>
	<g>
		<path class="st4" d="M208.4,7.2l-5.5-0.7l-1,10.3c0.2,0,1.4-9.4,1.4-9.4l4.7,1l6,10.9L208.4,7.2z"/>
	</g>
	<g>
		<path class="st4" d="M213.2,8.3l7.9,0.6l-0.1,4.6l0.6-5.8l-9-0.2c0.2,0.7,0.3,1.7,0.4,2.6L213.2,8.3z"/>
	</g>
	<path class="st6" d="M201.4,29.8c0,0.3,2.8,0.7,4.3,0.8l3,0.2l-0.8-6.2c-0.2-1.9-0.6-2-0.8-2c-0.2,0-0.4-0.1-0.1,2.2l0.6,5.1
		l-1.9-0.1C204.6,29.6,201.4,29.4,201.4,29.8z M206.8,20.2c0.2-0.1,0.6,0.2,0.7,1c0.1,0.8-0.3,0.8-0.5,0.4
		C206.4,20.8,206.6,20.3,206.8,20.2z"/>
	<path class="st6" d="M215.5,29.4c0,0.2,0.4,0.3,1,0.4c0.3,0,0.6,0.1,1,0.1c0.2,0,0.3,0,0.5,0c0.3,0,0.6,0,0.9,0
		c0-0.2,0.1-0.4,0.1-0.7c0.1-1.2,0.6-4.8,0.7-6.3c0.2-1.4-0.1-1.6-0.3-1.7c-0.2,0-0.4-0.2-0.6,1.6c-0.2,1.7-0.5,4.6-0.7,6.1
		c0,0,0,0,0,0c0,0,0,0,0,0c-0.1,0-0.3,0-0.5,0c-0.3,0-0.7,0-1,0.1C216,29.1,215.5,29.2,215.5,29.4z M219.6,19.4
		c0.2,0,0.6,0.3,0.5,0.9c-0.1,0.6-0.5,0.5-0.6,0.2C219.1,19.8,219.4,19.5,219.6,19.4z"/>
</g>
<g>
	<path class="st0" d="M247.5,10.5c-1.3-0.9-2.5-1.8-3.9-2.4c-1.5-0.6-3-1-4.6-1.2c-3.5-0.4-7.2,0.1-10.5,1.5c-1,0.4-0.8,1.2-0.7,2.1
		c0.1,1.1,0.1,2.1,0.4,3.2c0.3,1.2,0.8,5.3,1.9,17.4c0.9,0.6,2.3,1.3,4.2,1.7c1.1,0.2,2.2,0.3,3.6,0.1c3.6-0.3,6.5-0.5,9.4-2.5
		c0.7-0.5,3.3-2.4,4.5-5.9C254.3,16.9,247.6,10.5,247.5,10.5C247.5,10.5,247.5,10.5,247.5,10.5z M239.5,21c-0.1,0.1-0.1,0.2-0.2,0.3
		c-0.1-0.7-0.2-1.4-0.4-2.1c0.3,0.1,0.8,0.1,0.8,0.5C239.8,20.2,239.7,20.6,239.5,21C239.5,21.1,239.8,20.5,239.5,21z"/>
	<path class="st1" d="M236.6,6.7c-0.9,0-1.8,0.1-2.7,0.2c-1.9,0.3-3.8,0.8-5.5,1.5c-0.4,0.2-0.7,0.6-0.6,1.1
		c0.8,7.2,1.6,14.3,2.4,21.5c0.8,0,6.8,0.2,11-0.5c1.7-0.3,2.9-0.7,3.9-1.2c1.1-0.5,1.9-1.1,2.2-1.3c3.3-2.5,4.8-7.2,3.5-11.5
		C249.1,10.3,243.7,6.7,236.6,6.7z M237.7,22.3l-1-5.2c1.4,0.2,2.4,0.8,2.8,1.8c0.3,0.6,0.3,1.4-0.1,2.1c-0.3,0.7-0.8,1.1-1.5,1.3
		C238,22.3,237.9,22.3,237.7,22.3z"/>
	<path class="st2" d="M249.8,16.6c-2-7.1-9.1-9.6-15.8-8.7c-1.8,0.2-3.6,0.7-5.2,1.4l0.9,7.7c0.5,4.2,1,8.5,1.6,12.7
		c3.5,0.1,6.3,0,8.3-0.2c1.8-0.2,3.4-0.4,5.2-1.3c0.7-0.3,1.4-0.7,2-1.2C249.8,24.7,250.8,20.3,249.8,16.6z M238.3,23.3
		c-0.5,0.1-1,0-1.5-0.1l-1.3-7.2c2-0.1,4.1,0.4,5.1,2.4C241.4,20.3,240.4,22.8,238.3,23.3z"/>
	<path class="st3" d="M229.9,19.6c2-0.3,4.1-0.4,6.2-0.5l-0.6-3.1c2-0.1,4.1,0.4,5.1,2.4c0.1,0.3,0.2,0.5,0.3,0.8
		c3.2,0.2,6.3,0.7,9.3,1.3c0.1-1.3,0-2.7-0.3-3.9c-2-7.1-9.1-9.6-15.8-8.7c-1.8,0.2-3.6,0.7-5.2,1.4l0.9,7.7L229.9,19.6z"/>
	<path class="st4" d="M234,7.9c-1.8,0.2-3.6,0.7-5.2,1.4l0.9,7.7l-0.2-6.4c1.5-0.6,3-1,4.6-1.2c0.8-0.1,1.7-0.2,2.5-0.2
		c6.4,0,11.4,2.8,12.9,8.1c0.3,0.9,0.4,1.4,0.6,3.3c0.1-1.3,0-2.7-0.3-3.9C247.8,9.5,240.7,7,234,7.9z"/>
	<path class="st4" d="M235.6,16.8l1.2,6.4c0,0,1.5,0.6,2.9-0.7c1.4-1.3,1-3.4,1-3.4s1.3,3.8-2.2,4.7c-0.8,0.2-2.1,0-2.1,0
		L235.6,16.8z"/>
	<path class="st3" d="M239,28.5c0,0.2,0.5,0.4,1.2,0.3c0.7,0,1.5-0.2,2-0.3c0.5-0.2,1.6-0.6,2.7-1.1c1.1-0.6,2-1.4,2.5-2
		c0.2-0.3,0.4-0.5,0.5-0.7c0.1-0.2,0.1-0.4,0.1-0.5c0-0.3-0.2-0.3-0.2-0.4c-0.1-0.1-0.2-0.1-0.4,0c-0.1,0.1-0.3,0.4-0.8,1
		c-0.5,0.6-1.3,1.2-2.1,1.7c-0.9,0.5-1.8,0.9-2.5,1.1c-0.4,0.1-1.1,0.3-1.7,0.5C239.5,28.1,239,28.3,239,28.5z M247.9,22.1
		c0.1,0,0.3,0,0.4,0.2c0.1,0.1,0.3,0.4,0.2,0.7c-0.2,0.7-0.7,0.4-0.8,0.1c-0.1-0.4-0.2-0.6-0.1-0.8
		C247.7,22.2,247.8,22.1,247.9,22.1z"/>
</g>
</svg>
