<?xml version="1.0" encoding="utf-8"?>
<!-- Generator: Adobe Illustrator 24.0.2, SVG Export Plug-In . SVG Version: 6.00 Build 0)  -->
<svg version="1.1" id="Capa_1" xmlns="http://www.w3.org/2000/svg" xmlns:xlink="http://www.w3.org/1999/xlink" x="0px" y="0px"
	 viewBox="0 0 1790 650" style="enable-background:new 0 0 1790 650;" xml:space="preserve">
<style type="text/css">
	.st0{fill:url(#SVGID_1_);stroke:#FFFFFF;stroke-miterlimit:10;}
	.st1{fill:url(#SVGID_2_);}
	.st2{fill:url(#SVGID_3_);}
	.st3{fill:url(#SVGID_4_);}
	.st4{fill:url(#SVGID_5_);}
	.st5{fill:url(#SVGID_6_);}
	.st6{fill:url(#SVGID_7_);}
	.st7{fill:url(#SVGID_8_);}
	.st8{fill:url(#SVGID_9_);}
	.st9{fill:url(#SVGID_10_);}
	.st10{fill:url(#SVGID_11_);}
	.st11{fill:url(#SVGID_12_);}
	.st12{fill:url(#SVGID_13_);}
	.st13{fill:url(#SVGID_14_);}
	.st14{fill:url(#SVGID_15_);}
	.st15{fill:url(#SVGID_16_);}
	.st16{fill:url(#SVGID_17_);}
	.st17{fill:url(#SVGID_18_);}
	.st18{fill:url(#SVGID_19_);}
	.st19{fill:url(#SVGID_20_);}
	.st20{fill:url(#SVGID_21_);}
	.st21{fill:url(#SVGID_22_);}
	.st22{fill:url(#SVGID_23_);}
	.st23{fill:url(#SVGID_24_);}
	.st24{fill:url(#SVGID_25_);}
	.st25{fill:url(#SVGID_26_);}
	.st26{fill:url(#SVGID_27_);}
	.st27{fill:url(#SVGID_28_);}
	.st28{fill:url(#SVGID_29_);}
	.st29{fill:url(#SVGID_30_);}
	.st30{fill:url(#SVGID_31_);}
	.st31{fill:url(#SVGID_32_);}
	.st32{fill:url(#SVGID_33_);}
	.st33{fill:url(#SVGID_34_);}
	.st34{fill:url(#SVGID_35_);}
	.st35{fill:url(#SVGID_36_);}
	.st36{fill:url(#SVGID_37_);}
	.st37{fill:url(#SVGID_38_);}
	.st38{fill:url(#SVGID_39_);}
	.st39{fill:url(#SVGID_40_);}
	.st40{fill:url(#SVGID_41_);}
	.st41{fill:url(#SVGID_42_);}
	.st42{fill:url(#SVGID_43_);}
	.st43{fill:url(#SVGID_44_);}
	.st44{fill:url(#SVGID_45_);}
	.st45{fill:url(#SVGID_46_);}
	.st46{fill:#E04F1D;}
	.st47{fill:#F2A083;}
	.st48{fill:none;}
	.st49{fill:url(#SVGID_47_);}
	.st50{opacity:0.5;fill:url(#SVGID_48_);}
	.st51{opacity:0.4;fill:url(#SVGID_49_);}
	.st52{opacity:0.5;fill:url(#SVGID_50_);}
	.st53{opacity:0.4;fill:url(#SVGID_51_);}
	.st54{opacity:0.4;fill:url(#SVGID_52_);}
	.st55{opacity:0.4;fill:url(#SVGID_53_);}
	.st56{opacity:0.4;fill:url(#SVGID_54_);}
	.st57{opacity:0.4;fill:url(#SVGID_55_);}
	.st58{opacity:0.4;fill:url(#SVGID_56_);}
	.st59{fill:#DB7B8E;stroke:#DB7B8E;stroke-width:3;stroke-miterlimit:10;}
	.st60{fill:#985A85;stroke:#985A85;stroke-width:3;stroke-miterlimit:10;}
	.st61{fill:#A076AB;stroke:#A076AB;stroke-width:3;stroke-miterlimit:10;}
	.st62{fill:#D7B0D4;stroke:#D7B0D4;stroke-width:3;stroke-miterlimit:10;}
	.st63{opacity:0.5;fill:#CE82A0;}
</style>
<linearGradient id="SVGID_1_" gradientUnits="userSpaceOnUse" x1="895" y1="649.9453" x2="895" y2="-9.094947e-13">
	<stop  offset="0" style="stop-color:#FEF4D9"/>
	<stop  offset="1" style="stop-color:#894373"/>
</linearGradient>
<rect class="st0" width="1790" height="649.9"/>
<linearGradient id="SVGID_2_" gradientUnits="userSpaceOnUse" x1="342.522" y1="140.9491" x2="8.7971" y2="11.3282">
	<stop  offset="4.301080e-02" style="stop-color:#E2C0BF"/>
	<stop  offset="0.4785" style="stop-color:#C18782"/>
	<stop  offset="0.9946" style="stop-color:#8D5B5D"/>
</linearGradient>
<path class="st1" d="M429.9,0.5H125.2c-16.9,27.7-26.6,60.3-26.6,95.2c0,100.2,80.1,181.4,179,181.4s179-81.2,179-181.4
	C456.6,60.8,446.8,28.2,429.9,0.5z"/>
<linearGradient id="SVGID_3_" gradientUnits="userSpaceOnUse" x1="1210.9119" y1="324.9727" x2="1702.5542" y2="324.9727">
	<stop  offset="4.838710e-02" style="stop-color:#E4CEE6"/>
	<stop  offset="0.4785" style="stop-color:#D0A6CD"/>
	<stop  offset="1" style="stop-color:#632D79"/>
</linearGradient>
<ellipse class="st2" cx="1456.7" cy="325" rx="245.8" ry="246.2"/>
<linearGradient id="SVGID_4_" gradientUnits="userSpaceOnUse" x1="736.5201" y1="350.0743" x2="1012.5298" y2="350.0743">
	<stop  offset="4.838710e-02" style="stop-color:#F2A083"/>
	<stop  offset="0.4785" style="stop-color:#F08050"/>
	<stop  offset="1" style="stop-color:#E04F1D"/>
</linearGradient>
<ellipse class="st3" cx="874.5" cy="350.1" rx="138" ry="138.2"/>
<linearGradient id="SVGID_5_" gradientUnits="userSpaceOnUse" x1="895" y1="469.9148" x2="895" y2="126.5882">
	<stop  offset="0" style="stop-color:#CD6C67"/>
	<stop  offset="1" style="stop-color:#894373"/>
</linearGradient>
<polygon class="st4" points="1748,415.9 1765.4,303.6 1765.4,230.2 1722.3,243.2 1722.3,126.6 1670.6,126.6 1670.6,195.7 
	1614.6,208.6 1593,342.5 1506.9,338.2 1450.9,230.2 1450.9,312.3 1394.9,333.9 1369,152.5 1347.5,247.5 1291.5,277.7 1269.9,359.8 
	1145,368.4 1145,351.2 1106.2,364.1 1106.2,277.7 1063.1,277.7 1063.1,331.7 1002.8,331.7 1002.8,377.1 895,368.4 796,346.8 
	796,381.4 753,398.7 753,331.7 705.6,331.7 671.1,415.9 585,377.1 438.5,377.1 408.3,351.2 313.5,377.1 313.5,312.3 270.5,290.7 
	236,333.9 184.3,338.2 184.3,247.5 136.9,247.5 136.9,353.3 89.5,377.1 89.5,329.6 37.8,329.6 51,415.9 37.8,415.9 0,415.9 0,469.9 
	1790,469.9 1790,415.9 "/>
<linearGradient id="SVGID_6_" gradientUnits="userSpaceOnUse" x1="895" y1="650.2152" x2="895" y2="566.1522">
	<stop  offset="0" style="stop-color:#F08050"/>
	<stop  offset="1" style="stop-color:#8D5B5D"/>
</linearGradient>
<rect y="566.2" class="st5" width="1790" height="84.1"/>
<linearGradient id="SVGID_7_" gradientUnits="userSpaceOnUse" x1="895" y1="512.8306" x2="895" y2="372.7469">
	<stop  offset="0" style="stop-color:#A03563"/>
	<stop  offset="1" style="stop-color:#742A5A"/>
</linearGradient>
<polygon class="st6" points="1743.8,458.8 1674.9,437.5 1653.4,415.8 1597.3,415.8 1519.8,433.2 1519.8,394.3 1463.8,372.7 
	1442.3,415.8 1343.2,415.8 1313,372.7 1226.9,372.7 1157.9,415.8 1054.5,415.8 1054.5,372.7 994.2,372.7 938.2,415.8 804.7,415.8 
	740,394.3 671.1,415.8 589.3,372.7 490.2,415.8 360.9,433.2 292,394.3 192.9,372.7 154.1,424.6 63.7,424.6 29.2,458.8 0,458.8 
	0,512.8 1790,512.8 1790,458.8 "/>
<linearGradient id="SVGID_8_" gradientUnits="userSpaceOnUse" x1="895" y1="566.003" x2="895" y2="462.6272">
	<stop  offset="0" style="stop-color:#CD6C67"/>
	<stop  offset="1" style="stop-color:#894373"/>
</linearGradient>
<polygon class="st7" points="1755.2,512 1750.4,490.7 1718.1,490.7 1683.6,490.7 1642.7,462.6 1625.5,490.7 1573.8,477.7 
	1528.6,462.6 1489.8,490.7 1423,490.7 1423,462.6 1375.6,462.6 1330.4,490.7 1276.5,479.9 1244.2,490.7 1244.2,462.6 1218.4,462.6 
	1179.6,490.7 1145.1,462.6 1106.4,479.9 1026.7,477.7 996.5,462.6 951.3,490.7 908.2,479.9 869.4,462.6 850,490.7 783.3,490.7 
	761.7,462.6 701.4,490.7 634.6,490.7 608.8,462.6 565.7,462.6 554.9,479.9 486,490.7 462.3,462.6 447.2,490.7 391.2,490.7 
	376.1,490.7 337.4,490.7 290,462.6 290,486.4 238.3,502.6 221.1,486.4 188.7,486.4 169.4,502.6 128.4,512 119.8,486.4 81,486.4 
	48.6,512 0,512 0,566 1790,566 1790,512 "/>
<linearGradient id="SVGID_9_" gradientUnits="userSpaceOnUse" x1="65.762" y1="608.1837" x2="65.762" y2="589.7999">
	<stop  offset="0" style="stop-color:#F08050"/>
	<stop  offset="0.9892" style="stop-color:#D0A6CD"/>
</linearGradient>
<ellipse class="st8" cx="65.8" cy="599" rx="32.3" ry="9.2"/>
<linearGradient id="SVGID_10_" gradientUnits="userSpaceOnUse" x1="141.7572" y1="628.6592" x2="141.7572" y2="589.7999">
	<stop  offset="0" style="stop-color:#F08050"/>
	<stop  offset="0.9892" style="stop-color:#D0A6CD"/>
</linearGradient>
<ellipse class="st9" cx="141.8" cy="609.2" rx="17.8" ry="19.4"/>
<linearGradient id="SVGID_11_" gradientUnits="userSpaceOnUse" x1="67.7177" y1="628.6592" x2="67.7177" y2="618.9444">
	<stop  offset="0" style="stop-color:#F08050"/>
	<stop  offset="0.9892" style="stop-color:#D0A6CD"/>
</linearGradient>
<ellipse class="st10" cx="67.7" cy="623.8" rx="12.6" ry="4.9"/>
<linearGradient id="SVGID_12_" gradientUnits="userSpaceOnUse" x1="223.4118" y1="608.1837" x2="223.4118" y2="589.7999">
	<stop  offset="0" style="stop-color:#F08050"/>
	<stop  offset="0.9892" style="stop-color:#D0A6CD"/>
</linearGradient>
<ellipse class="st11" cx="223.4" cy="599" rx="26.7" ry="9.2"/>
<linearGradient id="SVGID_13_" gradientUnits="userSpaceOnUse" x1="220.2651" y1="628.6592" x2="220.2651" y2="623.8018">
	<stop  offset="0" style="stop-color:#F08050"/>
	<stop  offset="0.9892" style="stop-color:#D0A6CD"/>
</linearGradient>
<ellipse class="st12" cx="220.3" cy="626.2" rx="13.8" ry="2.4"/>
<linearGradient id="SVGID_14_" gradientUnits="userSpaceOnUse" x1="297.7901" y1="628.6592" x2="297.7901" y2="589.7999">
	<stop  offset="0" style="stop-color:#F08050"/>
	<stop  offset="0.9892" style="stop-color:#D0A6CD"/>
</linearGradient>
<ellipse class="st13" cx="297.8" cy="609.2" rx="20.2" ry="19.4"/>
<linearGradient id="SVGID_15_" gradientUnits="userSpaceOnUse" x1="372.977" y1="609.2296" x2="372.977" y2="608.1837">
	<stop  offset="0" style="stop-color:#F08050"/>
	<stop  offset="0.9892" style="stop-color:#D0A6CD"/>
</linearGradient>
<path class="st14" d="M402.1,608.7c0,0.3-13,0.5-29.1,0.5c-16.1,0-29.1-0.2-29.1-0.5s13-0.5,29.1-0.5
	C389.1,608.2,402.1,608.4,402.1,608.7z"/>
<linearGradient id="SVGID_16_" gradientUnits="userSpaceOnUse" x1="374.5939" y1="598.9918" x2="374.5939" y2="589.7999">
	<stop  offset="0" style="stop-color:#F08050"/>
	<stop  offset="0.9892" style="stop-color:#D0A6CD"/>
</linearGradient>
<ellipse class="st15" cx="374.6" cy="594.4" rx="12.9" ry="4.6"/>
<linearGradient id="SVGID_17_" gradientUnits="userSpaceOnUse" x1="387.5293" y1="639.9932" x2="387.5293" y2="628.6592">
	<stop  offset="0" style="stop-color:#F08050"/>
	<stop  offset="0.9892" style="stop-color:#D0A6CD"/>
</linearGradient>
<ellipse class="st16" cx="387.5" cy="634.3" rx="14.6" ry="5.7"/>
<linearGradient id="SVGID_18_" gradientUnits="userSpaceOnUse" x1="453.0146" y1="618.9444" x2="453.0146" y2="594.3958">
	<stop  offset="0" style="stop-color:#F08050"/>
	<stop  offset="0.9892" style="stop-color:#D0A6CD"/>
</linearGradient>
<ellipse class="st17" cx="453" cy="606.7" rx="18.6" ry="12.3"/>
<linearGradient id="SVGID_19_" gradientUnits="userSpaceOnUse" x1="508.7984" y1="634.3262" x2="508.7984" y2="581.7042">
	<stop  offset="0" style="stop-color:#F08050"/>
	<stop  offset="0.9892" style="stop-color:#D0A6CD"/>
</linearGradient>
<ellipse class="st18" cx="508.8" cy="608" rx="9.7" ry="26.3"/>
<linearGradient id="SVGID_20_" gradientUnits="userSpaceOnUse" x1="564.5822" y1="598.9918" x2="564.5822" y2="589.7999">
	<stop  offset="0" style="stop-color:#F08050"/>
	<stop  offset="0.9892" style="stop-color:#D0A6CD"/>
</linearGradient>
<ellipse class="st19" cx="564.6" cy="594.4" rx="25.1" ry="4.6"/>
<linearGradient id="SVGID_21_" gradientUnits="userSpaceOnUse" x1="568.6245" y1="634.3262" x2="568.6245" y2="618.9444">
	<stop  offset="0" style="stop-color:#F08050"/>
	<stop  offset="0.9892" style="stop-color:#D0A6CD"/>
</linearGradient>
<ellipse class="st20" cx="568.6" cy="626.6" rx="12.9" ry="7.7"/>
<linearGradient id="SVGID_22_" gradientUnits="userSpaceOnUse" x1="655.1297" y1="626.2305" x2="655.1297" y2="598.9918">
	<stop  offset="0" style="stop-color:#F08050"/>
	<stop  offset="0.9892" style="stop-color:#D0A6CD"/>
</linearGradient>
<ellipse class="st21" cx="655.1" cy="612.6" rx="20.2" ry="13.6"/>
<linearGradient id="SVGID_23_" gradientUnits="userSpaceOnUse" x1="749.7196" y1="589.7999" x2="749.7196" y2="589.7999">
	<stop  offset="0" style="stop-color:#F08050"/>
	<stop  offset="0.9892" style="stop-color:#D0A6CD"/>
</linearGradient>
<path class="st22" d="M785.3,589.8c0,0-15.9,0-35.6,0s-35.6,0-35.6,0s15.9,0,35.6,0S785.3,589.8,785.3,589.8z"/>
<linearGradient id="SVGID_24_" gradientUnits="userSpaceOnUse" x1="754.4383" y1="639.9932" x2="754.4383" y2="623.8018">
	<stop  offset="0" style="stop-color:#F08050"/>
	<stop  offset="0.9892" style="stop-color:#D0A6CD"/>
</linearGradient>
<ellipse class="st23" cx="754.4" cy="631.9" rx="17.9" ry="8.1"/>
<linearGradient id="SVGID_25_" gradientUnits="userSpaceOnUse" x1="833.7995" y1="639.9932" x2="833.7995" y2="589.7999">
	<stop  offset="0" style="stop-color:#F08050"/>
	<stop  offset="0.9892" style="stop-color:#D0A6CD"/>
</linearGradient>
<ellipse class="st24" cx="833.8" cy="614.9" rx="9.7" ry="25.1"/>
<linearGradient id="SVGID_26_" gradientUnits="userSpaceOnUse" x1="892.1599" y1="606.6701" x2="892.1599" y2="589.7999">
	<stop  offset="0" style="stop-color:#F08050"/>
	<stop  offset="0.9892" style="stop-color:#D0A6CD"/>
</linearGradient>
<ellipse class="st25" cx="892.2" cy="598.2" rx="17.6" ry="8.4"/>
<linearGradient id="SVGID_27_" gradientUnits="userSpaceOnUse" x1="921.1888" y1="634.3262" x2="921.1888" y2="628.6592">
	<stop  offset="0" style="stop-color:#F08050"/>
	<stop  offset="0.9892" style="stop-color:#D0A6CD"/>
</linearGradient>
<ellipse class="st26" cx="921.2" cy="631.5" rx="29" ry="2.8"/>
<linearGradient id="SVGID_28_" gradientUnits="userSpaceOnUse" x1="972.0463" y1="618.9444" x2="972.0463" y2="589.7999">
	<stop  offset="0" style="stop-color:#F08050"/>
	<stop  offset="0.9892" style="stop-color:#D0A6CD"/>
</linearGradient>
<ellipse class="st27" cx="972" cy="604.4" rx="12.1" ry="14.6"/>
<linearGradient id="SVGID_29_" gradientUnits="userSpaceOnUse" x1="1041.5739" y1="634.3262" x2="1041.5739" y2="618.9444">
	<stop  offset="0" style="stop-color:#F08050"/>
	<stop  offset="0.9892" style="stop-color:#D0A6CD"/>
</linearGradient>
<ellipse class="st28" cx="1041.6" cy="626.6" rx="21.8" ry="7.7"/>
<linearGradient id="SVGID_30_" gradientUnits="userSpaceOnUse" x1="1035.9147" y1="598.235" x2="1035.9147" y2="581.7042">
	<stop  offset="0" style="stop-color:#F08050"/>
	<stop  offset="0.9892" style="stop-color:#D0A6CD"/>
</linearGradient>
<ellipse class="st29" cx="1035.9" cy="590" rx="16.2" ry="8.3"/>
<linearGradient id="SVGID_31_" gradientUnits="userSpaceOnUse" x1="1123.2284" y1="614.8965" x2="1123.2284" y2="606.6701">
	<stop  offset="0" style="stop-color:#F08050"/>
	<stop  offset="0.9892" style="stop-color:#D0A6CD"/>
</linearGradient>
<ellipse class="st30" cx="1123.2" cy="610.8" rx="27.5" ry="4.1"/>
<linearGradient id="SVGID_32_" gradientUnits="userSpaceOnUse" x1="1197.7916" y1="634.3262" x2="1197.7916" y2="589.7999">
	<stop  offset="0" style="stop-color:#F08050"/>
	<stop  offset="0.9892" style="stop-color:#D0A6CD"/>
</linearGradient>
<ellipse class="st31" cx="1197.8" cy="612.1" rx="13.1" ry="22.3"/>
<linearGradient id="SVGID_33_" gradientUnits="userSpaceOnUse" x1="1136.9722" y1="589.7999" x2="1136.9722" y2="581.7042">
	<stop  offset="0" style="stop-color:#F08050"/>
	<stop  offset="0.9892" style="stop-color:#D0A6CD"/>
</linearGradient>
<ellipse class="st32" cx="1137" cy="585.8" rx="13.7" ry="4"/>
<linearGradient id="SVGID_34_" gradientUnits="userSpaceOnUse" x1="1267.1344" y1="610.7833" x2="1267.1344" y2="581.7042">
	<stop  offset="0" style="stop-color:#F08050"/>
	<stop  offset="0.9892" style="stop-color:#D0A6CD"/>
</linearGradient>
<ellipse class="st33" cx="1267.1" cy="596.2" rx="19.4" ry="14.5"/>
<linearGradient id="SVGID_35_" gradientUnits="userSpaceOnUse" x1="1263.092" y1="631.8975" x2="1263.092" y2="626.6353">
	<stop  offset="0" style="stop-color:#F08050"/>
	<stop  offset="0.9892" style="stop-color:#D0A6CD"/>
</linearGradient>
<ellipse class="st34" cx="1263.1" cy="629.3" rx="15.4" ry="2.6"/>
<linearGradient id="SVGID_36_" gradientUnits="userSpaceOnUse" x1="1339.8959" y1="614.8965" x2="1339.8959" y2="594.3958">
	<stop  offset="0" style="stop-color:#F08050"/>
	<stop  offset="0.9892" style="stop-color:#D0A6CD"/>
</linearGradient>
<ellipse class="st35" cx="1339.9" cy="604.6" rx="19.4" ry="10.3"/>
<linearGradient id="SVGID_37_" gradientUnits="userSpaceOnUse" x1="1418.3165" y1="612.6111" x2="1418.3165" y2="589.9695">
	<stop  offset="0" style="stop-color:#F08050"/>
	<stop  offset="0.9892" style="stop-color:#D0A6CD"/>
</linearGradient>
<ellipse class="st36" cx="1418.3" cy="601.3" rx="21.8" ry="11.3"/>
<linearGradient id="SVGID_38_" gradientUnits="userSpaceOnUse" x1="1390.0204" y1="639.9932" x2="1390.0204" y2="634.3262">
	<stop  offset="0" style="stop-color:#F08050"/>
	<stop  offset="0.9892" style="stop-color:#D0A6CD"/>
</linearGradient>
<ellipse class="st37" cx="1390" cy="637.2" rx="21" ry="2.8"/>
<linearGradient id="SVGID_39_" gradientUnits="userSpaceOnUse" x1="1518.5656" y1="634.3262" x2="1518.5656" y2="596.2438">
	<stop  offset="0" style="stop-color:#F08050"/>
	<stop  offset="0.9892" style="stop-color:#D0A6CD"/>
</linearGradient>
<ellipse class="st38" cx="1518.6" cy="615.3" rx="10.5" ry="19"/>
<linearGradient id="SVGID_40_" gradientUnits="userSpaceOnUse" x1="1593.7524" y1="612.6111" x2="1593.7524" y2="596.2438">
	<stop  offset="0" style="stop-color:#F08050"/>
	<stop  offset="0.9892" style="stop-color:#D0A6CD"/>
</linearGradient>
<ellipse class="st39" cx="1593.8" cy="604.4" rx="24.3" ry="8.2"/>
<linearGradient id="SVGID_41_" gradientUnits="userSpaceOnUse" x1="1691.5762" y1="626.2305" x2="1691.5762" y2="589.7999">
	<stop  offset="0" style="stop-color:#F08050"/>
	<stop  offset="0.9892" style="stop-color:#D0A6CD"/>
</linearGradient>
<ellipse class="st40" cx="1691.6" cy="608" rx="18.6" ry="18.2"/>
<linearGradient id="SVGID_42_" gradientUnits="userSpaceOnUse" x1="1750.5938" y1="596.2438" x2="1750.5938" y2="585.752">
	<stop  offset="0" style="stop-color:#F08050"/>
	<stop  offset="0.9892" style="stop-color:#D0A6CD"/>
</linearGradient>
<ellipse class="st41" cx="1750.6" cy="591" rx="17.8" ry="5.2"/>
<linearGradient id="SVGID_43_" gradientUnits="userSpaceOnUse" x1="1746.5515" y1="629.2664" x2="1746.5515" y2="618.9444">
	<stop  offset="0" style="stop-color:#F08050"/>
	<stop  offset="0.9892" style="stop-color:#D0A6CD"/>
</linearGradient>
<ellipse class="st42" cx="1746.6" cy="624.1" rx="13.7" ry="5.2"/>
<linearGradient id="SVGID_44_" gradientUnits="userSpaceOnUse" x1="1613.964" y1="631.8975" x2="1613.964" y2="623.8018">
	<stop  offset="0" style="stop-color:#F08050"/>
	<stop  offset="0.9892" style="stop-color:#D0A6CD"/>
</linearGradient>
<ellipse class="st43" cx="1614" cy="627.8" rx="12.1" ry="4"/>
<linearGradient id="SVGID_45_" gradientUnits="userSpaceOnUse" x1="1647.1108" y1="598.9918" x2="1647.1108" y2="585.752">
	<stop  offset="0" style="stop-color:#F08050"/>
	<stop  offset="0.9892" style="stop-color:#D0A6CD"/>
</linearGradient>
<ellipse class="st44" cx="1647.1" cy="592.4" rx="11.3" ry="6.6"/>
<linearGradient id="SVGID_46_" gradientUnits="userSpaceOnUse" x1="1478.951" y1="604.3721" x2="1478.951" y2="590.9979">
	<stop  offset="0" style="stop-color:#F08050"/>
	<stop  offset="0.9892" style="stop-color:#D0A6CD"/>
</linearGradient>
<ellipse class="st45" cx="1479" cy="597.7" rx="11.3" ry="6.7"/>
<ellipse class="st46" cx="694.7" cy="586.4" rx="8.1" ry="4.6"/>
<path class="st46" d="M33.4,638.4c-15.8-16.5-12.1-42.1,8-51.4c-18.3-3.7-31.3-3.6-28.3,18.6c1.4,10.5,9.9,27.7,20.4,29.6"/>
<path class="st46" d="M120.7,584.9c52.9-8.5,36.4,29.3,66.4,57.7c-3.5-24.1-11.8-35.1,1.3-57.4c-17.8-2.1-32.4,2.6-49.9,1.3"/>
<path class="st46" d="M276,586.6c-15.9,7.8-27.1,37.9-35.4,53.1c20.8,0.9,24-28.4,24-45"/>
<path class="st46" d="M324.5,641.6c6.1-11.2,9.3-23.7,8.1-36.8c0.5,8.9,15.5,26.5,11.5,34.4c-4,7.8-25.1,4.5-32.5,2.3"/>
<path class="st46" d="M402.1,584.9c11.9-2.6,38.7-8.6,51.1-3.2c-16.8,11.7-33.6,14.7-36.5,38.4c-2.9-13.1-7.2-27.5-17.8-36.8"/>
<path class="st46" d="M455.4,644.9c7.3-9.9,16.2-11.1,25.7-2.8c-7.1,6.5-18.9,4.4-28.9,4.5"/>
<path class="st46" d="M604.2,583.3c14-4.1,28.5-3.8,43.5-6.1c-18.5,20.5-29,32.3-38.3,57.8c-1.6-15.9-1.9-36.4-6.8-51.7"/>
<path class="st46" d="M707.7,640c2-7.4,4.9-15.3,8.4-22.5c4.9,5.4,9.6,13.2,10.8,20.7c-10,2.1-20.1,1.8-30.5,1.9"/>
<path class="st47" d="M824.1,578.5c-8.9-0.8-18.2,0.6-24.4,6.5c3,8.6,5,19.9,9.5,27.4c6.9-9,9.7-24.2,10.1-32.3"/>
<path class="st46" d="M935.7,589.8c-1.9,10.8-10.7,19.2-11.1,30.5c20.5-3.4,14.7-33.3,38-35.3c-8.1-8.9-22.4-4.3-33.1-3
	c-2.9,7.8-2.2,16-0.3,24"/>
<path class="st48" d="M985.8,640.1c6.1-9.2,13.4-18.8,21.1-27c3.6,6.3,5.5,13.1,4.6,20.2c-8.2,0.5-15.7,1.8-24,1.9"/>
<path class="st46" d="M1102.9,577.3c-37.5-0.2-24.7,31.3-19.1,59.8c10.8-7.2,9.1-17.3,14.3-27.5c3.1-6.1,18.1-16.6,19.1-20.5
	c5.2-20.1-32-14.4-43.4-8.5"/>
<path class="st46" d="M1139.4,640c18.6-9.3,24.5-16.9,34.4-37.1c6.5,10.9-0.2,24.5-0.7,36.9c-10.5,2.9-22.8,7.2-33.7,3.5"/>
<path class="st46" d="M1238,578.5c-5.6-2.2-11.8-1.9-17.5,0.2c-2.9,10.7,1.6,23.5,7.4,33.2c8.2-6.8,14.2-16.2,14.7-26.7
	c-3.5-1.1-7.2-2.3-11.1-1.9"/>
<path class="st46" d="M1291.4,643.2c2.3-7.7,4.4-15.9,8.1-23.6c5.6,6.1,11.9,11.8,15.9,18.4c-7.4,5.1-16.5,8.2-25.6,8.5"/>
<path class="st46" d="M1385.2,583.3c-26.9-2-17.9,26.4-14.2,42c4.4-5.4,18.1-22.2,17.4-29.7c-1.2-12.9-15.4-15.7-25.9-9"/>
<path class="st46" d="M1441.8,637c11.7-24.3,27.2-21.3,40.3,2.9c-15.5,1.6-37.3,7.2-51.6,1.9"/>
<path class="st46" d="M1550.1,578.5c-6.1-2.7-15-1.7-22.4,0.2c0.4,19.6,17.2,38.1,22.5,55.9c0.2-16.7,10.8-59-19.5-52.9"/>
<path class="st46" d="M1648.7,641.6c1.6-5.1,4.6-10.7,6.8-16c5,4.4,10.3,9.7,15.2,14.4c-8.7,3-18.1,1.4-26.9,0"/>
<path class="st46" d="M1726.3,576.8c-7.2-2.4-14.2-0.8-20.8,3.6c5.1,10.5,16.4,14.8,20.8,26.5c3.9-8.4,7-24.8,1.6-31.7"/>
<linearGradient id="SVGID_47_" gradientUnits="userSpaceOnUse" x1="110.0032" y1="104.5859" x2="397.8139" y2="104.5859">
	<stop  offset="0" style="stop-color:#C18782"/>
	<stop  offset="0.5215" style="stop-color:#C18782"/>
	<stop  offset="0.957" style="stop-color:#E2C0BF"/>
</linearGradient>
<path class="st49" d="M186.8,32.2c-24.4,14.3-41.6,30.9-51.8,53.3c-8.6,18.8-27.6,47.6-24.7,67.5c2.9,19.8,35.9,48.6,61.1,53.2
	c30.6,5.6,56-11.5,88.9-4.7c13.2,2.7,40.4,12.5,52.7,2.4c11.7-9.5,1.3-17.7-12.2-23.3c12-6.9,16.5-19.2,1.3-25.1
	c-11.3-4.3-33.2,5.6-44.1,8.2c-16.5,3.8-31.2,9.1-44.3-1.3c-11.8-9.4-9.3-14.7,5.5-21.9c-10.8-14.9-38.6-10.1-41.9-29
	c-3-17.7,21.6-27.6,40.4-28.3c12.8-0.5,25.5,6.7,38.6,3c15.7-4.5,10.4-12.4,19.7-19.3c20.3-15,34-2.9,56.7,6.1
	c15.1,6,63.5,11.5,36.5-12.4c-0.8-0.6-0.8-0.6-0.1,0c15.8,18.7,42,11.6,20.1-8.8c-12.6-11.7-31.3-20.6-44.8-32.7
	c-33-29.8-69.8-18.2-111-3.7c-21.6,7.6-43.1,16.9-62,28.2"/>
<linearGradient id="SVGID_48_" gradientUnits="userSpaceOnUse" x1="212.6676" y1="183.5387" x2="442.2497" y2="183.5387">
	<stop  offset="0" style="stop-color:#C18782"/>
	<stop  offset="0.5215" style="stop-color:#C18782"/>
	<stop  offset="0.957" style="stop-color:#E2C0BF"/>
</linearGradient>
<path class="st50" d="M214.8,238.9c35,41,81,36.4,125.9,13.2c41.7-21.5,87.6-42.3,98.2-91.4c3.8-17.5,9.5-57.5-16.5-62.6
	c-35.2-7-16.6,44.2-18.2,60.9c-4,43-18.5,3.3-43.7,7.9c-20.9,3.8-0.3,23.9-5.8,42.8c-16.8,57.2-103.5,18.5-142.1,37.9"/>
<linearGradient id="SVGID_49_" gradientUnits="userSpaceOnUse" x1="177.6042" y1="97.4146" x2="258.5127" y2="97.4146">
	<stop  offset="4.301080e-02" style="stop-color:#E2C0BF"/>
	<stop  offset="0.4785" style="stop-color:#C18782"/>
	<stop  offset="1" style="stop-color:#9F6676"/>
</linearGradient>
<path class="st51" d="M221,37c-27.8,18.1-72.9,105.5-16.1,120.2c39.7,10.2,70.9-90.7,42.9-112.9c-22-17.4-51.3,5.9-52.6,29.5"/>
<linearGradient id="SVGID_50_" gradientUnits="userSpaceOnUse" x1="261.9398" y1="220.3642" x2="364.1964" y2="220.3642">
	<stop  offset="4.301080e-02" style="stop-color:#E2C0BF"/>
	<stop  offset="0.4785" style="stop-color:#C18782"/>
	<stop  offset="1" style="stop-color:#9F6676"/>
</linearGradient>
<path class="st52" d="M352.8,195.7c-19.5-4.6-115.3,5.2-85,43.7c13.9,17.6,103.7-2.1,95.9-27.8c-6.5-21.3-48.9-7.6-62.6-5.1"/>
<linearGradient id="SVGID_51_" gradientUnits="userSpaceOnUse" x1="305.3897" y1="59.6278" x2="411.8615" y2="59.6278">
	<stop  offset="4.301080e-02" style="stop-color:#E2C0BF"/>
	<stop  offset="0.4785" style="stop-color:#C18782"/>
	<stop  offset="1" style="stop-color:#9F6676"/>
</linearGradient>
<path class="st53" d="M331.3,10c-16.6-5.3-21.5,10.3-15.6,22.3c3.9,8,25.2,16.8,32.5,23.5c19.7,18.1,39.5,37.3,58.6,55.9
	c28-35.5-66.3-143.8-101.3-88.7"/>
<linearGradient id="SVGID_52_" gradientUnits="userSpaceOnUse" x1="761.5209" y1="279.5389" x2="847.2357" y2="279.5389">
	<stop  offset="4.301080e-02" style="stop-color:#E2C0BF"/>
	<stop  offset="0.4785" style="stop-color:#C18782"/>
	<stop  offset="1" style="stop-color:#F08050"/>
</linearGradient>
<path class="st54" d="M825.1,245.3c-11.8,3.3-90.3,58.5-54,72.9c8.4,3.3,15.8-27.1,33.4-25.3c6.5,0.7,8.3,15.1,16.7,14.2
	c14.7-1.6,6.6-10.7,11.7-19.6c6.9-12,20.5-31.2,11.3-46.3c-18.7-3.4-29.1,4.1-42.8,14.8"/>
<linearGradient id="SVGID_53_" gradientUnits="userSpaceOnUse" x1="894.0667" y1="282.3144" x2="969.2373" y2="282.3144">
	<stop  offset="4.301080e-02" style="stop-color:#E2C0BF"/>
	<stop  offset="0.4785" style="stop-color:#C18782"/>
	<stop  offset="1" style="stop-color:#F08050"/>
</linearGradient>
<path class="st55" d="M926.4,243.2c-34.9-7.2,1.6,30.4,6.4,42.4c4.4,10.7-3.1,11.8,6.6,23.8c5.7,7,22.1,15.6,29.7,17.6
	c0.9-29.7-32.1-122.4-75.2-77.4"/>
<linearGradient id="SVGID_54_" gradientUnits="userSpaceOnUse" x1="1239.0789" y1="233.251" x2="1336.0825" y2="233.251">
	<stop  offset="4.301080e-02" style="stop-color:#D0A6CD"/>
	<stop  offset="0.4785" style="stop-color:#C18782"/>
	<stop  offset="1" style="stop-color:#93629F"/>
</linearGradient>
<path class="st56" d="M1249.9,243.2c-22.1,24.2-5.7,87.4,15.8,43.8c8.7-17.7-4.6-30.2,15.6-43.8c14.9-10,31.6-5.1,47.9-2.6
	c4.2-22.6,22.7-104-27.1-66.3c-8.1,6.1-10.6,18.2-18.2,24.9c-6.9,6.1-16.5,7.1-23.1,12.5c-15.4,12.7-19.1,26.6-21.8,46.6"/>
<linearGradient id="SVGID_55_" gradientUnits="userSpaceOnUse" x1="1405.4097" y1="152.8032" x2="1480.1115" y2="152.8032">
	<stop  offset="4.301080e-02" style="stop-color:#D0A6CD"/>
	<stop  offset="0.4785" style="stop-color:#C18782"/>
	<stop  offset="1" style="stop-color:#93629F"/>
</linearGradient>
<path class="st57" d="M1424.5,124.4c-21.7,20.3-33.9,96.7,13.9,69.7c24.3-13.7,69.4-82.5,18.4-88.2c-19.5-2.2-37.3,14.3-43,31.4"/>
<linearGradient id="SVGID_56_" gradientUnits="userSpaceOnUse" x1="1521.9213" y1="219.5842" x2="1625.5144" y2="219.5842">
	<stop  offset="4.301080e-02" style="stop-color:#D0A6CD"/>
	<stop  offset="0.4785" style="stop-color:#C18782"/>
	<stop  offset="1" style="stop-color:#93629F"/>
</linearGradient>
<path class="st58" d="M1605.7,165.5c-45-9.4-24.6,26.3-38.7,49.2c-13.1,21.2-55.9,7.2-42.5,44.3c17.6,48.7,86.9-24.8,97.5-50.1
	c11-26-4.9-56.6-35.8-34.8"/>
<g>
	<path class="st59" d="M270.3,299.3c0,0,0.1,0.9,0.3,2.5c0.2,1.5,0.4,3.7,0.7,6.2c0.5,5,0.9,11.3,0.7,16.5
		c-0.2,5.2-0.9,11.9-1.9,17.3c-0.1,0.7-0.2,1.3-0.3,1.9c-0.1,0.3-0.1,0.6-0.2,0.9c-0.1,0.3-0.1,0.6-0.2,0.9
		c-0.2,1.1-0.5,2.1-0.6,2.9c-0.4,1.7-0.6,2.7-0.6,2.7s0.1-1.1,0.2-2.9c0.1-0.9,0.2-1.9,0.2-3.1c0.1-1.2,0.1-2.5,0.2-3.9
		c0-0.7,0.1-1.4,0.1-2.1c0-0.4,0-0.7,0.1-1.1c0-0.4,0-0.7,0-1.1c0-1.5,0.1-3,0.1-4.4c0-1.5,0-2.9,0.1-4.3c0-1.4,0-2.6,0-3.8
		c0-4.6,0.3-10.9,0.6-16c0.1-2.6,0.3-4.8,0.4-6.5C270.3,300.3,270.3,299.3,270.3,299.3z"/>
</g>
<g>
	<path class="st59" d="M302.7,316.4c0,0-0.2,0.8-0.6,2c-0.2,0.6-0.4,1.4-0.6,2.3c-0.3,0.9-0.5,1.8-0.7,2.9c-0.1,0.3-0.1,0.5-0.2,0.8
		c-0.1,0.3-0.1,0.5-0.2,0.8c-0.1,0.5-0.2,1.1-0.4,1.7c-0.1,0.6-0.2,1.2-0.3,1.7c-0.1,0.6-0.2,1.2-0.3,1.8c-0.1,0.6-0.2,1.2-0.3,1.8
		c-0.1,0.6-0.2,1.2-0.3,1.8c-0.2,1.2-0.3,2.3-0.5,3.4c-0.7,4.3-1.5,9.9-1.8,14.5c-0.1,2.3-0.2,4.3-0.2,5.8c0,1.5,0,2.3,0,2.3
		s-0.2-0.9-0.4-2.4c-0.1-0.8-0.2-1.7-0.4-2.7c-0.1-0.5-0.1-1-0.2-1.6c-0.1-0.6-0.1-1.1-0.2-1.7c0-0.6-0.1-1.2-0.1-1.8
		c0-0.3,0-0.6-0.1-0.9c0-0.3,0-0.6,0-1c0-0.6,0-1.3,0-1.9c0-0.6,0-1.3,0-1.9c0-0.3,0-0.6,0-1c0-0.3,0-0.6,0-0.9
		c0-0.6,0.1-1.2,0.1-1.8c0-0.6,0.1-1.2,0.2-1.7c0.1-0.6,0.1-1.1,0.2-1.6c0.1-0.5,0.1-1,0.2-1.6c0-0.3,0.1-0.5,0.1-0.8
		c0.1-0.3,0.1-0.6,0.2-0.8c0.1-0.6,0.2-1.1,0.4-1.7c0.1-0.6,0.3-1.2,0.5-1.7c0.3-1.2,0.7-2.3,1.1-3.5c0.2-0.6,0.4-1.1,0.6-1.7
		c0.2-0.5,0.4-1.1,0.6-1.6c0.9-2,1.8-3.8,2.4-5.1C302.3,317.1,302.7,316.4,302.7,316.4z"/>
</g>
<g>
	<path class="st59" d="M145.3,256.4c0,0,0.2,0.3,0.5,0.8c0.2,0.3,0.3,0.6,0.6,1c0.2,0.4,0.4,0.8,0.7,1.3c1,2,2.4,4.8,3.6,8.2
		c0.6,1.7,1.2,3.5,1.7,5.5c0.2,1,0.5,1.9,0.7,3c0.1,0.5,0.2,1,0.3,1.5c0.1,0.5,0.2,1,0.3,1.5c0.8,4.1,1.1,8.3,1.2,12.1
		c0.1,3.8-0.1,8.1-0.6,12.5c-0.5,4.3-1.2,8.6-1.9,12.5c-0.7,3.8-1.5,7.2-2,9.5c-0.3,1.2-0.5,2.1-0.7,2.8c-0.2,0.7-0.3,1-0.3,1
		s0.1-0.4,0.2-1.1c0.1-0.7,0.2-1.7,0.4-3c0.3-2.5,0.8-6.1,1.2-10c0.4-4,0.7-8.3,0.9-12.5c0.2-4.2,0.1-8.2,0-11.5
		c-0.1-3.3-0.4-7.2-0.8-11.1c-0.4-3.9-1.1-7.9-2-11.5c-0.9-3.5-1.9-6.6-2.7-8.8c-0.2-0.5-0.4-1-0.6-1.5c-0.2-0.4-0.3-0.8-0.5-1.1
		C145.5,256.7,145.3,256.4,145.3,256.4z"/>
</g>
<g>
	<path class="st59" d="M59.1,345c0,0,0.2,0.2,0.5,0.6c0.2,0.2,0.4,0.4,0.6,0.7c0.3,0.3,0.5,0.6,0.8,1c1.2,1.5,2.8,3.7,4.2,6.5
		c0.2,0.3,0.4,0.7,0.6,1.1c0.2,0.4,0.4,0.7,0.5,1.1c0.1,0.2,0.2,0.4,0.3,0.6c0.1,0.2,0.2,0.4,0.3,0.6c0.2,0.4,0.3,0.8,0.5,1.2
		c0.6,1.6,1.3,3.3,1.8,5c1.1,3.5,1.8,7.1,2.2,10.3c0.4,3.3,0.6,7,0.7,10.8c0.1,3.8,0,7.5,0,10.9c-0.1,3.4-0.1,6.3-0.1,8.5
		c0,1.1,0,1.9,0,2.5c0,0.6,0,0.9,0,0.9s0-0.3-0.1-1c-0.1-0.6-0.2-1.5-0.3-2.6c-0.2-2.2-0.5-5.3-0.8-8.8c-0.3-3.4-0.6-7.3-0.9-10.9
		c-0.3-3.6-0.8-7.1-1.2-10c-0.4-2.8-0.9-6.1-1.7-9.5c-0.7-3.3-1.7-6.7-2.8-9.7c-1.1-2.9-2.4-5.4-3.4-7.2c-0.3-0.4-0.5-0.8-0.7-1.2
		c-0.2-0.3-0.4-0.6-0.5-0.9C59.3,345.3,59.1,345,59.1,345z"/>
</g>
<g>
	<path class="st59" d="M110.8,379.4c0,0,0.2,0.4,0.6,1c0.2,0.3,0.4,0.7,0.6,1.1c0.2,0.4,0.5,1,0.7,1.5c1,2.2,1.9,5.1,2.2,7.5
		c0.3,2.4,0.2,5.5,0.2,8.1c0,0.6,0,1.2,0,1.8c0,0.5,0,1,0,1.4c0,0.8,0,1.3,0,1.3s-0.2-0.5-0.4-1.3c-0.2-0.8-0.6-1.9-0.9-3.2
		c-0.6-2.5-1.3-5.6-1.7-7.7c-0.4-2.1-0.6-5-0.8-7.3c-0.1-0.6-0.1-1.1-0.2-1.6c-0.1-0.5-0.1-0.9-0.2-1.3
		C110.9,379.9,110.8,379.4,110.8,379.4z"/>
</g>
<g>
	<path class="st59" d="M378.2,381.4c0,0,2,5.5,2,9.4c0,3.9-2,10-2,10s-0.6-6.6-0.8-10C377,387.3,378.2,381.4,378.2,381.4z"/>
</g>
<g>
	<path class="st59" d="M406.2,366.4c0,0,0.2,0.5,0.6,1.2c0.3,0.8,0.9,1.9,1.3,3.2c0.2,0.7,0.5,1.4,0.7,2.1c0.2,0.7,0.4,1.5,0.6,2.3
		c0.4,1.5,0.6,3.1,0.7,4.5c0.1,0.7,0,1.5,0,2.3c0,0.8-0.1,1.6-0.1,2.4c-0.1,1.6-0.4,3.3-0.6,4.8c-0.2,1.5-0.5,2.8-0.7,3.7
		c-0.2,0.9-0.3,1.5-0.3,1.5s0-0.6-0.1-1.6c-0.1-1-0.1-2.3-0.2-3.8c-0.1-1.5-0.2-3.1-0.4-4.7c-0.1-0.8-0.2-1.6-0.2-2.3
		c-0.1-0.7-0.1-1.4-0.2-2c-0.1-0.6-0.1-1.3-0.2-2c0-0.4,0-0.7-0.1-1.1c0-0.4-0.1-0.7-0.1-1.1c0-0.7-0.1-1.5-0.1-2.2
		c-0.1-0.7-0.1-1.5-0.1-2.1c0-0.3,0-0.7-0.1-1c0-0.2,0-0.3,0-0.5c0-0.2,0-0.3,0-0.4c-0.1-0.6-0.1-1.1-0.2-1.5
		C406.3,366.9,406.2,366.4,406.2,366.4z"/>
</g>
<g>
	<path class="st59" d="M438.5,381.4c0,0,0.1,0.4,0.3,0.9c0.2,0.6,0.5,1.4,0.8,2.3c0.2,0.5,0.3,0.9,0.5,1.4c0.2,0.5,0.4,1,0.5,1.5
		c0.3,1,0.6,2.1,0.8,3c0.3,1.9,0.3,4.6,0,6.6c0,0.3-0.1,0.5-0.1,0.8c0,0.2-0.1,0.5-0.1,0.7c-0.1,0.4-0.2,0.8-0.3,1.1
		c-0.2,0.6-0.3,1-0.3,1s-0.1-0.4-0.1-1.1c0-0.3-0.1-0.7-0.1-1.2c-0.1-0.4-0.2-0.9-0.3-1.4c-0.4-2-1-4.4-1.4-6.1
		c-0.1-0.4-0.2-0.9-0.3-1.4c0-0.2-0.1-0.5-0.1-0.8c0-0.3-0.1-0.5-0.1-0.8c0-0.5-0.1-1.1-0.1-1.6c0-0.5,0-1.1,0-1.6
		c0-1,0.1-1.9,0.2-2.5C438.5,381.8,438.5,381.4,438.5,381.4z"/>
</g>
<g>
	<path class="st59" d="M1089.8,290.8c0,0,0.3,1.1,0.8,3c0.3,0.9,0.5,2.1,0.8,3.4c0.1,0.3,0.1,0.7,0.2,1c0.1,0.3,0.1,0.7,0.2,1
		c0.1,0.7,0.2,1.5,0.3,2.2c0.1,0.4,0.1,0.8,0.2,1.2c0.1,0.4,0.1,0.8,0.1,1.2c0.1,0.8,0.2,1.7,0.2,2.5c0,0.4,0.1,0.9,0.1,1.3
		c0,0.4,0,0.9,0.1,1.3c0,0.9,0.1,1.8,0.1,2.7c0,1.8,0,3.6,0,5.4c0,1.8-0.1,3.5-0.2,5.1c-0.5,6.6-1.7,14.8-2.3,21.5
		c-0.1,0.8-0.1,1.7-0.2,2.4c0,0.4-0.1,0.8-0.1,1.1c0,0.4,0,0.7-0.1,1.1c0,0.7-0.1,1.4-0.1,2c0,0.6-0.1,1.2-0.1,1.7
		c0,2.1,0,3.4,0,3.4s-0.1-1.4-0.4-3.6c-0.1-0.6-0.1-1.2-0.1-1.8c0-0.7-0.1-1.4-0.1-2.1c0-0.2,0-0.4,0-0.6c0-0.2,0-0.4,0-0.6
		c0-0.4,0-0.8,0-1.2c0-0.8,0-1.7,0-2.5c0-7,0.5-15.4,0.8-21.1c0.3-5.8,0.9-13.5,0.8-19.9c0-0.8,0-1.6-0.1-2.3c0-0.4,0-0.7,0-1.1
		c0-0.4,0-0.7-0.1-1c0-0.7-0.1-1.3-0.1-1.9c0-0.3,0-0.6-0.1-0.9c0-0.3-0.1-0.5-0.1-0.8C1089.9,292,1089.8,290.8,1089.8,290.8z"/>
</g>
<g>
	<path class="st59" d="M1061.7,299.4c0,0,0.2,1.2,0.5,3.2c0.2,1,0.3,2.2,0.5,3.6c0.1,0.7,0.2,1.4,0.3,2.2c0.1,0.8,0.1,1.6,0.2,2.4
		c0.2,1.7,0.2,3.4,0.3,5.3c0.1,0.9,0.1,1.9,0.1,2.8c0,0.9,0.1,1.9,0,2.9c0,1.9,0,3.8-0.1,5.7c-0.1,1.9-0.2,3.7-0.4,5.5
		c-0.6,7-2.2,15.8-3.5,22.9c-1.3,7.1-2.3,12.5-2.3,12.5s0.1-1.5,0.3-3.8c0.2-2.4,0.5-5.7,0.8-9.4c0.7-7.4,1.5-16.3,2-22.4
		c0.4-6.1,1.2-14.4,1.3-21.3c0-1.7,0.1-3.3,0.1-4.8c0-0.7,0-1.4,0-2.1c0-0.3,0-0.6,0-0.9c0-0.3,0-0.6,0-0.9
		C1061.8,300.7,1061.7,299.4,1061.7,299.4z"/>
</g>
<g>
	<path class="st59" d="M1012.2,340.1c0,0,0,0.3,0,0.7c0,0.2,0,0.5,0,0.8c0,0.1,0,0.3,0,0.5c0,0.2,0,0.3,0,0.5c0,0.7,0.1,1.4,0.1,2.1
		c0,0.7,0,1.4-0.1,2c-0.2,1.2-0.8,2.9-1.3,4.2c-0.3,0.7-0.5,1.3-0.7,1.7c-0.2,0.4-0.3,0.7-0.3,0.7s0-0.3-0.1-0.7
		c-0.1-0.5-0.1-1.1-0.2-1.8c-0.1-0.7-0.1-1.5-0.2-2.3c0-0.8-0.1-1.5,0-2.2c0-0.6,0.2-1.4,0.4-2.1c0.2-0.7,0.6-1.4,0.9-2.1
		c0.2-0.3,0.3-0.6,0.5-0.8c0.2-0.2,0.3-0.5,0.5-0.6C1012,340.3,1012.2,340.1,1012.2,340.1z"/>
</g>
<g>
	<path class="st59" d="M805.2,351.4c0,0,0.3,0.4,0.8,1c0.1,0.2,0.3,0.3,0.4,0.5c0.1,0.2,0.3,0.4,0.4,0.6c0.2,0.2,0.3,0.5,0.5,0.7
		c0.2,0.3,0.3,0.5,0.5,0.8c0.7,1.1,1.3,2.5,1.9,3.9c0.5,1.4,0.9,2.9,1.1,4.3c0.2,1.4,0.2,2.9,0.1,4.5c-0.1,1.6-0.3,3.1-0.5,4.5
		c-0.2,1.4-0.5,2.6-0.6,3.5c-0.2,0.9-0.3,1.4-0.3,1.4s0-0.6-0.1-1.5c-0.1-0.9-0.1-2.2-0.3-3.6c-0.1-1.4-0.3-2.9-0.5-4.4
		c-0.2-1.5-0.4-2.9-0.7-4c-0.1-0.3-0.1-0.6-0.2-0.9c-0.1-0.3-0.1-0.6-0.2-0.9c-0.1-0.6-0.2-1.3-0.3-2c-0.1-0.3-0.1-0.7-0.2-1
		c-0.1-0.3-0.1-0.7-0.2-1c-0.2-0.7-0.3-1.3-0.4-1.9c-0.1-0.3-0.2-0.6-0.2-0.9c-0.1-0.3-0.2-0.6-0.2-0.8c-0.2-0.5-0.3-1-0.4-1.4
		C805.3,351.9,805.2,351.4,805.2,351.4z"/>
</g>
<g>
	<path class="st59" d="M833.2,360c0,0,0.2,0.3,0.6,0.9c0.4,0.6,0.9,1.4,1.5,2.3c0.3,0.5,0.6,1,0.8,1.5c0.3,0.5,0.5,1.1,0.8,1.7
		c0.3,0.6,0.5,1.1,0.7,1.7c0.2,0.6,0.4,1.1,0.5,1.7c0.2,1.1,0.4,2.4,0.4,3.7c0,0.7,0,1.3,0,2c-0.1,0.6-0.1,1.3-0.2,1.9
		c0,0.3-0.1,0.6-0.1,0.8c0,0.3-0.1,0.5-0.1,0.8c-0.1,0.5-0.2,0.9-0.3,1.3c-0.2,0.7-0.3,1.1-0.3,1.1s0-0.5-0.1-1.2
		c-0.1-0.7-0.2-1.8-0.4-2.9c-0.1-0.6-0.2-1.2-0.3-1.8c-0.1-0.6-0.3-1.2-0.4-1.8c-0.1-0.3-0.1-0.6-0.2-0.9c-0.1-0.3-0.2-0.6-0.2-0.8
		c-0.2-0.5-0.3-1.1-0.4-1.5c-0.1-0.5-0.3-1-0.4-1.5c-0.1-0.5-0.2-1.1-0.4-1.7c-0.3-1.1-0.5-2.3-0.7-3.4c-0.2-1.1-0.4-2-0.5-2.7
		C833.3,360.4,833.2,360,833.2,360z"/>
</g>
<g>
	<path class="st59" d="M734,346.8c0,0,2,5.5,2,9.4c0,3.9-2,10-2,10s-0.6-6.6-0.8-10C732.8,352.8,734,346.8,734,346.8z"/>
</g>
<g>
	<path class="st59" d="M1346.4,255.9c0,0-0.1,0.4-0.4,1c-0.1,0.3-0.3,0.7-0.5,1.2c-0.2,0.5-0.4,1-0.6,1.7c-0.9,2.5-2,6-3,10.1
		c-0.1,0.5-0.2,1-0.4,1.6c-0.1,0.5-0.2,1.1-0.3,1.6c-0.2,1.1-0.4,2.2-0.7,3.3c-0.4,2.3-0.8,4.6-1.2,7c-0.7,4.8-1.2,9.6-1.7,14
		c-1,8.8-2.2,20.1-3.6,29.1c-0.7,4.5-1.3,8.5-1.9,11.3c-0.1,0.7-0.3,1.3-0.4,1.9c-0.1,0.6-0.2,1-0.3,1.4c-0.2,0.8-0.3,1.2-0.3,1.2
		s0.1-0.5,0.2-1.3c0.1-0.4,0.1-0.9,0.2-1.5c0.1-0.6,0.1-1.3,0.2-2c0.3-3,0.7-7.2,1-11.9c0.3-4.7,0.6-9.9,0.9-14.8
		c0.3-5,0.7-9.8,1.1-13.7c0.4-3.9,1-8.6,1.9-13.3c0.9-4.7,2.1-9.5,3.5-13.6c1.4-4.2,2.9-7.8,4.1-10.3c0.3-0.6,0.6-1.2,0.8-1.7
		c0.3-0.5,0.5-0.9,0.7-1.3C1346.2,256.3,1346.4,255.9,1346.4,255.9z"/>
</g>
<g>
	<path class="st59" d="M1294.6,284.2c0,0,0.1,1,0.3,2.7c0.2,1.7,0.4,4,0.7,6.7c0.2,2.7,0.5,5.7,0.6,8.8c0.2,3.1,0.2,6.2,0.1,9.1
		c0,1.4-0.1,2.9-0.2,4.5c-0.1,1.6-0.2,3.2-0.4,4.8c-0.4,3.2-0.8,6.5-1.3,9.4c-0.2,1.4-0.5,2.8-0.7,4c-0.3,1.2-0.5,2.3-0.7,3.2
		c-0.4,1.8-0.6,2.9-0.6,2.9s0.1-1.2,0.2-3.1c0.1-1,0.2-2.1,0.3-3.4c0.1-1.3,0.1-2.7,0.2-4.2c0-0.7,0.1-1.5,0.1-2.3
		c0-0.8,0-1.6,0.1-2.4c0-1.6,0.1-3.2,0.1-4.8c0-1.6,0-3.1,0-4.6c0-1.5,0-2.9,0-4.1c0-2.5,0.1-5.4,0.2-8.5c0-1.5,0.1-3,0.2-4.5
		c0.1-1.5,0.1-3,0.2-4.3c0.1-2.8,0.3-5.2,0.4-7C1294.5,285.3,1294.6,284.2,1294.6,284.2z"/>
</g>
<g>
	<path class="st59" d="M1462.8,290.5c0,0-0.3,1.4-0.9,3.8c-0.3,1.2-0.6,2.6-0.9,4.2c-0.2,0.8-0.4,1.7-0.5,2.5
		c-0.2,0.9-0.3,1.8-0.5,2.8c-0.1,0.5-0.2,1-0.3,1.5c-0.1,0.5-0.2,1-0.3,1.5c-0.2,1-0.4,2.1-0.6,3.1c-0.4,2.1-0.7,4.3-1.1,6.5
		c-0.4,2.2-0.7,4.4-1.1,6.6c-0.4,2.2-0.7,4.3-1.1,6.3c-1.5,8.1-3.7,18.4-5.8,26.6c-0.6,2.1-1,4-1.5,5.7c-0.5,1.7-0.9,3.3-1.3,4.5
		c-0.8,2.5-1.3,4.1-1.3,4.1s0.4-1.7,1-4.4c0.3-1.4,0.6-3,1-4.9c0.3-1.8,0.7-3.9,1.1-6c1.5-8.6,3-19,4.2-26.2
		c1.2-7.2,3.3-16.9,5.5-24.7c1.1-3.9,2.2-7.3,3.1-9.8C1462.3,292,1462.8,290.5,1462.8,290.5z"/>
</g>
<g>
	<path class="st59" d="M1408.9,355.3c0,0,0,0.6,0,1.5c0,0.5,0,1,0,1.6c0,0.3,0,0.6,0,1c0,0.3,0,0.7,0,1.1c0,2.9,0.1,6.7-0.2,9.7
		c-0.2,1.5-0.5,3.3-0.9,5c-0.2,0.9-0.4,1.7-0.6,2.6c-0.2,0.8-0.5,1.7-0.7,2.4c-0.4,1.5-1,2.9-1.3,3.8c-0.4,0.9-0.6,1.5-0.6,1.5
		s0.1-0.6,0.2-1.7c0.1-1,0.3-2.5,0.4-4.1c0.1-0.8,0.1-1.7,0.2-2.5c0.1-0.9,0.1-1.7,0.2-2.6c0.1-1.7,0.2-3.4,0.3-4.7
		c0.2-2.7,0.7-6.4,1.5-9.4c0.2-0.7,0.4-1.4,0.5-2.1c0.2-0.6,0.4-1.2,0.5-1.7C1408.7,355.9,1408.9,355.3,1408.9,355.3z"/>
</g>
<g>
	<path class="st59" d="M1669.8,204.2c0,0-0.1,0.5-0.3,1.4c-0.1,0.5-0.2,1-0.4,1.7c-0.1,0.7-0.3,1.4-0.4,2.3c-0.7,3.4-1.4,8.1-2,13.6
		c-0.6,5.5-1.1,11.7-1.4,18c-0.3,6.3-0.5,12.7-0.7,18.5c-0.3,5.8-0.6,12.4-1.1,19.1c-0.5,6.7-1.3,13.4-2.1,19.3
		c-0.9,5.9-2,11.1-2.9,14.7c-0.2,0.9-0.4,1.7-0.6,2.4c-0.2,0.7-0.4,1.3-0.5,1.8c-0.3,1-0.4,1.5-0.4,1.5s0.1-0.6,0.3-1.7
		c0.1-0.5,0.3-1.2,0.4-2c0.1-0.8,0.3-1.6,0.5-2.6c0.7-3.9,1.5-9.3,2-15.4c1.1-12.2,1.4-27.1,1.7-37.4c0.2-5.1,0.4-11.2,1-17.4
		c0.5-6.2,1.3-12.5,2.3-18.2c1-5.7,2.1-10.6,3.1-14.1c0.2-0.9,0.5-1.7,0.7-2.4c0.2-0.7,0.4-1.3,0.5-1.8
		C1669.7,204.7,1669.8,204.2,1669.8,204.2z"/>
</g>
<g>
	<path class="st59" d="M1628.8,284.2c0,0,0,1.5,0,3.9c0,1.2,0,2.7,0,4.4c0,0.8,0,1.7,0,2.6c0,0.9,0,1.9,0,2.9c0,7.9,0,17.9-0.4,26.2
		c-0.1,2.1-0.3,4.3-0.5,6.6c-0.1,1.1-0.2,2.3-0.3,3.5c-0.1,1.2-0.2,2.4-0.4,3.5c-0.3,2.4-0.6,4.7-0.9,7.1c-0.1,0.6-0.2,1.2-0.2,1.7
		c-0.1,0.6-0.2,1.1-0.3,1.7c-0.2,1.1-0.4,2.2-0.5,3.3c-0.2,1.1-0.4,2.1-0.5,3.1c-0.2,1-0.3,1.9-0.5,2.8c-0.4,1.8-0.7,3.3-1,4.7
		c-0.6,2.6-0.9,4.2-0.9,4.2s0.2-1.7,0.6-4.5c0.2-1.4,0.4-3.1,0.6-4.9c0.2-1.9,0.4-3.9,0.6-6.1c0.1-1.1,0.2-2.2,0.3-3.3
		c0-0.3,0.1-0.6,0.1-0.9c0-0.3,0-0.6,0.1-0.9c0-0.6,0.1-1.2,0.1-1.7c0.1-2.3,0.3-4.7,0.4-7c0.1-2.3,0.2-4.6,0.3-6.8
		c0.1-2.2,0.2-4.2,0.3-6c0.1-3.7,0.4-8,0.7-12.4c0.1-2.2,0.3-4.4,0.5-6.6c0.2-2.2,0.4-4.3,0.5-6.4c0.3-4.1,0.7-7.7,1-10.2
		C1628.7,285.8,1628.8,284.2,1628.8,284.2z"/>
</g>
<g>
	<path class="st59" d="M1738.8,260.3c0,0-0.4,1.6-1.1,4.3c-0.4,1.3-0.8,2.9-1.2,4.8c-0.2,0.9-0.5,1.9-0.7,2.9
		c-0.2,1-0.5,2.1-0.7,3.1c-1,4.3-2.1,9.3-3.1,14.2c-1,5-2,10-2.9,14.6c-1.9,9.2-4.3,20.9-6.2,30.3c-1,4.7-1.8,8.9-2.4,11.8
		c-0.6,3-1,4.8-1,4.8s0.2-1.9,0.6-5.1c0.4-3.2,1-7.6,1.6-12.5c0.7-4.9,1.4-10.3,2.2-15.5c0.2-1.3,0.4-2.6,0.6-3.9
		c0.2-1.3,0.4-2.5,0.6-3.7c0.4-2.4,0.8-4.7,1.2-6.7c0.2-1,0.4-2.1,0.6-3.2c0.2-1.1,0.5-2.2,0.7-3.4c0.3-1.2,0.5-2.3,0.8-3.5
		c0.3-1.2,0.6-2.4,0.9-3.6c0.3-1.2,0.6-2.4,1-3.6c0.3-1.2,0.7-2.4,1-3.6c0.4-1.2,0.7-2.4,1-3.5c0.2-0.6,0.3-1.2,0.5-1.7
		c0.2-0.6,0.4-1.1,0.5-1.7c0.7-2.2,1.4-4.3,2-6.1c0.3-0.9,0.6-1.8,0.9-2.6c0.1-0.4,0.3-0.8,0.4-1.2c0.1-0.4,0.3-0.7,0.4-1.1
		C1738.2,262,1738.8,260.3,1738.8,260.3z"/>
</g>
<g>
	<path class="st59" d="M1708.6,137.3c0,0-0.2,1.5-0.5,3.9c-0.2,1.2-0.3,2.7-0.5,4.3c-0.1,0.8-0.2,1.7-0.3,2.6
		c-0.1,0.9-0.2,1.9-0.2,2.8c-0.2,2-0.3,4.1-0.4,6.2c-0.1,1.1-0.1,2.2-0.2,3.3c0,1.1-0.1,2.2-0.1,3.4c-0.1,2.3-0.2,4.5-0.2,6.7
		c-0.1,2.2-0.1,4.4-0.1,6.4c-0.2,8.3-0.5,18.9-0.9,27.4c-0.2,4.3-0.4,8-0.5,10.7c-0.2,2.7-0.3,4.3-0.3,4.3s0-1.7-0.1-4.6
		c-0.1-2.8-0.2-6.8-0.4-11.1c-0.2-4.4-0.3-9.2-0.4-13.9c0-1.2-0.1-2.3-0.1-3.5c0-1.1,0-2.3-0.1-3.3c0-1.1,0-2.1,0-3.2
		c0-0.5,0-1,0-1.5c0-0.5,0-1,0-1.4c0-7.4,0.8-17.4,2.3-25.5c0.4-2,0.7-3.9,1.1-5.6c0.2-0.9,0.4-1.7,0.5-2.4c0.1-0.4,0.2-0.7,0.2-1.1
		c0.1-0.3,0.2-0.7,0.3-1C1708.2,138.8,1708.6,137.3,1708.6,137.3z"/>
</g>
<g>
	<path class="st59" d="M201.4,383.9c0,0,0.1,0.1,0.4,0.4c0.3,0.3,0.6,0.7,1.1,1.1c0.9,0.9,2.3,2.2,4,3.4c1.7,1.2,3.7,2.4,5.8,3.3
		c1,0.5,2.1,0.9,3.2,1.3c0.5,0.2,1.1,0.4,1.6,0.6c0.5,0.2,1,0.4,1.5,0.5c2,0.7,4.3,1.4,6.7,2c2.4,0.6,4.9,1.1,7.1,1.5
		c2.2,0.4,4.2,0.7,5.6,0.9c1.4,0.2,2.3,0.3,2.3,0.3s-0.2,0-0.6,0c-0.4,0-1,0-1.8,0c-1.5,0-3.6,0-5.9,0c-2.3-0.1-4.9-0.3-7.4-0.6
		c-2.5-0.4-4.9-0.9-6.8-1.4c-1.9-0.6-4.1-1.5-6.2-2.7c-1.1-0.6-2.1-1.3-3-2c-0.9-0.8-1.9-1.5-2.6-2.3c-1.6-1.6-2.8-3.2-3.5-4.3
		c-0.2-0.3-0.4-0.6-0.5-0.8c-0.1-0.2-0.3-0.4-0.4-0.6C201.6,384,201.4,383.9,201.4,383.9z"/>
</g>
<g>
	<path class="st59" d="M292.3,414.3c0,0,0.3,0,0.9,0c0.1,0,0.3,0,0.5,0c0.2,0,0.3,0,0.5,0.1c0.2,0,0.4,0,0.6,0.1
		c0.2,0,0.4,0.1,0.6,0.1c0.9,0.2,1.9,0.6,2.8,1.1c0.9,0.5,1.8,1.3,2.4,2c0.6,0.8,1.1,1.8,1.4,2.8c0.1,0.3,0.2,0.5,0.2,0.8
		c0.1,0.3,0.1,0.5,0.2,0.8c0.1,0.5,0.2,1,0.2,1.5c0.1,0.9,0.1,1.8,0.2,2.4c0,0.6,0,1,0,1s-0.2-0.3-0.4-0.9c-0.3-0.5-0.6-1.3-1-2.1
		c-0.8-1.7-2-3.5-3-4.5c-0.3-0.2-0.5-0.6-0.8-0.8c-0.1-0.1-0.3-0.3-0.4-0.5c-0.1-0.1-0.3-0.3-0.4-0.5c-0.1-0.2-0.3-0.3-0.5-0.4
		c-0.2-0.1-0.3-0.3-0.5-0.4c-0.3-0.3-0.6-0.6-1-0.8c-0.2-0.1-0.3-0.2-0.5-0.4c-0.2-0.1-0.3-0.2-0.5-0.3c-0.3-0.2-0.6-0.4-0.8-0.5
		C292.6,414.5,292.3,414.3,292.3,414.3z"/>
</g>
<g>
	<path class="st59" d="M201.4,418.4c0,0,0.6,0.6,1.6,1.7c0.1,0.1,0.2,0.3,0.4,0.4c0.1,0.1,0.3,0.3,0.4,0.4c0.3,0.3,0.6,0.6,1,0.9
		c0.7,0.7,1.5,1.4,2.4,2.1c3.4,3,8.1,6.3,11.7,9.4c3.6,3.1,8,7.7,10.7,11.9c0.7,1,1.3,2,1.8,2.9c0.3,0.5,0.5,0.9,0.7,1.3
		c0.1,0.2,0.2,0.4,0.3,0.6c0.1,0.2,0.2,0.4,0.3,0.6c0.6,1.4,1,2.3,1,2.3s-0.5-0.8-1.4-2.2c-0.9-1.3-2.3-3.1-4-5
		c-3.3-3.7-8-7.6-11.3-10.3c-3.3-2.7-7.6-6.6-10.7-10.2c-0.4-0.5-0.7-0.9-1.1-1.3c-0.2-0.2-0.3-0.4-0.5-0.6
		c-0.2-0.2-0.3-0.4-0.5-0.6c-0.3-0.4-0.6-0.8-0.8-1.2c-0.1-0.2-0.3-0.4-0.4-0.5c-0.1-0.2-0.2-0.3-0.3-0.5
		C201.9,419.2,201.4,418.4,201.4,418.4z"/>
</g>
<g>
	<path class="st60" d="M596,385.9c0,0,0.3,0.6,0.9,1.7c0.3,0.5,0.6,1.2,1,1.9c0.2,0.4,0.4,0.7,0.6,1.1c0.2,0.4,0.4,0.8,0.7,1.2
		c0.9,1.7,2,3.6,3,5.5c1.1,1.9,2.1,3.8,3.1,5.6c0.9,1.8,1.9,3.8,3,5.8c0.3,0.5,0.5,1,0.8,1.5c0.3,0.5,0.5,1,0.8,1.5
		c0.5,1,1.1,1.9,1.6,2.8c0.3,0.4,0.5,0.9,0.8,1.3c0.3,0.4,0.5,0.8,0.7,1.2c0.5,0.7,0.9,1.4,1.3,1.9c0.8,1.1,1.2,1.7,1.2,1.7
		s-0.6-0.6-1.6-1.6c-0.5-0.5-1.1-1.1-1.7-1.8c-0.3-0.3-0.6-0.7-1-1.1c-0.3-0.4-0.7-0.8-1-1.2c-0.3-0.4-0.7-0.8-1-1.3
		c-0.3-0.4-0.7-0.9-1-1.4c-0.2-0.2-0.3-0.5-0.5-0.7l-0.5-0.7c-0.3-0.5-0.7-1-1-1.4c-1.3-1.9-2.5-3.8-3.3-5.4
		c-0.2-0.4-0.5-0.8-0.7-1.2c-0.2-0.4-0.4-0.9-0.7-1.3c-0.5-0.9-0.9-1.9-1.3-2.9c-0.4-1-0.8-2-1.2-3c-0.4-1-0.7-2-1-3
		c-0.6-1.9-1.1-3.6-1.4-4.8C596.2,386.6,596,385.9,596,385.9z"/>
</g>
<g>
	<path class="st60" d="M626.4,412.1c0,0,0.7,0.3,1.8,0.8c1.1,0.5,2.6,1.2,4.4,2.2c3.4,1.9,7.5,4.9,10.3,8.1
		c2.8,3.1,5.6,7.8,7.1,11.8c0.8,2,1.3,3.8,1.6,5.1c0.3,1.3,0.4,2.1,0.4,2.1s-0.3-0.8-0.9-2.1c-0.1-0.3-0.3-0.7-0.5-1
		c-0.2-0.4-0.4-0.8-0.6-1.2c-0.2-0.4-0.4-0.8-0.7-1.3c-0.2-0.4-0.5-0.9-0.8-1.4c-0.3-0.4-0.6-0.9-0.9-1.4c-0.1-0.2-0.3-0.5-0.4-0.7
		c-0.2-0.2-0.3-0.5-0.5-0.7c-0.3-0.5-0.7-0.9-1-1.4c-0.3-0.5-0.7-0.9-1-1.3c-0.2-0.2-0.3-0.4-0.5-0.7c-0.2-0.2-0.4-0.4-0.5-0.6
		c-0.4-0.4-0.7-0.8-1-1.2c-0.4-0.4-0.7-0.8-1-1.1c-0.3-0.4-0.6-0.7-1-1c-1.2-1.3-2.7-2.8-4.2-4.3c-1.5-1.5-3.2-3-4.6-4.3
		c-0.4-0.3-0.7-0.6-1.1-0.9c-0.4-0.3-0.7-0.6-1-0.8c-0.7-0.5-1.3-1-1.8-1.4C627,412.5,626.4,412.1,626.4,412.1z"/>
</g>
<g>
	<path class="st60" d="M736.2,411.9c0,0,0.4,0.4,1.2,1.1c0.7,0.7,1.7,1.8,2.7,3.1c2,2.7,4,6.6,4.8,10c0.2,0.9,0.4,1.8,0.5,2.8
		c0.1,0.5,0.1,1,0.2,1.5c0,0.5,0.1,1,0.1,1.5c0,0.5,0,1,0,1.5c0,0.5,0,1,0,1.5c0,1-0.1,1.9-0.1,2.8c0,0.4-0.1,0.9-0.1,1.3
		c0,0.4-0.1,0.8-0.1,1.2c-0.1,0.8-0.2,1.4-0.3,2c-0.2,1.1-0.3,1.8-0.3,1.8s0-0.7-0.1-1.9c-0.1-1.2-0.2-2.8-0.4-4.6
		c-0.4-3.6-1.2-7.8-2.1-10.7c-0.8-2.9-1.9-6.7-3.2-9.7c-0.2-0.4-0.3-0.7-0.5-1.1c-0.2-0.4-0.3-0.7-0.5-1c-0.3-0.6-0.6-1.2-0.9-1.7
		C736.5,412.5,736.2,411.9,736.2,411.9z"/>
</g>
<g>
	<path class="st60" d="M807.3,439.7c0,0,2,3.7,2,6.3c0,2.6-2,6.7-2,6.7s-0.6-4.4-0.8-6.7C806.2,443.7,807.3,439.7,807.3,439.7z"/>
</g>
<g>
	<path class="st60" d="M988.8,406.8c0,0-0.2,0.1-0.4,0.2c-0.3,0.2-0.7,0.4-1.2,0.7c-1,0.6-2.3,1.5-3.7,2.7c-1.4,1.2-2.8,2.6-4,4.2
		c-0.6,0.8-1.2,1.6-1.7,2.4c-0.5,0.8-1,1.6-1.5,2.4c-0.5,0.8-0.9,1.6-1.4,2.5c-0.4,0.9-0.9,1.9-1.3,2.8c-0.8,2-1.4,4-1.8,6
		c-0.4,1.9-0.5,3.7-0.6,4.9c0,0.3,0,0.6,0,0.8c0,0.2,0,0.5,0,0.6c0,0.4,0,0.5,0,0.5s0-0.2-0.1-0.6c0-0.2-0.1-0.4-0.1-0.7
		c0-0.3-0.1-0.6-0.1-0.9c-0.2-1.3-0.3-3.2-0.3-5.3c0.1-2.1,0.4-4.4,1-6.6c0.6-2.2,1.4-4.2,2.3-5.8c0.4-0.8,0.9-1.6,1.5-2.4
		c0.6-0.8,1.3-1.6,2.1-2.4c0.8-0.8,1.6-1.5,2.4-2.1c0.4-0.3,0.8-0.6,1.3-0.9c0.2-0.1,0.4-0.3,0.6-0.4c0.2-0.1,0.4-0.2,0.6-0.4
		c1.7-1,3.3-1.6,4.5-2c0.6-0.2,1.1-0.3,1.4-0.4C988.6,406.8,988.8,406.8,988.8,406.8z"/>
</g>
<g>
	<path class="st60" d="M1031.6,400.6c0,0,0,0.3-0.1,0.9c0,0.3,0,0.6,0,1c0,0.4,0,0.8,0,1.2c0,1.7,0.2,3.8,0.1,5.5
		c-0.1,1.7-0.7,3.9-1.2,5.7c-0.5,1.8-1,3.2-1,3.2s-0.1-1.5-0.3-3.4c-0.2-1.9-0.3-4.2-0.3-5.8c0-0.8,0.1-1.8,0.3-2.7
		c0.2-1,0.5-1.9,0.9-2.8c0.2-0.4,0.4-0.8,0.5-1.2c0.2-0.3,0.4-0.7,0.5-0.9C1031.4,400.9,1031.6,400.6,1031.6,400.6z"/>
</g>
<g>
	<path class="st60" d="M1181,422.9c0,0,0.1,0,0.2-0.1c0.1-0.1,0.3-0.2,0.5-0.4c0.5-0.3,1.2-0.7,2.1-0.8c0.9-0.2,2.1-0.2,3.2,0.2
		c1.1,0.4,2.1,1.1,2.8,1.9c0.7,0.8,1.2,1.8,1.5,3c0.3,1.1,0.4,2.2,0.4,3.2c0,1-0.2,1.8-0.3,2.4c-0.1,0.3-0.1,0.5-0.2,0.7
		c-0.1,0.2-0.1,0.2-0.1,0.2s0-0.1,0-0.3c0-0.2,0-0.4-0.1-0.7c-0.1-0.6-0.3-1.4-0.6-2.2c-0.3-0.9-0.7-1.8-1.2-2.6
		c-0.5-0.8-1.1-1.5-1.6-1.9c-0.5-0.5-1.1-1-1.7-1.5c-0.3-0.2-0.7-0.4-1-0.6c-0.4-0.2-0.7-0.3-1.1-0.4c-0.7-0.2-1.4-0.2-2-0.2
		c-0.3,0-0.5,0-0.6,0C1181.1,422.9,1181,422.9,1181,422.9z"/>
</g>
<g>
	<path class="st60" d="M1234.2,407.3c0,0,0.5,0.9,1,2.2c0.5,1.3,0.9,3,0.7,4.4c-0.2,1.4-1,3.1-2,4.3c-0.5,0.6-0.9,1-1.3,1.4
		c-0.3,0.3-0.6,0.5-0.6,0.5s0.1-0.3,0.2-0.7c0.1-0.4,0.3-1,0.4-1.7c0.3-1.3,0.4-3,0.4-4.1c0-1.1,0.3-2.6,0.6-3.9
		C1234,408.3,1234.2,407.3,1234.2,407.3z"/>
</g>
<g>
	<path class="st60" d="M78.5,431.3c0,0,0.4,0.5,0.9,1.5c0.3,0.5,0.7,1,1.1,1.6c0.4,0.6,0.9,1.3,1.4,2c0.1,0.2,0.3,0.4,0.4,0.5
		c0.1,0.2,0.3,0.4,0.4,0.5c0.3,0.4,0.5,0.7,0.8,1.1c0.6,0.7,1.2,1.5,1.8,2.3c0.6,0.8,1.2,1.5,1.8,2.3c0.3,0.4,0.6,0.7,0.9,1.1
		c0.3,0.4,0.6,0.7,0.8,1.1c0.5,0.7,1.1,1.5,1.7,2.3c0.6,0.8,1.2,1.6,1.8,2.4c0.3,0.4,0.6,0.8,0.9,1.2c0.3,0.4,0.6,0.8,0.9,1.2
		c0.6,0.8,1.2,1.6,1.8,2.3c0.6,0.7,1.2,1.4,1.7,2c0.5,0.6,1,1.1,1.4,1.6c0.8,0.9,1.3,1.4,1.3,1.4s-0.6-0.4-1.6-1.2
		c-0.5-0.4-1.1-0.8-1.7-1.3c-0.3-0.3-0.7-0.5-1-0.8c-0.3-0.3-0.7-0.6-1.1-0.9c-0.4-0.3-0.7-0.6-1.1-1c-0.4-0.3-0.7-0.7-1.1-1
		c-0.8-0.7-1.5-1.5-2.2-2.2c-1.4-1.5-2.8-3-3.8-4.2c-2.1-2.5-4.4-6.3-5.8-9.6c-0.7-1.6-1.3-3.1-1.7-4.2
		C78.7,431.9,78.5,431.3,78.5,431.3z"/>
</g>
<g>
	<path class="st60" d="M1311.9,383.7c0,0,0.3,0.8,0.9,2.1c0.6,1.3,1.4,3.2,2.2,5.4c1.7,4.3,3.7,9.9,4.7,14.8
		c1,4.8,1.5,11.1,1.4,16.2c0,1.3,0,2.5-0.1,3.5c-0.1,1.1-0.1,2-0.2,2.8c-0.2,1.6-0.3,2.5-0.3,2.5s-0.1-1-0.1-2.7
		c-0.1-1.7-0.3-3.9-0.6-6.5c-0.6-5.1-1.8-11.2-2.8-15.3c-1-4.2-2.2-9.9-3.3-14.5c-0.5-2.3-1-4.4-1.3-5.9
		C1312.1,384.6,1311.9,383.7,1311.9,383.7z"/>
</g>
<g>
	<path class="st60" d="M1355,428.9c0,0,2,4.3,2,7.3s-2,7.8-2,7.8s-0.6-5.1-0.8-7.8C1353.9,433.5,1355,428.9,1355,428.9z"/>
</g>
<g>
	<path class="st60" d="M1489.1,397c0,0,0.2,0,0.6,0.1c0.2,0,0.5,0.1,0.8,0.1c0.1,0,0.3,0,0.5,0.1c0.2,0,0.3,0.1,0.5,0.1
		c1.5,0.2,3.6,0.8,5.9,1.8c1.1,0.6,2.3,1.2,3.4,2c0.6,0.4,1.1,0.9,1.7,1.3c0.3,0.2,0.5,0.5,0.8,0.7l0.4,0.4c0.1,0.1,0.2,0.3,0.4,0.4
		l0.7,0.8l0.7,0.9c0.2,0.3,0.4,0.6,0.7,0.9c0.2,0.3,0.4,0.6,0.6,0.9c0.4,0.6,0.8,1.2,1.1,1.8c0.2,0.3,0.3,0.6,0.5,0.9
		c0.1,0.3,0.3,0.6,0.4,0.9c1.1,2.4,1.9,5.4,2.4,8.3c0.5,3,0.8,6,1,8.6c0.2,2.7,0.2,5,0.2,6.7c0,1.7,0,2.7,0,2.7s-0.2-1.1-0.4-2.8
		c-0.3-1.7-0.7-4.1-1.2-6.8c-0.5-2.7-1.1-5.6-1.9-8.3c-0.8-2.7-1.7-5.3-2.7-7.3c-0.2-0.5-0.5-1-0.8-1.5c-0.1-0.3-0.3-0.5-0.4-0.8
		c-0.1-0.3-0.3-0.5-0.5-0.8c-0.1-0.1-0.2-0.3-0.2-0.4c-0.1-0.1-0.2-0.3-0.2-0.4c-0.2-0.3-0.3-0.5-0.5-0.8c-0.2-0.3-0.4-0.5-0.5-0.8
		l-0.3-0.4l-0.3-0.4c-0.8-1.1-1.7-2-2.6-2.9c-0.5-0.4-0.9-0.9-1.4-1.3c-0.2-0.2-0.5-0.4-0.7-0.6c-0.3-0.2-0.5-0.4-0.7-0.5
		c-2-1.4-4-2.3-5.4-2.9c-0.7-0.3-1.3-0.5-1.8-0.6C1489.3,397.1,1489.1,397,1489.1,397z"/>
</g>
<g>
	<path class="st60" d="M1597.3,431.5c0,0,0.2-0.1,0.6-0.4c0.4-0.2,0.9-0.6,1.6-1c1.4-0.8,3.3-1.9,5.8-2.8c2.4-0.9,5.3-1.8,8.3-2.1
		c0.8-0.1,1.5-0.2,2.3-0.2c0.8,0,1.5,0,2.3,0c0.4,0,0.8,0.1,1.1,0.1c0.4,0,0.7,0.1,1.1,0.1c0.4,0.1,0.7,0.1,1.1,0.2
		c0.4,0.1,0.7,0.2,1.1,0.2c0.2,0,0.3,0.1,0.5,0.1c0.2,0,0.3,0.1,0.5,0.2c0.3,0.1,0.7,0.2,1.1,0.3c0.4,0.1,0.7,0.3,1.1,0.4
		c0.4,0.1,0.7,0.3,1.1,0.5c0.2,0.1,0.4,0.2,0.5,0.3l0.3,0.1l0.3,0.2c0.3,0.2,0.7,0.4,1,0.6c0.3,0.2,0.7,0.5,1,0.7
		c0.2,0.1,0.3,0.2,0.5,0.4l0.5,0.4l0.5,0.4c0.2,0.1,0.3,0.3,0.5,0.4c0.3,0.3,0.6,0.6,0.9,0.8c0.3,0.3,0.5,0.6,0.8,0.9l0.4,0.4
		c0.1,0.2,0.2,0.3,0.4,0.5c0.2,0.3,0.5,0.6,0.7,0.9c0.2,0.3,0.4,0.6,0.6,0.9c0.1,0.2,0.2,0.3,0.3,0.5c0.1,0.2,0.2,0.3,0.3,0.5
		c0.2,0.3,0.4,0.6,0.5,0.9c1.3,2.5,2.1,4.8,2.5,6.5c0.2,0.8,0.4,1.5,0.5,2c0.1,0.5,0.1,0.7,0.1,0.7s-0.1-0.3-0.3-0.7
		c-0.2-0.5-0.4-1.2-0.8-2c-0.7-1.7-1.8-3.9-3.4-6.2c-0.2-0.3-0.4-0.6-0.6-0.8c-0.2-0.3-0.5-0.5-0.7-0.8c-0.1-0.1-0.2-0.3-0.3-0.4
		c-0.1-0.1-0.2-0.3-0.4-0.4c-0.3-0.3-0.5-0.5-0.8-0.8c-1.1-1-2.2-1.9-3.4-2.7c-0.3-0.2-0.6-0.4-0.9-0.6c-0.2-0.1-0.3-0.2-0.5-0.3
		c-0.2-0.1-0.3-0.2-0.5-0.2c-0.3-0.2-0.6-0.3-0.9-0.5c-0.3-0.1-0.6-0.3-0.9-0.4c-0.3-0.1-0.6-0.2-0.9-0.3c-0.3-0.1-0.6-0.2-0.9-0.3
		c-0.6-0.2-1.2-0.3-1.7-0.4c-0.3-0.1-0.6-0.1-0.8-0.2c-0.3,0-0.6-0.1-0.9-0.1c-0.6-0.1-1.2-0.2-1.9-0.3c-1.3-0.1-2.6-0.2-4-0.2
		c-2.8,0-5.6,0.4-8.1,1c-2.5,0.6-4.7,1.3-6.3,1.8c-0.8,0.3-1.4,0.5-1.8,0.7C1597.5,431.4,1597.3,431.5,1597.3,431.5z"/>
</g>
<g>
	<path class="st60" d="M1672.5,446.7c0,0,0.3-0.1,0.8-0.3c0.3-0.1,0.6-0.2,1-0.3c0.2,0,0.4-0.1,0.6-0.2c0.2,0,0.4-0.1,0.6-0.1
		c0.9-0.1,1.9-0.3,2.9-0.3c0.5,0,1,0,1.5,0.1c0.5,0.1,1,0.2,1.4,0.3c0.9,0.2,1.9,0.7,2.9,1.1c0.5,0.2,0.9,0.5,1.4,0.8
		c0.2,0.1,0.4,0.3,0.7,0.4c0.2,0.1,0.4,0.3,0.6,0.4c0.4,0.3,0.7,0.6,1.1,0.8c0.3,0.3,0.6,0.5,0.8,0.7c0.4,0.4,0.7,0.7,0.7,0.7
		s-0.4-0.1-0.9-0.3c-0.3-0.1-0.6-0.2-1-0.4c-0.4-0.1-0.8-0.2-1.3-0.4c-0.4-0.1-0.9-0.3-1.4-0.4c-0.2-0.1-0.5-0.1-0.7-0.2
		c-0.2-0.1-0.5-0.1-0.7-0.2c-1-0.2-1.9-0.4-2.7-0.5c-0.4-0.1-0.8-0.1-1.2-0.3c-0.4-0.1-0.9-0.2-1.3-0.3c-0.2-0.1-0.5-0.1-0.7-0.2
		c-0.2-0.1-0.5-0.1-0.7-0.2c-0.5-0.1-0.9-0.2-1.3-0.3c-0.2-0.1-0.4-0.1-0.6-0.2c-0.2-0.1-0.4-0.1-0.6-0.1c-0.4-0.1-0.7-0.1-1-0.2
		C1672.8,446.8,1672.5,446.7,1672.5,446.7z"/>
</g>
<g>
	<path class="st61" d="M79.1,520.1c0,0,0.4-0.2,1.1-0.6c0.3-0.2,0.8-0.4,1.2-0.6c0.2-0.1,0.5-0.2,0.8-0.3c0.3-0.1,0.6-0.2,0.8-0.3
		c1.2-0.4,2.5-0.8,4-1.1c0.4-0.1,0.7-0.1,1.1-0.1c0.2,0,0.4,0,0.5-0.1c0.2,0,0.4,0,0.5,0c0.4,0,0.7,0,1.1,0c0.4,0,0.7,0,1,0.1
		c0.2,0,0.3,0,0.5,0.1c0.2,0,0.3,0.1,0.5,0.1c0.4,0.1,0.7,0.2,1.1,0.2c0.4,0.1,0.7,0.2,1.1,0.4c0.2,0.1,0.4,0.1,0.5,0.2
		c0.2,0.1,0.4,0.2,0.5,0.2c0.4,0.2,0.7,0.3,1,0.5c0.3,0.2,0.7,0.4,1,0.6c0.1,0.1,0.2,0.1,0.2,0.1l0.2,0.2c0.1,0.1,0.3,0.2,0.4,0.3
		c0.3,0.2,0.6,0.4,0.8,0.7c0.5,0.5,1,0.9,1.3,1.3c0.2,0.2,0.4,0.4,0.5,0.6c0.1,0.1,0.2,0.2,0.2,0.3c0.1,0.1,0.1,0.2,0.2,0.3
		c0.5,0.7,0.7,1.1,0.7,1.1s-0.4-0.3-1.1-0.9c-0.2-0.1-0.4-0.3-0.6-0.4c-0.2-0.1-0.4-0.3-0.7-0.4c-0.1-0.1-0.2-0.2-0.4-0.2
		c-0.1-0.1-0.3-0.1-0.4-0.2c-0.3-0.1-0.5-0.3-0.8-0.5c-0.3-0.1-0.6-0.3-0.9-0.4c-0.2-0.1-0.3-0.1-0.5-0.2c-0.2-0.1-0.3-0.1-0.5-0.2
		c-0.3-0.1-0.6-0.2-1-0.3c-0.3-0.1-0.7-0.2-1-0.3c-0.3-0.1-0.7-0.1-1-0.2c-0.3-0.1-0.6-0.1-1-0.2c-0.6-0.1-1.2-0.1-1.7-0.1
		c-0.3,0-0.5,0-0.8,0c-0.3,0-0.6,0-0.9,0c-0.6,0-1.2,0-1.9-0.1c-0.3,0-0.7,0-1,0c-0.3,0-0.7,0-1,0c-0.3,0-0.7,0-1,0
		c-0.2,0-0.3,0-0.5,0c-0.2,0-0.3,0-0.5,0c-0.6,0-1.2,0.1-1.7,0.1c-0.5,0-1,0.1-1.4,0.1C79.6,520.1,79.1,520.1,79.1,520.1z"/>
</g>
<g>
	<path class="st61" d="M176.4,533c0,0,0.5-0.5,1.4-1.4c0.4-0.5,1-0.9,1.6-1.5c0.2-0.1,0.3-0.3,0.5-0.4c0.2-0.1,0.3-0.3,0.5-0.4
		c0.4-0.3,0.8-0.6,1.2-0.9c0.2-0.1,0.4-0.3,0.6-0.4c0.2-0.2,0.4-0.3,0.7-0.4c0.5-0.3,0.9-0.6,1.4-0.9c0.2-0.2,0.5-0.3,0.7-0.4
		c0.3-0.1,0.5-0.3,0.8-0.4c0.3-0.1,0.5-0.3,0.8-0.4l0.4-0.2l0.4-0.2c0.5-0.2,1.1-0.4,1.6-0.7l0.4-0.2l0.4-0.1
		c0.3-0.1,0.5-0.2,0.8-0.3c0.3-0.1,0.5-0.2,0.8-0.2c0.3-0.1,0.5-0.2,0.8-0.2c0.5-0.1,1.1-0.2,1.6-0.3c0.3,0,0.5-0.1,0.8-0.1
		c0.3,0,0.6-0.1,0.8-0.1c0.6-0.1,1.1-0.1,1.7-0.2c0.6,0,1.2,0,1.8,0c0.3,0,0.6,0,0.9,0c0.3,0,0.6,0,0.9,0.1c2.4,0.1,4.8,0.6,6.9,1.1
		c0.5,0.2,1,0.3,1.5,0.4c0.2,0.1,0.5,0.1,0.7,0.2c0.2,0.1,0.4,0.2,0.7,0.2c0.4,0.2,0.8,0.3,1.2,0.5c0.4,0.1,0.7,0.3,1,0.4
		c1.2,0.6,1.9,0.9,1.9,0.9s-0.8-0.2-2.2-0.6c-0.3-0.1-0.7-0.1-1.1-0.2c-0.4-0.1-0.8-0.2-1.3-0.2c-0.1,0-0.2,0-0.3-0.1
		c-0.1,0-0.2,0-0.4,0c-0.2,0-0.5-0.1-0.7-0.1c-0.5-0.1-1-0.1-1.5-0.2c-0.5,0-1.1-0.1-1.6-0.1c-0.3,0-0.6,0-0.8,0c-0.3,0-0.6,0-0.9,0
		c-0.6,0-1.1,0-1.7,0c-0.6,0-1.1,0.1-1.7,0.1c-0.6,0-1.1,0.1-1.7,0.1c-0.5,0.1-1.1,0.1-1.6,0.2c-0.5,0.1-1,0.2-1.5,0.3
		c-0.2,0-0.5,0.1-0.7,0.1c-0.2,0-0.4,0.1-0.7,0.2c-0.9,0.2-1.8,0.4-2.8,0.6c-0.5,0.1-1,0.2-1.5,0.4c-0.5,0.1-1,0.3-1.5,0.4
		c-0.3,0.1-0.5,0.1-0.8,0.2l-0.8,0.3c-0.5,0.2-1,0.3-1.5,0.5c-0.5,0.2-1,0.4-1.5,0.6c-0.5,0.2-1,0.4-1.4,0.6
		c-0.4,0.2-0.9,0.4-1.3,0.6c-0.2,0.1-0.4,0.2-0.6,0.3c-0.2,0.1-0.4,0.2-0.6,0.3c-0.4,0.2-0.7,0.4-1.1,0.6c-0.2,0.1-0.3,0.2-0.5,0.3
		c-0.1,0.1-0.3,0.2-0.4,0.3C177,532.5,176.4,533,176.4,533z"/>
</g>
<g>
	<path class="st62" d="M294.9,524.4c0,0,0.4-0.3,1.2-0.9c0.8-0.5,1.9-1.2,3.2-1.9c2.7-1.4,6.5-2.5,9.7-2.6c3.2-0.2,7.3,0.5,10.4,1.4
		c1.6,0.4,2.9,0.9,3.9,1.3c1,0.4,1.5,0.6,1.5,0.6s-0.6-0.1-1.7-0.2c-1-0.1-2.5-0.3-4.1-0.4c-1.6-0.1-3.4-0.2-5.1-0.1
		c-1.7,0-3.4,0.1-4.7,0.3c-0.7,0.1-1.4,0.1-2.1,0.2c-0.8,0.1-1.5,0.1-2.3,0.2c-1.6,0.2-3.2,0.5-4.7,0.7c-0.4,0.1-0.7,0.2-1,0.2
		c-0.3,0.1-0.7,0.1-1,0.2c-0.6,0.2-1.2,0.3-1.6,0.5C295.4,524.2,294.9,524.4,294.9,524.4z"/>
</g>
<g>
	<path class="st62" d="M322.6,509.3c0,0,0.3-0.1,0.9-0.3c0.6-0.2,1.4-0.4,2.3-0.7c1.9-0.5,4.3-0.9,6.3-0.7c2,0.2,4.6,1,6.4,2
		c1,0.4,1.7,1,2.3,1.3c0.6,0.4,0.9,0.6,0.9,0.6s-0.4-0.1-1.1-0.2c-0.3-0.1-0.7-0.1-1.1-0.2c-0.2-0.1-0.4-0.1-0.7-0.1
		c-0.2,0-0.5-0.1-0.7-0.1c-0.3,0-0.5-0.1-0.8-0.1c-0.3,0-0.5-0.1-0.8-0.1c-0.5,0-1.1-0.1-1.6-0.1c-0.1,0-0.3,0-0.4,0
		c-0.1,0-0.3,0-0.4,0c-0.3,0-0.5,0-0.8,0c-0.5,0-1,0-1.4,0c-1.7,0-4-0.3-6-0.6c-1-0.1-1.8-0.3-2.4-0.4
		C323,509.4,322.6,509.3,322.6,509.3z"/>
</g>
<g>
	<path class="st62" d="M398.1,513.6c0,0,0.5-0.1,1.4-0.3c0.9-0.2,2.2-0.4,3.6-0.7c2.9-0.5,6.5-1.1,9.6-1.2c3-0.2,6.9,0,10.1,0
		c1.6,0,3,0,4,0c1,0,1.6,0,1.6,0s-0.6,0.1-1.6,0.4c-0.5,0.1-1.1,0.3-1.8,0.4c-0.3,0.1-0.7,0.2-1.1,0.2c-0.4,0.1-0.8,0.2-1.2,0.2
		c-0.4,0.1-0.8,0.2-1.2,0.2c-0.4,0.1-0.8,0.2-1.3,0.2c-0.9,0.1-1.7,0.3-2.6,0.4c-0.2,0-0.4,0.1-0.6,0.1c-0.2,0-0.4,0.1-0.6,0.1
		c-0.4,0.1-0.8,0.1-1.2,0.2c-0.8,0.1-1.6,0.2-2.2,0.3c-2.7,0.3-6.4,0.2-9.4-0.1c-1.5-0.1-2.8-0.2-3.8-0.3
		C398.7,513.7,398.1,513.6,398.1,513.6z"/>
</g>
<g>
	<path class="st62" d="M477.9,507.2c0,0,3.7-2,6.3-2s6.7,2,6.7,2s-4.4,0.6-6.7,0.8C481.9,508.3,477.9,507.2,477.9,507.2z"/>
</g>
<g>
	<path class="st62" d="M484.4,526.6c0,0,0.4-0.1,0.9-0.3c0.6-0.2,1.4-0.5,2.3-0.8c0.5-0.2,0.9-0.3,1.4-0.5c0.5-0.2,1-0.4,1.5-0.5
		c1-0.3,2.1-0.6,3-0.8c1.9-0.3,4.5-0.3,6.6,0c0.3,0,0.5,0.1,0.8,0.1c0.2,0,0.5,0.1,0.7,0.1c0.4,0.1,0.8,0.2,1.1,0.3
		c0.6,0.2,1,0.3,1,0.3s-0.4,0.1-1.1,0.1c-0.3,0-0.7,0.1-1.2,0.1c-0.4,0.1-0.9,0.2-1.4,0.3c-2,0.4-4.4,1-6.1,1.4
		c-0.4,0.1-0.9,0.2-1.4,0.3c-0.2,0-0.5,0.1-0.8,0.1c-0.3,0-0.5,0.1-0.8,0.1c-0.5,0-1.1,0.1-1.6,0.1c-0.5,0-1.1,0-1.6,0
		c-1,0-1.9-0.1-2.5-0.2C484.8,526.6,484.4,526.6,484.4,526.6z"/>
</g>
<g>
	<path class="st62" d="M732.6,502.8c0,0,0.3-0.3,0.8-0.8c0.5-0.5,1.2-1.3,2.1-2c0.4-0.4,0.9-0.8,1.4-1.2c0.5-0.4,1.1-0.7,1.6-1.1
		c0.3-0.2,0.6-0.4,0.8-0.5c0.3-0.2,0.6-0.3,0.9-0.5c0.6-0.3,1.1-0.6,1.7-0.8c2.3-0.8,5.3-1.3,7.8-1.5c1.2-0.1,2.3-0.1,3.1-0.1
		c0.8,0,1.3,0,1.3,0s-0.5,0.2-1.2,0.4c-0.8,0.3-1.8,0.6-3,1c-2.3,0.8-5.1,2-6.9,2.8c-1.8,0.9-4.4,1.8-6.5,2.7
		c-0.3,0.1-0.5,0.2-0.8,0.3c-0.1,0-0.2,0.1-0.4,0.1c-0.1,0.1-0.2,0.1-0.3,0.2c-0.4,0.2-0.8,0.4-1.2,0.5
		C733.1,502.6,732.6,502.8,732.6,502.8z"/>
</g>
<g>
	<path class="st62" d="M823.1,511.4c0,0,0.7-0.4,2-1.1c0.6-0.4,1.4-0.7,2.3-1.1c0.2-0.1,0.5-0.2,0.7-0.3c0.1-0.1,0.2-0.1,0.4-0.2
		c0.1,0,0.2-0.1,0.4-0.1c0.5-0.2,1-0.4,1.6-0.6c0.3-0.1,0.6-0.2,0.8-0.3c0.3-0.1,0.6-0.2,0.9-0.3c0.6-0.2,1.2-0.4,1.8-0.5
		c0.6-0.2,1.3-0.3,1.9-0.4c0.3-0.1,0.7-0.1,1-0.2c0.3-0.1,0.7-0.1,1-0.2c0.7-0.1,1.3-0.2,2-0.3c0.7-0.1,1.3-0.1,2-0.2
		c0.3,0,0.7-0.1,1-0.1c0.3,0,0.7,0,1,0c0.6,0,1.3,0,1.9,0c0.6,0,1.3,0.1,1.9,0.1c0.3,0,0.7,0.1,1,0.1c0.3,0,0.7,0.1,1,0.1
		c0.7,0.1,1.4,0.2,2.1,0.3c0.7,0.1,1.4,0.3,2.1,0.4l1,0.2c0.3,0.1,0.7,0.2,1,0.2c0.7,0.2,1.4,0.3,2,0.5c0.7,0.2,1.3,0.4,2,0.5
		c0.3,0.1,0.6,0.2,0.9,0.3c0.3,0.1,0.6,0.2,0.9,0.3c1.2,0.4,2.3,0.7,3.3,1.1c1,0.4,1.9,0.7,2.6,0.9c1.5,0.6,2.4,0.9,2.4,0.9
		s-1-0.2-2.6-0.5c-1.6-0.3-3.9-0.8-6.4-1.2c-0.6-0.1-1.3-0.2-1.9-0.3c-0.7-0.1-1.3-0.2-2-0.3c-1.4-0.2-2.7-0.4-4.1-0.5
		c-0.7-0.1-1.3-0.1-2-0.2c-0.7,0-1.3-0.1-1.9-0.1c-0.6,0-1.2,0-1.8-0.1c-0.6,0-1.1,0-1.7,0c-2.1,0-4.6,0-7.1,0.2
		c-1.3,0-2.5,0.2-3.8,0.3c-0.3,0-0.6,0.1-0.9,0.1c-0.3,0-0.6,0.1-0.9,0.1c-0.3,0-0.6,0.1-0.9,0.1c-0.1,0-0.3,0-0.4,0.1
		c-0.1,0-0.3,0.1-0.4,0.1c-2.3,0.4-4.3,1-5.8,1.4C824,511.2,823.1,511.4,823.1,511.4z"/>
</g>
<g>
	<path class="st62" d="M924,502.8c0,0,0.3,0,0.8,0c0.3,0,0.5,0,0.9,0c0.2,0,0.3,0,0.5,0c0.2,0,0.4,0,0.6,0c0.2,0,0.4,0,0.6,0
		c0.1,0,0.2,0,0.3,0c0.1,0,0.2,0,0.3,0c0.4,0,0.9,0,1.3,0c0.4,0,0.9,0,1.3,0.1c0.4,0,0.8,0.1,1.2,0.2c1.5,0.3,3.5,1.3,4.9,2.2
		c0.4,0.2,0.7,0.5,1,0.7c0.3,0.2,0.6,0.4,0.8,0.6c0.4,0.3,0.7,0.5,0.7,0.5s-0.3-0.1-0.9-0.2c-0.3-0.1-0.6-0.1-0.9-0.2
		c-0.2,0-0.4-0.1-0.5-0.1c-0.2,0-0.4-0.1-0.6-0.1c-1.6-0.3-3.6-0.5-5-0.7c-0.7-0.1-1.5-0.3-2.3-0.6c-0.8-0.3-1.7-0.6-2.4-1
		c-0.4-0.2-0.7-0.4-1-0.6c-0.3-0.2-0.6-0.4-0.8-0.5C924.3,503,924,502.8,924,502.8z"/>
</g>
<g>
	<path class="st62" d="M1006.2,509.3c0,0,0.2-0.1,0.6-0.3c0.4-0.2,0.9-0.5,1.5-0.8c1.2-0.6,2.5-1.5,3.8-1.8c1.3-0.3,3.1-0.3,4.6,0
		c0.7,0.1,1.3,0.3,1.8,0.5c0.4,0.2,0.7,0.3,0.7,0.3s-0.3,0-0.7,0.1c-0.2,0-0.5,0.1-0.8,0.2c-0.3,0.1-0.6,0.2-0.9,0.2
		c-1.3,0.4-2.9,1-4,1.4c-1.1,0.4-2.8,0.6-4.2,0.6c-0.7,0-1.3-0.1-1.8-0.2C1006.5,509.4,1006.2,509.3,1006.2,509.3z"/>
</g>
<g>
	<path class="st62" d="M1043.1,485.5c0,0,0.5-0.4,1.3-1.1c0.4-0.4,0.9-0.7,1.5-1.1c0.3-0.2,0.6-0.4,0.9-0.7c0.3-0.2,0.7-0.4,1.1-0.7
		c0.7-0.5,1.6-0.9,2.4-1.3c0.2-0.1,0.4-0.2,0.7-0.3c0.2-0.1,0.5-0.2,0.7-0.3c0.5-0.2,0.9-0.4,1.4-0.5c0.5-0.2,1-0.3,1.4-0.5
		c0.5-0.1,1-0.2,1.5-0.4c1-0.2,1.9-0.4,2.9-0.5c1.8-0.2,4-0.2,6,0.1l0.8,0.1c0.3,0,0.5,0.1,0.8,0.1c0.5,0.1,1,0.2,1.5,0.2
		c0.5,0.1,1,0.2,1.5,0.3c0.5,0.1,1,0.2,1.4,0.3c0.9,0.2,1.8,0.4,2.5,0.7c0.8,0.2,1.4,0.4,2,0.6c1.1,0.4,1.8,0.6,1.8,0.6
		s-0.7-0.1-2-0.2c-1.2-0.1-2.9-0.3-4.8-0.4c-3.8-0.2-8.3-0.1-11.3,0.4c-0.4,0.1-0.8,0.1-1.2,0.2c-0.2,0-0.4,0.1-0.6,0.1
		c-0.2,0-0.4,0.1-0.6,0.1c-0.4,0.1-0.9,0.1-1.3,0.2c-0.4,0.1-0.9,0.2-1.3,0.3c-0.2,0-0.5,0.1-0.7,0.1c-0.2,0-0.5,0.1-0.7,0.2
		c-0.5,0.1-0.9,0.2-1.4,0.3c-0.4,0.1-0.9,0.2-1.3,0.4c-0.4,0.1-0.9,0.2-1.3,0.4c-0.8,0.3-1.6,0.5-2.3,0.8c-0.7,0.3-1.3,0.5-1.8,0.7
		C1043.8,485.2,1043.1,485.5,1043.1,485.5z"/>
</g>
<g>
	<path class="st62" d="M1086,502.8c0,0,5.5-2,9.4-2c3.9,0,10,2,10,2s-6.5,0.6-10,0.8C1091.9,504,1086,502.8,1086,502.8z"/>
</g>
<g>
	<path class="st62" d="M1176.4,522.3c0,0,0.7,0,1.8,0c0.6,0,1.2,0,2,0c0.2,0,0.4,0,0.6,0c0.2,0,0.4,0,0.6,0c0.4,0,0.8,0,1.3,0
		c3.5,0,8-0.2,11.6,0c3.7,0.1,8.4,0.7,12.2,1.2c1.9,0.3,3.6,0.5,4.8,0.7c1.2,0.2,1.9,0.3,1.9,0.3s-0.8,0-2,0.1c-1.3,0.1-3,0.1-5,0.2
		c-1,0-2,0.1-3.1,0.1c-1.1,0-2.1,0.1-3.2,0.1c-1,0-2.1,0-3,0.1c-1,0-1.9,0-2.7,0c-0.8,0-1.7,0-2.7-0.1c-0.5,0-1-0.1-1.4-0.1
		c-0.2,0-0.5,0-0.7-0.1c-0.2,0-0.5-0.1-0.7-0.1c-1-0.1-2-0.2-3-0.4c-0.2,0-0.5-0.1-0.7-0.1c-0.2,0-0.5-0.1-0.7-0.1
		c-0.5-0.1-0.9-0.2-1.4-0.3c-0.9-0.2-1.8-0.3-2.5-0.5c-0.8-0.2-1.4-0.4-2-0.5C1177.1,522.5,1176.4,522.3,1176.4,522.3z"/>
</g>
<g>
	<path class="st62" d="M1196.4,494c0,0,0.1-0.4,0.4-1c0.1-0.3,0.3-0.7,0.5-1.1c0.1-0.2,0.2-0.4,0.4-0.7c0.1-0.2,0.3-0.4,0.5-0.7
		c0.3-0.5,0.7-0.9,1.1-1.4c0.2-0.3,0.4-0.5,0.7-0.7c0.2-0.2,0.5-0.5,0.7-0.7c0.5-0.4,1-0.8,1.6-1.2c0.3-0.2,0.5-0.4,0.8-0.5
		c0.3-0.1,0.5-0.3,0.8-0.4c0.5-0.3,1.1-0.5,1.7-0.7c0.6-0.2,1.3-0.4,1.9-0.5c1.3-0.3,2.6-0.5,3.8-0.6c1.2-0.1,2.2-0.2,3-0.3
		c0.8-0.1,1.2-0.1,1.2-0.1s-1.8,0.7-4,1.6c-1.1,0.5-2.3,1-3.5,1.5c-1.1,0.5-2.2,1.1-3,1.6c-1.7,1-4,2.1-5.7,3.3
		c-0.4,0.3-0.8,0.6-1.2,0.9c-0.2,0.1-0.3,0.3-0.5,0.4c-0.1,0.1-0.2,0.1-0.2,0.2c-0.1,0.1-0.1,0.1-0.2,0.2
		C1196.7,493.7,1196.4,494,1196.4,494z"/>
</g>
<g>
	<path class="st62" d="M1280.1,513.6c0,0,1.8-2,3.1-2c1.3,0,3.3,2,3.3,2s-2.2,0.6-3.3,0.8C1282,514.8,1280.1,513.6,1280.1,513.6z"/>
</g>
<g>
	<path class="st62" d="M1279.7,526.4c0,0,0.6-0.1,1.3-0.1c0.7,0,1.5,0.1,1.7,0.2c0.1,0.1,0.1,0.2,0.2,0.5c0.1,0.2,0.3,0.5,0.6,0.7
		c0.2,0.3,0.5,0.5,0.6,0.7c0.2,0.2,0.3,0.3,0.3,0.3s-0.1,0-0.3,0.1c-0.2,0.1-0.4,0.1-0.7,0.2c-0.3,0.1-0.7,0.1-1.1,0.1
		c-0.4,0-0.9-0.2-1.2-0.3c-0.6-0.3-0.9-0.9-1.1-1.4C1279.7,526.9,1279.7,526.4,1279.7,526.4z"/>
</g>
<g>
	<path class="st62" d="M1412,507c0,0,0.2-0.4,0.6-1.1c0.2-0.3,0.5-0.7,0.8-1.2c0.2-0.2,0.3-0.4,0.5-0.7c0.2-0.2,0.4-0.5,0.5-0.7
		c0.8-1,1.7-2.1,2.7-3.1c0.5-0.5,1-1,1.6-1.4c0.3-0.2,0.6-0.4,0.8-0.6c0.3-0.2,0.6-0.4,0.8-0.6c2.2-1.5,5.5-2.5,8.2-3
		c1.3-0.2,2.5-0.3,3.4-0.4c0.8,0,1.4,0,1.4,0s-0.5,0.2-1.3,0.5c-0.4,0.1-0.9,0.3-1.4,0.5c-0.5,0.2-1.1,0.5-1.7,0.7
		c-1.2,0.6-2.5,1.2-3.7,1.9c-0.3,0.2-0.6,0.4-0.9,0.5c-0.3,0.2-0.6,0.4-0.8,0.5c-0.5,0.4-1,0.7-1.5,1c-0.2,0.2-0.5,0.3-0.7,0.5
		c-0.2,0.2-0.5,0.3-0.8,0.5c-0.5,0.4-1.1,0.7-1.6,1.1c-0.6,0.4-1.1,0.8-1.7,1.1c-0.5,0.4-1.1,0.8-1.6,1.1c-0.5,0.4-1,0.7-1.4,1
		c-0.4,0.3-0.8,0.6-1.1,0.8C1412.4,506.7,1412,507,1412,507z"/>
</g>
<g>
	<path class="st62" d="M1450.6,517.9c0,0,0.6-0.9,1.6-1.9c1-1,2.3-2.2,3.7-2.7c0.7-0.3,1.5-0.4,2.3-0.5c0.9-0.1,1.7,0,2.5,0.1
		c0.4,0.1,0.7,0.1,1.1,0.2c0.3,0.1,0.6,0.2,0.8,0.2c0.4,0.2,0.7,0.3,0.7,0.3s-0.3,0-0.7,0.1c-0.2,0-0.5,0.1-0.8,0.2
		c-0.3,0.1-0.6,0.2-0.9,0.3c-0.7,0.2-1.4,0.5-2.1,0.8c-0.7,0.3-1.3,0.6-1.8,0.9c-1,0.6-2.6,1-3.9,1.4
		C1451.7,517.7,1450.6,517.9,1450.6,517.9z"/>
</g>
<g>
	<path class="st62" d="M1521.6,487.7c0,0,0.5-0.1,1.2-0.3c0.8-0.2,1.9-0.4,3.1-0.7c2.5-0.5,5.7-0.9,8.3-0.7c2.7,0.2,6,1,8.6,1.9
		c0.3,0.1,0.6,0.2,0.9,0.3c0.1,0.1,0.3,0.1,0.4,0.2c0.1,0.1,0.3,0.1,0.4,0.2c0.5,0.2,1,0.5,1.4,0.6c0.8,0.4,1.2,0.6,1.2,0.6
		s-0.5-0.1-1.4-0.2c-0.4-0.1-1-0.1-1.5-0.2c-0.6-0.1-1.2-0.1-1.9-0.2c-0.3,0-0.7-0.1-1-0.1c-0.2,0-0.4,0-0.5-0.1c-0.2,0-0.4,0-0.5,0
		c-0.7,0-1.5-0.1-2.2-0.1c-0.4,0-0.7,0-1.1,0c-0.4,0-0.7,0-1,0c-0.7,0-1.3,0-1.9,0c-2.3,0-5.4-0.3-8-0.6c-1.3-0.1-2.4-0.3-3.2-0.4
		C1522.1,487.8,1521.6,487.7,1521.6,487.7z"/>
</g>
<g>
	<path class="st62" d="M1569.2,522.2c0,0,0.2-0.2,0.5-0.6c0.3-0.4,0.8-0.8,1.5-1.3c0.6-0.5,1.4-0.9,2.3-1.3c0.8-0.4,1.7-0.6,2.5-0.7
		c1.6-0.2,3.7,0.3,5.3,0.8c1.6,0.5,2.8,1,2.8,1s-1.3,0.1-2.9,0.3c-0.8,0.1-1.7,0.2-2.6,0.3c-0.8,0.1-1.7,0.3-2.3,0.4
		c-0.6,0.1-1.4,0.2-2.2,0.3c-0.8,0.1-1.6,0.2-2.3,0.3c-0.4,0.1-0.7,0.1-1,0.2c-0.3,0.1-0.6,0.1-0.8,0.2
		C1569.5,522.2,1569.2,522.2,1569.2,522.2z"/>
</g>
<g>
	<path class="st62" d="M1614.4,511.5c0,0,0.5-0.2,1.3-0.6c0.4-0.2,0.9-0.4,1.5-0.6c0.3-0.1,0.6-0.2,0.9-0.3c0.3-0.1,0.7-0.2,1-0.4
		c2.8-1,6.5-1.9,9.5-2.2c1.5-0.2,3.3-0.2,5-0.2c0.9,0,1.8,0,2.6,0c0.9,0,1.7,0,2.5,0c1.6,0,3,0,4,0c1,0,1.6,0,1.6,0
		s-0.6,0.1-1.7,0.4c-1,0.2-2.5,0.6-4.1,0.9c-0.8,0.2-1.7,0.3-2.5,0.5c-0.9,0.1-1.7,0.3-2.6,0.4c-1.7,0.3-3.4,0.5-4.7,0.8
		c-2.7,0.4-6.4,0.6-9.3,0.8c-0.7,0.1-1.5,0.1-2.1,0.2c-0.6,0.1-1.2,0.1-1.7,0.2C1615,511.4,1614.4,511.5,1614.4,511.5z"/>
</g>
<g>
	<path class="st62" d="M1635.6,530.9c0,0,0.3,0,0.8,0c0.5,0,1.2,0,2,0c1.5-0.1,3.3-0.3,4.8-0.3c1.4,0,3.3,0.3,5,0.4
		c0.4,0,0.8,0,1.2,0c0.4,0,0.7,0,1,0c0.6,0,0.9-0.1,0.9-0.1s-0.3,0.2-0.8,0.5c-0.2,0.1-0.6,0.3-0.9,0.4c-0.3,0.1-0.7,0.3-1.1,0.5
		c-0.8,0.3-1.8,0.6-2.7,0.8c-0.5,0.1-0.9,0.2-1.3,0.2c-0.4,0-0.8,0.1-1.2,0.1c-1.5,0.1-3.5-0.3-5-1c-0.4-0.2-0.7-0.3-1-0.5
		c-0.3-0.2-0.6-0.3-0.8-0.5C1635.9,531.1,1635.6,530.9,1635.6,530.9z"/>
</g>
<path class="st63" d="M57.4,169.8c-22.5-1.7-26,15.9-10.6,25.9c5.9,3.9,36.9,9,45.8,10.8c60.8,12.3-7-29.8-9.7-47.2
	c-9.9-2.5-19.3,1-25.6,8.3"/>
<path class="st63" d="M490.8,184.9c-15.3,11-32.4,41.5-34.2,60.1c42.6-9.2,84-12,125.4-6.5c48.4,6.4,80.1-4.2,124-17.4
	c23.8-7.1,47.8,6.1,71.4-6.3c-7.7-31.3-98.2-5.8-119.9-1.3c-44.4,9.3-75.4-8.5-117-17.2c-25.9-5.4-35-0.3-60.3,3.7"/>
<path class="st63" d="M993.3,184.9c-10.6-2.3-53.9-13.3-44.6,8.7c7,16.6,66,11.1,80.3,13.3c21.6,3.3,41.9,8.5,64,9.9
	c24.8,1.6,36.6-5.5,59.8-11.7c31.9-8.6,36.6-6.1,49.4-39.2c-22.2,0.6-42.1,21-64.4,24c-13.3,1.8-19.7-4.9-32.3-5.7
	c-12.3-0.7-21.1,6.1-33.4,7.1c-34.3,2.9-92.4-20-121.9,4.4"/>
</svg>
